<svg xmlns="http://www.w3.org/2000/svg" width="760" height="295">
<defs><filter id="pencil" x="-5%" y="-5%" width="110%" height="110%"><feTurbulence type="fractalNoise" baseFrequency="0.9" numOctaves="4" seed="5" result="noise"/><feDisplacementMap in="SourceGraphic" in2="noise" scale="1.6" xChannelSelector="R" yChannelSelector="G"/></filter><filter id="pline" x="-2%" y="-30%" width="104%" height="160%"><feTurbulence type="fractalNoise" baseFrequency="0.015 0.9" numOctaves="3" seed="11" result="noise"/><feDisplacementMap in="SourceGraphic" in2="noise" scale="1.8" xChannelSelector="R" yChannelSelector="G"/></filter><filter id="rough" x="-5%" y="-5%" width="110%" height="110%"><feTurbulence type="turbulence" baseFrequency="0.05" numOctaves="2" seed="2" result="noise"/><feDisplacementMap in="SourceGraphic" in2="noise" scale="2" xChannelSelector="R" yChannelSelector="G"/></filter></defs>
<rect width="760" height="295" fill="#ffffff"/>
<text x="380" y="32" text-anchor="middle" font-size="14" font-weight="bold" font-family="Georgia,serif" fill="#111111" filter="url(#pencil)">Workload (6 months)</text>
<line x1="60" y1="250" x2="730" y2="250" stroke="#cccccc" stroke-width="0.7" stroke-dasharray="4,5" filter="url(#rough)"/>
<text x="54" y="254" text-anchor="end" font-size="10" font-family="Georgia,serif" fill="#333333">0</text>
<line x1="60" y1="201" x2="730" y2="201" stroke="#cccccc" stroke-width="0.7" stroke-dasharray="4,5" filter="url(#rough)"/>
<text x="54" y="205" text-anchor="end" font-size="10" font-family="Georgia,serif" fill="#333333">7K</text>
<line x1="60" y1="151" x2="730" y2="151" stroke="#cccccc" stroke-width="0.7" stroke-dasharray="4,5" filter="url(#rough)"/>
<text x="54" y="155" text-anchor="end" font-size="10" font-family="Georgia,serif" fill="#333333">15K</text>
<line x1="60" y1="101" x2="730" y2="101" stroke="#cccccc" stroke-width="0.7" stroke-dasharray="4,5" filter="url(#rough)"/>
<text x="54" y="105" text-anchor="end" font-size="10" font-family="Georgia,serif" fill="#333333">23K</text>
<line x1="60" y1="50" x2="730" y2="50" stroke="#cccccc" stroke-width="0.7" stroke-dasharray="4,5" filter="url(#rough)"/>
<text x="54" y="54" text-anchor="end" font-size="10" font-family="Georgia,serif" fill="#333333">31K</text>
<text x="104" y="270" text-anchor="middle" font-size="11" font-family="Georgia,serif" fill="#333333" filter="url(#pencil)">12월</text>
<text x="218" y="270" text-anchor="middle" font-size="11" font-family="Georgia,serif" fill="#333333" filter="url(#pencil)">1월</text>
<text x="332" y="270" text-anchor="middle" font-size="11" font-family="Georgia,serif" fill="#333333" filter="url(#pencil)">2월</text>
<text x="435" y="270" text-anchor="middle" font-size="11" font-family="Georgia,serif" fill="#333333" filter="url(#pencil)">3월</text>
<text x="549" y="270" text-anchor="middle" font-size="11" font-family="Georgia,serif" fill="#333333" filter="url(#pencil)">4월</text>
<text x="660" y="270" text-anchor="middle" font-size="11" font-family="Georgia,serif" fill="#333333" filter="url(#pencil)">5월</text>
<line x1="59" y1="42" x2="59" y2="256" stroke="#111111" stroke-width="2" filter="url(#pline)"/>
<line x1="52" y1="251" x2="738" y2="251" stroke="#111111" stroke-width="2" filter="url(#pline)"/>
<polygon points="60,250 60,250 63,249 67,248 71,242 74,240 78,240 82,238 85,236 89,236 93,236 96,236 100,236 104,236 107,235 111,235 115,235 118,235 122,231 126,231 129,213 133,213 137,213 140,213 144,181 148,181 152,181 155,181 159,181 163,181 166,181 170,162 174,162 177,162 181,162 185,162 188,158 192,158 196,158 199,158 203,158 207,158 210,158 214,158 218,158 221,158 225,158 229,158 233,158 236,158 240,158 244,158 247,158 251,158 255,158 258,158 262,158 266,158 269,158 273,158 277,158 280,154 284,154 288,154 291,153 295,153 299,153 302,151 306,150 310,148 314,140 317,140 321,140 325,139 328,131 332,129 336,128 339,128 343,128 347,127 350,118 354,118 358,117 361,117 365,117 369,117 372,117 376,117 380,117 383,117 387,117 391,117 395,117 398,117 402,116 406,116 409,116 413,116 417,116 420,116 424,114 428,112 431,111 435,106 439,104 442,104 446,104 450,104 453,104 457,104 461,104 464,104 468,104 472,104 475,104 479,103 483,103 487,103 490,100 494,99 498,99 501,95 505,94 509,94 512,94 516,83 520,83 523,83 527,77 531,68 534,62 538,61 542,60 545,60 549,60 553,60 556,60 560,60 564,60 568,60 571,60 575,60 579,60 582,59 586,59 590,59 593,59 597,59 601,59 604,59 608,57 612,55 615,55 619,55 623,55 626,55 630,55 634,55 637,55 641,55 645,55 649,55 652,55 656,55 660,55 663,55 667,55 671,55 674,55 678,54 682,54 685,54 689,54 693,54 696,54 700,54 704,54 707,54 711,54 715,54 718,53 722,53 726,51 730,50 730,250" fill="#e8e8e8" opacity="0.6"/>
<polyline points="60,250 63,249 67,248 71,242 74,240 78,240 82,238 85,236 89,236 93,236 96,236 100,236 104,236 107,235 111,235 115,235 118,235 122,231 126,231 129,213 133,213 137,213 140,213 144,181 148,181 152,181 155,181 159,181 163,181 166,181 170,162 174,162 177,162 181,162 185,162 188,158 192,158 196,158 199,158 203,158 207,158 210,158 214,158 218,158 221,158 225,158 229,158 233,158 236,158 240,158 244,158 247,158 251,158 255,158 258,158 262,158 266,158 269,158 273,158 277,158 280,154 284,154 288,154 291,153 295,153 299,153 302,151 306,150 310,148 314,140 317,140 321,140 325,139 328,131 332,129 336,128 339,128 343,128 347,127 350,118 354,118 358,117 361,117 365,117 369,117 372,117 376,117 380,117 383,117 387,117 391,117 395,117 398,117 402,116 406,116 409,116 413,116 417,116 420,116 424,114 428,112 431,111 435,106 439,104 442,104 446,104 450,104 453,104 457,104 461,104 464,104 468,104 472,104 475,104 479,103 483,103 487,103 490,100 494,99 498,99 501,95 505,94 509,94 512,94 516,83 520,83 523,83 527,77 531,68 534,62 538,61 542,60 545,60 549,60 553,60 556,60 560,60 564,60 568,60 571,60 575,60 579,60 582,59 586,59 590,59 593,59 597,59 601,59 604,59 608,57 612,55 615,55 619,55 623,55 626,55 630,55 634,55 637,55 641,55 645,55 649,55 652,55 656,55 660,55 663,55 667,55 671,55 674,55 678,54 682,54 685,54 689,54 693,54 696,54 700,54 704,54 707,54 711,54 715,54 718,53 722,53 726,51 730,50" fill="none" stroke="#111111" stroke-width="2.4" stroke-linejoin="round" stroke-linecap="round" filter="url(#pline)"/>
<circle cx="730" cy="50" r="4" fill="#111111" filter="url(#pencil)"/>
<text x="724" y="42" text-anchor="end" font-size="10" font-family="Georgia,serif" fill="#111111">31K</text>
<text x="60" y="289" font-size="9" font-family="Georgia,serif" fill="#888888">기준: 2026-05-20 15:59</text>
</svg>