<svg xmlns="http://www.w3.org/2000/svg" width="760" height="295">
<defs><filter id="pencil" x="-5%" y="-5%" width="110%" height="110%"><feTurbulence type="fractalNoise" baseFrequency="0.9" numOctaves="4" seed="5" result="noise"/><feDisplacementMap in="SourceGraphic" in2="noise" scale="1.6" xChannelSelector="R" yChannelSelector="G"/></filter><filter id="pline" x="-2%" y="-30%" width="104%" height="160%"><feTurbulence type="fractalNoise" baseFrequency="0.015 0.9" numOctaves="3" seed="11" result="noise"/><feDisplacementMap in="SourceGraphic" in2="noise" scale="1.8" xChannelSelector="R" yChannelSelector="G"/></filter><filter id="rough" x="-5%" y="-5%" width="110%" height="110%"><feTurbulence type="turbulence" baseFrequency="0.05" numOctaves="2" seed="2" result="noise"/><feDisplacementMap in="SourceGraphic" in2="noise" scale="2" xChannelSelector="R" yChannelSelector="G"/></filter></defs>
<rect width="760" height="295" fill="#ffffff"/>
<text x="380" y="32" text-anchor="middle" font-size="14" font-weight="bold" font-family="Georgia,serif" fill="#111111" filter="url(#pencil)">Workload (6 months)</text>
<line x1="60" y1="250" x2="730" y2="250" stroke="#cccccc" stroke-width="0.7" stroke-dasharray="4,5" filter="url(#rough)"/>
<text x="54" y="254" text-anchor="end" font-size="10" font-family="Georgia,serif" fill="#333333">0</text>
<line x1="60" y1="201" x2="730" y2="201" stroke="#cccccc" stroke-width="0.7" stroke-dasharray="4,5" filter="url(#rough)"/>
<text x="54" y="205" text-anchor="end" font-size="10" font-family="Georgia,serif" fill="#333333">432K</text>
<line x1="60" y1="151" x2="730" y2="151" stroke="#cccccc" stroke-width="0.7" stroke-dasharray="4,5" filter="url(#rough)"/>
<text x="54" y="155" text-anchor="end" font-size="10" font-family="Georgia,serif" fill="#333333">865K</text>
<line x1="60" y1="101" x2="730" y2="101" stroke="#cccccc" stroke-width="0.7" stroke-dasharray="4,5" filter="url(#rough)"/>
<text x="54" y="105" text-anchor="end" font-size="10" font-family="Georgia,serif" fill="#333333">1297K</text>
<line x1="60" y1="50" x2="730" y2="50" stroke="#cccccc" stroke-width="0.7" stroke-dasharray="4,5" filter="url(#rough)"/>
<text x="54" y="54" text-anchor="end" font-size="10" font-family="Georgia,serif" fill="#333333">1730K</text>
<text x="137" y="270" text-anchor="middle" font-size="11" font-family="Georgia,serif" fill="#333333" filter="url(#pencil)">2월</text>
<text x="240" y="270" text-anchor="middle" font-size="11" font-family="Georgia,serif" fill="#333333" filter="url(#pencil)">3월</text>
<text x="354" y="270" text-anchor="middle" font-size="11" font-family="Georgia,serif" fill="#333333" filter="url(#pencil)">4월</text>
<text x="464" y="270" text-anchor="middle" font-size="11" font-family="Georgia,serif" fill="#333333" filter="url(#pencil)">5월</text>
<text x="579" y="270" text-anchor="middle" font-size="11" font-family="Georgia,serif" fill="#333333" filter="url(#pencil)">6월</text>
<text x="689" y="270" text-anchor="middle" font-size="11" font-family="Georgia,serif" fill="#333333" filter="url(#pencil)">7월</text>
<line x1="59" y1="42" x2="59" y2="256" stroke="#111111" stroke-width="2" filter="url(#pline)"/>
<line x1="52" y1="251" x2="738" y2="251" stroke="#111111" stroke-width="2" filter="url(#pline)"/>
<polygon points="60,250 60,250 63,250 67,250 71,250 74,250 78,250 82,250 85,248 89,248 93,248 96,248 100,248 104,247 107,246 111,245 115,244 118,240 122,240 126,240 129,239 133,234 137,233 140,232 144,232 148,232 152,232 155,226 159,226 163,226 166,226 170,226 174,226 177,226 181,225 185,225 188,225 192,225 196,225 199,225 203,225 207,224 210,224 214,224 218,224 221,224 225,224 229,223 233,221 236,221 240,218 244,217 247,217 251,217 255,216 258,216 262,216 266,216 269,216 273,216 277,216 280,216 284,215 288,215 291,215 295,213 299,213 302,213 306,210 310,210 314,210 317,210 321,203 325,203 328,203 332,199 336,194 339,190 343,190 347,189 350,189 354,189 358,188 361,188 365,188 369,188 372,188 376,188 380,188 383,188 387,188 391,188 395,188 398,183 402,183 406,183 409,183 413,181 417,180 420,176 424,176 428,176 431,173 435,173 439,173 442,171 446,169 450,169 453,169 457,169 461,169 464,169 468,169 472,168 475,168 479,168 483,167 487,167 490,167 494,167 498,167 501,167 505,167 509,167 512,167 516,165 520,165 523,164 527,164 531,162 534,160 538,158 542,154 545,152 549,149 553,147 556,145 560,143 564,141 568,139 571,137 575,135 579,133 582,132 586,131 590,129 593,128 597,126 601,124 604,123 608,118 612,114 615,113 619,112 623,109 626,108 630,107 634,106 637,105 641,104 645,102 649,98 652,85 656,77 660,71 663,64 667,61 671,60 674,59 678,58 682,57 685,55 689,54 693,54 696,53 700,53 704,52 707,52 711,51 715,51 718,51 722,51 726,51 730,50 730,250" fill="#e8e8e8" opacity="0.6"/>
<polyline points="60,250 63,250 67,250 71,250 74,250 78,250 82,250 85,248 89,248 93,248 96,248 100,248 104,247 107,246 111,245 115,244 118,240 122,240 126,240 129,239 133,234 137,233 140,232 144,232 148,232 152,232 155,226 159,226 163,226 166,226 170,226 174,226 177,226 181,225 185,225 188,225 192,225 196,225 199,225 203,225 207,224 210,224 214,224 218,224 221,224 225,224 229,223 233,221 236,221 240,218 244,217 247,217 251,217 255,216 258,216 262,216 266,216 269,216 273,216 277,216 280,216 284,215 288,215 291,215 295,213 299,213 302,213 306,210 310,210 314,210 317,210 321,203 325,203 328,203 332,199 336,194 339,190 343,190 347,189 350,189 354,189 358,188 361,188 365,188 369,188 372,188 376,188 380,188 383,188 387,188 391,188 395,188 398,183 402,183 406,183 409,183 413,181 417,180 420,176 424,176 428,176 431,173 435,173 439,173 442,171 446,169 450,169 453,169 457,169 461,169 464,169 468,169 472,168 475,168 479,168 483,167 487,167 490,167 494,167 498,167 501,167 505,167 509,167 512,167 516,165 520,165 523,164 527,164 531,162 534,160 538,158 542,154 545,152 549,149 553,147 556,145 560,143 564,141 568,139 571,137 575,135 579,133 582,132 586,131 590,129 593,128 597,126 601,124 604,123 608,118 612,114 615,113 619,112 623,109 626,108 630,107 634,106 637,105 641,104 645,102 649,98 652,85 656,77 660,71 663,64 667,61 671,60 674,59 678,58 682,57 685,55 689,54 693,54 696,53 700,53 704,52 707,52 711,51 715,51 718,51 722,51 726,51 730,50" fill="none" stroke="#111111" stroke-width="2.4" stroke-linejoin="round" stroke-linecap="round" filter="url(#pline)"/>
<circle cx="730" cy="50" r="4" fill="#111111" filter="url(#pencil)"/>
<text x="724" y="42" text-anchor="end" font-size="10" font-family="Georgia,serif" fill="#111111">1730K</text>
<text x="60" y="289" font-size="9" font-family="Georgia,serif" fill="#888888">기준: 2026-07-12 04:01</text>
</svg>