<svg xmlns="http://www.w3.org/2000/svg" width="760" height="295">
<defs><filter id="pencil" x="-5%" y="-5%" width="110%" height="110%"><feTurbulence type="fractalNoise" baseFrequency="0.9" numOctaves="4" seed="5" result="noise"/><feDisplacementMap in="SourceGraphic" in2="noise" scale="1.6" xChannelSelector="R" yChannelSelector="G"/></filter><filter id="pline" x="-2%" y="-30%" width="104%" height="160%"><feTurbulence type="fractalNoise" baseFrequency="0.015 0.9" numOctaves="3" seed="11" result="noise"/><feDisplacementMap in="SourceGraphic" in2="noise" scale="1.8" xChannelSelector="R" yChannelSelector="G"/></filter><filter id="rough" x="-5%" y="-5%" width="110%" height="110%"><feTurbulence type="turbulence" baseFrequency="0.05" numOctaves="2" seed="2" result="noise"/><feDisplacementMap in="SourceGraphic" in2="noise" scale="2" xChannelSelector="R" yChannelSelector="G"/></filter></defs>
<rect width="760" height="295" fill="#ffffff"/>
<text x="380" y="32" text-anchor="middle" font-size="14" font-weight="bold" font-family="Georgia,serif" fill="#111111" filter="url(#pencil)">Workload (6 months)</text>
<line x1="60" y1="250" x2="730" y2="250" stroke="#cccccc" stroke-width="0.7" stroke-dasharray="4,5" filter="url(#rough)"/>
<text x="54" y="254" text-anchor="end" font-size="10" font-family="Georgia,serif" fill="#333333">0</text>
<line x1="60" y1="201" x2="730" y2="201" stroke="#cccccc" stroke-width="0.7" stroke-dasharray="4,5" filter="url(#rough)"/>
<text x="54" y="205" text-anchor="end" font-size="10" font-family="Georgia,serif" fill="#333333">38K</text>
<line x1="60" y1="150" x2="730" y2="150" stroke="#cccccc" stroke-width="0.7" stroke-dasharray="4,5" filter="url(#rough)"/>
<text x="54" y="154" text-anchor="end" font-size="10" font-family="Georgia,serif" fill="#333333">76K</text>
<line x1="60" y1="101" x2="730" y2="101" stroke="#cccccc" stroke-width="0.7" stroke-dasharray="4,5" filter="url(#rough)"/>
<text x="54" y="105" text-anchor="end" font-size="10" font-family="Georgia,serif" fill="#333333">115K</text>
<line x1="60" y1="50" x2="730" y2="50" stroke="#cccccc" stroke-width="0.7" stroke-dasharray="4,5" filter="url(#rough)"/>
<text x="54" y="54" text-anchor="end" font-size="10" font-family="Georgia,serif" fill="#333333">153K</text>
<text x="82" y="270" text-anchor="middle" font-size="11" font-family="Georgia,serif" fill="#333333" filter="url(#pencil)">12월</text>
<text x="196" y="270" text-anchor="middle" font-size="11" font-family="Georgia,serif" fill="#333333" filter="url(#pencil)">1월</text>
<text x="310" y="270" text-anchor="middle" font-size="11" font-family="Georgia,serif" fill="#333333" filter="url(#pencil)">2월</text>
<text x="413" y="270" text-anchor="middle" font-size="11" font-family="Georgia,serif" fill="#333333" filter="url(#pencil)">3월</text>
<text x="527" y="270" text-anchor="middle" font-size="11" font-family="Georgia,serif" fill="#333333" filter="url(#pencil)">4월</text>
<text x="637" y="270" text-anchor="middle" font-size="11" font-family="Georgia,serif" fill="#333333" filter="url(#pencil)">5월</text>
<line x1="59" y1="42" x2="59" y2="256" stroke="#111111" stroke-width="2" filter="url(#pline)"/>
<line x1="52" y1="251" x2="738" y2="251" stroke="#111111" stroke-width="2" filter="url(#pline)"/>
<polygon points="60,250 60,248 63,247 67,247 71,247 74,247 78,247 82,247 85,246 89,246 93,246 96,246 100,242 104,242 107,224 111,224 115,224 118,224 122,192 126,192 129,192 133,192 137,192 140,192 144,192 148,173 152,173 155,173 159,173 163,173 166,169 170,169 174,169 177,169 181,169 185,169 188,169 192,169 196,169 199,169 203,169 207,169 210,169 214,169 218,169 221,169 225,169 229,169 233,169 236,169 240,169 244,169 247,169 251,169 255,169 258,165 262,165 266,165 269,164 273,164 277,164 280,162 284,161 288,159 291,151 295,151 299,151 302,150 306,142 310,140 314,139 317,139 321,139 325,138 328,129 332,129 336,128 339,128 343,128 347,128 350,128 354,128 358,128 361,128 365,128 369,128 372,128 376,128 380,127 383,127 387,127 391,127 395,127 398,127 402,125 406,123 409,122 413,117 417,115 420,115 424,115 428,115 431,115 435,115 439,115 442,115 446,115 450,115 453,115 457,114 461,114 464,114 468,111 472,110 475,110 479,106 483,105 487,105 490,105 494,94 498,94 501,94 505,88 509,79 512,73 516,72 520,71 523,71 527,71 531,71 534,71 538,71 542,71 545,71 549,71 553,71 556,71 560,70 564,70 568,70 571,70 575,70 579,70 582,70 586,68 590,67 593,67 597,67 601,67 604,67 608,67 612,67 615,67 619,67 623,67 626,67 630,67 634,67 637,67 641,67 645,66 649,66 652,66 656,65 660,65 663,65 667,65 671,65 674,65 678,65 682,65 685,65 689,65 693,65 696,64 700,64 704,61 707,58 711,56 715,54 718,52 722,51 726,51 730,50 730,250" fill="#e8e8e8" opacity="0.6"/>
<polyline points="60,248 63,247 67,247 71,247 74,247 78,247 82,247 85,246 89,246 93,246 96,246 100,242 104,242 107,224 111,224 115,224 118,224 122,192 126,192 129,192 133,192 137,192 140,192 144,192 148,173 152,173 155,173 159,173 163,173 166,169 170,169 174,169 177,169 181,169 185,169 188,169 192,169 196,169 199,169 203,169 207,169 210,169 214,169 218,169 221,169 225,169 229,169 233,169 236,169 240,169 244,169 247,169 251,169 255,169 258,165 262,165 266,165 269,164 273,164 277,164 280,162 284,161 288,159 291,151 295,151 299,151 302,150 306,142 310,140 314,139 317,139 321,139 325,138 328,129 332,129 336,128 339,128 343,128 347,128 350,128 354,128 358,128 361,128 365,128 369,128 372,128 376,128 380,127 383,127 387,127 391,127 395,127 398,127 402,125 406,123 409,122 413,117 417,115 420,115 424,115 428,115 431,115 435,115 439,115 442,115 446,115 450,115 453,115 457,114 461,114 464,114 468,111 472,110 475,110 479,106 483,105 487,105 490,105 494,94 498,94 501,94 505,88 509,79 512,73 516,72 520,71 523,71 527,71 531,71 534,71 538,71 542,71 545,71 549,71 553,71 556,71 560,70 564,70 568,70 571,70 575,70 579,70 582,70 586,68 590,67 593,67 597,67 601,67 604,67 608,67 612,67 615,67 619,67 623,67 626,67 630,67 634,67 637,67 641,67 645,66 649,66 652,66 656,65 660,65 663,65 667,65 671,65 674,65 678,65 682,65 685,65 689,65 693,65 696,64 700,64 704,61 707,58 711,56 715,54 718,52 722,51 726,51 730,50" fill="none" stroke="#111111" stroke-width="2.4" stroke-linejoin="round" stroke-linecap="round" filter="url(#pline)"/>
<circle cx="730" cy="50" r="4" fill="#111111" filter="url(#pencil)"/>
<text x="724" y="42" text-anchor="end" font-size="10" font-family="Georgia,serif" fill="#111111">153K</text>
<text x="60" y="289" font-size="9" font-family="Georgia,serif" fill="#888888">기준: 2026-05-26 20:26</text>
</svg>