<svg xmlns="http://www.w3.org/2000/svg" width="760" height="295">
<defs><filter id="pencil" x="-5%" y="-5%" width="110%" height="110%"><feTurbulence type="fractalNoise" baseFrequency="0.9" numOctaves="4" seed="5" result="noise"/><feDisplacementMap in="SourceGraphic" in2="noise" scale="1.6" xChannelSelector="R" yChannelSelector="G"/></filter><filter id="pline" x="-2%" y="-30%" width="104%" height="160%"><feTurbulence type="fractalNoise" baseFrequency="0.015 0.9" numOctaves="3" seed="11" result="noise"/><feDisplacementMap in="SourceGraphic" in2="noise" scale="1.8" xChannelSelector="R" yChannelSelector="G"/></filter><filter id="rough" x="-5%" y="-5%" width="110%" height="110%"><feTurbulence type="turbulence" baseFrequency="0.05" numOctaves="2" seed="2" result="noise"/><feDisplacementMap in="SourceGraphic" in2="noise" scale="2" xChannelSelector="R" yChannelSelector="G"/></filter></defs>
<rect width="760" height="295" fill="#ffffff"/>
<text x="380" y="32" text-anchor="middle" font-size="14" font-weight="bold" font-family="Georgia,serif" fill="#111111" filter="url(#pencil)">Workload (6 months)</text>
<line x1="60" y1="250" x2="730" y2="250" stroke="#cccccc" stroke-width="0.7" stroke-dasharray="4,5" filter="url(#rough)"/>
<text x="54" y="254" text-anchor="end" font-size="10" font-family="Georgia,serif" fill="#333333">0</text>
<line x1="60" y1="201" x2="730" y2="201" stroke="#cccccc" stroke-width="0.7" stroke-dasharray="4,5" filter="url(#rough)"/>
<text x="54" y="205" text-anchor="end" font-size="10" font-family="Georgia,serif" fill="#333333">248K</text>
<line x1="60" y1="151" x2="730" y2="151" stroke="#cccccc" stroke-width="0.7" stroke-dasharray="4,5" filter="url(#rough)"/>
<text x="54" y="155" text-anchor="end" font-size="10" font-family="Georgia,serif" fill="#333333">497K</text>
<line x1="60" y1="101" x2="730" y2="101" stroke="#cccccc" stroke-width="0.7" stroke-dasharray="4,5" filter="url(#rough)"/>
<text x="54" y="105" text-anchor="end" font-size="10" font-family="Georgia,serif" fill="#333333">746K</text>
<line x1="60" y1="50" x2="730" y2="50" stroke="#cccccc" stroke-width="0.7" stroke-dasharray="4,5" filter="url(#rough)"/>
<text x="54" y="54" text-anchor="end" font-size="10" font-family="Georgia,serif" fill="#333333">995K</text>
<text x="63" y="270" text-anchor="middle" font-size="11" font-family="Georgia,serif" fill="#333333" filter="url(#pencil)">1월</text>
<text x="177" y="270" text-anchor="middle" font-size="11" font-family="Georgia,serif" fill="#333333" filter="url(#pencil)">2월</text>
<text x="280" y="270" text-anchor="middle" font-size="11" font-family="Georgia,serif" fill="#333333" filter="url(#pencil)">3월</text>
<text x="395" y="270" text-anchor="middle" font-size="11" font-family="Georgia,serif" fill="#333333" filter="url(#pencil)">4월</text>
<text x="505" y="270" text-anchor="middle" font-size="11" font-family="Georgia,serif" fill="#333333" filter="url(#pencil)">5월</text>
<text x="619" y="270" text-anchor="middle" font-size="11" font-family="Georgia,serif" fill="#333333" filter="url(#pencil)">6월</text>
<text x="730" y="270" text-anchor="middle" font-size="11" font-family="Georgia,serif" fill="#333333" filter="url(#pencil)">7월</text>
<line x1="59" y1="42" x2="59" y2="256" stroke="#111111" stroke-width="2" filter="url(#pline)"/>
<line x1="52" y1="251" x2="738" y2="251" stroke="#111111" stroke-width="2" filter="url(#pline)"/>
<polygon points="60,250 60,250 63,250 67,250 71,250 74,250 78,250 82,250 85,250 89,250 93,250 96,250 100,250 104,250 107,250 111,250 115,250 118,250 122,250 126,247 129,247 133,247 137,247 140,247 144,247 148,245 152,244 155,243 159,237 163,237 166,237 170,235 174,229 177,227 181,226 185,226 188,226 192,226 196,219 199,218 203,218 207,218 210,218 214,218 218,218 221,218 225,218 229,218 233,218 236,218 240,218 244,218 247,216 251,216 255,216 258,216 262,216 266,216 269,215 273,213 277,213 280,209 284,207 288,207 291,207 295,207 299,207 302,207 306,207 310,207 314,207 317,207 321,207 325,206 328,206 332,206 336,204 339,203 343,203 347,199 350,199 354,199 358,199 361,190 365,190 369,190 372,185 376,178 380,173 383,172 387,172 391,171 395,171 398,171 402,171 406,171 409,171 413,171 417,171 420,171 424,171 428,170 431,170 435,170 439,166 442,166 446,166 450,166 453,164 457,163 461,159 464,159 468,159 472,157 475,157 479,156 483,155 487,153 490,152 494,152 498,152 501,152 505,152 509,152 512,152 516,152 520,152 523,151 527,151 531,151 534,151 538,151 542,151 545,151 549,151 553,151 556,149 560,149 564,149 568,148 571,146 575,143 579,141 582,137 586,134 590,131 593,128 597,126 601,124 604,122 608,120 612,117 615,115 619,114 623,112 626,111 630,109 634,108 637,106 641,103 645,102 649,96 652,93 656,92 660,90 663,88 667,87 671,86 674,85 678,84 682,83 685,81 689,78 693,68 696,62 700,58 704,54 707,52 711,52 715,51 718,51 722,51 726,50 730,50 730,250" fill="#e8e8e8" opacity="0.6"/>
<polyline points="60,250 63,250 67,250 71,250 74,250 78,250 82,250 85,250 89,250 93,250 96,250 100,250 104,250 107,250 111,250 115,250 118,250 122,250 126,247 129,247 133,247 137,247 140,247 144,247 148,245 152,244 155,243 159,237 163,237 166,237 170,235 174,229 177,227 181,226 185,226 188,226 192,226 196,219 199,218 203,218 207,218 210,218 214,218 218,218 221,218 225,218 229,218 233,218 236,218 240,218 244,218 247,216 251,216 255,216 258,216 262,216 266,216 269,215 273,213 277,213 280,209 284,207 288,207 291,207 295,207 299,207 302,207 306,207 310,207 314,207 317,207 321,207 325,206 328,206 332,206 336,204 339,203 343,203 347,199 350,199 354,199 358,199 361,190 365,190 369,190 372,185 376,178 380,173 383,172 387,172 391,171 395,171 398,171 402,171 406,171 409,171 413,171 417,171 420,171 424,171 428,170 431,170 435,170 439,166 442,166 446,166 450,166 453,164 457,163 461,159 464,159 468,159 472,157 475,157 479,156 483,155 487,153 490,152 494,152 498,152 501,152 505,152 509,152 512,152 516,152 520,152 523,151 527,151 531,151 534,151 538,151 542,151 545,151 549,151 553,151 556,149 560,149 564,149 568,148 571,146 575,143 579,141 582,137 586,134 590,131 593,128 597,126 601,124 604,122 608,120 612,117 615,115 619,114 623,112 626,111 630,109 634,108 637,106 641,103 645,102 649,96 652,93 656,92 660,90 663,88 667,87 671,86 674,85 678,84 682,83 685,81 689,78 693,68 696,62 700,58 704,54 707,52 711,52 715,51 718,51 722,51 726,50 730,50" fill="none" stroke="#111111" stroke-width="2.4" stroke-linejoin="round" stroke-linecap="round" filter="url(#pline)"/>
<circle cx="730" cy="50" r="4" fill="#111111" filter="url(#pencil)"/>
<text x="724" y="42" text-anchor="end" font-size="10" font-family="Georgia,serif" fill="#111111">995K</text>
<text x="60" y="289" font-size="9" font-family="Georgia,serif" fill="#888888">기준: 2026-07-01 04:55</text>
</svg>