<svg xmlns="http://www.w3.org/2000/svg" width="760" height="295">
<defs><filter id="pencil" x="-5%" y="-5%" width="110%" height="110%"><feTurbulence type="fractalNoise" baseFrequency="0.9" numOctaves="4" seed="5" result="noise"/><feDisplacementMap in="SourceGraphic" in2="noise" scale="1.6" xChannelSelector="R" yChannelSelector="G"/></filter><filter id="pline" x="-2%" y="-30%" width="104%" height="160%"><feTurbulence type="fractalNoise" baseFrequency="0.015 0.9" numOctaves="3" seed="11" result="noise"/><feDisplacementMap in="SourceGraphic" in2="noise" scale="1.8" xChannelSelector="R" yChannelSelector="G"/></filter><filter id="rough" x="-5%" y="-5%" width="110%" height="110%"><feTurbulence type="turbulence" baseFrequency="0.05" numOctaves="2" seed="2" result="noise"/><feDisplacementMap in="SourceGraphic" in2="noise" scale="2" xChannelSelector="R" yChannelSelector="G"/></filter></defs>
<rect width="760" height="295" fill="#ffffff"/>
<text x="380" y="32" text-anchor="middle" font-size="14" font-weight="bold" font-family="Georgia,serif" fill="#111111" filter="url(#pencil)">Workload (6 months)</text>
<line x1="60" y1="250" x2="730" y2="250" stroke="#cccccc" stroke-width="0.7" stroke-dasharray="4,5" filter="url(#rough)"/>
<text x="54" y="254" text-anchor="end" font-size="10" font-family="Georgia,serif" fill="#333333">0</text>
<line x1="60" y1="201" x2="730" y2="201" stroke="#cccccc" stroke-width="0.7" stroke-dasharray="4,5" filter="url(#rough)"/>
<text x="54" y="205" text-anchor="end" font-size="10" font-family="Georgia,serif" fill="#333333">225K</text>
<line x1="60" y1="151" x2="730" y2="151" stroke="#cccccc" stroke-width="0.7" stroke-dasharray="4,5" filter="url(#rough)"/>
<text x="54" y="155" text-anchor="end" font-size="10" font-family="Georgia,serif" fill="#333333">451K</text>
<line x1="60" y1="101" x2="730" y2="101" stroke="#cccccc" stroke-width="0.7" stroke-dasharray="4,5" filter="url(#rough)"/>
<text x="54" y="105" text-anchor="end" font-size="10" font-family="Georgia,serif" fill="#333333">677K</text>
<line x1="60" y1="50" x2="730" y2="50" stroke="#cccccc" stroke-width="0.7" stroke-dasharray="4,5" filter="url(#rough)"/>
<text x="54" y="54" text-anchor="end" font-size="10" font-family="Georgia,serif" fill="#333333">902K</text>
<text x="71" y="270" text-anchor="middle" font-size="11" font-family="Georgia,serif" fill="#333333" filter="url(#pencil)">1월</text>
<text x="185" y="270" text-anchor="middle" font-size="11" font-family="Georgia,serif" fill="#333333" filter="url(#pencil)">2월</text>
<text x="288" y="270" text-anchor="middle" font-size="11" font-family="Georgia,serif" fill="#333333" filter="url(#pencil)">3월</text>
<text x="402" y="270" text-anchor="middle" font-size="11" font-family="Georgia,serif" fill="#333333" filter="url(#pencil)">4월</text>
<text x="512" y="270" text-anchor="middle" font-size="11" font-family="Georgia,serif" fill="#333333" filter="url(#pencil)">5월</text>
<text x="626" y="270" text-anchor="middle" font-size="11" font-family="Georgia,serif" fill="#333333" filter="url(#pencil)">6월</text>
<line x1="59" y1="42" x2="59" y2="256" stroke="#111111" stroke-width="2" filter="url(#pline)"/>
<line x1="52" y1="251" x2="738" y2="251" stroke="#111111" stroke-width="2" filter="url(#pline)"/>
<polygon points="60,250 60,250 63,250 67,250 71,250 74,250 78,250 82,250 85,250 89,250 93,250 96,250 100,250 104,250 107,250 111,250 115,250 118,250 122,250 126,250 129,250 133,247 137,247 140,247 144,247 148,247 152,247 155,244 159,244 163,242 166,236 170,236 174,236 177,234 181,227 185,226 188,225 192,225 196,225 199,225 203,217 207,216 210,216 214,216 218,216 221,216 225,216 229,216 233,216 236,216 240,216 244,216 247,216 251,216 255,215 258,215 262,215 266,215 269,215 273,215 277,213 280,211 284,211 288,206 291,205 295,205 299,205 302,205 306,205 310,205 314,205 317,205 321,205 325,205 328,205 332,204 336,204 339,204 343,201 347,200 350,200 354,197 358,196 361,196 365,196 369,187 372,187 376,187 380,181 383,174 387,168 391,168 395,167 398,167 402,167 406,166 409,166 413,166 417,166 420,166 424,166 428,166 431,166 435,166 439,166 442,166 446,162 450,162 453,162 457,162 461,160 464,159 468,155 472,155 475,155 479,153 483,153 487,152 490,151 494,150 498,149 501,149 505,149 509,149 512,149 516,149 520,149 523,149 527,149 531,148 534,148 538,148 542,148 545,148 549,148 553,147 556,147 560,147 564,146 568,146 571,145 575,145 579,142 582,139 586,137 590,133 593,130 597,126 601,124 604,122 608,120 612,118 615,115 619,113 623,110 626,109 630,107 634,106 637,104 641,103 645,101 649,98 652,97 656,91 660,88 663,87 667,86 671,83 674,82 678,81 682,80 685,79 689,78 693,77 696,74 700,65 704,60 707,56 711,52 715,51 718,51 722,51 726,51 730,50 730,250" fill="#e8e8e8" opacity="0.6"/>
<polyline points="60,250 63,250 67,250 71,250 74,250 78,250 82,250 85,250 89,250 93,250 96,250 100,250 104,250 107,250 111,250 115,250 118,250 122,250 126,250 129,250 133,247 137,247 140,247 144,247 148,247 152,247 155,244 159,244 163,242 166,236 170,236 174,236 177,234 181,227 185,226 188,225 192,225 196,225 199,225 203,217 207,216 210,216 214,216 218,216 221,216 225,216 229,216 233,216 236,216 240,216 244,216 247,216 251,216 255,215 258,215 262,215 266,215 269,215 273,215 277,213 280,211 284,211 288,206 291,205 295,205 299,205 302,205 306,205 310,205 314,205 317,205 321,205 325,205 328,205 332,204 336,204 339,204 343,201 347,200 350,200 354,197 358,196 361,196 365,196 369,187 372,187 376,187 380,181 383,174 387,168 391,168 395,167 398,167 402,167 406,166 409,166 413,166 417,166 420,166 424,166 428,166 431,166 435,166 439,166 442,166 446,162 450,162 453,162 457,162 461,160 464,159 468,155 472,155 475,155 479,153 483,153 487,152 490,151 494,150 498,149 501,149 505,149 509,149 512,149 516,149 520,149 523,149 527,149 531,148 534,148 538,148 542,148 545,148 549,148 553,147 556,147 560,147 564,146 568,146 571,145 575,145 579,142 582,139 586,137 590,133 593,130 597,126 601,124 604,122 608,120 612,118 615,115 619,113 623,110 626,109 630,107 634,106 637,104 641,103 645,101 649,98 652,97 656,91 660,88 663,87 667,86 671,83 674,82 678,81 682,80 685,79 689,78 693,77 696,74 700,65 704,60 707,56 711,52 715,51 718,51 722,51 726,51 730,50" fill="none" stroke="#111111" stroke-width="2.4" stroke-linejoin="round" stroke-linecap="round" filter="url(#pline)"/>
<circle cx="730" cy="50" r="4" fill="#111111" filter="url(#pencil)"/>
<text x="724" y="42" text-anchor="end" font-size="10" font-family="Georgia,serif" fill="#111111">902K</text>
<text x="60" y="289" font-size="9" font-family="Georgia,serif" fill="#888888">기준: 2026-06-29 11:25</text>
</svg>