<svg xmlns="http://www.w3.org/2000/svg" width="760" height="295">
<defs><filter id="pencil" x="-5%" y="-5%" width="110%" height="110%"><feTurbulence type="fractalNoise" baseFrequency="0.9" numOctaves="4" seed="5" result="noise"/><feDisplacementMap in="SourceGraphic" in2="noise" scale="1.6" xChannelSelector="R" yChannelSelector="G"/></filter><filter id="pline" x="-2%" y="-30%" width="104%" height="160%"><feTurbulence type="fractalNoise" baseFrequency="0.015 0.9" numOctaves="3" seed="11" result="noise"/><feDisplacementMap in="SourceGraphic" in2="noise" scale="1.8" xChannelSelector="R" yChannelSelector="G"/></filter><filter id="rough" x="-5%" y="-5%" width="110%" height="110%"><feTurbulence type="turbulence" baseFrequency="0.05" numOctaves="2" seed="2" result="noise"/><feDisplacementMap in="SourceGraphic" in2="noise" scale="2" xChannelSelector="R" yChannelSelector="G"/></filter></defs>
<rect width="760" height="295" fill="#ffffff"/>
<text x="380" y="32" text-anchor="middle" font-size="14" font-weight="bold" font-family="Georgia,serif" fill="#111111" filter="url(#pencil)">Workload (6 months)</text>
<line x1="60" y1="250" x2="730" y2="250" stroke="#cccccc" stroke-width="0.7" stroke-dasharray="4,5" filter="url(#rough)"/>
<text x="54" y="254" text-anchor="end" font-size="10" font-family="Georgia,serif" fill="#333333">0</text>
<line x1="60" y1="201" x2="730" y2="201" stroke="#cccccc" stroke-width="0.7" stroke-dasharray="4,5" filter="url(#rough)"/>
<text x="54" y="205" text-anchor="end" font-size="10" font-family="Georgia,serif" fill="#333333">114K</text>
<line x1="60" y1="151" x2="730" y2="151" stroke="#cccccc" stroke-width="0.7" stroke-dasharray="4,5" filter="url(#rough)"/>
<text x="54" y="155" text-anchor="end" font-size="10" font-family="Georgia,serif" fill="#333333">229K</text>
<line x1="60" y1="101" x2="730" y2="101" stroke="#cccccc" stroke-width="0.7" stroke-dasharray="4,5" filter="url(#rough)"/>
<text x="54" y="105" text-anchor="end" font-size="10" font-family="Georgia,serif" fill="#333333">343K</text>
<line x1="60" y1="50" x2="730" y2="50" stroke="#cccccc" stroke-width="0.7" stroke-dasharray="4,5" filter="url(#rough)"/>
<text x="54" y="54" text-anchor="end" font-size="10" font-family="Georgia,serif" fill="#333333">458K</text>
<text x="122" y="270" text-anchor="middle" font-size="11" font-family="Georgia,serif" fill="#333333" filter="url(#pencil)">1월</text>
<text x="236" y="270" text-anchor="middle" font-size="11" font-family="Georgia,serif" fill="#333333" filter="url(#pencil)">2월</text>
<text x="339" y="270" text-anchor="middle" font-size="11" font-family="Georgia,serif" fill="#333333" filter="url(#pencil)">3월</text>
<text x="453" y="270" text-anchor="middle" font-size="11" font-family="Georgia,serif" fill="#333333" filter="url(#pencil)">4월</text>
<text x="564" y="270" text-anchor="middle" font-size="11" font-family="Georgia,serif" fill="#333333" filter="url(#pencil)">5월</text>
<text x="678" y="270" text-anchor="middle" font-size="11" font-family="Georgia,serif" fill="#333333" filter="url(#pencil)">6월</text>
<line x1="59" y1="42" x2="59" y2="256" stroke="#111111" stroke-width="2" filter="url(#pline)"/>
<line x1="52" y1="251" x2="738" y2="251" stroke="#111111" stroke-width="2" filter="url(#pline)"/>
<polygon points="60,250 60,250 63,250 67,250 71,250 74,229 78,229 82,229 85,229 89,229 93,224 96,224 100,224 104,224 107,224 111,224 115,224 118,224 122,224 126,224 129,224 133,224 137,224 140,224 144,224 148,224 152,224 155,224 159,224 163,224 166,224 170,224 174,224 177,224 181,224 185,219 188,219 192,219 196,219 199,219 203,219 207,216 210,215 214,213 218,205 221,205 225,205 229,203 233,194 236,192 240,191 244,191 247,190 251,190 255,180 258,179 262,179 266,179 269,179 273,179 277,179 280,179 284,179 288,179 291,179 295,179 299,179 302,179 306,177 310,177 314,177 317,177 321,177 325,177 328,175 332,173 336,172 339,166 343,164 347,164 350,164 354,164 358,164 361,164 365,164 369,164 372,164 376,164 380,164 383,163 387,163 391,163 395,159 398,158 402,158 406,153 409,153 413,153 417,153 420,141 424,141 428,141 431,133 435,124 439,116 442,116 446,115 450,115 453,115 457,115 461,115 464,115 468,115 472,115 475,115 479,115 483,115 487,114 490,114 494,114 498,114 501,114 505,114 509,114 512,111 516,110 520,110 523,110 527,110 531,110 534,110 538,110 542,110 545,110 549,110 553,110 556,110 560,110 564,110 568,110 571,109 575,109 579,109 582,108 586,108 590,108 593,108 597,108 601,108 604,108 608,108 612,108 615,108 619,108 623,107 626,106 630,103 634,99 637,96 641,93 645,89 649,85 652,82 656,80 660,77 663,75 667,73 671,70 674,68 678,67 682,65 685,64 689,63 693,61 696,60 700,58 704,57 707,54 711,52 715,52 718,51 722,51 726,51 730,50 730,250" fill="#e8e8e8" opacity="0.6"/>
<polyline points="60,250 63,250 67,250 71,250 74,229 78,229 82,229 85,229 89,229 93,224 96,224 100,224 104,224 107,224 111,224 115,224 118,224 122,224 126,224 129,224 133,224 137,224 140,224 144,224 148,224 152,224 155,224 159,224 163,224 166,224 170,224 174,224 177,224 181,224 185,219 188,219 192,219 196,219 199,219 203,219 207,216 210,215 214,213 218,205 221,205 225,205 229,203 233,194 236,192 240,191 244,191 247,190 251,190 255,180 258,179 262,179 266,179 269,179 273,179 277,179 280,179 284,179 288,179 291,179 295,179 299,179 302,179 306,177 310,177 314,177 317,177 321,177 325,177 328,175 332,173 336,172 339,166 343,164 347,164 350,164 354,164 358,164 361,164 365,164 369,164 372,164 376,164 380,164 383,163 387,163 391,163 395,159 398,158 402,158 406,153 409,153 413,153 417,153 420,141 424,141 428,141 431,133 435,124 439,116 442,116 446,115 450,115 453,115 457,115 461,115 464,115 468,115 472,115 475,115 479,115 483,115 487,114 490,114 494,114 498,114 501,114 505,114 509,114 512,111 516,110 520,110 523,110 527,110 531,110 534,110 538,110 542,110 545,110 549,110 553,110 556,110 560,110 564,110 568,110 571,109 575,109 579,109 582,108 586,108 590,108 593,108 597,108 601,108 604,108 608,108 612,108 615,108 619,108 623,107 626,106 630,103 634,99 637,96 641,93 645,89 649,85 652,82 656,80 660,77 663,75 667,73 671,70 674,68 678,67 682,65 685,64 689,63 693,61 696,60 700,58 704,57 707,54 711,52 715,52 718,51 722,51 726,51 730,50" fill="none" stroke="#111111" stroke-width="2.4" stroke-linejoin="round" stroke-linecap="round" filter="url(#pline)"/>
<circle cx="730" cy="50" r="4" fill="#111111" filter="url(#pencil)"/>
<text x="724" y="42" text-anchor="end" font-size="10" font-family="Georgia,serif" fill="#111111">458K</text>
<text x="60" y="289" font-size="9" font-family="Georgia,serif" fill="#888888">기준: 2026-06-15 12:44</text>
</svg>