<svg xmlns="http://www.w3.org/2000/svg" width="760" height="295">
<defs><filter id="pencil" x="-5%" y="-5%" width="110%" height="110%"><feTurbulence type="fractalNoise" baseFrequency="0.9" numOctaves="4" seed="5" result="noise"/><feDisplacementMap in="SourceGraphic" in2="noise" scale="1.6" xChannelSelector="R" yChannelSelector="G"/></filter><filter id="pline" x="-2%" y="-30%" width="104%" height="160%"><feTurbulence type="fractalNoise" baseFrequency="0.015 0.9" numOctaves="3" seed="11" result="noise"/><feDisplacementMap in="SourceGraphic" in2="noise" scale="1.8" xChannelSelector="R" yChannelSelector="G"/></filter><filter id="rough" x="-5%" y="-5%" width="110%" height="110%"><feTurbulence type="turbulence" baseFrequency="0.05" numOctaves="2" seed="2" result="noise"/><feDisplacementMap in="SourceGraphic" in2="noise" scale="2" xChannelSelector="R" yChannelSelector="G"/></filter></defs>
<rect width="760" height="295" fill="#ffffff"/>
<text x="380" y="32" text-anchor="middle" font-size="14" font-weight="bold" font-family="Georgia,serif" fill="#111111" filter="url(#pencil)">Workload (6 months)</text>
<line x1="60" y1="250" x2="730" y2="250" stroke="#cccccc" stroke-width="0.7" stroke-dasharray="4,5" filter="url(#rough)"/>
<text x="54" y="254" text-anchor="end" font-size="10" font-family="Georgia,serif" fill="#333333">0</text>
<line x1="60" y1="201" x2="730" y2="201" stroke="#cccccc" stroke-width="0.7" stroke-dasharray="4,5" filter="url(#rough)"/>
<text x="54" y="205" text-anchor="end" font-size="10" font-family="Georgia,serif" fill="#333333">54K</text>
<line x1="60" y1="151" x2="730" y2="151" stroke="#cccccc" stroke-width="0.7" stroke-dasharray="4,5" filter="url(#rough)"/>
<text x="54" y="155" text-anchor="end" font-size="10" font-family="Georgia,serif" fill="#333333">109K</text>
<line x1="60" y1="101" x2="730" y2="101" stroke="#cccccc" stroke-width="0.7" stroke-dasharray="4,5" filter="url(#rough)"/>
<text x="54" y="105" text-anchor="end" font-size="10" font-family="Georgia,serif" fill="#333333">163K</text>
<line x1="60" y1="50" x2="730" y2="50" stroke="#cccccc" stroke-width="0.7" stroke-dasharray="4,5" filter="url(#rough)"/>
<text x="54" y="54" text-anchor="end" font-size="10" font-family="Georgia,serif" fill="#333333">218K</text>
<text x="67" y="270" text-anchor="middle" font-size="11" font-family="Georgia,serif" fill="#333333" filter="url(#pencil)">12월</text>
<text x="181" y="270" text-anchor="middle" font-size="11" font-family="Georgia,serif" fill="#333333" filter="url(#pencil)">1월</text>
<text x="295" y="270" text-anchor="middle" font-size="11" font-family="Georgia,serif" fill="#333333" filter="url(#pencil)">2월</text>
<text x="398" y="270" text-anchor="middle" font-size="11" font-family="Georgia,serif" fill="#333333" filter="url(#pencil)">3월</text>
<text x="512" y="270" text-anchor="middle" font-size="11" font-family="Georgia,serif" fill="#333333" filter="url(#pencil)">4월</text>
<text x="623" y="270" text-anchor="middle" font-size="11" font-family="Georgia,serif" fill="#333333" filter="url(#pencil)">5월</text>
<line x1="59" y1="42" x2="59" y2="256" stroke="#111111" stroke-width="2" filter="url(#pline)"/>
<line x1="52" y1="251" x2="738" y2="251" stroke="#111111" stroke-width="2" filter="url(#pline)"/>
<polygon points="60,250 60,250 63,250 67,250 71,250 74,250 78,250 82,250 85,245 89,245 93,228 96,228 100,228 104,228 107,197 111,197 115,197 118,197 122,197 126,197 129,197 133,178 137,178 140,178 144,178 148,178 152,173 155,173 159,173 163,173 166,173 170,173 174,173 177,173 181,173 185,173 188,173 192,173 196,173 199,173 203,173 207,173 210,173 214,173 218,173 221,173 225,173 229,173 233,173 236,173 240,173 244,169 247,169 251,169 255,169 258,169 262,169 266,166 269,165 273,164 277,156 280,156 284,156 288,154 291,146 295,145 299,144 302,144 306,144 310,143 314,134 317,134 321,133 325,133 328,133 332,133 336,133 339,133 343,133 347,133 350,133 354,133 358,133 361,133 365,132 369,132 372,132 376,132 380,132 383,132 387,130 391,128 395,127 398,122 402,120 406,120 409,120 413,120 417,120 420,120 424,120 428,120 431,120 435,120 439,120 442,119 446,119 450,119 453,116 457,115 461,115 464,111 468,110 472,110 475,110 479,100 483,100 487,100 490,93 494,85 498,78 501,78 505,77 509,77 512,77 516,77 520,77 523,77 527,77 531,77 534,77 538,77 542,77 545,76 549,76 553,76 556,76 560,76 564,76 568,76 571,73 575,72 579,72 582,72 586,72 590,72 593,72 597,72 601,72 604,72 608,72 612,72 615,72 619,72 623,72 626,72 630,72 634,72 637,72 641,71 645,71 649,71 652,71 656,71 660,71 663,70 667,70 671,70 674,70 678,70 682,70 685,69 689,66 693,63 696,61 700,59 704,56 707,54 711,53 715,52 718,51 722,51 726,51 730,50 730,250" fill="#e8e8e8" opacity="0.6"/>
<polyline points="60,250 63,250 67,250 71,250 74,250 78,250 82,250 85,245 89,245 93,228 96,228 100,228 104,228 107,197 111,197 115,197 118,197 122,197 126,197 129,197 133,178 137,178 140,178 144,178 148,178 152,173 155,173 159,173 163,173 166,173 170,173 174,173 177,173 181,173 185,173 188,173 192,173 196,173 199,173 203,173 207,173 210,173 214,173 218,173 221,173 225,173 229,173 233,173 236,173 240,173 244,169 247,169 251,169 255,169 258,169 262,169 266,166 269,165 273,164 277,156 280,156 284,156 288,154 291,146 295,145 299,144 302,144 306,144 310,143 314,134 317,134 321,133 325,133 328,133 332,133 336,133 339,133 343,133 347,133 350,133 354,133 358,133 361,133 365,132 369,132 372,132 376,132 380,132 383,132 387,130 391,128 395,127 398,122 402,120 406,120 409,120 413,120 417,120 420,120 424,120 428,120 431,120 435,120 439,120 442,119 446,119 450,119 453,116 457,115 461,115 464,111 468,110 472,110 475,110 479,100 483,100 487,100 490,93 494,85 498,78 501,78 505,77 509,77 512,77 516,77 520,77 523,77 527,77 531,77 534,77 538,77 542,77 545,76 549,76 553,76 556,76 560,76 564,76 568,76 571,73 575,72 579,72 582,72 586,72 590,72 593,72 597,72 601,72 604,72 608,72 612,72 615,72 619,72 623,72 626,72 630,72 634,72 637,72 641,71 645,71 649,71 652,71 656,71 660,71 663,70 667,70 671,70 674,70 678,70 682,70 685,69 689,66 693,63 696,61 700,59 704,56 707,54 711,53 715,52 718,51 722,51 726,51 730,50" fill="none" stroke="#111111" stroke-width="2.4" stroke-linejoin="round" stroke-linecap="round" filter="url(#pline)"/>
<circle cx="730" cy="50" r="4" fill="#111111" filter="url(#pencil)"/>
<text x="724" y="42" text-anchor="end" font-size="10" font-family="Georgia,serif" fill="#111111">218K</text>
<text x="60" y="289" font-size="9" font-family="Georgia,serif" fill="#888888">기준: 2026-05-30 08:41</text>
</svg>