<svg xmlns="http://www.w3.org/2000/svg" width="760" height="295">
<defs><filter id="pencil" x="-5%" y="-5%" width="110%" height="110%"><feTurbulence type="fractalNoise" baseFrequency="0.9" numOctaves="4" seed="5" result="noise"/><feDisplacementMap in="SourceGraphic" in2="noise" scale="1.6" xChannelSelector="R" yChannelSelector="G"/></filter><filter id="pline" x="-2%" y="-30%" width="104%" height="160%"><feTurbulence type="fractalNoise" baseFrequency="0.015 0.9" numOctaves="3" seed="11" result="noise"/><feDisplacementMap in="SourceGraphic" in2="noise" scale="1.8" xChannelSelector="R" yChannelSelector="G"/></filter><filter id="rough" x="-5%" y="-5%" width="110%" height="110%"><feTurbulence type="turbulence" baseFrequency="0.05" numOctaves="2" seed="2" result="noise"/><feDisplacementMap in="SourceGraphic" in2="noise" scale="2" xChannelSelector="R" yChannelSelector="G"/></filter></defs>
<rect width="760" height="295" fill="#ffffff"/>
<text x="380" y="32" text-anchor="middle" font-size="14" font-weight="bold" font-family="Georgia,serif" fill="#111111" filter="url(#pencil)">Workload (6 months)</text>
<line x1="60" y1="250" x2="730" y2="250" stroke="#cccccc" stroke-width="0.7" stroke-dasharray="4,5" filter="url(#rough)"/>
<text x="54" y="254" text-anchor="end" font-size="10" font-family="Georgia,serif" fill="#333333">0</text>
<line x1="60" y1="201" x2="730" y2="201" stroke="#cccccc" stroke-width="0.7" stroke-dasharray="4,5" filter="url(#rough)"/>
<text x="54" y="205" text-anchor="end" font-size="10" font-family="Georgia,serif" fill="#333333">143K</text>
<line x1="60" y1="151" x2="730" y2="151" stroke="#cccccc" stroke-width="0.7" stroke-dasharray="4,5" filter="url(#rough)"/>
<text x="54" y="155" text-anchor="end" font-size="10" font-family="Georgia,serif" fill="#333333">286K</text>
<line x1="60" y1="101" x2="730" y2="101" stroke="#cccccc" stroke-width="0.7" stroke-dasharray="4,5" filter="url(#rough)"/>
<text x="54" y="105" text-anchor="end" font-size="10" font-family="Georgia,serif" fill="#333333">429K</text>
<line x1="60" y1="50" x2="730" y2="50" stroke="#cccccc" stroke-width="0.7" stroke-dasharray="4,5" filter="url(#rough)"/>
<text x="54" y="54" text-anchor="end" font-size="10" font-family="Georgia,serif" fill="#333333">573K</text>
<text x="96" y="270" text-anchor="middle" font-size="11" font-family="Georgia,serif" fill="#333333" filter="url(#pencil)">1월</text>
<text x="210" y="270" text-anchor="middle" font-size="11" font-family="Georgia,serif" fill="#333333" filter="url(#pencil)">2월</text>
<text x="314" y="270" text-anchor="middle" font-size="11" font-family="Georgia,serif" fill="#333333" filter="url(#pencil)">3월</text>
<text x="428" y="270" text-anchor="middle" font-size="11" font-family="Georgia,serif" fill="#333333" filter="url(#pencil)">4월</text>
<text x="538" y="270" text-anchor="middle" font-size="11" font-family="Georgia,serif" fill="#333333" filter="url(#pencil)">5월</text>
<text x="652" y="270" text-anchor="middle" font-size="11" font-family="Georgia,serif" fill="#333333" filter="url(#pencil)">6월</text>
<line x1="59" y1="42" x2="59" y2="256" stroke="#111111" stroke-width="2" filter="url(#pline)"/>
<line x1="52" y1="251" x2="738" y2="251" stroke="#111111" stroke-width="2" filter="url(#pline)"/>
<polygon points="60,250 60,250 63,250 67,245 71,245 74,245 78,245 82,245 85,245 89,245 93,245 96,245 100,245 104,245 107,245 111,245 115,245 118,245 122,245 126,245 129,245 133,245 137,245 140,245 144,245 148,245 152,245 155,245 159,241 163,241 166,241 170,241 174,241 177,240 181,238 185,237 188,235 192,226 196,226 199,226 203,224 207,216 210,214 214,213 218,213 221,212 225,212 229,202 233,201 236,201 240,201 244,201 247,201 251,201 255,201 258,201 262,201 266,201 269,201 273,201 277,201 280,199 284,199 288,199 291,199 295,199 299,199 302,197 306,195 310,194 314,188 317,187 321,187 325,186 328,186 332,186 336,186 339,186 343,186 347,186 350,186 354,186 358,185 361,185 365,185 369,182 372,181 376,181 380,176 383,175 387,175 391,175 395,163 398,163 402,163 406,156 409,147 413,139 417,139 420,138 424,138 428,138 431,138 435,138 439,138 442,138 446,138 450,138 453,138 457,138 461,137 464,137 468,137 472,136 475,136 479,136 483,136 487,133 490,131 494,130 498,130 501,130 505,129 509,129 512,129 516,129 520,128 523,128 527,128 531,128 534,128 538,128 542,128 545,128 549,128 553,128 556,126 560,126 564,126 568,126 571,126 575,126 579,126 582,126 586,126 590,126 593,126 597,125 601,124 604,121 608,117 612,114 615,110 619,106 623,102 626,99 630,97 634,94 637,92 641,89 645,86 649,84 652,82 656,80 660,79 663,77 667,75 671,73 674,70 678,69 682,64 685,61 689,59 693,58 696,56 700,56 704,55 707,54 711,54 715,53 718,53 722,52 726,51 730,50 730,250" fill="#e8e8e8" opacity="0.6"/>
<polyline points="60,250 63,250 67,245 71,245 74,245 78,245 82,245 85,245 89,245 93,245 96,245 100,245 104,245 107,245 111,245 115,245 118,245 122,245 126,245 129,245 133,245 137,245 140,245 144,245 148,245 152,245 155,245 159,241 163,241 166,241 170,241 174,241 177,240 181,238 185,237 188,235 192,226 196,226 199,226 203,224 207,216 210,214 214,213 218,213 221,212 225,212 229,202 233,201 236,201 240,201 244,201 247,201 251,201 255,201 258,201 262,201 266,201 269,201 273,201 277,201 280,199 284,199 288,199 291,199 295,199 299,199 302,197 306,195 310,194 314,188 317,187 321,187 325,186 328,186 332,186 336,186 339,186 343,186 347,186 350,186 354,186 358,185 361,185 365,185 369,182 372,181 376,181 380,176 383,175 387,175 391,175 395,163 398,163 402,163 406,156 409,147 413,139 417,139 420,138 424,138 428,138 431,138 435,138 439,138 442,138 446,138 450,138 453,138 457,138 461,137 464,137 468,137 472,136 475,136 479,136 483,136 487,133 490,131 494,130 498,130 501,130 505,129 509,129 512,129 516,129 520,128 523,128 527,128 531,128 534,128 538,128 542,128 545,128 549,128 553,128 556,126 560,126 564,126 568,126 571,126 575,126 579,126 582,126 586,126 590,126 593,126 597,125 601,124 604,121 608,117 612,114 615,110 619,106 623,102 626,99 630,97 634,94 637,92 641,89 645,86 649,84 652,82 656,80 660,79 663,77 667,75 671,73 674,70 678,69 682,64 685,61 689,59 693,58 696,56 700,56 704,55 707,54 711,54 715,53 718,53 722,52 726,51 730,50" fill="none" stroke="#111111" stroke-width="2.4" stroke-linejoin="round" stroke-linecap="round" filter="url(#pline)"/>
<circle cx="730" cy="50" r="4" fill="#111111" filter="url(#pencil)"/>
<text x="724" y="42" text-anchor="end" font-size="10" font-family="Georgia,serif" fill="#111111">573K</text>
<text x="60" y="289" font-size="9" font-family="Georgia,serif" fill="#888888">기준: 2026-06-22 05:33</text>
</svg>