<svg xmlns="http://www.w3.org/2000/svg" width="760" height="295">
<defs><filter id="pencil" x="-5%" y="-5%" width="110%" height="110%"><feTurbulence type="fractalNoise" baseFrequency="0.9" numOctaves="4" seed="5" result="noise"/><feDisplacementMap in="SourceGraphic" in2="noise" scale="1.6" xChannelSelector="R" yChannelSelector="G"/></filter><filter id="pline" x="-2%" y="-30%" width="104%" height="160%"><feTurbulence type="fractalNoise" baseFrequency="0.015 0.9" numOctaves="3" seed="11" result="noise"/><feDisplacementMap in="SourceGraphic" in2="noise" scale="1.8" xChannelSelector="R" yChannelSelector="G"/></filter><filter id="rough" x="-5%" y="-5%" width="110%" height="110%"><feTurbulence type="turbulence" baseFrequency="0.05" numOctaves="2" seed="2" result="noise"/><feDisplacementMap in="SourceGraphic" in2="noise" scale="2" xChannelSelector="R" yChannelSelector="G"/></filter></defs>
<rect width="760" height="295" fill="#ffffff"/>
<text x="380" y="32" text-anchor="middle" font-size="14" font-weight="bold" font-family="Georgia,serif" fill="#111111" filter="url(#pencil)">Workload (6 months)</text>
<line x1="60" y1="250" x2="730" y2="250" stroke="#cccccc" stroke-width="0.7" stroke-dasharray="4,5" filter="url(#rough)"/>
<text x="54" y="254" text-anchor="end" font-size="10" font-family="Georgia,serif" fill="#333333">0</text>
<line x1="60" y1="201" x2="730" y2="201" stroke="#cccccc" stroke-width="0.7" stroke-dasharray="4,5" filter="url(#rough)"/>
<text x="54" y="205" text-anchor="end" font-size="10" font-family="Georgia,serif" fill="#333333">360K</text>
<line x1="60" y1="151" x2="730" y2="151" stroke="#cccccc" stroke-width="0.7" stroke-dasharray="4,5" filter="url(#rough)"/>
<text x="54" y="155" text-anchor="end" font-size="10" font-family="Georgia,serif" fill="#333333">720K</text>
<line x1="60" y1="101" x2="730" y2="101" stroke="#cccccc" stroke-width="0.7" stroke-dasharray="4,5" filter="url(#rough)"/>
<text x="54" y="105" text-anchor="end" font-size="10" font-family="Georgia,serif" fill="#333333">1081K</text>
<line x1="60" y1="50" x2="730" y2="50" stroke="#cccccc" stroke-width="0.7" stroke-dasharray="4,5" filter="url(#rough)"/>
<text x="54" y="54" text-anchor="end" font-size="10" font-family="Georgia,serif" fill="#333333">1441K</text>
<text x="152" y="270" text-anchor="middle" font-size="11" font-family="Georgia,serif" fill="#333333" filter="url(#pencil)">2월</text>
<text x="255" y="270" text-anchor="middle" font-size="11" font-family="Georgia,serif" fill="#333333" filter="url(#pencil)">3월</text>
<text x="369" y="270" text-anchor="middle" font-size="11" font-family="Georgia,serif" fill="#333333" filter="url(#pencil)">4월</text>
<text x="479" y="270" text-anchor="middle" font-size="11" font-family="Georgia,serif" fill="#333333" filter="url(#pencil)">5월</text>
<text x="593" y="270" text-anchor="middle" font-size="11" font-family="Georgia,serif" fill="#333333" filter="url(#pencil)">6월</text>
<text x="704" y="270" text-anchor="middle" font-size="11" font-family="Georgia,serif" fill="#333333" filter="url(#pencil)">7월</text>
<line x1="59" y1="42" x2="59" y2="256" stroke="#111111" stroke-width="2" filter="url(#pline)"/>
<line x1="52" y1="251" x2="738" y2="251" stroke="#111111" stroke-width="2" filter="url(#pline)"/>
<polygon points="60,250 60,250 63,250 67,250 71,250 74,250 78,250 82,250 85,250 89,250 93,250 96,250 100,248 104,248 107,248 111,248 115,248 118,247 122,246 126,245 129,244 133,239 137,239 140,239 144,238 148,232 152,231 155,231 159,231 163,230 166,230 170,224 174,224 177,224 181,224 185,224 188,224 192,224 196,224 199,224 203,224 207,224 210,224 214,224 218,224 221,222 225,222 229,222 233,222 236,222 240,222 244,221 247,220 251,219 255,216 258,215 262,215 266,215 269,215 273,215 277,215 280,215 284,215 288,215 291,215 295,215 299,214 302,214 306,214 310,212 314,211 317,211 321,208 325,208 328,208 332,208 336,201 339,201 343,201 347,196 350,190 354,186 358,186 361,185 365,185 369,185 372,184 376,184 380,184 383,184 387,184 391,184 395,184 398,184 402,183 406,183 409,183 413,179 417,179 420,179 424,179 428,177 431,176 435,171 439,171 442,171 446,169 450,169 453,168 457,167 461,164 464,163 468,163 472,163 475,163 479,163 483,163 487,163 490,163 494,163 498,162 501,162 505,162 509,162 512,162 516,162 520,162 523,162 527,162 531,160 534,160 538,160 542,159 545,157 549,155 553,153 556,149 560,146 564,144 568,142 571,140 575,138 579,136 582,134 586,132 590,130 593,129 597,127 601,126 604,125 608,123 612,121 615,119 619,118 623,113 626,109 630,108 634,107 637,104 641,103 645,102 649,101 652,100 656,99 660,97 663,93 667,80 671,72 674,66 678,60 682,58 685,56 689,55 693,54 696,54 700,53 704,52 707,52 711,51 715,51 718,51 722,51 726,51 730,50 730,250" fill="#e8e8e8" opacity="0.6"/>
<polyline points="60,250 63,250 67,250 71,250 74,250 78,250 82,250 85,250 89,250 93,250 96,250 100,248 104,248 107,248 111,248 115,248 118,247 122,246 126,245 129,244 133,239 137,239 140,239 144,238 148,232 152,231 155,231 159,231 163,230 166,230 170,224 174,224 177,224 181,224 185,224 188,224 192,224 196,224 199,224 203,224 207,224 210,224 214,224 218,224 221,222 225,222 229,222 233,222 236,222 240,222 244,221 247,220 251,219 255,216 258,215 262,215 266,215 269,215 273,215 277,215 280,215 284,215 288,215 291,215 295,215 299,214 302,214 306,214 310,212 314,211 317,211 321,208 325,208 328,208 332,208 336,201 339,201 343,201 347,196 350,190 354,186 358,186 361,185 365,185 369,185 372,184 376,184 380,184 383,184 387,184 391,184 395,184 398,184 402,183 406,183 409,183 413,179 417,179 420,179 424,179 428,177 431,176 435,171 439,171 442,171 446,169 450,169 453,168 457,167 461,164 464,163 468,163 472,163 475,163 479,163 483,163 487,163 490,163 494,163 498,162 501,162 505,162 509,162 512,162 516,162 520,162 523,162 527,162 531,160 534,160 538,160 542,159 545,157 549,155 553,153 556,149 560,146 564,144 568,142 571,140 575,138 579,136 582,134 586,132 590,130 593,129 597,127 601,126 604,125 608,123 612,121 615,119 619,118 623,113 626,109 630,108 634,107 637,104 641,103 645,102 649,101 652,100 656,99 660,97 663,93 667,80 671,72 674,66 678,60 682,58 685,56 689,55 693,54 696,54 700,53 704,52 707,52 711,51 715,51 718,51 722,51 726,51 730,50" fill="none" stroke="#111111" stroke-width="2.4" stroke-linejoin="round" stroke-linecap="round" filter="url(#pline)"/>
<circle cx="730" cy="50" r="4" fill="#111111" filter="url(#pencil)"/>
<text x="724" y="42" text-anchor="end" font-size="10" font-family="Georgia,serif" fill="#111111">1441K</text>
<text x="60" y="289" font-size="9" font-family="Georgia,serif" fill="#888888">기준: 2026-07-08 19:57</text>
</svg>