<svg xmlns="http://www.w3.org/2000/svg" width="760" height="295">
<defs><filter id="pencil" x="-5%" y="-5%" width="110%" height="110%"><feTurbulence type="fractalNoise" baseFrequency="0.9" numOctaves="4" seed="5" result="noise"/><feDisplacementMap in="SourceGraphic" in2="noise" scale="1.6" xChannelSelector="R" yChannelSelector="G"/></filter><filter id="pline" x="-2%" y="-30%" width="104%" height="160%"><feTurbulence type="fractalNoise" baseFrequency="0.015 0.9" numOctaves="3" seed="11" result="noise"/><feDisplacementMap in="SourceGraphic" in2="noise" scale="1.8" xChannelSelector="R" yChannelSelector="G"/></filter><filter id="rough" x="-5%" y="-5%" width="110%" height="110%"><feTurbulence type="turbulence" baseFrequency="0.05" numOctaves="2" seed="2" result="noise"/><feDisplacementMap in="SourceGraphic" in2="noise" scale="2" xChannelSelector="R" yChannelSelector="G"/></filter></defs>
<rect width="760" height="295" fill="#ffffff"/>
<text x="380" y="32" text-anchor="middle" font-size="14" font-weight="bold" font-family="Georgia,serif" fill="#111111" filter="url(#pencil)">Workload (6 months)</text>
<line x1="60" y1="250" x2="730" y2="250" stroke="#cccccc" stroke-width="0.7" stroke-dasharray="4,5" filter="url(#rough)"/>
<text x="54" y="254" text-anchor="end" font-size="10" font-family="Georgia,serif" fill="#333333">0</text>
<line x1="60" y1="201" x2="730" y2="201" stroke="#cccccc" stroke-width="0.7" stroke-dasharray="4,5" filter="url(#rough)"/>
<text x="54" y="205" text-anchor="end" font-size="10" font-family="Georgia,serif" fill="#333333">1K</text>
<line x1="60" y1="151" x2="730" y2="151" stroke="#cccccc" stroke-width="0.7" stroke-dasharray="4,5" filter="url(#rough)"/>
<text x="54" y="155" text-anchor="end" font-size="10" font-family="Georgia,serif" fill="#333333">3K</text>
<line x1="60" y1="101" x2="730" y2="101" stroke="#cccccc" stroke-width="0.7" stroke-dasharray="4,5" filter="url(#rough)"/>
<text x="54" y="105" text-anchor="end" font-size="10" font-family="Georgia,serif" fill="#333333">5K</text>
<line x1="60" y1="50" x2="730" y2="50" stroke="#cccccc" stroke-width="0.7" stroke-dasharray="4,5" filter="url(#rough)"/>
<text x="54" y="54" text-anchor="end" font-size="10" font-family="Georgia,serif" fill="#333333">6K</text>
<text x="107" y="270" text-anchor="middle" font-size="11" font-family="Georgia,serif" fill="#333333" filter="url(#pencil)">12월</text>
<text x="221" y="270" text-anchor="middle" font-size="11" font-family="Georgia,serif" fill="#333333" filter="url(#pencil)">1월</text>
<text x="336" y="270" text-anchor="middle" font-size="11" font-family="Georgia,serif" fill="#333333" filter="url(#pencil)">2월</text>
<text x="439" y="270" text-anchor="middle" font-size="11" font-family="Georgia,serif" fill="#333333" filter="url(#pencil)">3월</text>
<text x="553" y="270" text-anchor="middle" font-size="11" font-family="Georgia,serif" fill="#333333" filter="url(#pencil)">4월</text>
<text x="663" y="270" text-anchor="middle" font-size="11" font-family="Georgia,serif" fill="#333333" filter="url(#pencil)">5월</text>
<line x1="59" y1="42" x2="59" y2="256" stroke="#111111" stroke-width="2" filter="url(#pline)"/>
<line x1="52" y1="251" x2="738" y2="251" stroke="#111111" stroke-width="2" filter="url(#pline)"/>
<polygon points="60,250 60,249 63,248 67,247 71,246 74,240 78,239 82,238 85,236 89,234 93,234 96,234 100,234 104,234 107,234 111,234 115,233 118,233 122,233 126,229 129,229 133,211 137,211 140,211 144,211 148,179 152,179 155,179 159,179 163,179 166,179 170,179 174,160 177,160 181,160 185,160 188,160 192,156 196,156 199,156 203,156 207,156 210,156 214,156 218,156 221,156 225,156 229,156 233,156 236,156 240,156 244,156 247,156 251,156 255,156 258,156 262,156 266,156 269,156 273,156 277,156 280,156 284,152 288,152 291,152 295,151 299,151 302,151 306,149 310,148 314,146 317,138 321,138 325,138 328,136 332,129 336,127 339,126 343,126 347,126 350,125 354,116 358,116 361,115 365,115 369,115 372,115 376,115 380,115 383,115 387,115 391,115 395,115 398,115 402,115 406,113 409,113 413,113 417,113 420,113 424,113 428,111 431,110 435,109 439,104 442,102 446,102 450,102 453,102 457,102 461,102 464,102 468,102 472,102 475,102 479,102 483,101 487,101 490,101 494,98 498,97 501,97 505,92 509,92 512,92 516,92 520,81 523,81 527,81 531,74 534,66 538,59 542,59 545,58 549,58 553,58 556,58 560,58 564,58 568,58 571,58 575,58 579,58 582,58 586,57 590,57 593,57 597,57 601,57 604,57 608,57 612,54 615,53 619,53 623,53 626,53 630,53 634,53 637,53 641,53 645,53 649,53 652,53 656,53 660,53 663,53 667,53 671,53 674,53 678,53 682,52 685,52 689,52 693,52 696,52 700,52 704,52 707,52 711,52 715,52 718,52 722,51 726,51 730,50 730,250" fill="#e8e8e8" opacity="0.6"/>
<polyline points="60,249 63,248 67,247 71,246 74,240 78,239 82,238 85,236 89,234 93,234 96,234 100,234 104,234 107,234 111,234 115,233 118,233 122,233 126,229 129,229 133,211 137,211 140,211 144,211 148,179 152,179 155,179 159,179 163,179 166,179 170,179 174,160 177,160 181,160 185,160 188,160 192,156 196,156 199,156 203,156 207,156 210,156 214,156 218,156 221,156 225,156 229,156 233,156 236,156 240,156 244,156 247,156 251,156 255,156 258,156 262,156 266,156 269,156 273,156 277,156 280,156 284,152 288,152 291,152 295,151 299,151 302,151 306,149 310,148 314,146 317,138 321,138 325,138 328,136 332,129 336,127 339,126 343,126 347,126 350,125 354,116 358,116 361,115 365,115 369,115 372,115 376,115 380,115 383,115 387,115 391,115 395,115 398,115 402,115 406,113 409,113 413,113 417,113 420,113 424,113 428,111 431,110 435,109 439,104 442,102 446,102 450,102 453,102 457,102 461,102 464,102 468,102 472,102 475,102 479,102 483,101 487,101 490,101 494,98 498,97 501,97 505,92 509,92 512,92 516,92 520,81 523,81 527,81 531,74 534,66 538,59 542,59 545,58 549,58 553,58 556,58 560,58 564,58 568,58 571,58 575,58 579,58 582,58 586,57 590,57 593,57 597,57 601,57 604,57 608,57 612,54 615,53 619,53 623,53 626,53 630,53 634,53 637,53 641,53 645,53 649,53 652,53 656,53 660,53 663,53 667,53 671,53 674,53 678,53 682,52 685,52 689,52 693,52 696,52 700,52 704,52 707,52 711,52 715,52 718,52 722,51 726,51 730,50" fill="none" stroke="#111111" stroke-width="2.4" stroke-linejoin="round" stroke-linecap="round" filter="url(#pline)"/>
<circle cx="730" cy="50" r="4" fill="#111111" filter="url(#pencil)"/>
<text x="724" y="42" text-anchor="end" font-size="10" font-family="Georgia,serif" fill="#111111">6K</text>
<text x="60" y="289" font-size="9" font-family="Georgia,serif" fill="#888888">기준: 2026-05-19 09:50</text>
</svg>