<svg xmlns="http://www.w3.org/2000/svg" width="760" height="295">
<defs><filter id="pencil" x="-5%" y="-5%" width="110%" height="110%"><feTurbulence type="fractalNoise" baseFrequency="0.9" numOctaves="4" seed="5" result="noise"/><feDisplacementMap in="SourceGraphic" in2="noise" scale="1.6" xChannelSelector="R" yChannelSelector="G"/></filter><filter id="pline" x="-2%" y="-30%" width="104%" height="160%"><feTurbulence type="fractalNoise" baseFrequency="0.015 0.9" numOctaves="3" seed="11" result="noise"/><feDisplacementMap in="SourceGraphic" in2="noise" scale="1.8" xChannelSelector="R" yChannelSelector="G"/></filter><filter id="rough" x="-5%" y="-5%" width="110%" height="110%"><feTurbulence type="turbulence" baseFrequency="0.05" numOctaves="2" seed="2" result="noise"/><feDisplacementMap in="SourceGraphic" in2="noise" scale="2" xChannelSelector="R" yChannelSelector="G"/></filter></defs>
<rect width="760" height="295" fill="#ffffff"/>
<text x="380" y="32" text-anchor="middle" font-size="14" font-weight="bold" font-family="Georgia,serif" fill="#111111" filter="url(#pencil)">Workload (6 months)</text>
<line x1="60" y1="250" x2="730" y2="250" stroke="#cccccc" stroke-width="0.7" stroke-dasharray="4,5" filter="url(#rough)"/>
<text x="54" y="254" text-anchor="end" font-size="10" font-family="Georgia,serif" fill="#333333">0</text>
<line x1="60" y1="201" x2="730" y2="201" stroke="#cccccc" stroke-width="0.7" stroke-dasharray="4,5" filter="url(#rough)"/>
<text x="54" y="205" text-anchor="end" font-size="10" font-family="Georgia,serif" fill="#333333">502K</text>
<line x1="60" y1="150" x2="730" y2="150" stroke="#cccccc" stroke-width="0.7" stroke-dasharray="4,5" filter="url(#rough)"/>
<text x="54" y="154" text-anchor="end" font-size="10" font-family="Georgia,serif" fill="#333333">1004K</text>
<line x1="60" y1="101" x2="730" y2="101" stroke="#cccccc" stroke-width="0.7" stroke-dasharray="4,5" filter="url(#rough)"/>
<text x="54" y="105" text-anchor="end" font-size="10" font-family="Georgia,serif" fill="#333333">1506K</text>
<line x1="60" y1="50" x2="730" y2="50" stroke="#cccccc" stroke-width="0.7" stroke-dasharray="4,5" filter="url(#rough)"/>
<text x="54" y="54" text-anchor="end" font-size="10" font-family="Georgia,serif" fill="#333333">2009K</text>
<text x="129" y="270" text-anchor="middle" font-size="11" font-family="Georgia,serif" fill="#333333" filter="url(#pencil)">2월</text>
<text x="233" y="270" text-anchor="middle" font-size="11" font-family="Georgia,serif" fill="#333333" filter="url(#pencil)">3월</text>
<text x="347" y="270" text-anchor="middle" font-size="11" font-family="Georgia,serif" fill="#333333" filter="url(#pencil)">4월</text>
<text x="457" y="270" text-anchor="middle" font-size="11" font-family="Georgia,serif" fill="#333333" filter="url(#pencil)">5월</text>
<text x="571" y="270" text-anchor="middle" font-size="11" font-family="Georgia,serif" fill="#333333" filter="url(#pencil)">6월</text>
<text x="682" y="270" text-anchor="middle" font-size="11" font-family="Georgia,serif" fill="#333333" filter="url(#pencil)">7월</text>
<line x1="59" y1="42" x2="59" y2="256" stroke="#111111" stroke-width="2" filter="url(#pline)"/>
<line x1="52" y1="251" x2="738" y2="251" stroke="#111111" stroke-width="2" filter="url(#pline)"/>
<polygon points="60,250 60,250 63,250 67,250 71,250 74,250 78,248 82,248 85,248 89,248 93,248 96,247 100,246 104,245 107,245 111,241 115,240 118,240 122,239 126,235 129,234 133,233 137,233 140,233 144,233 148,228 152,228 155,227 159,227 163,227 166,227 170,227 174,227 177,227 181,227 185,227 188,227 192,227 196,226 199,225 203,225 207,225 210,225 214,225 218,225 221,223 225,222 229,221 233,219 236,218 240,218 244,218 247,217 251,217 255,217 258,217 262,217 266,217 269,217 273,217 277,216 280,216 284,216 288,214 291,214 295,213 299,211 302,211 306,211 310,211 314,205 317,205 321,205 325,201 328,197 332,193 336,193 339,192 343,192 347,192 350,191 354,191 358,191 361,191 365,191 369,191 372,191 376,191 380,191 383,190 387,190 391,185 395,185 398,185 402,185 406,184 409,183 413,179 417,179 420,179 424,177 428,177 431,176 435,175 439,173 442,172 446,172 450,172 453,172 457,172 461,172 464,171 468,171 472,171 475,170 479,170 483,170 487,170 490,170 494,170 498,170 501,170 505,170 509,168 512,168 516,167 520,166 523,164 527,163 531,161 534,157 538,155 542,153 545,150 549,148 553,146 556,145 560,142 564,140 568,137 571,136 575,135 579,133 582,132 586,131 590,129 593,127 597,126 601,121 604,118 608,117 612,115 615,113 619,111 623,110 626,109 630,108 634,107 637,105 641,101 645,88 649,81 652,74 656,67 660,65 663,63 667,62 671,61 674,60 678,58 682,57 685,56 689,55 693,54 696,54 700,54 704,53 707,52 711,52 715,52 718,51 722,51 726,51 730,50 730,250" fill="#e8e8e8" opacity="0.6"/>
<polyline points="60,250 63,250 67,250 71,250 74,250 78,248 82,248 85,248 89,248 93,248 96,247 100,246 104,245 107,245 111,241 115,240 118,240 122,239 126,235 129,234 133,233 137,233 140,233 144,233 148,228 152,228 155,227 159,227 163,227 166,227 170,227 174,227 177,227 181,227 185,227 188,227 192,227 196,226 199,225 203,225 207,225 210,225 214,225 218,225 221,223 225,222 229,221 233,219 236,218 240,218 244,218 247,217 251,217 255,217 258,217 262,217 266,217 269,217 273,217 277,216 280,216 284,216 288,214 291,214 295,213 299,211 302,211 306,211 310,211 314,205 317,205 321,205 325,201 328,197 332,193 336,193 339,192 343,192 347,192 350,191 354,191 358,191 361,191 365,191 369,191 372,191 376,191 380,191 383,190 387,190 391,185 395,185 398,185 402,185 406,184 409,183 413,179 417,179 420,179 424,177 428,177 431,176 435,175 439,173 442,172 446,172 450,172 453,172 457,172 461,172 464,171 468,171 472,171 475,170 479,170 483,170 487,170 490,170 494,170 498,170 501,170 505,170 509,168 512,168 516,167 520,166 523,164 527,163 531,161 534,157 538,155 542,153 545,150 549,148 553,146 556,145 560,142 564,140 568,137 571,136 575,135 579,133 582,132 586,131 590,129 593,127 597,126 601,121 604,118 608,117 612,115 615,113 619,111 623,110 626,109 630,108 634,107 637,105 641,101 645,88 649,81 652,74 656,67 660,65 663,63 667,62 671,61 674,60 678,58 682,57 685,56 689,55 693,54 696,54 700,54 704,53 707,52 711,52 715,52 718,51 722,51 726,51 730,50" fill="none" stroke="#111111" stroke-width="2.4" stroke-linejoin="round" stroke-linecap="round" filter="url(#pline)"/>
<circle cx="730" cy="50" r="4" fill="#111111" filter="url(#pencil)"/>
<text x="724" y="42" text-anchor="end" font-size="10" font-family="Georgia,serif" fill="#111111">2009K</text>
<text x="60" y="289" font-size="9" font-family="Georgia,serif" fill="#888888">기준: 2026-07-14 10:56</text>
</svg>