<svg xmlns="http://www.w3.org/2000/svg" width="760" height="295">
<defs><filter id="pencil" x="-5%" y="-5%" width="110%" height="110%"><feTurbulence type="fractalNoise" baseFrequency="0.9" numOctaves="4" seed="5" result="noise"/><feDisplacementMap in="SourceGraphic" in2="noise" scale="1.6" xChannelSelector="R" yChannelSelector="G"/></filter><filter id="pline" x="-2%" y="-30%" width="104%" height="160%"><feTurbulence type="fractalNoise" baseFrequency="0.015 0.9" numOctaves="3" seed="11" result="noise"/><feDisplacementMap in="SourceGraphic" in2="noise" scale="1.8" xChannelSelector="R" yChannelSelector="G"/></filter><filter id="rough" x="-5%" y="-5%" width="110%" height="110%"><feTurbulence type="turbulence" baseFrequency="0.05" numOctaves="2" seed="2" result="noise"/><feDisplacementMap in="SourceGraphic" in2="noise" scale="2" xChannelSelector="R" yChannelSelector="G"/></filter></defs>
<rect width="760" height="295" fill="#ffffff"/>
<text x="380" y="32" text-anchor="middle" font-size="14" font-weight="bold" font-family="Georgia,serif" fill="#111111" filter="url(#pencil)">Workload (6 months)</text>
<line x1="60" y1="250" x2="730" y2="250" stroke="#cccccc" stroke-width="0.7" stroke-dasharray="4,5" filter="url(#rough)"/>
<text x="54" y="254" text-anchor="end" font-size="10" font-family="Georgia,serif" fill="#333333">0</text>
<line x1="60" y1="200" x2="730" y2="200" stroke="#cccccc" stroke-width="0.7" stroke-dasharray="4,5" filter="url(#rough)"/>
<text x="54" y="204" text-anchor="end" font-size="10" font-family="Georgia,serif" fill="#333333">25K</text>
<line x1="60" y1="150" x2="730" y2="150" stroke="#cccccc" stroke-width="0.7" stroke-dasharray="4,5" filter="url(#rough)"/>
<text x="54" y="154" text-anchor="end" font-size="10" font-family="Georgia,serif" fill="#333333">50K</text>
<line x1="60" y1="100" x2="730" y2="100" stroke="#cccccc" stroke-width="0.7" stroke-dasharray="4,5" filter="url(#rough)"/>
<text x="54" y="104" text-anchor="end" font-size="10" font-family="Georgia,serif" fill="#333333">75K</text>
<line x1="60" y1="50" x2="730" y2="50" stroke="#cccccc" stroke-width="0.7" stroke-dasharray="4,5" filter="url(#rough)"/>
<text x="54" y="54" text-anchor="end" font-size="10" font-family="Georgia,serif" fill="#333333">100K</text>
<text x="89" y="270" text-anchor="middle" font-size="11" font-family="Georgia,serif" fill="#333333" filter="url(#pencil)">12월</text>
<text x="203" y="270" text-anchor="middle" font-size="11" font-family="Georgia,serif" fill="#333333" filter="url(#pencil)">1월</text>
<text x="317" y="270" text-anchor="middle" font-size="11" font-family="Georgia,serif" fill="#333333" filter="url(#pencil)">2월</text>
<text x="420" y="270" text-anchor="middle" font-size="11" font-family="Georgia,serif" fill="#333333" filter="url(#pencil)">3월</text>
<text x="534" y="270" text-anchor="middle" font-size="11" font-family="Georgia,serif" fill="#333333" filter="url(#pencil)">4월</text>
<text x="645" y="270" text-anchor="middle" font-size="11" font-family="Georgia,serif" fill="#333333" filter="url(#pencil)">5월</text>
<line x1="59" y1="42" x2="59" y2="256" stroke="#111111" stroke-width="2" filter="url(#pline)"/>
<line x1="52" y1="251" x2="738" y2="251" stroke="#111111" stroke-width="2" filter="url(#pline)"/>
<polygon points="60,250 60,249 63,248 67,246 71,244 74,244 78,244 82,244 85,244 89,244 93,244 96,244 100,244 104,243 107,239 111,239 115,222 118,222 122,222 126,222 129,189 133,189 137,189 140,189 144,189 148,189 152,189 155,170 159,170 163,170 166,170 170,170 174,165 177,165 181,165 185,165 188,165 192,165 196,165 199,165 203,165 207,165 210,165 214,165 218,165 221,165 225,165 229,165 233,165 236,165 240,165 244,165 247,165 251,165 255,165 258,165 262,165 266,161 269,161 273,161 277,161 280,161 284,161 288,158 291,157 295,156 299,148 302,148 306,148 310,146 314,138 317,136 321,135 325,135 328,135 332,135 336,126 339,125 343,125 347,125 350,125 354,125 358,125 361,125 365,125 369,125 372,125 376,125 380,125 383,125 387,123 391,123 395,123 398,123 402,123 406,123 409,121 413,119 417,118 420,113 424,111 428,111 431,111 435,111 439,111 442,111 446,111 450,111 453,111 457,111 461,111 464,110 468,110 472,110 475,107 479,106 483,106 487,102 490,101 494,101 498,101 501,90 505,90 509,90 512,83 516,75 520,68 523,68 527,67 531,67 534,67 538,67 542,67 545,67 549,67 553,67 556,67 560,67 564,67 568,66 571,66 575,66 579,66 582,66 586,66 590,66 593,63 597,62 601,62 604,62 608,62 612,62 615,62 619,62 623,62 626,62 630,62 634,62 637,62 641,62 645,62 649,62 652,62 656,62 660,62 663,61 667,61 671,61 674,61 678,61 682,61 685,60 689,60 693,60 696,60 700,60 704,60 707,59 711,56 715,54 718,52 722,51 726,50 730,50 730,250" fill="#e8e8e8" opacity="0.6"/>
<polyline points="60,249 63,248 67,246 71,244 74,244 78,244 82,244 85,244 89,244 93,244 96,244 100,244 104,243 107,239 111,239 115,222 118,222 122,222 126,222 129,189 133,189 137,189 140,189 144,189 148,189 152,189 155,170 159,170 163,170 166,170 170,170 174,165 177,165 181,165 185,165 188,165 192,165 196,165 199,165 203,165 207,165 210,165 214,165 218,165 221,165 225,165 229,165 233,165 236,165 240,165 244,165 247,165 251,165 255,165 258,165 262,165 266,161 269,161 273,161 277,161 280,161 284,161 288,158 291,157 295,156 299,148 302,148 306,148 310,146 314,138 317,136 321,135 325,135 328,135 332,135 336,126 339,125 343,125 347,125 350,125 354,125 358,125 361,125 365,125 369,125 372,125 376,125 380,125 383,125 387,123 391,123 395,123 398,123 402,123 406,123 409,121 413,119 417,118 420,113 424,111 428,111 431,111 435,111 439,111 442,111 446,111 450,111 453,111 457,111 461,111 464,110 468,110 472,110 475,107 479,106 483,106 487,102 490,101 494,101 498,101 501,90 505,90 509,90 512,83 516,75 520,68 523,68 527,67 531,67 534,67 538,67 542,67 545,67 549,67 553,67 556,67 560,67 564,67 568,66 571,66 575,66 579,66 582,66 586,66 590,66 593,63 597,62 601,62 604,62 608,62 612,62 615,62 619,62 623,62 626,62 630,62 634,62 637,62 641,62 645,62 649,62 652,62 656,62 660,62 663,61 667,61 671,61 674,61 678,61 682,61 685,60 689,60 693,60 696,60 700,60 704,60 707,59 711,56 715,54 718,52 722,51 726,50 730,50" fill="none" stroke="#111111" stroke-width="2.4" stroke-linejoin="round" stroke-linecap="round" filter="url(#pline)"/>
<circle cx="730" cy="50" r="4" fill="#111111" filter="url(#pencil)"/>
<text x="724" y="42" text-anchor="end" font-size="10" font-family="Georgia,serif" fill="#111111">100K</text>
<text x="60" y="289" font-size="9" font-family="Georgia,serif" fill="#888888">기준: 2026-05-24 04:41</text>
</svg>