<svg xmlns="http://www.w3.org/2000/svg" width="760" height="295">
<defs><filter id="pencil" x="-5%" y="-5%" width="110%" height="110%"><feTurbulence type="fractalNoise" baseFrequency="0.9" numOctaves="4" seed="5" result="noise"/><feDisplacementMap in="SourceGraphic" in2="noise" scale="1.6" xChannelSelector="R" yChannelSelector="G"/></filter><filter id="pline" x="-2%" y="-30%" width="104%" height="160%"><feTurbulence type="fractalNoise" baseFrequency="0.015 0.9" numOctaves="3" seed="11" result="noise"/><feDisplacementMap in="SourceGraphic" in2="noise" scale="1.8" xChannelSelector="R" yChannelSelector="G"/></filter><filter id="rough" x="-5%" y="-5%" width="110%" height="110%"><feTurbulence type="turbulence" baseFrequency="0.05" numOctaves="2" seed="2" result="noise"/><feDisplacementMap in="SourceGraphic" in2="noise" scale="2" xChannelSelector="R" yChannelSelector="G"/></filter></defs>
<rect width="760" height="295" fill="#ffffff"/>
<text x="380" y="32" text-anchor="middle" font-size="14" font-weight="bold" font-family="Georgia,serif" fill="#111111" filter="url(#pencil)">Workload (6 months)</text>
<line x1="60" y1="250" x2="730" y2="250" stroke="#cccccc" stroke-width="0.7" stroke-dasharray="4,5" filter="url(#rough)"/>
<text x="54" y="254" text-anchor="end" font-size="10" font-family="Georgia,serif" fill="#333333">0</text>
<line x1="60" y1="201" x2="730" y2="201" stroke="#cccccc" stroke-width="0.7" stroke-dasharray="4,5" filter="url(#rough)"/>
<text x="54" y="205" text-anchor="end" font-size="10" font-family="Georgia,serif" fill="#333333">60K</text>
<line x1="60" y1="150" x2="730" y2="150" stroke="#cccccc" stroke-width="0.7" stroke-dasharray="4,5" filter="url(#rough)"/>
<text x="54" y="154" text-anchor="end" font-size="10" font-family="Georgia,serif" fill="#333333">121K</text>
<line x1="60" y1="101" x2="730" y2="101" stroke="#cccccc" stroke-width="0.7" stroke-dasharray="4,5" filter="url(#rough)"/>
<text x="54" y="105" text-anchor="end" font-size="10" font-family="Georgia,serif" fill="#333333">181K</text>
<line x1="60" y1="50" x2="730" y2="50" stroke="#cccccc" stroke-width="0.7" stroke-dasharray="4,5" filter="url(#rough)"/>
<text x="54" y="54" text-anchor="end" font-size="10" font-family="Georgia,serif" fill="#333333">242K</text>
<text x="63" y="270" text-anchor="middle" font-size="11" font-family="Georgia,serif" fill="#333333" filter="url(#pencil)">12월</text>
<text x="177" y="270" text-anchor="middle" font-size="11" font-family="Georgia,serif" fill="#333333" filter="url(#pencil)">1월</text>
<text x="291" y="270" text-anchor="middle" font-size="11" font-family="Georgia,serif" fill="#333333" filter="url(#pencil)">2월</text>
<text x="395" y="270" text-anchor="middle" font-size="11" font-family="Georgia,serif" fill="#333333" filter="url(#pencil)">3월</text>
<text x="509" y="270" text-anchor="middle" font-size="11" font-family="Georgia,serif" fill="#333333" filter="url(#pencil)">4월</text>
<text x="619" y="270" text-anchor="middle" font-size="11" font-family="Georgia,serif" fill="#333333" filter="url(#pencil)">5월</text>
<line x1="59" y1="42" x2="59" y2="256" stroke="#111111" stroke-width="2" filter="url(#pline)"/>
<line x1="52" y1="251" x2="738" y2="251" stroke="#111111" stroke-width="2" filter="url(#pline)"/>
<polygon points="60,250 60,250 63,250 67,250 71,250 74,250 78,250 82,245 85,245 89,229 93,229 96,229 100,229 104,197 107,197 111,197 115,197 118,197 122,197 126,197 129,178 133,178 137,178 140,178 144,178 148,174 152,174 155,174 159,174 163,174 166,174 170,174 174,174 177,174 181,174 185,174 188,174 192,174 196,174 199,174 203,174 207,174 210,174 214,174 218,174 221,174 225,174 229,174 233,174 236,174 240,170 244,170 247,170 251,170 255,170 258,169 262,167 266,166 269,165 273,157 277,157 280,157 284,155 288,147 291,146 295,145 299,145 302,145 306,144 310,135 314,135 317,134 321,134 325,134 328,134 332,134 336,134 339,134 343,134 347,134 350,134 354,134 358,134 361,133 365,133 369,133 372,133 376,133 380,133 383,131 387,129 391,128 395,123 398,122 402,122 406,121 409,121 413,121 417,121 420,121 424,121 428,121 431,121 435,121 439,120 442,120 446,120 450,117 453,116 457,116 461,112 464,111 468,111 472,111 475,101 479,101 483,101 487,94 490,86 494,80 498,79 501,78 505,78 509,78 512,78 516,78 520,78 523,78 527,78 531,78 534,78 538,78 542,77 545,77 549,77 553,77 556,77 560,77 564,77 568,75 571,74 575,74 579,74 582,74 586,74 590,74 593,74 597,74 601,74 604,74 608,74 612,74 615,74 619,74 623,74 626,73 630,73 634,73 637,72 641,72 645,72 649,72 652,72 656,72 660,72 663,72 667,72 671,72 674,72 678,71 682,71 685,68 689,65 693,63 696,60 700,58 704,55 707,54 711,53 715,52 718,51 722,51 726,50 730,50 730,250" fill="#e8e8e8" opacity="0.6"/>
<polyline points="60,250 63,250 67,250 71,250 74,250 78,250 82,245 85,245 89,229 93,229 96,229 100,229 104,197 107,197 111,197 115,197 118,197 122,197 126,197 129,178 133,178 137,178 140,178 144,178 148,174 152,174 155,174 159,174 163,174 166,174 170,174 174,174 177,174 181,174 185,174 188,174 192,174 196,174 199,174 203,174 207,174 210,174 214,174 218,174 221,174 225,174 229,174 233,174 236,174 240,170 244,170 247,170 251,170 255,170 258,169 262,167 266,166 269,165 273,157 277,157 280,157 284,155 288,147 291,146 295,145 299,145 302,145 306,144 310,135 314,135 317,134 321,134 325,134 328,134 332,134 336,134 339,134 343,134 347,134 350,134 354,134 358,134 361,133 365,133 369,133 372,133 376,133 380,133 383,131 387,129 391,128 395,123 398,122 402,122 406,121 409,121 413,121 417,121 420,121 424,121 428,121 431,121 435,121 439,120 442,120 446,120 450,117 453,116 457,116 461,112 464,111 468,111 472,111 475,101 479,101 483,101 487,94 490,86 494,80 498,79 501,78 505,78 509,78 512,78 516,78 520,78 523,78 527,78 531,78 534,78 538,78 542,77 545,77 549,77 553,77 556,77 560,77 564,77 568,75 571,74 575,74 579,74 582,74 586,74 590,74 593,74 597,74 601,74 604,74 608,74 612,74 615,74 619,74 623,74 626,73 630,73 634,73 637,72 641,72 645,72 649,72 652,72 656,72 660,72 663,72 667,72 671,72 674,72 678,71 682,71 685,68 689,65 693,63 696,60 700,58 704,55 707,54 711,53 715,52 718,51 722,51 726,50 730,50" fill="none" stroke="#111111" stroke-width="2.4" stroke-linejoin="round" stroke-linecap="round" filter="url(#pline)"/>
<circle cx="730" cy="50" r="4" fill="#111111" filter="url(#pencil)"/>
<text x="724" y="42" text-anchor="end" font-size="10" font-family="Georgia,serif" fill="#111111">242K</text>
<text x="60" y="289" font-size="9" font-family="Georgia,serif" fill="#888888">기준: 2026-05-31 04:54</text>
</svg>