<svg xmlns="http://www.w3.org/2000/svg" width="760" height="295">
<defs><filter id="pencil" x="-5%" y="-5%" width="110%" height="110%"><feTurbulence type="fractalNoise" baseFrequency="0.9" numOctaves="4" seed="5" result="noise"/><feDisplacementMap in="SourceGraphic" in2="noise" scale="1.6" xChannelSelector="R" yChannelSelector="G"/></filter><filter id="pline" x="-2%" y="-30%" width="104%" height="160%"><feTurbulence type="fractalNoise" baseFrequency="0.015 0.9" numOctaves="3" seed="11" result="noise"/><feDisplacementMap in="SourceGraphic" in2="noise" scale="1.8" xChannelSelector="R" yChannelSelector="G"/></filter><filter id="rough" x="-5%" y="-5%" width="110%" height="110%"><feTurbulence type="turbulence" baseFrequency="0.05" numOctaves="2" seed="2" result="noise"/><feDisplacementMap in="SourceGraphic" in2="noise" scale="2" xChannelSelector="R" yChannelSelector="G"/></filter></defs>
<rect width="760" height="295" fill="#ffffff"/>
<text x="380" y="32" text-anchor="middle" font-size="14" font-weight="bold" font-family="Georgia,serif" fill="#111111" filter="url(#pencil)">Workload (6 months)</text>
<line x1="60" y1="250" x2="730" y2="250" stroke="#cccccc" stroke-width="0.7" stroke-dasharray="4,5" filter="url(#rough)"/>
<text x="54" y="254" text-anchor="end" font-size="10" font-family="Georgia,serif" fill="#333333">0</text>
<line x1="60" y1="200" x2="730" y2="200" stroke="#cccccc" stroke-width="0.7" stroke-dasharray="4,5" filter="url(#rough)"/>
<text x="54" y="204" text-anchor="end" font-size="10" font-family="Georgia,serif" fill="#333333">110K</text>
<line x1="60" y1="150" x2="730" y2="150" stroke="#cccccc" stroke-width="0.7" stroke-dasharray="4,5" filter="url(#rough)"/>
<text x="54" y="154" text-anchor="end" font-size="10" font-family="Georgia,serif" fill="#333333">221K</text>
<line x1="60" y1="100" x2="730" y2="100" stroke="#cccccc" stroke-width="0.7" stroke-dasharray="4,5" filter="url(#rough)"/>
<text x="54" y="104" text-anchor="end" font-size="10" font-family="Georgia,serif" fill="#333333">332K</text>
<line x1="60" y1="50" x2="730" y2="50" stroke="#cccccc" stroke-width="0.7" stroke-dasharray="4,5" filter="url(#rough)"/>
<text x="54" y="54" text-anchor="end" font-size="10" font-family="Georgia,serif" fill="#333333">442K</text>
<text x="137" y="270" text-anchor="middle" font-size="11" font-family="Georgia,serif" fill="#333333" filter="url(#pencil)">1월</text>
<text x="251" y="270" text-anchor="middle" font-size="11" font-family="Georgia,serif" fill="#333333" filter="url(#pencil)">2월</text>
<text x="354" y="270" text-anchor="middle" font-size="11" font-family="Georgia,serif" fill="#333333" filter="url(#pencil)">3월</text>
<text x="468" y="270" text-anchor="middle" font-size="11" font-family="Georgia,serif" fill="#333333" filter="url(#pencil)">4월</text>
<text x="579" y="270" text-anchor="middle" font-size="11" font-family="Georgia,serif" fill="#333333" filter="url(#pencil)">5월</text>
<text x="693" y="270" text-anchor="middle" font-size="11" font-family="Georgia,serif" fill="#333333" filter="url(#pencil)">6월</text>
<line x1="59" y1="42" x2="59" y2="256" stroke="#111111" stroke-width="2" filter="url(#pline)"/>
<line x1="52" y1="251" x2="738" y2="251" stroke="#111111" stroke-width="2" filter="url(#pline)"/>
<polygon points="60,250 60,250 63,219 67,219 71,219 74,219 78,219 82,219 85,219 89,200 93,200 96,200 100,200 104,200 107,195 111,195 115,195 118,195 122,195 126,195 129,195 133,195 137,195 140,195 144,195 148,195 152,195 155,195 159,195 163,195 166,195 170,195 174,195 177,195 181,195 185,195 188,195 192,195 196,195 199,191 203,191 207,191 210,191 214,191 218,191 221,188 225,187 229,186 233,178 236,178 240,178 244,176 247,168 251,167 255,166 258,166 262,165 266,165 269,156 273,156 277,155 280,155 284,155 288,155 291,155 295,155 299,155 302,155 306,155 310,155 314,155 317,155 321,153 325,153 328,153 332,153 336,153 339,153 343,152 347,150 350,149 354,144 358,142 361,142 365,142 369,142 372,142 376,142 380,142 383,142 387,142 391,142 395,142 398,141 402,141 406,141 409,138 413,137 417,137 420,133 424,132 428,132 431,132 435,121 439,121 442,121 446,115 450,106 453,100 457,99 461,98 464,98 468,98 472,98 475,98 479,98 483,98 487,98 490,98 494,98 498,98 501,98 505,98 509,98 512,98 516,98 520,98 523,98 527,95 531,94 534,94 538,94 542,94 545,94 549,94 553,94 556,94 560,94 564,94 568,94 571,94 575,94 579,94 582,94 586,93 590,93 593,93 597,92 601,92 604,92 608,92 612,92 615,92 619,92 623,92 626,92 630,92 634,92 637,91 641,91 645,88 649,85 652,82 656,79 660,76 663,72 667,70 671,68 674,66 678,64 682,63 685,61 689,59 693,58 696,57 700,56 704,55 707,54 711,53 715,52 718,52 722,51 726,51 730,50 730,250" fill="#e8e8e8" opacity="0.6"/>
<polyline points="60,250 63,219 67,219 71,219 74,219 78,219 82,219 85,219 89,200 93,200 96,200 100,200 104,200 107,195 111,195 115,195 118,195 122,195 126,195 129,195 133,195 137,195 140,195 144,195 148,195 152,195 155,195 159,195 163,195 166,195 170,195 174,195 177,195 181,195 185,195 188,195 192,195 196,195 199,191 203,191 207,191 210,191 214,191 218,191 221,188 225,187 229,186 233,178 236,178 240,178 244,176 247,168 251,167 255,166 258,166 262,165 266,165 269,156 273,156 277,155 280,155 284,155 288,155 291,155 295,155 299,155 302,155 306,155 310,155 314,155 317,155 321,153 325,153 328,153 332,153 336,153 339,153 343,152 347,150 350,149 354,144 358,142 361,142 365,142 369,142 372,142 376,142 380,142 383,142 387,142 391,142 395,142 398,141 402,141 406,141 409,138 413,137 417,137 420,133 424,132 428,132 431,132 435,121 439,121 442,121 446,115 450,106 453,100 457,99 461,98 464,98 468,98 472,98 475,98 479,98 483,98 487,98 490,98 494,98 498,98 501,98 505,98 509,98 512,98 516,98 520,98 523,98 527,95 531,94 534,94 538,94 542,94 545,94 549,94 553,94 556,94 560,94 564,94 568,94 571,94 575,94 579,94 582,94 586,93 590,93 593,93 597,92 601,92 604,92 608,92 612,92 615,92 619,92 623,92 626,92 630,92 634,92 637,91 641,91 645,88 649,85 652,82 656,79 660,76 663,72 667,70 671,68 674,66 678,64 682,63 685,61 689,59 693,58 696,57 700,56 704,55 707,54 711,53 715,52 718,52 722,51 726,51 730,50" fill="none" stroke="#111111" stroke-width="2.4" stroke-linejoin="round" stroke-linecap="round" filter="url(#pline)"/>
<circle cx="730" cy="50" r="4" fill="#111111" filter="url(#pencil)"/>
<text x="724" y="42" text-anchor="end" font-size="10" font-family="Georgia,serif" fill="#111111">442K</text>
<text x="60" y="289" font-size="9" font-family="Georgia,serif" fill="#888888">기준: 2026-06-11 16:31</text>
</svg>