<svg xmlns="http://www.w3.org/2000/svg" width="760" height="295">
<defs><filter id="pencil" x="-5%" y="-5%" width="110%" height="110%"><feTurbulence type="fractalNoise" baseFrequency="0.9" numOctaves="4" seed="5" result="noise"/><feDisplacementMap in="SourceGraphic" in2="noise" scale="1.6" xChannelSelector="R" yChannelSelector="G"/></filter><filter id="pline" x="-2%" y="-30%" width="104%" height="160%"><feTurbulence type="fractalNoise" baseFrequency="0.015 0.9" numOctaves="3" seed="11" result="noise"/><feDisplacementMap in="SourceGraphic" in2="noise" scale="1.8" xChannelSelector="R" yChannelSelector="G"/></filter><filter id="rough" x="-5%" y="-5%" width="110%" height="110%"><feTurbulence type="turbulence" baseFrequency="0.05" numOctaves="2" seed="2" result="noise"/><feDisplacementMap in="SourceGraphic" in2="noise" scale="2" xChannelSelector="R" yChannelSelector="G"/></filter></defs>
<rect width="760" height="295" fill="#ffffff"/>
<text x="380" y="32" text-anchor="middle" font-size="14" font-weight="bold" font-family="Georgia,serif" fill="#111111" filter="url(#pencil)">Workload (6 months)</text>
<line x1="60" y1="250" x2="730" y2="250" stroke="#cccccc" stroke-width="0.7" stroke-dasharray="4,5" filter="url(#rough)"/>
<text x="54" y="254" text-anchor="end" font-size="10" font-family="Georgia,serif" fill="#333333">0</text>
<line x1="60" y1="201" x2="730" y2="201" stroke="#cccccc" stroke-width="0.7" stroke-dasharray="4,5" filter="url(#rough)"/>
<text x="54" y="205" text-anchor="end" font-size="10" font-family="Georgia,serif" fill="#333333">174K</text>
<line x1="60" y1="151" x2="730" y2="151" stroke="#cccccc" stroke-width="0.7" stroke-dasharray="4,5" filter="url(#rough)"/>
<text x="54" y="155" text-anchor="end" font-size="10" font-family="Georgia,serif" fill="#333333">348K</text>
<line x1="60" y1="101" x2="730" y2="101" stroke="#cccccc" stroke-width="0.7" stroke-dasharray="4,5" filter="url(#rough)"/>
<text x="54" y="105" text-anchor="end" font-size="10" font-family="Georgia,serif" fill="#333333">522K</text>
<line x1="60" y1="50" x2="730" y2="50" stroke="#cccccc" stroke-width="0.7" stroke-dasharray="4,5" filter="url(#rough)"/>
<text x="54" y="54" text-anchor="end" font-size="10" font-family="Georgia,serif" fill="#333333">696K</text>
<text x="85" y="270" text-anchor="middle" font-size="11" font-family="Georgia,serif" fill="#333333" filter="url(#pencil)">1월</text>
<text x="199" y="270" text-anchor="middle" font-size="11" font-family="Georgia,serif" fill="#333333" filter="url(#pencil)">2월</text>
<text x="302" y="270" text-anchor="middle" font-size="11" font-family="Georgia,serif" fill="#333333" filter="url(#pencil)">3월</text>
<text x="417" y="270" text-anchor="middle" font-size="11" font-family="Georgia,serif" fill="#333333" filter="url(#pencil)">4월</text>
<text x="527" y="270" text-anchor="middle" font-size="11" font-family="Georgia,serif" fill="#333333" filter="url(#pencil)">5월</text>
<text x="641" y="270" text-anchor="middle" font-size="11" font-family="Georgia,serif" fill="#333333" filter="url(#pencil)">6월</text>
<line x1="59" y1="42" x2="59" y2="256" stroke="#111111" stroke-width="2" filter="url(#pline)"/>
<line x1="52" y1="251" x2="738" y2="251" stroke="#111111" stroke-width="2" filter="url(#pline)"/>
<polygon points="60,250 60,250 63,250 67,250 71,250 74,250 78,250 82,250 85,250 89,250 93,250 96,250 100,250 104,250 107,250 111,250 115,250 118,250 122,250 126,250 129,250 133,250 137,250 140,250 144,250 148,247 152,247 155,247 159,246 163,246 166,246 170,244 174,243 177,241 181,233 185,233 188,233 192,232 196,224 199,222 203,221 207,221 210,221 214,220 218,212 221,211 225,211 229,211 233,211 236,211 240,211 244,211 247,211 251,211 255,211 258,211 262,211 266,211 269,209 273,209 277,209 280,209 284,209 288,209 291,207 295,205 299,204 302,199 306,198 310,198 314,197 317,197 321,197 325,197 328,197 332,197 336,197 339,197 343,197 347,196 350,196 354,196 358,193 361,192 365,192 369,188 372,187 376,187 380,187 383,177 387,177 391,177 395,170 398,162 402,155 406,155 409,154 413,154 417,154 420,153 424,153 428,153 431,153 435,153 439,153 442,153 446,153 450,152 453,152 457,152 461,150 464,150 468,150 472,150 475,147 479,146 483,143 487,143 490,143 494,142 498,142 501,141 505,141 509,139 512,139 516,139 520,139 523,139 527,139 531,139 534,139 538,139 542,139 545,138 549,138 553,138 556,138 560,138 564,138 568,137 571,137 575,137 579,136 582,136 586,135 590,135 593,132 597,129 601,126 604,122 608,118 612,114 615,112 619,109 623,107 626,105 630,102 634,99 637,97 641,95 645,94 649,92 652,90 656,89 660,87 663,84 667,83 671,77 674,74 678,72 682,71 685,69 689,68 693,67 696,66 700,66 704,65 707,64 711,62 715,56 718,53 722,52 726,51 730,50 730,250" fill="#e8e8e8" opacity="0.6"/>
<polyline points="60,250 63,250 67,250 71,250 74,250 78,250 82,250 85,250 89,250 93,250 96,250 100,250 104,250 107,250 111,250 115,250 118,250 122,250 126,250 129,250 133,250 137,250 140,250 144,250 148,247 152,247 155,247 159,246 163,246 166,246 170,244 174,243 177,241 181,233 185,233 188,233 192,232 196,224 199,222 203,221 207,221 210,221 214,220 218,212 221,211 225,211 229,211 233,211 236,211 240,211 244,211 247,211 251,211 255,211 258,211 262,211 266,211 269,209 273,209 277,209 280,209 284,209 288,209 291,207 295,205 299,204 302,199 306,198 310,198 314,197 317,197 321,197 325,197 328,197 332,197 336,197 339,197 343,197 347,196 350,196 354,196 358,193 361,192 365,192 369,188 372,187 376,187 380,187 383,177 387,177 391,177 395,170 398,162 402,155 406,155 409,154 413,154 417,154 420,153 424,153 428,153 431,153 435,153 439,153 442,153 446,153 450,152 453,152 457,152 461,150 464,150 468,150 472,150 475,147 479,146 483,143 487,143 490,143 494,142 498,142 501,141 505,141 509,139 512,139 516,139 520,139 523,139 527,139 531,139 534,139 538,139 542,139 545,138 549,138 553,138 556,138 560,138 564,138 568,137 571,137 575,137 579,136 582,136 586,135 590,135 593,132 597,129 601,126 604,122 608,118 612,114 615,112 619,109 623,107 626,105 630,102 634,99 637,97 641,95 645,94 649,92 652,90 656,89 660,87 663,84 667,83 671,77 674,74 678,72 682,71 685,69 689,68 693,67 696,66 700,66 704,65 707,64 711,62 715,56 718,53 722,52 726,51 730,50" fill="none" stroke="#111111" stroke-width="2.4" stroke-linejoin="round" stroke-linecap="round" filter="url(#pline)"/>
<circle cx="730" cy="50" r="4" fill="#111111" filter="url(#pencil)"/>
<text x="724" y="42" text-anchor="end" font-size="10" font-family="Georgia,serif" fill="#111111">696K</text>
<text x="60" y="289" font-size="9" font-family="Georgia,serif" fill="#888888">기준: 2026-06-25 15:18</text>
</svg>