<svg xmlns="http://www.w3.org/2000/svg" width="760" height="295">
<defs><filter id="pencil" x="-5%" y="-5%" width="110%" height="110%"><feTurbulence type="fractalNoise" baseFrequency="0.9" numOctaves="4" seed="5" result="noise"/><feDisplacementMap in="SourceGraphic" in2="noise" scale="1.6" xChannelSelector="R" yChannelSelector="G"/></filter><filter id="pline" x="-2%" y="-30%" width="104%" height="160%"><feTurbulence type="fractalNoise" baseFrequency="0.015 0.9" numOctaves="3" seed="11" result="noise"/><feDisplacementMap in="SourceGraphic" in2="noise" scale="1.8" xChannelSelector="R" yChannelSelector="G"/></filter><filter id="rough" x="-5%" y="-5%" width="110%" height="110%"><feTurbulence type="turbulence" baseFrequency="0.05" numOctaves="2" seed="2" result="noise"/><feDisplacementMap in="SourceGraphic" in2="noise" scale="2" xChannelSelector="R" yChannelSelector="G"/></filter></defs>
<rect width="760" height="295" fill="#ffffff"/>
<text x="380" y="32" text-anchor="middle" font-size="14" font-weight="bold" font-family="Georgia,serif" fill="#111111" filter="url(#pencil)">Workload (6 months)</text>
<line x1="60" y1="250" x2="730" y2="250" stroke="#cccccc" stroke-width="0.7" stroke-dasharray="4,5" filter="url(#rough)"/>
<text x="54" y="254" text-anchor="end" font-size="10" font-family="Georgia,serif" fill="#333333">0</text>
<line x1="60" y1="200" x2="730" y2="200" stroke="#cccccc" stroke-width="0.7" stroke-dasharray="4,5" filter="url(#rough)"/>
<text x="54" y="204" text-anchor="end" font-size="10" font-family="Georgia,serif" fill="#333333">130K</text>
<line x1="60" y1="150" x2="730" y2="150" stroke="#cccccc" stroke-width="0.7" stroke-dasharray="4,5" filter="url(#rough)"/>
<text x="54" y="154" text-anchor="end" font-size="10" font-family="Georgia,serif" fill="#333333">261K</text>
<line x1="60" y1="100" x2="730" y2="100" stroke="#cccccc" stroke-width="0.7" stroke-dasharray="4,5" filter="url(#rough)"/>
<text x="54" y="104" text-anchor="end" font-size="10" font-family="Georgia,serif" fill="#333333">392K</text>
<line x1="60" y1="50" x2="730" y2="50" stroke="#cccccc" stroke-width="0.7" stroke-dasharray="4,5" filter="url(#rough)"/>
<text x="54" y="54" text-anchor="end" font-size="10" font-family="Georgia,serif" fill="#333333">522K</text>
<text x="111" y="270" text-anchor="middle" font-size="11" font-family="Georgia,serif" fill="#333333" filter="url(#pencil)">1월</text>
<text x="225" y="270" text-anchor="middle" font-size="11" font-family="Georgia,serif" fill="#333333" filter="url(#pencil)">2월</text>
<text x="328" y="270" text-anchor="middle" font-size="11" font-family="Georgia,serif" fill="#333333" filter="url(#pencil)">3월</text>
<text x="442" y="270" text-anchor="middle" font-size="11" font-family="Georgia,serif" fill="#333333" filter="url(#pencil)">4월</text>
<text x="553" y="270" text-anchor="middle" font-size="11" font-family="Georgia,serif" fill="#333333" filter="url(#pencil)">5월</text>
<text x="667" y="270" text-anchor="middle" font-size="11" font-family="Georgia,serif" fill="#333333" filter="url(#pencil)">6월</text>
<line x1="59" y1="42" x2="59" y2="256" stroke="#111111" stroke-width="2" filter="url(#pline)"/>
<line x1="52" y1="251" x2="738" y2="251" stroke="#111111" stroke-width="2" filter="url(#pline)"/>
<polygon points="60,250 60,250 63,230 67,230 71,230 74,230 78,230 82,225 85,225 89,225 93,225 96,225 100,225 104,225 107,225 111,225 115,225 118,225 122,225 126,225 129,225 133,225 137,225 140,225 144,225 148,225 152,225 155,225 159,225 163,225 166,225 170,225 174,220 177,220 181,220 185,220 188,220 192,220 196,217 199,216 203,215 207,206 210,206 214,206 218,204 221,196 225,194 229,193 233,193 236,192 240,192 244,182 247,182 251,181 255,181 258,181 262,181 266,181 269,181 273,181 277,181 280,181 284,181 288,181 291,181 295,179 299,179 302,179 306,179 310,179 314,179 317,177 321,175 325,174 328,169 332,167 336,167 339,167 343,167 347,167 350,167 354,167 358,167 361,167 365,167 369,167 372,166 376,166 380,166 383,162 387,161 391,161 395,157 398,156 402,156 406,156 409,144 413,144 417,144 420,137 424,128 428,121 431,120 435,119 439,119 442,119 446,119 450,119 453,119 457,119 461,119 464,119 468,119 472,119 475,118 479,118 483,118 487,118 490,118 494,118 498,118 501,116 505,114 509,114 512,114 516,114 520,114 523,114 527,114 531,114 534,114 538,114 542,114 545,114 549,114 553,114 556,114 560,114 564,114 568,114 571,113 575,113 579,113 582,113 586,113 590,113 593,113 597,113 601,113 604,113 608,113 612,112 615,111 619,108 623,104 626,101 630,98 634,94 637,90 641,88 645,85 649,83 652,81 656,78 660,75 663,73 667,72 671,70 674,69 678,67 682,66 685,64 689,62 693,61 696,57 700,54 704,54 707,53 711,52 715,51 718,51 722,51 726,51 730,50 730,250" fill="#e8e8e8" opacity="0.6"/>
<polyline points="60,250 63,230 67,230 71,230 74,230 78,230 82,225 85,225 89,225 93,225 96,225 100,225 104,225 107,225 111,225 115,225 118,225 122,225 126,225 129,225 133,225 137,225 140,225 144,225 148,225 152,225 155,225 159,225 163,225 166,225 170,225 174,220 177,220 181,220 185,220 188,220 192,220 196,217 199,216 203,215 207,206 210,206 214,206 218,204 221,196 225,194 229,193 233,193 236,192 240,192 244,182 247,182 251,181 255,181 258,181 262,181 266,181 269,181 273,181 277,181 280,181 284,181 288,181 291,181 295,179 299,179 302,179 306,179 310,179 314,179 317,177 321,175 325,174 328,169 332,167 336,167 339,167 343,167 347,167 350,167 354,167 358,167 361,167 365,167 369,167 372,166 376,166 380,166 383,162 387,161 391,161 395,157 398,156 402,156 406,156 409,144 413,144 417,144 420,137 424,128 428,121 431,120 435,119 439,119 442,119 446,119 450,119 453,119 457,119 461,119 464,119 468,119 472,119 475,118 479,118 483,118 487,118 490,118 494,118 498,118 501,116 505,114 509,114 512,114 516,114 520,114 523,114 527,114 531,114 534,114 538,114 542,114 545,114 549,114 553,114 556,114 560,114 564,114 568,114 571,113 575,113 579,113 582,113 586,113 590,113 593,113 597,113 601,113 604,113 608,113 612,112 615,111 619,108 623,104 626,101 630,98 634,94 637,90 641,88 645,85 649,83 652,81 656,78 660,75 663,73 667,72 671,70 674,69 678,67 682,66 685,64 689,62 693,61 696,57 700,54 704,54 707,53 711,52 715,51 718,51 722,51 726,51 730,50" fill="none" stroke="#111111" stroke-width="2.4" stroke-linejoin="round" stroke-linecap="round" filter="url(#pline)"/>
<circle cx="730" cy="50" r="4" fill="#111111" filter="url(#pencil)"/>
<text x="724" y="42" text-anchor="end" font-size="10" font-family="Georgia,serif" fill="#111111">522K</text>
<text x="60" y="289" font-size="9" font-family="Georgia,serif" fill="#888888">기준: 2026-06-18 20:40</text>
</svg>