<svg xmlns="http://www.w3.org/2000/svg" width="760" height="295">
<defs><filter id="pencil" x="-5%" y="-5%" width="110%" height="110%"><feTurbulence type="fractalNoise" baseFrequency="0.9" numOctaves="4" seed="5" result="noise"/><feDisplacementMap in="SourceGraphic" in2="noise" scale="1.6" xChannelSelector="R" yChannelSelector="G"/></filter><filter id="pline" x="-2%" y="-30%" width="104%" height="160%"><feTurbulence type="fractalNoise" baseFrequency="0.015 0.9" numOctaves="3" seed="11" result="noise"/><feDisplacementMap in="SourceGraphic" in2="noise" scale="1.8" xChannelSelector="R" yChannelSelector="G"/></filter><filter id="rough" x="-5%" y="-5%" width="110%" height="110%"><feTurbulence type="turbulence" baseFrequency="0.05" numOctaves="2" seed="2" result="noise"/><feDisplacementMap in="SourceGraphic" in2="noise" scale="2" xChannelSelector="R" yChannelSelector="G"/></filter></defs>
<rect width="760" height="295" fill="#ffffff"/>
<text x="380" y="32" text-anchor="middle" font-size="14" font-weight="bold" font-family="Georgia,serif" fill="#111111" filter="url(#pencil)">Workload (6 months)</text>
<line x1="60" y1="250" x2="730" y2="250" stroke="#cccccc" stroke-width="0.7" stroke-dasharray="4,5" filter="url(#rough)"/>
<text x="54" y="254" text-anchor="end" font-size="10" font-family="Georgia,serif" fill="#333333">0</text>
<line x1="60" y1="201" x2="730" y2="201" stroke="#cccccc" stroke-width="0.7" stroke-dasharray="4,5" filter="url(#rough)"/>
<text x="54" y="205" text-anchor="end" font-size="10" font-family="Georgia,serif" fill="#333333">136K</text>
<line x1="60" y1="151" x2="730" y2="151" stroke="#cccccc" stroke-width="0.7" stroke-dasharray="4,5" filter="url(#rough)"/>
<text x="54" y="155" text-anchor="end" font-size="10" font-family="Georgia,serif" fill="#333333">272K</text>
<line x1="60" y1="101" x2="730" y2="101" stroke="#cccccc" stroke-width="0.7" stroke-dasharray="4,5" filter="url(#rough)"/>
<text x="54" y="105" text-anchor="end" font-size="10" font-family="Georgia,serif" fill="#333333">408K</text>
<line x1="60" y1="50" x2="730" y2="50" stroke="#cccccc" stroke-width="0.7" stroke-dasharray="4,5" filter="url(#rough)"/>
<text x="54" y="54" text-anchor="end" font-size="10" font-family="Georgia,serif" fill="#333333">545K</text>
<text x="100" y="270" text-anchor="middle" font-size="11" font-family="Georgia,serif" fill="#333333" filter="url(#pencil)">1월</text>
<text x="214" y="270" text-anchor="middle" font-size="11" font-family="Georgia,serif" fill="#333333" filter="url(#pencil)">2월</text>
<text x="317" y="270" text-anchor="middle" font-size="11" font-family="Georgia,serif" fill="#333333" filter="url(#pencil)">3월</text>
<text x="431" y="270" text-anchor="middle" font-size="11" font-family="Georgia,serif" fill="#333333" filter="url(#pencil)">4월</text>
<text x="542" y="270" text-anchor="middle" font-size="11" font-family="Georgia,serif" fill="#333333" filter="url(#pencil)">5월</text>
<text x="656" y="270" text-anchor="middle" font-size="11" font-family="Georgia,serif" fill="#333333" filter="url(#pencil)">6월</text>
<line x1="59" y1="42" x2="59" y2="256" stroke="#111111" stroke-width="2" filter="url(#pline)"/>
<line x1="52" y1="251" x2="738" y2="251" stroke="#111111" stroke-width="2" filter="url(#pline)"/>
<polygon points="60,250 60,250 63,250 67,250 71,245 74,245 78,245 82,245 85,245 89,245 93,245 96,245 100,245 104,245 107,245 111,245 115,245 118,245 122,245 126,245 129,245 133,245 137,245 140,245 144,245 148,245 152,245 155,245 159,245 163,241 166,241 170,241 174,240 177,240 181,240 185,237 188,236 192,235 196,226 199,226 203,226 207,224 210,215 214,213 218,211 221,211 225,211 229,211 233,201 236,200 240,200 244,200 247,200 251,200 255,200 258,200 262,200 266,200 269,200 273,200 277,200 280,200 284,198 288,198 291,198 295,198 299,198 302,198 306,195 310,193 314,192 317,187 321,185 325,185 328,185 332,185 336,185 339,185 343,185 347,185 350,185 354,185 358,185 361,183 365,183 369,183 372,180 376,179 380,179 383,174 387,173 391,173 395,173 398,161 402,161 406,161 409,153 413,144 417,136 420,136 424,135 428,135 431,135 435,134 439,134 442,134 446,134 450,134 453,134 457,134 461,134 464,134 468,134 472,134 475,133 479,133 483,133 487,133 490,130 494,129 498,128 501,128 505,128 509,127 512,127 516,127 520,127 523,126 527,126 531,126 534,126 538,126 542,126 545,126 549,126 553,126 556,126 560,125 564,125 568,125 571,125 575,125 579,125 582,124 586,124 590,124 593,124 597,124 601,123 604,123 608,119 612,115 615,112 619,109 623,104 626,100 630,97 634,95 637,92 641,89 645,87 649,84 652,81 656,80 660,78 663,76 667,75 671,73 674,71 678,68 682,67 685,61 689,58 693,57 696,56 700,54 704,54 707,53 711,53 715,52 718,52 722,51 726,51 730,50 730,250" fill="#e8e8e8" opacity="0.6"/>
<polyline points="60,250 63,250 67,250 71,245 74,245 78,245 82,245 85,245 89,245 93,245 96,245 100,245 104,245 107,245 111,245 115,245 118,245 122,245 126,245 129,245 133,245 137,245 140,245 144,245 148,245 152,245 155,245 159,245 163,241 166,241 170,241 174,240 177,240 181,240 185,237 188,236 192,235 196,226 199,226 203,226 207,224 210,215 214,213 218,211 221,211 225,211 229,211 233,201 236,200 240,200 244,200 247,200 251,200 255,200 258,200 262,200 266,200 269,200 273,200 277,200 280,200 284,198 288,198 291,198 295,198 299,198 302,198 306,195 310,193 314,192 317,187 321,185 325,185 328,185 332,185 336,185 339,185 343,185 347,185 350,185 354,185 358,185 361,183 365,183 369,183 372,180 376,179 380,179 383,174 387,173 391,173 395,173 398,161 402,161 406,161 409,153 413,144 417,136 420,136 424,135 428,135 431,135 435,134 439,134 442,134 446,134 450,134 453,134 457,134 461,134 464,134 468,134 472,134 475,133 479,133 483,133 487,133 490,130 494,129 498,128 501,128 505,128 509,127 512,127 516,127 520,127 523,126 527,126 531,126 534,126 538,126 542,126 545,126 549,126 553,126 556,126 560,125 564,125 568,125 571,125 575,125 579,125 582,124 586,124 590,124 593,124 597,124 601,123 604,123 608,119 612,115 615,112 619,109 623,104 626,100 630,97 634,95 637,92 641,89 645,87 649,84 652,81 656,80 660,78 663,76 667,75 671,73 674,71 678,68 682,67 685,61 689,58 693,57 696,56 700,54 704,54 707,53 711,53 715,52 718,52 722,51 726,51 730,50" fill="none" stroke="#111111" stroke-width="2.4" stroke-linejoin="round" stroke-linecap="round" filter="url(#pline)"/>
<circle cx="730" cy="50" r="4" fill="#111111" filter="url(#pencil)"/>
<text x="724" y="42" text-anchor="end" font-size="10" font-family="Georgia,serif" fill="#111111">545K</text>
<text x="60" y="289" font-size="9" font-family="Georgia,serif" fill="#888888">기준: 2026-06-21 14:34</text>
</svg>