<svg xmlns="http://www.w3.org/2000/svg" width="760" height="295">
<defs><filter id="pencil" x="-5%" y="-5%" width="110%" height="110%"><feTurbulence type="fractalNoise" baseFrequency="0.9" numOctaves="4" seed="5" result="noise"/><feDisplacementMap in="SourceGraphic" in2="noise" scale="1.6" xChannelSelector="R" yChannelSelector="G"/></filter><filter id="pline" x="-2%" y="-30%" width="104%" height="160%"><feTurbulence type="fractalNoise" baseFrequency="0.015 0.9" numOctaves="3" seed="11" result="noise"/><feDisplacementMap in="SourceGraphic" in2="noise" scale="1.8" xChannelSelector="R" yChannelSelector="G"/></filter><filter id="rough" x="-5%" y="-5%" width="110%" height="110%"><feTurbulence type="turbulence" baseFrequency="0.05" numOctaves="2" seed="2" result="noise"/><feDisplacementMap in="SourceGraphic" in2="noise" scale="2" xChannelSelector="R" yChannelSelector="G"/></filter></defs>
<rect width="760" height="295" fill="#ffffff"/>
<text x="380" y="32" text-anchor="middle" font-size="14" font-weight="bold" font-family="Georgia,serif" fill="#111111" filter="url(#pencil)">Workload (6 months)</text>
<line x1="60" y1="250" x2="730" y2="250" stroke="#cccccc" stroke-width="0.7" stroke-dasharray="4,5" filter="url(#rough)"/>
<text x="54" y="254" text-anchor="end" font-size="10" font-family="Georgia,serif" fill="#333333">0</text>
<line x1="60" y1="200" x2="730" y2="200" stroke="#cccccc" stroke-width="0.7" stroke-dasharray="4,5" filter="url(#rough)"/>
<text x="54" y="204" text-anchor="end" font-size="10" font-family="Georgia,serif" fill="#333333">330K</text>
<line x1="60" y1="150" x2="730" y2="150" stroke="#cccccc" stroke-width="0.7" stroke-dasharray="4,5" filter="url(#rough)"/>
<text x="54" y="154" text-anchor="end" font-size="10" font-family="Georgia,serif" fill="#333333">661K</text>
<line x1="60" y1="100" x2="730" y2="100" stroke="#cccccc" stroke-width="0.7" stroke-dasharray="4,5" filter="url(#rough)"/>
<text x="54" y="104" text-anchor="end" font-size="10" font-family="Georgia,serif" fill="#333333">991K</text>
<line x1="60" y1="50" x2="730" y2="50" stroke="#cccccc" stroke-width="0.7" stroke-dasharray="4,5" filter="url(#rough)"/>
<text x="54" y="54" text-anchor="end" font-size="10" font-family="Georgia,serif" fill="#333333">1322K</text>
<text x="159" y="270" text-anchor="middle" font-size="11" font-family="Georgia,serif" fill="#333333" filter="url(#pencil)">2월</text>
<text x="262" y="270" text-anchor="middle" font-size="11" font-family="Georgia,serif" fill="#333333" filter="url(#pencil)">3월</text>
<text x="376" y="270" text-anchor="middle" font-size="11" font-family="Georgia,serif" fill="#333333" filter="url(#pencil)">4월</text>
<text x="487" y="270" text-anchor="middle" font-size="11" font-family="Georgia,serif" fill="#333333" filter="url(#pencil)">5월</text>
<text x="601" y="270" text-anchor="middle" font-size="11" font-family="Georgia,serif" fill="#333333" filter="url(#pencil)">6월</text>
<text x="711" y="270" text-anchor="middle" font-size="11" font-family="Georgia,serif" fill="#333333" filter="url(#pencil)">7월</text>
<line x1="59" y1="42" x2="59" y2="256" stroke="#111111" stroke-width="2" filter="url(#pline)"/>
<line x1="52" y1="251" x2="738" y2="251" stroke="#111111" stroke-width="2" filter="url(#pline)"/>
<polygon points="60,250 60,250 63,250 67,250 71,250 74,250 78,250 82,250 85,250 89,250 93,250 96,250 100,250 104,250 107,248 111,248 115,248 118,248 122,248 126,247 129,246 133,245 137,244 140,238 144,238 148,238 152,237 155,232 159,230 163,230 166,230 170,230 174,229 177,223 181,223 185,222 188,222 192,222 196,222 199,222 203,222 207,222 210,222 214,222 218,222 221,222 225,222 229,221 233,221 236,221 240,221 244,221 247,221 251,220 255,219 258,218 262,214 266,213 269,213 273,213 277,213 280,213 284,213 288,213 291,213 295,213 299,213 302,213 306,212 310,212 314,212 317,210 321,209 325,209 328,206 332,206 336,206 339,206 343,198 347,198 350,198 354,194 358,188 361,183 365,183 369,182 372,182 376,182 380,181 383,181 387,181 391,181 395,181 398,181 402,181 406,181 409,181 413,181 417,181 420,176 424,176 428,176 431,176 435,175 439,174 442,169 446,169 450,169 453,166 457,166 461,165 464,164 468,162 472,161 475,161 479,161 483,161 487,161 490,161 494,161 498,161 501,161 505,160 509,160 512,160 516,160 520,160 523,160 527,160 531,160 534,160 538,158 542,158 545,157 549,157 553,155 556,152 560,150 564,146 568,144 571,141 575,139 579,137 582,135 586,133 590,131 593,129 597,127 601,126 604,124 608,123 612,121 615,120 619,118 623,116 626,114 630,109 634,106 637,104 641,103 645,101 649,99 652,98 656,97 660,96 663,95 667,93 671,89 674,78 678,70 682,64 685,58 689,56 693,55 696,54 700,53 704,53 707,52 711,51 715,51 718,51 722,51 726,51 730,50 730,250" fill="#e8e8e8" opacity="0.6"/>
<polyline points="60,250 63,250 67,250 71,250 74,250 78,250 82,250 85,250 89,250 93,250 96,250 100,250 104,250 107,248 111,248 115,248 118,248 122,248 126,247 129,246 133,245 137,244 140,238 144,238 148,238 152,237 155,232 159,230 163,230 166,230 170,230 174,229 177,223 181,223 185,222 188,222 192,222 196,222 199,222 203,222 207,222 210,222 214,222 218,222 221,222 225,222 229,221 233,221 236,221 240,221 244,221 247,221 251,220 255,219 258,218 262,214 266,213 269,213 273,213 277,213 280,213 284,213 288,213 291,213 295,213 299,213 302,213 306,212 310,212 314,212 317,210 321,209 325,209 328,206 332,206 336,206 339,206 343,198 347,198 350,198 354,194 358,188 361,183 365,183 369,182 372,182 376,182 380,181 383,181 387,181 391,181 395,181 398,181 402,181 406,181 409,181 413,181 417,181 420,176 424,176 428,176 431,176 435,175 439,174 442,169 446,169 450,169 453,166 457,166 461,165 464,164 468,162 472,161 475,161 479,161 483,161 487,161 490,161 494,161 498,161 501,161 505,160 509,160 512,160 516,160 520,160 523,160 527,160 531,160 534,160 538,158 542,158 545,157 549,157 553,155 556,152 560,150 564,146 568,144 571,141 575,139 579,137 582,135 586,133 590,131 593,129 597,127 601,126 604,124 608,123 612,121 615,120 619,118 623,116 626,114 630,109 634,106 637,104 641,103 645,101 649,99 652,98 656,97 660,96 663,95 667,93 671,89 674,78 678,70 682,64 685,58 689,56 693,55 696,54 700,53 704,53 707,52 711,51 715,51 718,51 722,51 726,51 730,50" fill="none" stroke="#111111" stroke-width="2.4" stroke-linejoin="round" stroke-linecap="round" filter="url(#pline)"/>
<circle cx="730" cy="50" r="4" fill="#111111" filter="url(#pencil)"/>
<text x="724" y="42" text-anchor="end" font-size="10" font-family="Georgia,serif" fill="#111111">1322K</text>
<text x="60" y="289" font-size="9" font-family="Georgia,serif" fill="#888888">기준: 2026-07-06 20:15</text>
</svg>