<svg xmlns="http://www.w3.org/2000/svg" width="760" height="295">
<defs><filter id="pencil" x="-5%" y="-5%" width="110%" height="110%"><feTurbulence type="fractalNoise" baseFrequency="0.9" numOctaves="4" seed="5" result="noise"/><feDisplacementMap in="SourceGraphic" in2="noise" scale="1.6" xChannelSelector="R" yChannelSelector="G"/></filter><filter id="pline" x="-2%" y="-30%" width="104%" height="160%"><feTurbulence type="fractalNoise" baseFrequency="0.015 0.9" numOctaves="3" seed="11" result="noise"/><feDisplacementMap in="SourceGraphic" in2="noise" scale="1.8" xChannelSelector="R" yChannelSelector="G"/></filter><filter id="rough" x="-5%" y="-5%" width="110%" height="110%"><feTurbulence type="turbulence" baseFrequency="0.05" numOctaves="2" seed="2" result="noise"/><feDisplacementMap in="SourceGraphic" in2="noise" scale="2" xChannelSelector="R" yChannelSelector="G"/></filter></defs>
<rect width="760" height="295" fill="#ffffff"/>
<text x="380" y="32" text-anchor="middle" font-size="14" font-weight="bold" font-family="Georgia,serif" fill="#111111" filter="url(#pencil)">Workload (6 months)</text>
<line x1="60" y1="250" x2="730" y2="250" stroke="#cccccc" stroke-width="0.7" stroke-dasharray="4,5" filter="url(#rough)"/>
<text x="54" y="254" text-anchor="end" font-size="10" font-family="Georgia,serif" fill="#333333">0</text>
<line x1="60" y1="200" x2="730" y2="200" stroke="#cccccc" stroke-width="0.7" stroke-dasharray="4,5" filter="url(#rough)"/>
<text x="54" y="204" text-anchor="end" font-size="10" font-family="Georgia,serif" fill="#333333">56K</text>
<line x1="60" y1="150" x2="730" y2="150" stroke="#cccccc" stroke-width="0.7" stroke-dasharray="4,5" filter="url(#rough)"/>
<text x="54" y="154" text-anchor="end" font-size="10" font-family="Georgia,serif" fill="#333333">113K</text>
<line x1="60" y1="100" x2="730" y2="100" stroke="#cccccc" stroke-width="0.7" stroke-dasharray="4,5" filter="url(#rough)"/>
<text x="54" y="104" text-anchor="end" font-size="10" font-family="Georgia,serif" fill="#333333">169K</text>
<line x1="60" y1="50" x2="730" y2="50" stroke="#cccccc" stroke-width="0.7" stroke-dasharray="4,5" filter="url(#rough)"/>
<text x="54" y="54" text-anchor="end" font-size="10" font-family="Georgia,serif" fill="#333333">226K</text>
<text x="67" y="270" text-anchor="middle" font-size="11" font-family="Georgia,serif" fill="#333333" filter="url(#pencil)">12월</text>
<text x="181" y="270" text-anchor="middle" font-size="11" font-family="Georgia,serif" fill="#333333" filter="url(#pencil)">1월</text>
<text x="295" y="270" text-anchor="middle" font-size="11" font-family="Georgia,serif" fill="#333333" filter="url(#pencil)">2월</text>
<text x="398" y="270" text-anchor="middle" font-size="11" font-family="Georgia,serif" fill="#333333" filter="url(#pencil)">3월</text>
<text x="512" y="270" text-anchor="middle" font-size="11" font-family="Georgia,serif" fill="#333333" filter="url(#pencil)">4월</text>
<text x="623" y="270" text-anchor="middle" font-size="11" font-family="Georgia,serif" fill="#333333" filter="url(#pencil)">5월</text>
<line x1="59" y1="42" x2="59" y2="256" stroke="#111111" stroke-width="2" filter="url(#pline)"/>
<line x1="52" y1="251" x2="738" y2="251" stroke="#111111" stroke-width="2" filter="url(#pline)"/>
<polygon points="60,250 60,250 63,250 67,250 71,250 74,250 78,250 82,250 85,245 89,245 93,228 96,228 100,228 104,228 107,197 111,197 115,197 118,197 122,197 126,197 129,197 133,178 137,178 140,178 144,178 148,178 152,173 155,173 159,173 163,173 166,173 170,173 174,173 177,173 181,173 185,173 188,173 192,173 196,173 199,173 203,173 207,173 210,173 214,173 218,173 221,173 225,173 229,173 233,173 236,173 240,173 244,169 247,169 251,169 255,169 258,169 262,169 266,166 269,166 273,164 277,156 280,156 284,156 288,155 291,147 295,145 299,144 302,144 306,144 310,143 314,135 317,134 321,134 325,134 328,134 332,134 336,134 339,134 343,134 347,134 350,134 354,134 358,134 361,134 365,132 369,132 372,132 376,132 380,132 383,132 387,130 391,128 395,127 398,122 402,121 406,121 409,121 413,121 417,121 420,121 424,121 428,121 431,121 435,121 439,121 442,119 446,119 450,119 453,116 457,115 461,115 464,111 468,110 472,110 475,110 479,100 483,100 487,100 490,93 494,85 498,79 501,78 505,77 509,77 512,77 516,77 520,77 523,77 527,77 531,77 534,77 538,77 542,77 545,76 549,76 553,76 556,76 560,76 564,76 568,76 571,74 575,73 579,73 582,73 586,73 590,73 593,73 597,73 601,73 604,73 608,73 612,73 615,73 619,73 623,73 626,73 630,72 634,72 637,72 641,71 645,71 649,71 652,71 656,71 660,71 663,71 667,71 671,71 674,71 678,71 682,70 685,70 689,67 693,64 696,61 700,59 704,57 707,54 711,53 715,52 718,51 722,51 726,51 730,50 730,250" fill="#e8e8e8" opacity="0.6"/>
<polyline points="60,250 63,250 67,250 71,250 74,250 78,250 82,250 85,245 89,245 93,228 96,228 100,228 104,228 107,197 111,197 115,197 118,197 122,197 126,197 129,197 133,178 137,178 140,178 144,178 148,178 152,173 155,173 159,173 163,173 166,173 170,173 174,173 177,173 181,173 185,173 188,173 192,173 196,173 199,173 203,173 207,173 210,173 214,173 218,173 221,173 225,173 229,173 233,173 236,173 240,173 244,169 247,169 251,169 255,169 258,169 262,169 266,166 269,166 273,164 277,156 280,156 284,156 288,155 291,147 295,145 299,144 302,144 306,144 310,143 314,135 317,134 321,134 325,134 328,134 332,134 336,134 339,134 343,134 347,134 350,134 354,134 358,134 361,134 365,132 369,132 372,132 376,132 380,132 383,132 387,130 391,128 395,127 398,122 402,121 406,121 409,121 413,121 417,121 420,121 424,121 428,121 431,121 435,121 439,121 442,119 446,119 450,119 453,116 457,115 461,115 464,111 468,110 472,110 475,110 479,100 483,100 487,100 490,93 494,85 498,79 501,78 505,77 509,77 512,77 516,77 520,77 523,77 527,77 531,77 534,77 538,77 542,77 545,76 549,76 553,76 556,76 560,76 564,76 568,76 571,74 575,73 579,73 582,73 586,73 590,73 593,73 597,73 601,73 604,73 608,73 612,73 615,73 619,73 623,73 626,73 630,72 634,72 637,72 641,71 645,71 649,71 652,71 656,71 660,71 663,71 667,71 671,71 674,71 678,71 682,70 685,70 689,67 693,64 696,61 700,59 704,57 707,54 711,53 715,52 718,51 722,51 726,51 730,50" fill="none" stroke="#111111" stroke-width="2.4" stroke-linejoin="round" stroke-linecap="round" filter="url(#pline)"/>
<circle cx="730" cy="50" r="4" fill="#111111" filter="url(#pencil)"/>
<text x="724" y="42" text-anchor="end" font-size="10" font-family="Georgia,serif" fill="#111111">226K</text>
<text x="60" y="289" font-size="9" font-family="Georgia,serif" fill="#888888">기준: 2026-05-30 14:07</text>
</svg>