<svg xmlns="http://www.w3.org/2000/svg" width="760" height="295">
<defs><filter id="pencil" x="-5%" y="-5%" width="110%" height="110%"><feTurbulence type="fractalNoise" baseFrequency="0.9" numOctaves="4" seed="5" result="noise"/><feDisplacementMap in="SourceGraphic" in2="noise" scale="1.6" xChannelSelector="R" yChannelSelector="G"/></filter><filter id="pline" x="-2%" y="-30%" width="104%" height="160%"><feTurbulence type="fractalNoise" baseFrequency="0.015 0.9" numOctaves="3" seed="11" result="noise"/><feDisplacementMap in="SourceGraphic" in2="noise" scale="1.8" xChannelSelector="R" yChannelSelector="G"/></filter><filter id="rough" x="-5%" y="-5%" width="110%" height="110%"><feTurbulence type="turbulence" baseFrequency="0.05" numOctaves="2" seed="2" result="noise"/><feDisplacementMap in="SourceGraphic" in2="noise" scale="2" xChannelSelector="R" yChannelSelector="G"/></filter></defs>
<rect width="760" height="295" fill="#ffffff"/>
<text x="380" y="32" text-anchor="middle" font-size="14" font-weight="bold" font-family="Georgia,serif" fill="#111111" filter="url(#pencil)">Workload (6 months)</text>
<line x1="60" y1="250" x2="730" y2="250" stroke="#cccccc" stroke-width="0.7" stroke-dasharray="4,5" filter="url(#rough)"/>
<text x="54" y="254" text-anchor="end" font-size="10" font-family="Georgia,serif" fill="#333333">0</text>
<line x1="60" y1="201" x2="730" y2="201" stroke="#cccccc" stroke-width="0.7" stroke-dasharray="4,5" filter="url(#rough)"/>
<text x="54" y="205" text-anchor="end" font-size="10" font-family="Georgia,serif" fill="#333333">180K</text>
<line x1="60" y1="150" x2="730" y2="150" stroke="#cccccc" stroke-width="0.7" stroke-dasharray="4,5" filter="url(#rough)"/>
<text x="54" y="154" text-anchor="end" font-size="10" font-family="Georgia,serif" fill="#333333">361K</text>
<line x1="60" y1="101" x2="730" y2="101" stroke="#cccccc" stroke-width="0.7" stroke-dasharray="4,5" filter="url(#rough)"/>
<text x="54" y="105" text-anchor="end" font-size="10" font-family="Georgia,serif" fill="#333333">542K</text>
<line x1="60" y1="50" x2="730" y2="50" stroke="#cccccc" stroke-width="0.7" stroke-dasharray="4,5" filter="url(#rough)"/>
<text x="54" y="54" text-anchor="end" font-size="10" font-family="Georgia,serif" fill="#333333">723K</text>
<text x="82" y="270" text-anchor="middle" font-size="11" font-family="Georgia,serif" fill="#333333" filter="url(#pencil)">1월</text>
<text x="196" y="270" text-anchor="middle" font-size="11" font-family="Georgia,serif" fill="#333333" filter="url(#pencil)">2월</text>
<text x="299" y="270" text-anchor="middle" font-size="11" font-family="Georgia,serif" fill="#333333" filter="url(#pencil)">3월</text>
<text x="413" y="270" text-anchor="middle" font-size="11" font-family="Georgia,serif" fill="#333333" filter="url(#pencil)">4월</text>
<text x="523" y="270" text-anchor="middle" font-size="11" font-family="Georgia,serif" fill="#333333" filter="url(#pencil)">5월</text>
<text x="637" y="270" text-anchor="middle" font-size="11" font-family="Georgia,serif" fill="#333333" filter="url(#pencil)">6월</text>
<line x1="59" y1="42" x2="59" y2="256" stroke="#111111" stroke-width="2" filter="url(#pline)"/>
<line x1="52" y1="251" x2="738" y2="251" stroke="#111111" stroke-width="2" filter="url(#pline)"/>
<polygon points="60,250 60,250 63,250 67,250 71,250 74,250 78,250 82,250 85,250 89,250 93,250 96,250 100,250 104,250 107,250 111,250 115,250 118,250 122,250 126,250 129,250 133,250 137,250 140,250 144,247 148,247 152,247 155,246 159,246 163,246 166,244 170,243 174,241 177,234 181,234 185,234 188,232 192,224 196,223 199,222 203,222 207,221 210,221 214,212 218,212 221,211 225,211 229,211 233,211 236,211 240,211 244,211 247,211 251,211 255,211 258,211 262,211 266,210 269,210 273,210 277,210 280,210 284,210 288,208 291,206 295,205 299,200 302,199 306,199 310,199 314,199 317,199 321,199 325,199 328,199 332,199 336,199 339,199 343,197 347,197 350,197 354,194 358,193 361,193 365,189 369,189 372,189 376,189 380,178 383,178 387,178 391,172 395,164 398,157 402,157 406,156 409,156 413,156 417,155 420,155 424,155 428,155 431,155 435,155 439,155 442,155 446,154 450,154 453,154 457,152 461,152 464,152 468,152 472,149 475,148 479,145 483,145 487,145 490,144 494,144 498,143 501,142 505,141 509,141 512,141 516,141 520,141 523,141 527,141 531,140 534,140 538,140 542,139 545,139 549,139 553,139 556,139 560,139 564,139 568,139 571,139 575,138 579,138 582,137 586,136 590,133 593,130 597,127 601,124 604,120 608,116 612,114 615,111 619,109 623,107 626,104 630,101 634,99 637,97 641,96 645,94 649,93 652,91 656,89 660,86 663,85 667,79 671,76 674,75 678,73 682,71 685,70 689,69 693,69 696,68 700,67 704,66 707,64 711,57 715,54 718,52 722,51 726,51 730,50 730,250" fill="#e8e8e8" opacity="0.6"/>
<polyline points="60,250 63,250 67,250 71,250 74,250 78,250 82,250 85,250 89,250 93,250 96,250 100,250 104,250 107,250 111,250 115,250 118,250 122,250 126,250 129,250 133,250 137,250 140,250 144,247 148,247 152,247 155,246 159,246 163,246 166,244 170,243 174,241 177,234 181,234 185,234 188,232 192,224 196,223 199,222 203,222 207,221 210,221 214,212 218,212 221,211 225,211 229,211 233,211 236,211 240,211 244,211 247,211 251,211 255,211 258,211 262,211 266,210 269,210 273,210 277,210 280,210 284,210 288,208 291,206 295,205 299,200 302,199 306,199 310,199 314,199 317,199 321,199 325,199 328,199 332,199 336,199 339,199 343,197 347,197 350,197 354,194 358,193 361,193 365,189 369,189 372,189 376,189 380,178 383,178 387,178 391,172 395,164 398,157 402,157 406,156 409,156 413,156 417,155 420,155 424,155 428,155 431,155 435,155 439,155 442,155 446,154 450,154 453,154 457,152 461,152 464,152 468,152 472,149 475,148 479,145 483,145 487,145 490,144 494,144 498,143 501,142 505,141 509,141 512,141 516,141 520,141 523,141 527,141 531,140 534,140 538,140 542,139 545,139 549,139 553,139 556,139 560,139 564,139 568,139 571,139 575,138 579,138 582,137 586,136 590,133 593,130 597,127 601,124 604,120 608,116 612,114 615,111 619,109 623,107 626,104 630,101 634,99 637,97 641,96 645,94 649,93 652,91 656,89 660,86 663,85 667,79 671,76 674,75 678,73 682,71 685,70 689,69 693,69 696,68 700,67 704,66 707,64 711,57 715,54 718,52 722,51 726,51 730,50" fill="none" stroke="#111111" stroke-width="2.4" stroke-linejoin="round" stroke-linecap="round" filter="url(#pline)"/>
<circle cx="730" cy="50" r="4" fill="#111111" filter="url(#pencil)"/>
<text x="724" y="42" text-anchor="end" font-size="10" font-family="Georgia,serif" fill="#111111">723K</text>
<text x="60" y="289" font-size="9" font-family="Georgia,serif" fill="#888888">기준: 2026-06-26 04:42</text>
</svg>