<svg xmlns="http://www.w3.org/2000/svg" width="760" height="295">
<defs><filter id="pencil" x="-5%" y="-5%" width="110%" height="110%"><feTurbulence type="fractalNoise" baseFrequency="0.9" numOctaves="4" seed="5" result="noise"/><feDisplacementMap in="SourceGraphic" in2="noise" scale="1.6" xChannelSelector="R" yChannelSelector="G"/></filter><filter id="pline" x="-2%" y="-30%" width="104%" height="160%"><feTurbulence type="fractalNoise" baseFrequency="0.015 0.9" numOctaves="3" seed="11" result="noise"/><feDisplacementMap in="SourceGraphic" in2="noise" scale="1.8" xChannelSelector="R" yChannelSelector="G"/></filter><filter id="rough" x="-5%" y="-5%" width="110%" height="110%"><feTurbulence type="turbulence" baseFrequency="0.05" numOctaves="2" seed="2" result="noise"/><feDisplacementMap in="SourceGraphic" in2="noise" scale="2" xChannelSelector="R" yChannelSelector="G"/></filter></defs>
<rect width="760" height="295" fill="#ffffff"/>
<text x="380" y="32" text-anchor="middle" font-size="14" font-weight="bold" font-family="Georgia,serif" fill="#111111" filter="url(#pencil)">Workload (6 months)</text>
<line x1="60" y1="250" x2="730" y2="250" stroke="#cccccc" stroke-width="0.7" stroke-dasharray="4,5" filter="url(#rough)"/>
<text x="54" y="254" text-anchor="end" font-size="10" font-family="Georgia,serif" fill="#333333">0</text>
<line x1="60" y1="201" x2="730" y2="201" stroke="#cccccc" stroke-width="0.7" stroke-dasharray="4,5" filter="url(#rough)"/>
<text x="54" y="205" text-anchor="end" font-size="10" font-family="Georgia,serif" fill="#333333">51K</text>
<line x1="60" y1="150" x2="730" y2="150" stroke="#cccccc" stroke-width="0.7" stroke-dasharray="4,5" filter="url(#rough)"/>
<text x="54" y="154" text-anchor="end" font-size="10" font-family="Georgia,serif" fill="#333333">103K</text>
<line x1="60" y1="101" x2="730" y2="101" stroke="#cccccc" stroke-width="0.7" stroke-dasharray="4,5" filter="url(#rough)"/>
<text x="54" y="105" text-anchor="end" font-size="10" font-family="Georgia,serif" fill="#333333">155K</text>
<line x1="60" y1="50" x2="730" y2="50" stroke="#cccccc" stroke-width="0.7" stroke-dasharray="4,5" filter="url(#rough)"/>
<text x="54" y="54" text-anchor="end" font-size="10" font-family="Georgia,serif" fill="#333333">207K</text>
<text x="71" y="270" text-anchor="middle" font-size="11" font-family="Georgia,serif" fill="#333333" filter="url(#pencil)">12월</text>
<text x="185" y="270" text-anchor="middle" font-size="11" font-family="Georgia,serif" fill="#333333" filter="url(#pencil)">1월</text>
<text x="299" y="270" text-anchor="middle" font-size="11" font-family="Georgia,serif" fill="#333333" filter="url(#pencil)">2월</text>
<text x="402" y="270" text-anchor="middle" font-size="11" font-family="Georgia,serif" fill="#333333" filter="url(#pencil)">3월</text>
<text x="516" y="270" text-anchor="middle" font-size="11" font-family="Georgia,serif" fill="#333333" filter="url(#pencil)">4월</text>
<text x="626" y="270" text-anchor="middle" font-size="11" font-family="Georgia,serif" fill="#333333" filter="url(#pencil)">5월</text>
<line x1="59" y1="42" x2="59" y2="256" stroke="#111111" stroke-width="2" filter="url(#pline)"/>
<line x1="52" y1="251" x2="738" y2="251" stroke="#111111" stroke-width="2" filter="url(#pline)"/>
<polygon points="60,250 60,250 63,250 67,250 71,250 74,250 78,250 82,250 85,250 89,245 93,245 96,228 100,228 104,228 107,228 111,196 115,196 118,196 122,196 126,196 129,196 133,196 137,177 140,177 144,177 148,177 152,177 155,173 159,173 163,173 166,173 170,173 174,173 177,173 181,173 185,173 188,173 192,173 196,173 199,173 203,173 207,173 210,173 214,173 218,173 221,173 225,173 229,173 233,173 236,173 240,173 244,173 247,169 251,169 255,169 258,169 262,169 266,168 269,166 273,165 277,163 280,156 284,156 288,156 291,154 295,146 299,144 302,143 306,143 310,143 314,143 317,134 321,133 325,133 328,133 332,133 336,133 339,133 343,133 347,133 350,133 354,133 358,133 361,133 365,133 369,131 372,131 376,131 380,131 383,131 387,131 391,129 395,127 398,126 402,121 406,120 409,120 413,120 417,120 420,120 424,120 428,120 431,120 435,120 439,120 442,120 446,118 450,118 453,118 457,115 461,114 464,114 468,110 472,109 475,109 479,109 483,99 487,99 490,99 494,92 498,84 501,77 505,77 509,76 512,76 516,76 520,76 523,76 527,76 531,76 534,76 538,76 542,76 545,76 549,75 553,75 556,75 560,75 564,75 568,75 571,75 575,72 579,71 582,71 586,71 590,71 593,71 597,71 601,71 604,71 608,71 612,71 615,71 619,71 623,71 626,71 630,71 634,71 637,71 641,71 645,70 649,70 652,70 656,70 660,70 663,70 667,70 671,70 674,70 678,70 682,70 685,69 689,68 693,65 696,62 700,60 704,58 707,55 711,53 715,52 718,51 722,51 726,51 730,50 730,250" fill="#e8e8e8" opacity="0.6"/>
<polyline points="60,250 63,250 67,250 71,250 74,250 78,250 82,250 85,250 89,245 93,245 96,228 100,228 104,228 107,228 111,196 115,196 118,196 122,196 126,196 129,196 133,196 137,177 140,177 144,177 148,177 152,177 155,173 159,173 163,173 166,173 170,173 174,173 177,173 181,173 185,173 188,173 192,173 196,173 199,173 203,173 207,173 210,173 214,173 218,173 221,173 225,173 229,173 233,173 236,173 240,173 244,173 247,169 251,169 255,169 258,169 262,169 266,168 269,166 273,165 277,163 280,156 284,156 288,156 291,154 295,146 299,144 302,143 306,143 310,143 314,143 317,134 321,133 325,133 328,133 332,133 336,133 339,133 343,133 347,133 350,133 354,133 358,133 361,133 365,133 369,131 372,131 376,131 380,131 383,131 387,131 391,129 395,127 398,126 402,121 406,120 409,120 413,120 417,120 420,120 424,120 428,120 431,120 435,120 439,120 442,120 446,118 450,118 453,118 457,115 461,114 464,114 468,110 472,109 475,109 479,109 483,99 487,99 490,99 494,92 498,84 501,77 505,77 509,76 512,76 516,76 520,76 523,76 527,76 531,76 534,76 538,76 542,76 545,76 549,75 553,75 556,75 560,75 564,75 568,75 571,75 575,72 579,71 582,71 586,71 590,71 593,71 597,71 601,71 604,71 608,71 612,71 615,71 619,71 623,71 626,71 630,71 634,71 637,71 641,71 645,70 649,70 652,70 656,70 660,70 663,70 667,70 671,70 674,70 678,70 682,70 685,69 689,68 693,65 696,62 700,60 704,58 707,55 711,53 715,52 718,51 722,51 726,51 730,50" fill="none" stroke="#111111" stroke-width="2.4" stroke-linejoin="round" stroke-linecap="round" filter="url(#pline)"/>
<circle cx="730" cy="50" r="4" fill="#111111" filter="url(#pencil)"/>
<text x="724" y="42" text-anchor="end" font-size="10" font-family="Georgia,serif" fill="#111111">207K</text>
<text x="60" y="289" font-size="9" font-family="Georgia,serif" fill="#888888">기준: 2026-05-29 20:39</text>
</svg>