<svg xmlns="http://www.w3.org/2000/svg" width="760" height="295">
<defs><filter id="pencil" x="-5%" y="-5%" width="110%" height="110%"><feTurbulence type="fractalNoise" baseFrequency="0.9" numOctaves="4" seed="5" result="noise"/><feDisplacementMap in="SourceGraphic" in2="noise" scale="1.6" xChannelSelector="R" yChannelSelector="G"/></filter><filter id="pline" x="-2%" y="-30%" width="104%" height="160%"><feTurbulence type="fractalNoise" baseFrequency="0.015 0.9" numOctaves="3" seed="11" result="noise"/><feDisplacementMap in="SourceGraphic" in2="noise" scale="1.8" xChannelSelector="R" yChannelSelector="G"/></filter><filter id="rough" x="-5%" y="-5%" width="110%" height="110%"><feTurbulence type="turbulence" baseFrequency="0.05" numOctaves="2" seed="2" result="noise"/><feDisplacementMap in="SourceGraphic" in2="noise" scale="2" xChannelSelector="R" yChannelSelector="G"/></filter></defs>
<rect width="760" height="295" fill="#ffffff"/>
<text x="380" y="32" text-anchor="middle" font-size="14" font-weight="bold" font-family="Georgia,serif" fill="#111111" filter="url(#pencil)">Workload (6 months)</text>
<line x1="60" y1="250" x2="730" y2="250" stroke="#cccccc" stroke-width="0.7" stroke-dasharray="4,5" filter="url(#rough)"/>
<text x="54" y="254" text-anchor="end" font-size="10" font-family="Georgia,serif" fill="#333333">0</text>
<line x1="60" y1="201" x2="730" y2="201" stroke="#cccccc" stroke-width="0.7" stroke-dasharray="4,5" filter="url(#rough)"/>
<text x="54" y="205" text-anchor="end" font-size="10" font-family="Georgia,serif" fill="#333333">132K</text>
<line x1="60" y1="151" x2="730" y2="151" stroke="#cccccc" stroke-width="0.7" stroke-dasharray="4,5" filter="url(#rough)"/>
<text x="54" y="155" text-anchor="end" font-size="10" font-family="Georgia,serif" fill="#333333">265K</text>
<line x1="60" y1="101" x2="730" y2="101" stroke="#cccccc" stroke-width="0.7" stroke-dasharray="4,5" filter="url(#rough)"/>
<text x="54" y="105" text-anchor="end" font-size="10" font-family="Georgia,serif" fill="#333333">398K</text>
<line x1="60" y1="50" x2="730" y2="50" stroke="#cccccc" stroke-width="0.7" stroke-dasharray="4,5" filter="url(#rough)"/>
<text x="54" y="54" text-anchor="end" font-size="10" font-family="Georgia,serif" fill="#333333">531K</text>
<text x="107" y="270" text-anchor="middle" font-size="11" font-family="Georgia,serif" fill="#333333" filter="url(#pencil)">1월</text>
<text x="221" y="270" text-anchor="middle" font-size="11" font-family="Georgia,serif" fill="#333333" filter="url(#pencil)">2월</text>
<text x="325" y="270" text-anchor="middle" font-size="11" font-family="Georgia,serif" fill="#333333" filter="url(#pencil)">3월</text>
<text x="439" y="270" text-anchor="middle" font-size="11" font-family="Georgia,serif" fill="#333333" filter="url(#pencil)">4월</text>
<text x="549" y="270" text-anchor="middle" font-size="11" font-family="Georgia,serif" fill="#333333" filter="url(#pencil)">5월</text>
<text x="663" y="270" text-anchor="middle" font-size="11" font-family="Georgia,serif" fill="#333333" filter="url(#pencil)">6월</text>
<line x1="59" y1="42" x2="59" y2="256" stroke="#111111" stroke-width="2" filter="url(#pline)"/>
<line x1="52" y1="251" x2="738" y2="251" stroke="#111111" stroke-width="2" filter="url(#pline)"/>
<polygon points="60,250 60,230 63,230 67,230 71,230 74,230 78,225 82,225 85,225 89,225 93,225 96,225 100,225 104,225 107,225 111,225 115,225 118,225 122,225 126,225 129,225 133,225 137,225 140,225 144,225 148,225 152,225 155,225 159,225 163,225 166,225 170,221 174,221 177,221 181,220 185,220 188,220 192,217 196,216 199,215 203,206 207,206 210,206 214,204 218,196 221,194 225,193 229,193 233,193 236,192 240,183 244,182 247,182 251,182 255,182 258,182 262,182 266,182 269,182 273,182 277,182 280,182 284,182 288,182 291,180 295,180 299,180 302,180 306,180 310,180 314,178 317,176 321,175 325,169 328,167 332,167 336,167 339,167 343,167 347,167 350,167 354,167 358,167 361,167 365,167 369,166 372,166 376,166 380,163 383,162 387,162 391,157 395,156 398,156 402,156 406,145 409,145 413,145 417,138 420,128 424,121 428,121 431,120 435,120 439,120 442,120 446,120 450,120 453,120 457,120 461,120 464,120 468,120 472,119 475,119 479,119 483,119 487,119 490,119 494,119 498,116 501,115 505,115 509,115 512,115 516,115 520,115 523,115 527,115 531,115 534,115 538,115 542,115 545,115 549,115 553,115 556,115 560,115 564,115 568,113 571,113 575,113 579,113 582,113 586,113 590,113 593,113 597,113 601,113 604,113 608,112 612,112 615,108 619,105 623,102 626,99 630,95 634,91 637,88 641,86 645,83 649,81 652,79 656,76 660,74 663,72 667,71 671,69 674,68 678,66 682,65 685,62 689,61 693,57 696,55 700,54 704,53 707,52 711,51 715,51 718,51 722,51 726,50 730,50 730,250" fill="#e8e8e8" opacity="0.6"/>
<polyline points="60,230 63,230 67,230 71,230 74,230 78,225 82,225 85,225 89,225 93,225 96,225 100,225 104,225 107,225 111,225 115,225 118,225 122,225 126,225 129,225 133,225 137,225 140,225 144,225 148,225 152,225 155,225 159,225 163,225 166,225 170,221 174,221 177,221 181,220 185,220 188,220 192,217 196,216 199,215 203,206 207,206 210,206 214,204 218,196 221,194 225,193 229,193 233,193 236,192 240,183 244,182 247,182 251,182 255,182 258,182 262,182 266,182 269,182 273,182 277,182 280,182 284,182 288,182 291,180 295,180 299,180 302,180 306,180 310,180 314,178 317,176 321,175 325,169 328,167 332,167 336,167 339,167 343,167 347,167 350,167 354,167 358,167 361,167 365,167 369,166 372,166 376,166 380,163 383,162 387,162 391,157 395,156 398,156 402,156 406,145 409,145 413,145 417,138 420,128 424,121 428,121 431,120 435,120 439,120 442,120 446,120 450,120 453,120 457,120 461,120 464,120 468,120 472,119 475,119 479,119 483,119 487,119 490,119 494,119 498,116 501,115 505,115 509,115 512,115 516,115 520,115 523,115 527,115 531,115 534,115 538,115 542,115 545,115 549,115 553,115 556,115 560,115 564,115 568,113 571,113 575,113 579,113 582,113 586,113 590,113 593,113 597,113 601,113 604,113 608,112 612,112 615,108 619,105 623,102 626,99 630,95 634,91 637,88 641,86 645,83 649,81 652,79 656,76 660,74 663,72 667,71 671,69 674,68 678,66 682,65 685,62 689,61 693,57 696,55 700,54 704,53 707,52 711,51 715,51 718,51 722,51 726,50 730,50" fill="none" stroke="#111111" stroke-width="2.4" stroke-linejoin="round" stroke-linecap="round" filter="url(#pline)"/>
<circle cx="730" cy="50" r="4" fill="#111111" filter="url(#pencil)"/>
<text x="724" y="42" text-anchor="end" font-size="10" font-family="Georgia,serif" fill="#111111">531K</text>
<text x="60" y="289" font-size="9" font-family="Georgia,serif" fill="#888888">기준: 2026-06-19 05:27</text>
</svg>