<svg xmlns="http://www.w3.org/2000/svg" width="760" height="295">
<defs><filter id="pencil" x="-5%" y="-5%" width="110%" height="110%"><feTurbulence type="fractalNoise" baseFrequency="0.9" numOctaves="4" seed="5" result="noise"/><feDisplacementMap in="SourceGraphic" in2="noise" scale="1.6" xChannelSelector="R" yChannelSelector="G"/></filter><filter id="pline" x="-2%" y="-30%" width="104%" height="160%"><feTurbulence type="fractalNoise" baseFrequency="0.015 0.9" numOctaves="3" seed="11" result="noise"/><feDisplacementMap in="SourceGraphic" in2="noise" scale="1.8" xChannelSelector="R" yChannelSelector="G"/></filter><filter id="rough" x="-5%" y="-5%" width="110%" height="110%"><feTurbulence type="turbulence" baseFrequency="0.05" numOctaves="2" seed="2" result="noise"/><feDisplacementMap in="SourceGraphic" in2="noise" scale="2" xChannelSelector="R" yChannelSelector="G"/></filter></defs>
<rect width="760" height="295" fill="#ffffff"/>
<text x="380" y="32" text-anchor="middle" font-size="14" font-weight="bold" font-family="Georgia,serif" fill="#111111" filter="url(#pencil)">Workload (6 months)</text>
<line x1="60" y1="250" x2="730" y2="250" stroke="#cccccc" stroke-width="0.7" stroke-dasharray="4,5" filter="url(#rough)"/>
<text x="54" y="254" text-anchor="end" font-size="10" font-family="Georgia,serif" fill="#333333">0</text>
<line x1="60" y1="201" x2="730" y2="201" stroke="#cccccc" stroke-width="0.7" stroke-dasharray="4,5" filter="url(#rough)"/>
<text x="54" y="205" text-anchor="end" font-size="10" font-family="Georgia,serif" fill="#333333">198K</text>
<line x1="60" y1="151" x2="730" y2="151" stroke="#cccccc" stroke-width="0.7" stroke-dasharray="4,5" filter="url(#rough)"/>
<text x="54" y="155" text-anchor="end" font-size="10" font-family="Georgia,serif" fill="#333333">397K</text>
<line x1="60" y1="101" x2="730" y2="101" stroke="#cccccc" stroke-width="0.7" stroke-dasharray="4,5" filter="url(#rough)"/>
<text x="54" y="105" text-anchor="end" font-size="10" font-family="Georgia,serif" fill="#333333">595K</text>
<line x1="60" y1="50" x2="730" y2="50" stroke="#cccccc" stroke-width="0.7" stroke-dasharray="4,5" filter="url(#rough)"/>
<text x="54" y="54" text-anchor="end" font-size="10" font-family="Georgia,serif" fill="#333333">794K</text>
<text x="78" y="270" text-anchor="middle" font-size="11" font-family="Georgia,serif" fill="#333333" filter="url(#pencil)">1월</text>
<text x="192" y="270" text-anchor="middle" font-size="11" font-family="Georgia,serif" fill="#333333" filter="url(#pencil)">2월</text>
<text x="295" y="270" text-anchor="middle" font-size="11" font-family="Georgia,serif" fill="#333333" filter="url(#pencil)">3월</text>
<text x="409" y="270" text-anchor="middle" font-size="11" font-family="Georgia,serif" fill="#333333" filter="url(#pencil)">4월</text>
<text x="520" y="270" text-anchor="middle" font-size="11" font-family="Georgia,serif" fill="#333333" filter="url(#pencil)">5월</text>
<text x="634" y="270" text-anchor="middle" font-size="11" font-family="Georgia,serif" fill="#333333" filter="url(#pencil)">6월</text>
<line x1="59" y1="42" x2="59" y2="256" stroke="#111111" stroke-width="2" filter="url(#pline)"/>
<line x1="52" y1="251" x2="738" y2="251" stroke="#111111" stroke-width="2" filter="url(#pline)"/>
<polygon points="60,250 60,250 63,250 67,250 71,250 74,250 78,250 82,250 85,250 89,250 93,250 96,250 100,250 104,250 107,250 111,250 115,250 118,250 122,250 126,250 129,250 133,250 137,250 140,247 144,247 148,247 152,247 155,247 159,246 163,244 166,243 170,242 174,235 177,235 181,235 185,233 188,226 192,224 196,223 199,223 203,223 207,223 210,214 214,214 218,214 221,214 225,214 229,214 233,214 236,214 240,214 244,214 247,214 251,214 255,214 258,214 262,212 266,212 269,212 273,212 277,212 280,212 284,210 288,208 291,208 295,203 299,201 302,201 306,201 310,201 314,201 317,201 321,201 325,201 328,201 332,201 336,201 339,200 343,200 347,200 350,197 354,196 358,196 361,193 365,192 369,192 372,192 376,182 380,182 383,182 387,176 391,168 395,162 398,162 402,161 406,161 409,161 413,160 417,160 420,160 424,160 428,160 431,160 435,160 439,160 442,159 446,159 450,159 453,157 457,157 461,157 464,157 468,154 472,153 475,150 479,150 483,150 487,148 490,148 494,147 498,146 501,145 505,144 509,144 512,144 516,144 520,144 523,144 527,144 531,144 534,144 538,143 542,143 545,143 549,143 553,143 556,143 560,143 564,143 568,143 571,141 575,141 579,141 582,140 586,137 590,134 593,132 597,128 601,124 604,121 608,118 612,116 615,114 619,111 623,109 626,106 630,104 634,102 637,101 641,100 645,98 649,96 652,94 656,92 660,90 663,85 667,81 671,80 674,79 678,76 682,75 685,74 689,74 693,73 696,72 700,71 704,68 707,61 711,57 715,54 718,51 722,51 726,51 730,50 730,250" fill="#e8e8e8" opacity="0.6"/>
<polyline points="60,250 63,250 67,250 71,250 74,250 78,250 82,250 85,250 89,250 93,250 96,250 100,250 104,250 107,250 111,250 115,250 118,250 122,250 126,250 129,250 133,250 137,250 140,247 144,247 148,247 152,247 155,247 159,246 163,244 166,243 170,242 174,235 177,235 181,235 185,233 188,226 192,224 196,223 199,223 203,223 207,223 210,214 214,214 218,214 221,214 225,214 229,214 233,214 236,214 240,214 244,214 247,214 251,214 255,214 258,214 262,212 266,212 269,212 273,212 277,212 280,212 284,210 288,208 291,208 295,203 299,201 302,201 306,201 310,201 314,201 317,201 321,201 325,201 328,201 332,201 336,201 339,200 343,200 347,200 350,197 354,196 358,196 361,193 365,192 369,192 372,192 376,182 380,182 383,182 387,176 391,168 395,162 398,162 402,161 406,161 409,161 413,160 417,160 420,160 424,160 428,160 431,160 435,160 439,160 442,159 446,159 450,159 453,157 457,157 461,157 464,157 468,154 472,153 475,150 479,150 483,150 487,148 490,148 494,147 498,146 501,145 505,144 509,144 512,144 516,144 520,144 523,144 527,144 531,144 534,144 538,143 542,143 545,143 549,143 553,143 556,143 560,143 564,143 568,143 571,141 575,141 579,141 582,140 586,137 590,134 593,132 597,128 601,124 604,121 608,118 612,116 615,114 619,111 623,109 626,106 630,104 634,102 637,101 641,100 645,98 649,96 652,94 656,92 660,90 663,85 667,81 671,80 674,79 678,76 682,75 685,74 689,74 693,73 696,72 700,71 704,68 707,61 711,57 715,54 718,51 722,51 726,51 730,50" fill="none" stroke="#111111" stroke-width="2.4" stroke-linejoin="round" stroke-linecap="round" filter="url(#pline)"/>
<circle cx="730" cy="50" r="4" fill="#111111" filter="url(#pencil)"/>
<text x="724" y="42" text-anchor="end" font-size="10" font-family="Georgia,serif" fill="#111111">794K</text>
<text x="60" y="289" font-size="9" font-family="Georgia,serif" fill="#888888">기준: 2026-06-27 11:05</text>
</svg>