<svg xmlns="http://www.w3.org/2000/svg" width="760" height="295">
<defs><filter id="pencil" x="-5%" y="-5%" width="110%" height="110%"><feTurbulence type="fractalNoise" baseFrequency="0.9" numOctaves="4" seed="5" result="noise"/><feDisplacementMap in="SourceGraphic" in2="noise" scale="1.6" xChannelSelector="R" yChannelSelector="G"/></filter><filter id="pline" x="-2%" y="-30%" width="104%" height="160%"><feTurbulence type="fractalNoise" baseFrequency="0.015 0.9" numOctaves="3" seed="11" result="noise"/><feDisplacementMap in="SourceGraphic" in2="noise" scale="1.8" xChannelSelector="R" yChannelSelector="G"/></filter><filter id="rough" x="-5%" y="-5%" width="110%" height="110%"><feTurbulence type="turbulence" baseFrequency="0.05" numOctaves="2" seed="2" result="noise"/><feDisplacementMap in="SourceGraphic" in2="noise" scale="2" xChannelSelector="R" yChannelSelector="G"/></filter></defs>
<rect width="760" height="295" fill="#ffffff"/>
<text x="380" y="32" text-anchor="middle" font-size="14" font-weight="bold" font-family="Georgia,serif" fill="#111111" filter="url(#pencil)">Workload (6 months)</text>
<line x1="60" y1="250" x2="730" y2="250" stroke="#cccccc" stroke-width="0.7" stroke-dasharray="4,5" filter="url(#rough)"/>
<text x="54" y="254" text-anchor="end" font-size="10" font-family="Georgia,serif" fill="#333333">0</text>
<line x1="60" y1="201" x2="730" y2="201" stroke="#cccccc" stroke-width="0.7" stroke-dasharray="4,5" filter="url(#rough)"/>
<text x="54" y="205" text-anchor="end" font-size="10" font-family="Georgia,serif" fill="#333333">277K</text>
<line x1="60" y1="151" x2="730" y2="151" stroke="#cccccc" stroke-width="0.7" stroke-dasharray="4,5" filter="url(#rough)"/>
<text x="54" y="155" text-anchor="end" font-size="10" font-family="Georgia,serif" fill="#333333">554K</text>
<line x1="60" y1="101" x2="730" y2="101" stroke="#cccccc" stroke-width="0.7" stroke-dasharray="4,5" filter="url(#rough)"/>
<text x="54" y="105" text-anchor="end" font-size="10" font-family="Georgia,serif" fill="#333333">831K</text>
<line x1="60" y1="50" x2="730" y2="50" stroke="#cccccc" stroke-width="0.7" stroke-dasharray="4,5" filter="url(#rough)"/>
<text x="54" y="54" text-anchor="end" font-size="10" font-family="Georgia,serif" fill="#333333">1108K</text>
<text x="170" y="270" text-anchor="middle" font-size="11" font-family="Georgia,serif" fill="#333333" filter="url(#pencil)">2월</text>
<text x="273" y="270" text-anchor="middle" font-size="11" font-family="Georgia,serif" fill="#333333" filter="url(#pencil)">3월</text>
<text x="387" y="270" text-anchor="middle" font-size="11" font-family="Georgia,serif" fill="#333333" filter="url(#pencil)">4월</text>
<text x="498" y="270" text-anchor="middle" font-size="11" font-family="Georgia,serif" fill="#333333" filter="url(#pencil)">5월</text>
<text x="612" y="270" text-anchor="middle" font-size="11" font-family="Georgia,serif" fill="#333333" filter="url(#pencil)">6월</text>
<text x="722" y="270" text-anchor="middle" font-size="11" font-family="Georgia,serif" fill="#333333" filter="url(#pencil)">7월</text>
<line x1="59" y1="42" x2="59" y2="256" stroke="#111111" stroke-width="2" filter="url(#pline)"/>
<line x1="52" y1="251" x2="738" y2="251" stroke="#111111" stroke-width="2" filter="url(#pline)"/>
<polygon points="60,250 60,250 63,250 67,250 71,250 74,250 78,250 82,250 85,250 89,250 93,250 96,250 100,250 104,250 107,250 111,250 115,250 118,247 122,247 126,247 129,247 133,247 137,247 140,245 144,244 148,243 152,237 155,237 159,237 163,236 166,230 170,228 174,228 177,228 181,228 185,227 188,221 192,220 196,220 199,220 203,220 207,220 210,220 214,220 218,220 221,220 225,220 229,220 233,220 236,220 240,218 244,218 247,218 251,218 255,218 258,218 262,217 266,216 269,215 273,211 277,210 280,210 284,210 288,210 291,210 295,210 299,210 302,210 306,210 310,210 314,210 317,209 321,209 325,209 328,206 332,205 336,205 339,202 343,202 347,202 350,202 354,194 358,194 361,194 365,188 369,182 372,177 376,177 380,176 383,176 387,176 391,175 395,175 398,175 402,175 406,175 409,175 413,175 417,175 420,174 424,174 428,174 431,170 435,170 439,170 442,170 446,168 450,167 453,163 457,163 461,163 464,161 468,160 472,160 475,159 479,156 483,156 487,156 490,156 494,156 498,156 501,156 505,156 509,156 512,156 516,155 520,155 523,155 527,155 531,155 534,155 538,154 542,154 545,154 549,153 553,153 556,152 560,152 564,149 568,147 571,144 575,141 579,138 582,135 586,133 590,131 593,128 597,126 601,124 604,122 608,120 612,118 615,117 619,116 623,114 626,113 630,111 634,108 637,107 641,101 645,98 649,97 652,95 656,93 660,92 663,91 667,90 671,89 674,88 678,86 682,83 685,72 689,65 693,60 696,55 700,54 704,53 707,52 711,51 715,51 718,51 722,51 726,50 730,50 730,250" fill="#e8e8e8" opacity="0.6"/>
<polyline points="60,250 63,250 67,250 71,250 74,250 78,250 82,250 85,250 89,250 93,250 96,250 100,250 104,250 107,250 111,250 115,250 118,247 122,247 126,247 129,247 133,247 137,247 140,245 144,244 148,243 152,237 155,237 159,237 163,236 166,230 170,228 174,228 177,228 181,228 185,227 188,221 192,220 196,220 199,220 203,220 207,220 210,220 214,220 218,220 221,220 225,220 229,220 233,220 236,220 240,218 244,218 247,218 251,218 255,218 258,218 262,217 266,216 269,215 273,211 277,210 280,210 284,210 288,210 291,210 295,210 299,210 302,210 306,210 310,210 314,210 317,209 321,209 325,209 328,206 332,205 336,205 339,202 343,202 347,202 350,202 354,194 358,194 361,194 365,188 369,182 372,177 376,177 380,176 383,176 387,176 391,175 395,175 398,175 402,175 406,175 409,175 413,175 417,175 420,174 424,174 428,174 431,170 435,170 439,170 442,170 446,168 450,167 453,163 457,163 461,163 464,161 468,160 472,160 475,159 479,156 483,156 487,156 490,156 494,156 498,156 501,156 505,156 509,156 512,156 516,155 520,155 523,155 527,155 531,155 534,155 538,154 542,154 545,154 549,153 553,153 556,152 560,152 564,149 568,147 571,144 575,141 579,138 582,135 586,133 590,131 593,128 597,126 601,124 604,122 608,120 612,118 615,117 619,116 623,114 626,113 630,111 634,108 637,107 641,101 645,98 649,97 652,95 656,93 660,92 663,91 667,90 671,89 674,88 678,86 682,83 685,72 689,65 693,60 696,55 700,54 704,53 707,52 711,51 715,51 718,51 722,51 726,50 730,50" fill="none" stroke="#111111" stroke-width="2.4" stroke-linejoin="round" stroke-linecap="round" filter="url(#pline)"/>
<circle cx="730" cy="50" r="4" fill="#111111" filter="url(#pencil)"/>
<text x="724" y="42" text-anchor="end" font-size="10" font-family="Georgia,serif" fill="#111111">1108K</text>
<text x="60" y="289" font-size="9" font-family="Georgia,serif" fill="#888888">기준: 2026-07-03 04:11</text>
</svg>