<svg xmlns="http://www.w3.org/2000/svg" width="760" height="295">
<defs><filter id="pencil" x="-5%" y="-5%" width="110%" height="110%"><feTurbulence type="fractalNoise" baseFrequency="0.9" numOctaves="4" seed="5" result="noise"/><feDisplacementMap in="SourceGraphic" in2="noise" scale="1.6" xChannelSelector="R" yChannelSelector="G"/></filter><filter id="pline" x="-2%" y="-30%" width="104%" height="160%"><feTurbulence type="fractalNoise" baseFrequency="0.015 0.9" numOctaves="3" seed="11" result="noise"/><feDisplacementMap in="SourceGraphic" in2="noise" scale="1.8" xChannelSelector="R" yChannelSelector="G"/></filter><filter id="rough" x="-5%" y="-5%" width="110%" height="110%"><feTurbulence type="turbulence" baseFrequency="0.05" numOctaves="2" seed="2" result="noise"/><feDisplacementMap in="SourceGraphic" in2="noise" scale="2" xChannelSelector="R" yChannelSelector="G"/></filter></defs>
<rect width="760" height="295" fill="#ffffff"/>
<text x="380" y="32" text-anchor="middle" font-size="14" font-weight="bold" font-family="Georgia,serif" fill="#111111" filter="url(#pencil)">Workload (6 months)</text>
<line x1="60" y1="250" x2="730" y2="250" stroke="#cccccc" stroke-width="0.7" stroke-dasharray="4,5" filter="url(#rough)"/>
<text x="54" y="254" text-anchor="end" font-size="10" font-family="Georgia,serif" fill="#333333">0</text>
<line x1="60" y1="201" x2="730" y2="201" stroke="#cccccc" stroke-width="0.7" stroke-dasharray="4,5" filter="url(#rough)"/>
<text x="54" y="205" text-anchor="end" font-size="10" font-family="Georgia,serif" fill="#333333">298K</text>
<line x1="60" y1="151" x2="730" y2="151" stroke="#cccccc" stroke-width="0.7" stroke-dasharray="4,5" filter="url(#rough)"/>
<text x="54" y="155" text-anchor="end" font-size="10" font-family="Georgia,serif" fill="#333333">597K</text>
<line x1="60" y1="101" x2="730" y2="101" stroke="#cccccc" stroke-width="0.7" stroke-dasharray="4,5" filter="url(#rough)"/>
<text x="54" y="105" text-anchor="end" font-size="10" font-family="Georgia,serif" fill="#333333">896K</text>
<line x1="60" y1="50" x2="730" y2="50" stroke="#cccccc" stroke-width="0.7" stroke-dasharray="4,5" filter="url(#rough)"/>
<text x="54" y="54" text-anchor="end" font-size="10" font-family="Georgia,serif" fill="#333333">1195K</text>
<text x="166" y="270" text-anchor="middle" font-size="11" font-family="Georgia,serif" fill="#333333" filter="url(#pencil)">2월</text>
<text x="269" y="270" text-anchor="middle" font-size="11" font-family="Georgia,serif" fill="#333333" filter="url(#pencil)">3월</text>
<text x="383" y="270" text-anchor="middle" font-size="11" font-family="Georgia,serif" fill="#333333" filter="url(#pencil)">4월</text>
<text x="494" y="270" text-anchor="middle" font-size="11" font-family="Georgia,serif" fill="#333333" filter="url(#pencil)">5월</text>
<text x="608" y="270" text-anchor="middle" font-size="11" font-family="Georgia,serif" fill="#333333" filter="url(#pencil)">6월</text>
<text x="718" y="270" text-anchor="middle" font-size="11" font-family="Georgia,serif" fill="#333333" filter="url(#pencil)">7월</text>
<line x1="59" y1="42" x2="59" y2="256" stroke="#111111" stroke-width="2" filter="url(#pline)"/>
<line x1="52" y1="251" x2="738" y2="251" stroke="#111111" stroke-width="2" filter="url(#pline)"/>
<polygon points="60,250 60,250 63,250 67,250 71,250 74,250 78,250 82,250 85,250 89,250 93,250 96,250 100,250 104,250 107,250 111,250 115,248 118,248 122,248 126,247 129,247 133,247 137,245 140,245 144,244 148,238 152,238 155,238 159,237 163,231 166,229 170,229 174,229 177,228 181,228 185,222 188,221 192,221 196,221 199,221 203,221 207,221 210,221 214,221 218,221 221,221 225,221 229,221 233,221 236,220 240,220 244,220 247,220 251,220 255,220 258,218 262,217 266,216 269,212 273,211 277,211 280,211 284,211 288,211 291,211 295,211 299,211 302,211 306,211 310,211 314,210 317,210 321,210 325,208 328,207 332,207 336,204 339,204 343,204 347,204 350,196 354,196 358,196 361,191 365,185 369,180 372,179 376,179 380,179 383,179 387,178 391,178 395,178 398,178 402,178 406,178 409,178 413,178 417,177 420,177 424,177 428,173 431,173 435,173 439,173 442,171 446,170 450,165 453,165 457,165 461,163 464,163 468,162 472,161 475,159 479,158 483,158 487,158 490,158 494,158 498,158 501,158 505,158 509,158 512,157 516,157 520,157 523,157 527,157 531,157 534,157 538,157 542,157 545,155 549,155 553,154 556,154 560,152 564,149 568,147 571,143 575,140 579,137 582,136 586,133 590,131 593,129 597,127 601,125 604,123 608,122 612,120 615,119 619,117 623,116 626,114 630,111 634,110 637,105 641,101 645,100 649,99 652,96 656,95 660,94 663,93 667,92 671,91 674,89 678,85 682,74 685,67 689,62 693,56 696,55 700,53 704,53 707,52 711,52 715,51 718,51 722,51 726,51 730,50 730,250" fill="#e8e8e8" opacity="0.6"/>
<polyline points="60,250 63,250 67,250 71,250 74,250 78,250 82,250 85,250 89,250 93,250 96,250 100,250 104,250 107,250 111,250 115,248 118,248 122,248 126,247 129,247 133,247 137,245 140,245 144,244 148,238 152,238 155,238 159,237 163,231 166,229 170,229 174,229 177,228 181,228 185,222 188,221 192,221 196,221 199,221 203,221 207,221 210,221 214,221 218,221 221,221 225,221 229,221 233,221 236,220 240,220 244,220 247,220 251,220 255,220 258,218 262,217 266,216 269,212 273,211 277,211 280,211 284,211 288,211 291,211 295,211 299,211 302,211 306,211 310,211 314,210 317,210 321,210 325,208 328,207 332,207 336,204 339,204 343,204 347,204 350,196 354,196 358,196 361,191 365,185 369,180 372,179 376,179 380,179 383,179 387,178 391,178 395,178 398,178 402,178 406,178 409,178 413,178 417,177 420,177 424,177 428,173 431,173 435,173 439,173 442,171 446,170 450,165 453,165 457,165 461,163 464,163 468,162 472,161 475,159 479,158 483,158 487,158 490,158 494,158 498,158 501,158 505,158 509,158 512,157 516,157 520,157 523,157 527,157 531,157 534,157 538,157 542,157 545,155 549,155 553,154 556,154 560,152 564,149 568,147 571,143 575,140 579,137 582,136 586,133 590,131 593,129 597,127 601,125 604,123 608,122 612,120 615,119 619,117 623,116 626,114 630,111 634,110 637,105 641,101 645,100 649,99 652,96 656,95 660,94 663,93 667,92 671,91 674,89 678,85 682,74 685,67 689,62 693,56 696,55 700,53 704,53 707,52 711,52 715,51 718,51 722,51 726,51 730,50" fill="none" stroke="#111111" stroke-width="2.4" stroke-linejoin="round" stroke-linecap="round" filter="url(#pline)"/>
<circle cx="730" cy="50" r="4" fill="#111111" filter="url(#pencil)"/>
<text x="724" y="42" text-anchor="end" font-size="10" font-family="Georgia,serif" fill="#111111">1195K</text>
<text x="60" y="289" font-size="9" font-family="Georgia,serif" fill="#888888">기준: 2026-07-04 14:01</text>
</svg>