<svg xmlns="http://www.w3.org/2000/svg" width="760" height="295">
<defs><filter id="pencil" x="-5%" y="-5%" width="110%" height="110%"><feTurbulence type="fractalNoise" baseFrequency="0.9" numOctaves="4" seed="5" result="noise"/><feDisplacementMap in="SourceGraphic" in2="noise" scale="1.6" xChannelSelector="R" yChannelSelector="G"/></filter><filter id="pline" x="-2%" y="-30%" width="104%" height="160%"><feTurbulence type="fractalNoise" baseFrequency="0.015 0.9" numOctaves="3" seed="11" result="noise"/><feDisplacementMap in="SourceGraphic" in2="noise" scale="1.8" xChannelSelector="R" yChannelSelector="G"/></filter><filter id="rough" x="-5%" y="-5%" width="110%" height="110%"><feTurbulence type="turbulence" baseFrequency="0.05" numOctaves="2" seed="2" result="noise"/><feDisplacementMap in="SourceGraphic" in2="noise" scale="2" xChannelSelector="R" yChannelSelector="G"/></filter></defs>
<rect width="760" height="295" fill="#ffffff"/>
<text x="380" y="32" text-anchor="middle" font-size="14" font-weight="bold" font-family="Georgia,serif" fill="#111111" filter="url(#pencil)">Workload (6 months)</text>
<line x1="60" y1="250" x2="730" y2="250" stroke="#cccccc" stroke-width="0.7" stroke-dasharray="4,5" filter="url(#rough)"/>
<text x="54" y="254" text-anchor="end" font-size="10" font-family="Georgia,serif" fill="#333333">0</text>
<line x1="60" y1="200" x2="730" y2="200" stroke="#cccccc" stroke-width="0.7" stroke-dasharray="4,5" filter="url(#rough)"/>
<text x="54" y="204" text-anchor="end" font-size="10" font-family="Georgia,serif" fill="#333333">597K</text>
<line x1="60" y1="150" x2="730" y2="150" stroke="#cccccc" stroke-width="0.7" stroke-dasharray="4,5" filter="url(#rough)"/>
<text x="54" y="154" text-anchor="end" font-size="10" font-family="Georgia,serif" fill="#333333">1195K</text>
<line x1="60" y1="100" x2="730" y2="100" stroke="#cccccc" stroke-width="0.7" stroke-dasharray="4,5" filter="url(#rough)"/>
<text x="54" y="104" text-anchor="end" font-size="10" font-family="Georgia,serif" fill="#333333">1793K</text>
<line x1="60" y1="50" x2="730" y2="50" stroke="#cccccc" stroke-width="0.7" stroke-dasharray="4,5" filter="url(#rough)"/>
<text x="54" y="54" text-anchor="end" font-size="10" font-family="Georgia,serif" fill="#333333">2391K</text>
<text x="118" y="270" text-anchor="middle" font-size="11" font-family="Georgia,serif" fill="#333333" filter="url(#pencil)">2월</text>
<text x="221" y="270" text-anchor="middle" font-size="11" font-family="Georgia,serif" fill="#333333" filter="url(#pencil)">3월</text>
<text x="336" y="270" text-anchor="middle" font-size="11" font-family="Georgia,serif" fill="#333333" filter="url(#pencil)">4월</text>
<text x="446" y="270" text-anchor="middle" font-size="11" font-family="Georgia,serif" fill="#333333" filter="url(#pencil)">5월</text>
<text x="560" y="270" text-anchor="middle" font-size="11" font-family="Georgia,serif" fill="#333333" filter="url(#pencil)">6월</text>
<text x="671" y="270" text-anchor="middle" font-size="11" font-family="Georgia,serif" fill="#333333" filter="url(#pencil)">7월</text>
<line x1="59" y1="42" x2="59" y2="256" stroke="#111111" stroke-width="2" filter="url(#pline)"/>
<line x1="52" y1="251" x2="738" y2="251" stroke="#111111" stroke-width="2" filter="url(#pline)"/>
<polygon points="60,250 60,250 63,250 67,248 71,248 74,248 78,248 82,248 85,247 89,246 93,246 96,245 100,242 104,241 107,241 111,240 115,236 118,235 122,234 126,234 129,234 133,234 137,230 140,229 144,229 148,229 152,229 155,229 159,229 163,228 166,228 170,228 174,228 177,228 181,228 185,228 188,227 192,227 196,226 199,226 203,226 207,226 210,225 214,224 218,222 221,220 225,219 229,219 233,219 236,219 240,219 244,218 247,218 251,218 255,218 258,218 262,218 266,217 269,217 273,217 277,215 280,215 284,215 288,213 291,212 295,212 299,212 302,207 306,207 310,207 314,204 317,199 321,196 325,196 328,195 332,195 336,195 339,195 343,195 347,195 350,195 354,195 358,195 361,194 365,194 369,194 372,194 376,193 380,188 383,188 387,188 391,188 395,187 398,186 402,183 406,183 409,182 413,181 417,180 420,180 424,179 428,177 431,176 435,176 439,176 442,176 446,176 450,176 453,175 457,175 461,175 464,174 468,174 472,174 475,174 479,174 483,174 487,174 490,173 494,173 498,171 501,171 505,170 509,170 512,168 516,166 520,165 523,161 527,159 531,157 534,154 538,152 542,150 545,149 549,146 553,143 556,141 560,139 564,138 568,137 571,136 575,135 579,133 582,131 586,130 590,125 593,122 597,121 601,119 604,117 608,116 612,115 615,114 619,112 623,111 626,110 630,105 634,93 637,86 641,79 645,73 649,70 652,68 656,67 660,66 663,64 667,62 671,61 674,60 678,59 682,58 685,58 689,57 693,56 696,55 700,55 704,54 707,53 711,52 715,52 718,51 722,51 726,51 730,50 730,250" fill="#e8e8e8" opacity="0.6"/>
<polyline points="60,250 63,250 67,248 71,248 74,248 78,248 82,248 85,247 89,246 93,246 96,245 100,242 104,241 107,241 111,240 115,236 118,235 122,234 126,234 129,234 133,234 137,230 140,229 144,229 148,229 152,229 155,229 159,229 163,228 166,228 170,228 174,228 177,228 181,228 185,228 188,227 192,227 196,226 199,226 203,226 207,226 210,225 214,224 218,222 221,220 225,219 229,219 233,219 236,219 240,219 244,218 247,218 251,218 255,218 258,218 262,218 266,217 269,217 273,217 277,215 280,215 284,215 288,213 291,212 295,212 299,212 302,207 306,207 310,207 314,204 317,199 321,196 325,196 328,195 332,195 336,195 339,195 343,195 347,195 350,195 354,195 358,195 361,194 365,194 369,194 372,194 376,193 380,188 383,188 387,188 391,188 395,187 398,186 402,183 406,183 409,182 413,181 417,180 420,180 424,179 428,177 431,176 435,176 439,176 442,176 446,176 450,176 453,175 457,175 461,175 464,174 468,174 472,174 475,174 479,174 483,174 487,174 490,173 494,173 498,171 501,171 505,170 509,170 512,168 516,166 520,165 523,161 527,159 531,157 534,154 538,152 542,150 545,149 549,146 553,143 556,141 560,139 564,138 568,137 571,136 575,135 579,133 582,131 586,130 590,125 593,122 597,121 601,119 604,117 608,116 612,115 615,114 619,112 623,111 626,110 630,105 634,93 637,86 641,79 645,73 649,70 652,68 656,67 660,66 663,64 667,62 671,61 674,60 678,59 682,58 685,58 689,57 693,56 696,55 700,55 704,54 707,53 711,52 715,52 718,51 722,51 726,51 730,50" fill="none" stroke="#111111" stroke-width="2.4" stroke-linejoin="round" stroke-linecap="round" filter="url(#pline)"/>
<circle cx="730" cy="50" r="4" fill="#111111" filter="url(#pencil)"/>
<text x="724" y="42" text-anchor="end" font-size="10" font-family="Georgia,serif" fill="#111111">2391K</text>
<text x="60" y="289" font-size="9" font-family="Georgia,serif" fill="#888888">기준: 2026-07-17 08:29</text>
</svg>