<svg xmlns="http://www.w3.org/2000/svg" width="760" height="295">
<defs><filter id="pencil" x="-5%" y="-5%" width="110%" height="110%"><feTurbulence type="fractalNoise" baseFrequency="0.9" numOctaves="4" seed="5" result="noise"/><feDisplacementMap in="SourceGraphic" in2="noise" scale="1.6" xChannelSelector="R" yChannelSelector="G"/></filter><filter id="pline" x="-2%" y="-30%" width="104%" height="160%"><feTurbulence type="fractalNoise" baseFrequency="0.015 0.9" numOctaves="3" seed="11" result="noise"/><feDisplacementMap in="SourceGraphic" in2="noise" scale="1.8" xChannelSelector="R" yChannelSelector="G"/></filter><filter id="rough" x="-5%" y="-5%" width="110%" height="110%"><feTurbulence type="turbulence" baseFrequency="0.05" numOctaves="2" seed="2" result="noise"/><feDisplacementMap in="SourceGraphic" in2="noise" scale="2" xChannelSelector="R" yChannelSelector="G"/></filter></defs>
<rect width="760" height="295" fill="#ffffff"/>
<text x="380" y="32" text-anchor="middle" font-size="14" font-weight="bold" font-family="Georgia,serif" fill="#111111" filter="url(#pencil)">Workload (6 months)</text>
<line x1="60" y1="250" x2="730" y2="250" stroke="#cccccc" stroke-width="0.7" stroke-dasharray="4,5" filter="url(#rough)"/>
<text x="54" y="254" text-anchor="end" font-size="10" font-family="Georgia,serif" fill="#333333">0</text>
<line x1="60" y1="201" x2="730" y2="201" stroke="#cccccc" stroke-width="0.7" stroke-dasharray="4,5" filter="url(#rough)"/>
<text x="54" y="205" text-anchor="end" font-size="10" font-family="Georgia,serif" fill="#333333">586K</text>
<line x1="60" y1="150" x2="730" y2="150" stroke="#cccccc" stroke-width="0.7" stroke-dasharray="4,5" filter="url(#rough)"/>
<text x="54" y="154" text-anchor="end" font-size="10" font-family="Georgia,serif" fill="#333333">1172K</text>
<line x1="60" y1="101" x2="730" y2="101" stroke="#cccccc" stroke-width="0.7" stroke-dasharray="4,5" filter="url(#rough)"/>
<text x="54" y="105" text-anchor="end" font-size="10" font-family="Georgia,serif" fill="#333333">1759K</text>
<line x1="60" y1="50" x2="730" y2="50" stroke="#cccccc" stroke-width="0.7" stroke-dasharray="4,5" filter="url(#rough)"/>
<text x="54" y="54" text-anchor="end" font-size="10" font-family="Georgia,serif" fill="#333333">2345K</text>
<text x="122" y="270" text-anchor="middle" font-size="11" font-family="Georgia,serif" fill="#333333" filter="url(#pencil)">2월</text>
<text x="225" y="270" text-anchor="middle" font-size="11" font-family="Georgia,serif" fill="#333333" filter="url(#pencil)">3월</text>
<text x="339" y="270" text-anchor="middle" font-size="11" font-family="Georgia,serif" fill="#333333" filter="url(#pencil)">4월</text>
<text x="450" y="270" text-anchor="middle" font-size="11" font-family="Georgia,serif" fill="#333333" filter="url(#pencil)">5월</text>
<text x="564" y="270" text-anchor="middle" font-size="11" font-family="Georgia,serif" fill="#333333" filter="url(#pencil)">6월</text>
<text x="674" y="270" text-anchor="middle" font-size="11" font-family="Georgia,serif" fill="#333333" filter="url(#pencil)">7월</text>
<line x1="59" y1="42" x2="59" y2="256" stroke="#111111" stroke-width="2" filter="url(#pline)"/>
<line x1="52" y1="251" x2="738" y2="251" stroke="#111111" stroke-width="2" filter="url(#pline)"/>
<polygon points="60,250 60,250 63,250 67,250 71,248 74,248 78,248 82,248 85,248 89,247 93,246 96,246 100,245 104,242 107,241 111,241 115,240 118,236 122,235 126,234 129,234 133,234 137,234 140,230 144,229 148,228 152,228 155,228 159,228 163,228 166,228 170,228 174,228 177,228 181,228 185,228 188,228 192,227 196,227 199,226 203,226 207,226 210,226 214,225 218,223 221,222 225,220 229,219 233,219 236,219 240,219 244,218 247,218 251,218 255,218 258,218 262,218 266,218 269,217 273,217 277,217 280,215 284,215 288,214 291,212 295,212 299,212 302,212 306,207 310,207 314,207 317,203 321,199 325,196 328,196 332,195 336,195 339,195 343,194 347,194 350,194 354,194 358,194 361,194 365,194 369,194 372,193 376,193 380,193 383,188 387,188 391,188 395,188 398,187 402,186 406,182 409,182 413,182 417,180 420,180 424,179 428,178 431,177 435,176 439,176 442,176 446,176 450,176 453,176 457,175 461,175 464,174 468,174 472,174 475,174 479,174 483,173 487,173 490,173 494,173 498,173 501,171 505,171 509,170 512,169 516,168 520,166 523,164 527,161 531,159 534,157 538,154 542,152 545,150 549,148 553,146 556,143 560,140 564,139 568,138 571,137 575,135 579,134 582,133 586,131 590,129 593,125 597,122 601,121 604,119 608,117 612,115 615,114 619,113 623,112 626,111 630,109 634,105 637,93 641,85 645,79 649,72 652,69 656,68 660,67 663,65 667,64 671,62 674,60 678,59 682,59 685,58 689,57 693,57 696,56 700,55 704,55 707,54 711,53 715,52 718,51 722,51 726,51 730,50 730,250" fill="#e8e8e8" opacity="0.6"/>
<polyline points="60,250 63,250 67,250 71,248 74,248 78,248 82,248 85,248 89,247 93,246 96,246 100,245 104,242 107,241 111,241 115,240 118,236 122,235 126,234 129,234 133,234 137,234 140,230 144,229 148,228 152,228 155,228 159,228 163,228 166,228 170,228 174,228 177,228 181,228 185,228 188,228 192,227 196,227 199,226 203,226 207,226 210,226 214,225 218,223 221,222 225,220 229,219 233,219 236,219 240,219 244,218 247,218 251,218 255,218 258,218 262,218 266,218 269,217 273,217 277,217 280,215 284,215 288,214 291,212 295,212 299,212 302,212 306,207 310,207 314,207 317,203 321,199 325,196 328,196 332,195 336,195 339,195 343,194 347,194 350,194 354,194 358,194 361,194 365,194 369,194 372,193 376,193 380,193 383,188 387,188 391,188 395,188 398,187 402,186 406,182 409,182 413,182 417,180 420,180 424,179 428,178 431,177 435,176 439,176 442,176 446,176 450,176 453,176 457,175 461,175 464,174 468,174 472,174 475,174 479,174 483,173 487,173 490,173 494,173 498,173 501,171 505,171 509,170 512,169 516,168 520,166 523,164 527,161 531,159 534,157 538,154 542,152 545,150 549,148 553,146 556,143 560,140 564,139 568,138 571,137 575,135 579,134 582,133 586,131 590,129 593,125 597,122 601,121 604,119 608,117 612,115 615,114 619,113 623,112 626,111 630,109 634,105 637,93 641,85 645,79 649,72 652,69 656,68 660,67 663,65 667,64 671,62 674,60 678,59 682,59 685,58 689,57 693,57 696,56 700,55 704,55 707,54 711,53 715,52 718,51 722,51 726,51 730,50" fill="none" stroke="#111111" stroke-width="2.4" stroke-linejoin="round" stroke-linecap="round" filter="url(#pline)"/>
<circle cx="730" cy="50" r="4" fill="#111111" filter="url(#pencil)"/>
<text x="724" y="42" text-anchor="end" font-size="10" font-family="Georgia,serif" fill="#111111">2345K</text>
<text x="60" y="289" font-size="9" font-family="Georgia,serif" fill="#888888">기준: 2026-07-16 19:35</text>
</svg>