<svg xmlns="http://www.w3.org/2000/svg" width="760" height="295">
<defs><filter id="pencil" x="-5%" y="-5%" width="110%" height="110%"><feTurbulence type="fractalNoise" baseFrequency="0.9" numOctaves="4" seed="5" result="noise"/><feDisplacementMap in="SourceGraphic" in2="noise" scale="1.6" xChannelSelector="R" yChannelSelector="G"/></filter><filter id="pline" x="-2%" y="-30%" width="104%" height="160%"><feTurbulence type="fractalNoise" baseFrequency="0.015 0.9" numOctaves="3" seed="11" result="noise"/><feDisplacementMap in="SourceGraphic" in2="noise" scale="1.8" xChannelSelector="R" yChannelSelector="G"/></filter><filter id="rough" x="-5%" y="-5%" width="110%" height="110%"><feTurbulence type="turbulence" baseFrequency="0.05" numOctaves="2" seed="2" result="noise"/><feDisplacementMap in="SourceGraphic" in2="noise" scale="2" xChannelSelector="R" yChannelSelector="G"/></filter></defs>
<rect width="760" height="295" fill="#ffffff"/>
<text x="380" y="32" text-anchor="middle" font-size="14" font-weight="bold" font-family="Georgia,serif" fill="#111111" filter="url(#pencil)">Workload (6 months)</text>
<line x1="60" y1="250" x2="730" y2="250" stroke="#cccccc" stroke-width="0.7" stroke-dasharray="4,5" filter="url(#rough)"/>
<text x="54" y="254" text-anchor="end" font-size="10" font-family="Georgia,serif" fill="#333333">0</text>
<line x1="60" y1="200" x2="730" y2="200" stroke="#cccccc" stroke-width="0.7" stroke-dasharray="4,5" filter="url(#rough)"/>
<text x="54" y="204" text-anchor="end" font-size="10" font-family="Georgia,serif" fill="#333333">176K</text>
<line x1="60" y1="150" x2="730" y2="150" stroke="#cccccc" stroke-width="0.7" stroke-dasharray="4,5" filter="url(#rough)"/>
<text x="54" y="154" text-anchor="end" font-size="10" font-family="Georgia,serif" fill="#333333">352K</text>
<line x1="60" y1="100" x2="730" y2="100" stroke="#cccccc" stroke-width="0.7" stroke-dasharray="4,5" filter="url(#rough)"/>
<text x="54" y="104" text-anchor="end" font-size="10" font-family="Georgia,serif" fill="#333333">529K</text>
<line x1="60" y1="50" x2="730" y2="50" stroke="#cccccc" stroke-width="0.7" stroke-dasharray="4,5" filter="url(#rough)"/>
<text x="54" y="54" text-anchor="end" font-size="10" font-family="Georgia,serif" fill="#333333">705K</text>
<text x="85" y="270" text-anchor="middle" font-size="11" font-family="Georgia,serif" fill="#333333" filter="url(#pencil)">1월</text>
<text x="199" y="270" text-anchor="middle" font-size="11" font-family="Georgia,serif" fill="#333333" filter="url(#pencil)">2월</text>
<text x="302" y="270" text-anchor="middle" font-size="11" font-family="Georgia,serif" fill="#333333" filter="url(#pencil)">3월</text>
<text x="417" y="270" text-anchor="middle" font-size="11" font-family="Georgia,serif" fill="#333333" filter="url(#pencil)">4월</text>
<text x="527" y="270" text-anchor="middle" font-size="11" font-family="Georgia,serif" fill="#333333" filter="url(#pencil)">5월</text>
<text x="641" y="270" text-anchor="middle" font-size="11" font-family="Georgia,serif" fill="#333333" filter="url(#pencil)">6월</text>
<line x1="59" y1="42" x2="59" y2="256" stroke="#111111" stroke-width="2" filter="url(#pline)"/>
<line x1="52" y1="251" x2="738" y2="251" stroke="#111111" stroke-width="2" filter="url(#pline)"/>
<polygon points="60,250 60,250 63,250 67,250 71,250 74,250 78,250 82,250 85,250 89,250 93,250 96,250 100,250 104,250 107,250 111,250 115,250 118,250 122,250 126,250 129,250 133,250 137,250 140,250 144,250 148,247 152,247 155,247 159,246 163,246 166,246 170,244 174,243 177,241 181,234 185,234 188,234 192,232 196,224 199,222 203,221 207,221 210,221 214,221 218,212 221,211 225,211 229,211 233,211 236,211 240,211 244,211 247,211 251,211 255,211 258,211 262,211 266,211 269,209 273,209 277,209 280,209 284,209 288,209 291,207 295,205 299,204 302,200 306,198 310,198 314,198 317,198 321,198 325,198 328,198 332,198 336,198 339,198 343,198 347,197 350,197 354,197 358,194 361,193 365,193 369,188 372,188 376,188 380,188 383,177 387,177 391,177 395,171 398,162 402,156 406,155 409,155 413,154 417,154 420,154 424,154 428,154 431,154 435,154 439,154 442,154 446,154 450,153 453,153 457,153 461,151 464,151 468,151 472,151 475,148 479,147 483,144 487,144 490,144 494,143 498,142 501,142 505,141 509,140 512,140 516,140 520,140 523,140 527,140 531,140 534,139 538,139 542,139 545,138 549,138 553,138 556,138 560,138 564,138 568,138 571,138 575,138 579,137 582,137 586,136 590,135 593,132 597,129 601,126 604,123 608,119 612,115 615,113 619,110 623,108 626,105 630,103 634,100 637,98 641,96 645,94 649,93 652,91 656,89 660,87 663,85 667,83 671,78 674,74 678,73 682,72 685,70 689,69 693,68 696,67 700,66 704,66 707,65 711,62 715,57 718,54 722,52 726,51 730,50 730,250" fill="#e8e8e8" opacity="0.6"/>
<polyline points="60,250 63,250 67,250 71,250 74,250 78,250 82,250 85,250 89,250 93,250 96,250 100,250 104,250 107,250 111,250 115,250 118,250 122,250 126,250 129,250 133,250 137,250 140,250 144,250 148,247 152,247 155,247 159,246 163,246 166,246 170,244 174,243 177,241 181,234 185,234 188,234 192,232 196,224 199,222 203,221 207,221 210,221 214,221 218,212 221,211 225,211 229,211 233,211 236,211 240,211 244,211 247,211 251,211 255,211 258,211 262,211 266,211 269,209 273,209 277,209 280,209 284,209 288,209 291,207 295,205 299,204 302,200 306,198 310,198 314,198 317,198 321,198 325,198 328,198 332,198 336,198 339,198 343,198 347,197 350,197 354,197 358,194 361,193 365,193 369,188 372,188 376,188 380,188 383,177 387,177 391,177 395,171 398,162 402,156 406,155 409,155 413,154 417,154 420,154 424,154 428,154 431,154 435,154 439,154 442,154 446,154 450,153 453,153 457,153 461,151 464,151 468,151 472,151 475,148 479,147 483,144 487,144 490,144 494,143 498,142 501,142 505,141 509,140 512,140 516,140 520,140 523,140 527,140 531,140 534,139 538,139 542,139 545,138 549,138 553,138 556,138 560,138 564,138 568,138 571,138 575,138 579,137 582,137 586,136 590,135 593,132 597,129 601,126 604,123 608,119 612,115 615,113 619,110 623,108 626,105 630,103 634,100 637,98 641,96 645,94 649,93 652,91 656,89 660,87 663,85 667,83 671,78 674,74 678,73 682,72 685,70 689,69 693,68 696,67 700,66 704,66 707,65 711,62 715,57 718,54 722,52 726,51 730,50" fill="none" stroke="#111111" stroke-width="2.4" stroke-linejoin="round" stroke-linecap="round" filter="url(#pline)"/>
<circle cx="730" cy="50" r="4" fill="#111111" filter="url(#pencil)"/>
<text x="724" y="42" text-anchor="end" font-size="10" font-family="Georgia,serif" fill="#111111">705K</text>
<text x="60" y="289" font-size="9" font-family="Georgia,serif" fill="#888888">기준: 2026-06-25 20:23</text>
</svg>