<svg xmlns="http://www.w3.org/2000/svg" width="760" height="295">
<defs><filter id="pencil" x="-5%" y="-5%" width="110%" height="110%"><feTurbulence type="fractalNoise" baseFrequency="0.9" numOctaves="4" seed="5" result="noise"/><feDisplacementMap in="SourceGraphic" in2="noise" scale="1.6" xChannelSelector="R" yChannelSelector="G"/></filter><filter id="pline" x="-2%" y="-30%" width="104%" height="160%"><feTurbulence type="fractalNoise" baseFrequency="0.015 0.9" numOctaves="3" seed="11" result="noise"/><feDisplacementMap in="SourceGraphic" in2="noise" scale="1.8" xChannelSelector="R" yChannelSelector="G"/></filter><filter id="rough" x="-5%" y="-5%" width="110%" height="110%"><feTurbulence type="turbulence" baseFrequency="0.05" numOctaves="2" seed="2" result="noise"/><feDisplacementMap in="SourceGraphic" in2="noise" scale="2" xChannelSelector="R" yChannelSelector="G"/></filter></defs>
<rect width="760" height="295" fill="#ffffff"/>
<text x="380" y="32" text-anchor="middle" font-size="14" font-weight="bold" font-family="Georgia,serif" fill="#111111" filter="url(#pencil)">Workload (6 months)</text>
<line x1="60" y1="250" x2="730" y2="250" stroke="#cccccc" stroke-width="0.7" stroke-dasharray="4,5" filter="url(#rough)"/>
<text x="54" y="254" text-anchor="end" font-size="10" font-family="Georgia,serif" fill="#333333">0</text>
<line x1="60" y1="201" x2="730" y2="201" stroke="#cccccc" stroke-width="0.7" stroke-dasharray="4,5" filter="url(#rough)"/>
<text x="54" y="205" text-anchor="end" font-size="10" font-family="Georgia,serif" fill="#333333">455K</text>
<line x1="60" y1="151" x2="730" y2="151" stroke="#cccccc" stroke-width="0.7" stroke-dasharray="4,5" filter="url(#rough)"/>
<text x="54" y="155" text-anchor="end" font-size="10" font-family="Georgia,serif" fill="#333333">911K</text>
<line x1="60" y1="101" x2="730" y2="101" stroke="#cccccc" stroke-width="0.7" stroke-dasharray="4,5" filter="url(#rough)"/>
<text x="54" y="105" text-anchor="end" font-size="10" font-family="Georgia,serif" fill="#333333">1367K</text>
<line x1="60" y1="50" x2="730" y2="50" stroke="#cccccc" stroke-width="0.7" stroke-dasharray="4,5" filter="url(#rough)"/>
<text x="54" y="54" text-anchor="end" font-size="10" font-family="Georgia,serif" fill="#333333">1822K</text>
<text x="137" y="270" text-anchor="middle" font-size="11" font-family="Georgia,serif" fill="#333333" filter="url(#pencil)">2월</text>
<text x="240" y="270" text-anchor="middle" font-size="11" font-family="Georgia,serif" fill="#333333" filter="url(#pencil)">3월</text>
<text x="354" y="270" text-anchor="middle" font-size="11" font-family="Georgia,serif" fill="#333333" filter="url(#pencil)">4월</text>
<text x="464" y="270" text-anchor="middle" font-size="11" font-family="Georgia,serif" fill="#333333" filter="url(#pencil)">5월</text>
<text x="579" y="270" text-anchor="middle" font-size="11" font-family="Georgia,serif" fill="#333333" filter="url(#pencil)">6월</text>
<text x="689" y="270" text-anchor="middle" font-size="11" font-family="Georgia,serif" fill="#333333" filter="url(#pencil)">7월</text>
<line x1="59" y1="42" x2="59" y2="256" stroke="#111111" stroke-width="2" filter="url(#pline)"/>
<line x1="52" y1="251" x2="738" y2="251" stroke="#111111" stroke-width="2" filter="url(#pline)"/>
<polygon points="60,250 60,250 63,250 67,250 71,250 74,250 78,250 82,250 85,248 89,248 93,248 96,248 100,248 104,247 107,246 111,245 115,244 118,240 122,240 126,240 129,239 133,234 137,233 140,232 144,232 148,232 152,232 155,227 159,227 163,226 166,226 170,226 174,226 177,226 181,226 185,226 188,226 192,226 196,226 199,226 203,226 207,225 210,225 214,224 218,224 221,224 225,224 229,223 233,222 236,221 240,218 244,217 247,217 251,217 255,217 258,217 262,217 266,217 269,216 273,216 277,216 280,216 284,216 288,216 291,216 295,214 299,213 302,213 306,211 310,210 314,210 317,210 321,204 325,204 328,204 332,200 336,195 339,191 343,191 347,190 350,190 354,190 358,189 361,189 365,189 369,189 372,189 376,189 380,189 383,189 387,189 391,189 395,189 398,184 402,184 406,184 409,184 413,182 417,181 420,177 424,177 428,177 431,175 435,175 439,174 442,173 446,171 450,170 453,170 457,170 461,170 464,170 468,170 472,169 475,169 479,169 483,168 487,168 490,168 494,168 498,168 501,168 505,168 509,168 512,168 516,166 520,166 523,165 527,165 531,163 534,161 538,159 542,155 545,153 549,151 553,148 556,146 560,144 564,143 568,140 571,138 575,135 579,134 582,133 586,132 590,130 593,129 597,127 601,125 604,124 608,119 612,116 615,114 619,113 623,111 626,109 630,108 634,107 637,106 641,105 645,103 649,99 652,86 656,78 660,72 663,65 667,63 671,61 674,60 678,59 682,58 685,56 689,55 693,54 696,54 700,53 704,53 707,52 711,52 715,51 718,51 722,51 726,51 730,50 730,250" fill="#e8e8e8" opacity="0.6"/>
<polyline points="60,250 63,250 67,250 71,250 74,250 78,250 82,250 85,248 89,248 93,248 96,248 100,248 104,247 107,246 111,245 115,244 118,240 122,240 126,240 129,239 133,234 137,233 140,232 144,232 148,232 152,232 155,227 159,227 163,226 166,226 170,226 174,226 177,226 181,226 185,226 188,226 192,226 196,226 199,226 203,226 207,225 210,225 214,224 218,224 221,224 225,224 229,223 233,222 236,221 240,218 244,217 247,217 251,217 255,217 258,217 262,217 266,217 269,216 273,216 277,216 280,216 284,216 288,216 291,216 295,214 299,213 302,213 306,211 310,210 314,210 317,210 321,204 325,204 328,204 332,200 336,195 339,191 343,191 347,190 350,190 354,190 358,189 361,189 365,189 369,189 372,189 376,189 380,189 383,189 387,189 391,189 395,189 398,184 402,184 406,184 409,184 413,182 417,181 420,177 424,177 428,177 431,175 435,175 439,174 442,173 446,171 450,170 453,170 457,170 461,170 464,170 468,170 472,169 475,169 479,169 483,168 487,168 490,168 494,168 498,168 501,168 505,168 509,168 512,168 516,166 520,166 523,165 527,165 531,163 534,161 538,159 542,155 545,153 549,151 553,148 556,146 560,144 564,143 568,140 571,138 575,135 579,134 582,133 586,132 590,130 593,129 597,127 601,125 604,124 608,119 612,116 615,114 619,113 623,111 626,109 630,108 634,107 637,106 641,105 645,103 649,99 652,86 656,78 660,72 663,65 667,63 671,61 674,60 678,59 682,58 685,56 689,55 693,54 696,54 700,53 704,53 707,52 711,52 715,51 718,51 722,51 726,51 730,50" fill="none" stroke="#111111" stroke-width="2.4" stroke-linejoin="round" stroke-linecap="round" filter="url(#pline)"/>
<circle cx="730" cy="50" r="4" fill="#111111" filter="url(#pencil)"/>
<text x="724" y="42" text-anchor="end" font-size="10" font-family="Georgia,serif" fill="#111111">1822K</text>
<text x="60" y="289" font-size="9" font-family="Georgia,serif" fill="#888888">기준: 2026-07-12 19:33</text>
</svg>