<svg xmlns="http://www.w3.org/2000/svg" width="760" height="295">
<defs><filter id="pencil" x="-5%" y="-5%" width="110%" height="110%"><feTurbulence type="fractalNoise" baseFrequency="0.9" numOctaves="4" seed="5" result="noise"/><feDisplacementMap in="SourceGraphic" in2="noise" scale="1.6" xChannelSelector="R" yChannelSelector="G"/></filter><filter id="pline" x="-2%" y="-30%" width="104%" height="160%"><feTurbulence type="fractalNoise" baseFrequency="0.015 0.9" numOctaves="3" seed="11" result="noise"/><feDisplacementMap in="SourceGraphic" in2="noise" scale="1.8" xChannelSelector="R" yChannelSelector="G"/></filter><filter id="rough" x="-5%" y="-5%" width="110%" height="110%"><feTurbulence type="turbulence" baseFrequency="0.05" numOctaves="2" seed="2" result="noise"/><feDisplacementMap in="SourceGraphic" in2="noise" scale="2" xChannelSelector="R" yChannelSelector="G"/></filter></defs>
<rect width="760" height="295" fill="#ffffff"/>
<text x="380" y="32" text-anchor="middle" font-size="14" font-weight="bold" font-family="Georgia,serif" fill="#111111" filter="url(#pencil)">Workload (6 months)</text>
<line x1="60" y1="250" x2="730" y2="250" stroke="#cccccc" stroke-width="0.7" stroke-dasharray="4,5" filter="url(#rough)"/>
<text x="54" y="254" text-anchor="end" font-size="10" font-family="Georgia,serif" fill="#333333">0</text>
<line x1="60" y1="201" x2="730" y2="201" stroke="#cccccc" stroke-width="0.7" stroke-dasharray="4,5" filter="url(#rough)"/>
<text x="54" y="205" text-anchor="end" font-size="10" font-family="Georgia,serif" fill="#333333">75K</text>
<line x1="60" y1="150" x2="730" y2="150" stroke="#cccccc" stroke-width="0.7" stroke-dasharray="4,5" filter="url(#rough)"/>
<text x="54" y="154" text-anchor="end" font-size="10" font-family="Georgia,serif" fill="#333333">150K</text>
<line x1="60" y1="101" x2="730" y2="101" stroke="#cccccc" stroke-width="0.7" stroke-dasharray="4,5" filter="url(#rough)"/>
<text x="54" y="105" text-anchor="end" font-size="10" font-family="Georgia,serif" fill="#333333">226K</text>
<line x1="60" y1="50" x2="730" y2="50" stroke="#cccccc" stroke-width="0.7" stroke-dasharray="4,5" filter="url(#rough)"/>
<text x="54" y="54" text-anchor="end" font-size="10" font-family="Georgia,serif" fill="#333333">301K</text>
<text x="166" y="270" text-anchor="middle" font-size="11" font-family="Georgia,serif" fill="#333333" filter="url(#pencil)">1월</text>
<text x="280" y="270" text-anchor="middle" font-size="11" font-family="Georgia,serif" fill="#333333" filter="url(#pencil)">2월</text>
<text x="383" y="270" text-anchor="middle" font-size="11" font-family="Georgia,serif" fill="#333333" filter="url(#pencil)">3월</text>
<text x="498" y="270" text-anchor="middle" font-size="11" font-family="Georgia,serif" fill="#333333" filter="url(#pencil)">4월</text>
<text x="608" y="270" text-anchor="middle" font-size="11" font-family="Georgia,serif" fill="#333333" filter="url(#pencil)">5월</text>
<text x="722" y="270" text-anchor="middle" font-size="11" font-family="Georgia,serif" fill="#333333" filter="url(#pencil)">6월</text>
<line x1="59" y1="42" x2="59" y2="256" stroke="#111111" stroke-width="2" filter="url(#pline)"/>
<line x1="52" y1="251" x2="738" y2="251" stroke="#111111" stroke-width="2" filter="url(#pline)"/>
<polygon points="60,250 60,250 63,250 67,250 71,246 74,246 78,229 82,229 85,229 89,229 93,199 96,199 100,199 104,199 107,199 111,199 115,199 118,180 122,180 126,180 129,180 133,180 137,176 140,176 144,176 148,176 152,176 155,176 159,176 163,176 166,176 170,176 174,176 177,176 181,176 185,176 188,176 192,176 196,176 199,176 203,176 207,176 210,176 214,176 218,176 221,176 225,176 229,172 233,172 236,172 240,172 244,172 247,171 251,169 255,168 258,167 262,159 266,159 269,159 273,158 277,150 280,148 284,147 288,147 291,147 295,147 299,138 302,138 306,137 310,137 314,137 317,137 321,137 325,137 328,137 332,137 336,137 339,137 343,137 347,137 350,135 354,135 358,135 361,135 365,135 369,135 372,134 376,132 380,131 383,126 387,125 391,125 395,124 398,124 402,124 406,124 409,124 413,124 417,124 420,124 424,124 428,123 431,123 435,123 439,120 442,119 446,119 450,115 453,115 457,115 461,115 464,104 468,104 472,104 475,98 479,90 483,84 487,83 490,82 494,82 498,82 501,82 505,82 509,82 512,82 516,82 520,82 523,82 527,82 531,81 534,81 538,81 542,81 545,81 549,81 553,81 556,79 560,78 564,78 568,78 571,78 575,78 579,78 582,78 586,78 590,78 593,78 597,78 601,78 604,78 608,78 612,78 615,77 619,77 623,77 626,76 630,76 634,76 637,76 641,76 645,76 649,76 652,76 656,76 660,76 663,76 667,75 671,75 674,72 678,69 682,67 685,64 689,61 693,59 696,57 700,56 704,54 707,53 711,52 715,51 718,51 722,51 726,51 730,50 730,250" fill="#e8e8e8" opacity="0.6"/>
<polyline points="60,250 63,250 67,250 71,246 74,246 78,229 82,229 85,229 89,229 93,199 96,199 100,199 104,199 107,199 111,199 115,199 118,180 122,180 126,180 129,180 133,180 137,176 140,176 144,176 148,176 152,176 155,176 159,176 163,176 166,176 170,176 174,176 177,176 181,176 185,176 188,176 192,176 196,176 199,176 203,176 207,176 210,176 214,176 218,176 221,176 225,176 229,172 233,172 236,172 240,172 244,172 247,171 251,169 255,168 258,167 262,159 266,159 269,159 273,158 277,150 280,148 284,147 288,147 291,147 295,147 299,138 302,138 306,137 310,137 314,137 317,137 321,137 325,137 328,137 332,137 336,137 339,137 343,137 347,137 350,135 354,135 358,135 361,135 365,135 369,135 372,134 376,132 380,131 383,126 387,125 391,125 395,124 398,124 402,124 406,124 409,124 413,124 417,124 420,124 424,124 428,123 431,123 435,123 439,120 442,119 446,119 450,115 453,115 457,115 461,115 464,104 468,104 472,104 475,98 479,90 483,84 487,83 490,82 494,82 498,82 501,82 505,82 509,82 512,82 516,82 520,82 523,82 527,82 531,81 534,81 538,81 542,81 545,81 549,81 553,81 556,79 560,78 564,78 568,78 571,78 575,78 579,78 582,78 586,78 590,78 593,78 597,78 601,78 604,78 608,78 612,78 615,77 619,77 623,77 626,76 630,76 634,76 637,76 641,76 645,76 649,76 652,76 656,76 660,76 663,76 667,75 671,75 674,72 678,69 682,67 685,64 689,61 693,59 696,57 700,56 704,54 707,53 711,52 715,51 718,51 722,51 726,51 730,50" fill="none" stroke="#111111" stroke-width="2.4" stroke-linejoin="round" stroke-linecap="round" filter="url(#pline)"/>
<circle cx="730" cy="50" r="4" fill="#111111" filter="url(#pencil)"/>
<text x="724" y="42" text-anchor="end" font-size="10" font-family="Georgia,serif" fill="#111111">301K</text>
<text x="60" y="289" font-size="9" font-family="Georgia,serif" fill="#888888">기준: 2026-06-03 11:24</text>
</svg>