<svg xmlns="http://www.w3.org/2000/svg" width="760" height="295">
<defs><filter id="pencil" x="-5%" y="-5%" width="110%" height="110%"><feTurbulence type="fractalNoise" baseFrequency="0.9" numOctaves="4" seed="5" result="noise"/><feDisplacementMap in="SourceGraphic" in2="noise" scale="1.6" xChannelSelector="R" yChannelSelector="G"/></filter><filter id="pline" x="-2%" y="-30%" width="104%" height="160%"><feTurbulence type="fractalNoise" baseFrequency="0.015 0.9" numOctaves="3" seed="11" result="noise"/><feDisplacementMap in="SourceGraphic" in2="noise" scale="1.8" xChannelSelector="R" yChannelSelector="G"/></filter><filter id="rough" x="-5%" y="-5%" width="110%" height="110%"><feTurbulence type="turbulence" baseFrequency="0.05" numOctaves="2" seed="2" result="noise"/><feDisplacementMap in="SourceGraphic" in2="noise" scale="2" xChannelSelector="R" yChannelSelector="G"/></filter></defs>
<rect width="760" height="295" fill="#ffffff"/>
<text x="380" y="32" text-anchor="middle" font-size="14" font-weight="bold" font-family="Georgia,serif" fill="#111111" filter="url(#pencil)">Workload (6 months)</text>
<line x1="60" y1="250" x2="730" y2="250" stroke="#cccccc" stroke-width="0.7" stroke-dasharray="4,5" filter="url(#rough)"/>
<text x="54" y="254" text-anchor="end" font-size="10" font-family="Georgia,serif" fill="#333333">0</text>
<line x1="60" y1="201" x2="730" y2="201" stroke="#cccccc" stroke-width="0.7" stroke-dasharray="4,5" filter="url(#rough)"/>
<text x="54" y="205" text-anchor="end" font-size="10" font-family="Georgia,serif" fill="#333333">376K</text>
<line x1="60" y1="151" x2="730" y2="151" stroke="#cccccc" stroke-width="0.7" stroke-dasharray="4,5" filter="url(#rough)"/>
<text x="54" y="155" text-anchor="end" font-size="10" font-family="Georgia,serif" fill="#333333">752K</text>
<line x1="60" y1="101" x2="730" y2="101" stroke="#cccccc" stroke-width="0.7" stroke-dasharray="4,5" filter="url(#rough)"/>
<text x="54" y="105" text-anchor="end" font-size="10" font-family="Georgia,serif" fill="#333333">1128K</text>
<line x1="60" y1="50" x2="730" y2="50" stroke="#cccccc" stroke-width="0.7" stroke-dasharray="4,5" filter="url(#rough)"/>
<text x="54" y="54" text-anchor="end" font-size="10" font-family="Georgia,serif" fill="#333333">1505K</text>
<text x="144" y="270" text-anchor="middle" font-size="11" font-family="Georgia,serif" fill="#333333" filter="url(#pencil)">2월</text>
<text x="247" y="270" text-anchor="middle" font-size="11" font-family="Georgia,serif" fill="#333333" filter="url(#pencil)">3월</text>
<text x="361" y="270" text-anchor="middle" font-size="11" font-family="Georgia,serif" fill="#333333" filter="url(#pencil)">4월</text>
<text x="472" y="270" text-anchor="middle" font-size="11" font-family="Georgia,serif" fill="#333333" filter="url(#pencil)">5월</text>
<text x="586" y="270" text-anchor="middle" font-size="11" font-family="Georgia,serif" fill="#333333" filter="url(#pencil)">6월</text>
<text x="696" y="270" text-anchor="middle" font-size="11" font-family="Georgia,serif" fill="#333333" filter="url(#pencil)">7월</text>
<line x1="59" y1="42" x2="59" y2="256" stroke="#111111" stroke-width="2" filter="url(#pline)"/>
<line x1="52" y1="251" x2="738" y2="251" stroke="#111111" stroke-width="2" filter="url(#pline)"/>
<polygon points="60,250 60,250 63,250 67,250 71,250 74,250 78,250 82,250 85,250 89,250 93,248 96,248 100,248 104,248 107,248 111,247 115,246 118,245 122,244 126,239 129,239 133,239 137,238 140,233 144,232 148,231 152,231 155,231 159,231 163,225 166,224 170,224 174,224 177,224 181,224 185,224 188,224 192,224 196,224 199,224 203,224 207,224 210,224 214,223 218,223 221,223 225,223 229,223 233,223 236,222 240,221 244,220 247,217 251,216 255,216 258,215 262,215 266,215 269,215 273,215 277,215 280,215 284,215 288,215 291,215 295,215 299,215 302,213 306,212 310,212 314,209 317,209 321,209 325,209 328,202 332,202 336,202 339,197 343,192 347,187 350,187 354,187 358,186 361,186 365,186 369,186 372,186 376,186 380,186 383,186 387,186 391,186 395,185 398,185 402,185 406,180 409,180 413,180 417,180 420,179 424,178 428,173 431,173 435,173 439,170 442,170 446,169 450,168 453,166 457,165 461,165 464,165 468,165 472,165 475,165 479,165 483,165 487,165 490,164 494,164 498,164 501,164 505,164 509,164 512,164 516,164 520,164 523,162 527,162 531,161 534,161 538,159 542,157 545,155 549,151 553,148 556,146 560,144 564,142 568,140 571,138 575,136 579,134 582,132 586,131 590,129 593,128 597,127 601,125 604,123 608,121 612,120 615,115 619,111 623,110 626,109 630,106 634,105 637,104 641,103 645,102 649,101 652,99 656,94 660,82 663,74 667,67 671,61 674,58 678,57 682,56 685,55 689,54 693,53 696,53 700,52 704,52 707,51 711,51 715,51 718,51 722,51 726,50 730,50 730,250" fill="#e8e8e8" opacity="0.6"/>
<polyline points="60,250 63,250 67,250 71,250 74,250 78,250 82,250 85,250 89,250 93,248 96,248 100,248 104,248 107,248 111,247 115,246 118,245 122,244 126,239 129,239 133,239 137,238 140,233 144,232 148,231 152,231 155,231 159,231 163,225 166,224 170,224 174,224 177,224 181,224 185,224 188,224 192,224 196,224 199,224 203,224 207,224 210,224 214,223 218,223 221,223 225,223 229,223 233,223 236,222 240,221 244,220 247,217 251,216 255,216 258,215 262,215 266,215 269,215 273,215 277,215 280,215 284,215 288,215 291,215 295,215 299,215 302,213 306,212 310,212 314,209 317,209 321,209 325,209 328,202 332,202 336,202 339,197 343,192 347,187 350,187 354,187 358,186 361,186 365,186 369,186 372,186 376,186 380,186 383,186 387,186 391,186 395,185 398,185 402,185 406,180 409,180 413,180 417,180 420,179 424,178 428,173 431,173 435,173 439,170 442,170 446,169 450,168 453,166 457,165 461,165 464,165 468,165 472,165 475,165 479,165 483,165 487,165 490,164 494,164 498,164 501,164 505,164 509,164 512,164 516,164 520,164 523,162 527,162 531,161 534,161 538,159 542,157 545,155 549,151 553,148 556,146 560,144 564,142 568,140 571,138 575,136 579,134 582,132 586,131 590,129 593,128 597,127 601,125 604,123 608,121 612,120 615,115 619,111 623,110 626,109 630,106 634,105 637,104 641,103 645,102 649,101 652,99 656,94 660,82 663,74 667,67 671,61 674,58 678,57 682,56 685,55 689,54 693,53 696,53 700,52 704,52 707,51 711,51 715,51 718,51 722,51 726,50 730,50" fill="none" stroke="#111111" stroke-width="2.4" stroke-linejoin="round" stroke-linecap="round" filter="url(#pline)"/>
<circle cx="730" cy="50" r="4" fill="#111111" filter="url(#pencil)"/>
<text x="724" y="42" text-anchor="end" font-size="10" font-family="Georgia,serif" fill="#111111">1505K</text>
<text x="60" y="289" font-size="9" font-family="Georgia,serif" fill="#888888">기준: 2026-07-10 04:17</text>
</svg>