<svg xmlns="http://www.w3.org/2000/svg" width="760" height="295">
<defs><filter id="pencil" x="-5%" y="-5%" width="110%" height="110%"><feTurbulence type="fractalNoise" baseFrequency="0.9" numOctaves="4" seed="5" result="noise"/><feDisplacementMap in="SourceGraphic" in2="noise" scale="1.6" xChannelSelector="R" yChannelSelector="G"/></filter><filter id="pline" x="-2%" y="-30%" width="104%" height="160%"><feTurbulence type="fractalNoise" baseFrequency="0.015 0.9" numOctaves="3" seed="11" result="noise"/><feDisplacementMap in="SourceGraphic" in2="noise" scale="1.8" xChannelSelector="R" yChannelSelector="G"/></filter><filter id="rough" x="-5%" y="-5%" width="110%" height="110%"><feTurbulence type="turbulence" baseFrequency="0.05" numOctaves="2" seed="2" result="noise"/><feDisplacementMap in="SourceGraphic" in2="noise" scale="2" xChannelSelector="R" yChannelSelector="G"/></filter></defs>
<rect width="760" height="295" fill="#ffffff"/>
<text x="380" y="32" text-anchor="middle" font-size="14" font-weight="bold" font-family="Georgia,serif" fill="#111111" filter="url(#pencil)">Workload (6 months)</text>
<line x1="60" y1="250" x2="730" y2="250" stroke="#cccccc" stroke-width="0.7" stroke-dasharray="4,5" filter="url(#rough)"/>
<text x="54" y="254" text-anchor="end" font-size="10" font-family="Georgia,serif" fill="#333333">0</text>
<line x1="60" y1="201" x2="730" y2="201" stroke="#cccccc" stroke-width="0.7" stroke-dasharray="4,5" filter="url(#rough)"/>
<text x="54" y="205" text-anchor="end" font-size="10" font-family="Georgia,serif" fill="#333333">409K</text>
<line x1="60" y1="150" x2="730" y2="150" stroke="#cccccc" stroke-width="0.7" stroke-dasharray="4,5" filter="url(#rough)"/>
<text x="54" y="154" text-anchor="end" font-size="10" font-family="Georgia,serif" fill="#333333">819K</text>
<line x1="60" y1="101" x2="730" y2="101" stroke="#cccccc" stroke-width="0.7" stroke-dasharray="4,5" filter="url(#rough)"/>
<text x="54" y="105" text-anchor="end" font-size="10" font-family="Georgia,serif" fill="#333333">1229K</text>
<line x1="60" y1="50" x2="730" y2="50" stroke="#cccccc" stroke-width="0.7" stroke-dasharray="4,5" filter="url(#rough)"/>
<text x="54" y="54" text-anchor="end" font-size="10" font-family="Georgia,serif" fill="#333333">1639K</text>
<text x="140" y="270" text-anchor="middle" font-size="11" font-family="Georgia,serif" fill="#333333" filter="url(#pencil)">2월</text>
<text x="244" y="270" text-anchor="middle" font-size="11" font-family="Georgia,serif" fill="#333333" filter="url(#pencil)">3월</text>
<text x="358" y="270" text-anchor="middle" font-size="11" font-family="Georgia,serif" fill="#333333" filter="url(#pencil)">4월</text>
<text x="468" y="270" text-anchor="middle" font-size="11" font-family="Georgia,serif" fill="#333333" filter="url(#pencil)">5월</text>
<text x="582" y="270" text-anchor="middle" font-size="11" font-family="Georgia,serif" fill="#333333" filter="url(#pencil)">6월</text>
<text x="693" y="270" text-anchor="middle" font-size="11" font-family="Georgia,serif" fill="#333333" filter="url(#pencil)">7월</text>
<line x1="59" y1="42" x2="59" y2="256" stroke="#111111" stroke-width="2" filter="url(#pline)"/>
<line x1="52" y1="251" x2="738" y2="251" stroke="#111111" stroke-width="2" filter="url(#pline)"/>
<polygon points="60,250 60,250 63,250 67,250 71,250 74,250 78,250 82,250 85,250 89,248 93,248 96,248 100,248 104,248 107,247 111,246 115,245 118,244 122,240 126,240 129,240 133,238 137,234 140,232 144,232 148,232 152,232 155,231 159,226 163,225 166,225 170,225 174,225 177,225 181,225 185,225 188,225 192,225 196,225 199,225 203,225 207,225 210,224 214,224 218,224 221,224 225,224 229,224 233,222 236,221 240,220 244,217 247,216 251,216 255,216 258,216 262,216 266,216 269,216 273,216 277,216 280,216 284,216 288,215 291,215 295,215 299,213 302,212 306,212 310,210 314,209 317,209 321,209 325,203 328,203 332,203 336,199 339,193 343,189 347,189 350,188 354,188 358,188 361,187 365,187 369,187 372,187 376,187 380,187 383,187 387,187 391,187 395,187 398,187 402,182 406,182 409,182 413,182 417,180 420,180 424,175 428,175 431,175 435,172 439,172 442,171 446,170 450,168 453,167 457,167 461,167 464,167 468,167 472,167 475,167 479,167 483,167 487,166 490,166 494,166 498,166 501,166 505,166 509,166 512,166 516,166 520,164 523,164 527,163 531,163 534,161 538,158 542,157 545,153 549,150 553,148 556,146 560,144 564,142 568,140 571,138 575,136 579,134 582,132 586,131 590,130 593,128 597,127 601,125 604,123 608,122 612,117 615,113 619,112 623,111 626,108 630,107 634,106 637,105 641,104 645,103 649,101 652,96 656,84 660,76 663,69 667,63 671,60 674,59 678,58 682,57 685,56 689,55 693,54 696,53 700,53 704,52 707,52 711,51 715,51 718,51 722,51 726,51 730,50 730,250" fill="#e8e8e8" opacity="0.6"/>
<polyline points="60,250 63,250 67,250 71,250 74,250 78,250 82,250 85,250 89,248 93,248 96,248 100,248 104,248 107,247 111,246 115,245 118,244 122,240 126,240 129,240 133,238 137,234 140,232 144,232 148,232 152,232 155,231 159,226 163,225 166,225 170,225 174,225 177,225 181,225 185,225 188,225 192,225 196,225 199,225 203,225 207,225 210,224 214,224 218,224 221,224 225,224 229,224 233,222 236,221 240,220 244,217 247,216 251,216 255,216 258,216 262,216 266,216 269,216 273,216 277,216 280,216 284,216 288,215 291,215 295,215 299,213 302,212 306,212 310,210 314,209 317,209 321,209 325,203 328,203 332,203 336,199 339,193 343,189 347,189 350,188 354,188 358,188 361,187 365,187 369,187 372,187 376,187 380,187 383,187 387,187 391,187 395,187 398,187 402,182 406,182 409,182 413,182 417,180 420,180 424,175 428,175 431,175 435,172 439,172 442,171 446,170 450,168 453,167 457,167 461,167 464,167 468,167 472,167 475,167 479,167 483,167 487,166 490,166 494,166 498,166 501,166 505,166 509,166 512,166 516,166 520,164 523,164 527,163 531,163 534,161 538,158 542,157 545,153 549,150 553,148 556,146 560,144 564,142 568,140 571,138 575,136 579,134 582,132 586,131 590,130 593,128 597,127 601,125 604,123 608,122 612,117 615,113 619,112 623,111 626,108 630,107 634,106 637,105 641,104 645,103 649,101 652,96 656,84 660,76 663,69 667,63 671,60 674,59 678,58 682,57 685,56 689,55 693,54 696,53 700,53 704,52 707,52 711,51 715,51 718,51 722,51 726,51 730,50" fill="none" stroke="#111111" stroke-width="2.4" stroke-linejoin="round" stroke-linecap="round" filter="url(#pline)"/>
<circle cx="730" cy="50" r="4" fill="#111111" filter="url(#pencil)"/>
<text x="724" y="42" text-anchor="end" font-size="10" font-family="Georgia,serif" fill="#111111">1639K</text>
<text x="60" y="289" font-size="9" font-family="Georgia,serif" fill="#888888">기준: 2026-07-11 10:35</text>
</svg>