<svg xmlns="http://www.w3.org/2000/svg" width="760" height="295">
<defs><filter id="pencil" x="-5%" y="-5%" width="110%" height="110%"><feTurbulence type="fractalNoise" baseFrequency="0.9" numOctaves="4" seed="5" result="noise"/><feDisplacementMap in="SourceGraphic" in2="noise" scale="1.6" xChannelSelector="R" yChannelSelector="G"/></filter><filter id="pline" x="-2%" y="-30%" width="104%" height="160%"><feTurbulence type="fractalNoise" baseFrequency="0.015 0.9" numOctaves="3" seed="11" result="noise"/><feDisplacementMap in="SourceGraphic" in2="noise" scale="1.8" xChannelSelector="R" yChannelSelector="G"/></filter><filter id="rough" x="-5%" y="-5%" width="110%" height="110%"><feTurbulence type="turbulence" baseFrequency="0.05" numOctaves="2" seed="2" result="noise"/><feDisplacementMap in="SourceGraphic" in2="noise" scale="2" xChannelSelector="R" yChannelSelector="G"/></filter></defs>
<rect width="760" height="295" fill="#ffffff"/>
<text x="380" y="32" text-anchor="middle" font-size="14" font-weight="bold" font-family="Georgia,serif" fill="#111111" filter="url(#pencil)">Workload (6 months)</text>
<line x1="60" y1="250" x2="730" y2="250" stroke="#cccccc" stroke-width="0.7" stroke-dasharray="4,5" filter="url(#rough)"/>
<text x="54" y="254" text-anchor="end" font-size="10" font-family="Georgia,serif" fill="#333333">0</text>
<line x1="60" y1="201" x2="730" y2="201" stroke="#cccccc" stroke-width="0.7" stroke-dasharray="4,5" filter="url(#rough)"/>
<text x="54" y="205" text-anchor="end" font-size="10" font-family="Georgia,serif" fill="#333333">338K</text>
<line x1="60" y1="151" x2="730" y2="151" stroke="#cccccc" stroke-width="0.7" stroke-dasharray="4,5" filter="url(#rough)"/>
<text x="54" y="155" text-anchor="end" font-size="10" font-family="Georgia,serif" fill="#333333">676K</text>
<line x1="60" y1="101" x2="730" y2="101" stroke="#cccccc" stroke-width="0.7" stroke-dasharray="4,5" filter="url(#rough)"/>
<text x="54" y="105" text-anchor="end" font-size="10" font-family="Georgia,serif" fill="#333333">1014K</text>
<line x1="60" y1="50" x2="730" y2="50" stroke="#cccccc" stroke-width="0.7" stroke-dasharray="4,5" filter="url(#rough)"/>
<text x="54" y="54" text-anchor="end" font-size="10" font-family="Georgia,serif" fill="#333333">1352K</text>
<text x="155" y="270" text-anchor="middle" font-size="11" font-family="Georgia,serif" fill="#333333" filter="url(#pencil)">2월</text>
<text x="258" y="270" text-anchor="middle" font-size="11" font-family="Georgia,serif" fill="#333333" filter="url(#pencil)">3월</text>
<text x="372" y="270" text-anchor="middle" font-size="11" font-family="Georgia,serif" fill="#333333" filter="url(#pencil)">4월</text>
<text x="483" y="270" text-anchor="middle" font-size="11" font-family="Georgia,serif" fill="#333333" filter="url(#pencil)">5월</text>
<text x="597" y="270" text-anchor="middle" font-size="11" font-family="Georgia,serif" fill="#333333" filter="url(#pencil)">6월</text>
<text x="707" y="270" text-anchor="middle" font-size="11" font-family="Georgia,serif" fill="#333333" filter="url(#pencil)">7월</text>
<line x1="59" y1="42" x2="59" y2="256" stroke="#111111" stroke-width="2" filter="url(#pline)"/>
<line x1="52" y1="251" x2="738" y2="251" stroke="#111111" stroke-width="2" filter="url(#pline)"/>
<polygon points="60,250 60,250 63,250 67,250 71,250 74,250 78,250 82,250 85,250 89,250 93,250 96,250 100,250 104,248 107,248 111,248 115,248 118,248 122,247 126,246 129,245 133,244 137,239 140,239 144,239 148,237 152,232 155,231 159,230 163,230 166,230 170,229 174,223 177,223 181,223 185,223 188,223 192,223 196,223 199,223 203,223 207,223 210,223 214,223 218,223 221,223 225,221 229,221 233,221 236,221 240,221 244,221 247,220 251,219 255,218 258,215 262,214 266,214 269,213 273,213 277,213 280,213 284,213 288,213 291,213 295,213 299,213 302,213 306,213 310,213 314,210 317,210 321,210 325,207 328,206 332,206 336,206 339,199 343,199 347,199 350,194 354,188 358,184 361,184 365,183 369,183 372,183 376,182 380,182 383,182 387,182 391,182 395,182 398,182 402,182 406,181 409,181 413,181 417,177 420,177 424,177 428,177 431,175 435,174 439,169 442,169 446,169 450,167 453,167 457,166 461,165 464,162 468,162 472,162 475,162 479,162 483,162 487,162 490,161 494,161 498,161 501,161 505,161 509,161 512,161 516,160 520,160 523,160 527,160 531,160 534,158 538,158 542,158 545,157 549,155 553,153 556,151 560,147 564,144 568,142 571,140 575,138 579,136 582,134 586,132 590,130 593,128 597,126 601,125 604,124 608,122 612,121 615,119 619,117 623,115 626,110 630,107 634,105 637,104 641,102 645,100 649,99 652,98 656,97 660,96 663,94 667,90 671,78 674,71 678,65 682,59 685,56 689,55 693,54 696,53 700,53 704,52 707,52 711,51 715,51 718,51 722,51 726,51 730,50 730,250" fill="#e8e8e8" opacity="0.6"/>
<polyline points="60,250 63,250 67,250 71,250 74,250 78,250 82,250 85,250 89,250 93,250 96,250 100,250 104,248 107,248 111,248 115,248 118,248 122,247 126,246 129,245 133,244 137,239 140,239 144,239 148,237 152,232 155,231 159,230 163,230 166,230 170,229 174,223 177,223 181,223 185,223 188,223 192,223 196,223 199,223 203,223 207,223 210,223 214,223 218,223 221,223 225,221 229,221 233,221 236,221 240,221 244,221 247,220 251,219 255,218 258,215 262,214 266,214 269,213 273,213 277,213 280,213 284,213 288,213 291,213 295,213 299,213 302,213 306,213 310,213 314,210 317,210 321,210 325,207 328,206 332,206 336,206 339,199 343,199 347,199 350,194 354,188 358,184 361,184 365,183 369,183 372,183 376,182 380,182 383,182 387,182 391,182 395,182 398,182 402,182 406,181 409,181 413,181 417,177 420,177 424,177 428,177 431,175 435,174 439,169 442,169 446,169 450,167 453,167 457,166 461,165 464,162 468,162 472,162 475,162 479,162 483,162 487,162 490,161 494,161 498,161 501,161 505,161 509,161 512,161 516,160 520,160 523,160 527,160 531,160 534,158 538,158 542,158 545,157 549,155 553,153 556,151 560,147 564,144 568,142 571,140 575,138 579,136 582,134 586,132 590,130 593,128 597,126 601,125 604,124 608,122 612,121 615,119 619,117 623,115 626,110 630,107 634,105 637,104 641,102 645,100 649,99 652,98 656,97 660,96 663,94 667,90 671,78 674,71 678,65 682,59 685,56 689,55 693,54 696,53 700,53 704,52 707,52 711,51 715,51 718,51 722,51 726,51 730,50" fill="none" stroke="#111111" stroke-width="2.4" stroke-linejoin="round" stroke-linecap="round" filter="url(#pline)"/>
<circle cx="730" cy="50" r="4" fill="#111111" filter="url(#pencil)"/>
<text x="724" y="42" text-anchor="end" font-size="10" font-family="Georgia,serif" fill="#111111">1352K</text>
<text x="60" y="289" font-size="9" font-family="Georgia,serif" fill="#888888">기준: 2026-07-07 10:02</text>
</svg>