<svg xmlns="http://www.w3.org/2000/svg" width="760" height="295">
<defs><filter id="pencil" x="-5%" y="-5%" width="110%" height="110%"><feTurbulence type="fractalNoise" baseFrequency="0.9" numOctaves="4" seed="5" result="noise"/><feDisplacementMap in="SourceGraphic" in2="noise" scale="1.6" xChannelSelector="R" yChannelSelector="G"/></filter><filter id="pline" x="-2%" y="-30%" width="104%" height="160%"><feTurbulence type="fractalNoise" baseFrequency="0.015 0.9" numOctaves="3" seed="11" result="noise"/><feDisplacementMap in="SourceGraphic" in2="noise" scale="1.8" xChannelSelector="R" yChannelSelector="G"/></filter><filter id="rough" x="-5%" y="-5%" width="110%" height="110%"><feTurbulence type="turbulence" baseFrequency="0.05" numOctaves="2" seed="2" result="noise"/><feDisplacementMap in="SourceGraphic" in2="noise" scale="2" xChannelSelector="R" yChannelSelector="G"/></filter></defs>
<rect width="760" height="295" fill="#ffffff"/>
<text x="380" y="32" text-anchor="middle" font-size="14" font-weight="bold" font-family="Georgia,serif" fill="#111111" filter="url(#pencil)">Workload (6 months)</text>
<line x1="60" y1="250" x2="730" y2="250" stroke="#cccccc" stroke-width="0.7" stroke-dasharray="4,5" filter="url(#rough)"/>
<text x="54" y="254" text-anchor="end" font-size="10" font-family="Georgia,serif" fill="#333333">0</text>
<line x1="60" y1="200" x2="730" y2="200" stroke="#cccccc" stroke-width="0.7" stroke-dasharray="4,5" filter="url(#rough)"/>
<text x="54" y="204" text-anchor="end" font-size="10" font-family="Georgia,serif" fill="#333333">163K</text>
<line x1="60" y1="150" x2="730" y2="150" stroke="#cccccc" stroke-width="0.7" stroke-dasharray="4,5" filter="url(#rough)"/>
<text x="54" y="154" text-anchor="end" font-size="10" font-family="Georgia,serif" fill="#333333">326K</text>
<line x1="60" y1="100" x2="730" y2="100" stroke="#cccccc" stroke-width="0.7" stroke-dasharray="4,5" filter="url(#rough)"/>
<text x="54" y="104" text-anchor="end" font-size="10" font-family="Georgia,serif" fill="#333333">489K</text>
<line x1="60" y1="50" x2="730" y2="50" stroke="#cccccc" stroke-width="0.7" stroke-dasharray="4,5" filter="url(#rough)"/>
<text x="54" y="54" text-anchor="end" font-size="10" font-family="Georgia,serif" fill="#333333">652K</text>
<text x="89" y="270" text-anchor="middle" font-size="11" font-family="Georgia,serif" fill="#333333" filter="url(#pencil)">1월</text>
<text x="203" y="270" text-anchor="middle" font-size="11" font-family="Georgia,serif" fill="#333333" filter="url(#pencil)">2월</text>
<text x="306" y="270" text-anchor="middle" font-size="11" font-family="Georgia,serif" fill="#333333" filter="url(#pencil)">3월</text>
<text x="420" y="270" text-anchor="middle" font-size="11" font-family="Georgia,serif" fill="#333333" filter="url(#pencil)">4월</text>
<text x="531" y="270" text-anchor="middle" font-size="11" font-family="Georgia,serif" fill="#333333" filter="url(#pencil)">5월</text>
<text x="645" y="270" text-anchor="middle" font-size="11" font-family="Georgia,serif" fill="#333333" filter="url(#pencil)">6월</text>
<line x1="59" y1="42" x2="59" y2="256" stroke="#111111" stroke-width="2" filter="url(#pline)"/>
<line x1="52" y1="251" x2="738" y2="251" stroke="#111111" stroke-width="2" filter="url(#pline)"/>
<polygon points="60,250 60,246 63,246 67,246 71,246 74,246 78,246 82,246 85,246 89,246 93,246 96,246 100,246 104,246 107,246 111,246 115,246 118,246 122,246 126,246 129,246 133,246 137,246 140,246 144,246 148,246 152,242 155,242 159,242 163,241 166,241 170,241 174,239 177,238 181,236 185,228 188,228 192,228 196,226 199,218 203,216 207,215 210,215 214,215 218,215 221,206 225,205 229,205 233,205 236,205 240,205 244,205 247,205 251,205 255,205 258,205 262,205 266,205 269,205 273,203 277,203 280,203 284,203 288,203 291,203 295,201 299,199 302,198 306,193 310,191 314,191 317,191 321,191 325,191 328,191 332,191 336,191 339,191 343,191 347,191 350,190 354,190 358,190 361,187 365,186 369,186 372,181 376,181 380,181 383,181 387,170 391,170 395,170 398,163 402,154 406,148 409,147 413,146 417,146 420,146 424,146 428,146 431,146 435,146 439,146 442,146 446,146 450,146 453,145 457,145 461,145 464,143 468,143 472,143 475,143 479,140 483,139 487,137 490,137 494,137 498,136 501,136 505,135 509,135 512,134 516,133 520,133 523,133 527,133 531,133 534,133 538,133 542,133 545,133 549,132 553,132 556,132 560,132 564,132 568,132 571,132 575,132 579,132 582,131 586,131 590,130 593,129 597,126 601,123 604,120 608,116 612,112 615,108 619,106 623,103 626,101 630,98 634,96 637,93 641,91 645,89 649,87 652,86 656,84 660,83 663,80 667,78 671,76 674,71 678,68 682,67 685,65 689,63 693,62 696,62 700,61 704,60 707,60 711,59 715,57 718,53 722,51 726,51 730,50 730,250" fill="#e8e8e8" opacity="0.6"/>
<polyline points="60,246 63,246 67,246 71,246 74,246 78,246 82,246 85,246 89,246 93,246 96,246 100,246 104,246 107,246 111,246 115,246 118,246 122,246 126,246 129,246 133,246 137,246 140,246 144,246 148,246 152,242 155,242 159,242 163,241 166,241 170,241 174,239 177,238 181,236 185,228 188,228 192,228 196,226 199,218 203,216 207,215 210,215 214,215 218,215 221,206 225,205 229,205 233,205 236,205 240,205 244,205 247,205 251,205 255,205 258,205 262,205 266,205 269,205 273,203 277,203 280,203 284,203 288,203 291,203 295,201 299,199 302,198 306,193 310,191 314,191 317,191 321,191 325,191 328,191 332,191 336,191 339,191 343,191 347,191 350,190 354,190 358,190 361,187 365,186 369,186 372,181 376,181 380,181 383,181 387,170 391,170 395,170 398,163 402,154 406,148 409,147 413,146 417,146 420,146 424,146 428,146 431,146 435,146 439,146 442,146 446,146 450,146 453,145 457,145 461,145 464,143 468,143 472,143 475,143 479,140 483,139 487,137 490,137 494,137 498,136 501,136 505,135 509,135 512,134 516,133 520,133 523,133 527,133 531,133 534,133 538,133 542,133 545,133 549,132 553,132 556,132 560,132 564,132 568,132 571,132 575,132 579,132 582,131 586,131 590,130 593,129 597,126 601,123 604,120 608,116 612,112 615,108 619,106 623,103 626,101 630,98 634,96 637,93 641,91 645,89 649,87 652,86 656,84 660,83 663,80 667,78 671,76 674,71 678,68 682,67 685,65 689,63 693,62 696,62 700,61 704,60 707,60 711,59 715,57 718,53 722,51 726,51 730,50" fill="none" stroke="#111111" stroke-width="2.4" stroke-linejoin="round" stroke-linecap="round" filter="url(#pline)"/>
<circle cx="730" cy="50" r="4" fill="#111111" filter="url(#pencil)"/>
<text x="724" y="42" text-anchor="end" font-size="10" font-family="Georgia,serif" fill="#111111">652K</text>
<text x="60" y="289" font-size="9" font-family="Georgia,serif" fill="#888888">기준: 2026-06-24 09:52</text>
</svg>