<svg xmlns="http://www.w3.org/2000/svg" width="760" height="295">
<defs><filter id="pencil" x="-5%" y="-5%" width="110%" height="110%"><feTurbulence type="fractalNoise" baseFrequency="0.9" numOctaves="4" seed="5" result="noise"/><feDisplacementMap in="SourceGraphic" in2="noise" scale="1.6" xChannelSelector="R" yChannelSelector="G"/></filter><filter id="pline" x="-2%" y="-30%" width="104%" height="160%"><feTurbulence type="fractalNoise" baseFrequency="0.015 0.9" numOctaves="3" seed="11" result="noise"/><feDisplacementMap in="SourceGraphic" in2="noise" scale="1.8" xChannelSelector="R" yChannelSelector="G"/></filter><filter id="rough" x="-5%" y="-5%" width="110%" height="110%"><feTurbulence type="turbulence" baseFrequency="0.05" numOctaves="2" seed="2" result="noise"/><feDisplacementMap in="SourceGraphic" in2="noise" scale="2" xChannelSelector="R" yChannelSelector="G"/></filter></defs>
<rect width="760" height="295" fill="#ffffff"/>
<text x="380" y="32" text-anchor="middle" font-size="14" font-weight="bold" font-family="Georgia,serif" fill="#111111" filter="url(#pencil)">Workload (6 months)</text>
<line x1="60" y1="250" x2="730" y2="250" stroke="#cccccc" stroke-width="0.7" stroke-dasharray="4,5" filter="url(#rough)"/>
<text x="54" y="254" text-anchor="end" font-size="10" font-family="Georgia,serif" fill="#333333">0</text>
<line x1="60" y1="201" x2="730" y2="201" stroke="#cccccc" stroke-width="0.7" stroke-dasharray="4,5" filter="url(#rough)"/>
<text x="54" y="205" text-anchor="end" font-size="10" font-family="Georgia,serif" fill="#333333">102K</text>
<line x1="60" y1="150" x2="730" y2="150" stroke="#cccccc" stroke-width="0.7" stroke-dasharray="4,5" filter="url(#rough)"/>
<text x="54" y="154" text-anchor="end" font-size="10" font-family="Georgia,serif" fill="#333333">205K</text>
<line x1="60" y1="101" x2="730" y2="101" stroke="#cccccc" stroke-width="0.7" stroke-dasharray="4,5" filter="url(#rough)"/>
<text x="54" y="105" text-anchor="end" font-size="10" font-family="Georgia,serif" fill="#333333">308K</text>
<line x1="60" y1="50" x2="730" y2="50" stroke="#cccccc" stroke-width="0.7" stroke-dasharray="4,5" filter="url(#rough)"/>
<text x="54" y="54" text-anchor="end" font-size="10" font-family="Georgia,serif" fill="#333333">411K</text>
<text x="140" y="270" text-anchor="middle" font-size="11" font-family="Georgia,serif" fill="#333333" filter="url(#pencil)">1월</text>
<text x="255" y="270" text-anchor="middle" font-size="11" font-family="Georgia,serif" fill="#333333" filter="url(#pencil)">2월</text>
<text x="358" y="270" text-anchor="middle" font-size="11" font-family="Georgia,serif" fill="#333333" filter="url(#pencil)">3월</text>
<text x="472" y="270" text-anchor="middle" font-size="11" font-family="Georgia,serif" fill="#333333" filter="url(#pencil)">4월</text>
<text x="582" y="270" text-anchor="middle" font-size="11" font-family="Georgia,serif" fill="#333333" filter="url(#pencil)">5월</text>
<text x="696" y="270" text-anchor="middle" font-size="11" font-family="Georgia,serif" fill="#333333" filter="url(#pencil)">6월</text>
<line x1="59" y1="42" x2="59" y2="256" stroke="#111111" stroke-width="2" filter="url(#pline)"/>
<line x1="52" y1="251" x2="738" y2="251" stroke="#111111" stroke-width="2" filter="url(#pline)"/>
<polygon points="60,250 60,250 63,250 67,218 71,218 74,218 78,218 82,218 85,218 89,218 93,199 96,199 100,199 104,199 107,199 111,194 115,194 118,194 122,194 126,194 129,194 133,194 137,194 140,194 144,194 148,194 152,194 155,194 159,194 163,194 166,194 170,194 174,194 177,194 181,194 185,194 188,194 192,194 196,194 199,194 203,190 207,190 210,190 214,190 218,190 221,190 225,187 229,186 233,185 236,177 240,177 244,177 247,175 251,167 255,165 258,164 262,164 266,164 269,164 273,155 277,154 280,154 284,154 288,154 291,154 295,154 299,154 302,154 306,154 310,154 314,154 317,154 321,154 325,152 328,152 332,152 336,152 339,152 343,152 347,150 350,148 354,147 358,142 361,141 365,141 369,140 372,140 376,140 380,140 383,140 387,140 391,140 395,140 398,140 402,139 406,139 409,139 413,136 417,135 420,135 424,131 428,130 431,130 435,130 439,119 442,119 446,119 450,113 453,104 457,97 461,97 464,96 468,96 472,96 475,96 479,96 483,96 487,96 490,96 494,96 498,96 501,96 505,95 509,95 512,95 516,95 520,95 523,95 527,95 531,93 534,91 538,91 542,91 545,91 549,91 553,91 556,91 560,91 564,91 568,91 571,91 575,91 579,91 582,91 586,91 590,91 593,91 597,91 601,90 604,90 608,90 612,90 615,90 619,90 623,90 626,90 630,90 634,90 637,90 641,89 645,88 649,85 652,82 656,79 660,77 663,73 667,70 671,68 674,66 678,64 682,62 685,60 689,58 693,57 696,56 700,55 704,54 707,53 711,53 715,52 718,51 722,51 726,50 730,50 730,250" fill="#e8e8e8" opacity="0.6"/>
<polyline points="60,250 63,250 67,218 71,218 74,218 78,218 82,218 85,218 89,218 93,199 96,199 100,199 104,199 107,199 111,194 115,194 118,194 122,194 126,194 129,194 133,194 137,194 140,194 144,194 148,194 152,194 155,194 159,194 163,194 166,194 170,194 174,194 177,194 181,194 185,194 188,194 192,194 196,194 199,194 203,190 207,190 210,190 214,190 218,190 221,190 225,187 229,186 233,185 236,177 240,177 244,177 247,175 251,167 255,165 258,164 262,164 266,164 269,164 273,155 277,154 280,154 284,154 288,154 291,154 295,154 299,154 302,154 306,154 310,154 314,154 317,154 321,154 325,152 328,152 332,152 336,152 339,152 343,152 347,150 350,148 354,147 358,142 361,141 365,141 369,140 372,140 376,140 380,140 383,140 387,140 391,140 395,140 398,140 402,139 406,139 409,139 413,136 417,135 420,135 424,131 428,130 431,130 435,130 439,119 442,119 446,119 450,113 453,104 457,97 461,97 464,96 468,96 472,96 475,96 479,96 483,96 487,96 490,96 494,96 498,96 501,96 505,95 509,95 512,95 516,95 520,95 523,95 527,95 531,93 534,91 538,91 542,91 545,91 549,91 553,91 556,91 560,91 564,91 568,91 571,91 575,91 579,91 582,91 586,91 590,91 593,91 597,91 601,90 604,90 608,90 612,90 615,90 619,90 623,90 626,90 630,90 634,90 637,90 641,89 645,88 649,85 652,82 656,79 660,77 663,73 667,70 671,68 674,66 678,64 682,62 685,60 689,58 693,57 696,56 700,55 704,54 707,53 711,53 715,52 718,51 722,51 726,50 730,50" fill="none" stroke="#111111" stroke-width="2.4" stroke-linejoin="round" stroke-linecap="round" filter="url(#pline)"/>
<circle cx="730" cy="50" r="4" fill="#111111" filter="url(#pencil)"/>
<text x="724" y="42" text-anchor="end" font-size="10" font-family="Georgia,serif" fill="#111111">411K</text>
<text x="60" y="289" font-size="9" font-family="Georgia,serif" fill="#888888">기준: 2026-06-10 04:51</text>
</svg>