<svg xmlns="http://www.w3.org/2000/svg" width="760" height="295">
<defs><filter id="pencil" x="-5%" y="-5%" width="110%" height="110%"><feTurbulence type="fractalNoise" baseFrequency="0.9" numOctaves="4" seed="5" result="noise"/><feDisplacementMap in="SourceGraphic" in2="noise" scale="1.6" xChannelSelector="R" yChannelSelector="G"/></filter><filter id="pline" x="-2%" y="-30%" width="104%" height="160%"><feTurbulence type="fractalNoise" baseFrequency="0.015 0.9" numOctaves="3" seed="11" result="noise"/><feDisplacementMap in="SourceGraphic" in2="noise" scale="1.8" xChannelSelector="R" yChannelSelector="G"/></filter><filter id="rough" x="-5%" y="-5%" width="110%" height="110%"><feTurbulence type="turbulence" baseFrequency="0.05" numOctaves="2" seed="2" result="noise"/><feDisplacementMap in="SourceGraphic" in2="noise" scale="2" xChannelSelector="R" yChannelSelector="G"/></filter></defs>
<rect width="760" height="295" fill="#ffffff"/>
<text x="380" y="32" text-anchor="middle" font-size="14" font-weight="bold" font-family="Georgia,serif" fill="#111111" filter="url(#pencil)">Workload (6 months)</text>
<line x1="60" y1="250" x2="730" y2="250" stroke="#cccccc" stroke-width="0.7" stroke-dasharray="4,5" filter="url(#rough)"/>
<text x="54" y="254" text-anchor="end" font-size="10" font-family="Georgia,serif" fill="#333333">0</text>
<line x1="60" y1="201" x2="730" y2="201" stroke="#cccccc" stroke-width="0.7" stroke-dasharray="4,5" filter="url(#rough)"/>
<text x="54" y="205" text-anchor="end" font-size="10" font-family="Georgia,serif" fill="#333333">119K</text>
<line x1="60" y1="151" x2="730" y2="151" stroke="#cccccc" stroke-width="0.7" stroke-dasharray="4,5" filter="url(#rough)"/>
<text x="54" y="155" text-anchor="end" font-size="10" font-family="Georgia,serif" fill="#333333">239K</text>
<line x1="60" y1="101" x2="730" y2="101" stroke="#cccccc" stroke-width="0.7" stroke-dasharray="4,5" filter="url(#rough)"/>
<text x="54" y="105" text-anchor="end" font-size="10" font-family="Georgia,serif" fill="#333333">359K</text>
<line x1="60" y1="50" x2="730" y2="50" stroke="#cccccc" stroke-width="0.7" stroke-dasharray="4,5" filter="url(#rough)"/>
<text x="54" y="54" text-anchor="end" font-size="10" font-family="Georgia,serif" fill="#333333">479K</text>
<text x="118" y="270" text-anchor="middle" font-size="11" font-family="Georgia,serif" fill="#333333" filter="url(#pencil)">1월</text>
<text x="233" y="270" text-anchor="middle" font-size="11" font-family="Georgia,serif" fill="#333333" filter="url(#pencil)">2월</text>
<text x="336" y="270" text-anchor="middle" font-size="11" font-family="Georgia,serif" fill="#333333" filter="url(#pencil)">3월</text>
<text x="450" y="270" text-anchor="middle" font-size="11" font-family="Georgia,serif" fill="#333333" filter="url(#pencil)">4월</text>
<text x="560" y="270" text-anchor="middle" font-size="11" font-family="Georgia,serif" fill="#333333" filter="url(#pencil)">5월</text>
<text x="674" y="270" text-anchor="middle" font-size="11" font-family="Georgia,serif" fill="#333333" filter="url(#pencil)">6월</text>
<line x1="59" y1="42" x2="59" y2="256" stroke="#111111" stroke-width="2" filter="url(#pline)"/>
<line x1="52" y1="251" x2="738" y2="251" stroke="#111111" stroke-width="2" filter="url(#pline)"/>
<polygon points="60,250 60,250 63,250 67,250 71,229 74,229 78,229 82,229 85,229 89,224 93,224 96,224 100,224 104,224 107,224 111,224 115,224 118,224 122,224 126,224 129,224 133,224 137,224 140,224 144,224 148,224 152,224 155,224 159,224 163,224 166,224 170,224 174,224 177,224 181,220 185,220 188,220 192,220 196,220 199,219 203,216 207,215 210,214 214,205 218,205 221,205 225,203 229,194 233,192 236,191 240,191 244,191 247,191 251,181 255,180 258,180 262,180 266,180 269,180 273,180 277,180 280,180 284,180 288,180 291,180 295,180 299,180 302,178 306,178 310,178 314,178 317,178 321,178 325,176 328,174 332,172 336,167 339,165 343,165 347,165 350,165 354,165 358,165 361,165 365,165 369,165 372,165 376,165 380,164 383,164 387,164 391,160 395,159 398,159 402,155 406,154 409,154 413,154 417,142 420,142 424,142 428,135 431,125 435,118 439,117 442,116 446,116 450,116 453,116 457,116 461,116 464,116 468,116 472,116 475,116 479,116 483,115 487,115 490,115 494,115 498,115 501,115 505,115 509,113 512,111 516,111 520,111 523,111 527,111 531,111 534,111 538,111 542,111 545,111 549,111 553,111 556,111 560,111 564,111 568,111 571,111 575,111 579,110 582,110 586,110 590,110 593,110 597,110 601,109 604,109 608,109 612,109 615,109 619,108 623,108 626,104 630,101 634,98 637,95 641,91 645,87 649,84 652,82 656,79 660,77 663,75 667,72 671,70 674,68 678,67 682,66 685,64 689,63 693,61 696,59 700,58 704,55 707,53 711,52 715,52 718,51 722,51 726,51 730,50 730,250" fill="#e8e8e8" opacity="0.6"/>
<polyline points="60,250 63,250 67,250 71,229 74,229 78,229 82,229 85,229 89,224 93,224 96,224 100,224 104,224 107,224 111,224 115,224 118,224 122,224 126,224 129,224 133,224 137,224 140,224 144,224 148,224 152,224 155,224 159,224 163,224 166,224 170,224 174,224 177,224 181,220 185,220 188,220 192,220 196,220 199,219 203,216 207,215 210,214 214,205 218,205 221,205 225,203 229,194 233,192 236,191 240,191 244,191 247,191 251,181 255,180 258,180 262,180 266,180 269,180 273,180 277,180 280,180 284,180 288,180 291,180 295,180 299,180 302,178 306,178 310,178 314,178 317,178 321,178 325,176 328,174 332,172 336,167 339,165 343,165 347,165 350,165 354,165 358,165 361,165 365,165 369,165 372,165 376,165 380,164 383,164 387,164 391,160 395,159 398,159 402,155 406,154 409,154 413,154 417,142 420,142 424,142 428,135 431,125 435,118 439,117 442,116 446,116 450,116 453,116 457,116 461,116 464,116 468,116 472,116 475,116 479,116 483,115 487,115 490,115 494,115 498,115 501,115 505,115 509,113 512,111 516,111 520,111 523,111 527,111 531,111 534,111 538,111 542,111 545,111 549,111 553,111 556,111 560,111 564,111 568,111 571,111 575,111 579,110 582,110 586,110 590,110 593,110 597,110 601,109 604,109 608,109 612,109 615,109 619,108 623,108 626,104 630,101 634,98 637,95 641,91 645,87 649,84 652,82 656,79 660,77 663,75 667,72 671,70 674,68 678,67 682,66 685,64 689,63 693,61 696,59 700,58 704,55 707,53 711,52 715,52 718,51 722,51 726,51 730,50" fill="none" stroke="#111111" stroke-width="2.4" stroke-linejoin="round" stroke-linecap="round" filter="url(#pline)"/>
<circle cx="730" cy="50" r="4" fill="#111111" filter="url(#pencil)"/>
<text x="724" y="42" text-anchor="end" font-size="10" font-family="Georgia,serif" fill="#111111">479K</text>
<text x="60" y="289" font-size="9" font-family="Georgia,serif" fill="#888888">기준: 2026-06-16 17:23</text>
</svg>