<svg xmlns="http://www.w3.org/2000/svg" width="760" height="295">
<defs><filter id="pencil" x="-5%" y="-5%" width="110%" height="110%"><feTurbulence type="fractalNoise" baseFrequency="0.9" numOctaves="4" seed="5" result="noise"/><feDisplacementMap in="SourceGraphic" in2="noise" scale="1.6" xChannelSelector="R" yChannelSelector="G"/></filter><filter id="pline" x="-2%" y="-30%" width="104%" height="160%"><feTurbulence type="fractalNoise" baseFrequency="0.015 0.9" numOctaves="3" seed="11" result="noise"/><feDisplacementMap in="SourceGraphic" in2="noise" scale="1.8" xChannelSelector="R" yChannelSelector="G"/></filter><filter id="rough" x="-5%" y="-5%" width="110%" height="110%"><feTurbulence type="turbulence" baseFrequency="0.05" numOctaves="2" seed="2" result="noise"/><feDisplacementMap in="SourceGraphic" in2="noise" scale="2" xChannelSelector="R" yChannelSelector="G"/></filter></defs>
<rect width="760" height="295" fill="#ffffff"/>
<text x="380" y="32" text-anchor="middle" font-size="14" font-weight="bold" font-family="Georgia,serif" fill="#111111" filter="url(#pencil)">Workload (6 months)</text>
<line x1="60" y1="250" x2="730" y2="250" stroke="#cccccc" stroke-width="0.7" stroke-dasharray="4,5" filter="url(#rough)"/>
<text x="54" y="254" text-anchor="end" font-size="10" font-family="Georgia,serif" fill="#333333">0</text>
<line x1="60" y1="200" x2="730" y2="200" stroke="#cccccc" stroke-width="0.7" stroke-dasharray="4,5" filter="url(#rough)"/>
<text x="54" y="204" text-anchor="end" font-size="10" font-family="Georgia,serif" fill="#333333">194K</text>
<line x1="60" y1="150" x2="730" y2="150" stroke="#cccccc" stroke-width="0.7" stroke-dasharray="4,5" filter="url(#rough)"/>
<text x="54" y="154" text-anchor="end" font-size="10" font-family="Georgia,serif" fill="#333333">388K</text>
<line x1="60" y1="100" x2="730" y2="100" stroke="#cccccc" stroke-width="0.7" stroke-dasharray="4,5" filter="url(#rough)"/>
<text x="54" y="104" text-anchor="end" font-size="10" font-family="Georgia,serif" fill="#333333">582K</text>
<line x1="60" y1="50" x2="730" y2="50" stroke="#cccccc" stroke-width="0.7" stroke-dasharray="4,5" filter="url(#rough)"/>
<text x="54" y="54" text-anchor="end" font-size="10" font-family="Georgia,serif" fill="#333333">776K</text>
<text x="78" y="270" text-anchor="middle" font-size="11" font-family="Georgia,serif" fill="#333333" filter="url(#pencil)">1월</text>
<text x="192" y="270" text-anchor="middle" font-size="11" font-family="Georgia,serif" fill="#333333" filter="url(#pencil)">2월</text>
<text x="295" y="270" text-anchor="middle" font-size="11" font-family="Georgia,serif" fill="#333333" filter="url(#pencil)">3월</text>
<text x="409" y="270" text-anchor="middle" font-size="11" font-family="Georgia,serif" fill="#333333" filter="url(#pencil)">4월</text>
<text x="520" y="270" text-anchor="middle" font-size="11" font-family="Georgia,serif" fill="#333333" filter="url(#pencil)">5월</text>
<text x="634" y="270" text-anchor="middle" font-size="11" font-family="Georgia,serif" fill="#333333" filter="url(#pencil)">6월</text>
<line x1="59" y1="42" x2="59" y2="256" stroke="#111111" stroke-width="2" filter="url(#pline)"/>
<line x1="52" y1="251" x2="738" y2="251" stroke="#111111" stroke-width="2" filter="url(#pline)"/>
<polygon points="60,250 60,250 63,250 67,250 71,250 74,250 78,250 82,250 85,250 89,250 93,250 96,250 100,250 104,250 107,250 111,250 115,250 118,250 122,250 126,250 129,250 133,250 137,250 140,247 144,247 148,247 152,247 155,247 159,246 163,244 166,243 170,242 174,234 177,234 181,234 185,233 188,225 192,224 196,223 199,223 203,223 207,222 210,214 214,213 218,213 221,213 225,213 229,213 233,213 236,213 240,213 244,213 247,213 251,213 255,213 258,213 262,211 266,211 269,211 273,211 277,211 280,211 284,210 288,208 291,207 295,202 299,201 302,201 306,201 310,201 314,201 317,201 321,201 325,201 328,201 332,201 336,201 339,200 343,200 347,200 350,197 354,196 358,196 361,192 365,191 369,191 372,191 376,181 380,181 383,181 387,175 391,167 395,161 398,161 402,160 406,160 409,160 413,159 417,159 420,159 424,159 428,159 431,159 435,159 439,159 442,158 446,158 450,158 453,155 457,155 461,155 464,155 468,153 472,152 475,149 479,149 483,149 487,147 490,147 494,146 498,145 501,144 505,143 509,143 512,143 516,143 520,143 523,143 527,143 531,143 534,143 538,142 542,142 545,142 549,142 553,142 556,142 560,142 564,142 568,142 571,141 575,141 579,140 582,139 586,136 590,133 593,131 597,127 601,123 604,120 608,117 612,115 615,113 619,110 623,108 626,105 630,103 634,101 637,100 641,98 645,97 649,95 652,93 656,90 660,89 663,83 667,80 671,79 674,77 678,75 682,74 685,73 689,72 693,72 696,71 700,70 704,67 707,60 711,56 715,53 718,51 722,51 726,50 730,50 730,250" fill="#e8e8e8" opacity="0.6"/>
<polyline points="60,250 63,250 67,250 71,250 74,250 78,250 82,250 85,250 89,250 93,250 96,250 100,250 104,250 107,250 111,250 115,250 118,250 122,250 126,250 129,250 133,250 137,250 140,247 144,247 148,247 152,247 155,247 159,246 163,244 166,243 170,242 174,234 177,234 181,234 185,233 188,225 192,224 196,223 199,223 203,223 207,222 210,214 214,213 218,213 221,213 225,213 229,213 233,213 236,213 240,213 244,213 247,213 251,213 255,213 258,213 262,211 266,211 269,211 273,211 277,211 280,211 284,210 288,208 291,207 295,202 299,201 302,201 306,201 310,201 314,201 317,201 321,201 325,201 328,201 332,201 336,201 339,200 343,200 347,200 350,197 354,196 358,196 361,192 365,191 369,191 372,191 376,181 380,181 383,181 387,175 391,167 395,161 398,161 402,160 406,160 409,160 413,159 417,159 420,159 424,159 428,159 431,159 435,159 439,159 442,158 446,158 450,158 453,155 457,155 461,155 464,155 468,153 472,152 475,149 479,149 483,149 487,147 490,147 494,146 498,145 501,144 505,143 509,143 512,143 516,143 520,143 523,143 527,143 531,143 534,143 538,142 542,142 545,142 549,142 553,142 556,142 560,142 564,142 568,142 571,141 575,141 579,140 582,139 586,136 590,133 593,131 597,127 601,123 604,120 608,117 612,115 615,113 619,110 623,108 626,105 630,103 634,101 637,100 641,98 645,97 649,95 652,93 656,90 660,89 663,83 667,80 671,79 674,77 678,75 682,74 685,73 689,72 693,72 696,71 700,70 704,67 707,60 711,56 715,53 718,51 722,51 726,50 730,50" fill="none" stroke="#111111" stroke-width="2.4" stroke-linejoin="round" stroke-linecap="round" filter="url(#pline)"/>
<circle cx="730" cy="50" r="4" fill="#111111" filter="url(#pencil)"/>
<text x="724" y="42" text-anchor="end" font-size="10" font-family="Georgia,serif" fill="#111111">776K</text>
<text x="60" y="289" font-size="9" font-family="Georgia,serif" fill="#888888">기준: 2026-06-27 04:18</text>
</svg>