<svg xmlns="http://www.w3.org/2000/svg" width="760" height="295">
<defs><filter id="pencil" x="-5%" y="-5%" width="110%" height="110%"><feTurbulence type="fractalNoise" baseFrequency="0.9" numOctaves="4" seed="5" result="noise"/><feDisplacementMap in="SourceGraphic" in2="noise" scale="1.6" xChannelSelector="R" yChannelSelector="G"/></filter><filter id="pline" x="-2%" y="-30%" width="104%" height="160%"><feTurbulence type="fractalNoise" baseFrequency="0.015 0.9" numOctaves="3" seed="11" result="noise"/><feDisplacementMap in="SourceGraphic" in2="noise" scale="1.8" xChannelSelector="R" yChannelSelector="G"/></filter><filter id="rough" x="-5%" y="-5%" width="110%" height="110%"><feTurbulence type="turbulence" baseFrequency="0.05" numOctaves="2" seed="2" result="noise"/><feDisplacementMap in="SourceGraphic" in2="noise" scale="2" xChannelSelector="R" yChannelSelector="G"/></filter></defs>
<rect width="760" height="295" fill="#ffffff"/>
<text x="380" y="32" text-anchor="middle" font-size="14" font-weight="bold" font-family="Georgia,serif" fill="#111111" filter="url(#pencil)">Workload (6 months)</text>
<line x1="60" y1="250" x2="730" y2="250" stroke="#cccccc" stroke-width="0.7" stroke-dasharray="4,5" filter="url(#rough)"/>
<text x="54" y="254" text-anchor="end" font-size="10" font-family="Georgia,serif" fill="#333333">0</text>
<line x1="60" y1="200" x2="730" y2="200" stroke="#cccccc" stroke-width="0.7" stroke-dasharray="4,5" filter="url(#rough)"/>
<text x="54" y="204" text-anchor="end" font-size="10" font-family="Georgia,serif" fill="#333333">125K</text>
<line x1="60" y1="150" x2="730" y2="150" stroke="#cccccc" stroke-width="0.7" stroke-dasharray="4,5" filter="url(#rough)"/>
<text x="54" y="154" text-anchor="end" font-size="10" font-family="Georgia,serif" fill="#333333">250K</text>
<line x1="60" y1="100" x2="730" y2="100" stroke="#cccccc" stroke-width="0.7" stroke-dasharray="4,5" filter="url(#rough)"/>
<text x="54" y="104" text-anchor="end" font-size="10" font-family="Georgia,serif" fill="#333333">376K</text>
<line x1="60" y1="50" x2="730" y2="50" stroke="#cccccc" stroke-width="0.7" stroke-dasharray="4,5" filter="url(#rough)"/>
<text x="54" y="54" text-anchor="end" font-size="10" font-family="Georgia,serif" fill="#333333">501K</text>
<text x="104" y="270" text-anchor="middle" font-size="11" font-family="Georgia,serif" fill="#333333" filter="url(#pencil)">1월</text>
<text x="218" y="270" text-anchor="middle" font-size="11" font-family="Georgia,serif" fill="#333333" filter="url(#pencil)">2월</text>
<text x="321" y="270" text-anchor="middle" font-size="11" font-family="Georgia,serif" fill="#333333" filter="url(#pencil)">3월</text>
<text x="435" y="270" text-anchor="middle" font-size="11" font-family="Georgia,serif" fill="#333333" filter="url(#pencil)">4월</text>
<text x="545" y="270" text-anchor="middle" font-size="11" font-family="Georgia,serif" fill="#333333" filter="url(#pencil)">5월</text>
<text x="660" y="270" text-anchor="middle" font-size="11" font-family="Georgia,serif" fill="#333333" filter="url(#pencil)">6월</text>
<line x1="59" y1="42" x2="59" y2="256" stroke="#111111" stroke-width="2" filter="url(#pline)"/>
<line x1="52" y1="251" x2="738" y2="251" stroke="#111111" stroke-width="2" filter="url(#pline)"/>
<polygon points="60,250 60,250 63,250 67,250 71,250 74,245 78,245 82,245 85,245 89,245 93,245 96,245 100,245 104,245 107,245 111,245 115,245 118,245 122,245 126,245 129,245 133,245 137,245 140,245 144,245 148,245 152,245 155,245 159,245 163,245 166,240 170,240 174,240 177,240 181,240 185,240 188,237 192,236 196,234 199,225 203,225 207,225 210,223 214,213 218,211 221,210 225,210 229,210 233,209 236,199 240,198 244,197 247,197 251,197 255,197 258,197 262,197 266,197 269,197 273,197 277,197 280,197 284,197 288,195 291,195 295,195 299,195 302,195 306,195 310,193 314,191 317,190 321,184 325,182 328,182 332,182 336,182 339,182 343,182 347,182 350,182 354,182 358,182 361,182 365,180 369,180 372,180 376,177 380,175 383,175 387,171 391,170 395,170 398,170 402,157 406,157 409,157 413,149 417,139 420,131 424,131 428,130 431,130 435,130 439,130 442,130 446,130 450,130 453,130 457,130 461,130 464,130 468,129 472,129 475,129 479,129 483,129 487,129 490,129 494,126 498,124 501,124 505,124 509,124 512,124 516,124 520,124 523,124 527,124 531,124 534,124 538,124 542,124 545,124 549,124 553,124 556,124 560,124 564,122 568,122 571,122 575,122 579,122 582,122 586,122 590,122 593,122 597,122 601,122 604,121 608,121 612,117 615,113 619,110 623,106 626,102 630,98 634,95 637,92 641,89 645,87 649,84 652,81 656,79 660,77 663,75 667,74 671,72 674,70 678,68 682,65 685,64 689,59 693,56 696,55 700,54 704,53 707,52 711,51 715,51 718,51 722,51 726,51 730,50 730,250" fill="#e8e8e8" opacity="0.6"/>
<polyline points="60,250 63,250 67,250 71,250 74,245 78,245 82,245 85,245 89,245 93,245 96,245 100,245 104,245 107,245 111,245 115,245 118,245 122,245 126,245 129,245 133,245 137,245 140,245 144,245 148,245 152,245 155,245 159,245 163,245 166,240 170,240 174,240 177,240 181,240 185,240 188,237 192,236 196,234 199,225 203,225 207,225 210,223 214,213 218,211 221,210 225,210 229,210 233,209 236,199 240,198 244,197 247,197 251,197 255,197 258,197 262,197 266,197 269,197 273,197 277,197 280,197 284,197 288,195 291,195 295,195 299,195 302,195 306,195 310,193 314,191 317,190 321,184 325,182 328,182 332,182 336,182 339,182 343,182 347,182 350,182 354,182 358,182 361,182 365,180 369,180 372,180 376,177 380,175 383,175 387,171 391,170 395,170 398,170 402,157 406,157 409,157 413,149 417,139 420,131 424,131 428,130 431,130 435,130 439,130 442,130 446,130 450,130 453,130 457,130 461,130 464,130 468,129 472,129 475,129 479,129 483,129 487,129 490,129 494,126 498,124 501,124 505,124 509,124 512,124 516,124 520,124 523,124 527,124 531,124 534,124 538,124 542,124 545,124 549,124 553,124 556,124 560,124 564,122 568,122 571,122 575,122 579,122 582,122 586,122 590,122 593,122 597,122 601,122 604,121 608,121 612,117 615,113 619,110 623,106 626,102 630,98 634,95 637,92 641,89 645,87 649,84 652,81 656,79 660,77 663,75 667,74 671,72 674,70 678,68 682,65 685,64 689,59 693,56 696,55 700,54 704,53 707,52 711,51 715,51 718,51 722,51 726,51 730,50" fill="none" stroke="#111111" stroke-width="2.4" stroke-linejoin="round" stroke-linecap="round" filter="url(#pline)"/>
<circle cx="730" cy="50" r="4" fill="#111111" filter="url(#pencil)"/>
<text x="724" y="42" text-anchor="end" font-size="10" font-family="Georgia,serif" fill="#111111">501K</text>
<text x="60" y="289" font-size="9" font-family="Georgia,serif" fill="#888888">기준: 2026-06-20 09:44</text>
</svg>