<svg xmlns="http://www.w3.org/2000/svg" width="760" height="295">
<defs><filter id="pencil" x="-5%" y="-5%" width="110%" height="110%"><feTurbulence type="fractalNoise" baseFrequency="0.9" numOctaves="4" seed="5" result="noise"/><feDisplacementMap in="SourceGraphic" in2="noise" scale="1.6" xChannelSelector="R" yChannelSelector="G"/></filter><filter id="pline" x="-2%" y="-30%" width="104%" height="160%"><feTurbulence type="fractalNoise" baseFrequency="0.015 0.9" numOctaves="3" seed="11" result="noise"/><feDisplacementMap in="SourceGraphic" in2="noise" scale="1.8" xChannelSelector="R" yChannelSelector="G"/></filter><filter id="rough" x="-5%" y="-5%" width="110%" height="110%"><feTurbulence type="turbulence" baseFrequency="0.05" numOctaves="2" seed="2" result="noise"/><feDisplacementMap in="SourceGraphic" in2="noise" scale="2" xChannelSelector="R" yChannelSelector="G"/></filter></defs>
<rect width="760" height="295" fill="#ffffff"/>
<text x="380" y="32" text-anchor="middle" font-size="14" font-weight="bold" font-family="Georgia,serif" fill="#111111" filter="url(#pencil)">Workload (6 months)</text>
<line x1="60" y1="250" x2="730" y2="250" stroke="#cccccc" stroke-width="0.7" stroke-dasharray="4,5" filter="url(#rough)"/>
<text x="54" y="254" text-anchor="end" font-size="10" font-family="Georgia,serif" fill="#333333">0</text>
<line x1="60" y1="200" x2="730" y2="200" stroke="#cccccc" stroke-width="0.7" stroke-dasharray="4,5" filter="url(#rough)"/>
<text x="54" y="204" text-anchor="end" font-size="10" font-family="Georgia,serif" fill="#333333">272K</text>
<line x1="60" y1="150" x2="730" y2="150" stroke="#cccccc" stroke-width="0.7" stroke-dasharray="4,5" filter="url(#rough)"/>
<text x="54" y="154" text-anchor="end" font-size="10" font-family="Georgia,serif" fill="#333333">544K</text>
<line x1="60" y1="100" x2="730" y2="100" stroke="#cccccc" stroke-width="0.7" stroke-dasharray="4,5" filter="url(#rough)"/>
<text x="54" y="104" text-anchor="end" font-size="10" font-family="Georgia,serif" fill="#333333">817K</text>
<line x1="60" y1="50" x2="730" y2="50" stroke="#cccccc" stroke-width="0.7" stroke-dasharray="4,5" filter="url(#rough)"/>
<text x="54" y="54" text-anchor="end" font-size="10" font-family="Georgia,serif" fill="#333333">1089K</text>
<text x="60" y="270" text-anchor="middle" font-size="11" font-family="Georgia,serif" fill="#333333" filter="url(#pencil)">1월</text>
<text x="174" y="270" text-anchor="middle" font-size="11" font-family="Georgia,serif" fill="#333333" filter="url(#pencil)">2월</text>
<text x="277" y="270" text-anchor="middle" font-size="11" font-family="Georgia,serif" fill="#333333" filter="url(#pencil)">3월</text>
<text x="391" y="270" text-anchor="middle" font-size="11" font-family="Georgia,serif" fill="#333333" filter="url(#pencil)">4월</text>
<text x="501" y="270" text-anchor="middle" font-size="11" font-family="Georgia,serif" fill="#333333" filter="url(#pencil)">5월</text>
<text x="615" y="270" text-anchor="middle" font-size="11" font-family="Georgia,serif" fill="#333333" filter="url(#pencil)">6월</text>
<text x="726" y="270" text-anchor="middle" font-size="11" font-family="Georgia,serif" fill="#333333" filter="url(#pencil)">7월</text>
<line x1="59" y1="42" x2="59" y2="256" stroke="#111111" stroke-width="2" filter="url(#pline)"/>
<line x1="52" y1="251" x2="738" y2="251" stroke="#111111" stroke-width="2" filter="url(#pline)"/>
<polygon points="60,250 60,250 63,250 67,250 71,250 74,250 78,250 82,250 85,250 89,250 93,250 96,250 100,250 104,250 107,250 111,250 115,250 118,250 122,247 126,247 129,247 133,247 137,247 140,247 144,245 148,244 152,243 155,237 159,237 163,237 166,236 170,230 174,228 177,228 181,228 185,227 188,227 192,220 196,220 199,219 203,219 207,219 210,219 214,219 218,219 221,219 225,219 229,219 233,219 236,219 240,219 244,218 247,218 251,218 255,218 258,218 262,218 266,217 269,215 273,214 277,211 280,209 284,209 288,209 291,209 295,209 299,209 302,209 306,209 310,209 314,209 317,209 321,208 325,208 328,208 332,206 336,205 339,205 343,202 347,201 350,201 354,201 358,193 361,193 365,193 369,188 372,181 376,176 380,176 383,175 387,175 391,175 395,174 398,174 402,174 406,174 409,174 413,174 417,174 420,174 424,174 428,174 431,174 435,170 439,170 442,170 446,170 450,168 453,167 457,162 461,162 464,162 468,160 472,160 475,159 479,158 483,156 487,155 490,155 494,155 498,155 501,155 505,155 509,155 512,155 516,155 520,154 523,154 527,154 531,154 534,154 538,154 542,154 545,154 549,154 553,152 556,152 560,151 564,151 568,149 571,146 575,144 579,140 582,137 586,134 590,132 593,130 597,128 601,126 604,124 608,121 612,119 615,118 619,116 623,115 626,113 630,112 634,110 637,107 641,106 645,101 649,97 652,96 656,95 660,92 663,91 667,90 671,89 674,88 678,87 682,85 685,82 689,71 693,65 696,60 700,55 704,53 707,52 711,52 715,51 718,51 722,51 726,51 730,50 730,250" fill="#e8e8e8" opacity="0.6"/>
<polyline points="60,250 63,250 67,250 71,250 74,250 78,250 82,250 85,250 89,250 93,250 96,250 100,250 104,250 107,250 111,250 115,250 118,250 122,247 126,247 129,247 133,247 137,247 140,247 144,245 148,244 152,243 155,237 159,237 163,237 166,236 170,230 174,228 177,228 181,228 185,227 188,227 192,220 196,220 199,219 203,219 207,219 210,219 214,219 218,219 221,219 225,219 229,219 233,219 236,219 240,219 244,218 247,218 251,218 255,218 258,218 262,218 266,217 269,215 273,214 277,211 280,209 284,209 288,209 291,209 295,209 299,209 302,209 306,209 310,209 314,209 317,209 321,208 325,208 328,208 332,206 336,205 339,205 343,202 347,201 350,201 354,201 358,193 361,193 365,193 369,188 372,181 376,176 380,176 383,175 387,175 391,175 395,174 398,174 402,174 406,174 409,174 413,174 417,174 420,174 424,174 428,174 431,174 435,170 439,170 442,170 446,170 450,168 453,167 457,162 461,162 464,162 468,160 472,160 475,159 479,158 483,156 487,155 490,155 494,155 498,155 501,155 505,155 509,155 512,155 516,155 520,154 523,154 527,154 531,154 534,154 538,154 542,154 545,154 549,154 553,152 556,152 560,151 564,151 568,149 571,146 575,144 579,140 582,137 586,134 590,132 593,130 597,128 601,126 604,124 608,121 612,119 615,118 619,116 623,115 626,113 630,112 634,110 637,107 641,106 645,101 649,97 652,96 656,95 660,92 663,91 667,90 671,89 674,88 678,87 682,85 685,82 689,71 693,65 696,60 700,55 704,53 707,52 711,52 715,51 718,51 722,51 726,51 730,50" fill="none" stroke="#111111" stroke-width="2.4" stroke-linejoin="round" stroke-linecap="round" filter="url(#pline)"/>
<circle cx="730" cy="50" r="4" fill="#111111" filter="url(#pencil)"/>
<text x="724" y="42" text-anchor="end" font-size="10" font-family="Georgia,serif" fill="#111111">1089K</text>
<text x="60" y="289" font-size="9" font-family="Georgia,serif" fill="#888888">기준: 2026-07-02 19:54</text>
</svg>