<svg xmlns="http://www.w3.org/2000/svg" width="760" height="295">
<defs><filter id="pencil" x="-5%" y="-5%" width="110%" height="110%"><feTurbulence type="fractalNoise" baseFrequency="0.9" numOctaves="4" seed="5" result="noise"/><feDisplacementMap in="SourceGraphic" in2="noise" scale="1.6" xChannelSelector="R" yChannelSelector="G"/></filter><filter id="pline" x="-2%" y="-30%" width="104%" height="160%"><feTurbulence type="fractalNoise" baseFrequency="0.015 0.9" numOctaves="3" seed="11" result="noise"/><feDisplacementMap in="SourceGraphic" in2="noise" scale="1.8" xChannelSelector="R" yChannelSelector="G"/></filter><filter id="rough" x="-5%" y="-5%" width="110%" height="110%"><feTurbulence type="turbulence" baseFrequency="0.05" numOctaves="2" seed="2" result="noise"/><feDisplacementMap in="SourceGraphic" in2="noise" scale="2" xChannelSelector="R" yChannelSelector="G"/></filter></defs>
<rect width="760" height="295" fill="#ffffff"/>
<text x="380" y="32" text-anchor="middle" font-size="14" font-weight="bold" font-family="Georgia,serif" fill="#111111" filter="url(#pencil)">Workload (6 months)</text>
<line x1="60" y1="250" x2="730" y2="250" stroke="#cccccc" stroke-width="0.7" stroke-dasharray="4,5" filter="url(#rough)"/>
<text x="54" y="254" text-anchor="end" font-size="10" font-family="Georgia,serif" fill="#333333">0</text>
<line x1="60" y1="200" x2="730" y2="200" stroke="#cccccc" stroke-width="0.7" stroke-dasharray="4,5" filter="url(#rough)"/>
<text x="54" y="204" text-anchor="end" font-size="10" font-family="Georgia,serif" fill="#333333">561K</text>
<line x1="60" y1="150" x2="730" y2="150" stroke="#cccccc" stroke-width="0.7" stroke-dasharray="4,5" filter="url(#rough)"/>
<text x="54" y="154" text-anchor="end" font-size="10" font-family="Georgia,serif" fill="#333333">1122K</text>
<line x1="60" y1="100" x2="730" y2="100" stroke="#cccccc" stroke-width="0.7" stroke-dasharray="4,5" filter="url(#rough)"/>
<text x="54" y="104" text-anchor="end" font-size="10" font-family="Georgia,serif" fill="#333333">1683K</text>
<line x1="60" y1="50" x2="730" y2="50" stroke="#cccccc" stroke-width="0.7" stroke-dasharray="4,5" filter="url(#rough)"/>
<text x="54" y="54" text-anchor="end" font-size="10" font-family="Georgia,serif" fill="#333333">2244K</text>
<text x="122" y="270" text-anchor="middle" font-size="11" font-family="Georgia,serif" fill="#333333" filter="url(#pencil)">2월</text>
<text x="225" y="270" text-anchor="middle" font-size="11" font-family="Georgia,serif" fill="#333333" filter="url(#pencil)">3월</text>
<text x="339" y="270" text-anchor="middle" font-size="11" font-family="Georgia,serif" fill="#333333" filter="url(#pencil)">4월</text>
<text x="450" y="270" text-anchor="middle" font-size="11" font-family="Georgia,serif" fill="#333333" filter="url(#pencil)">5월</text>
<text x="564" y="270" text-anchor="middle" font-size="11" font-family="Georgia,serif" fill="#333333" filter="url(#pencil)">6월</text>
<text x="674" y="270" text-anchor="middle" font-size="11" font-family="Georgia,serif" fill="#333333" filter="url(#pencil)">7월</text>
<line x1="59" y1="42" x2="59" y2="256" stroke="#111111" stroke-width="2" filter="url(#pline)"/>
<line x1="52" y1="251" x2="738" y2="251" stroke="#111111" stroke-width="2" filter="url(#pline)"/>
<polygon points="60,250 60,250 63,250 67,250 71,248 74,248 78,248 82,248 85,248 89,247 93,246 96,246 100,245 104,241 107,241 111,241 115,240 118,236 122,235 126,234 129,234 133,234 137,234 140,229 144,229 148,228 152,228 155,228 159,228 163,228 166,228 170,228 174,228 177,228 181,228 185,228 188,227 192,226 196,226 199,226 203,226 207,226 210,225 214,224 218,223 221,222 225,219 229,219 233,219 236,218 240,218 244,218 247,218 251,218 255,218 258,217 262,217 266,217 269,217 273,217 277,217 280,215 284,214 288,214 291,212 295,212 299,212 302,212 306,206 310,206 314,206 317,203 321,198 325,195 328,195 332,194 336,194 339,194 343,193 347,193 350,193 354,193 358,193 361,193 365,193 369,193 372,193 376,192 380,192 383,187 387,187 391,187 395,187 398,186 402,185 406,181 409,181 413,181 417,179 420,179 424,179 428,177 431,176 435,175 439,175 442,175 446,175 450,175 453,175 457,174 461,174 464,173 468,173 472,173 475,173 479,173 483,173 487,173 490,172 494,172 498,172 501,170 505,170 509,169 512,169 516,167 520,165 523,163 527,160 531,158 534,156 538,153 542,151 545,149 549,147 553,145 556,142 560,139 564,138 568,137 571,136 575,134 579,133 582,132 586,129 590,128 593,124 597,121 601,119 604,118 608,116 612,114 615,113 619,112 623,111 626,110 630,108 634,104 637,91 641,84 645,77 649,71 652,68 656,66 660,65 663,64 667,62 671,61 674,59 678,58 682,57 685,57 689,56 693,56 696,55 700,54 704,54 707,53 711,52 715,51 718,51 722,51 726,50 730,50 730,250" fill="#e8e8e8" opacity="0.6"/>
<polyline points="60,250 63,250 67,250 71,248 74,248 78,248 82,248 85,248 89,247 93,246 96,246 100,245 104,241 107,241 111,241 115,240 118,236 122,235 126,234 129,234 133,234 137,234 140,229 144,229 148,228 152,228 155,228 159,228 163,228 166,228 170,228 174,228 177,228 181,228 185,228 188,227 192,226 196,226 199,226 203,226 207,226 210,225 214,224 218,223 221,222 225,219 229,219 233,219 236,218 240,218 244,218 247,218 251,218 255,218 258,217 262,217 266,217 269,217 273,217 277,217 280,215 284,214 288,214 291,212 295,212 299,212 302,212 306,206 310,206 314,206 317,203 321,198 325,195 328,195 332,194 336,194 339,194 343,193 347,193 350,193 354,193 358,193 361,193 365,193 369,193 372,193 376,192 380,192 383,187 387,187 391,187 395,187 398,186 402,185 406,181 409,181 413,181 417,179 420,179 424,179 428,177 431,176 435,175 439,175 442,175 446,175 450,175 453,175 457,174 461,174 464,173 468,173 472,173 475,173 479,173 483,173 487,173 490,172 494,172 498,172 501,170 505,170 509,169 512,169 516,167 520,165 523,163 527,160 531,158 534,156 538,153 542,151 545,149 549,147 553,145 556,142 560,139 564,138 568,137 571,136 575,134 579,133 582,132 586,129 590,128 593,124 597,121 601,119 604,118 608,116 612,114 615,113 619,112 623,111 626,110 630,108 634,104 637,91 641,84 645,77 649,71 652,68 656,66 660,65 663,64 667,62 671,61 674,59 678,58 682,57 685,57 689,56 693,56 696,55 700,54 704,54 707,53 711,52 715,51 718,51 722,51 726,50 730,50" fill="none" stroke="#111111" stroke-width="2.4" stroke-linejoin="round" stroke-linecap="round" filter="url(#pline)"/>
<circle cx="730" cy="50" r="4" fill="#111111" filter="url(#pencil)"/>
<text x="724" y="42" text-anchor="end" font-size="10" font-family="Georgia,serif" fill="#111111">2244K</text>
<text x="60" y="289" font-size="9" font-family="Georgia,serif" fill="#888888">기준: 2026-07-16 03:41</text>
</svg>