<svg xmlns="http://www.w3.org/2000/svg" width="760" height="295">
<defs><filter id="pencil" x="-5%" y="-5%" width="110%" height="110%"><feTurbulence type="fractalNoise" baseFrequency="0.9" numOctaves="4" seed="5" result="noise"/><feDisplacementMap in="SourceGraphic" in2="noise" scale="1.6" xChannelSelector="R" yChannelSelector="G"/></filter><filter id="pline" x="-2%" y="-30%" width="104%" height="160%"><feTurbulence type="fractalNoise" baseFrequency="0.015 0.9" numOctaves="3" seed="11" result="noise"/><feDisplacementMap in="SourceGraphic" in2="noise" scale="1.8" xChannelSelector="R" yChannelSelector="G"/></filter><filter id="rough" x="-5%" y="-5%" width="110%" height="110%"><feTurbulence type="turbulence" baseFrequency="0.05" numOctaves="2" seed="2" result="noise"/><feDisplacementMap in="SourceGraphic" in2="noise" scale="2" xChannelSelector="R" yChannelSelector="G"/></filter></defs>
<rect width="760" height="295" fill="#ffffff"/>
<text x="380" y="32" text-anchor="middle" font-size="14" font-weight="bold" font-family="Georgia,serif" fill="#111111" filter="url(#pencil)">Workload (6 months)</text>
<line x1="60" y1="250" x2="730" y2="250" stroke="#cccccc" stroke-width="0.7" stroke-dasharray="4,5" filter="url(#rough)"/>
<text x="54" y="254" text-anchor="end" font-size="10" font-family="Georgia,serif" fill="#333333">0</text>
<line x1="60" y1="201" x2="730" y2="201" stroke="#cccccc" stroke-width="0.7" stroke-dasharray="4,5" filter="url(#rough)"/>
<text x="54" y="205" text-anchor="end" font-size="10" font-family="Georgia,serif" fill="#333333">95K</text>
<line x1="60" y1="150" x2="730" y2="150" stroke="#cccccc" stroke-width="0.7" stroke-dasharray="4,5" filter="url(#rough)"/>
<text x="54" y="154" text-anchor="end" font-size="10" font-family="Georgia,serif" fill="#333333">190K</text>
<line x1="60" y1="101" x2="730" y2="101" stroke="#cccccc" stroke-width="0.7" stroke-dasharray="4,5" filter="url(#rough)"/>
<text x="54" y="105" text-anchor="end" font-size="10" font-family="Georgia,serif" fill="#333333">285K</text>
<line x1="60" y1="50" x2="730" y2="50" stroke="#cccccc" stroke-width="0.7" stroke-dasharray="4,5" filter="url(#rough)"/>
<text x="54" y="54" text-anchor="end" font-size="10" font-family="Georgia,serif" fill="#333333">380K</text>
<text x="155" y="270" text-anchor="middle" font-size="11" font-family="Georgia,serif" fill="#333333" filter="url(#pencil)">1월</text>
<text x="269" y="270" text-anchor="middle" font-size="11" font-family="Georgia,serif" fill="#333333" filter="url(#pencil)">2월</text>
<text x="372" y="270" text-anchor="middle" font-size="11" font-family="Georgia,serif" fill="#333333" filter="url(#pencil)">3월</text>
<text x="487" y="270" text-anchor="middle" font-size="11" font-family="Georgia,serif" fill="#333333" filter="url(#pencil)">4월</text>
<text x="597" y="270" text-anchor="middle" font-size="11" font-family="Georgia,serif" fill="#333333" filter="url(#pencil)">5월</text>
<text x="711" y="270" text-anchor="middle" font-size="11" font-family="Georgia,serif" fill="#333333" filter="url(#pencil)">6월</text>
<line x1="59" y1="42" x2="59" y2="256" stroke="#111111" stroke-width="2" filter="url(#pline)"/>
<line x1="52" y1="251" x2="738" y2="251" stroke="#111111" stroke-width="2" filter="url(#pline)"/>
<polygon points="60,250 60,247 63,247 67,230 71,230 74,230 78,230 82,200 85,200 89,200 93,200 96,200 100,200 104,200 107,183 111,183 115,183 118,183 122,183 126,178 129,178 133,178 137,178 140,178 144,178 148,178 152,178 155,178 159,178 163,178 166,178 170,178 174,178 177,178 181,178 185,178 188,178 192,178 196,178 199,178 203,178 207,178 210,178 214,178 218,175 221,175 225,175 229,174 233,174 236,174 240,172 244,171 247,169 251,162 255,162 258,162 262,160 266,153 269,151 273,150 277,150 280,150 284,150 288,142 291,141 295,141 299,141 302,141 306,141 310,141 314,141 317,141 321,141 325,141 328,141 332,141 336,141 339,139 343,139 347,139 350,139 354,139 358,139 361,137 365,136 369,135 372,130 376,128 380,128 383,128 387,128 391,128 395,128 398,128 402,128 406,128 409,128 413,128 417,127 420,127 424,127 428,124 431,123 435,123 439,119 442,119 446,119 450,119 453,109 457,109 461,109 464,102 468,95 472,88 475,88 479,87 483,87 487,87 490,87 494,87 498,87 501,87 505,87 509,87 512,87 516,87 520,86 523,86 527,86 531,86 534,86 538,86 542,86 545,84 549,83 553,83 556,83 560,83 564,83 568,83 571,83 575,83 579,83 582,83 586,83 590,83 593,83 597,83 601,83 604,82 608,82 612,82 615,81 619,81 623,81 626,81 630,81 634,81 637,81 641,81 645,81 649,81 652,81 656,80 660,80 663,77 667,74 671,72 674,69 678,66 682,63 685,61 689,60 693,58 696,57 700,56 704,54 707,53 711,52 715,52 718,51 722,51 726,51 730,50 730,250" fill="#e8e8e8" opacity="0.6"/>
<polyline points="60,247 63,247 67,230 71,230 74,230 78,230 82,200 85,200 89,200 93,200 96,200 100,200 104,200 107,183 111,183 115,183 118,183 122,183 126,178 129,178 133,178 137,178 140,178 144,178 148,178 152,178 155,178 159,178 163,178 166,178 170,178 174,178 177,178 181,178 185,178 188,178 192,178 196,178 199,178 203,178 207,178 210,178 214,178 218,175 221,175 225,175 229,174 233,174 236,174 240,172 244,171 247,169 251,162 255,162 258,162 262,160 266,153 269,151 273,150 277,150 280,150 284,150 288,142 291,141 295,141 299,141 302,141 306,141 310,141 314,141 317,141 321,141 325,141 328,141 332,141 336,141 339,139 343,139 347,139 350,139 354,139 358,139 361,137 365,136 369,135 372,130 376,128 380,128 383,128 387,128 391,128 395,128 398,128 402,128 406,128 409,128 413,128 417,127 420,127 424,127 428,124 431,123 435,123 439,119 442,119 446,119 450,119 453,109 457,109 461,109 464,102 468,95 472,88 475,88 479,87 483,87 487,87 490,87 494,87 498,87 501,87 505,87 509,87 512,87 516,87 520,86 523,86 527,86 531,86 534,86 538,86 542,86 545,84 549,83 553,83 556,83 560,83 564,83 568,83 571,83 575,83 579,83 582,83 586,83 590,83 593,83 597,83 601,83 604,82 608,82 612,82 615,81 619,81 623,81 626,81 630,81 634,81 637,81 641,81 645,81 649,81 652,81 656,80 660,80 663,77 667,74 671,72 674,69 678,66 682,63 685,61 689,60 693,58 696,57 700,56 704,54 707,53 711,52 715,52 718,51 722,51 726,51 730,50" fill="none" stroke="#111111" stroke-width="2.4" stroke-linejoin="round" stroke-linecap="round" filter="url(#pline)"/>
<circle cx="730" cy="50" r="4" fill="#111111" filter="url(#pencil)"/>
<text x="724" y="42" text-anchor="end" font-size="10" font-family="Georgia,serif" fill="#111111">380K</text>
<text x="60" y="289" font-size="9" font-family="Georgia,serif" fill="#888888">기준: 2026-06-06 22:31</text>
</svg>