<svg xmlns="http://www.w3.org/2000/svg" width="760" height="295">
<defs><filter id="pencil" x="-5%" y="-5%" width="110%" height="110%"><feTurbulence type="fractalNoise" baseFrequency="0.9" numOctaves="4" seed="5" result="noise"/><feDisplacementMap in="SourceGraphic" in2="noise" scale="1.6" xChannelSelector="R" yChannelSelector="G"/></filter><filter id="pline" x="-2%" y="-30%" width="104%" height="160%"><feTurbulence type="fractalNoise" baseFrequency="0.015 0.9" numOctaves="3" seed="11" result="noise"/><feDisplacementMap in="SourceGraphic" in2="noise" scale="1.8" xChannelSelector="R" yChannelSelector="G"/></filter><filter id="rough" x="-5%" y="-5%" width="110%" height="110%"><feTurbulence type="turbulence" baseFrequency="0.05" numOctaves="2" seed="2" result="noise"/><feDisplacementMap in="SourceGraphic" in2="noise" scale="2" xChannelSelector="R" yChannelSelector="G"/></filter></defs>
<rect width="760" height="295" fill="#ffffff"/>
<text x="380" y="32" text-anchor="middle" font-size="14" font-weight="bold" font-family="Georgia,serif" fill="#111111" filter="url(#pencil)">Workload (6 months)</text>
<line x1="60" y1="250" x2="730" y2="250" stroke="#cccccc" stroke-width="0.7" stroke-dasharray="4,5" filter="url(#rough)"/>
<text x="54" y="254" text-anchor="end" font-size="10" font-family="Georgia,serif" fill="#333333">0</text>
<line x1="60" y1="200" x2="730" y2="200" stroke="#cccccc" stroke-width="0.7" stroke-dasharray="4,5" filter="url(#rough)"/>
<text x="54" y="204" text-anchor="end" font-size="10" font-family="Georgia,serif" fill="#333333">134K</text>
<line x1="60" y1="150" x2="730" y2="150" stroke="#cccccc" stroke-width="0.7" stroke-dasharray="4,5" filter="url(#rough)"/>
<text x="54" y="154" text-anchor="end" font-size="10" font-family="Georgia,serif" fill="#333333">269K</text>
<line x1="60" y1="100" x2="730" y2="100" stroke="#cccccc" stroke-width="0.7" stroke-dasharray="4,5" filter="url(#rough)"/>
<text x="54" y="104" text-anchor="end" font-size="10" font-family="Georgia,serif" fill="#333333">403K</text>
<line x1="60" y1="50" x2="730" y2="50" stroke="#cccccc" stroke-width="0.7" stroke-dasharray="4,5" filter="url(#rough)"/>
<text x="54" y="54" text-anchor="end" font-size="10" font-family="Georgia,serif" fill="#333333">538K</text>
<text x="100" y="270" text-anchor="middle" font-size="11" font-family="Georgia,serif" fill="#333333" filter="url(#pencil)">1월</text>
<text x="214" y="270" text-anchor="middle" font-size="11" font-family="Georgia,serif" fill="#333333" filter="url(#pencil)">2월</text>
<text x="317" y="270" text-anchor="middle" font-size="11" font-family="Georgia,serif" fill="#333333" filter="url(#pencil)">3월</text>
<text x="431" y="270" text-anchor="middle" font-size="11" font-family="Georgia,serif" fill="#333333" filter="url(#pencil)">4월</text>
<text x="542" y="270" text-anchor="middle" font-size="11" font-family="Georgia,serif" fill="#333333" filter="url(#pencil)">5월</text>
<text x="656" y="270" text-anchor="middle" font-size="11" font-family="Georgia,serif" fill="#333333" filter="url(#pencil)">6월</text>
<line x1="59" y1="42" x2="59" y2="256" stroke="#111111" stroke-width="2" filter="url(#pline)"/>
<line x1="52" y1="251" x2="738" y2="251" stroke="#111111" stroke-width="2" filter="url(#pline)"/>
<polygon points="60,250 60,250 63,250 67,250 71,245 74,245 78,245 82,245 85,245 89,245 93,245 96,245 100,245 104,245 107,245 111,245 115,245 118,245 122,245 126,245 129,245 133,245 137,245 140,245 144,245 148,245 152,245 155,245 159,245 163,241 166,241 170,241 174,240 177,240 181,240 185,237 188,236 192,234 196,226 199,226 203,226 207,223 210,214 214,212 218,211 221,211 225,211 229,211 233,200 236,200 240,199 244,199 247,199 251,199 255,199 258,199 262,199 266,199 269,199 273,199 277,199 280,199 284,197 288,197 291,197 295,197 299,197 302,197 306,195 310,193 314,192 317,186 321,184 325,184 328,184 332,184 336,184 339,184 343,184 347,184 350,184 354,184 358,184 361,183 365,183 369,183 372,179 376,178 380,178 383,173 387,172 391,172 395,172 398,160 402,160 406,160 409,153 413,143 417,136 420,135 424,134 428,134 431,134 435,134 439,134 442,134 446,134 450,134 453,134 457,134 461,134 464,133 468,133 472,133 475,132 479,132 483,132 487,132 490,129 494,128 498,127 501,127 505,127 509,127 512,127 516,126 520,126 523,126 527,126 531,126 534,126 538,126 542,126 545,126 549,125 553,125 556,125 560,124 564,124 568,124 571,124 575,124 579,124 582,124 586,124 590,124 593,124 597,124 601,123 604,122 608,118 612,115 615,112 619,108 623,104 626,100 630,97 634,94 637,91 641,89 645,86 649,83 652,81 656,79 660,77 663,76 667,74 671,72 674,70 678,68 682,66 685,61 689,58 693,57 696,56 700,54 704,53 707,53 711,52 715,52 718,51 722,51 726,51 730,50 730,250" fill="#e8e8e8" opacity="0.6"/>
<polyline points="60,250 63,250 67,250 71,245 74,245 78,245 82,245 85,245 89,245 93,245 96,245 100,245 104,245 107,245 111,245 115,245 118,245 122,245 126,245 129,245 133,245 137,245 140,245 144,245 148,245 152,245 155,245 159,245 163,241 166,241 170,241 174,240 177,240 181,240 185,237 188,236 192,234 196,226 199,226 203,226 207,223 210,214 214,212 218,211 221,211 225,211 229,211 233,200 236,200 240,199 244,199 247,199 251,199 255,199 258,199 262,199 266,199 269,199 273,199 277,199 280,199 284,197 288,197 291,197 295,197 299,197 302,197 306,195 310,193 314,192 317,186 321,184 325,184 328,184 332,184 336,184 339,184 343,184 347,184 350,184 354,184 358,184 361,183 365,183 369,183 372,179 376,178 380,178 383,173 387,172 391,172 395,172 398,160 402,160 406,160 409,153 413,143 417,136 420,135 424,134 428,134 431,134 435,134 439,134 442,134 446,134 450,134 453,134 457,134 461,134 464,133 468,133 472,133 475,132 479,132 483,132 487,132 490,129 494,128 498,127 501,127 505,127 509,127 512,127 516,126 520,126 523,126 527,126 531,126 534,126 538,126 542,126 545,126 549,125 553,125 556,125 560,124 564,124 568,124 571,124 575,124 579,124 582,124 586,124 590,124 593,124 597,124 601,123 604,122 608,118 612,115 615,112 619,108 623,104 626,100 630,97 634,94 637,91 641,89 645,86 649,83 652,81 656,79 660,77 663,76 667,74 671,72 674,70 678,68 682,66 685,61 689,58 693,57 696,56 700,54 704,53 707,53 711,52 715,52 718,51 722,51 726,51 730,50" fill="none" stroke="#111111" stroke-width="2.4" stroke-linejoin="round" stroke-linecap="round" filter="url(#pline)"/>
<circle cx="730" cy="50" r="4" fill="#111111" filter="url(#pencil)"/>
<text x="724" y="42" text-anchor="end" font-size="10" font-family="Georgia,serif" fill="#111111">538K</text>
<text x="60" y="289" font-size="9" font-family="Georgia,serif" fill="#888888">기준: 2026-06-21 10:06</text>
</svg>