<svg xmlns="http://www.w3.org/2000/svg" width="760" height="295">
<defs><filter id="pencil" x="-5%" y="-5%" width="110%" height="110%"><feTurbulence type="fractalNoise" baseFrequency="0.9" numOctaves="4" seed="5" result="noise"/><feDisplacementMap in="SourceGraphic" in2="noise" scale="1.6" xChannelSelector="R" yChannelSelector="G"/></filter><filter id="pline" x="-2%" y="-30%" width="104%" height="160%"><feTurbulence type="fractalNoise" baseFrequency="0.015 0.9" numOctaves="3" seed="11" result="noise"/><feDisplacementMap in="SourceGraphic" in2="noise" scale="1.8" xChannelSelector="R" yChannelSelector="G"/></filter><filter id="rough" x="-5%" y="-5%" width="110%" height="110%"><feTurbulence type="turbulence" baseFrequency="0.05" numOctaves="2" seed="2" result="noise"/><feDisplacementMap in="SourceGraphic" in2="noise" scale="2" xChannelSelector="R" yChannelSelector="G"/></filter></defs>
<rect width="760" height="295" fill="#ffffff"/>
<text x="380" y="32" text-anchor="middle" font-size="14" font-weight="bold" font-family="Georgia,serif" fill="#111111" filter="url(#pencil)">Workload (6 months)</text>
<line x1="60" y1="250" x2="730" y2="250" stroke="#cccccc" stroke-width="0.7" stroke-dasharray="4,5" filter="url(#rough)"/>
<text x="54" y="254" text-anchor="end" font-size="10" font-family="Georgia,serif" fill="#333333">0</text>
<line x1="60" y1="201" x2="730" y2="201" stroke="#cccccc" stroke-width="0.7" stroke-dasharray="4,5" filter="url(#rough)"/>
<text x="54" y="205" text-anchor="end" font-size="10" font-family="Georgia,serif" fill="#333333">43K</text>
<line x1="60" y1="151" x2="730" y2="151" stroke="#cccccc" stroke-width="0.7" stroke-dasharray="4,5" filter="url(#rough)"/>
<text x="54" y="155" text-anchor="end" font-size="10" font-family="Georgia,serif" fill="#333333">87K</text>
<line x1="60" y1="101" x2="730" y2="101" stroke="#cccccc" stroke-width="0.7" stroke-dasharray="4,5" filter="url(#rough)"/>
<text x="54" y="105" text-anchor="end" font-size="10" font-family="Georgia,serif" fill="#333333">130K</text>
<line x1="60" y1="50" x2="730" y2="50" stroke="#cccccc" stroke-width="0.7" stroke-dasharray="4,5" filter="url(#rough)"/>
<text x="54" y="54" text-anchor="end" font-size="10" font-family="Georgia,serif" fill="#333333">174K</text>
<text x="78" y="270" text-anchor="middle" font-size="11" font-family="Georgia,serif" fill="#333333" filter="url(#pencil)">12월</text>
<text x="192" y="270" text-anchor="middle" font-size="11" font-family="Georgia,serif" fill="#333333" filter="url(#pencil)">1월</text>
<text x="306" y="270" text-anchor="middle" font-size="11" font-family="Georgia,serif" fill="#333333" filter="url(#pencil)">2월</text>
<text x="409" y="270" text-anchor="middle" font-size="11" font-family="Georgia,serif" fill="#333333" filter="url(#pencil)">3월</text>
<text x="523" y="270" text-anchor="middle" font-size="11" font-family="Georgia,serif" fill="#333333" filter="url(#pencil)">4월</text>
<text x="634" y="270" text-anchor="middle" font-size="11" font-family="Georgia,serif" fill="#333333" filter="url(#pencil)">5월</text>
<line x1="59" y1="42" x2="59" y2="256" stroke="#111111" stroke-width="2" filter="url(#pline)"/>
<line x1="52" y1="251" x2="738" y2="251" stroke="#111111" stroke-width="2" filter="url(#pline)"/>
<polygon points="60,250 60,249 63,249 67,249 71,249 74,249 78,249 82,248 85,248 89,248 93,248 96,244 100,244 104,226 107,226 111,226 115,226 118,194 122,194 126,194 129,194 133,194 137,194 140,194 144,175 148,175 152,175 155,175 159,175 163,171 166,171 170,171 174,171 177,171 181,171 185,171 188,171 192,171 196,171 199,171 203,171 207,171 210,171 214,171 218,171 221,171 225,171 229,171 233,171 236,171 240,171 244,171 247,171 251,171 255,167 258,167 262,167 266,166 269,166 273,166 277,164 280,163 284,161 288,153 291,153 295,153 299,152 302,144 306,142 310,141 314,141 317,141 321,140 325,131 328,131 332,130 336,130 339,130 343,130 347,130 350,130 354,130 358,130 361,130 365,130 369,130 372,130 376,129 380,129 383,129 387,129 391,129 395,129 398,127 402,125 406,124 409,119 413,117 417,117 420,117 424,117 428,117 431,117 435,117 439,117 442,117 446,117 450,117 453,116 457,116 461,116 464,113 468,112 472,112 475,108 479,107 483,107 487,107 490,96 494,96 498,96 501,90 505,81 509,75 512,74 516,73 520,73 523,73 527,73 531,73 534,73 538,73 542,73 545,73 549,73 553,73 556,72 560,72 564,72 568,72 571,72 575,72 579,72 582,70 586,68 590,68 593,68 597,68 601,68 604,68 608,68 612,68 615,68 619,68 623,68 626,68 630,68 634,68 637,68 641,68 645,68 649,68 652,67 656,67 660,67 663,67 667,67 671,67 674,67 678,67 682,67 685,67 689,67 693,66 696,66 700,63 704,60 707,58 711,56 715,53 718,52 722,51 726,51 730,50 730,250" fill="#e8e8e8" opacity="0.6"/>
<polyline points="60,249 63,249 67,249 71,249 74,249 78,249 82,248 85,248 89,248 93,248 96,244 100,244 104,226 107,226 111,226 115,226 118,194 122,194 126,194 129,194 133,194 137,194 140,194 144,175 148,175 152,175 155,175 159,175 163,171 166,171 170,171 174,171 177,171 181,171 185,171 188,171 192,171 196,171 199,171 203,171 207,171 210,171 214,171 218,171 221,171 225,171 229,171 233,171 236,171 240,171 244,171 247,171 251,171 255,167 258,167 262,167 266,166 269,166 273,166 277,164 280,163 284,161 288,153 291,153 295,153 299,152 302,144 306,142 310,141 314,141 317,141 321,140 325,131 328,131 332,130 336,130 339,130 343,130 347,130 350,130 354,130 358,130 361,130 365,130 369,130 372,130 376,129 380,129 383,129 387,129 391,129 395,129 398,127 402,125 406,124 409,119 413,117 417,117 420,117 424,117 428,117 431,117 435,117 439,117 442,117 446,117 450,117 453,116 457,116 461,116 464,113 468,112 472,112 475,108 479,107 483,107 487,107 490,96 494,96 498,96 501,90 505,81 509,75 512,74 516,73 520,73 523,73 527,73 531,73 534,73 538,73 542,73 545,73 549,73 553,73 556,72 560,72 564,72 568,72 571,72 575,72 579,72 582,70 586,68 590,68 593,68 597,68 601,68 604,68 608,68 612,68 615,68 619,68 623,68 626,68 630,68 634,68 637,68 641,68 645,68 649,68 652,67 656,67 660,67 663,67 667,67 671,67 674,67 678,67 682,67 685,67 689,67 693,66 696,66 700,63 704,60 707,58 711,56 715,53 718,52 722,51 726,51 730,50" fill="none" stroke="#111111" stroke-width="2.4" stroke-linejoin="round" stroke-linecap="round" filter="url(#pline)"/>
<circle cx="730" cy="50" r="4" fill="#111111" filter="url(#pencil)"/>
<text x="724" y="42" text-anchor="end" font-size="10" font-family="Georgia,serif" fill="#111111">174K</text>
<text x="60" y="289" font-size="9" font-family="Georgia,serif" fill="#888888">기준: 2026-05-27 22:52</text>
</svg>