<svg xmlns="http://www.w3.org/2000/svg" width="760" height="295">
<defs><filter id="pencil" x="-5%" y="-5%" width="110%" height="110%"><feTurbulence type="fractalNoise" baseFrequency="0.9" numOctaves="4" seed="5" result="noise"/><feDisplacementMap in="SourceGraphic" in2="noise" scale="1.6" xChannelSelector="R" yChannelSelector="G"/></filter><filter id="pline" x="-2%" y="-30%" width="104%" height="160%"><feTurbulence type="fractalNoise" baseFrequency="0.015 0.9" numOctaves="3" seed="11" result="noise"/><feDisplacementMap in="SourceGraphic" in2="noise" scale="1.8" xChannelSelector="R" yChannelSelector="G"/></filter><filter id="rough" x="-5%" y="-5%" width="110%" height="110%"><feTurbulence type="turbulence" baseFrequency="0.05" numOctaves="2" seed="2" result="noise"/><feDisplacementMap in="SourceGraphic" in2="noise" scale="2" xChannelSelector="R" yChannelSelector="G"/></filter></defs>
<rect width="760" height="295" fill="#ffffff"/>
<text x="380" y="32" text-anchor="middle" font-size="14" font-weight="bold" font-family="Georgia,serif" fill="#111111" filter="url(#pencil)">Workload (6 months)</text>
<line x1="60" y1="250" x2="730" y2="250" stroke="#cccccc" stroke-width="0.7" stroke-dasharray="4,5" filter="url(#rough)"/>
<text x="54" y="254" text-anchor="end" font-size="10" font-family="Georgia,serif" fill="#333333">0</text>
<line x1="60" y1="200" x2="730" y2="200" stroke="#cccccc" stroke-width="0.7" stroke-dasharray="4,5" filter="url(#rough)"/>
<text x="54" y="204" text-anchor="end" font-size="10" font-family="Georgia,serif" fill="#333333">135K</text>
<line x1="60" y1="150" x2="730" y2="150" stroke="#cccccc" stroke-width="0.7" stroke-dasharray="4,5" filter="url(#rough)"/>
<text x="54" y="154" text-anchor="end" font-size="10" font-family="Georgia,serif" fill="#333333">270K</text>
<line x1="60" y1="100" x2="730" y2="100" stroke="#cccccc" stroke-width="0.7" stroke-dasharray="4,5" filter="url(#rough)"/>
<text x="54" y="104" text-anchor="end" font-size="10" font-family="Georgia,serif" fill="#333333">405K</text>
<line x1="60" y1="50" x2="730" y2="50" stroke="#cccccc" stroke-width="0.7" stroke-dasharray="4,5" filter="url(#rough)"/>
<text x="54" y="54" text-anchor="end" font-size="10" font-family="Georgia,serif" fill="#333333">540K</text>
<text x="107" y="270" text-anchor="middle" font-size="11" font-family="Georgia,serif" fill="#333333" filter="url(#pencil)">1월</text>
<text x="221" y="270" text-anchor="middle" font-size="11" font-family="Georgia,serif" fill="#333333" filter="url(#pencil)">2월</text>
<text x="325" y="270" text-anchor="middle" font-size="11" font-family="Georgia,serif" fill="#333333" filter="url(#pencil)">3월</text>
<text x="439" y="270" text-anchor="middle" font-size="11" font-family="Georgia,serif" fill="#333333" filter="url(#pencil)">4월</text>
<text x="549" y="270" text-anchor="middle" font-size="11" font-family="Georgia,serif" fill="#333333" filter="url(#pencil)">5월</text>
<text x="663" y="270" text-anchor="middle" font-size="11" font-family="Georgia,serif" fill="#333333" filter="url(#pencil)">6월</text>
<line x1="59" y1="42" x2="59" y2="256" stroke="#111111" stroke-width="2" filter="url(#pline)"/>
<line x1="52" y1="251" x2="738" y2="251" stroke="#111111" stroke-width="2" filter="url(#pline)"/>
<polygon points="60,250 60,230 63,230 67,230 71,230 74,230 78,225 82,225 85,225 89,225 93,225 96,225 100,225 104,225 107,225 111,225 115,225 118,225 122,225 126,225 129,225 133,225 137,225 140,225 144,225 148,225 152,225 155,225 159,225 163,225 166,225 170,221 174,221 177,221 181,221 185,221 188,220 192,218 196,216 199,215 203,207 207,207 210,207 214,205 218,196 221,194 225,193 229,193 233,193 236,192 240,183 244,182 247,182 251,182 255,182 258,182 262,182 266,182 269,182 273,182 277,182 280,182 284,182 288,182 291,180 295,180 299,180 302,180 306,180 310,180 314,178 317,176 321,175 325,170 328,168 332,168 336,168 339,168 343,168 347,168 350,168 354,168 358,168 361,168 365,168 369,166 372,166 376,166 380,163 383,162 387,162 391,158 395,157 398,157 402,157 406,145 409,145 413,145 417,138 420,129 424,122 428,121 431,121 435,120 439,120 442,120 446,120 450,120 453,120 457,120 461,120 464,120 468,120 472,120 475,120 479,120 483,120 487,120 490,120 494,120 498,117 501,116 505,116 509,116 512,116 516,116 520,116 523,116 527,116 531,116 534,116 538,116 542,116 545,116 549,116 553,116 556,115 560,115 564,115 568,114 571,114 575,114 579,114 582,114 586,114 590,114 593,114 597,114 601,114 604,114 608,113 612,112 615,109 619,106 623,102 626,99 630,95 634,92 637,89 641,87 645,84 649,82 652,80 656,77 660,74 663,73 667,71 671,70 674,68 678,67 682,65 685,63 689,62 693,57 696,55 700,54 704,53 707,52 711,51 715,51 718,51 722,51 726,51 730,50 730,250" fill="#e8e8e8" opacity="0.6"/>
<polyline points="60,230 63,230 67,230 71,230 74,230 78,225 82,225 85,225 89,225 93,225 96,225 100,225 104,225 107,225 111,225 115,225 118,225 122,225 126,225 129,225 133,225 137,225 140,225 144,225 148,225 152,225 155,225 159,225 163,225 166,225 170,221 174,221 177,221 181,221 185,221 188,220 192,218 196,216 199,215 203,207 207,207 210,207 214,205 218,196 221,194 225,193 229,193 233,193 236,192 240,183 244,182 247,182 251,182 255,182 258,182 262,182 266,182 269,182 273,182 277,182 280,182 284,182 288,182 291,180 295,180 299,180 302,180 306,180 310,180 314,178 317,176 321,175 325,170 328,168 332,168 336,168 339,168 343,168 347,168 350,168 354,168 358,168 361,168 365,168 369,166 372,166 376,166 380,163 383,162 387,162 391,158 395,157 398,157 402,157 406,145 409,145 413,145 417,138 420,129 424,122 428,121 431,121 435,120 439,120 442,120 446,120 450,120 453,120 457,120 461,120 464,120 468,120 472,120 475,120 479,120 483,120 487,120 490,120 494,120 498,117 501,116 505,116 509,116 512,116 516,116 520,116 523,116 527,116 531,116 534,116 538,116 542,116 545,116 549,116 553,116 556,115 560,115 564,115 568,114 571,114 575,114 579,114 582,114 586,114 590,114 593,114 597,114 601,114 604,114 608,113 612,112 615,109 619,106 623,102 626,99 630,95 634,92 637,89 641,87 645,84 649,82 652,80 656,77 660,74 663,73 667,71 671,70 674,68 678,67 682,65 685,63 689,62 693,57 696,55 700,54 704,53 707,52 711,51 715,51 718,51 722,51 726,51 730,50" fill="none" stroke="#111111" stroke-width="2.4" stroke-linejoin="round" stroke-linecap="round" filter="url(#pline)"/>
<circle cx="730" cy="50" r="4" fill="#111111" filter="url(#pencil)"/>
<text x="724" y="42" text-anchor="end" font-size="10" font-family="Georgia,serif" fill="#111111">540K</text>
<text x="60" y="289" font-size="9" font-family="Georgia,serif" fill="#888888">기준: 2026-06-19 15:44</text>
</svg>