<svg xmlns="http://www.w3.org/2000/svg" width="760" height="295">
<defs><filter id="pencil" x="-5%" y="-5%" width="110%" height="110%"><feTurbulence type="fractalNoise" baseFrequency="0.9" numOctaves="4" seed="5" result="noise"/><feDisplacementMap in="SourceGraphic" in2="noise" scale="1.6" xChannelSelector="R" yChannelSelector="G"/></filter><filter id="pline" x="-2%" y="-30%" width="104%" height="160%"><feTurbulence type="fractalNoise" baseFrequency="0.015 0.9" numOctaves="3" seed="11" result="noise"/><feDisplacementMap in="SourceGraphic" in2="noise" scale="1.8" xChannelSelector="R" yChannelSelector="G"/></filter><filter id="rough" x="-5%" y="-5%" width="110%" height="110%"><feTurbulence type="turbulence" baseFrequency="0.05" numOctaves="2" seed="2" result="noise"/><feDisplacementMap in="SourceGraphic" in2="noise" scale="2" xChannelSelector="R" yChannelSelector="G"/></filter></defs>
<rect width="760" height="295" fill="#ffffff"/>
<text x="380" y="32" text-anchor="middle" font-size="14" font-weight="bold" font-family="Georgia,serif" fill="#111111" filter="url(#pencil)">Workload (6 months)</text>
<line x1="60" y1="250" x2="730" y2="250" stroke="#cccccc" stroke-width="0.7" stroke-dasharray="4,5" filter="url(#rough)"/>
<text x="54" y="254" text-anchor="end" font-size="10" font-family="Georgia,serif" fill="#333333">0</text>
<line x1="60" y1="200" x2="730" y2="200" stroke="#cccccc" stroke-width="0.7" stroke-dasharray="4,5" filter="url(#rough)"/>
<text x="54" y="204" text-anchor="end" font-size="10" font-family="Georgia,serif" fill="#333333">148K</text>
<line x1="60" y1="150" x2="730" y2="150" stroke="#cccccc" stroke-width="0.7" stroke-dasharray="4,5" filter="url(#rough)"/>
<text x="54" y="154" text-anchor="end" font-size="10" font-family="Georgia,serif" fill="#333333">297K</text>
<line x1="60" y1="100" x2="730" y2="100" stroke="#cccccc" stroke-width="0.7" stroke-dasharray="4,5" filter="url(#rough)"/>
<text x="54" y="104" text-anchor="end" font-size="10" font-family="Georgia,serif" fill="#333333">446K</text>
<line x1="60" y1="50" x2="730" y2="50" stroke="#cccccc" stroke-width="0.7" stroke-dasharray="4,5" filter="url(#rough)"/>
<text x="54" y="54" text-anchor="end" font-size="10" font-family="Georgia,serif" fill="#333333">595K</text>
<text x="96" y="270" text-anchor="middle" font-size="11" font-family="Georgia,serif" fill="#333333" filter="url(#pencil)">1월</text>
<text x="210" y="270" text-anchor="middle" font-size="11" font-family="Georgia,serif" fill="#333333" filter="url(#pencil)">2월</text>
<text x="314" y="270" text-anchor="middle" font-size="11" font-family="Georgia,serif" fill="#333333" filter="url(#pencil)">3월</text>
<text x="428" y="270" text-anchor="middle" font-size="11" font-family="Georgia,serif" fill="#333333" filter="url(#pencil)">4월</text>
<text x="538" y="270" text-anchor="middle" font-size="11" font-family="Georgia,serif" fill="#333333" filter="url(#pencil)">5월</text>
<text x="652" y="270" text-anchor="middle" font-size="11" font-family="Georgia,serif" fill="#333333" filter="url(#pencil)">6월</text>
<line x1="59" y1="42" x2="59" y2="256" stroke="#111111" stroke-width="2" filter="url(#pline)"/>
<line x1="52" y1="251" x2="738" y2="251" stroke="#111111" stroke-width="2" filter="url(#pline)"/>
<polygon points="60,250 60,250 63,250 67,245 71,245 74,245 78,245 82,245 85,245 89,245 93,245 96,245 100,245 104,245 107,245 111,245 115,245 118,245 122,245 126,245 129,245 133,245 137,245 140,245 144,245 148,245 152,245 155,245 159,241 163,241 166,241 170,241 174,241 177,240 181,238 185,237 188,235 192,227 196,227 199,227 203,225 207,216 210,214 214,213 218,213 221,213 225,213 229,203 233,203 236,202 240,202 244,202 247,202 251,202 255,202 258,202 262,202 266,202 269,202 273,202 277,202 280,200 284,200 288,200 291,200 295,200 299,200 302,198 306,196 310,195 314,190 317,188 321,188 325,188 328,188 332,188 336,188 339,188 343,188 347,188 350,188 354,188 358,187 361,187 365,187 369,183 372,182 376,182 380,178 383,177 387,177 391,177 395,165 398,165 402,165 406,158 409,149 413,142 417,141 420,140 424,140 428,140 431,140 435,140 439,140 442,140 446,140 450,140 453,140 457,140 461,139 464,139 468,139 472,138 475,138 479,138 483,138 487,135 490,134 494,132 498,132 501,132 505,131 509,131 512,131 516,130 520,130 523,129 527,129 531,129 534,129 538,129 542,129 545,129 549,129 553,129 556,128 560,128 564,128 568,128 571,128 575,128 579,128 582,128 586,128 590,127 593,127 597,126 601,126 604,122 608,119 612,116 615,112 619,108 623,104 626,101 630,99 634,96 637,94 641,91 645,88 649,86 652,84 656,82 660,81 663,79 667,77 671,75 674,73 678,71 682,66 685,62 689,61 693,60 696,58 700,57 704,57 707,56 711,56 715,55 718,54 722,53 726,51 730,50 730,250" fill="#e8e8e8" opacity="0.6"/>
<polyline points="60,250 63,250 67,245 71,245 74,245 78,245 82,245 85,245 89,245 93,245 96,245 100,245 104,245 107,245 111,245 115,245 118,245 122,245 126,245 129,245 133,245 137,245 140,245 144,245 148,245 152,245 155,245 159,241 163,241 166,241 170,241 174,241 177,240 181,238 185,237 188,235 192,227 196,227 199,227 203,225 207,216 210,214 214,213 218,213 221,213 225,213 229,203 233,203 236,202 240,202 244,202 247,202 251,202 255,202 258,202 262,202 266,202 269,202 273,202 277,202 280,200 284,200 288,200 291,200 295,200 299,200 302,198 306,196 310,195 314,190 317,188 321,188 325,188 328,188 332,188 336,188 339,188 343,188 347,188 350,188 354,188 358,187 361,187 365,187 369,183 372,182 376,182 380,178 383,177 387,177 391,177 395,165 398,165 402,165 406,158 409,149 413,142 417,141 420,140 424,140 428,140 431,140 435,140 439,140 442,140 446,140 450,140 453,140 457,140 461,139 464,139 468,139 472,138 475,138 479,138 483,138 487,135 490,134 494,132 498,132 501,132 505,131 509,131 512,131 516,130 520,130 523,129 527,129 531,129 534,129 538,129 542,129 545,129 549,129 553,129 556,128 560,128 564,128 568,128 571,128 575,128 579,128 582,128 586,128 590,127 593,127 597,126 601,126 604,122 608,119 612,116 615,112 619,108 623,104 626,101 630,99 634,96 637,94 641,91 645,88 649,86 652,84 656,82 660,81 663,79 667,77 671,75 674,73 678,71 682,66 685,62 689,61 693,60 696,58 700,57 704,57 707,56 711,56 715,55 718,54 722,53 726,51 730,50" fill="none" stroke="#111111" stroke-width="2.4" stroke-linejoin="round" stroke-linecap="round" filter="url(#pline)"/>
<circle cx="730" cy="50" r="4" fill="#111111" filter="url(#pencil)"/>
<text x="724" y="42" text-anchor="end" font-size="10" font-family="Georgia,serif" fill="#111111">595K</text>
<text x="60" y="289" font-size="9" font-family="Georgia,serif" fill="#888888">기준: 2026-06-22 22:56</text>
</svg>