<svg xmlns="http://www.w3.org/2000/svg" width="760" height="295">
<defs><filter id="pencil" x="-5%" y="-5%" width="110%" height="110%"><feTurbulence type="fractalNoise" baseFrequency="0.9" numOctaves="4" seed="5" result="noise"/><feDisplacementMap in="SourceGraphic" in2="noise" scale="1.6" xChannelSelector="R" yChannelSelector="G"/></filter><filter id="pline" x="-2%" y="-30%" width="104%" height="160%"><feTurbulence type="fractalNoise" baseFrequency="0.015 0.9" numOctaves="3" seed="11" result="noise"/><feDisplacementMap in="SourceGraphic" in2="noise" scale="1.8" xChannelSelector="R" yChannelSelector="G"/></filter><filter id="rough" x="-5%" y="-5%" width="110%" height="110%"><feTurbulence type="turbulence" baseFrequency="0.05" numOctaves="2" seed="2" result="noise"/><feDisplacementMap in="SourceGraphic" in2="noise" scale="2" xChannelSelector="R" yChannelSelector="G"/></filter></defs>
<rect width="760" height="295" fill="#ffffff"/>
<text x="380" y="32" text-anchor="middle" font-size="14" font-weight="bold" font-family="Georgia,serif" fill="#111111" filter="url(#pencil)">Workload (6 months)</text>
<line x1="60" y1="250" x2="730" y2="250" stroke="#cccccc" stroke-width="0.7" stroke-dasharray="4,5" filter="url(#rough)"/>
<text x="54" y="254" text-anchor="end" font-size="10" font-family="Georgia,serif" fill="#333333">0</text>
<line x1="60" y1="201" x2="730" y2="201" stroke="#cccccc" stroke-width="0.7" stroke-dasharray="4,5" filter="url(#rough)"/>
<text x="54" y="205" text-anchor="end" font-size="10" font-family="Georgia,serif" fill="#333333">46K</text>
<line x1="60" y1="151" x2="730" y2="151" stroke="#cccccc" stroke-width="0.7" stroke-dasharray="4,5" filter="url(#rough)"/>
<text x="54" y="155" text-anchor="end" font-size="10" font-family="Georgia,serif" fill="#333333">92K</text>
<line x1="60" y1="101" x2="730" y2="101" stroke="#cccccc" stroke-width="0.7" stroke-dasharray="4,5" filter="url(#rough)"/>
<text x="54" y="105" text-anchor="end" font-size="10" font-family="Georgia,serif" fill="#333333">138K</text>
<line x1="60" y1="50" x2="730" y2="50" stroke="#cccccc" stroke-width="0.7" stroke-dasharray="4,5" filter="url(#rough)"/>
<text x="54" y="54" text-anchor="end" font-size="10" font-family="Georgia,serif" fill="#333333">184K</text>
<text x="74" y="270" text-anchor="middle" font-size="11" font-family="Georgia,serif" fill="#333333" filter="url(#pencil)">12월</text>
<text x="188" y="270" text-anchor="middle" font-size="11" font-family="Georgia,serif" fill="#333333" filter="url(#pencil)">1월</text>
<text x="302" y="270" text-anchor="middle" font-size="11" font-family="Georgia,serif" fill="#333333" filter="url(#pencil)">2월</text>
<text x="406" y="270" text-anchor="middle" font-size="11" font-family="Georgia,serif" fill="#333333" filter="url(#pencil)">3월</text>
<text x="520" y="270" text-anchor="middle" font-size="11" font-family="Georgia,serif" fill="#333333" filter="url(#pencil)">4월</text>
<text x="630" y="270" text-anchor="middle" font-size="11" font-family="Georgia,serif" fill="#333333" filter="url(#pencil)">5월</text>
<line x1="59" y1="42" x2="59" y2="256" stroke="#111111" stroke-width="2" filter="url(#pline)"/>
<line x1="52" y1="251" x2="738" y2="251" stroke="#111111" stroke-width="2" filter="url(#pline)"/>
<polygon points="60,250 60,250 63,250 67,250 71,250 74,250 78,250 82,250 85,250 89,250 93,245 96,245 100,228 104,228 107,228 111,228 115,196 118,196 122,196 126,196 129,196 133,196 137,196 140,177 144,177 148,177 152,177 155,177 159,172 163,172 166,172 170,172 174,172 177,172 181,172 185,172 188,172 192,172 196,172 199,172 203,172 207,172 210,172 214,172 218,172 221,172 225,172 229,172 233,172 236,172 240,172 244,172 247,172 251,168 255,168 258,168 262,168 266,168 269,167 273,165 277,164 280,163 284,155 288,155 291,155 295,153 299,145 302,143 306,142 310,142 314,142 317,142 321,133 325,132 328,132 332,132 336,132 339,132 343,132 347,132 350,132 354,132 358,132 361,132 365,132 369,132 372,130 376,130 380,130 383,130 387,130 391,130 395,128 398,126 402,125 406,120 409,119 413,119 417,118 420,118 424,118 428,118 431,118 435,118 439,118 442,118 446,118 450,117 453,117 457,117 461,114 464,113 468,113 472,109 475,108 479,108 483,108 487,97 490,97 494,97 498,91 501,82 505,76 509,75 512,74 516,74 520,74 523,74 527,74 531,74 534,74 538,74 542,74 545,74 549,74 553,73 556,73 560,73 564,73 568,73 571,73 575,73 579,71 582,70 586,70 590,70 593,70 597,70 601,70 604,70 608,70 612,70 615,70 619,70 623,70 626,70 630,70 634,70 637,69 641,69 645,69 649,68 652,68 656,68 660,68 663,68 667,68 671,68 674,68 678,68 682,68 685,68 689,67 693,67 696,64 700,61 704,58 707,56 711,54 715,52 718,51 722,51 726,51 730,50 730,250" fill="#e8e8e8" opacity="0.6"/>
<polyline points="60,250 63,250 67,250 71,250 74,250 78,250 82,250 85,250 89,250 93,245 96,245 100,228 104,228 107,228 111,228 115,196 118,196 122,196 126,196 129,196 133,196 137,196 140,177 144,177 148,177 152,177 155,177 159,172 163,172 166,172 170,172 174,172 177,172 181,172 185,172 188,172 192,172 196,172 199,172 203,172 207,172 210,172 214,172 218,172 221,172 225,172 229,172 233,172 236,172 240,172 244,172 247,172 251,168 255,168 258,168 262,168 266,168 269,167 273,165 277,164 280,163 284,155 288,155 291,155 295,153 299,145 302,143 306,142 310,142 314,142 317,142 321,133 325,132 328,132 332,132 336,132 339,132 343,132 347,132 350,132 354,132 358,132 361,132 365,132 369,132 372,130 376,130 380,130 383,130 387,130 391,130 395,128 398,126 402,125 406,120 409,119 413,119 417,118 420,118 424,118 428,118 431,118 435,118 439,118 442,118 446,118 450,117 453,117 457,117 461,114 464,113 468,113 472,109 475,108 479,108 483,108 487,97 490,97 494,97 498,91 501,82 505,76 509,75 512,74 516,74 520,74 523,74 527,74 531,74 534,74 538,74 542,74 545,74 549,74 553,73 556,73 560,73 564,73 568,73 571,73 575,73 579,71 582,70 586,70 590,70 593,70 597,70 601,70 604,70 608,70 612,70 615,70 619,70 623,70 626,70 630,70 634,70 637,69 641,69 645,69 649,68 652,68 656,68 660,68 663,68 667,68 671,68 674,68 678,68 682,68 685,68 689,67 693,67 696,64 700,61 704,58 707,56 711,54 715,52 718,51 722,51 726,51 730,50" fill="none" stroke="#111111" stroke-width="2.4" stroke-linejoin="round" stroke-linecap="round" filter="url(#pline)"/>
<circle cx="730" cy="50" r="4" fill="#111111" filter="url(#pencil)"/>
<text x="724" y="42" text-anchor="end" font-size="10" font-family="Georgia,serif" fill="#111111">184K</text>
<text x="60" y="289" font-size="9" font-family="Georgia,serif" fill="#888888">기준: 2026-05-28 16:35</text>
</svg>