<svg xmlns="http://www.w3.org/2000/svg" width="760" height="295">
<defs><filter id="pencil" x="-5%" y="-5%" width="110%" height="110%"><feTurbulence type="fractalNoise" baseFrequency="0.9" numOctaves="4" seed="5" result="noise"/><feDisplacementMap in="SourceGraphic" in2="noise" scale="1.6" xChannelSelector="R" yChannelSelector="G"/></filter><filter id="pline" x="-2%" y="-30%" width="104%" height="160%"><feTurbulence type="fractalNoise" baseFrequency="0.015 0.9" numOctaves="3" seed="11" result="noise"/><feDisplacementMap in="SourceGraphic" in2="noise" scale="1.8" xChannelSelector="R" yChannelSelector="G"/></filter><filter id="rough" x="-5%" y="-5%" width="110%" height="110%"><feTurbulence type="turbulence" baseFrequency="0.05" numOctaves="2" seed="2" result="noise"/><feDisplacementMap in="SourceGraphic" in2="noise" scale="2" xChannelSelector="R" yChannelSelector="G"/></filter></defs>
<rect width="760" height="295" fill="#ffffff"/>
<text x="380" y="32" text-anchor="middle" font-size="14" font-weight="bold" font-family="Georgia,serif" fill="#111111" filter="url(#pencil)">Workload (6 months)</text>
<line x1="60" y1="250" x2="730" y2="250" stroke="#cccccc" stroke-width="0.7" stroke-dasharray="4,5" filter="url(#rough)"/>
<text x="54" y="254" text-anchor="end" font-size="10" font-family="Georgia,serif" fill="#333333">0</text>
<line x1="60" y1="200" x2="730" y2="200" stroke="#cccccc" stroke-width="0.7" stroke-dasharray="4,5" filter="url(#rough)"/>
<text x="54" y="204" text-anchor="end" font-size="10" font-family="Georgia,serif" fill="#333333">101K</text>
<line x1="60" y1="150" x2="730" y2="150" stroke="#cccccc" stroke-width="0.7" stroke-dasharray="4,5" filter="url(#rough)"/>
<text x="54" y="154" text-anchor="end" font-size="10" font-family="Georgia,serif" fill="#333333">202K</text>
<line x1="60" y1="100" x2="730" y2="100" stroke="#cccccc" stroke-width="0.7" stroke-dasharray="4,5" filter="url(#rough)"/>
<text x="54" y="104" text-anchor="end" font-size="10" font-family="Georgia,serif" fill="#333333">303K</text>
<line x1="60" y1="50" x2="730" y2="50" stroke="#cccccc" stroke-width="0.7" stroke-dasharray="4,5" filter="url(#rough)"/>
<text x="54" y="54" text-anchor="end" font-size="10" font-family="Georgia,serif" fill="#333333">404K</text>
<text x="129" y="270" text-anchor="middle" font-size="11" font-family="Georgia,serif" fill="#333333" filter="url(#pencil)">1월</text>
<text x="244" y="270" text-anchor="middle" font-size="11" font-family="Georgia,serif" fill="#333333" filter="url(#pencil)">2월</text>
<text x="347" y="270" text-anchor="middle" font-size="11" font-family="Georgia,serif" fill="#333333" filter="url(#pencil)">3월</text>
<text x="461" y="270" text-anchor="middle" font-size="11" font-family="Georgia,serif" fill="#333333" filter="url(#pencil)">4월</text>
<text x="571" y="270" text-anchor="middle" font-size="11" font-family="Georgia,serif" fill="#333333" filter="url(#pencil)">5월</text>
<text x="685" y="270" text-anchor="middle" font-size="11" font-family="Georgia,serif" fill="#333333" filter="url(#pencil)">6월</text>
<line x1="59" y1="42" x2="59" y2="256" stroke="#111111" stroke-width="2" filter="url(#pline)"/>
<line x1="52" y1="251" x2="738" y2="251" stroke="#111111" stroke-width="2" filter="url(#pline)"/>
<polygon points="60,250 60,250 63,250 67,250 71,250 74,250 78,250 82,228 85,228 89,228 93,228 96,228 100,223 104,223 107,223 111,223 115,223 118,223 122,223 126,223 129,223 133,223 137,223 140,223 144,223 148,223 152,223 155,223 159,223 163,223 166,223 170,223 174,223 177,223 181,223 185,223 188,223 192,218 196,218 199,218 203,218 207,218 210,218 214,215 218,214 221,212 225,203 229,203 233,203 236,201 240,192 244,190 247,189 251,189 255,188 258,188 262,178 266,177 269,177 273,177 277,177 280,177 284,177 288,177 291,177 295,177 299,177 302,177 306,177 310,177 314,174 317,174 321,174 325,174 328,174 332,174 336,172 339,170 343,169 347,163 350,161 354,161 358,161 361,161 365,161 369,161 372,161 376,161 380,161 383,161 387,161 391,160 395,160 398,160 402,156 406,155 409,155 413,150 417,149 420,149 424,149 428,137 431,137 435,137 439,129 442,119 446,112 450,111 453,110 457,110 461,110 464,110 468,110 472,110 475,110 479,110 483,110 487,110 490,110 494,109 498,109 501,109 505,109 509,109 512,109 516,109 520,106 523,105 527,105 531,105 534,105 538,105 542,105 545,105 549,105 553,105 556,105 560,105 564,105 568,105 571,105 575,105 579,104 582,104 586,104 590,103 593,103 597,103 601,103 604,103 608,103 612,103 615,103 619,103 623,103 626,103 630,102 634,101 637,98 641,94 645,91 649,88 652,84 656,80 660,77 663,75 667,72 671,70 674,68 678,65 682,63 685,62 689,61 693,60 696,58 700,57 704,56 707,55 711,54 715,52 718,51 722,51 726,50 730,50 730,250" fill="#e8e8e8" opacity="0.6"/>
<polyline points="60,250 63,250 67,250 71,250 74,250 78,250 82,228 85,228 89,228 93,228 96,228 100,223 104,223 107,223 111,223 115,223 118,223 122,223 126,223 129,223 133,223 137,223 140,223 144,223 148,223 152,223 155,223 159,223 163,223 166,223 170,223 174,223 177,223 181,223 185,223 188,223 192,218 196,218 199,218 203,218 207,218 210,218 214,215 218,214 221,212 225,203 229,203 233,203 236,201 240,192 244,190 247,189 251,189 255,188 258,188 262,178 266,177 269,177 273,177 277,177 280,177 284,177 288,177 291,177 295,177 299,177 302,177 306,177 310,177 314,174 317,174 321,174 325,174 328,174 332,174 336,172 339,170 343,169 347,163 350,161 354,161 358,161 361,161 365,161 369,161 372,161 376,161 380,161 383,161 387,161 391,160 395,160 398,160 402,156 406,155 409,155 413,150 417,149 420,149 424,149 428,137 431,137 435,137 439,129 442,119 446,112 450,111 453,110 457,110 461,110 464,110 468,110 472,110 475,110 479,110 483,110 487,110 490,110 494,109 498,109 501,109 505,109 509,109 512,109 516,109 520,106 523,105 527,105 531,105 534,105 538,105 542,105 545,105 549,105 553,105 556,105 560,105 564,105 568,105 571,105 575,105 579,104 582,104 586,104 590,103 593,103 597,103 601,103 604,103 608,103 612,103 615,103 619,103 623,103 626,103 630,102 634,101 637,98 641,94 645,91 649,88 652,84 656,80 660,77 663,75 667,72 671,70 674,68 678,65 682,63 685,62 689,61 693,60 696,58 700,57 704,56 707,55 711,54 715,52 718,51 722,51 726,50 730,50" fill="none" stroke="#111111" stroke-width="2.4" stroke-linejoin="round" stroke-linecap="round" filter="url(#pline)"/>
<circle cx="730" cy="50" r="4" fill="#111111" filter="url(#pencil)"/>
<text x="724" y="42" text-anchor="end" font-size="10" font-family="Georgia,serif" fill="#111111">404K</text>
<text x="60" y="289" font-size="9" font-family="Georgia,serif" fill="#888888">기준: 2026-06-13 04:54</text>
</svg>