<svg xmlns="http://www.w3.org/2000/svg" width="760" height="295">
<defs><filter id="pencil" x="-5%" y="-5%" width="110%" height="110%"><feTurbulence type="fractalNoise" baseFrequency="0.9" numOctaves="4" seed="5" result="noise"/><feDisplacementMap in="SourceGraphic" in2="noise" scale="1.6" xChannelSelector="R" yChannelSelector="G"/></filter><filter id="pline" x="-2%" y="-30%" width="104%" height="160%"><feTurbulence type="fractalNoise" baseFrequency="0.015 0.9" numOctaves="3" seed="11" result="noise"/><feDisplacementMap in="SourceGraphic" in2="noise" scale="1.8" xChannelSelector="R" yChannelSelector="G"/></filter><filter id="rough" x="-5%" y="-5%" width="110%" height="110%"><feTurbulence type="turbulence" baseFrequency="0.05" numOctaves="2" seed="2" result="noise"/><feDisplacementMap in="SourceGraphic" in2="noise" scale="2" xChannelSelector="R" yChannelSelector="G"/></filter></defs>
<rect width="760" height="295" fill="#ffffff"/>
<text x="380" y="32" text-anchor="middle" font-size="14" font-weight="bold" font-family="Georgia,serif" fill="#111111" filter="url(#pencil)">Workload (6 months)</text>
<line x1="60" y1="250" x2="730" y2="250" stroke="#cccccc" stroke-width="0.7" stroke-dasharray="4,5" filter="url(#rough)"/>
<text x="54" y="254" text-anchor="end" font-size="10" font-family="Georgia,serif" fill="#333333">0</text>
<line x1="60" y1="201" x2="730" y2="201" stroke="#cccccc" stroke-width="0.7" stroke-dasharray="4,5" filter="url(#rough)"/>
<text x="54" y="205" text-anchor="end" font-size="10" font-family="Georgia,serif" fill="#333333">30K</text>
<line x1="60" y1="151" x2="730" y2="151" stroke="#cccccc" stroke-width="0.7" stroke-dasharray="4,5" filter="url(#rough)"/>
<text x="54" y="155" text-anchor="end" font-size="10" font-family="Georgia,serif" fill="#333333">60K</text>
<line x1="60" y1="101" x2="730" y2="101" stroke="#cccccc" stroke-width="0.7" stroke-dasharray="4,5" filter="url(#rough)"/>
<text x="54" y="105" text-anchor="end" font-size="10" font-family="Georgia,serif" fill="#333333">91K</text>
<line x1="60" y1="50" x2="730" y2="50" stroke="#cccccc" stroke-width="0.7" stroke-dasharray="4,5" filter="url(#rough)"/>
<text x="54" y="54" text-anchor="end" font-size="10" font-family="Georgia,serif" fill="#333333">121K</text>
<text x="89" y="270" text-anchor="middle" font-size="11" font-family="Georgia,serif" fill="#333333" filter="url(#pencil)">12월</text>
<text x="203" y="270" text-anchor="middle" font-size="11" font-family="Georgia,serif" fill="#333333" filter="url(#pencil)">1월</text>
<text x="317" y="270" text-anchor="middle" font-size="11" font-family="Georgia,serif" fill="#333333" filter="url(#pencil)">2월</text>
<text x="420" y="270" text-anchor="middle" font-size="11" font-family="Georgia,serif" fill="#333333" filter="url(#pencil)">3월</text>
<text x="534" y="270" text-anchor="middle" font-size="11" font-family="Georgia,serif" fill="#333333" filter="url(#pencil)">4월</text>
<text x="645" y="270" text-anchor="middle" font-size="11" font-family="Georgia,serif" fill="#333333" filter="url(#pencil)">5월</text>
<line x1="59" y1="42" x2="59" y2="256" stroke="#111111" stroke-width="2" filter="url(#pline)"/>
<line x1="52" y1="251" x2="738" y2="251" stroke="#111111" stroke-width="2" filter="url(#pline)"/>
<polygon points="60,250 60,249 63,248 67,246 71,244 74,244 78,244 82,244 85,244 89,244 93,244 96,244 100,244 104,243 107,239 111,239 115,222 118,222 122,222 126,222 129,190 133,190 137,190 140,190 144,190 148,190 152,190 155,171 159,171 163,171 166,171 170,171 174,166 177,166 181,166 185,166 188,166 192,166 196,166 199,166 203,166 207,166 210,166 214,166 218,166 221,166 225,166 229,166 233,166 236,166 240,166 244,166 247,166 251,166 255,166 258,166 262,166 266,162 269,162 273,162 277,162 280,162 284,161 288,159 291,158 295,157 299,149 302,149 306,149 310,147 314,139 317,137 321,136 325,136 328,136 332,136 336,127 339,126 343,126 347,126 350,126 354,126 358,126 361,126 365,126 369,126 372,126 376,126 380,126 383,126 387,124 391,124 395,124 398,124 402,124 406,124 409,122 413,120 417,119 420,114 424,113 428,113 431,113 435,113 439,113 442,113 446,113 450,113 453,113 457,113 461,113 464,111 468,111 472,111 475,108 479,107 483,107 487,103 490,102 494,102 498,102 501,92 505,92 509,92 512,85 516,76 520,70 523,69 527,68 531,68 534,68 538,68 542,68 545,68 549,68 553,68 556,68 560,68 564,68 568,68 571,68 575,68 579,68 582,68 586,68 590,68 593,65 597,64 601,64 604,64 608,64 612,64 615,64 619,64 623,64 626,64 630,64 634,64 637,64 641,64 645,64 649,64 652,63 656,63 660,63 663,62 667,62 671,62 674,62 678,62 682,62 685,62 689,62 693,62 696,62 700,62 704,61 707,61 711,58 715,55 718,54 722,52 726,51 730,50 730,250" fill="#e8e8e8" opacity="0.6"/>
<polyline points="60,249 63,248 67,246 71,244 74,244 78,244 82,244 85,244 89,244 93,244 96,244 100,244 104,243 107,239 111,239 115,222 118,222 122,222 126,222 129,190 133,190 137,190 140,190 144,190 148,190 152,190 155,171 159,171 163,171 166,171 170,171 174,166 177,166 181,166 185,166 188,166 192,166 196,166 199,166 203,166 207,166 210,166 214,166 218,166 221,166 225,166 229,166 233,166 236,166 240,166 244,166 247,166 251,166 255,166 258,166 262,166 266,162 269,162 273,162 277,162 280,162 284,161 288,159 291,158 295,157 299,149 302,149 306,149 310,147 314,139 317,137 321,136 325,136 328,136 332,136 336,127 339,126 343,126 347,126 350,126 354,126 358,126 361,126 365,126 369,126 372,126 376,126 380,126 383,126 387,124 391,124 395,124 398,124 402,124 406,124 409,122 413,120 417,119 420,114 424,113 428,113 431,113 435,113 439,113 442,113 446,113 450,113 453,113 457,113 461,113 464,111 468,111 472,111 475,108 479,107 483,107 487,103 490,102 494,102 498,102 501,92 505,92 509,92 512,85 516,76 520,70 523,69 527,68 531,68 534,68 538,68 542,68 545,68 549,68 553,68 556,68 560,68 564,68 568,68 571,68 575,68 579,68 582,68 586,68 590,68 593,65 597,64 601,64 604,64 608,64 612,64 615,64 619,64 623,64 626,64 630,64 634,64 637,64 641,64 645,64 649,64 652,63 656,63 660,63 663,62 667,62 671,62 674,62 678,62 682,62 685,62 689,62 693,62 696,62 700,62 704,61 707,61 711,58 715,55 718,54 722,52 726,51 730,50" fill="none" stroke="#111111" stroke-width="2.4" stroke-linejoin="round" stroke-linecap="round" filter="url(#pline)"/>
<circle cx="730" cy="50" r="4" fill="#111111" filter="url(#pencil)"/>
<text x="724" y="42" text-anchor="end" font-size="10" font-family="Georgia,serif" fill="#111111">121K</text>
<text x="60" y="289" font-size="9" font-family="Georgia,serif" fill="#888888">기준: 2026-05-24 22:13</text>
</svg>