<svg xmlns="http://www.w3.org/2000/svg" width="760" height="295">
<defs><filter id="pencil" x="-5%" y="-5%" width="110%" height="110%"><feTurbulence type="fractalNoise" baseFrequency="0.9" numOctaves="4" seed="5" result="noise"/><feDisplacementMap in="SourceGraphic" in2="noise" scale="1.6" xChannelSelector="R" yChannelSelector="G"/></filter><filter id="pline" x="-2%" y="-30%" width="104%" height="160%"><feTurbulence type="fractalNoise" baseFrequency="0.015 0.9" numOctaves="3" seed="11" result="noise"/><feDisplacementMap in="SourceGraphic" in2="noise" scale="1.8" xChannelSelector="R" yChannelSelector="G"/></filter><filter id="rough" x="-5%" y="-5%" width="110%" height="110%"><feTurbulence type="turbulence" baseFrequency="0.05" numOctaves="2" seed="2" result="noise"/><feDisplacementMap in="SourceGraphic" in2="noise" scale="2" xChannelSelector="R" yChannelSelector="G"/></filter></defs>
<rect width="760" height="295" fill="#ffffff"/>
<text x="380" y="32" text-anchor="middle" font-size="14" font-weight="bold" font-family="Georgia,serif" fill="#111111" filter="url(#pencil)">Workload (6 months)</text>
<line x1="60" y1="250" x2="730" y2="250" stroke="#cccccc" stroke-width="0.7" stroke-dasharray="4,5" filter="url(#rough)"/>
<text x="54" y="254" text-anchor="end" font-size="10" font-family="Georgia,serif" fill="#333333">0</text>
<line x1="60" y1="201" x2="730" y2="201" stroke="#cccccc" stroke-width="0.7" stroke-dasharray="4,5" filter="url(#rough)"/>
<text x="54" y="205" text-anchor="end" font-size="10" font-family="Georgia,serif" fill="#333333">212K</text>
<line x1="60" y1="151" x2="730" y2="151" stroke="#cccccc" stroke-width="0.7" stroke-dasharray="4,5" filter="url(#rough)"/>
<text x="54" y="155" text-anchor="end" font-size="10" font-family="Georgia,serif" fill="#333333">424K</text>
<line x1="60" y1="101" x2="730" y2="101" stroke="#cccccc" stroke-width="0.7" stroke-dasharray="4,5" filter="url(#rough)"/>
<text x="54" y="105" text-anchor="end" font-size="10" font-family="Georgia,serif" fill="#333333">636K</text>
<line x1="60" y1="50" x2="730" y2="50" stroke="#cccccc" stroke-width="0.7" stroke-dasharray="4,5" filter="url(#rough)"/>
<text x="54" y="54" text-anchor="end" font-size="10" font-family="Georgia,serif" fill="#333333">848K</text>
<text x="74" y="270" text-anchor="middle" font-size="11" font-family="Georgia,serif" fill="#333333" filter="url(#pencil)">1월</text>
<text x="188" y="270" text-anchor="middle" font-size="11" font-family="Georgia,serif" fill="#333333" filter="url(#pencil)">2월</text>
<text x="291" y="270" text-anchor="middle" font-size="11" font-family="Georgia,serif" fill="#333333" filter="url(#pencil)">3월</text>
<text x="406" y="270" text-anchor="middle" font-size="11" font-family="Georgia,serif" fill="#333333" filter="url(#pencil)">4월</text>
<text x="516" y="270" text-anchor="middle" font-size="11" font-family="Georgia,serif" fill="#333333" filter="url(#pencil)">5월</text>
<text x="630" y="270" text-anchor="middle" font-size="11" font-family="Georgia,serif" fill="#333333" filter="url(#pencil)">6월</text>
<line x1="59" y1="42" x2="59" y2="256" stroke="#111111" stroke-width="2" filter="url(#pline)"/>
<line x1="52" y1="251" x2="738" y2="251" stroke="#111111" stroke-width="2" filter="url(#pline)"/>
<polygon points="60,250 60,250 63,250 67,250 71,250 74,250 78,250 82,250 85,250 89,250 93,250 96,250 100,250 104,250 107,250 111,250 115,250 118,250 122,250 126,250 129,250 133,250 137,247 140,247 144,247 148,247 152,247 155,246 159,244 163,243 166,242 170,235 174,235 177,235 181,234 185,227 188,225 192,224 196,224 199,224 203,224 207,216 210,215 214,215 218,215 221,215 225,215 229,215 233,215 236,215 240,215 244,215 247,215 251,215 255,215 258,213 262,213 266,213 269,213 273,213 277,213 280,212 284,210 288,209 291,205 295,203 299,203 302,203 306,203 310,203 314,203 317,203 321,203 325,203 328,203 332,203 336,202 339,202 343,202 347,199 350,198 354,198 358,195 361,194 365,194 369,194 372,185 376,185 380,185 383,179 387,171 391,165 395,165 398,164 402,164 406,164 409,163 413,163 417,163 420,163 424,163 428,163 431,163 435,163 439,163 442,163 446,163 450,160 453,160 457,160 461,160 464,157 468,156 472,152 475,152 479,152 483,151 487,150 490,150 494,149 498,147 501,147 505,147 509,147 512,147 516,147 520,147 523,147 527,147 531,147 534,146 538,146 542,146 545,146 549,145 553,145 556,145 560,145 564,145 568,144 571,144 575,143 579,143 582,140 586,137 590,134 593,131 597,127 601,124 604,121 608,119 612,117 615,115 619,112 623,110 626,107 630,106 634,104 637,103 641,101 645,100 649,98 652,95 656,94 660,88 663,85 667,84 671,82 674,80 678,79 682,78 685,77 689,76 693,75 696,74 700,71 704,63 707,58 711,55 715,52 718,51 722,51 726,51 730,50 730,250" fill="#e8e8e8" opacity="0.6"/>
<polyline points="60,250 63,250 67,250 71,250 74,250 78,250 82,250 85,250 89,250 93,250 96,250 100,250 104,250 107,250 111,250 115,250 118,250 122,250 126,250 129,250 133,250 137,247 140,247 144,247 148,247 152,247 155,246 159,244 163,243 166,242 170,235 174,235 177,235 181,234 185,227 188,225 192,224 196,224 199,224 203,224 207,216 210,215 214,215 218,215 221,215 225,215 229,215 233,215 236,215 240,215 244,215 247,215 251,215 255,215 258,213 262,213 266,213 269,213 273,213 277,213 280,212 284,210 288,209 291,205 295,203 299,203 302,203 306,203 310,203 314,203 317,203 321,203 325,203 328,203 332,203 336,202 339,202 343,202 347,199 350,198 354,198 358,195 361,194 365,194 369,194 372,185 376,185 380,185 383,179 387,171 391,165 395,165 398,164 402,164 406,164 409,163 413,163 417,163 420,163 424,163 428,163 431,163 435,163 439,163 442,163 446,163 450,160 453,160 457,160 461,160 464,157 468,156 472,152 475,152 479,152 483,151 487,150 490,150 494,149 498,147 501,147 505,147 509,147 512,147 516,147 520,147 523,147 527,147 531,147 534,146 538,146 542,146 545,146 549,145 553,145 556,145 560,145 564,145 568,144 571,144 575,143 579,143 582,140 586,137 590,134 593,131 597,127 601,124 604,121 608,119 612,117 615,115 619,112 623,110 626,107 630,106 634,104 637,103 641,101 645,100 649,98 652,95 656,94 660,88 663,85 667,84 671,82 674,80 678,79 682,78 685,77 689,76 693,75 696,74 700,71 704,63 707,58 711,55 715,52 718,51 722,51 726,51 730,50" fill="none" stroke="#111111" stroke-width="2.4" stroke-linejoin="round" stroke-linecap="round" filter="url(#pline)"/>
<circle cx="730" cy="50" r="4" fill="#111111" filter="url(#pencil)"/>
<text x="724" y="42" text-anchor="end" font-size="10" font-family="Georgia,serif" fill="#111111">848K</text>
<text x="60" y="289" font-size="9" font-family="Georgia,serif" fill="#888888">기준: 2026-06-28 09:33</text>
</svg>