<svg xmlns="http://www.w3.org/2000/svg" width="760" height="295">
<defs><filter id="pencil" x="-5%" y="-5%" width="110%" height="110%"><feTurbulence type="fractalNoise" baseFrequency="0.9" numOctaves="4" seed="5" result="noise"/><feDisplacementMap in="SourceGraphic" in2="noise" scale="1.6" xChannelSelector="R" yChannelSelector="G"/></filter><filter id="pline" x="-2%" y="-30%" width="104%" height="160%"><feTurbulence type="fractalNoise" baseFrequency="0.015 0.9" numOctaves="3" seed="11" result="noise"/><feDisplacementMap in="SourceGraphic" in2="noise" scale="1.8" xChannelSelector="R" yChannelSelector="G"/></filter><filter id="rough" x="-5%" y="-5%" width="110%" height="110%"><feTurbulence type="turbulence" baseFrequency="0.05" numOctaves="2" seed="2" result="noise"/><feDisplacementMap in="SourceGraphic" in2="noise" scale="2" xChannelSelector="R" yChannelSelector="G"/></filter></defs>
<rect width="760" height="295" fill="#ffffff"/>
<text x="380" y="32" text-anchor="middle" font-size="14" font-weight="bold" font-family="Georgia,serif" fill="#111111" filter="url(#pencil)">Workload (6 months)</text>
<line x1="60" y1="250" x2="730" y2="250" stroke="#cccccc" stroke-width="0.7" stroke-dasharray="4,5" filter="url(#rough)"/>
<text x="54" y="254" text-anchor="end" font-size="10" font-family="Georgia,serif" fill="#333333">0</text>
<line x1="60" y1="200" x2="730" y2="200" stroke="#cccccc" stroke-width="0.7" stroke-dasharray="4,5" filter="url(#rough)"/>
<text x="54" y="204" text-anchor="end" font-size="10" font-family="Georgia,serif" fill="#333333">169K</text>
<line x1="60" y1="150" x2="730" y2="150" stroke="#cccccc" stroke-width="0.7" stroke-dasharray="4,5" filter="url(#rough)"/>
<text x="54" y="154" text-anchor="end" font-size="10" font-family="Georgia,serif" fill="#333333">339K</text>
<line x1="60" y1="100" x2="730" y2="100" stroke="#cccccc" stroke-width="0.7" stroke-dasharray="4,5" filter="url(#rough)"/>
<text x="54" y="104" text-anchor="end" font-size="10" font-family="Georgia,serif" fill="#333333">509K</text>
<line x1="60" y1="50" x2="730" y2="50" stroke="#cccccc" stroke-width="0.7" stroke-dasharray="4,5" filter="url(#rough)"/>
<text x="54" y="54" text-anchor="end" font-size="10" font-family="Georgia,serif" fill="#333333">679K</text>
<text x="85" y="270" text-anchor="middle" font-size="11" font-family="Georgia,serif" fill="#333333" filter="url(#pencil)">1월</text>
<text x="199" y="270" text-anchor="middle" font-size="11" font-family="Georgia,serif" fill="#333333" filter="url(#pencil)">2월</text>
<text x="302" y="270" text-anchor="middle" font-size="11" font-family="Georgia,serif" fill="#333333" filter="url(#pencil)">3월</text>
<text x="417" y="270" text-anchor="middle" font-size="11" font-family="Georgia,serif" fill="#333333" filter="url(#pencil)">4월</text>
<text x="527" y="270" text-anchor="middle" font-size="11" font-family="Georgia,serif" fill="#333333" filter="url(#pencil)">5월</text>
<text x="641" y="270" text-anchor="middle" font-size="11" font-family="Georgia,serif" fill="#333333" filter="url(#pencil)">6월</text>
<line x1="59" y1="42" x2="59" y2="256" stroke="#111111" stroke-width="2" filter="url(#pline)"/>
<line x1="52" y1="251" x2="738" y2="251" stroke="#111111" stroke-width="2" filter="url(#pline)"/>
<polygon points="60,250 60,250 63,250 67,250 71,250 74,250 78,250 82,250 85,250 89,250 93,250 96,250 100,250 104,250 107,250 111,250 115,250 118,250 122,250 126,250 129,250 133,250 137,250 140,250 144,250 148,246 152,246 155,246 159,246 163,246 166,246 170,243 174,242 177,241 181,233 185,233 188,233 192,231 196,223 199,221 203,220 207,220 210,220 214,220 218,211 221,210 225,210 229,210 233,210 236,210 240,210 244,210 247,210 251,210 255,210 258,210 262,210 266,210 269,208 273,208 277,208 280,208 284,208 288,208 291,206 295,204 299,203 302,198 306,197 310,197 314,197 317,197 321,197 325,197 328,197 332,197 336,197 339,197 343,197 347,195 350,195 354,195 358,192 361,191 365,191 369,187 372,186 376,186 380,186 383,176 387,176 391,176 395,169 398,160 402,154 406,153 409,152 413,152 417,152 420,152 424,152 428,152 431,152 435,152 439,152 442,152 446,152 450,151 453,151 457,151 461,149 464,149 468,149 472,149 475,146 479,145 483,142 487,142 490,142 494,141 498,141 501,140 505,140 509,138 512,138 516,138 520,138 523,138 527,138 531,138 534,138 538,138 542,138 545,137 549,137 553,137 556,137 560,136 564,136 568,136 571,136 575,136 579,135 582,135 586,134 590,134 593,131 597,128 601,125 604,121 608,117 612,113 615,111 619,108 623,106 626,103 630,101 634,98 637,95 641,94 645,92 649,91 652,89 656,87 660,85 663,82 667,81 671,75 674,72 678,71 682,70 685,67 689,66 693,66 696,65 700,64 704,64 707,63 711,60 715,55 718,53 722,51 726,50 730,50 730,250" fill="#e8e8e8" opacity="0.6"/>
<polyline points="60,250 63,250 67,250 71,250 74,250 78,250 82,250 85,250 89,250 93,250 96,250 100,250 104,250 107,250 111,250 115,250 118,250 122,250 126,250 129,250 133,250 137,250 140,250 144,250 148,246 152,246 155,246 159,246 163,246 166,246 170,243 174,242 177,241 181,233 185,233 188,233 192,231 196,223 199,221 203,220 207,220 210,220 214,220 218,211 221,210 225,210 229,210 233,210 236,210 240,210 244,210 247,210 251,210 255,210 258,210 262,210 266,210 269,208 273,208 277,208 280,208 284,208 288,208 291,206 295,204 299,203 302,198 306,197 310,197 314,197 317,197 321,197 325,197 328,197 332,197 336,197 339,197 343,197 347,195 350,195 354,195 358,192 361,191 365,191 369,187 372,186 376,186 380,186 383,176 387,176 391,176 395,169 398,160 402,154 406,153 409,152 413,152 417,152 420,152 424,152 428,152 431,152 435,152 439,152 442,152 446,152 450,151 453,151 457,151 461,149 464,149 468,149 472,149 475,146 479,145 483,142 487,142 490,142 494,141 498,141 501,140 505,140 509,138 512,138 516,138 520,138 523,138 527,138 531,138 534,138 538,138 542,138 545,137 549,137 553,137 556,137 560,136 564,136 568,136 571,136 575,136 579,135 582,135 586,134 590,134 593,131 597,128 601,125 604,121 608,117 612,113 615,111 619,108 623,106 626,103 630,101 634,98 637,95 641,94 645,92 649,91 652,89 656,87 660,85 663,82 667,81 671,75 674,72 678,71 682,70 685,67 689,66 693,66 696,65 700,64 704,64 707,63 711,60 715,55 718,53 722,51 726,50 730,50" fill="none" stroke="#111111" stroke-width="2.4" stroke-linejoin="round" stroke-linecap="round" filter="url(#pline)"/>
<circle cx="730" cy="50" r="4" fill="#111111" filter="url(#pencil)"/>
<text x="724" y="42" text-anchor="end" font-size="10" font-family="Georgia,serif" fill="#111111">679K</text>
<text x="60" y="289" font-size="9" font-family="Georgia,serif" fill="#888888">기준: 2026-06-25 04:35</text>
</svg>