<svg xmlns="http://www.w3.org/2000/svg" width="760" height="295">
<defs><filter id="pencil" x="-5%" y="-5%" width="110%" height="110%"><feTurbulence type="fractalNoise" baseFrequency="0.9" numOctaves="4" seed="5" result="noise"/><feDisplacementMap in="SourceGraphic" in2="noise" scale="1.6" xChannelSelector="R" yChannelSelector="G"/></filter><filter id="pline" x="-2%" y="-30%" width="104%" height="160%"><feTurbulence type="fractalNoise" baseFrequency="0.015 0.9" numOctaves="3" seed="11" result="noise"/><feDisplacementMap in="SourceGraphic" in2="noise" scale="1.8" xChannelSelector="R" yChannelSelector="G"/></filter><filter id="rough" x="-5%" y="-5%" width="110%" height="110%"><feTurbulence type="turbulence" baseFrequency="0.05" numOctaves="2" seed="2" result="noise"/><feDisplacementMap in="SourceGraphic" in2="noise" scale="2" xChannelSelector="R" yChannelSelector="G"/></filter></defs>
<rect width="760" height="295" fill="#ffffff"/>
<text x="380" y="32" text-anchor="middle" font-size="14" font-weight="bold" font-family="Georgia,serif" fill="#111111" filter="url(#pencil)">Workload (6 months)</text>
<line x1="60" y1="250" x2="730" y2="250" stroke="#cccccc" stroke-width="0.7" stroke-dasharray="4,5" filter="url(#rough)"/>
<text x="54" y="254" text-anchor="end" font-size="10" font-family="Georgia,serif" fill="#333333">0</text>
<line x1="60" y1="201" x2="730" y2="201" stroke="#cccccc" stroke-width="0.7" stroke-dasharray="4,5" filter="url(#rough)"/>
<text x="54" y="205" text-anchor="end" font-size="10" font-family="Georgia,serif" fill="#333333">23K</text>
<line x1="60" y1="151" x2="730" y2="151" stroke="#cccccc" stroke-width="0.7" stroke-dasharray="4,5" filter="url(#rough)"/>
<text x="54" y="155" text-anchor="end" font-size="10" font-family="Georgia,serif" fill="#333333">46K</text>
<line x1="60" y1="101" x2="730" y2="101" stroke="#cccccc" stroke-width="0.7" stroke-dasharray="4,5" filter="url(#rough)"/>
<text x="54" y="105" text-anchor="end" font-size="10" font-family="Georgia,serif" fill="#333333">69K</text>
<line x1="60" y1="50" x2="730" y2="50" stroke="#cccccc" stroke-width="0.7" stroke-dasharray="4,5" filter="url(#rough)"/>
<text x="54" y="54" text-anchor="end" font-size="10" font-family="Georgia,serif" fill="#333333">92K</text>
<text x="93" y="270" text-anchor="middle" font-size="11" font-family="Georgia,serif" fill="#333333" filter="url(#pencil)">12월</text>
<text x="207" y="270" text-anchor="middle" font-size="11" font-family="Georgia,serif" fill="#333333" filter="url(#pencil)">1월</text>
<text x="321" y="270" text-anchor="middle" font-size="11" font-family="Georgia,serif" fill="#333333" filter="url(#pencil)">2월</text>
<text x="424" y="270" text-anchor="middle" font-size="11" font-family="Georgia,serif" fill="#333333" filter="url(#pencil)">3월</text>
<text x="538" y="270" text-anchor="middle" font-size="11" font-family="Georgia,serif" fill="#333333" filter="url(#pencil)">4월</text>
<text x="649" y="270" text-anchor="middle" font-size="11" font-family="Georgia,serif" fill="#333333" filter="url(#pencil)">5월</text>
<line x1="59" y1="42" x2="59" y2="256" stroke="#111111" stroke-width="2" filter="url(#pline)"/>
<line x1="52" y1="251" x2="738" y2="251" stroke="#111111" stroke-width="2" filter="url(#pline)"/>
<polygon points="60,250 60,244 63,243 67,242 71,240 74,238 78,238 82,238 85,238 89,238 93,238 96,238 100,238 104,238 107,237 111,233 115,233 118,216 122,216 126,216 129,216 133,185 137,185 140,185 144,185 148,185 152,185 155,185 159,166 163,166 166,166 170,166 174,166 177,161 181,161 185,161 188,161 192,161 196,161 199,161 203,161 207,161 210,161 214,161 218,161 221,161 225,161 229,161 233,161 236,161 240,161 244,161 247,161 251,161 255,161 258,161 262,161 266,161 269,157 273,157 277,157 280,157 284,157 288,157 291,154 295,153 299,152 302,144 306,144 310,144 314,143 317,135 321,133 325,132 328,132 332,132 336,131 339,123 343,122 347,122 350,122 354,122 358,122 361,122 365,122 369,122 372,122 376,122 380,122 383,122 387,122 391,120 395,120 398,120 402,120 406,120 409,120 413,118 417,116 420,115 424,110 428,109 431,109 435,109 439,109 442,109 446,109 450,109 453,109 457,109 461,109 464,109 468,107 472,107 475,107 479,104 483,103 487,103 490,99 494,99 498,99 501,99 505,88 509,88 512,88 516,81 520,73 523,67 527,66 531,65 534,65 538,65 542,65 545,65 549,65 553,65 556,65 560,65 564,65 568,65 571,65 575,65 579,65 582,65 586,65 590,65 593,65 597,62 601,61 604,61 608,61 612,61 615,61 619,61 623,61 626,61 630,61 634,61 637,61 641,61 645,61 649,61 652,61 656,60 660,60 663,60 667,59 671,59 674,59 678,59 682,59 685,59 689,59 693,59 696,59 700,59 704,59 707,58 711,58 715,55 718,53 722,52 726,51 730,50 730,250" fill="#e8e8e8" opacity="0.6"/>
<polyline points="60,244 63,243 67,242 71,240 74,238 78,238 82,238 85,238 89,238 93,238 96,238 100,238 104,238 107,237 111,233 115,233 118,216 122,216 126,216 129,216 133,185 137,185 140,185 144,185 148,185 152,185 155,185 159,166 163,166 166,166 170,166 174,166 177,161 181,161 185,161 188,161 192,161 196,161 199,161 203,161 207,161 210,161 214,161 218,161 221,161 225,161 229,161 233,161 236,161 240,161 244,161 247,161 251,161 255,161 258,161 262,161 266,161 269,157 273,157 277,157 280,157 284,157 288,157 291,154 295,153 299,152 302,144 306,144 310,144 314,143 317,135 321,133 325,132 328,132 332,132 336,131 339,123 343,122 347,122 350,122 354,122 358,122 361,122 365,122 369,122 372,122 376,122 380,122 383,122 387,122 391,120 395,120 398,120 402,120 406,120 409,120 413,118 417,116 420,115 424,110 428,109 431,109 435,109 439,109 442,109 446,109 450,109 453,109 457,109 461,109 464,109 468,107 472,107 475,107 479,104 483,103 487,103 490,99 494,99 498,99 501,99 505,88 509,88 512,88 516,81 520,73 523,67 527,66 531,65 534,65 538,65 542,65 545,65 549,65 553,65 556,65 560,65 564,65 568,65 571,65 575,65 579,65 582,65 586,65 590,65 593,65 597,62 601,61 604,61 608,61 612,61 615,61 619,61 623,61 626,61 630,61 634,61 637,61 641,61 645,61 649,61 652,61 656,60 660,60 663,60 667,59 671,59 674,59 678,59 682,59 685,59 689,59 693,59 696,59 700,59 704,59 707,58 711,58 715,55 718,53 722,52 726,51 730,50" fill="none" stroke="#111111" stroke-width="2.4" stroke-linejoin="round" stroke-linecap="round" filter="url(#pline)"/>
<circle cx="730" cy="50" r="4" fill="#111111" filter="url(#pencil)"/>
<text x="724" y="42" text-anchor="end" font-size="10" font-family="Georgia,serif" fill="#111111">92K</text>
<text x="60" y="289" font-size="9" font-family="Georgia,serif" fill="#888888">기준: 2026-05-23 16:15</text>
</svg>