<svg xmlns="http://www.w3.org/2000/svg" width="760" height="295">
<defs><filter id="pencil" x="-5%" y="-5%" width="110%" height="110%"><feTurbulence type="fractalNoise" baseFrequency="0.9" numOctaves="4" seed="5" result="noise"/><feDisplacementMap in="SourceGraphic" in2="noise" scale="1.6" xChannelSelector="R" yChannelSelector="G"/></filter><filter id="pline" x="-2%" y="-30%" width="104%" height="160%"><feTurbulence type="fractalNoise" baseFrequency="0.015 0.9" numOctaves="3" seed="11" result="noise"/><feDisplacementMap in="SourceGraphic" in2="noise" scale="1.8" xChannelSelector="R" yChannelSelector="G"/></filter><filter id="rough" x="-5%" y="-5%" width="110%" height="110%"><feTurbulence type="turbulence" baseFrequency="0.05" numOctaves="2" seed="2" result="noise"/><feDisplacementMap in="SourceGraphic" in2="noise" scale="2" xChannelSelector="R" yChannelSelector="G"/></filter></defs>
<rect width="760" height="295" fill="#ffffff"/>
<text x="380" y="32" text-anchor="middle" font-size="14" font-weight="bold" font-family="Georgia,serif" fill="#111111" filter="url(#pencil)">Workload (6 months)</text>
<line x1="60" y1="250" x2="730" y2="250" stroke="#cccccc" stroke-width="0.7" stroke-dasharray="4,5" filter="url(#rough)"/>
<text x="54" y="254" text-anchor="end" font-size="10" font-family="Georgia,serif" fill="#333333">0</text>
<line x1="60" y1="201" x2="730" y2="201" stroke="#cccccc" stroke-width="0.7" stroke-dasharray="4,5" filter="url(#rough)"/>
<text x="54" y="205" text-anchor="end" font-size="10" font-family="Georgia,serif" fill="#333333">73K</text>
<line x1="60" y1="151" x2="730" y2="151" stroke="#cccccc" stroke-width="0.7" stroke-dasharray="4,5" filter="url(#rough)"/>
<text x="54" y="155" text-anchor="end" font-size="10" font-family="Georgia,serif" fill="#333333">147K</text>
<line x1="60" y1="101" x2="730" y2="101" stroke="#cccccc" stroke-width="0.7" stroke-dasharray="4,5" filter="url(#rough)"/>
<text x="54" y="105" text-anchor="end" font-size="10" font-family="Georgia,serif" fill="#333333">220K</text>
<line x1="60" y1="50" x2="730" y2="50" stroke="#cccccc" stroke-width="0.7" stroke-dasharray="4,5" filter="url(#rough)"/>
<text x="54" y="54" text-anchor="end" font-size="10" font-family="Georgia,serif" fill="#333333">294K</text>
<text x="170" y="270" text-anchor="middle" font-size="11" font-family="Georgia,serif" fill="#333333" filter="url(#pencil)">1월</text>
<text x="284" y="270" text-anchor="middle" font-size="11" font-family="Georgia,serif" fill="#333333" filter="url(#pencil)">2월</text>
<text x="387" y="270" text-anchor="middle" font-size="11" font-family="Georgia,serif" fill="#333333" filter="url(#pencil)">3월</text>
<text x="501" y="270" text-anchor="middle" font-size="11" font-family="Georgia,serif" fill="#333333" filter="url(#pencil)">4월</text>
<text x="612" y="270" text-anchor="middle" font-size="11" font-family="Georgia,serif" fill="#333333" filter="url(#pencil)">5월</text>
<text x="726" y="270" text-anchor="middle" font-size="11" font-family="Georgia,serif" fill="#333333" filter="url(#pencil)">6월</text>
<line x1="59" y1="42" x2="59" y2="256" stroke="#111111" stroke-width="2" filter="url(#pline)"/>
<line x1="52" y1="251" x2="738" y2="251" stroke="#111111" stroke-width="2" filter="url(#pline)"/>
<polygon points="60,250 60,250 63,250 67,250 71,250 74,246 78,246 82,229 85,229 89,229 93,229 96,198 100,198 104,198 107,198 111,198 115,198 118,198 122,180 126,180 129,180 133,180 137,180 140,175 144,175 148,175 152,175 155,175 159,175 163,175 166,175 170,175 174,175 177,175 181,175 185,175 188,175 192,175 196,175 199,175 203,175 207,175 210,175 214,175 218,175 221,175 225,175 229,175 233,172 236,172 240,172 244,171 247,171 251,171 255,169 258,168 262,166 266,159 269,159 273,159 277,157 280,149 284,148 288,147 291,147 295,147 299,146 302,138 306,137 310,137 314,137 317,137 321,137 325,137 328,137 332,137 336,137 339,137 343,137 347,137 350,137 354,135 358,135 361,135 365,135 369,135 372,135 376,133 380,131 383,130 387,126 391,124 395,124 398,124 402,124 406,124 409,124 413,124 417,124 420,124 424,124 428,124 431,123 435,123 439,123 442,120 446,119 450,119 453,115 457,114 461,114 464,114 468,104 472,104 475,104 479,97 483,89 487,83 490,83 494,82 498,82 501,82 505,82 509,82 512,82 516,82 520,82 523,82 527,82 531,82 534,81 538,81 542,81 545,81 549,81 553,81 556,81 560,78 564,77 568,77 571,77 575,77 579,77 582,77 586,77 590,77 593,77 597,77 601,77 604,77 608,77 612,77 615,77 619,77 623,77 626,77 630,76 634,76 637,76 641,76 645,76 649,76 652,76 656,76 660,76 663,76 667,76 671,75 674,74 678,71 682,69 685,66 689,64 693,61 696,58 700,57 704,55 707,54 711,53 715,52 718,51 722,51 726,51 730,50 730,250" fill="#e8e8e8" opacity="0.6"/>
<polyline points="60,250 63,250 67,250 71,250 74,246 78,246 82,229 85,229 89,229 93,229 96,198 100,198 104,198 107,198 111,198 115,198 118,198 122,180 126,180 129,180 133,180 137,180 140,175 144,175 148,175 152,175 155,175 159,175 163,175 166,175 170,175 174,175 177,175 181,175 185,175 188,175 192,175 196,175 199,175 203,175 207,175 210,175 214,175 218,175 221,175 225,175 229,175 233,172 236,172 240,172 244,171 247,171 251,171 255,169 258,168 262,166 266,159 269,159 273,159 277,157 280,149 284,148 288,147 291,147 295,147 299,146 302,138 306,137 310,137 314,137 317,137 321,137 325,137 328,137 332,137 336,137 339,137 343,137 347,137 350,137 354,135 358,135 361,135 365,135 369,135 372,135 376,133 380,131 383,130 387,126 391,124 395,124 398,124 402,124 406,124 409,124 413,124 417,124 420,124 424,124 428,124 431,123 435,123 439,123 442,120 446,119 450,119 453,115 457,114 461,114 464,114 468,104 472,104 475,104 479,97 483,89 487,83 490,83 494,82 498,82 501,82 505,82 509,82 512,82 516,82 520,82 523,82 527,82 531,82 534,81 538,81 542,81 545,81 549,81 553,81 556,81 560,78 564,77 568,77 571,77 575,77 579,77 582,77 586,77 590,77 593,77 597,77 601,77 604,77 608,77 612,77 615,77 619,77 623,77 626,77 630,76 634,76 637,76 641,76 645,76 649,76 652,76 656,76 660,76 663,76 667,76 671,75 674,74 678,71 682,69 685,66 689,64 693,61 696,58 700,57 704,55 707,54 711,53 715,52 718,51 722,51 726,51 730,50" fill="none" stroke="#111111" stroke-width="2.4" stroke-linejoin="round" stroke-linecap="round" filter="url(#pline)"/>
<circle cx="730" cy="50" r="4" fill="#111111" filter="url(#pencil)"/>
<text x="724" y="42" text-anchor="end" font-size="10" font-family="Georgia,serif" fill="#111111">294K</text>
<text x="60" y="289" font-size="9" font-family="Georgia,serif" fill="#888888">기준: 2026-06-02 21:25</text>
</svg>