<svg xmlns="http://www.w3.org/2000/svg" width="760" height="295">
<defs><filter id="pencil" x="-5%" y="-5%" width="110%" height="110%"><feTurbulence type="fractalNoise" baseFrequency="0.9" numOctaves="4" seed="5" result="noise"/><feDisplacementMap in="SourceGraphic" in2="noise" scale="1.6" xChannelSelector="R" yChannelSelector="G"/></filter><filter id="pline" x="-2%" y="-30%" width="104%" height="160%"><feTurbulence type="fractalNoise" baseFrequency="0.015 0.9" numOctaves="3" seed="11" result="noise"/><feDisplacementMap in="SourceGraphic" in2="noise" scale="1.8" xChannelSelector="R" yChannelSelector="G"/></filter><filter id="rough" x="-5%" y="-5%" width="110%" height="110%"><feTurbulence type="turbulence" baseFrequency="0.05" numOctaves="2" seed="2" result="noise"/><feDisplacementMap in="SourceGraphic" in2="noise" scale="2" xChannelSelector="R" yChannelSelector="G"/></filter></defs>
<rect width="760" height="295" fill="#ffffff"/>
<text x="380" y="32" text-anchor="middle" font-size="14" font-weight="bold" font-family="Georgia,serif" fill="#111111" filter="url(#pencil)">Workload (6 months)</text>
<line x1="60" y1="250" x2="730" y2="250" stroke="#cccccc" stroke-width="0.7" stroke-dasharray="4,5" filter="url(#rough)"/>
<text x="54" y="254" text-anchor="end" font-size="10" font-family="Georgia,serif" fill="#333333">0</text>
<line x1="60" y1="201" x2="730" y2="201" stroke="#cccccc" stroke-width="0.7" stroke-dasharray="4,5" filter="url(#rough)"/>
<text x="54" y="205" text-anchor="end" font-size="10" font-family="Georgia,serif" fill="#333333">350K</text>
<line x1="60" y1="151" x2="730" y2="151" stroke="#cccccc" stroke-width="0.7" stroke-dasharray="4,5" filter="url(#rough)"/>
<text x="54" y="155" text-anchor="end" font-size="10" font-family="Georgia,serif" fill="#333333">700K</text>
<line x1="60" y1="101" x2="730" y2="101" stroke="#cccccc" stroke-width="0.7" stroke-dasharray="4,5" filter="url(#rough)"/>
<text x="54" y="105" text-anchor="end" font-size="10" font-family="Georgia,serif" fill="#333333">1051K</text>
<line x1="60" y1="50" x2="730" y2="50" stroke="#cccccc" stroke-width="0.7" stroke-dasharray="4,5" filter="url(#rough)"/>
<text x="54" y="54" text-anchor="end" font-size="10" font-family="Georgia,serif" fill="#333333">1401K</text>
<text x="152" y="270" text-anchor="middle" font-size="11" font-family="Georgia,serif" fill="#333333" filter="url(#pencil)">2월</text>
<text x="255" y="270" text-anchor="middle" font-size="11" font-family="Georgia,serif" fill="#333333" filter="url(#pencil)">3월</text>
<text x="369" y="270" text-anchor="middle" font-size="11" font-family="Georgia,serif" fill="#333333" filter="url(#pencil)">4월</text>
<text x="479" y="270" text-anchor="middle" font-size="11" font-family="Georgia,serif" fill="#333333" filter="url(#pencil)">5월</text>
<text x="593" y="270" text-anchor="middle" font-size="11" font-family="Georgia,serif" fill="#333333" filter="url(#pencil)">6월</text>
<text x="704" y="270" text-anchor="middle" font-size="11" font-family="Georgia,serif" fill="#333333" filter="url(#pencil)">7월</text>
<line x1="59" y1="42" x2="59" y2="256" stroke="#111111" stroke-width="2" filter="url(#pline)"/>
<line x1="52" y1="251" x2="738" y2="251" stroke="#111111" stroke-width="2" filter="url(#pline)"/>
<polygon points="60,250 60,250 63,250 67,250 71,250 74,250 78,250 82,250 85,250 89,250 93,250 96,250 100,248 104,248 107,248 111,248 115,248 118,247 122,246 126,245 129,244 133,239 137,239 140,239 144,238 148,232 152,231 155,230 159,230 163,230 166,230 170,224 174,223 177,223 181,223 185,223 188,223 192,223 196,223 199,223 203,223 207,223 210,223 214,223 218,223 221,222 225,222 229,222 233,222 236,222 240,222 244,221 247,219 251,219 255,215 258,214 262,214 266,214 269,214 273,214 277,214 280,214 284,214 288,214 291,214 295,214 299,213 302,213 306,213 310,211 314,210 317,210 321,208 325,207 328,207 332,207 336,200 339,200 343,200 347,195 350,190 354,185 358,185 361,184 365,184 369,184 372,183 376,183 380,183 383,183 387,183 391,183 395,183 398,183 402,183 406,183 409,183 413,178 417,178 420,178 424,178 428,176 431,176 435,170 439,170 442,170 446,168 450,168 453,167 457,166 461,163 464,163 468,163 472,163 475,163 479,163 483,163 487,162 490,162 494,162 498,162 501,162 505,162 509,162 512,161 516,161 520,161 523,161 527,161 531,159 534,159 538,159 542,158 545,156 549,154 553,152 556,148 560,146 564,143 568,141 571,139 575,137 579,135 582,133 586,131 590,129 593,128 597,126 601,125 604,124 608,122 612,120 615,118 619,117 623,111 626,108 630,107 634,105 637,103 641,102 645,101 649,100 652,99 656,98 660,96 663,92 667,79 671,72 674,66 678,59 682,57 685,56 689,55 693,54 696,53 700,52 704,52 707,51 711,51 715,51 718,51 722,51 726,51 730,50 730,250" fill="#e8e8e8" opacity="0.6"/>
<polyline points="60,250 63,250 67,250 71,250 74,250 78,250 82,250 85,250 89,250 93,250 96,250 100,248 104,248 107,248 111,248 115,248 118,247 122,246 126,245 129,244 133,239 137,239 140,239 144,238 148,232 152,231 155,230 159,230 163,230 166,230 170,224 174,223 177,223 181,223 185,223 188,223 192,223 196,223 199,223 203,223 207,223 210,223 214,223 218,223 221,222 225,222 229,222 233,222 236,222 240,222 244,221 247,219 251,219 255,215 258,214 262,214 266,214 269,214 273,214 277,214 280,214 284,214 288,214 291,214 295,214 299,213 302,213 306,213 310,211 314,210 317,210 321,208 325,207 328,207 332,207 336,200 339,200 343,200 347,195 350,190 354,185 358,185 361,184 365,184 369,184 372,183 376,183 380,183 383,183 387,183 391,183 395,183 398,183 402,183 406,183 409,183 413,178 417,178 420,178 424,178 428,176 431,176 435,170 439,170 442,170 446,168 450,168 453,167 457,166 461,163 464,163 468,163 472,163 475,163 479,163 483,163 487,162 490,162 494,162 498,162 501,162 505,162 509,162 512,161 516,161 520,161 523,161 527,161 531,159 534,159 538,159 542,158 545,156 549,154 553,152 556,148 560,146 564,143 568,141 571,139 575,137 579,135 582,133 586,131 590,129 593,128 597,126 601,125 604,124 608,122 612,120 615,118 619,117 623,111 626,108 630,107 634,105 637,103 641,102 645,101 649,100 652,99 656,98 660,96 663,92 667,79 671,72 674,66 678,59 682,57 685,56 689,55 693,54 696,53 700,52 704,52 707,51 711,51 715,51 718,51 722,51 726,51 730,50" fill="none" stroke="#111111" stroke-width="2.4" stroke-linejoin="round" stroke-linecap="round" filter="url(#pline)"/>
<circle cx="730" cy="50" r="4" fill="#111111" filter="url(#pencil)"/>
<text x="724" y="42" text-anchor="end" font-size="10" font-family="Georgia,serif" fill="#111111">1401K</text>
<text x="60" y="289" font-size="9" font-family="Georgia,serif" fill="#888888">기준: 2026-07-08 08:45</text>
</svg>