<svg xmlns="http://www.w3.org/2000/svg" width="760" height="295">
<defs><filter id="pencil" x="-5%" y="-5%" width="110%" height="110%"><feTurbulence type="fractalNoise" baseFrequency="0.9" numOctaves="4" seed="5" result="noise"/><feDisplacementMap in="SourceGraphic" in2="noise" scale="1.6" xChannelSelector="R" yChannelSelector="G"/></filter><filter id="pline" x="-2%" y="-30%" width="104%" height="160%"><feTurbulence type="fractalNoise" baseFrequency="0.015 0.9" numOctaves="3" seed="11" result="noise"/><feDisplacementMap in="SourceGraphic" in2="noise" scale="1.8" xChannelSelector="R" yChannelSelector="G"/></filter><filter id="rough" x="-5%" y="-5%" width="110%" height="110%"><feTurbulence type="turbulence" baseFrequency="0.05" numOctaves="2" seed="2" result="noise"/><feDisplacementMap in="SourceGraphic" in2="noise" scale="2" xChannelSelector="R" yChannelSelector="G"/></filter></defs>
<rect width="760" height="295" fill="#ffffff"/>
<text x="380" y="32" text-anchor="middle" font-size="14" font-weight="bold" font-family="Georgia,serif" fill="#111111" filter="url(#pencil)">Workload (6 months)</text>
<line x1="60" y1="250" x2="730" y2="250" stroke="#cccccc" stroke-width="0.7" stroke-dasharray="4,5" filter="url(#rough)"/>
<text x="54" y="254" text-anchor="end" font-size="10" font-family="Georgia,serif" fill="#333333">0</text>
<line x1="60" y1="201" x2="730" y2="201" stroke="#cccccc" stroke-width="0.7" stroke-dasharray="4,5" filter="url(#rough)"/>
<text x="54" y="205" text-anchor="end" font-size="10" font-family="Georgia,serif" fill="#333333">100K</text>
<line x1="60" y1="151" x2="730" y2="151" stroke="#cccccc" stroke-width="0.7" stroke-dasharray="4,5" filter="url(#rough)"/>
<text x="54" y="155" text-anchor="end" font-size="10" font-family="Georgia,serif" fill="#333333">201K</text>
<line x1="60" y1="101" x2="730" y2="101" stroke="#cccccc" stroke-width="0.7" stroke-dasharray="4,5" filter="url(#rough)"/>
<text x="54" y="105" text-anchor="end" font-size="10" font-family="Georgia,serif" fill="#333333">302K</text>
<line x1="60" y1="50" x2="730" y2="50" stroke="#cccccc" stroke-width="0.7" stroke-dasharray="4,5" filter="url(#rough)"/>
<text x="54" y="54" text-anchor="end" font-size="10" font-family="Georgia,serif" fill="#333333">403K</text>
<text x="148" y="270" text-anchor="middle" font-size="11" font-family="Georgia,serif" fill="#333333" filter="url(#pencil)">1월</text>
<text x="262" y="270" text-anchor="middle" font-size="11" font-family="Georgia,serif" fill="#333333" filter="url(#pencil)">2월</text>
<text x="365" y="270" text-anchor="middle" font-size="11" font-family="Georgia,serif" fill="#333333" filter="url(#pencil)">3월</text>
<text x="479" y="270" text-anchor="middle" font-size="11" font-family="Georgia,serif" fill="#333333" filter="url(#pencil)">4월</text>
<text x="590" y="270" text-anchor="middle" font-size="11" font-family="Georgia,serif" fill="#333333" filter="url(#pencil)">5월</text>
<text x="704" y="270" text-anchor="middle" font-size="11" font-family="Georgia,serif" fill="#333333" filter="url(#pencil)">6월</text>
<line x1="59" y1="42" x2="59" y2="256" stroke="#111111" stroke-width="2" filter="url(#pline)"/>
<line x1="52" y1="251" x2="738" y2="251" stroke="#111111" stroke-width="2" filter="url(#pline)"/>
<polygon points="60,250 60,234 63,234 67,234 71,234 74,204 78,204 82,204 85,204 89,204 93,204 96,204 100,186 104,186 107,186 111,186 115,186 118,182 122,182 126,182 129,182 133,182 137,182 140,182 144,182 148,182 152,182 155,182 159,182 163,182 166,182 170,182 174,182 177,182 181,182 185,182 188,182 192,182 196,182 199,182 203,182 207,182 210,178 214,178 218,178 221,178 225,178 229,177 233,175 236,174 240,173 244,165 247,165 251,165 255,164 258,156 262,154 266,153 269,153 273,153 277,153 280,145 284,144 288,144 291,144 295,144 299,144 302,144 306,144 310,144 314,144 317,144 321,144 325,144 328,144 332,142 336,142 339,142 343,142 347,142 350,142 354,140 358,138 361,137 365,133 369,131 372,131 376,131 380,131 383,131 387,131 391,131 395,131 398,131 402,131 406,131 409,130 413,130 417,130 420,127 424,126 428,126 431,122 435,121 439,121 442,121 446,111 450,111 453,111 457,105 461,97 464,91 468,90 472,90 475,90 479,90 483,90 487,90 490,90 494,90 498,90 501,90 505,90 509,90 512,89 516,89 520,89 523,89 527,89 531,89 534,89 538,86 542,85 545,85 549,85 553,85 556,85 560,85 564,85 568,85 571,85 575,85 579,85 582,85 586,85 590,85 593,85 597,85 601,85 604,85 608,84 612,84 615,84 619,84 623,84 626,84 630,84 634,84 637,84 641,84 645,84 649,83 652,82 656,79 660,77 663,74 667,72 671,68 674,65 678,63 682,62 685,60 689,58 693,57 696,55 700,54 704,53 707,53 711,52 715,52 718,51 722,51 726,50 730,50 730,250" fill="#e8e8e8" opacity="0.6"/>
<polyline points="60,234 63,234 67,234 71,234 74,204 78,204 82,204 85,204 89,204 93,204 96,204 100,186 104,186 107,186 111,186 115,186 118,182 122,182 126,182 129,182 133,182 137,182 140,182 144,182 148,182 152,182 155,182 159,182 163,182 166,182 170,182 174,182 177,182 181,182 185,182 188,182 192,182 196,182 199,182 203,182 207,182 210,178 214,178 218,178 221,178 225,178 229,177 233,175 236,174 240,173 244,165 247,165 251,165 255,164 258,156 262,154 266,153 269,153 273,153 277,153 280,145 284,144 288,144 291,144 295,144 299,144 302,144 306,144 310,144 314,144 317,144 321,144 325,144 328,144 332,142 336,142 339,142 343,142 347,142 350,142 354,140 358,138 361,137 365,133 369,131 372,131 376,131 380,131 383,131 387,131 391,131 395,131 398,131 402,131 406,131 409,130 413,130 417,130 420,127 424,126 428,126 431,122 435,121 439,121 442,121 446,111 450,111 453,111 457,105 461,97 464,91 468,90 472,90 475,90 479,90 483,90 487,90 490,90 494,90 498,90 501,90 505,90 509,90 512,89 516,89 520,89 523,89 527,89 531,89 534,89 538,86 542,85 545,85 549,85 553,85 556,85 560,85 564,85 568,85 571,85 575,85 579,85 582,85 586,85 590,85 593,85 597,85 601,85 604,85 608,84 612,84 615,84 619,84 623,84 626,84 630,84 634,84 637,84 641,84 645,84 649,83 652,82 656,79 660,77 663,74 667,72 671,68 674,65 678,63 682,62 685,60 689,58 693,57 696,55 700,54 704,53 707,53 711,52 715,52 718,51 722,51 726,50 730,50" fill="none" stroke="#111111" stroke-width="2.4" stroke-linejoin="round" stroke-linecap="round" filter="url(#pline)"/>
<circle cx="730" cy="50" r="4" fill="#111111" filter="url(#pencil)"/>
<text x="724" y="42" text-anchor="end" font-size="10" font-family="Georgia,serif" fill="#111111">403K</text>
<text x="60" y="289" font-size="9" font-family="Georgia,serif" fill="#888888">기준: 2026-06-08 05:03</text>
</svg>