<svg xmlns="http://www.w3.org/2000/svg" width="760" height="295">
<defs><filter id="pencil" x="-5%" y="-5%" width="110%" height="110%"><feTurbulence type="fractalNoise" baseFrequency="0.9" numOctaves="4" seed="5" result="noise"/><feDisplacementMap in="SourceGraphic" in2="noise" scale="1.6" xChannelSelector="R" yChannelSelector="G"/></filter><filter id="pline" x="-2%" y="-30%" width="104%" height="160%"><feTurbulence type="fractalNoise" baseFrequency="0.015 0.9" numOctaves="3" seed="11" result="noise"/><feDisplacementMap in="SourceGraphic" in2="noise" scale="1.8" xChannelSelector="R" yChannelSelector="G"/></filter><filter id="rough" x="-5%" y="-5%" width="110%" height="110%"><feTurbulence type="turbulence" baseFrequency="0.05" numOctaves="2" seed="2" result="noise"/><feDisplacementMap in="SourceGraphic" in2="noise" scale="2" xChannelSelector="R" yChannelSelector="G"/></filter></defs>
<rect width="760" height="295" fill="#ffffff"/>
<text x="380" y="32" text-anchor="middle" font-size="14" font-weight="bold" font-family="Georgia,serif" fill="#111111" filter="url(#pencil)">Workload (6 months)</text>
<line x1="60" y1="250" x2="730" y2="250" stroke="#cccccc" stroke-width="0.7" stroke-dasharray="4,5" filter="url(#rough)"/>
<text x="54" y="254" text-anchor="end" font-size="10" font-family="Georgia,serif" fill="#333333">0</text>
<line x1="60" y1="201" x2="730" y2="201" stroke="#cccccc" stroke-width="0.7" stroke-dasharray="4,5" filter="url(#rough)"/>
<text x="54" y="205" text-anchor="end" font-size="10" font-family="Georgia,serif" fill="#333333">234K</text>
<line x1="60" y1="151" x2="730" y2="151" stroke="#cccccc" stroke-width="0.7" stroke-dasharray="4,5" filter="url(#rough)"/>
<text x="54" y="155" text-anchor="end" font-size="10" font-family="Georgia,serif" fill="#333333">469K</text>
<line x1="60" y1="101" x2="730" y2="101" stroke="#cccccc" stroke-width="0.7" stroke-dasharray="4,5" filter="url(#rough)"/>
<text x="54" y="105" text-anchor="end" font-size="10" font-family="Georgia,serif" fill="#333333">704K</text>
<line x1="60" y1="50" x2="730" y2="50" stroke="#cccccc" stroke-width="0.7" stroke-dasharray="4,5" filter="url(#rough)"/>
<text x="54" y="54" text-anchor="end" font-size="10" font-family="Georgia,serif" fill="#333333">939K</text>
<text x="67" y="270" text-anchor="middle" font-size="11" font-family="Georgia,serif" fill="#333333" filter="url(#pencil)">1월</text>
<text x="181" y="270" text-anchor="middle" font-size="11" font-family="Georgia,serif" fill="#333333" filter="url(#pencil)">2월</text>
<text x="284" y="270" text-anchor="middle" font-size="11" font-family="Georgia,serif" fill="#333333" filter="url(#pencil)">3월</text>
<text x="398" y="270" text-anchor="middle" font-size="11" font-family="Georgia,serif" fill="#333333" filter="url(#pencil)">4월</text>
<text x="509" y="270" text-anchor="middle" font-size="11" font-family="Georgia,serif" fill="#333333" filter="url(#pencil)">5월</text>
<text x="623" y="270" text-anchor="middle" font-size="11" font-family="Georgia,serif" fill="#333333" filter="url(#pencil)">6월</text>
<line x1="59" y1="42" x2="59" y2="256" stroke="#111111" stroke-width="2" filter="url(#pline)"/>
<line x1="52" y1="251" x2="738" y2="251" stroke="#111111" stroke-width="2" filter="url(#pline)"/>
<polygon points="60,250 60,250 63,250 67,250 71,250 74,250 78,250 82,250 85,250 89,250 93,250 96,250 100,250 104,250 107,250 111,250 115,250 118,250 122,250 126,250 129,247 133,247 137,247 140,247 144,247 148,247 152,245 155,244 159,243 163,236 166,236 170,236 174,235 177,228 181,226 185,226 188,226 192,225 196,225 199,218 203,217 207,217 210,217 214,217 218,217 221,217 225,217 229,217 233,217 236,217 240,217 244,217 247,217 251,215 255,215 258,215 262,215 266,215 269,215 273,214 277,212 280,211 284,207 288,206 291,206 295,206 299,206 302,206 306,206 310,206 314,206 317,206 321,206 325,206 328,205 332,205 336,205 339,202 343,201 347,201 350,198 354,197 358,197 361,197 365,188 369,188 372,188 376,183 380,176 383,170 387,170 391,169 395,169 398,169 402,168 406,168 409,168 413,168 417,168 420,168 424,168 428,168 431,167 435,167 439,167 442,164 446,164 450,164 453,164 457,162 461,161 464,157 468,157 472,157 475,155 479,155 483,154 487,153 490,151 494,150 498,150 501,150 505,150 509,150 512,150 516,150 520,150 523,150 527,149 531,149 534,149 538,149 542,149 545,149 549,149 553,149 556,149 560,147 564,147 568,147 571,146 575,143 579,141 582,138 586,135 590,131 593,128 597,126 601,124 604,121 608,119 612,117 615,114 619,112 623,111 626,109 630,108 634,106 637,105 641,103 645,100 649,99 652,93 656,90 660,89 663,88 667,85 671,84 674,83 678,82 682,81 685,80 689,79 693,76 696,66 700,61 704,57 707,53 711,52 715,51 718,51 722,51 726,50 730,50 730,250" fill="#e8e8e8" opacity="0.6"/>
<polyline points="60,250 63,250 67,250 71,250 74,250 78,250 82,250 85,250 89,250 93,250 96,250 100,250 104,250 107,250 111,250 115,250 118,250 122,250 126,250 129,247 133,247 137,247 140,247 144,247 148,247 152,245 155,244 159,243 163,236 166,236 170,236 174,235 177,228 181,226 185,226 188,226 192,225 196,225 199,218 203,217 207,217 210,217 214,217 218,217 221,217 225,217 229,217 233,217 236,217 240,217 244,217 247,217 251,215 255,215 258,215 262,215 266,215 269,215 273,214 277,212 280,211 284,207 288,206 291,206 295,206 299,206 302,206 306,206 310,206 314,206 317,206 321,206 325,206 328,205 332,205 336,205 339,202 343,201 347,201 350,198 354,197 358,197 361,197 365,188 369,188 372,188 376,183 380,176 383,170 387,170 391,169 395,169 398,169 402,168 406,168 409,168 413,168 417,168 420,168 424,168 428,168 431,167 435,167 439,167 442,164 446,164 450,164 453,164 457,162 461,161 464,157 468,157 472,157 475,155 479,155 483,154 487,153 490,151 494,150 498,150 501,150 505,150 509,150 512,150 516,150 520,150 523,150 527,149 531,149 534,149 538,149 542,149 545,149 549,149 553,149 556,149 560,147 564,147 568,147 571,146 575,143 579,141 582,138 586,135 590,131 593,128 597,126 601,124 604,121 608,119 612,117 615,114 619,112 623,111 626,109 630,108 634,106 637,105 641,103 645,100 649,99 652,93 656,90 660,89 663,88 667,85 671,84 674,83 678,82 682,81 685,80 689,79 693,76 696,66 700,61 704,57 707,53 711,52 715,51 718,51 722,51 726,50 730,50" fill="none" stroke="#111111" stroke-width="2.4" stroke-linejoin="round" stroke-linecap="round" filter="url(#pline)"/>
<circle cx="730" cy="50" r="4" fill="#111111" filter="url(#pencil)"/>
<text x="724" y="42" text-anchor="end" font-size="10" font-family="Georgia,serif" fill="#111111">939K</text>
<text x="60" y="289" font-size="9" font-family="Georgia,serif" fill="#888888">기준: 2026-06-30 04:36</text>
</svg>