<svg xmlns="http://www.w3.org/2000/svg" width="760" height="295">
<defs><filter id="pencil" x="-5%" y="-5%" width="110%" height="110%"><feTurbulence type="fractalNoise" baseFrequency="0.9" numOctaves="4" seed="5" result="noise"/><feDisplacementMap in="SourceGraphic" in2="noise" scale="1.6" xChannelSelector="R" yChannelSelector="G"/></filter><filter id="pline" x="-2%" y="-30%" width="104%" height="160%"><feTurbulence type="fractalNoise" baseFrequency="0.015 0.9" numOctaves="3" seed="11" result="noise"/><feDisplacementMap in="SourceGraphic" in2="noise" scale="1.8" xChannelSelector="R" yChannelSelector="G"/></filter><filter id="rough" x="-5%" y="-5%" width="110%" height="110%"><feTurbulence type="turbulence" baseFrequency="0.05" numOctaves="2" seed="2" result="noise"/><feDisplacementMap in="SourceGraphic" in2="noise" scale="2" xChannelSelector="R" yChannelSelector="G"/></filter></defs>
<rect width="760" height="295" fill="#ffffff"/>
<text x="380" y="32" text-anchor="middle" font-size="14" font-weight="bold" font-family="Georgia,serif" fill="#111111" filter="url(#pencil)">Workload (6 months)</text>
<line x1="60" y1="250" x2="730" y2="250" stroke="#cccccc" stroke-width="0.7" stroke-dasharray="4,5" filter="url(#rough)"/>
<text x="54" y="254" text-anchor="end" font-size="10" font-family="Georgia,serif" fill="#333333">0</text>
<line x1="60" y1="201" x2="730" y2="201" stroke="#cccccc" stroke-width="0.7" stroke-dasharray="4,5" filter="url(#rough)"/>
<text x="54" y="205" text-anchor="end" font-size="10" font-family="Georgia,serif" fill="#333333">258K</text>
<line x1="60" y1="151" x2="730" y2="151" stroke="#cccccc" stroke-width="0.7" stroke-dasharray="4,5" filter="url(#rough)"/>
<text x="54" y="155" text-anchor="end" font-size="10" font-family="Georgia,serif" fill="#333333">516K</text>
<line x1="60" y1="101" x2="730" y2="101" stroke="#cccccc" stroke-width="0.7" stroke-dasharray="4,5" filter="url(#rough)"/>
<text x="54" y="105" text-anchor="end" font-size="10" font-family="Georgia,serif" fill="#333333">774K</text>
<line x1="60" y1="50" x2="730" y2="50" stroke="#cccccc" stroke-width="0.7" stroke-dasharray="4,5" filter="url(#rough)"/>
<text x="54" y="54" text-anchor="end" font-size="10" font-family="Georgia,serif" fill="#333333">1033K</text>
<text x="63" y="270" text-anchor="middle" font-size="11" font-family="Georgia,serif" fill="#333333" filter="url(#pencil)">1월</text>
<text x="177" y="270" text-anchor="middle" font-size="11" font-family="Georgia,serif" fill="#333333" filter="url(#pencil)">2월</text>
<text x="280" y="270" text-anchor="middle" font-size="11" font-family="Georgia,serif" fill="#333333" filter="url(#pencil)">3월</text>
<text x="395" y="270" text-anchor="middle" font-size="11" font-family="Georgia,serif" fill="#333333" filter="url(#pencil)">4월</text>
<text x="505" y="270" text-anchor="middle" font-size="11" font-family="Georgia,serif" fill="#333333" filter="url(#pencil)">5월</text>
<text x="619" y="270" text-anchor="middle" font-size="11" font-family="Georgia,serif" fill="#333333" filter="url(#pencil)">6월</text>
<text x="730" y="270" text-anchor="middle" font-size="11" font-family="Georgia,serif" fill="#333333" filter="url(#pencil)">7월</text>
<line x1="59" y1="42" x2="59" y2="256" stroke="#111111" stroke-width="2" filter="url(#pline)"/>
<line x1="52" y1="251" x2="738" y2="251" stroke="#111111" stroke-width="2" filter="url(#pline)"/>
<polygon points="60,250 60,250 63,250 67,250 71,250 74,250 78,250 82,250 85,250 89,250 93,250 96,250 100,250 104,250 107,250 111,250 115,250 118,250 122,250 126,247 129,247 133,247 137,247 140,247 144,247 148,245 152,244 155,243 159,237 163,237 166,237 170,235 174,229 177,228 181,227 185,227 188,227 192,226 196,219 199,219 203,219 207,219 210,219 214,219 218,219 221,219 225,219 229,219 233,219 236,219 240,219 244,219 247,217 251,217 255,217 258,217 262,217 266,217 269,216 273,214 277,213 280,209 284,208 288,208 291,208 295,208 299,208 302,208 306,208 310,208 314,208 317,208 321,208 325,207 328,207 332,207 336,205 339,204 343,204 347,200 350,200 354,200 358,200 361,191 365,191 369,191 372,186 376,179 380,174 383,174 387,173 391,173 395,173 398,172 402,172 406,172 409,172 413,172 417,172 420,172 424,172 428,172 431,172 435,172 439,168 442,168 446,168 450,168 453,166 457,165 461,160 464,160 468,160 472,158 475,158 479,157 483,156 487,154 490,154 494,154 498,154 501,154 505,154 509,154 512,153 516,153 520,153 523,153 527,153 531,153 534,153 538,152 542,152 545,152 549,152 553,152 556,150 560,150 564,150 568,149 571,147 575,144 579,142 582,138 586,135 590,132 593,130 597,128 601,126 604,124 608,121 612,119 615,117 619,115 623,114 626,113 630,111 634,109 637,107 641,105 645,104 649,98 652,95 656,93 660,92 663,90 667,88 671,87 674,87 678,86 682,85 685,83 689,80 693,70 696,63 700,59 704,54 707,53 711,52 715,51 718,51 722,51 726,51 730,50 730,250" fill="#e8e8e8" opacity="0.6"/>
<polyline points="60,250 63,250 67,250 71,250 74,250 78,250 82,250 85,250 89,250 93,250 96,250 100,250 104,250 107,250 111,250 115,250 118,250 122,250 126,247 129,247 133,247 137,247 140,247 144,247 148,245 152,244 155,243 159,237 163,237 166,237 170,235 174,229 177,228 181,227 185,227 188,227 192,226 196,219 199,219 203,219 207,219 210,219 214,219 218,219 221,219 225,219 229,219 233,219 236,219 240,219 244,219 247,217 251,217 255,217 258,217 262,217 266,217 269,216 273,214 277,213 280,209 284,208 288,208 291,208 295,208 299,208 302,208 306,208 310,208 314,208 317,208 321,208 325,207 328,207 332,207 336,205 339,204 343,204 347,200 350,200 354,200 358,200 361,191 365,191 369,191 372,186 376,179 380,174 383,174 387,173 391,173 395,173 398,172 402,172 406,172 409,172 413,172 417,172 420,172 424,172 428,172 431,172 435,172 439,168 442,168 446,168 450,168 453,166 457,165 461,160 464,160 468,160 472,158 475,158 479,157 483,156 487,154 490,154 494,154 498,154 501,154 505,154 509,154 512,153 516,153 520,153 523,153 527,153 531,153 534,153 538,152 542,152 545,152 549,152 553,152 556,150 560,150 564,150 568,149 571,147 575,144 579,142 582,138 586,135 590,132 593,130 597,128 601,126 604,124 608,121 612,119 615,117 619,115 623,114 626,113 630,111 634,109 637,107 641,105 645,104 649,98 652,95 656,93 660,92 663,90 667,88 671,87 674,87 678,86 682,85 685,83 689,80 693,70 696,63 700,59 704,54 707,53 711,52 715,51 718,51 722,51 726,51 730,50" fill="none" stroke="#111111" stroke-width="2.4" stroke-linejoin="round" stroke-linecap="round" filter="url(#pline)"/>
<circle cx="730" cy="50" r="4" fill="#111111" filter="url(#pencil)"/>
<text x="724" y="42" text-anchor="end" font-size="10" font-family="Georgia,serif" fill="#111111">1033K</text>
<text x="60" y="289" font-size="9" font-family="Georgia,serif" fill="#888888">기준: 2026-07-01 20:16</text>
</svg>