<svg xmlns="http://www.w3.org/2000/svg" width="760" height="295">
<defs><filter id="pencil" x="-5%" y="-5%" width="110%" height="110%"><feTurbulence type="fractalNoise" baseFrequency="0.9" numOctaves="4" seed="5" result="noise"/><feDisplacementMap in="SourceGraphic" in2="noise" scale="1.6" xChannelSelector="R" yChannelSelector="G"/></filter><filter id="pline" x="-2%" y="-30%" width="104%" height="160%"><feTurbulence type="fractalNoise" baseFrequency="0.015 0.9" numOctaves="3" seed="11" result="noise"/><feDisplacementMap in="SourceGraphic" in2="noise" scale="1.8" xChannelSelector="R" yChannelSelector="G"/></filter><filter id="rough" x="-5%" y="-5%" width="110%" height="110%"><feTurbulence type="turbulence" baseFrequency="0.05" numOctaves="2" seed="2" result="noise"/><feDisplacementMap in="SourceGraphic" in2="noise" scale="2" xChannelSelector="R" yChannelSelector="G"/></filter></defs>
<rect width="760" height="295" fill="#ffffff"/>
<text x="380" y="32" text-anchor="middle" font-size="14" font-weight="bold" font-family="Georgia,serif" fill="#111111" filter="url(#pencil)">Workload (6 months)</text>
<line x1="60" y1="250" x2="730" y2="250" stroke="#cccccc" stroke-width="0.7" stroke-dasharray="4,5" filter="url(#rough)"/>
<text x="54" y="254" text-anchor="end" font-size="10" font-family="Georgia,serif" fill="#333333">0</text>
<line x1="60" y1="201" x2="730" y2="201" stroke="#cccccc" stroke-width="0.7" stroke-dasharray="4,5" filter="url(#rough)"/>
<text x="54" y="205" text-anchor="end" font-size="10" font-family="Georgia,serif" fill="#333333">369K</text>
<line x1="60" y1="150" x2="730" y2="150" stroke="#cccccc" stroke-width="0.7" stroke-dasharray="4,5" filter="url(#rough)"/>
<text x="54" y="154" text-anchor="end" font-size="10" font-family="Georgia,serif" fill="#333333">739K</text>
<line x1="60" y1="101" x2="730" y2="101" stroke="#cccccc" stroke-width="0.7" stroke-dasharray="4,5" filter="url(#rough)"/>
<text x="54" y="105" text-anchor="end" font-size="10" font-family="Georgia,serif" fill="#333333">1109K</text>
<line x1="60" y1="50" x2="730" y2="50" stroke="#cccccc" stroke-width="0.7" stroke-dasharray="4,5" filter="url(#rough)"/>
<text x="54" y="54" text-anchor="end" font-size="10" font-family="Georgia,serif" fill="#333333">1479K</text>
<text x="148" y="270" text-anchor="middle" font-size="11" font-family="Georgia,serif" fill="#333333" filter="url(#pencil)">2월</text>
<text x="251" y="270" text-anchor="middle" font-size="11" font-family="Georgia,serif" fill="#333333" filter="url(#pencil)">3월</text>
<text x="365" y="270" text-anchor="middle" font-size="11" font-family="Georgia,serif" fill="#333333" filter="url(#pencil)">4월</text>
<text x="475" y="270" text-anchor="middle" font-size="11" font-family="Georgia,serif" fill="#333333" filter="url(#pencil)">5월</text>
<text x="590" y="270" text-anchor="middle" font-size="11" font-family="Georgia,serif" fill="#333333" filter="url(#pencil)">6월</text>
<text x="700" y="270" text-anchor="middle" font-size="11" font-family="Georgia,serif" fill="#333333" filter="url(#pencil)">7월</text>
<line x1="59" y1="42" x2="59" y2="256" stroke="#111111" stroke-width="2" filter="url(#pline)"/>
<line x1="52" y1="251" x2="738" y2="251" stroke="#111111" stroke-width="2" filter="url(#pline)"/>
<polygon points="60,250 60,250 63,250 67,250 71,250 74,250 78,250 82,250 85,250 89,250 93,250 96,248 100,248 104,248 107,248 111,248 115,247 118,246 122,245 126,244 129,239 133,239 137,239 140,238 144,233 148,231 152,231 155,231 159,231 163,230 166,225 170,224 174,224 177,224 181,224 185,224 188,224 192,224 196,224 199,224 203,224 207,224 210,224 214,224 218,223 221,223 225,223 229,223 233,223 236,223 240,221 244,220 247,220 251,216 255,215 258,215 262,215 266,215 269,215 273,215 277,215 280,215 284,215 288,215 291,215 295,214 299,214 302,214 306,212 310,212 314,212 317,209 321,208 325,208 328,208 332,201 336,201 339,201 343,197 347,191 350,187 354,187 358,186 361,186 365,186 369,185 372,185 376,185 380,185 383,185 387,185 391,185 395,185 398,184 402,184 406,184 409,180 413,180 417,180 420,180 424,178 428,177 431,172 435,172 439,172 442,169 446,169 450,169 453,167 457,165 461,164 464,164 468,164 472,164 475,164 479,164 483,164 487,164 490,164 494,163 498,163 501,163 505,163 509,163 512,163 516,163 520,163 523,163 527,161 531,161 534,160 538,160 542,158 545,156 549,154 553,150 556,147 560,145 564,143 568,141 571,139 575,137 579,135 582,133 586,131 590,130 593,129 597,127 601,126 604,124 608,123 612,120 615,119 619,114 623,110 626,109 630,108 634,105 637,104 641,103 645,102 649,101 652,100 656,98 660,94 663,81 667,73 671,67 674,60 678,58 682,57 685,56 689,55 693,54 696,53 700,52 704,52 707,52 711,51 715,51 718,51 722,51 726,51 730,50 730,250" fill="#e8e8e8" opacity="0.6"/>
<polyline points="60,250 63,250 67,250 71,250 74,250 78,250 82,250 85,250 89,250 93,250 96,248 100,248 104,248 107,248 111,248 115,247 118,246 122,245 126,244 129,239 133,239 137,239 140,238 144,233 148,231 152,231 155,231 159,231 163,230 166,225 170,224 174,224 177,224 181,224 185,224 188,224 192,224 196,224 199,224 203,224 207,224 210,224 214,224 218,223 221,223 225,223 229,223 233,223 236,223 240,221 244,220 247,220 251,216 255,215 258,215 262,215 266,215 269,215 273,215 277,215 280,215 284,215 288,215 291,215 295,214 299,214 302,214 306,212 310,212 314,212 317,209 321,208 325,208 328,208 332,201 336,201 339,201 343,197 347,191 350,187 354,187 358,186 361,186 365,186 369,185 372,185 376,185 380,185 383,185 387,185 391,185 395,185 398,184 402,184 406,184 409,180 413,180 417,180 420,180 424,178 428,177 431,172 435,172 439,172 442,169 446,169 450,169 453,167 457,165 461,164 464,164 468,164 472,164 475,164 479,164 483,164 487,164 490,164 494,163 498,163 501,163 505,163 509,163 512,163 516,163 520,163 523,163 527,161 531,161 534,160 538,160 542,158 545,156 549,154 553,150 556,147 560,145 564,143 568,141 571,139 575,137 579,135 582,133 586,131 590,130 593,129 597,127 601,126 604,124 608,123 612,120 615,119 619,114 623,110 626,109 630,108 634,105 637,104 641,103 645,102 649,101 652,100 656,98 660,94 663,81 667,73 671,67 674,60 678,58 682,57 685,56 689,55 693,54 696,53 700,52 704,52 707,52 711,51 715,51 718,51 722,51 726,51 730,50" fill="none" stroke="#111111" stroke-width="2.4" stroke-linejoin="round" stroke-linecap="round" filter="url(#pline)"/>
<circle cx="730" cy="50" r="4" fill="#111111" filter="url(#pencil)"/>
<text x="724" y="42" text-anchor="end" font-size="10" font-family="Georgia,serif" fill="#111111">1479K</text>
<text x="60" y="289" font-size="9" font-family="Georgia,serif" fill="#888888">기준: 2026-07-09 15:36</text>
</svg>