<svg xmlns="http://www.w3.org/2000/svg" width="760" height="295">
<defs><filter id="pencil" x="-5%" y="-5%" width="110%" height="110%"><feTurbulence type="fractalNoise" baseFrequency="0.9" numOctaves="4" seed="5" result="noise"/><feDisplacementMap in="SourceGraphic" in2="noise" scale="1.6" xChannelSelector="R" yChannelSelector="G"/></filter><filter id="pline" x="-2%" y="-30%" width="104%" height="160%"><feTurbulence type="fractalNoise" baseFrequency="0.015 0.9" numOctaves="3" seed="11" result="noise"/><feDisplacementMap in="SourceGraphic" in2="noise" scale="1.8" xChannelSelector="R" yChannelSelector="G"/></filter><filter id="rough" x="-5%" y="-5%" width="110%" height="110%"><feTurbulence type="turbulence" baseFrequency="0.05" numOctaves="2" seed="2" result="noise"/><feDisplacementMap in="SourceGraphic" in2="noise" scale="2" xChannelSelector="R" yChannelSelector="G"/></filter></defs>
<rect width="760" height="295" fill="#ffffff"/>
<text x="380" y="32" text-anchor="middle" font-size="14" font-weight="bold" font-family="Georgia,serif" fill="#111111" filter="url(#pencil)">Workload (6 months)</text>
<line x1="60" y1="250" x2="730" y2="250" stroke="#cccccc" stroke-width="0.7" stroke-dasharray="4,5" filter="url(#rough)"/>
<text x="54" y="254" text-anchor="end" font-size="10" font-family="Georgia,serif" fill="#333333">0</text>
<line x1="60" y1="201" x2="730" y2="201" stroke="#cccccc" stroke-width="0.7" stroke-dasharray="4,5" filter="url(#rough)"/>
<text x="54" y="205" text-anchor="end" font-size="10" font-family="Georgia,serif" fill="#333333">131K</text>
<line x1="60" y1="151" x2="730" y2="151" stroke="#cccccc" stroke-width="0.7" stroke-dasharray="4,5" filter="url(#rough)"/>
<text x="54" y="155" text-anchor="end" font-size="10" font-family="Georgia,serif" fill="#333333">262K</text>
<line x1="60" y1="101" x2="730" y2="101" stroke="#cccccc" stroke-width="0.7" stroke-dasharray="4,5" filter="url(#rough)"/>
<text x="54" y="105" text-anchor="end" font-size="10" font-family="Georgia,serif" fill="#333333">394K</text>
<line x1="60" y1="50" x2="730" y2="50" stroke="#cccccc" stroke-width="0.7" stroke-dasharray="4,5" filter="url(#rough)"/>
<text x="54" y="54" text-anchor="end" font-size="10" font-family="Georgia,serif" fill="#333333">525K</text>
<text x="104" y="270" text-anchor="middle" font-size="11" font-family="Georgia,serif" fill="#333333" filter="url(#pencil)">1월</text>
<text x="218" y="270" text-anchor="middle" font-size="11" font-family="Georgia,serif" fill="#333333" filter="url(#pencil)">2월</text>
<text x="321" y="270" text-anchor="middle" font-size="11" font-family="Georgia,serif" fill="#333333" filter="url(#pencil)">3월</text>
<text x="435" y="270" text-anchor="middle" font-size="11" font-family="Georgia,serif" fill="#333333" filter="url(#pencil)">4월</text>
<text x="545" y="270" text-anchor="middle" font-size="11" font-family="Georgia,serif" fill="#333333" filter="url(#pencil)">5월</text>
<text x="660" y="270" text-anchor="middle" font-size="11" font-family="Georgia,serif" fill="#333333" filter="url(#pencil)">6월</text>
<line x1="59" y1="42" x2="59" y2="256" stroke="#111111" stroke-width="2" filter="url(#pline)"/>
<line x1="52" y1="251" x2="738" y2="251" stroke="#111111" stroke-width="2" filter="url(#pline)"/>
<polygon points="60,250 60,250 63,250 67,250 71,250 74,245 78,245 82,245 85,245 89,245 93,245 96,245 100,245 104,245 107,245 111,245 115,245 118,245 122,245 126,245 129,245 133,245 137,245 140,245 144,245 148,245 152,245 155,245 159,245 163,245 166,241 170,241 174,241 177,240 181,240 185,240 188,237 192,236 196,234 199,225 203,225 207,225 210,223 214,214 218,212 221,211 225,211 229,211 233,210 236,200 240,199 244,199 247,199 251,199 255,199 258,199 262,199 266,199 269,199 273,199 277,199 280,199 284,199 288,197 291,197 295,197 299,197 302,197 306,197 310,194 314,192 317,191 321,185 325,184 328,184 332,183 336,183 339,183 343,183 347,183 350,183 354,183 358,183 361,183 365,182 369,182 372,182 376,178 380,177 383,177 387,172 391,171 395,171 398,171 402,159 406,159 409,159 413,151 417,142 420,134 424,134 428,133 431,132 435,132 439,132 442,132 446,132 450,132 453,132 457,132 461,132 464,132 468,131 472,131 475,131 479,131 483,131 487,131 490,131 494,128 498,127 501,126 505,126 509,126 512,126 516,126 520,126 523,126 527,125 531,125 534,125 538,125 542,125 545,125 549,125 553,125 556,125 560,125 564,124 568,124 571,124 575,124 579,124 582,124 586,123 590,123 593,123 597,123 601,123 604,122 608,122 612,118 615,114 619,111 623,108 626,103 630,99 634,96 637,93 641,91 645,88 649,86 652,82 656,80 660,78 663,77 667,75 671,73 674,72 678,69 682,67 685,65 689,60 693,57 696,56 700,55 704,53 707,53 711,52 715,52 718,51 722,51 726,51 730,50 730,250" fill="#e8e8e8" opacity="0.6"/>
<polyline points="60,250 63,250 67,250 71,250 74,245 78,245 82,245 85,245 89,245 93,245 96,245 100,245 104,245 107,245 111,245 115,245 118,245 122,245 126,245 129,245 133,245 137,245 140,245 144,245 148,245 152,245 155,245 159,245 163,245 166,241 170,241 174,241 177,240 181,240 185,240 188,237 192,236 196,234 199,225 203,225 207,225 210,223 214,214 218,212 221,211 225,211 229,211 233,210 236,200 240,199 244,199 247,199 251,199 255,199 258,199 262,199 266,199 269,199 273,199 277,199 280,199 284,199 288,197 291,197 295,197 299,197 302,197 306,197 310,194 314,192 317,191 321,185 325,184 328,184 332,183 336,183 339,183 343,183 347,183 350,183 354,183 358,183 361,183 365,182 369,182 372,182 376,178 380,177 383,177 387,172 391,171 395,171 398,171 402,159 406,159 409,159 413,151 417,142 420,134 424,134 428,133 431,132 435,132 439,132 442,132 446,132 450,132 453,132 457,132 461,132 464,132 468,131 472,131 475,131 479,131 483,131 487,131 490,131 494,128 498,127 501,126 505,126 509,126 512,126 516,126 520,126 523,126 527,125 531,125 534,125 538,125 542,125 545,125 549,125 553,125 556,125 560,125 564,124 568,124 571,124 575,124 579,124 582,124 586,123 590,123 593,123 597,123 601,123 604,122 608,122 612,118 615,114 619,111 623,108 626,103 630,99 634,96 637,93 641,91 645,88 649,86 652,82 656,80 660,78 663,77 667,75 671,73 674,72 678,69 682,67 685,65 689,60 693,57 696,56 700,55 704,53 707,53 711,52 715,52 718,51 722,51 726,51 730,50" fill="none" stroke="#111111" stroke-width="2.4" stroke-linejoin="round" stroke-linecap="round" filter="url(#pline)"/>
<circle cx="730" cy="50" r="4" fill="#111111" filter="url(#pencil)"/>
<text x="724" y="42" text-anchor="end" font-size="10" font-family="Georgia,serif" fill="#111111">525K</text>
<text x="60" y="289" font-size="9" font-family="Georgia,serif" fill="#888888">기준: 2026-06-20 22:36</text>
</svg>