<svg xmlns="http://www.w3.org/2000/svg" width="760" height="295">
<defs><filter id="pencil" x="-5%" y="-5%" width="110%" height="110%"><feTurbulence type="fractalNoise" baseFrequency="0.9" numOctaves="4" seed="5" result="noise"/><feDisplacementMap in="SourceGraphic" in2="noise" scale="1.6" xChannelSelector="R" yChannelSelector="G"/></filter><filter id="pline" x="-2%" y="-30%" width="104%" height="160%"><feTurbulence type="fractalNoise" baseFrequency="0.015 0.9" numOctaves="3" seed="11" result="noise"/><feDisplacementMap in="SourceGraphic" in2="noise" scale="1.8" xChannelSelector="R" yChannelSelector="G"/></filter><filter id="rough" x="-5%" y="-5%" width="110%" height="110%"><feTurbulence type="turbulence" baseFrequency="0.05" numOctaves="2" seed="2" result="noise"/><feDisplacementMap in="SourceGraphic" in2="noise" scale="2" xChannelSelector="R" yChannelSelector="G"/></filter></defs>
<rect width="760" height="295" fill="#ffffff"/>
<text x="380" y="32" text-anchor="middle" font-size="14" font-weight="bold" font-family="Georgia,serif" fill="#111111" filter="url(#pencil)">Workload (6 months)</text>
<line x1="60" y1="250" x2="730" y2="250" stroke="#cccccc" stroke-width="0.7" stroke-dasharray="4,5" filter="url(#rough)"/>
<text x="54" y="254" text-anchor="end" font-size="10" font-family="Georgia,serif" fill="#333333">0</text>
<line x1="60" y1="201" x2="730" y2="201" stroke="#cccccc" stroke-width="0.7" stroke-dasharray="4,5" filter="url(#rough)"/>
<text x="54" y="205" text-anchor="end" font-size="10" font-family="Georgia,serif" fill="#333333">169K</text>
<line x1="60" y1="151" x2="730" y2="151" stroke="#cccccc" stroke-width="0.7" stroke-dasharray="4,5" filter="url(#rough)"/>
<text x="54" y="155" text-anchor="end" font-size="10" font-family="Georgia,serif" fill="#333333">338K</text>
<line x1="60" y1="101" x2="730" y2="101" stroke="#cccccc" stroke-width="0.7" stroke-dasharray="4,5" filter="url(#rough)"/>
<text x="54" y="105" text-anchor="end" font-size="10" font-family="Georgia,serif" fill="#333333">508K</text>
<line x1="60" y1="50" x2="730" y2="50" stroke="#cccccc" stroke-width="0.7" stroke-dasharray="4,5" filter="url(#rough)"/>
<text x="54" y="54" text-anchor="end" font-size="10" font-family="Georgia,serif" fill="#333333">677K</text>
<text x="89" y="270" text-anchor="middle" font-size="11" font-family="Georgia,serif" fill="#333333" filter="url(#pencil)">1월</text>
<text x="203" y="270" text-anchor="middle" font-size="11" font-family="Georgia,serif" fill="#333333" filter="url(#pencil)">2월</text>
<text x="306" y="270" text-anchor="middle" font-size="11" font-family="Georgia,serif" fill="#333333" filter="url(#pencil)">3월</text>
<text x="420" y="270" text-anchor="middle" font-size="11" font-family="Georgia,serif" fill="#333333" filter="url(#pencil)">4월</text>
<text x="531" y="270" text-anchor="middle" font-size="11" font-family="Georgia,serif" fill="#333333" filter="url(#pencil)">5월</text>
<text x="645" y="270" text-anchor="middle" font-size="11" font-family="Georgia,serif" fill="#333333" filter="url(#pencil)">6월</text>
<line x1="59" y1="42" x2="59" y2="256" stroke="#111111" stroke-width="2" filter="url(#pline)"/>
<line x1="52" y1="251" x2="738" y2="251" stroke="#111111" stroke-width="2" filter="url(#pline)"/>
<polygon points="60,250 60,246 63,246 67,246 71,246 74,246 78,246 82,246 85,246 89,246 93,246 96,246 100,246 104,246 107,246 111,246 115,246 118,246 122,246 126,246 129,246 133,246 137,246 140,246 144,246 148,246 152,242 155,242 159,242 163,242 166,242 170,241 174,239 177,238 181,236 185,229 188,229 192,229 196,227 199,219 203,217 207,216 210,216 214,216 218,216 221,207 225,206 229,206 233,206 236,206 240,206 244,206 247,206 251,206 255,206 258,206 262,206 266,206 269,206 273,204 277,204 280,204 284,204 288,204 291,204 295,202 299,200 302,199 306,194 310,193 314,193 317,192 321,192 325,192 328,192 332,192 336,192 339,192 343,192 347,192 350,191 354,191 358,191 361,188 365,187 369,187 372,183 376,182 380,182 383,182 387,172 391,172 395,172 398,165 402,156 406,150 409,149 413,148 417,148 420,148 424,148 428,148 431,148 435,148 439,148 442,148 446,148 450,148 453,147 457,147 461,147 464,145 468,145 472,145 475,145 479,142 483,141 487,139 490,139 494,139 498,137 501,137 505,137 509,136 512,135 516,135 520,135 523,135 527,135 531,135 534,135 538,135 542,135 545,135 549,134 553,134 556,134 560,134 564,133 568,133 571,133 575,133 579,133 582,132 586,132 590,131 593,131 597,128 601,125 604,122 608,118 612,114 615,110 619,108 623,105 626,103 630,101 634,98 637,95 641,93 645,91 649,90 652,88 656,86 660,85 663,83 667,80 671,79 674,73 678,70 682,69 685,68 689,66 693,65 696,64 700,63 704,62 707,62 711,61 715,59 718,54 722,52 726,51 730,50 730,250" fill="#e8e8e8" opacity="0.6"/>
<polyline points="60,246 63,246 67,246 71,246 74,246 78,246 82,246 85,246 89,246 93,246 96,246 100,246 104,246 107,246 111,246 115,246 118,246 122,246 126,246 129,246 133,246 137,246 140,246 144,246 148,246 152,242 155,242 159,242 163,242 166,242 170,241 174,239 177,238 181,236 185,229 188,229 192,229 196,227 199,219 203,217 207,216 210,216 214,216 218,216 221,207 225,206 229,206 233,206 236,206 240,206 244,206 247,206 251,206 255,206 258,206 262,206 266,206 269,206 273,204 277,204 280,204 284,204 288,204 291,204 295,202 299,200 302,199 306,194 310,193 314,193 317,192 321,192 325,192 328,192 332,192 336,192 339,192 343,192 347,192 350,191 354,191 358,191 361,188 365,187 369,187 372,183 376,182 380,182 383,182 387,172 391,172 395,172 398,165 402,156 406,150 409,149 413,148 417,148 420,148 424,148 428,148 431,148 435,148 439,148 442,148 446,148 450,148 453,147 457,147 461,147 464,145 468,145 472,145 475,145 479,142 483,141 487,139 490,139 494,139 498,137 501,137 505,137 509,136 512,135 516,135 520,135 523,135 527,135 531,135 534,135 538,135 542,135 545,135 549,134 553,134 556,134 560,134 564,133 568,133 571,133 575,133 579,133 582,132 586,132 590,131 593,131 597,128 601,125 604,122 608,118 612,114 615,110 619,108 623,105 626,103 630,101 634,98 637,95 641,93 645,91 649,90 652,88 656,86 660,85 663,83 667,80 671,79 674,73 678,70 682,69 685,68 689,66 693,65 696,64 700,63 704,62 707,62 711,61 715,59 718,54 722,52 726,51 730,50" fill="none" stroke="#111111" stroke-width="2.4" stroke-linejoin="round" stroke-linecap="round" filter="url(#pline)"/>
<circle cx="730" cy="50" r="4" fill="#111111" filter="url(#pencil)"/>
<text x="724" y="42" text-anchor="end" font-size="10" font-family="Georgia,serif" fill="#111111">677K</text>
<text x="60" y="289" font-size="9" font-family="Georgia,serif" fill="#888888">기준: 2026-06-24 20:12</text>
</svg>