<svg xmlns="http://www.w3.org/2000/svg" width="760" height="295">
<defs><filter id="pencil" x="-5%" y="-5%" width="110%" height="110%"><feTurbulence type="fractalNoise" baseFrequency="0.9" numOctaves="4" seed="5" result="noise"/><feDisplacementMap in="SourceGraphic" in2="noise" scale="1.6" xChannelSelector="R" yChannelSelector="G"/></filter><filter id="pline" x="-2%" y="-30%" width="104%" height="160%"><feTurbulence type="fractalNoise" baseFrequency="0.015 0.9" numOctaves="3" seed="11" result="noise"/><feDisplacementMap in="SourceGraphic" in2="noise" scale="1.8" xChannelSelector="R" yChannelSelector="G"/></filter><filter id="rough" x="-5%" y="-5%" width="110%" height="110%"><feTurbulence type="turbulence" baseFrequency="0.05" numOctaves="2" seed="2" result="noise"/><feDisplacementMap in="SourceGraphic" in2="noise" scale="2" xChannelSelector="R" yChannelSelector="G"/></filter></defs>
<rect width="760" height="295" fill="#ffffff"/>
<text x="380" y="32" text-anchor="middle" font-size="14" font-weight="bold" font-family="Georgia,serif" fill="#111111" filter="url(#pencil)">Workload (6 months)</text>
<line x1="60" y1="250" x2="730" y2="250" stroke="#cccccc" stroke-width="0.7" stroke-dasharray="4,5" filter="url(#rough)"/>
<text x="54" y="254" text-anchor="end" font-size="10" font-family="Georgia,serif" fill="#333333">0</text>
<line x1="60" y1="201" x2="730" y2="201" stroke="#cccccc" stroke-width="0.7" stroke-dasharray="4,5" filter="url(#rough)"/>
<text x="54" y="205" text-anchor="end" font-size="10" font-family="Georgia,serif" fill="#333333">171K</text>
<line x1="60" y1="151" x2="730" y2="151" stroke="#cccccc" stroke-width="0.7" stroke-dasharray="4,5" filter="url(#rough)"/>
<text x="54" y="155" text-anchor="end" font-size="10" font-family="Georgia,serif" fill="#333333">343K</text>
<line x1="60" y1="101" x2="730" y2="101" stroke="#cccccc" stroke-width="0.7" stroke-dasharray="4,5" filter="url(#rough)"/>
<text x="54" y="105" text-anchor="end" font-size="10" font-family="Georgia,serif" fill="#333333">514K</text>
<line x1="60" y1="50" x2="730" y2="50" stroke="#cccccc" stroke-width="0.7" stroke-dasharray="4,5" filter="url(#rough)"/>
<text x="54" y="54" text-anchor="end" font-size="10" font-family="Georgia,serif" fill="#333333">686K</text>
<text x="89" y="270" text-anchor="middle" font-size="11" font-family="Georgia,serif" fill="#333333" filter="url(#pencil)">1월</text>
<text x="203" y="270" text-anchor="middle" font-size="11" font-family="Georgia,serif" fill="#333333" filter="url(#pencil)">2월</text>
<text x="306" y="270" text-anchor="middle" font-size="11" font-family="Georgia,serif" fill="#333333" filter="url(#pencil)">3월</text>
<text x="420" y="270" text-anchor="middle" font-size="11" font-family="Georgia,serif" fill="#333333" filter="url(#pencil)">4월</text>
<text x="531" y="270" text-anchor="middle" font-size="11" font-family="Georgia,serif" fill="#333333" filter="url(#pencil)">5월</text>
<text x="645" y="270" text-anchor="middle" font-size="11" font-family="Georgia,serif" fill="#333333" filter="url(#pencil)">6월</text>
<line x1="59" y1="42" x2="59" y2="256" stroke="#111111" stroke-width="2" filter="url(#pline)"/>
<line x1="52" y1="251" x2="738" y2="251" stroke="#111111" stroke-width="2" filter="url(#pline)"/>
<polygon points="60,250 60,246 63,246 67,246 71,246 74,246 78,246 82,246 85,246 89,246 93,246 96,246 100,246 104,246 107,246 111,246 115,246 118,246 122,246 126,246 129,246 133,246 137,246 140,246 144,246 148,246 152,242 155,242 159,242 163,242 166,242 170,241 174,239 177,238 181,237 185,229 188,229 192,229 196,227 199,219 203,217 207,216 210,216 214,216 218,216 221,207 225,206 229,206 233,206 236,206 240,206 244,206 247,206 251,206 255,206 258,206 262,206 266,206 269,206 273,204 277,204 280,204 284,204 288,204 291,204 295,202 299,201 302,200 306,195 310,193 314,193 317,193 321,193 325,193 328,193 332,193 336,193 339,193 343,193 347,193 350,192 354,192 358,192 361,189 365,188 369,188 372,183 376,183 380,183 383,183 387,172 391,172 395,172 398,165 402,157 406,151 409,150 413,149 417,149 420,149 424,149 428,149 431,149 435,149 439,149 442,149 446,149 450,149 453,148 457,148 461,148 464,146 468,146 472,146 475,146 479,143 483,142 487,139 490,139 494,139 498,138 501,138 505,138 509,137 512,136 516,136 520,136 523,136 527,136 531,136 534,136 538,135 542,135 545,135 549,134 553,134 556,134 560,134 564,134 568,134 571,134 575,134 579,134 582,133 586,133 590,132 593,131 597,128 601,125 604,122 608,119 612,115 615,111 619,109 623,106 626,104 630,101 634,99 637,96 641,94 645,92 649,90 652,89 656,87 660,86 663,83 667,81 671,80 674,74 678,71 682,70 685,69 689,66 693,65 696,65 700,64 704,63 707,63 711,62 715,60 718,55 722,53 726,51 730,50 730,250" fill="#e8e8e8" opacity="0.6"/>
<polyline points="60,246 63,246 67,246 71,246 74,246 78,246 82,246 85,246 89,246 93,246 96,246 100,246 104,246 107,246 111,246 115,246 118,246 122,246 126,246 129,246 133,246 137,246 140,246 144,246 148,246 152,242 155,242 159,242 163,242 166,242 170,241 174,239 177,238 181,237 185,229 188,229 192,229 196,227 199,219 203,217 207,216 210,216 214,216 218,216 221,207 225,206 229,206 233,206 236,206 240,206 244,206 247,206 251,206 255,206 258,206 262,206 266,206 269,206 273,204 277,204 280,204 284,204 288,204 291,204 295,202 299,201 302,200 306,195 310,193 314,193 317,193 321,193 325,193 328,193 332,193 336,193 339,193 343,193 347,193 350,192 354,192 358,192 361,189 365,188 369,188 372,183 376,183 380,183 383,183 387,172 391,172 395,172 398,165 402,157 406,151 409,150 413,149 417,149 420,149 424,149 428,149 431,149 435,149 439,149 442,149 446,149 450,149 453,148 457,148 461,148 464,146 468,146 472,146 475,146 479,143 483,142 487,139 490,139 494,139 498,138 501,138 505,138 509,137 512,136 516,136 520,136 523,136 527,136 531,136 534,136 538,135 542,135 545,135 549,134 553,134 556,134 560,134 564,134 568,134 571,134 575,134 579,134 582,133 586,133 590,132 593,131 597,128 601,125 604,122 608,119 612,115 615,111 619,109 623,106 626,104 630,101 634,99 637,96 641,94 645,92 649,90 652,89 656,87 660,86 663,83 667,81 671,80 674,74 678,71 682,70 685,69 689,66 693,65 696,65 700,64 704,63 707,63 711,62 715,60 718,55 722,53 726,51 730,50" fill="none" stroke="#111111" stroke-width="2.4" stroke-linejoin="round" stroke-linecap="round" filter="url(#pline)"/>
<circle cx="730" cy="50" r="4" fill="#111111" filter="url(#pencil)"/>
<text x="724" y="42" text-anchor="end" font-size="10" font-family="Georgia,serif" fill="#111111">686K</text>
<text x="60" y="289" font-size="9" font-family="Georgia,serif" fill="#888888">기준: 2026-06-24 22:40</text>
</svg>