<svg xmlns="http://www.w3.org/2000/svg" width="760" height="295">
<defs><filter id="pencil" x="-5%" y="-5%" width="110%" height="110%"><feTurbulence type="fractalNoise" baseFrequency="0.9" numOctaves="4" seed="5" result="noise"/><feDisplacementMap in="SourceGraphic" in2="noise" scale="1.6" xChannelSelector="R" yChannelSelector="G"/></filter><filter id="pline" x="-2%" y="-30%" width="104%" height="160%"><feTurbulence type="fractalNoise" baseFrequency="0.015 0.9" numOctaves="3" seed="11" result="noise"/><feDisplacementMap in="SourceGraphic" in2="noise" scale="1.8" xChannelSelector="R" yChannelSelector="G"/></filter><filter id="rough" x="-5%" y="-5%" width="110%" height="110%"><feTurbulence type="turbulence" baseFrequency="0.05" numOctaves="2" seed="2" result="noise"/><feDisplacementMap in="SourceGraphic" in2="noise" scale="2" xChannelSelector="R" yChannelSelector="G"/></filter></defs>
<rect width="760" height="295" fill="#ffffff"/>
<text x="380" y="32" text-anchor="middle" font-size="14" font-weight="bold" font-family="Georgia,serif" fill="#111111" filter="url(#pencil)">Workload (6 months)</text>
<line x1="60" y1="250" x2="730" y2="250" stroke="#cccccc" stroke-width="0.7" stroke-dasharray="4,5" filter="url(#rough)"/>
<text x="54" y="254" text-anchor="end" font-size="10" font-family="Georgia,serif" fill="#333333">0</text>
<line x1="60" y1="201" x2="730" y2="201" stroke="#cccccc" stroke-width="0.7" stroke-dasharray="4,5" filter="url(#rough)"/>
<text x="54" y="205" text-anchor="end" font-size="10" font-family="Georgia,serif" fill="#333333">126K</text>
<line x1="60" y1="150" x2="730" y2="150" stroke="#cccccc" stroke-width="0.7" stroke-dasharray="4,5" filter="url(#rough)"/>
<text x="54" y="154" text-anchor="end" font-size="10" font-family="Georgia,serif" fill="#333333">252K</text>
<line x1="60" y1="101" x2="730" y2="101" stroke="#cccccc" stroke-width="0.7" stroke-dasharray="4,5" filter="url(#rough)"/>
<text x="54" y="105" text-anchor="end" font-size="10" font-family="Georgia,serif" fill="#333333">378K</text>
<line x1="60" y1="50" x2="730" y2="50" stroke="#cccccc" stroke-width="0.7" stroke-dasharray="4,5" filter="url(#rough)"/>
<text x="54" y="54" text-anchor="end" font-size="10" font-family="Georgia,serif" fill="#333333">505K</text>
<text x="115" y="270" text-anchor="middle" font-size="11" font-family="Georgia,serif" fill="#333333" filter="url(#pencil)">1월</text>
<text x="229" y="270" text-anchor="middle" font-size="11" font-family="Georgia,serif" fill="#333333" filter="url(#pencil)">2월</text>
<text x="332" y="270" text-anchor="middle" font-size="11" font-family="Georgia,serif" fill="#333333" filter="url(#pencil)">3월</text>
<text x="446" y="270" text-anchor="middle" font-size="11" font-family="Georgia,serif" fill="#333333" filter="url(#pencil)">4월</text>
<text x="556" y="270" text-anchor="middle" font-size="11" font-family="Georgia,serif" fill="#333333" filter="url(#pencil)">5월</text>
<text x="671" y="270" text-anchor="middle" font-size="11" font-family="Georgia,serif" fill="#333333" filter="url(#pencil)">6월</text>
<line x1="59" y1="42" x2="59" y2="256" stroke="#111111" stroke-width="2" filter="url(#pline)"/>
<line x1="52" y1="251" x2="738" y2="251" stroke="#111111" stroke-width="2" filter="url(#pline)"/>
<polygon points="60,250 60,250 63,250 67,230 71,230 74,230 78,230 82,230 85,225 89,225 93,225 96,225 100,225 104,225 107,225 111,225 115,225 118,225 122,225 126,225 129,225 133,225 137,225 140,225 144,225 148,225 152,225 155,225 159,225 163,225 166,225 170,225 174,225 177,220 181,220 185,220 188,220 192,220 196,220 199,217 203,216 207,214 210,206 214,206 218,206 221,204 225,195 229,193 233,192 236,192 240,192 244,191 247,182 251,181 255,181 258,181 262,181 266,181 269,181 273,181 277,181 280,181 284,181 288,181 291,181 295,181 299,179 302,179 306,179 310,179 314,179 317,179 321,177 325,175 328,174 332,168 336,166 339,166 343,166 347,166 350,166 354,166 358,166 361,166 365,166 369,166 372,166 376,165 380,165 383,165 387,161 391,160 395,160 398,156 402,155 406,155 409,155 413,143 417,143 420,143 424,136 428,127 431,120 435,119 439,118 442,118 446,118 450,118 453,118 457,118 461,118 464,118 468,118 472,118 475,118 479,117 483,117 487,117 490,117 494,117 498,117 501,117 505,114 509,113 512,113 516,113 520,113 523,113 527,113 531,113 534,113 538,113 542,113 545,113 549,113 553,113 556,113 560,113 564,113 568,113 571,113 575,112 579,112 582,112 586,112 590,112 593,112 597,111 601,111 604,111 608,111 612,111 615,110 619,110 623,106 626,103 630,100 634,97 637,93 641,89 645,86 649,84 652,81 656,79 660,77 663,74 667,72 671,70 674,69 678,68 682,66 685,65 689,63 693,61 696,60 700,56 704,54 707,53 711,52 715,51 718,51 722,51 726,51 730,50 730,250" fill="#e8e8e8" opacity="0.6"/>
<polyline points="60,250 63,250 67,230 71,230 74,230 78,230 82,230 85,225 89,225 93,225 96,225 100,225 104,225 107,225 111,225 115,225 118,225 122,225 126,225 129,225 133,225 137,225 140,225 144,225 148,225 152,225 155,225 159,225 163,225 166,225 170,225 174,225 177,220 181,220 185,220 188,220 192,220 196,220 199,217 203,216 207,214 210,206 214,206 218,206 221,204 225,195 229,193 233,192 236,192 240,192 244,191 247,182 251,181 255,181 258,181 262,181 266,181 269,181 273,181 277,181 280,181 284,181 288,181 291,181 295,181 299,179 302,179 306,179 310,179 314,179 317,179 321,177 325,175 328,174 332,168 336,166 339,166 343,166 347,166 350,166 354,166 358,166 361,166 365,166 369,166 372,166 376,165 380,165 383,165 387,161 391,160 395,160 398,156 402,155 406,155 409,155 413,143 417,143 420,143 424,136 428,127 431,120 435,119 439,118 442,118 446,118 450,118 453,118 457,118 461,118 464,118 468,118 472,118 475,118 479,117 483,117 487,117 490,117 494,117 498,117 501,117 505,114 509,113 512,113 516,113 520,113 523,113 527,113 531,113 534,113 538,113 542,113 545,113 549,113 553,113 556,113 560,113 564,113 568,113 571,113 575,112 579,112 582,112 586,112 590,112 593,112 597,111 601,111 604,111 608,111 612,111 615,110 619,110 623,106 626,103 630,100 634,97 637,93 641,89 645,86 649,84 652,81 656,79 660,77 663,74 667,72 671,70 674,69 678,68 682,66 685,65 689,63 693,61 696,60 700,56 704,54 707,53 711,52 715,51 718,51 722,51 726,51 730,50" fill="none" stroke="#111111" stroke-width="2.4" stroke-linejoin="round" stroke-linecap="round" filter="url(#pline)"/>
<circle cx="730" cy="50" r="4" fill="#111111" filter="url(#pencil)"/>
<text x="724" y="42" text-anchor="end" font-size="10" font-family="Georgia,serif" fill="#111111">505K</text>
<text x="60" y="289" font-size="9" font-family="Georgia,serif" fill="#888888">기준: 2026-06-17 22:53</text>
</svg>