<svg xmlns="http://www.w3.org/2000/svg" width="760" height="295">
<defs><filter id="pencil" x="-5%" y="-5%" width="110%" height="110%"><feTurbulence type="fractalNoise" baseFrequency="0.9" numOctaves="4" seed="5" result="noise"/><feDisplacementMap in="SourceGraphic" in2="noise" scale="1.6" xChannelSelector="R" yChannelSelector="G"/></filter><filter id="pline" x="-2%" y="-30%" width="104%" height="160%"><feTurbulence type="fractalNoise" baseFrequency="0.015 0.9" numOctaves="3" seed="11" result="noise"/><feDisplacementMap in="SourceGraphic" in2="noise" scale="1.8" xChannelSelector="R" yChannelSelector="G"/></filter><filter id="rough" x="-5%" y="-5%" width="110%" height="110%"><feTurbulence type="turbulence" baseFrequency="0.05" numOctaves="2" seed="2" result="noise"/><feDisplacementMap in="SourceGraphic" in2="noise" scale="2" xChannelSelector="R" yChannelSelector="G"/></filter></defs>
<rect width="760" height="295" fill="#ffffff"/>
<text x="380" y="32" text-anchor="middle" font-size="14" font-weight="bold" font-family="Georgia,serif" fill="#111111" filter="url(#pencil)">Workload (6 months)</text>
<line x1="60" y1="250" x2="730" y2="250" stroke="#cccccc" stroke-width="0.7" stroke-dasharray="4,5" filter="url(#rough)"/>
<text x="54" y="254" text-anchor="end" font-size="10" font-family="Georgia,serif" fill="#333333">0</text>
<line x1="60" y1="200" x2="730" y2="200" stroke="#cccccc" stroke-width="0.7" stroke-dasharray="4,5" filter="url(#rough)"/>
<text x="54" y="204" text-anchor="end" font-size="10" font-family="Georgia,serif" fill="#333333">289K</text>
<line x1="60" y1="150" x2="730" y2="150" stroke="#cccccc" stroke-width="0.7" stroke-dasharray="4,5" filter="url(#rough)"/>
<text x="54" y="154" text-anchor="end" font-size="10" font-family="Georgia,serif" fill="#333333">578K</text>
<line x1="60" y1="100" x2="730" y2="100" stroke="#cccccc" stroke-width="0.7" stroke-dasharray="4,5" filter="url(#rough)"/>
<text x="54" y="104" text-anchor="end" font-size="10" font-family="Georgia,serif" fill="#333333">867K</text>
<line x1="60" y1="50" x2="730" y2="50" stroke="#cccccc" stroke-width="0.7" stroke-dasharray="4,5" filter="url(#rough)"/>
<text x="54" y="54" text-anchor="end" font-size="10" font-family="Georgia,serif" fill="#333333">1156K</text>
<text x="170" y="270" text-anchor="middle" font-size="11" font-family="Georgia,serif" fill="#333333" filter="url(#pencil)">2월</text>
<text x="273" y="270" text-anchor="middle" font-size="11" font-family="Georgia,serif" fill="#333333" filter="url(#pencil)">3월</text>
<text x="387" y="270" text-anchor="middle" font-size="11" font-family="Georgia,serif" fill="#333333" filter="url(#pencil)">4월</text>
<text x="498" y="270" text-anchor="middle" font-size="11" font-family="Georgia,serif" fill="#333333" filter="url(#pencil)">5월</text>
<text x="612" y="270" text-anchor="middle" font-size="11" font-family="Georgia,serif" fill="#333333" filter="url(#pencil)">6월</text>
<text x="722" y="270" text-anchor="middle" font-size="11" font-family="Georgia,serif" fill="#333333" filter="url(#pencil)">7월</text>
<line x1="59" y1="42" x2="59" y2="256" stroke="#111111" stroke-width="2" filter="url(#pline)"/>
<line x1="52" y1="251" x2="738" y2="251" stroke="#111111" stroke-width="2" filter="url(#pline)"/>
<polygon points="60,250 60,250 63,250 67,250 71,250 74,250 78,250 82,250 85,250 89,250 93,250 96,250 100,250 104,250 107,250 111,250 115,250 118,247 122,247 126,247 129,247 133,247 137,247 140,245 144,244 148,243 152,238 155,238 159,238 163,236 166,230 170,229 174,228 177,228 181,228 185,228 188,221 192,221 196,220 199,220 203,220 207,220 210,220 214,220 218,220 221,220 225,220 229,220 233,220 236,220 240,219 244,219 247,219 251,219 255,219 258,219 262,218 266,216 269,216 273,212 277,211 280,211 284,210 288,210 291,210 295,210 299,210 302,210 306,210 310,210 314,210 317,210 321,210 325,210 328,207 332,206 336,206 339,203 343,203 347,203 350,203 354,195 358,195 361,195 365,190 369,183 372,179 376,178 380,178 383,177 387,177 391,177 395,177 398,177 402,177 406,177 409,177 413,177 417,177 420,176 424,176 428,176 431,172 435,172 439,172 442,172 446,170 450,169 453,164 457,164 461,164 464,162 468,162 472,161 475,160 479,158 483,157 487,157 490,157 494,157 498,157 501,157 505,157 509,157 512,157 516,156 520,156 523,156 527,156 531,156 534,156 538,156 542,156 545,156 549,154 553,154 556,153 560,153 564,150 568,148 571,146 575,142 579,139 582,136 586,134 590,132 593,130 597,128 601,126 604,124 608,122 612,120 615,119 619,117 623,116 626,114 630,112 634,110 637,109 641,103 645,100 649,99 652,97 656,95 660,94 663,93 667,92 671,91 674,90 678,88 682,84 685,73 689,66 693,61 696,56 700,54 704,53 707,52 711,52 715,51 718,51 722,51 726,51 730,50 730,250" fill="#e8e8e8" opacity="0.6"/>
<polyline points="60,250 63,250 67,250 71,250 74,250 78,250 82,250 85,250 89,250 93,250 96,250 100,250 104,250 107,250 111,250 115,250 118,247 122,247 126,247 129,247 133,247 137,247 140,245 144,244 148,243 152,238 155,238 159,238 163,236 166,230 170,229 174,228 177,228 181,228 185,228 188,221 192,221 196,220 199,220 203,220 207,220 210,220 214,220 218,220 221,220 225,220 229,220 233,220 236,220 240,219 244,219 247,219 251,219 255,219 258,219 262,218 266,216 269,216 273,212 277,211 280,211 284,210 288,210 291,210 295,210 299,210 302,210 306,210 310,210 314,210 317,210 321,210 325,210 328,207 332,206 336,206 339,203 343,203 347,203 350,203 354,195 358,195 361,195 365,190 369,183 372,179 376,178 380,178 383,177 387,177 391,177 395,177 398,177 402,177 406,177 409,177 413,177 417,177 420,176 424,176 428,176 431,172 435,172 439,172 442,172 446,170 450,169 453,164 457,164 461,164 464,162 468,162 472,161 475,160 479,158 483,157 487,157 490,157 494,157 498,157 501,157 505,157 509,157 512,157 516,156 520,156 523,156 527,156 531,156 534,156 538,156 542,156 545,156 549,154 553,154 556,153 560,153 564,150 568,148 571,146 575,142 579,139 582,136 586,134 590,132 593,130 597,128 601,126 604,124 608,122 612,120 615,119 619,117 623,116 626,114 630,112 634,110 637,109 641,103 645,100 649,99 652,97 656,95 660,94 663,93 667,92 671,91 674,90 678,88 682,84 685,73 689,66 693,61 696,56 700,54 704,53 707,52 711,52 715,51 718,51 722,51 726,51 730,50" fill="none" stroke="#111111" stroke-width="2.4" stroke-linejoin="round" stroke-linecap="round" filter="url(#pline)"/>
<circle cx="730" cy="50" r="4" fill="#111111" filter="url(#pencil)"/>
<text x="724" y="42" text-anchor="end" font-size="10" font-family="Georgia,serif" fill="#111111">1156K</text>
<text x="60" y="289" font-size="9" font-family="Georgia,serif" fill="#888888">기준: 2026-07-03 22:17</text>
</svg>