<svg xmlns="http://www.w3.org/2000/svg" width="760" height="295">
<defs><filter id="pencil" x="-5%" y="-5%" width="110%" height="110%"><feTurbulence type="fractalNoise" baseFrequency="0.9" numOctaves="4" seed="5" result="noise"/><feDisplacementMap in="SourceGraphic" in2="noise" scale="1.6" xChannelSelector="R" yChannelSelector="G"/></filter><filter id="pline" x="-2%" y="-30%" width="104%" height="160%"><feTurbulence type="fractalNoise" baseFrequency="0.015 0.9" numOctaves="3" seed="11" result="noise"/><feDisplacementMap in="SourceGraphic" in2="noise" scale="1.8" xChannelSelector="R" yChannelSelector="G"/></filter><filter id="rough" x="-5%" y="-5%" width="110%" height="110%"><feTurbulence type="turbulence" baseFrequency="0.05" numOctaves="2" seed="2" result="noise"/><feDisplacementMap in="SourceGraphic" in2="noise" scale="2" xChannelSelector="R" yChannelSelector="G"/></filter></defs>
<rect width="760" height="295" fill="#ffffff"/>
<text x="380" y="32" text-anchor="middle" font-size="14" font-weight="bold" font-family="Georgia,serif" fill="#111111" filter="url(#pencil)">Workload (6 months)</text>
<line x1="60" y1="250" x2="730" y2="250" stroke="#cccccc" stroke-width="0.7" stroke-dasharray="4,5" filter="url(#rough)"/>
<text x="54" y="254" text-anchor="end" font-size="10" font-family="Georgia,serif" fill="#333333">0</text>
<line x1="60" y1="201" x2="730" y2="201" stroke="#cccccc" stroke-width="0.7" stroke-dasharray="4,5" filter="url(#rough)"/>
<text x="54" y="205" text-anchor="end" font-size="10" font-family="Georgia,serif" fill="#333333">49K</text>
<line x1="60" y1="151" x2="730" y2="151" stroke="#cccccc" stroke-width="0.7" stroke-dasharray="4,5" filter="url(#rough)"/>
<text x="54" y="155" text-anchor="end" font-size="10" font-family="Georgia,serif" fill="#333333">99K</text>
<line x1="60" y1="101" x2="730" y2="101" stroke="#cccccc" stroke-width="0.7" stroke-dasharray="4,5" filter="url(#rough)"/>
<text x="54" y="105" text-anchor="end" font-size="10" font-family="Georgia,serif" fill="#333333">149K</text>
<line x1="60" y1="50" x2="730" y2="50" stroke="#cccccc" stroke-width="0.7" stroke-dasharray="4,5" filter="url(#rough)"/>
<text x="54" y="54" text-anchor="end" font-size="10" font-family="Georgia,serif" fill="#333333">199K</text>
<text x="71" y="270" text-anchor="middle" font-size="11" font-family="Georgia,serif" fill="#333333" filter="url(#pencil)">12월</text>
<text x="185" y="270" text-anchor="middle" font-size="11" font-family="Georgia,serif" fill="#333333" filter="url(#pencil)">1월</text>
<text x="299" y="270" text-anchor="middle" font-size="11" font-family="Georgia,serif" fill="#333333" filter="url(#pencil)">2월</text>
<text x="402" y="270" text-anchor="middle" font-size="11" font-family="Georgia,serif" fill="#333333" filter="url(#pencil)">3월</text>
<text x="516" y="270" text-anchor="middle" font-size="11" font-family="Georgia,serif" fill="#333333" filter="url(#pencil)">4월</text>
<text x="626" y="270" text-anchor="middle" font-size="11" font-family="Georgia,serif" fill="#333333" filter="url(#pencil)">5월</text>
<line x1="59" y1="42" x2="59" y2="256" stroke="#111111" stroke-width="2" filter="url(#pline)"/>
<line x1="52" y1="251" x2="738" y2="251" stroke="#111111" stroke-width="2" filter="url(#pline)"/>
<polygon points="60,250 60,250 63,250 67,250 71,250 74,250 78,250 82,250 85,250 89,245 93,245 96,228 100,228 104,228 107,228 111,196 115,196 118,196 122,196 126,196 129,196 133,196 137,177 140,177 144,177 148,177 152,177 155,173 159,173 163,173 166,173 170,173 174,173 177,173 181,173 185,173 188,173 192,173 196,173 199,173 203,173 207,173 210,173 214,173 218,173 221,173 225,173 229,173 233,173 236,173 240,173 244,173 247,169 251,169 255,169 258,168 262,168 266,168 269,166 273,165 277,163 280,155 284,155 288,155 291,154 295,146 299,144 302,143 306,143 310,143 314,142 317,133 321,133 325,132 328,132 332,132 336,132 339,132 343,132 347,132 350,132 354,132 358,132 361,132 365,132 369,131 372,131 376,131 380,131 383,131 387,131 391,129 395,127 398,126 402,121 406,119 409,119 413,119 417,119 420,119 424,119 428,119 431,119 435,119 439,119 442,119 446,118 450,118 453,118 457,115 461,114 464,114 468,110 472,109 475,109 479,109 483,98 487,98 490,98 494,92 498,83 501,77 505,76 509,75 512,75 516,75 520,75 523,75 527,75 531,75 534,75 538,75 542,75 545,75 549,74 553,74 556,74 560,74 564,74 568,74 571,74 575,72 579,71 582,71 586,71 590,71 593,71 597,71 601,71 604,71 608,71 612,71 615,71 619,71 623,71 626,71 630,71 634,70 637,70 641,70 645,69 649,69 652,69 656,69 660,69 663,69 667,69 671,69 674,69 678,69 682,69 685,68 689,68 693,65 696,62 700,60 704,57 707,55 711,53 715,52 718,51 722,51 726,51 730,50 730,250" fill="#e8e8e8" opacity="0.6"/>
<polyline points="60,250 63,250 67,250 71,250 74,250 78,250 82,250 85,250 89,245 93,245 96,228 100,228 104,228 107,228 111,196 115,196 118,196 122,196 126,196 129,196 133,196 137,177 140,177 144,177 148,177 152,177 155,173 159,173 163,173 166,173 170,173 174,173 177,173 181,173 185,173 188,173 192,173 196,173 199,173 203,173 207,173 210,173 214,173 218,173 221,173 225,173 229,173 233,173 236,173 240,173 244,173 247,169 251,169 255,169 258,168 262,168 266,168 269,166 273,165 277,163 280,155 284,155 288,155 291,154 295,146 299,144 302,143 306,143 310,143 314,142 317,133 321,133 325,132 328,132 332,132 336,132 339,132 343,132 347,132 350,132 354,132 358,132 361,132 365,132 369,131 372,131 376,131 380,131 383,131 387,131 391,129 395,127 398,126 402,121 406,119 409,119 413,119 417,119 420,119 424,119 428,119 431,119 435,119 439,119 442,119 446,118 450,118 453,118 457,115 461,114 464,114 468,110 472,109 475,109 479,109 483,98 487,98 490,98 494,92 498,83 501,77 505,76 509,75 512,75 516,75 520,75 523,75 527,75 531,75 534,75 538,75 542,75 545,75 549,74 553,74 556,74 560,74 564,74 568,74 571,74 575,72 579,71 582,71 586,71 590,71 593,71 597,71 601,71 604,71 608,71 612,71 615,71 619,71 623,71 626,71 630,71 634,70 637,70 641,70 645,69 649,69 652,69 656,69 660,69 663,69 667,69 671,69 674,69 678,69 682,69 685,68 689,68 693,65 696,62 700,60 704,57 707,55 711,53 715,52 718,51 722,51 726,51 730,50" fill="none" stroke="#111111" stroke-width="2.4" stroke-linejoin="round" stroke-linecap="round" filter="url(#pline)"/>
<circle cx="730" cy="50" r="4" fill="#111111" filter="url(#pencil)"/>
<text x="724" y="42" text-anchor="end" font-size="10" font-family="Georgia,serif" fill="#111111">199K</text>
<text x="60" y="289" font-size="9" font-family="Georgia,serif" fill="#888888">기준: 2026-05-29 10:15</text>
</svg>