<svg xmlns="http://www.w3.org/2000/svg" width="760" height="295">
<defs><filter id="pencil" x="-5%" y="-5%" width="110%" height="110%"><feTurbulence type="fractalNoise" baseFrequency="0.9" numOctaves="4" seed="5" result="noise"/><feDisplacementMap in="SourceGraphic" in2="noise" scale="1.6" xChannelSelector="R" yChannelSelector="G"/></filter><filter id="pline" x="-2%" y="-30%" width="104%" height="160%"><feTurbulence type="fractalNoise" baseFrequency="0.015 0.9" numOctaves="3" seed="11" result="noise"/><feDisplacementMap in="SourceGraphic" in2="noise" scale="1.8" xChannelSelector="R" yChannelSelector="G"/></filter><filter id="rough" x="-5%" y="-5%" width="110%" height="110%"><feTurbulence type="turbulence" baseFrequency="0.05" numOctaves="2" seed="2" result="noise"/><feDisplacementMap in="SourceGraphic" in2="noise" scale="2" xChannelSelector="R" yChannelSelector="G"/></filter></defs>
<rect width="760" height="295" fill="#ffffff"/>
<text x="380" y="32" text-anchor="middle" font-size="14" font-weight="bold" font-family="Georgia,serif" fill="#111111" filter="url(#pencil)">Workload (6 months)</text>
<line x1="60" y1="250" x2="730" y2="250" stroke="#cccccc" stroke-width="0.7" stroke-dasharray="4,5" filter="url(#rough)"/>
<text x="54" y="254" text-anchor="end" font-size="10" font-family="Georgia,serif" fill="#333333">0</text>
<line x1="60" y1="201" x2="730" y2="201" stroke="#cccccc" stroke-width="0.7" stroke-dasharray="4,5" filter="url(#rough)"/>
<text x="54" y="205" text-anchor="end" font-size="10" font-family="Georgia,serif" fill="#333333">81K</text>
<line x1="60" y1="151" x2="730" y2="151" stroke="#cccccc" stroke-width="0.7" stroke-dasharray="4,5" filter="url(#rough)"/>
<text x="54" y="155" text-anchor="end" font-size="10" font-family="Georgia,serif" fill="#333333">163K</text>
<line x1="60" y1="101" x2="730" y2="101" stroke="#cccccc" stroke-width="0.7" stroke-dasharray="4,5" filter="url(#rough)"/>
<text x="54" y="105" text-anchor="end" font-size="10" font-family="Georgia,serif" fill="#333333">244K</text>
<line x1="60" y1="50" x2="730" y2="50" stroke="#cccccc" stroke-width="0.7" stroke-dasharray="4,5" filter="url(#rough)"/>
<text x="54" y="54" text-anchor="end" font-size="10" font-family="Georgia,serif" fill="#333333">326K</text>
<text x="163" y="270" text-anchor="middle" font-size="11" font-family="Georgia,serif" fill="#333333" filter="url(#pencil)">1월</text>
<text x="277" y="270" text-anchor="middle" font-size="11" font-family="Georgia,serif" fill="#333333" filter="url(#pencil)">2월</text>
<text x="380" y="270" text-anchor="middle" font-size="11" font-family="Georgia,serif" fill="#333333" filter="url(#pencil)">3월</text>
<text x="494" y="270" text-anchor="middle" font-size="11" font-family="Georgia,serif" fill="#333333" filter="url(#pencil)">4월</text>
<text x="604" y="270" text-anchor="middle" font-size="11" font-family="Georgia,serif" fill="#333333" filter="url(#pencil)">5월</text>
<text x="718" y="270" text-anchor="middle" font-size="11" font-family="Georgia,serif" fill="#333333" filter="url(#pencil)">6월</text>
<line x1="59" y1="42" x2="59" y2="256" stroke="#111111" stroke-width="2" filter="url(#pline)"/>
<line x1="52" y1="251" x2="738" y2="251" stroke="#111111" stroke-width="2" filter="url(#pline)"/>
<polygon points="60,250 60,250 63,250 67,246 71,246 74,230 78,230 82,230 85,230 89,199 93,199 96,199 100,199 104,199 107,199 111,199 115,181 118,181 122,181 126,181 129,181 133,177 137,177 140,177 144,177 148,177 152,177 155,177 159,177 163,177 166,177 170,177 174,177 177,177 181,177 185,177 188,177 192,177 196,177 199,177 203,177 207,177 210,177 214,177 218,177 221,177 225,173 229,173 233,173 236,173 240,173 244,172 247,170 251,169 255,168 258,160 262,160 266,160 269,159 273,151 277,149 280,148 284,148 288,148 291,148 295,139 299,139 302,138 306,138 310,138 314,138 317,138 321,138 325,138 328,138 332,138 336,138 339,138 343,138 347,137 350,137 354,137 358,137 361,137 365,137 369,135 372,133 376,132 380,127 383,126 387,126 391,126 395,126 398,126 402,126 406,126 409,126 413,126 417,126 420,126 424,125 428,125 431,125 435,122 439,121 442,121 446,117 450,116 453,116 457,116 461,106 464,106 468,106 472,99 475,91 479,85 483,85 487,84 490,84 494,84 498,84 501,84 505,84 509,84 512,84 516,84 520,84 523,84 527,83 531,83 534,83 538,83 542,83 545,83 549,83 553,81 556,79 560,79 564,79 568,79 571,79 575,79 579,79 582,79 586,79 590,79 593,79 597,79 601,79 604,79 608,79 612,79 615,79 619,79 623,78 626,78 630,78 634,78 637,78 641,78 645,78 649,78 652,78 656,78 660,78 663,77 667,77 671,74 674,71 678,68 682,66 685,63 689,60 693,58 696,57 700,56 704,54 707,53 711,52 715,51 718,51 722,51 726,51 730,50 730,250" fill="#e8e8e8" opacity="0.6"/>
<polyline points="60,250 63,250 67,246 71,246 74,230 78,230 82,230 85,230 89,199 93,199 96,199 100,199 104,199 107,199 111,199 115,181 118,181 122,181 126,181 129,181 133,177 137,177 140,177 144,177 148,177 152,177 155,177 159,177 163,177 166,177 170,177 174,177 177,177 181,177 185,177 188,177 192,177 196,177 199,177 203,177 207,177 210,177 214,177 218,177 221,177 225,173 229,173 233,173 236,173 240,173 244,172 247,170 251,169 255,168 258,160 262,160 266,160 269,159 273,151 277,149 280,148 284,148 288,148 291,148 295,139 299,139 302,138 306,138 310,138 314,138 317,138 321,138 325,138 328,138 332,138 336,138 339,138 343,138 347,137 350,137 354,137 358,137 361,137 365,137 369,135 372,133 376,132 380,127 383,126 387,126 391,126 395,126 398,126 402,126 406,126 409,126 413,126 417,126 420,126 424,125 428,125 431,125 435,122 439,121 442,121 446,117 450,116 453,116 457,116 461,106 464,106 468,106 472,99 475,91 479,85 483,85 487,84 490,84 494,84 498,84 501,84 505,84 509,84 512,84 516,84 520,84 523,84 527,83 531,83 534,83 538,83 542,83 545,83 549,83 553,81 556,79 560,79 564,79 568,79 571,79 575,79 579,79 582,79 586,79 590,79 593,79 597,79 601,79 604,79 608,79 612,79 615,79 619,79 623,78 626,78 630,78 634,78 637,78 641,78 645,78 649,78 652,78 656,78 660,78 663,77 667,77 671,74 674,71 678,68 682,66 685,63 689,60 693,58 696,57 700,56 704,54 707,53 711,52 715,51 718,51 722,51 726,51 730,50" fill="none" stroke="#111111" stroke-width="2.4" stroke-linejoin="round" stroke-linecap="round" filter="url(#pline)"/>
<circle cx="730" cy="50" r="4" fill="#111111" filter="url(#pencil)"/>
<text x="724" y="42" text-anchor="end" font-size="10" font-family="Georgia,serif" fill="#111111">326K</text>
<text x="60" y="289" font-size="9" font-family="Georgia,serif" fill="#888888">기준: 2026-06-04 20:26</text>
</svg>