<svg xmlns="http://www.w3.org/2000/svg" width="760" height="295">
<defs><filter id="pencil" x="-5%" y="-5%" width="110%" height="110%"><feTurbulence type="fractalNoise" baseFrequency="0.9" numOctaves="4" seed="5" result="noise"/><feDisplacementMap in="SourceGraphic" in2="noise" scale="1.6" xChannelSelector="R" yChannelSelector="G"/></filter><filter id="pline" x="-2%" y="-30%" width="104%" height="160%"><feTurbulence type="fractalNoise" baseFrequency="0.015 0.9" numOctaves="3" seed="11" result="noise"/><feDisplacementMap in="SourceGraphic" in2="noise" scale="1.8" xChannelSelector="R" yChannelSelector="G"/></filter><filter id="rough" x="-5%" y="-5%" width="110%" height="110%"><feTurbulence type="turbulence" baseFrequency="0.05" numOctaves="2" seed="2" result="noise"/><feDisplacementMap in="SourceGraphic" in2="noise" scale="2" xChannelSelector="R" yChannelSelector="G"/></filter></defs>
<rect width="760" height="295" fill="#ffffff"/>
<text x="380" y="32" text-anchor="middle" font-size="14" font-weight="bold" font-family="Georgia,serif" fill="#111111" filter="url(#pencil)">Workload (6 months)</text>
<line x1="60" y1="250" x2="730" y2="250" stroke="#cccccc" stroke-width="0.7" stroke-dasharray="4,5" filter="url(#rough)"/>
<text x="54" y="254" text-anchor="end" font-size="10" font-family="Georgia,serif" fill="#333333">0</text>
<line x1="60" y1="201" x2="730" y2="201" stroke="#cccccc" stroke-width="0.7" stroke-dasharray="4,5" filter="url(#rough)"/>
<text x="54" y="205" text-anchor="end" font-size="10" font-family="Georgia,serif" fill="#333333">105K</text>
<line x1="60" y1="151" x2="730" y2="151" stroke="#cccccc" stroke-width="0.7" stroke-dasharray="4,5" filter="url(#rough)"/>
<text x="54" y="155" text-anchor="end" font-size="10" font-family="Georgia,serif" fill="#333333">210K</text>
<line x1="60" y1="101" x2="730" y2="101" stroke="#cccccc" stroke-width="0.7" stroke-dasharray="4,5" filter="url(#rough)"/>
<text x="54" y="105" text-anchor="end" font-size="10" font-family="Georgia,serif" fill="#333333">315K</text>
<line x1="60" y1="50" x2="730" y2="50" stroke="#cccccc" stroke-width="0.7" stroke-dasharray="4,5" filter="url(#rough)"/>
<text x="54" y="54" text-anchor="end" font-size="10" font-family="Georgia,serif" fill="#333333">420K</text>
<text x="140" y="270" text-anchor="middle" font-size="11" font-family="Georgia,serif" fill="#333333" filter="url(#pencil)">1월</text>
<text x="255" y="270" text-anchor="middle" font-size="11" font-family="Georgia,serif" fill="#333333" filter="url(#pencil)">2월</text>
<text x="358" y="270" text-anchor="middle" font-size="11" font-family="Georgia,serif" fill="#333333" filter="url(#pencil)">3월</text>
<text x="472" y="270" text-anchor="middle" font-size="11" font-family="Georgia,serif" fill="#333333" filter="url(#pencil)">4월</text>
<text x="582" y="270" text-anchor="middle" font-size="11" font-family="Georgia,serif" fill="#333333" filter="url(#pencil)">5월</text>
<text x="696" y="270" text-anchor="middle" font-size="11" font-family="Georgia,serif" fill="#333333" filter="url(#pencil)">6월</text>
<line x1="59" y1="42" x2="59" y2="256" stroke="#111111" stroke-width="2" filter="url(#pline)"/>
<line x1="52" y1="251" x2="738" y2="251" stroke="#111111" stroke-width="2" filter="url(#pline)"/>
<polygon points="60,250 60,250 63,250 67,218 71,218 74,218 78,218 82,218 85,218 89,218 93,199 96,199 100,199 104,199 107,199 111,195 115,195 118,195 122,195 126,195 129,195 133,195 137,195 140,195 144,195 148,195 152,195 155,195 159,195 163,195 166,195 170,195 174,195 177,195 181,195 185,195 188,195 192,195 196,195 199,195 203,191 207,191 210,191 214,190 218,190 221,190 225,187 229,187 233,185 236,177 240,177 244,177 247,175 251,167 255,166 258,165 262,165 266,165 269,164 273,155 277,155 280,154 284,154 288,154 291,154 295,154 299,154 302,154 306,154 310,154 314,154 317,154 321,154 325,152 328,152 332,152 336,152 339,152 343,152 347,150 350,149 354,148 358,143 361,141 365,141 369,141 372,141 376,141 380,141 383,141 387,141 391,141 395,141 398,141 402,140 406,140 409,140 413,137 417,136 420,136 424,131 428,131 431,131 435,131 439,120 442,120 446,120 450,113 453,105 457,98 461,98 464,97 468,97 472,97 475,97 479,97 483,97 487,97 490,97 494,97 498,97 501,97 505,96 509,96 512,96 516,96 520,96 523,96 527,96 531,93 534,92 538,92 542,92 545,92 549,92 553,92 556,92 560,92 564,92 568,92 571,92 575,92 579,92 582,92 586,92 590,92 593,92 597,92 601,91 604,91 608,91 612,91 615,91 619,91 623,90 626,90 630,90 634,90 637,90 641,89 645,89 649,86 652,83 656,80 660,77 663,74 667,71 671,68 674,66 678,64 682,63 685,61 689,59 693,57 696,56 700,55 704,55 707,54 711,53 715,52 718,51 722,51 726,51 730,50 730,250" fill="#e8e8e8" opacity="0.6"/>
<polyline points="60,250 63,250 67,218 71,218 74,218 78,218 82,218 85,218 89,218 93,199 96,199 100,199 104,199 107,199 111,195 115,195 118,195 122,195 126,195 129,195 133,195 137,195 140,195 144,195 148,195 152,195 155,195 159,195 163,195 166,195 170,195 174,195 177,195 181,195 185,195 188,195 192,195 196,195 199,195 203,191 207,191 210,191 214,190 218,190 221,190 225,187 229,187 233,185 236,177 240,177 244,177 247,175 251,167 255,166 258,165 262,165 266,165 269,164 273,155 277,155 280,154 284,154 288,154 291,154 295,154 299,154 302,154 306,154 310,154 314,154 317,154 321,154 325,152 328,152 332,152 336,152 339,152 343,152 347,150 350,149 354,148 358,143 361,141 365,141 369,141 372,141 376,141 380,141 383,141 387,141 391,141 395,141 398,141 402,140 406,140 409,140 413,137 417,136 420,136 424,131 428,131 431,131 435,131 439,120 442,120 446,120 450,113 453,105 457,98 461,98 464,97 468,97 472,97 475,97 479,97 483,97 487,97 490,97 494,97 498,97 501,97 505,96 509,96 512,96 516,96 520,96 523,96 527,96 531,93 534,92 538,92 542,92 545,92 549,92 553,92 556,92 560,92 564,92 568,92 571,92 575,92 579,92 582,92 586,92 590,92 593,92 597,92 601,91 604,91 608,91 612,91 615,91 619,91 623,90 626,90 630,90 634,90 637,90 641,89 645,89 649,86 652,83 656,80 660,77 663,74 667,71 671,68 674,66 678,64 682,63 685,61 689,59 693,57 696,56 700,55 704,55 707,54 711,53 715,52 718,51 722,51 726,51 730,50" fill="none" stroke="#111111" stroke-width="2.4" stroke-linejoin="round" stroke-linecap="round" filter="url(#pline)"/>
<circle cx="730" cy="50" r="4" fill="#111111" filter="url(#pencil)"/>
<text x="724" y="42" text-anchor="end" font-size="10" font-family="Georgia,serif" fill="#111111">420K</text>
<text x="60" y="289" font-size="9" font-family="Georgia,serif" fill="#888888">기준: 2026-06-10 16:10</text>
</svg>