<svg xmlns="http://www.w3.org/2000/svg" width="760" height="295">
<defs><filter id="pencil" x="-5%" y="-5%" width="110%" height="110%"><feTurbulence type="fractalNoise" baseFrequency="0.9" numOctaves="4" seed="5" result="noise"/><feDisplacementMap in="SourceGraphic" in2="noise" scale="1.6" xChannelSelector="R" yChannelSelector="G"/></filter><filter id="pline" x="-2%" y="-30%" width="104%" height="160%"><feTurbulence type="fractalNoise" baseFrequency="0.015 0.9" numOctaves="3" seed="11" result="noise"/><feDisplacementMap in="SourceGraphic" in2="noise" scale="1.8" xChannelSelector="R" yChannelSelector="G"/></filter><filter id="rough" x="-5%" y="-5%" width="110%" height="110%"><feTurbulence type="turbulence" baseFrequency="0.05" numOctaves="2" seed="2" result="noise"/><feDisplacementMap in="SourceGraphic" in2="noise" scale="2" xChannelSelector="R" yChannelSelector="G"/></filter></defs>
<rect width="760" height="295" fill="#ffffff"/>
<text x="380" y="32" text-anchor="middle" font-size="14" font-weight="bold" font-family="Georgia,serif" fill="#111111" filter="url(#pencil)">Workload (6 months)</text>
<line x1="60" y1="250" x2="730" y2="250" stroke="#cccccc" stroke-width="0.7" stroke-dasharray="4,5" filter="url(#rough)"/>
<text x="54" y="254" text-anchor="end" font-size="10" font-family="Georgia,serif" fill="#333333">0</text>
<line x1="60" y1="201" x2="730" y2="201" stroke="#cccccc" stroke-width="0.7" stroke-dasharray="4,5" filter="url(#rough)"/>
<text x="54" y="205" text-anchor="end" font-size="10" font-family="Georgia,serif" fill="#333333">138K</text>
<line x1="60" y1="151" x2="730" y2="151" stroke="#cccccc" stroke-width="0.7" stroke-dasharray="4,5" filter="url(#rough)"/>
<text x="54" y="155" text-anchor="end" font-size="10" font-family="Georgia,serif" fill="#333333">276K</text>
<line x1="60" y1="101" x2="730" y2="101" stroke="#cccccc" stroke-width="0.7" stroke-dasharray="4,5" filter="url(#rough)"/>
<text x="54" y="105" text-anchor="end" font-size="10" font-family="Georgia,serif" fill="#333333">414K</text>
<line x1="60" y1="50" x2="730" y2="50" stroke="#cccccc" stroke-width="0.7" stroke-dasharray="4,5" filter="url(#rough)"/>
<text x="54" y="54" text-anchor="end" font-size="10" font-family="Georgia,serif" fill="#333333">552K</text>
<text x="100" y="270" text-anchor="middle" font-size="11" font-family="Georgia,serif" fill="#333333" filter="url(#pencil)">1월</text>
<text x="214" y="270" text-anchor="middle" font-size="11" font-family="Georgia,serif" fill="#333333" filter="url(#pencil)">2월</text>
<text x="317" y="270" text-anchor="middle" font-size="11" font-family="Georgia,serif" fill="#333333" filter="url(#pencil)">3월</text>
<text x="431" y="270" text-anchor="middle" font-size="11" font-family="Georgia,serif" fill="#333333" filter="url(#pencil)">4월</text>
<text x="542" y="270" text-anchor="middle" font-size="11" font-family="Georgia,serif" fill="#333333" filter="url(#pencil)">5월</text>
<text x="656" y="270" text-anchor="middle" font-size="11" font-family="Georgia,serif" fill="#333333" filter="url(#pencil)">6월</text>
<line x1="59" y1="42" x2="59" y2="256" stroke="#111111" stroke-width="2" filter="url(#pline)"/>
<line x1="52" y1="251" x2="738" y2="251" stroke="#111111" stroke-width="2" filter="url(#pline)"/>
<polygon points="60,250 60,250 63,250 67,250 71,245 74,245 78,245 82,245 85,245 89,245 93,245 96,245 100,245 104,245 107,245 111,245 115,245 118,245 122,245 126,245 129,245 133,245 137,245 140,245 144,245 148,245 152,245 155,245 159,245 163,241 166,241 170,241 174,241 177,241 181,240 185,237 188,236 192,235 196,226 199,226 203,226 207,224 210,215 214,213 218,212 221,212 225,212 229,211 233,201 236,200 240,200 244,200 247,200 251,200 255,200 258,200 262,200 266,200 269,200 273,200 277,200 280,200 284,198 288,198 291,198 295,198 299,198 302,198 306,196 310,194 314,193 317,187 321,185 325,185 328,185 332,185 336,185 339,185 343,185 347,185 350,185 354,185 358,185 361,184 365,184 369,184 372,180 376,179 380,179 383,174 387,174 391,174 395,174 398,162 402,162 406,162 409,154 413,144 417,137 420,137 424,136 428,135 431,135 435,135 439,135 442,135 446,135 450,135 453,135 457,135 461,135 464,134 468,134 472,134 475,134 479,134 483,134 487,134 490,131 494,129 498,128 501,128 505,128 509,128 512,128 516,128 520,127 523,127 527,127 531,127 534,127 538,127 542,127 545,127 549,126 553,126 556,126 560,125 564,125 568,125 571,125 575,125 579,125 582,125 586,125 590,125 593,124 597,124 601,123 604,123 608,119 612,116 615,113 619,109 623,105 626,101 630,98 634,95 637,93 641,90 645,88 649,84 652,82 656,80 660,78 663,77 667,75 671,73 674,71 678,69 682,67 685,62 689,59 693,58 696,57 700,55 704,54 707,54 711,53 715,53 718,52 722,52 726,51 730,50 730,250" fill="#e8e8e8" opacity="0.6"/>
<polyline points="60,250 63,250 67,250 71,245 74,245 78,245 82,245 85,245 89,245 93,245 96,245 100,245 104,245 107,245 111,245 115,245 118,245 122,245 126,245 129,245 133,245 137,245 140,245 144,245 148,245 152,245 155,245 159,245 163,241 166,241 170,241 174,241 177,241 181,240 185,237 188,236 192,235 196,226 199,226 203,226 207,224 210,215 214,213 218,212 221,212 225,212 229,211 233,201 236,200 240,200 244,200 247,200 251,200 255,200 258,200 262,200 266,200 269,200 273,200 277,200 280,200 284,198 288,198 291,198 295,198 299,198 302,198 306,196 310,194 314,193 317,187 321,185 325,185 328,185 332,185 336,185 339,185 343,185 347,185 350,185 354,185 358,185 361,184 365,184 369,184 372,180 376,179 380,179 383,174 387,174 391,174 395,174 398,162 402,162 406,162 409,154 413,144 417,137 420,137 424,136 428,135 431,135 435,135 439,135 442,135 446,135 450,135 453,135 457,135 461,135 464,134 468,134 472,134 475,134 479,134 483,134 487,134 490,131 494,129 498,128 501,128 505,128 509,128 512,128 516,128 520,127 523,127 527,127 531,127 534,127 538,127 542,127 545,127 549,126 553,126 556,126 560,125 564,125 568,125 571,125 575,125 579,125 582,125 586,125 590,125 593,124 597,124 601,123 604,123 608,119 612,116 615,113 619,109 623,105 626,101 630,98 634,95 637,93 641,90 645,88 649,84 652,82 656,80 660,78 663,77 667,75 671,73 674,71 678,69 682,67 685,62 689,59 693,58 696,57 700,55 704,54 707,54 711,53 715,53 718,52 722,52 726,51 730,50" fill="none" stroke="#111111" stroke-width="2.4" stroke-linejoin="round" stroke-linecap="round" filter="url(#pline)"/>
<circle cx="730" cy="50" r="4" fill="#111111" filter="url(#pencil)"/>
<text x="724" y="42" text-anchor="end" font-size="10" font-family="Georgia,serif" fill="#111111">552K</text>
<text x="60" y="289" font-size="9" font-family="Georgia,serif" fill="#888888">기준: 2026-06-21 16:55</text>
</svg>