<svg xmlns="http://www.w3.org/2000/svg" width="760" height="295">
<defs><filter id="pencil" x="-5%" y="-5%" width="110%" height="110%"><feTurbulence type="fractalNoise" baseFrequency="0.9" numOctaves="4" seed="5" result="noise"/><feDisplacementMap in="SourceGraphic" in2="noise" scale="1.6" xChannelSelector="R" yChannelSelector="G"/></filter><filter id="pline" x="-2%" y="-30%" width="104%" height="160%"><feTurbulence type="fractalNoise" baseFrequency="0.015 0.9" numOctaves="3" seed="11" result="noise"/><feDisplacementMap in="SourceGraphic" in2="noise" scale="1.8" xChannelSelector="R" yChannelSelector="G"/></filter><filter id="rough" x="-5%" y="-5%" width="110%" height="110%"><feTurbulence type="turbulence" baseFrequency="0.05" numOctaves="2" seed="2" result="noise"/><feDisplacementMap in="SourceGraphic" in2="noise" scale="2" xChannelSelector="R" yChannelSelector="G"/></filter></defs>
<rect width="760" height="295" fill="#ffffff"/>
<text x="380" y="32" text-anchor="middle" font-size="14" font-weight="bold" font-family="Georgia,serif" fill="#111111" filter="url(#pencil)">Workload (6 months)</text>
<line x1="60" y1="250" x2="730" y2="250" stroke="#cccccc" stroke-width="0.7" stroke-dasharray="4,5" filter="url(#rough)"/>
<text x="54" y="254" text-anchor="end" font-size="10" font-family="Georgia,serif" fill="#333333">0</text>
<line x1="60" y1="200" x2="730" y2="200" stroke="#cccccc" stroke-width="0.7" stroke-dasharray="4,5" filter="url(#rough)"/>
<text x="54" y="204" text-anchor="end" font-size="10" font-family="Georgia,serif" fill="#333333">241K</text>
<line x1="60" y1="150" x2="730" y2="150" stroke="#cccccc" stroke-width="0.7" stroke-dasharray="4,5" filter="url(#rough)"/>
<text x="54" y="154" text-anchor="end" font-size="10" font-family="Georgia,serif" fill="#333333">483K</text>
<line x1="60" y1="100" x2="730" y2="100" stroke="#cccccc" stroke-width="0.7" stroke-dasharray="4,5" filter="url(#rough)"/>
<text x="54" y="104" text-anchor="end" font-size="10" font-family="Georgia,serif" fill="#333333">725K</text>
<line x1="60" y1="50" x2="730" y2="50" stroke="#cccccc" stroke-width="0.7" stroke-dasharray="4,5" filter="url(#rough)"/>
<text x="54" y="54" text-anchor="end" font-size="10" font-family="Georgia,serif" fill="#333333">967K</text>
<text x="67" y="270" text-anchor="middle" font-size="11" font-family="Georgia,serif" fill="#333333" filter="url(#pencil)">1월</text>
<text x="181" y="270" text-anchor="middle" font-size="11" font-family="Georgia,serif" fill="#333333" filter="url(#pencil)">2월</text>
<text x="284" y="270" text-anchor="middle" font-size="11" font-family="Georgia,serif" fill="#333333" filter="url(#pencil)">3월</text>
<text x="398" y="270" text-anchor="middle" font-size="11" font-family="Georgia,serif" fill="#333333" filter="url(#pencil)">4월</text>
<text x="509" y="270" text-anchor="middle" font-size="11" font-family="Georgia,serif" fill="#333333" filter="url(#pencil)">5월</text>
<text x="623" y="270" text-anchor="middle" font-size="11" font-family="Georgia,serif" fill="#333333" filter="url(#pencil)">6월</text>
<line x1="59" y1="42" x2="59" y2="256" stroke="#111111" stroke-width="2" filter="url(#pline)"/>
<line x1="52" y1="251" x2="738" y2="251" stroke="#111111" stroke-width="2" filter="url(#pline)"/>
<polygon points="60,250 60,250 63,250 67,250 71,250 74,250 78,250 82,250 85,250 89,250 93,250 96,250 100,250 104,250 107,250 111,250 115,250 118,250 122,250 126,250 129,247 133,247 137,247 140,247 144,247 148,247 152,245 155,244 159,243 163,236 166,236 170,236 174,235 177,228 181,227 185,226 188,226 192,226 196,226 199,218 203,218 207,217 210,217 214,217 218,217 221,217 225,217 229,217 233,217 236,217 240,217 244,217 247,217 251,216 255,216 258,216 262,216 266,216 269,216 273,214 277,213 280,212 284,208 288,207 291,207 295,206 299,206 302,206 306,206 310,206 314,206 317,206 321,206 325,206 328,205 332,205 336,205 339,203 343,202 347,202 350,199 354,198 358,198 361,198 365,189 369,189 372,189 376,184 380,177 383,171 387,171 391,170 395,170 398,170 402,169 406,169 409,169 413,169 417,169 420,169 424,169 428,169 431,169 435,169 439,169 442,165 446,165 450,165 453,165 457,163 461,162 464,158 468,158 472,158 475,156 479,156 483,155 487,154 490,152 494,151 498,151 501,151 505,151 509,151 512,151 516,151 520,151 523,151 527,150 531,150 534,150 538,150 542,150 545,150 549,150 553,150 556,150 560,148 564,148 568,148 571,147 575,145 579,142 582,140 586,136 590,132 593,129 597,127 601,125 604,123 608,121 612,118 615,116 619,114 623,112 626,111 630,109 634,108 637,106 641,104 645,102 649,100 652,95 656,91 660,90 663,89 667,87 671,85 674,84 678,84 682,82 685,82 689,80 693,77 696,67 700,62 704,57 707,53 711,52 715,51 718,51 722,51 726,51 730,50 730,250" fill="#e8e8e8" opacity="0.6"/>
<polyline points="60,250 63,250 67,250 71,250 74,250 78,250 82,250 85,250 89,250 93,250 96,250 100,250 104,250 107,250 111,250 115,250 118,250 122,250 126,250 129,247 133,247 137,247 140,247 144,247 148,247 152,245 155,244 159,243 163,236 166,236 170,236 174,235 177,228 181,227 185,226 188,226 192,226 196,226 199,218 203,218 207,217 210,217 214,217 218,217 221,217 225,217 229,217 233,217 236,217 240,217 244,217 247,217 251,216 255,216 258,216 262,216 266,216 269,216 273,214 277,213 280,212 284,208 288,207 291,207 295,206 299,206 302,206 306,206 310,206 314,206 317,206 321,206 325,206 328,205 332,205 336,205 339,203 343,202 347,202 350,199 354,198 358,198 361,198 365,189 369,189 372,189 376,184 380,177 383,171 387,171 391,170 395,170 398,170 402,169 406,169 409,169 413,169 417,169 420,169 424,169 428,169 431,169 435,169 439,169 442,165 446,165 450,165 453,165 457,163 461,162 464,158 468,158 472,158 475,156 479,156 483,155 487,154 490,152 494,151 498,151 501,151 505,151 509,151 512,151 516,151 520,151 523,151 527,150 531,150 534,150 538,150 542,150 545,150 549,150 553,150 556,150 560,148 564,148 568,148 571,147 575,145 579,142 582,140 586,136 590,132 593,129 597,127 601,125 604,123 608,121 612,118 615,116 619,114 623,112 626,111 630,109 634,108 637,106 641,104 645,102 649,100 652,95 656,91 660,90 663,89 667,87 671,85 674,84 678,84 682,82 685,82 689,80 693,77 696,67 700,62 704,57 707,53 711,52 715,51 718,51 722,51 726,51 730,50" fill="none" stroke="#111111" stroke-width="2.4" stroke-linejoin="round" stroke-linecap="round" filter="url(#pline)"/>
<circle cx="730" cy="50" r="4" fill="#111111" filter="url(#pencil)"/>
<text x="724" y="42" text-anchor="end" font-size="10" font-family="Georgia,serif" fill="#111111">967K</text>
<text x="60" y="289" font-size="9" font-family="Georgia,serif" fill="#888888">기준: 2026-06-30 17:17</text>
</svg>