<svg xmlns="http://www.w3.org/2000/svg" width="760" height="295">
<defs><filter id="pencil" x="-5%" y="-5%" width="110%" height="110%"><feTurbulence type="fractalNoise" baseFrequency="0.9" numOctaves="4" seed="5" result="noise"/><feDisplacementMap in="SourceGraphic" in2="noise" scale="1.6" xChannelSelector="R" yChannelSelector="G"/></filter><filter id="pline" x="-2%" y="-30%" width="104%" height="160%"><feTurbulence type="fractalNoise" baseFrequency="0.015 0.9" numOctaves="3" seed="11" result="noise"/><feDisplacementMap in="SourceGraphic" in2="noise" scale="1.8" xChannelSelector="R" yChannelSelector="G"/></filter><filter id="rough" x="-5%" y="-5%" width="110%" height="110%"><feTurbulence type="turbulence" baseFrequency="0.05" numOctaves="2" seed="2" result="noise"/><feDisplacementMap in="SourceGraphic" in2="noise" scale="2" xChannelSelector="R" yChannelSelector="G"/></filter></defs>
<rect width="760" height="295" fill="#ffffff"/>
<text x="380" y="32" text-anchor="middle" font-size="14" font-weight="bold" font-family="Georgia,serif" fill="#111111" filter="url(#pencil)">Workload (6 months)</text>
<line x1="60" y1="250" x2="730" y2="250" stroke="#cccccc" stroke-width="0.7" stroke-dasharray="4,5" filter="url(#rough)"/>
<text x="54" y="254" text-anchor="end" font-size="10" font-family="Georgia,serif" fill="#333333">0</text>
<line x1="60" y1="201" x2="730" y2="201" stroke="#cccccc" stroke-width="0.7" stroke-dasharray="4,5" filter="url(#rough)"/>
<text x="54" y="205" text-anchor="end" font-size="10" font-family="Georgia,serif" fill="#333333">26K</text>
<line x1="60" y1="151" x2="730" y2="151" stroke="#cccccc" stroke-width="0.7" stroke-dasharray="4,5" filter="url(#rough)"/>
<text x="54" y="155" text-anchor="end" font-size="10" font-family="Georgia,serif" fill="#333333">53K</text>
<line x1="60" y1="101" x2="730" y2="101" stroke="#cccccc" stroke-width="0.7" stroke-dasharray="4,5" filter="url(#rough)"/>
<text x="54" y="105" text-anchor="end" font-size="10" font-family="Georgia,serif" fill="#333333">80K</text>
<line x1="60" y1="50" x2="730" y2="50" stroke="#cccccc" stroke-width="0.7" stroke-dasharray="4,5" filter="url(#rough)"/>
<text x="54" y="54" text-anchor="end" font-size="10" font-family="Georgia,serif" fill="#333333">107K</text>
<text x="89" y="270" text-anchor="middle" font-size="11" font-family="Georgia,serif" fill="#333333" filter="url(#pencil)">12월</text>
<text x="203" y="270" text-anchor="middle" font-size="11" font-family="Georgia,serif" fill="#333333" filter="url(#pencil)">1월</text>
<text x="317" y="270" text-anchor="middle" font-size="11" font-family="Georgia,serif" fill="#333333" filter="url(#pencil)">2월</text>
<text x="420" y="270" text-anchor="middle" font-size="11" font-family="Georgia,serif" fill="#333333" filter="url(#pencil)">3월</text>
<text x="534" y="270" text-anchor="middle" font-size="11" font-family="Georgia,serif" fill="#333333" filter="url(#pencil)">4월</text>
<text x="645" y="270" text-anchor="middle" font-size="11" font-family="Georgia,serif" fill="#333333" filter="url(#pencil)">5월</text>
<line x1="59" y1="42" x2="59" y2="256" stroke="#111111" stroke-width="2" filter="url(#pline)"/>
<line x1="52" y1="251" x2="738" y2="251" stroke="#111111" stroke-width="2" filter="url(#pline)"/>
<polygon points="60,250 60,249 63,248 67,246 71,244 74,244 78,244 82,244 85,244 89,244 93,244 96,244 100,244 104,243 107,239 111,239 115,222 118,222 122,222 126,222 129,189 133,189 137,189 140,189 144,189 148,189 152,189 155,170 159,170 163,170 166,170 170,170 174,166 177,166 181,166 185,166 188,166 192,166 196,166 199,166 203,166 207,166 210,166 214,166 218,166 221,166 225,166 229,166 233,166 236,166 240,166 244,166 247,166 251,166 255,166 258,166 262,166 266,162 269,162 273,162 277,161 280,161 284,161 288,158 291,157 295,156 299,148 302,148 306,148 310,146 314,138 317,137 321,136 325,136 328,135 332,135 336,126 339,125 343,125 347,125 350,125 354,125 358,125 361,125 365,125 369,125 372,125 376,125 380,125 383,125 387,123 391,123 395,123 398,123 402,123 406,123 409,121 413,119 417,118 420,113 424,112 428,112 431,112 435,112 439,112 442,112 446,112 450,112 453,112 457,112 461,112 464,110 468,110 472,110 475,107 479,106 483,106 487,102 490,101 494,101 498,101 501,91 505,91 509,91 512,84 516,75 520,69 523,68 527,67 531,67 534,67 538,67 542,67 545,67 549,67 553,67 556,67 560,67 564,67 568,66 571,66 575,66 579,66 582,66 586,66 590,66 593,64 597,63 601,63 604,63 608,63 612,63 615,63 619,63 623,63 626,63 630,63 634,63 637,63 641,63 645,63 649,63 652,62 656,62 660,62 663,61 667,61 671,61 674,61 678,61 682,61 685,61 689,61 693,61 696,61 700,61 704,60 707,60 711,57 715,54 718,53 722,51 726,51 730,50 730,250" fill="#e8e8e8" opacity="0.6"/>
<polyline points="60,249 63,248 67,246 71,244 74,244 78,244 82,244 85,244 89,244 93,244 96,244 100,244 104,243 107,239 111,239 115,222 118,222 122,222 126,222 129,189 133,189 137,189 140,189 144,189 148,189 152,189 155,170 159,170 163,170 166,170 170,170 174,166 177,166 181,166 185,166 188,166 192,166 196,166 199,166 203,166 207,166 210,166 214,166 218,166 221,166 225,166 229,166 233,166 236,166 240,166 244,166 247,166 251,166 255,166 258,166 262,166 266,162 269,162 273,162 277,161 280,161 284,161 288,158 291,157 295,156 299,148 302,148 306,148 310,146 314,138 317,137 321,136 325,136 328,135 332,135 336,126 339,125 343,125 347,125 350,125 354,125 358,125 361,125 365,125 369,125 372,125 376,125 380,125 383,125 387,123 391,123 395,123 398,123 402,123 406,123 409,121 413,119 417,118 420,113 424,112 428,112 431,112 435,112 439,112 442,112 446,112 450,112 453,112 457,112 461,112 464,110 468,110 472,110 475,107 479,106 483,106 487,102 490,101 494,101 498,101 501,91 505,91 509,91 512,84 516,75 520,69 523,68 527,67 531,67 534,67 538,67 542,67 545,67 549,67 553,67 556,67 560,67 564,67 568,66 571,66 575,66 579,66 582,66 586,66 590,66 593,64 597,63 601,63 604,63 608,63 612,63 615,63 619,63 623,63 626,63 630,63 634,63 637,63 641,63 645,63 649,63 652,62 656,62 660,62 663,61 667,61 671,61 674,61 678,61 682,61 685,61 689,61 693,61 696,61 700,61 704,60 707,60 711,57 715,54 718,53 722,51 726,51 730,50" fill="none" stroke="#111111" stroke-width="2.4" stroke-linejoin="round" stroke-linecap="round" filter="url(#pline)"/>
<circle cx="730" cy="50" r="4" fill="#111111" filter="url(#pencil)"/>
<text x="724" y="42" text-anchor="end" font-size="10" font-family="Georgia,serif" fill="#111111">107K</text>
<text x="60" y="289" font-size="9" font-family="Georgia,serif" fill="#888888">기준: 2026-05-24 10:51</text>
</svg>