<svg xmlns="http://www.w3.org/2000/svg" width="760" height="295">
<defs><filter id="pencil" x="-5%" y="-5%" width="110%" height="110%"><feTurbulence type="fractalNoise" baseFrequency="0.9" numOctaves="4" seed="5" result="noise"/><feDisplacementMap in="SourceGraphic" in2="noise" scale="1.6" xChannelSelector="R" yChannelSelector="G"/></filter><filter id="pline" x="-2%" y="-30%" width="104%" height="160%"><feTurbulence type="fractalNoise" baseFrequency="0.015 0.9" numOctaves="3" seed="11" result="noise"/><feDisplacementMap in="SourceGraphic" in2="noise" scale="1.8" xChannelSelector="R" yChannelSelector="G"/></filter><filter id="rough" x="-5%" y="-5%" width="110%" height="110%"><feTurbulence type="turbulence" baseFrequency="0.05" numOctaves="2" seed="2" result="noise"/><feDisplacementMap in="SourceGraphic" in2="noise" scale="2" xChannelSelector="R" yChannelSelector="G"/></filter></defs>
<rect width="760" height="295" fill="#ffffff"/>
<text x="380" y="32" text-anchor="middle" font-size="14" font-weight="bold" font-family="Georgia,serif" fill="#111111" filter="url(#pencil)">Workload (6 months)</text>
<line x1="60" y1="250" x2="730" y2="250" stroke="#cccccc" stroke-width="0.7" stroke-dasharray="4,5" filter="url(#rough)"/>
<text x="54" y="254" text-anchor="end" font-size="10" font-family="Georgia,serif" fill="#333333">0</text>
<line x1="60" y1="200" x2="730" y2="200" stroke="#cccccc" stroke-width="0.7" stroke-dasharray="4,5" filter="url(#rough)"/>
<text x="54" y="204" text-anchor="end" font-size="10" font-family="Georgia,serif" fill="#333333">129K</text>
<line x1="60" y1="150" x2="730" y2="150" stroke="#cccccc" stroke-width="0.7" stroke-dasharray="4,5" filter="url(#rough)"/>
<text x="54" y="154" text-anchor="end" font-size="10" font-family="Georgia,serif" fill="#333333">259K</text>
<line x1="60" y1="100" x2="730" y2="100" stroke="#cccccc" stroke-width="0.7" stroke-dasharray="4,5" filter="url(#rough)"/>
<text x="54" y="104" text-anchor="end" font-size="10" font-family="Georgia,serif" fill="#333333">389K</text>
<line x1="60" y1="50" x2="730" y2="50" stroke="#cccccc" stroke-width="0.7" stroke-dasharray="4,5" filter="url(#rough)"/>
<text x="54" y="54" text-anchor="end" font-size="10" font-family="Georgia,serif" fill="#333333">519K</text>
<text x="104" y="270" text-anchor="middle" font-size="11" font-family="Georgia,serif" fill="#333333" filter="url(#pencil)">1월</text>
<text x="218" y="270" text-anchor="middle" font-size="11" font-family="Georgia,serif" fill="#333333" filter="url(#pencil)">2월</text>
<text x="321" y="270" text-anchor="middle" font-size="11" font-family="Georgia,serif" fill="#333333" filter="url(#pencil)">3월</text>
<text x="435" y="270" text-anchor="middle" font-size="11" font-family="Georgia,serif" fill="#333333" filter="url(#pencil)">4월</text>
<text x="545" y="270" text-anchor="middle" font-size="11" font-family="Georgia,serif" fill="#333333" filter="url(#pencil)">5월</text>
<text x="660" y="270" text-anchor="middle" font-size="11" font-family="Georgia,serif" fill="#333333" filter="url(#pencil)">6월</text>
<line x1="59" y1="42" x2="59" y2="256" stroke="#111111" stroke-width="2" filter="url(#pline)"/>
<line x1="52" y1="251" x2="738" y2="251" stroke="#111111" stroke-width="2" filter="url(#pline)"/>
<polygon points="60,250 60,250 63,250 67,250 71,250 74,245 78,245 82,245 85,245 89,245 93,245 96,245 100,245 104,245 107,245 111,245 115,245 118,245 122,245 126,245 129,245 133,245 137,245 140,245 144,245 148,245 152,245 155,245 159,245 163,245 166,240 170,240 174,240 177,240 181,240 185,240 188,237 192,236 196,234 199,225 203,225 207,225 210,223 214,214 218,212 221,210 225,210 229,210 233,210 236,200 240,199 244,198 247,198 251,198 255,198 258,198 262,198 266,198 269,198 273,198 277,198 280,198 284,198 288,196 291,196 295,196 299,196 302,196 306,196 310,194 314,192 317,191 321,185 325,183 328,183 332,183 336,183 339,183 343,183 347,183 350,183 354,183 358,183 361,183 365,182 369,182 372,182 376,178 380,177 383,177 387,172 391,171 395,171 398,171 402,159 406,159 409,159 413,151 417,141 420,133 424,133 428,132 431,132 435,132 439,132 442,132 446,132 450,132 453,132 457,132 461,132 464,132 468,131 472,131 475,131 479,130 483,130 487,130 490,130 494,127 498,126 501,126 505,126 509,126 512,125 516,125 520,125 523,125 527,125 531,125 534,125 538,125 542,125 545,125 549,125 553,125 556,125 560,125 564,123 568,123 571,123 575,123 579,123 582,123 586,123 590,123 593,123 597,123 601,123 604,122 608,121 612,118 615,114 619,111 623,107 626,103 630,99 634,96 637,93 641,90 645,88 649,85 652,82 656,80 660,78 663,76 667,75 671,73 674,71 678,69 682,66 685,65 689,60 693,57 696,56 700,55 704,53 707,52 711,52 715,52 718,51 722,51 726,51 730,50 730,250" fill="#e8e8e8" opacity="0.6"/>
<polyline points="60,250 63,250 67,250 71,250 74,245 78,245 82,245 85,245 89,245 93,245 96,245 100,245 104,245 107,245 111,245 115,245 118,245 122,245 126,245 129,245 133,245 137,245 140,245 144,245 148,245 152,245 155,245 159,245 163,245 166,240 170,240 174,240 177,240 181,240 185,240 188,237 192,236 196,234 199,225 203,225 207,225 210,223 214,214 218,212 221,210 225,210 229,210 233,210 236,200 240,199 244,198 247,198 251,198 255,198 258,198 262,198 266,198 269,198 273,198 277,198 280,198 284,198 288,196 291,196 295,196 299,196 302,196 306,196 310,194 314,192 317,191 321,185 325,183 328,183 332,183 336,183 339,183 343,183 347,183 350,183 354,183 358,183 361,183 365,182 369,182 372,182 376,178 380,177 383,177 387,172 391,171 395,171 398,171 402,159 406,159 409,159 413,151 417,141 420,133 424,133 428,132 431,132 435,132 439,132 442,132 446,132 450,132 453,132 457,132 461,132 464,132 468,131 472,131 475,131 479,130 483,130 487,130 490,130 494,127 498,126 501,126 505,126 509,126 512,125 516,125 520,125 523,125 527,125 531,125 534,125 538,125 542,125 545,125 549,125 553,125 556,125 560,125 564,123 568,123 571,123 575,123 579,123 582,123 586,123 590,123 593,123 597,123 601,123 604,122 608,121 612,118 615,114 619,111 623,107 626,103 630,99 634,96 637,93 641,90 645,88 649,85 652,82 656,80 660,78 663,76 667,75 671,73 674,71 678,69 682,66 685,65 689,60 693,57 696,56 700,55 704,53 707,52 711,52 715,52 718,51 722,51 726,51 730,50" fill="none" stroke="#111111" stroke-width="2.4" stroke-linejoin="round" stroke-linecap="round" filter="url(#pline)"/>
<circle cx="730" cy="50" r="4" fill="#111111" filter="url(#pencil)"/>
<text x="724" y="42" text-anchor="end" font-size="10" font-family="Georgia,serif" fill="#111111">519K</text>
<text x="60" y="289" font-size="9" font-family="Georgia,serif" fill="#888888">기준: 2026-06-20 19:58</text>
</svg>