<svg xmlns="http://www.w3.org/2000/svg" width="760" height="295">
<defs><filter id="pencil" x="-5%" y="-5%" width="110%" height="110%"><feTurbulence type="fractalNoise" baseFrequency="0.9" numOctaves="4" seed="5" result="noise"/><feDisplacementMap in="SourceGraphic" in2="noise" scale="1.6" xChannelSelector="R" yChannelSelector="G"/></filter><filter id="pline" x="-2%" y="-30%" width="104%" height="160%"><feTurbulence type="fractalNoise" baseFrequency="0.015 0.9" numOctaves="3" seed="11" result="noise"/><feDisplacementMap in="SourceGraphic" in2="noise" scale="1.8" xChannelSelector="R" yChannelSelector="G"/></filter><filter id="rough" x="-5%" y="-5%" width="110%" height="110%"><feTurbulence type="turbulence" baseFrequency="0.05" numOctaves="2" seed="2" result="noise"/><feDisplacementMap in="SourceGraphic" in2="noise" scale="2" xChannelSelector="R" yChannelSelector="G"/></filter></defs>
<rect width="760" height="295" fill="#ffffff"/>
<text x="380" y="32" text-anchor="middle" font-size="14" font-weight="bold" font-family="Georgia,serif" fill="#111111" filter="url(#pencil)">Workload (6 months)</text>
<line x1="60" y1="250" x2="730" y2="250" stroke="#cccccc" stroke-width="0.7" stroke-dasharray="4,5" filter="url(#rough)"/>
<text x="54" y="254" text-anchor="end" font-size="10" font-family="Georgia,serif" fill="#333333">0</text>
<line x1="60" y1="201" x2="730" y2="201" stroke="#cccccc" stroke-width="0.7" stroke-dasharray="4,5" filter="url(#rough)"/>
<text x="54" y="205" text-anchor="end" font-size="10" font-family="Georgia,serif" fill="#333333">282K</text>
<line x1="60" y1="150" x2="730" y2="150" stroke="#cccccc" stroke-width="0.7" stroke-dasharray="4,5" filter="url(#rough)"/>
<text x="54" y="154" text-anchor="end" font-size="10" font-family="Georgia,serif" fill="#333333">564K</text>
<line x1="60" y1="101" x2="730" y2="101" stroke="#cccccc" stroke-width="0.7" stroke-dasharray="4,5" filter="url(#rough)"/>
<text x="54" y="105" text-anchor="end" font-size="10" font-family="Georgia,serif" fill="#333333">846K</text>
<line x1="60" y1="50" x2="730" y2="50" stroke="#cccccc" stroke-width="0.7" stroke-dasharray="4,5" filter="url(#rough)"/>
<text x="54" y="54" text-anchor="end" font-size="10" font-family="Georgia,serif" fill="#333333">1128K</text>
<text x="170" y="270" text-anchor="middle" font-size="11" font-family="Georgia,serif" fill="#333333" filter="url(#pencil)">2월</text>
<text x="273" y="270" text-anchor="middle" font-size="11" font-family="Georgia,serif" fill="#333333" filter="url(#pencil)">3월</text>
<text x="387" y="270" text-anchor="middle" font-size="11" font-family="Georgia,serif" fill="#333333" filter="url(#pencil)">4월</text>
<text x="498" y="270" text-anchor="middle" font-size="11" font-family="Georgia,serif" fill="#333333" filter="url(#pencil)">5월</text>
<text x="612" y="270" text-anchor="middle" font-size="11" font-family="Georgia,serif" fill="#333333" filter="url(#pencil)">6월</text>
<text x="722" y="270" text-anchor="middle" font-size="11" font-family="Georgia,serif" fill="#333333" filter="url(#pencil)">7월</text>
<line x1="59" y1="42" x2="59" y2="256" stroke="#111111" stroke-width="2" filter="url(#pline)"/>
<line x1="52" y1="251" x2="738" y2="251" stroke="#111111" stroke-width="2" filter="url(#pline)"/>
<polygon points="60,250 60,250 63,250 67,250 71,250 74,250 78,250 82,250 85,250 89,250 93,250 96,250 100,250 104,250 107,250 111,250 115,250 118,247 122,247 126,247 129,247 133,247 137,247 140,245 144,244 148,243 152,237 155,237 159,237 163,236 166,230 170,229 174,228 177,228 181,228 185,227 188,221 192,220 196,220 199,220 203,220 207,220 210,220 214,220 218,220 221,220 225,220 229,220 233,220 236,220 240,219 244,219 247,219 251,219 255,219 258,219 262,217 266,216 269,215 273,211 277,210 280,210 284,210 288,210 291,210 295,210 299,210 302,210 306,210 310,210 314,210 317,209 321,209 325,209 328,207 332,206 336,206 339,203 343,202 347,202 350,202 354,194 358,194 361,194 365,189 369,183 372,178 376,177 380,177 383,176 387,176 391,176 395,176 398,176 402,176 406,176 409,176 413,176 417,176 420,175 424,175 428,175 431,171 435,171 439,171 442,171 446,169 450,168 453,163 457,163 461,163 464,161 468,161 472,160 475,159 479,157 483,156 487,156 490,156 494,156 498,156 501,156 505,156 509,156 512,156 516,155 520,155 523,155 527,155 531,155 534,155 538,155 542,155 545,155 549,153 553,153 556,153 560,152 564,150 568,147 571,145 575,141 579,138 582,135 586,133 590,131 593,129 597,127 601,125 604,123 608,120 612,119 615,118 619,116 623,115 626,113 630,111 634,109 637,108 641,102 645,99 649,98 652,96 656,94 660,92 663,91 667,91 671,90 674,89 678,87 682,83 685,72 689,66 693,61 696,56 700,54 704,53 707,52 711,52 715,51 718,51 722,51 726,51 730,50 730,250" fill="#e8e8e8" opacity="0.6"/>
<polyline points="60,250 63,250 67,250 71,250 74,250 78,250 82,250 85,250 89,250 93,250 96,250 100,250 104,250 107,250 111,250 115,250 118,247 122,247 126,247 129,247 133,247 137,247 140,245 144,244 148,243 152,237 155,237 159,237 163,236 166,230 170,229 174,228 177,228 181,228 185,227 188,221 192,220 196,220 199,220 203,220 207,220 210,220 214,220 218,220 221,220 225,220 229,220 233,220 236,220 240,219 244,219 247,219 251,219 255,219 258,219 262,217 266,216 269,215 273,211 277,210 280,210 284,210 288,210 291,210 295,210 299,210 302,210 306,210 310,210 314,210 317,209 321,209 325,209 328,207 332,206 336,206 339,203 343,202 347,202 350,202 354,194 358,194 361,194 365,189 369,183 372,178 376,177 380,177 383,176 387,176 391,176 395,176 398,176 402,176 406,176 409,176 413,176 417,176 420,175 424,175 428,175 431,171 435,171 439,171 442,171 446,169 450,168 453,163 457,163 461,163 464,161 468,161 472,160 475,159 479,157 483,156 487,156 490,156 494,156 498,156 501,156 505,156 509,156 512,156 516,155 520,155 523,155 527,155 531,155 534,155 538,155 542,155 545,155 549,153 553,153 556,153 560,152 564,150 568,147 571,145 575,141 579,138 582,135 586,133 590,131 593,129 597,127 601,125 604,123 608,120 612,119 615,118 619,116 623,115 626,113 630,111 634,109 637,108 641,102 645,99 649,98 652,96 656,94 660,92 663,91 667,91 671,90 674,89 678,87 682,83 685,72 689,66 693,61 696,56 700,54 704,53 707,52 711,52 715,51 718,51 722,51 726,51 730,50" fill="none" stroke="#111111" stroke-width="2.4" stroke-linejoin="round" stroke-linecap="round" filter="url(#pline)"/>
<circle cx="730" cy="50" r="4" fill="#111111" filter="url(#pencil)"/>
<text x="724" y="42" text-anchor="end" font-size="10" font-family="Georgia,serif" fill="#111111">1128K</text>
<text x="60" y="289" font-size="9" font-family="Georgia,serif" fill="#888888">기준: 2026-07-03 14:33</text>
</svg>