<svg xmlns="http://www.w3.org/2000/svg" width="760" height="295">
<defs><filter id="pencil" x="-5%" y="-5%" width="110%" height="110%"><feTurbulence type="fractalNoise" baseFrequency="0.9" numOctaves="4" seed="5" result="noise"/><feDisplacementMap in="SourceGraphic" in2="noise" scale="1.6" xChannelSelector="R" yChannelSelector="G"/></filter><filter id="pline" x="-2%" y="-30%" width="104%" height="160%"><feTurbulence type="fractalNoise" baseFrequency="0.015 0.9" numOctaves="3" seed="11" result="noise"/><feDisplacementMap in="SourceGraphic" in2="noise" scale="1.8" xChannelSelector="R" yChannelSelector="G"/></filter><filter id="rough" x="-5%" y="-5%" width="110%" height="110%"><feTurbulence type="turbulence" baseFrequency="0.05" numOctaves="2" seed="2" result="noise"/><feDisplacementMap in="SourceGraphic" in2="noise" scale="2" xChannelSelector="R" yChannelSelector="G"/></filter></defs>
<rect width="760" height="295" fill="#ffffff"/>
<text x="380" y="32" text-anchor="middle" font-size="14" font-weight="bold" font-family="Georgia,serif" fill="#111111" filter="url(#pencil)">Workload (6 months)</text>
<line x1="60" y1="250" x2="730" y2="250" stroke="#cccccc" stroke-width="0.7" stroke-dasharray="4,5" filter="url(#rough)"/>
<text x="54" y="254" text-anchor="end" font-size="10" font-family="Georgia,serif" fill="#333333">0</text>
<line x1="60" y1="201" x2="730" y2="201" stroke="#cccccc" stroke-width="0.7" stroke-dasharray="4,5" filter="url(#rough)"/>
<text x="54" y="205" text-anchor="end" font-size="10" font-family="Georgia,serif" fill="#333333">185K</text>
<line x1="60" y1="150" x2="730" y2="150" stroke="#cccccc" stroke-width="0.7" stroke-dasharray="4,5" filter="url(#rough)"/>
<text x="54" y="154" text-anchor="end" font-size="10" font-family="Georgia,serif" fill="#333333">370K</text>
<line x1="60" y1="101" x2="730" y2="101" stroke="#cccccc" stroke-width="0.7" stroke-dasharray="4,5" filter="url(#rough)"/>
<text x="54" y="105" text-anchor="end" font-size="10" font-family="Georgia,serif" fill="#333333">555K</text>
<line x1="60" y1="50" x2="730" y2="50" stroke="#cccccc" stroke-width="0.7" stroke-dasharray="4,5" filter="url(#rough)"/>
<text x="54" y="54" text-anchor="end" font-size="10" font-family="Georgia,serif" fill="#333333">740K</text>
<text x="82" y="270" text-anchor="middle" font-size="11" font-family="Georgia,serif" fill="#333333" filter="url(#pencil)">1월</text>
<text x="196" y="270" text-anchor="middle" font-size="11" font-family="Georgia,serif" fill="#333333" filter="url(#pencil)">2월</text>
<text x="299" y="270" text-anchor="middle" font-size="11" font-family="Georgia,serif" fill="#333333" filter="url(#pencil)">3월</text>
<text x="413" y="270" text-anchor="middle" font-size="11" font-family="Georgia,serif" fill="#333333" filter="url(#pencil)">4월</text>
<text x="523" y="270" text-anchor="middle" font-size="11" font-family="Georgia,serif" fill="#333333" filter="url(#pencil)">5월</text>
<text x="637" y="270" text-anchor="middle" font-size="11" font-family="Georgia,serif" fill="#333333" filter="url(#pencil)">6월</text>
<line x1="59" y1="42" x2="59" y2="256" stroke="#111111" stroke-width="2" filter="url(#pline)"/>
<line x1="52" y1="251" x2="738" y2="251" stroke="#111111" stroke-width="2" filter="url(#pline)"/>
<polygon points="60,250 60,250 63,250 67,250 71,250 74,250 78,250 82,250 85,250 89,250 93,250 96,250 100,250 104,250 107,250 111,250 115,250 118,250 122,250 126,250 129,250 133,250 137,250 140,250 144,247 148,247 152,247 155,246 159,246 163,246 166,244 170,243 174,241 177,234 181,234 185,234 188,232 192,225 196,223 199,222 203,222 207,222 210,221 214,213 218,212 221,212 225,212 229,212 233,212 236,212 240,212 244,212 247,212 251,212 255,212 258,212 262,212 266,210 269,210 273,210 277,210 280,210 284,210 288,208 291,207 295,206 299,201 302,199 306,199 310,199 314,199 317,199 321,199 325,199 328,199 332,199 336,199 339,199 343,198 347,198 350,198 354,195 358,194 361,194 365,190 369,189 372,189 376,189 380,179 383,179 387,179 391,173 395,165 398,159 402,158 406,157 409,157 413,157 417,157 420,157 424,157 428,157 431,157 435,157 439,157 442,157 446,156 450,156 453,156 457,153 461,153 464,153 468,153 472,151 475,149 479,146 483,146 487,146 490,145 494,145 498,144 501,143 505,142 509,142 512,142 516,142 520,142 523,142 527,142 531,141 534,141 538,141 542,140 545,140 549,140 553,140 556,140 560,140 564,140 568,140 571,140 575,139 579,139 582,138 586,137 590,134 593,131 597,129 601,125 604,121 608,118 612,115 615,113 619,110 623,108 626,105 630,103 634,100 637,99 641,97 645,96 649,94 652,92 656,90 660,88 663,86 667,81 671,77 674,76 678,75 682,73 685,71 689,71 693,70 696,69 700,68 704,67 707,65 711,58 715,55 718,53 722,51 726,51 730,50 730,250" fill="#e8e8e8" opacity="0.6"/>
<polyline points="60,250 63,250 67,250 71,250 74,250 78,250 82,250 85,250 89,250 93,250 96,250 100,250 104,250 107,250 111,250 115,250 118,250 122,250 126,250 129,250 133,250 137,250 140,250 144,247 148,247 152,247 155,246 159,246 163,246 166,244 170,243 174,241 177,234 181,234 185,234 188,232 192,225 196,223 199,222 203,222 207,222 210,221 214,213 218,212 221,212 225,212 229,212 233,212 236,212 240,212 244,212 247,212 251,212 255,212 258,212 262,212 266,210 269,210 273,210 277,210 280,210 284,210 288,208 291,207 295,206 299,201 302,199 306,199 310,199 314,199 317,199 321,199 325,199 328,199 332,199 336,199 339,199 343,198 347,198 350,198 354,195 358,194 361,194 365,190 369,189 372,189 376,189 380,179 383,179 387,179 391,173 395,165 398,159 402,158 406,157 409,157 413,157 417,157 420,157 424,157 428,157 431,157 435,157 439,157 442,157 446,156 450,156 453,156 457,153 461,153 464,153 468,153 472,151 475,149 479,146 483,146 487,146 490,145 494,145 498,144 501,143 505,142 509,142 512,142 516,142 520,142 523,142 527,142 531,141 534,141 538,141 542,140 545,140 549,140 553,140 556,140 560,140 564,140 568,140 571,140 575,139 579,139 582,138 586,137 590,134 593,131 597,129 601,125 604,121 608,118 612,115 615,113 619,110 623,108 626,105 630,103 634,100 637,99 641,97 645,96 649,94 652,92 656,90 660,88 663,86 667,81 671,77 674,76 678,75 682,73 685,71 689,71 693,70 696,69 700,68 704,67 707,65 711,58 715,55 718,53 722,51 726,51 730,50" fill="none" stroke="#111111" stroke-width="2.4" stroke-linejoin="round" stroke-linecap="round" filter="url(#pline)"/>
<circle cx="730" cy="50" r="4" fill="#111111" filter="url(#pencil)"/>
<text x="724" y="42" text-anchor="end" font-size="10" font-family="Georgia,serif" fill="#111111">740K</text>
<text x="60" y="289" font-size="9" font-family="Georgia,serif" fill="#888888">기준: 2026-06-26 14:48</text>
</svg>