<svg xmlns="http://www.w3.org/2000/svg" width="760" height="295">
<defs><filter id="pencil" x="-5%" y="-5%" width="110%" height="110%"><feTurbulence type="fractalNoise" baseFrequency="0.9" numOctaves="4" seed="5" result="noise"/><feDisplacementMap in="SourceGraphic" in2="noise" scale="1.6" xChannelSelector="R" yChannelSelector="G"/></filter><filter id="pline" x="-2%" y="-30%" width="104%" height="160%"><feTurbulence type="fractalNoise" baseFrequency="0.015 0.9" numOctaves="3" seed="11" result="noise"/><feDisplacementMap in="SourceGraphic" in2="noise" scale="1.8" xChannelSelector="R" yChannelSelector="G"/></filter><filter id="rough" x="-5%" y="-5%" width="110%" height="110%"><feTurbulence type="turbulence" baseFrequency="0.05" numOctaves="2" seed="2" result="noise"/><feDisplacementMap in="SourceGraphic" in2="noise" scale="2" xChannelSelector="R" yChannelSelector="G"/></filter></defs>
<rect width="760" height="295" fill="#ffffff"/>
<text x="380" y="32" text-anchor="middle" font-size="14" font-weight="bold" font-family="Georgia,serif" fill="#111111" filter="url(#pencil)">Workload (6 months)</text>
<line x1="60" y1="250" x2="730" y2="250" stroke="#cccccc" stroke-width="0.7" stroke-dasharray="4,5" filter="url(#rough)"/>
<text x="54" y="254" text-anchor="end" font-size="10" font-family="Georgia,serif" fill="#333333">0</text>
<line x1="60" y1="201" x2="730" y2="201" stroke="#cccccc" stroke-width="0.7" stroke-dasharray="4,5" filter="url(#rough)"/>
<text x="54" y="205" text-anchor="end" font-size="10" font-family="Georgia,serif" fill="#333333">541K</text>
<line x1="60" y1="150" x2="730" y2="150" stroke="#cccccc" stroke-width="0.7" stroke-dasharray="4,5" filter="url(#rough)"/>
<text x="54" y="154" text-anchor="end" font-size="10" font-family="Georgia,serif" fill="#333333">1082K</text>
<line x1="60" y1="101" x2="730" y2="101" stroke="#cccccc" stroke-width="0.7" stroke-dasharray="4,5" filter="url(#rough)"/>
<text x="54" y="105" text-anchor="end" font-size="10" font-family="Georgia,serif" fill="#333333">1623K</text>
<line x1="60" y1="50" x2="730" y2="50" stroke="#cccccc" stroke-width="0.7" stroke-dasharray="4,5" filter="url(#rough)"/>
<text x="54" y="54" text-anchor="end" font-size="10" font-family="Georgia,serif" fill="#333333">2164K</text>
<text x="126" y="270" text-anchor="middle" font-size="11" font-family="Georgia,serif" fill="#333333" filter="url(#pencil)">2월</text>
<text x="229" y="270" text-anchor="middle" font-size="11" font-family="Georgia,serif" fill="#333333" filter="url(#pencil)">3월</text>
<text x="343" y="270" text-anchor="middle" font-size="11" font-family="Georgia,serif" fill="#333333" filter="url(#pencil)">4월</text>
<text x="453" y="270" text-anchor="middle" font-size="11" font-family="Georgia,serif" fill="#333333" filter="url(#pencil)">5월</text>
<text x="568" y="270" text-anchor="middle" font-size="11" font-family="Georgia,serif" fill="#333333" filter="url(#pencil)">6월</text>
<text x="678" y="270" text-anchor="middle" font-size="11" font-family="Georgia,serif" fill="#333333" filter="url(#pencil)">7월</text>
<line x1="59" y1="42" x2="59" y2="256" stroke="#111111" stroke-width="2" filter="url(#pline)"/>
<line x1="52" y1="251" x2="738" y2="251" stroke="#111111" stroke-width="2" filter="url(#pline)"/>
<polygon points="60,250 60,250 63,250 67,250 71,250 74,248 78,248 82,248 85,248 89,248 93,247 96,246 100,246 104,245 107,241 111,241 115,241 118,240 122,236 126,234 129,234 133,234 137,234 140,233 144,229 148,228 152,228 155,228 159,228 163,228 166,228 170,227 174,227 177,227 181,227 185,227 188,227 192,227 196,226 199,226 203,226 207,225 210,225 214,225 218,224 221,223 225,222 229,219 233,218 236,218 240,218 244,218 247,218 251,218 255,218 258,217 262,217 266,217 269,217 273,216 277,216 280,216 284,215 288,214 291,214 295,212 299,211 302,211 306,211 310,206 314,206 317,206 321,202 325,198 328,194 332,194 336,194 339,193 343,193 347,193 350,193 354,193 358,193 361,193 365,193 369,192 372,192 376,192 380,192 383,192 387,187 391,187 395,187 398,186 402,185 406,184 409,180 413,180 417,180 420,178 424,178 428,178 431,176 435,175 439,174 442,174 446,174 450,174 453,174 457,174 461,173 464,173 468,173 472,172 475,172 479,172 483,172 487,172 490,172 494,171 498,171 501,171 505,169 509,169 512,168 516,168 520,166 523,164 527,162 531,159 534,157 538,155 542,152 545,150 549,148 553,146 556,144 560,141 564,138 568,137 571,136 575,135 579,134 582,132 586,131 590,129 593,127 597,123 601,120 604,118 608,117 612,115 615,113 619,112 623,111 626,110 630,109 634,107 637,103 641,90 645,83 649,76 652,69 656,67 660,65 663,64 667,63 671,61 674,60 678,58 682,57 685,57 689,56 693,55 696,55 700,54 704,53 707,53 711,53 715,52 718,51 722,51 726,51 730,50 730,250" fill="#e8e8e8" opacity="0.6"/>
<polyline points="60,250 63,250 67,250 71,250 74,248 78,248 82,248 85,248 89,248 93,247 96,246 100,246 104,245 107,241 111,241 115,241 118,240 122,236 126,234 129,234 133,234 137,234 140,233 144,229 148,228 152,228 155,228 159,228 163,228 166,228 170,227 174,227 177,227 181,227 185,227 188,227 192,227 196,226 199,226 203,226 207,225 210,225 214,225 218,224 221,223 225,222 229,219 233,218 236,218 240,218 244,218 247,218 251,218 255,218 258,217 262,217 266,217 269,217 273,216 277,216 280,216 284,215 288,214 291,214 295,212 299,211 302,211 306,211 310,206 314,206 317,206 321,202 325,198 328,194 332,194 336,194 339,193 343,193 347,193 350,193 354,193 358,193 361,193 365,193 369,192 372,192 376,192 380,192 383,192 387,187 391,187 395,187 398,186 402,185 406,184 409,180 413,180 417,180 420,178 424,178 428,178 431,176 435,175 439,174 442,174 446,174 450,174 453,174 457,174 461,173 464,173 468,173 472,172 475,172 479,172 483,172 487,172 490,172 494,171 498,171 501,171 505,169 509,169 512,168 516,168 520,166 523,164 527,162 531,159 534,157 538,155 542,152 545,150 549,148 553,146 556,144 560,141 564,138 568,137 571,136 575,135 579,134 582,132 586,131 590,129 593,127 597,123 601,120 604,118 608,117 612,115 615,113 619,112 623,111 626,110 630,109 634,107 637,103 641,90 645,83 649,76 652,69 656,67 660,65 663,64 667,63 671,61 674,60 678,58 682,57 685,57 689,56 693,55 696,55 700,54 704,53 707,53 711,53 715,52 718,51 722,51 726,51 730,50" fill="none" stroke="#111111" stroke-width="2.4" stroke-linejoin="round" stroke-linecap="round" filter="url(#pline)"/>
<circle cx="730" cy="50" r="4" fill="#111111" filter="url(#pencil)"/>
<text x="724" y="42" text-anchor="end" font-size="10" font-family="Georgia,serif" fill="#111111">2164K</text>
<text x="60" y="289" font-size="9" font-family="Georgia,serif" fill="#888888">기준: 2026-07-15 14:13</text>
</svg>