<svg xmlns="http://www.w3.org/2000/svg" width="760" height="295">
<defs><filter id="pencil" x="-5%" y="-5%" width="110%" height="110%"><feTurbulence type="fractalNoise" baseFrequency="0.9" numOctaves="4" seed="5" result="noise"/><feDisplacementMap in="SourceGraphic" in2="noise" scale="1.6" xChannelSelector="R" yChannelSelector="G"/></filter><filter id="pline" x="-2%" y="-30%" width="104%" height="160%"><feTurbulence type="fractalNoise" baseFrequency="0.015 0.9" numOctaves="3" seed="11" result="noise"/><feDisplacementMap in="SourceGraphic" in2="noise" scale="1.8" xChannelSelector="R" yChannelSelector="G"/></filter><filter id="rough" x="-5%" y="-5%" width="110%" height="110%"><feTurbulence type="turbulence" baseFrequency="0.05" numOctaves="2" seed="2" result="noise"/><feDisplacementMap in="SourceGraphic" in2="noise" scale="2" xChannelSelector="R" yChannelSelector="G"/></filter></defs>
<rect width="760" height="295" fill="#ffffff"/>
<text x="380" y="32" text-anchor="middle" font-size="14" font-weight="bold" font-family="Georgia,serif" fill="#111111" filter="url(#pencil)">Workload (6 months)</text>
<line x1="60" y1="250" x2="730" y2="250" stroke="#cccccc" stroke-width="0.7" stroke-dasharray="4,5" filter="url(#rough)"/>
<text x="54" y="254" text-anchor="end" font-size="10" font-family="Georgia,serif" fill="#333333">0</text>
<line x1="60" y1="201" x2="730" y2="201" stroke="#cccccc" stroke-width="0.7" stroke-dasharray="4,5" filter="url(#rough)"/>
<text x="54" y="205" text-anchor="end" font-size="10" font-family="Georgia,serif" fill="#333333">150K</text>
<line x1="60" y1="151" x2="730" y2="151" stroke="#cccccc" stroke-width="0.7" stroke-dasharray="4,5" filter="url(#rough)"/>
<text x="54" y="155" text-anchor="end" font-size="10" font-family="Georgia,serif" fill="#333333">301K</text>
<line x1="60" y1="101" x2="730" y2="101" stroke="#cccccc" stroke-width="0.7" stroke-dasharray="4,5" filter="url(#rough)"/>
<text x="54" y="105" text-anchor="end" font-size="10" font-family="Georgia,serif" fill="#333333">452K</text>
<line x1="60" y1="50" x2="730" y2="50" stroke="#cccccc" stroke-width="0.7" stroke-dasharray="4,5" filter="url(#rough)"/>
<text x="54" y="54" text-anchor="end" font-size="10" font-family="Georgia,serif" fill="#333333">603K</text>
<text x="93" y="270" text-anchor="middle" font-size="11" font-family="Georgia,serif" fill="#333333" filter="url(#pencil)">1월</text>
<text x="207" y="270" text-anchor="middle" font-size="11" font-family="Georgia,serif" fill="#333333" filter="url(#pencil)">2월</text>
<text x="310" y="270" text-anchor="middle" font-size="11" font-family="Georgia,serif" fill="#333333" filter="url(#pencil)">3월</text>
<text x="424" y="270" text-anchor="middle" font-size="11" font-family="Georgia,serif" fill="#333333" filter="url(#pencil)">4월</text>
<text x="534" y="270" text-anchor="middle" font-size="11" font-family="Georgia,serif" fill="#333333" filter="url(#pencil)">5월</text>
<text x="649" y="270" text-anchor="middle" font-size="11" font-family="Georgia,serif" fill="#333333" filter="url(#pencil)">6월</text>
<line x1="59" y1="42" x2="59" y2="256" stroke="#111111" stroke-width="2" filter="url(#pline)"/>
<line x1="52" y1="251" x2="738" y2="251" stroke="#111111" stroke-width="2" filter="url(#pline)"/>
<polygon points="60,250 60,250 63,246 67,246 71,246 74,246 78,246 82,246 85,246 89,246 93,246 96,246 100,246 104,246 107,246 111,246 115,246 118,246 122,246 126,246 129,246 133,246 137,246 140,246 144,246 148,246 152,246 155,241 159,241 163,241 166,241 170,241 174,241 177,238 181,237 185,235 188,227 192,227 196,227 199,225 203,217 207,215 210,214 214,214 218,214 221,213 225,204 229,203 233,202 236,202 240,202 244,202 247,202 251,202 255,202 258,202 262,202 266,202 269,202 273,202 277,201 280,201 284,201 288,201 291,201 295,201 299,198 302,197 306,195 310,190 314,188 317,188 321,188 325,188 328,188 332,188 336,188 339,188 343,188 347,188 350,188 354,187 358,187 361,187 365,184 369,183 372,183 376,178 380,177 383,177 387,177 391,166 395,166 398,166 402,159 406,150 409,143 413,142 417,141 420,141 424,141 428,141 431,141 435,141 439,141 442,141 446,141 450,141 453,141 457,140 461,140 464,140 468,138 472,138 475,138 479,138 483,136 487,134 490,133 494,133 498,133 501,132 505,132 509,131 512,131 516,130 520,130 523,130 527,130 531,130 534,130 538,130 542,130 545,130 549,130 553,128 556,128 560,128 564,128 568,128 571,128 575,128 579,128 582,128 586,127 590,127 593,127 597,126 601,123 604,119 608,116 612,113 615,108 619,105 623,102 626,99 630,97 634,94 637,92 641,89 645,86 649,85 652,83 656,81 660,80 663,78 667,76 671,73 674,72 678,66 682,63 685,62 689,61 693,59 696,58 700,57 704,57 707,56 711,56 715,55 718,54 722,51 726,51 730,50 730,250" fill="#e8e8e8" opacity="0.6"/>
<polyline points="60,250 63,246 67,246 71,246 74,246 78,246 82,246 85,246 89,246 93,246 96,246 100,246 104,246 107,246 111,246 115,246 118,246 122,246 126,246 129,246 133,246 137,246 140,246 144,246 148,246 152,246 155,241 159,241 163,241 166,241 170,241 174,241 177,238 181,237 185,235 188,227 192,227 196,227 199,225 203,217 207,215 210,214 214,214 218,214 221,213 225,204 229,203 233,202 236,202 240,202 244,202 247,202 251,202 255,202 258,202 262,202 266,202 269,202 273,202 277,201 280,201 284,201 288,201 291,201 295,201 299,198 302,197 306,195 310,190 314,188 317,188 321,188 325,188 328,188 332,188 336,188 339,188 343,188 347,188 350,188 354,187 358,187 361,187 365,184 369,183 372,183 376,178 380,177 383,177 387,177 391,166 395,166 398,166 402,159 406,150 409,143 413,142 417,141 420,141 424,141 428,141 431,141 435,141 439,141 442,141 446,141 450,141 453,141 457,140 461,140 464,140 468,138 472,138 475,138 479,138 483,136 487,134 490,133 494,133 498,133 501,132 505,132 509,131 512,131 516,130 520,130 523,130 527,130 531,130 534,130 538,130 542,130 545,130 549,130 553,128 556,128 560,128 564,128 568,128 571,128 575,128 579,128 582,128 586,127 590,127 593,127 597,126 601,123 604,119 608,116 612,113 615,108 619,105 623,102 626,99 630,97 634,94 637,92 641,89 645,86 649,85 652,83 656,81 660,80 663,78 667,76 671,73 674,72 678,66 682,63 685,62 689,61 693,59 696,58 700,57 704,57 707,56 711,56 715,55 718,54 722,51 726,51 730,50" fill="none" stroke="#111111" stroke-width="2.4" stroke-linejoin="round" stroke-linecap="round" filter="url(#pline)"/>
<circle cx="730" cy="50" r="4" fill="#111111" filter="url(#pencil)"/>
<text x="724" y="42" text-anchor="end" font-size="10" font-family="Georgia,serif" fill="#111111">603K</text>
<text x="60" y="289" font-size="9" font-family="Georgia,serif" fill="#888888">기준: 2026-06-23 04:31</text>
</svg>