<svg xmlns="http://www.w3.org/2000/svg" width="760" height="295">
<defs><filter id="pencil" x="-5%" y="-5%" width="110%" height="110%"><feTurbulence type="fractalNoise" baseFrequency="0.9" numOctaves="4" seed="5" result="noise"/><feDisplacementMap in="SourceGraphic" in2="noise" scale="1.6" xChannelSelector="R" yChannelSelector="G"/></filter><filter id="pline" x="-2%" y="-30%" width="104%" height="160%"><feTurbulence type="fractalNoise" baseFrequency="0.015 0.9" numOctaves="3" seed="11" result="noise"/><feDisplacementMap in="SourceGraphic" in2="noise" scale="1.8" xChannelSelector="R" yChannelSelector="G"/></filter><filter id="rough" x="-5%" y="-5%" width="110%" height="110%"><feTurbulence type="turbulence" baseFrequency="0.05" numOctaves="2" seed="2" result="noise"/><feDisplacementMap in="SourceGraphic" in2="noise" scale="2" xChannelSelector="R" yChannelSelector="G"/></filter></defs>
<rect width="760" height="295" fill="#ffffff"/>
<text x="380" y="32" text-anchor="middle" font-size="14" font-weight="bold" font-family="Georgia,serif" fill="#111111" filter="url(#pencil)">Workload (6 months)</text>
<line x1="60" y1="250" x2="730" y2="250" stroke="#cccccc" stroke-width="0.7" stroke-dasharray="4,5" filter="url(#rough)"/>
<text x="54" y="254" text-anchor="end" font-size="10" font-family="Georgia,serif" fill="#333333">0</text>
<line x1="60" y1="201" x2="730" y2="201" stroke="#cccccc" stroke-width="0.7" stroke-dasharray="4,5" filter="url(#rough)"/>
<text x="54" y="205" text-anchor="end" font-size="10" font-family="Georgia,serif" fill="#333333">89K</text>
<line x1="60" y1="151" x2="730" y2="151" stroke="#cccccc" stroke-width="0.7" stroke-dasharray="4,5" filter="url(#rough)"/>
<text x="54" y="155" text-anchor="end" font-size="10" font-family="Georgia,serif" fill="#333333">179K</text>
<line x1="60" y1="101" x2="730" y2="101" stroke="#cccccc" stroke-width="0.7" stroke-dasharray="4,5" filter="url(#rough)"/>
<text x="54" y="105" text-anchor="end" font-size="10" font-family="Georgia,serif" fill="#333333">269K</text>
<line x1="60" y1="50" x2="730" y2="50" stroke="#cccccc" stroke-width="0.7" stroke-dasharray="4,5" filter="url(#rough)"/>
<text x="54" y="54" text-anchor="end" font-size="10" font-family="Georgia,serif" fill="#333333">359K</text>
<text x="155" y="270" text-anchor="middle" font-size="11" font-family="Georgia,serif" fill="#333333" filter="url(#pencil)">1월</text>
<text x="269" y="270" text-anchor="middle" font-size="11" font-family="Georgia,serif" fill="#333333" filter="url(#pencil)">2월</text>
<text x="372" y="270" text-anchor="middle" font-size="11" font-family="Georgia,serif" fill="#333333" filter="url(#pencil)">3월</text>
<text x="487" y="270" text-anchor="middle" font-size="11" font-family="Georgia,serif" fill="#333333" filter="url(#pencil)">4월</text>
<text x="597" y="270" text-anchor="middle" font-size="11" font-family="Georgia,serif" fill="#333333" filter="url(#pencil)">5월</text>
<text x="711" y="270" text-anchor="middle" font-size="11" font-family="Georgia,serif" fill="#333333" filter="url(#pencil)">6월</text>
<line x1="59" y1="42" x2="59" y2="256" stroke="#111111" stroke-width="2" filter="url(#pline)"/>
<line x1="52" y1="251" x2="738" y2="251" stroke="#111111" stroke-width="2" filter="url(#pline)"/>
<polygon points="60,250 60,247 63,247 67,230 71,230 74,230 78,230 82,200 85,200 89,200 93,200 96,200 100,200 104,200 107,182 111,182 115,182 118,182 122,182 126,178 129,178 133,178 137,178 140,178 144,178 148,178 152,178 155,178 159,178 163,178 166,178 170,178 174,178 177,178 181,178 185,178 188,178 192,178 196,178 199,178 203,178 207,178 210,178 214,178 218,174 221,174 225,174 229,174 233,174 236,173 240,171 244,170 247,169 251,162 255,162 258,162 262,160 266,152 269,151 273,150 277,150 280,150 284,149 288,141 291,140 295,140 299,140 302,140 306,140 310,140 314,140 317,140 321,140 325,140 328,140 332,140 336,140 339,138 343,138 347,138 350,138 354,138 358,138 361,136 365,135 369,134 372,129 376,127 380,127 383,127 387,127 391,127 395,127 398,127 402,127 406,127 409,127 413,127 417,126 420,126 424,126 428,123 431,122 435,122 439,118 442,118 446,118 450,118 453,108 457,108 461,108 464,101 468,93 472,87 475,87 479,86 483,86 487,86 490,86 494,86 498,86 501,86 505,86 509,86 512,86 516,86 520,85 523,85 527,85 531,85 534,85 538,85 542,85 545,83 549,81 553,81 556,81 560,81 564,81 568,81 571,81 575,81 579,81 582,81 586,81 590,81 593,81 597,81 601,81 604,81 608,81 612,81 615,80 619,80 623,80 626,80 630,80 634,80 637,80 641,80 645,80 649,80 652,80 656,79 660,79 663,76 667,73 671,70 674,68 678,65 682,62 685,60 689,59 693,57 696,56 700,55 704,53 707,52 711,52 715,51 718,51 722,51 726,51 730,50 730,250" fill="#e8e8e8" opacity="0.6"/>
<polyline points="60,247 63,247 67,230 71,230 74,230 78,230 82,200 85,200 89,200 93,200 96,200 100,200 104,200 107,182 111,182 115,182 118,182 122,182 126,178 129,178 133,178 137,178 140,178 144,178 148,178 152,178 155,178 159,178 163,178 166,178 170,178 174,178 177,178 181,178 185,178 188,178 192,178 196,178 199,178 203,178 207,178 210,178 214,178 218,174 221,174 225,174 229,174 233,174 236,173 240,171 244,170 247,169 251,162 255,162 258,162 262,160 266,152 269,151 273,150 277,150 280,150 284,149 288,141 291,140 295,140 299,140 302,140 306,140 310,140 314,140 317,140 321,140 325,140 328,140 332,140 336,140 339,138 343,138 347,138 350,138 354,138 358,138 361,136 365,135 369,134 372,129 376,127 380,127 383,127 387,127 391,127 395,127 398,127 402,127 406,127 409,127 413,127 417,126 420,126 424,126 428,123 431,122 435,122 439,118 442,118 446,118 450,118 453,108 457,108 461,108 464,101 468,93 472,87 475,87 479,86 483,86 487,86 490,86 494,86 498,86 501,86 505,86 509,86 512,86 516,86 520,85 523,85 527,85 531,85 534,85 538,85 542,85 545,83 549,81 553,81 556,81 560,81 564,81 568,81 571,81 575,81 579,81 582,81 586,81 590,81 593,81 597,81 601,81 604,81 608,81 612,81 615,80 619,80 623,80 626,80 630,80 634,80 637,80 641,80 645,80 649,80 652,80 656,79 660,79 663,76 667,73 671,70 674,68 678,65 682,62 685,60 689,59 693,57 696,56 700,55 704,53 707,52 711,52 715,51 718,51 722,51 726,51 730,50" fill="none" stroke="#111111" stroke-width="2.4" stroke-linejoin="round" stroke-linecap="round" filter="url(#pline)"/>
<circle cx="730" cy="50" r="4" fill="#111111" filter="url(#pencil)"/>
<text x="724" y="42" text-anchor="end" font-size="10" font-family="Georgia,serif" fill="#111111">359K</text>
<text x="60" y="289" font-size="9" font-family="Georgia,serif" fill="#888888">기준: 2026-06-06 08:47</text>
</svg>