<svg xmlns="http://www.w3.org/2000/svg" width="760" height="295">
<defs><filter id="pencil" x="-5%" y="-5%" width="110%" height="110%"><feTurbulence type="fractalNoise" baseFrequency="0.9" numOctaves="4" seed="5" result="noise"/><feDisplacementMap in="SourceGraphic" in2="noise" scale="1.6" xChannelSelector="R" yChannelSelector="G"/></filter><filter id="pline" x="-2%" y="-30%" width="104%" height="160%"><feTurbulence type="fractalNoise" baseFrequency="0.015 0.9" numOctaves="3" seed="11" result="noise"/><feDisplacementMap in="SourceGraphic" in2="noise" scale="1.8" xChannelSelector="R" yChannelSelector="G"/></filter><filter id="rough" x="-5%" y="-5%" width="110%" height="110%"><feTurbulence type="turbulence" baseFrequency="0.05" numOctaves="2" seed="2" result="noise"/><feDisplacementMap in="SourceGraphic" in2="noise" scale="2" xChannelSelector="R" yChannelSelector="G"/></filter></defs>
<rect width="760" height="295" fill="#ffffff"/>
<text x="380" y="32" text-anchor="middle" font-size="14" font-weight="bold" font-family="Georgia,serif" fill="#111111" filter="url(#pencil)">Workload (6 months)</text>
<line x1="60" y1="250" x2="730" y2="250" stroke="#cccccc" stroke-width="0.7" stroke-dasharray="4,5" filter="url(#rough)"/>
<text x="54" y="254" text-anchor="end" font-size="10" font-family="Georgia,serif" fill="#333333">0</text>
<line x1="60" y1="200" x2="730" y2="200" stroke="#cccccc" stroke-width="0.7" stroke-dasharray="4,5" filter="url(#rough)"/>
<text x="54" y="204" text-anchor="end" font-size="10" font-family="Georgia,serif" fill="#333333">32K</text>
<line x1="60" y1="150" x2="730" y2="150" stroke="#cccccc" stroke-width="0.7" stroke-dasharray="4,5" filter="url(#rough)"/>
<text x="54" y="154" text-anchor="end" font-size="10" font-family="Georgia,serif" fill="#333333">64K</text>
<line x1="60" y1="100" x2="730" y2="100" stroke="#cccccc" stroke-width="0.7" stroke-dasharray="4,5" filter="url(#rough)"/>
<text x="54" y="104" text-anchor="end" font-size="10" font-family="Georgia,serif" fill="#333333">96K</text>
<line x1="60" y1="50" x2="730" y2="50" stroke="#cccccc" stroke-width="0.7" stroke-dasharray="4,5" filter="url(#rough)"/>
<text x="54" y="54" text-anchor="end" font-size="10" font-family="Georgia,serif" fill="#333333">128K</text>
<text x="85" y="270" text-anchor="middle" font-size="11" font-family="Georgia,serif" fill="#333333" filter="url(#pencil)">12월</text>
<text x="199" y="270" text-anchor="middle" font-size="11" font-family="Georgia,serif" fill="#333333" filter="url(#pencil)">1월</text>
<text x="314" y="270" text-anchor="middle" font-size="11" font-family="Georgia,serif" fill="#333333" filter="url(#pencil)">2월</text>
<text x="417" y="270" text-anchor="middle" font-size="11" font-family="Georgia,serif" fill="#333333" filter="url(#pencil)">3월</text>
<text x="531" y="270" text-anchor="middle" font-size="11" font-family="Georgia,serif" fill="#333333" filter="url(#pencil)">4월</text>
<text x="641" y="270" text-anchor="middle" font-size="11" font-family="Georgia,serif" fill="#333333" filter="url(#pencil)">5월</text>
<line x1="59" y1="42" x2="59" y2="256" stroke="#111111" stroke-width="2" filter="url(#pline)"/>
<line x1="52" y1="251" x2="738" y2="251" stroke="#111111" stroke-width="2" filter="url(#pline)"/>
<polygon points="60,250 60,250 63,248 67,246 71,246 74,246 78,246 82,246 85,246 89,245 93,245 96,245 100,245 104,241 107,241 111,223 115,223 118,223 122,223 126,191 129,191 133,191 137,191 140,191 144,191 148,191 152,172 155,172 159,172 163,172 166,172 170,167 174,167 177,167 181,167 185,167 188,167 192,167 196,167 199,167 203,167 207,167 210,167 214,167 218,167 221,167 225,167 229,167 233,167 236,167 240,167 244,167 247,167 251,167 255,167 258,167 262,163 266,163 269,163 273,163 277,163 280,163 284,160 288,159 291,158 295,150 299,150 302,150 306,148 310,140 314,138 317,137 321,137 325,137 328,137 332,128 336,127 339,127 343,127 347,127 350,127 354,127 358,127 361,127 365,127 369,127 372,127 376,127 380,127 383,125 387,125 391,125 395,125 398,125 402,125 406,123 409,121 413,120 417,115 420,114 424,114 428,113 431,113 435,113 439,113 442,113 446,113 450,113 453,113 457,113 461,112 464,112 468,112 472,109 475,108 479,108 483,104 487,103 490,103 494,103 498,92 501,92 505,92 509,86 512,77 516,71 520,70 523,69 527,69 531,69 534,69 538,69 542,69 545,69 549,69 553,69 556,69 560,69 564,68 568,68 571,68 575,68 579,68 582,68 586,68 590,66 593,64 597,64 601,64 604,64 608,64 612,64 615,64 619,64 623,64 626,64 630,64 634,64 637,64 641,64 645,64 649,64 652,64 656,64 660,63 663,63 667,63 671,63 674,63 678,63 682,63 685,63 689,63 693,63 696,63 700,62 704,62 707,59 711,56 715,54 718,53 722,51 726,51 730,50 730,250" fill="#e8e8e8" opacity="0.6"/>
<polyline points="60,250 63,248 67,246 71,246 74,246 78,246 82,246 85,246 89,245 93,245 96,245 100,245 104,241 107,241 111,223 115,223 118,223 122,223 126,191 129,191 133,191 137,191 140,191 144,191 148,191 152,172 155,172 159,172 163,172 166,172 170,167 174,167 177,167 181,167 185,167 188,167 192,167 196,167 199,167 203,167 207,167 210,167 214,167 218,167 221,167 225,167 229,167 233,167 236,167 240,167 244,167 247,167 251,167 255,167 258,167 262,163 266,163 269,163 273,163 277,163 280,163 284,160 288,159 291,158 295,150 299,150 302,150 306,148 310,140 314,138 317,137 321,137 325,137 328,137 332,128 336,127 339,127 343,127 347,127 350,127 354,127 358,127 361,127 365,127 369,127 372,127 376,127 380,127 383,125 387,125 391,125 395,125 398,125 402,125 406,123 409,121 413,120 417,115 420,114 424,114 428,113 431,113 435,113 439,113 442,113 446,113 450,113 453,113 457,113 461,112 464,112 468,112 472,109 475,108 479,108 483,104 487,103 490,103 494,103 498,92 501,92 505,92 509,86 512,77 516,71 520,70 523,69 527,69 531,69 534,69 538,69 542,69 545,69 549,69 553,69 556,69 560,69 564,68 568,68 571,68 575,68 579,68 582,68 586,68 590,66 593,64 597,64 601,64 604,64 608,64 612,64 615,64 619,64 623,64 626,64 630,64 634,64 637,64 641,64 645,64 649,64 652,64 656,64 660,63 663,63 667,63 671,63 674,63 678,63 682,63 685,63 689,63 693,63 696,63 700,62 704,62 707,59 711,56 715,54 718,53 722,51 726,51 730,50" fill="none" stroke="#111111" stroke-width="2.4" stroke-linejoin="round" stroke-linecap="round" filter="url(#pline)"/>
<circle cx="730" cy="50" r="4" fill="#111111" filter="url(#pencil)"/>
<text x="724" y="42" text-anchor="end" font-size="10" font-family="Georgia,serif" fill="#111111">128K</text>
<text x="60" y="289" font-size="9" font-family="Georgia,serif" fill="#888888">기준: 2026-05-25 10:51</text>
</svg>