<svg xmlns="http://www.w3.org/2000/svg" width="760" height="295">
<defs><filter id="pencil" x="-5%" y="-5%" width="110%" height="110%"><feTurbulence type="fractalNoise" baseFrequency="0.9" numOctaves="4" seed="5" result="noise"/><feDisplacementMap in="SourceGraphic" in2="noise" scale="1.6" xChannelSelector="R" yChannelSelector="G"/></filter><filter id="pline" x="-2%" y="-30%" width="104%" height="160%"><feTurbulence type="fractalNoise" baseFrequency="0.015 0.9" numOctaves="3" seed="11" result="noise"/><feDisplacementMap in="SourceGraphic" in2="noise" scale="1.8" xChannelSelector="R" yChannelSelector="G"/></filter><filter id="rough" x="-5%" y="-5%" width="110%" height="110%"><feTurbulence type="turbulence" baseFrequency="0.05" numOctaves="2" seed="2" result="noise"/><feDisplacementMap in="SourceGraphic" in2="noise" scale="2" xChannelSelector="R" yChannelSelector="G"/></filter></defs>
<rect width="760" height="295" fill="#ffffff"/>
<text x="380" y="32" text-anchor="middle" font-size="14" font-weight="bold" font-family="Georgia,serif" fill="#111111" filter="url(#pencil)">Workload (6 months)</text>
<line x1="60" y1="250" x2="730" y2="250" stroke="#cccccc" stroke-width="0.7" stroke-dasharray="4,5" filter="url(#rough)"/>
<text x="54" y="254" text-anchor="end" font-size="10" font-family="Georgia,serif" fill="#333333">0</text>
<line x1="60" y1="201" x2="730" y2="201" stroke="#cccccc" stroke-width="0.7" stroke-dasharray="4,5" filter="url(#rough)"/>
<text x="54" y="205" text-anchor="end" font-size="10" font-family="Georgia,serif" fill="#333333">141K</text>
<line x1="60" y1="150" x2="730" y2="150" stroke="#cccccc" stroke-width="0.7" stroke-dasharray="4,5" filter="url(#rough)"/>
<text x="54" y="154" text-anchor="end" font-size="10" font-family="Georgia,serif" fill="#333333">283K</text>
<line x1="60" y1="101" x2="730" y2="101" stroke="#cccccc" stroke-width="0.7" stroke-dasharray="4,5" filter="url(#rough)"/>
<text x="54" y="105" text-anchor="end" font-size="10" font-family="Georgia,serif" fill="#333333">424K</text>
<line x1="60" y1="50" x2="730" y2="50" stroke="#cccccc" stroke-width="0.7" stroke-dasharray="4,5" filter="url(#rough)"/>
<text x="54" y="54" text-anchor="end" font-size="10" font-family="Georgia,serif" fill="#333333">566K</text>
<text x="100" y="270" text-anchor="middle" font-size="11" font-family="Georgia,serif" fill="#333333" filter="url(#pencil)">1월</text>
<text x="214" y="270" text-anchor="middle" font-size="11" font-family="Georgia,serif" fill="#333333" filter="url(#pencil)">2월</text>
<text x="317" y="270" text-anchor="middle" font-size="11" font-family="Georgia,serif" fill="#333333" filter="url(#pencil)">3월</text>
<text x="431" y="270" text-anchor="middle" font-size="11" font-family="Georgia,serif" fill="#333333" filter="url(#pencil)">4월</text>
<text x="542" y="270" text-anchor="middle" font-size="11" font-family="Georgia,serif" fill="#333333" filter="url(#pencil)">5월</text>
<text x="656" y="270" text-anchor="middle" font-size="11" font-family="Georgia,serif" fill="#333333" filter="url(#pencil)">6월</text>
<line x1="59" y1="42" x2="59" y2="256" stroke="#111111" stroke-width="2" filter="url(#pline)"/>
<line x1="52" y1="251" x2="738" y2="251" stroke="#111111" stroke-width="2" filter="url(#pline)"/>
<polygon points="60,250 60,250 63,250 67,250 71,245 74,245 78,245 82,245 85,245 89,245 93,245 96,245 100,245 104,245 107,245 111,245 115,245 118,245 122,245 126,245 129,245 133,245 137,245 140,245 144,245 148,245 152,245 155,245 159,245 163,241 166,241 170,241 174,241 177,241 181,240 185,238 188,236 192,235 196,226 199,226 203,226 207,224 210,215 214,213 218,212 221,212 225,212 229,212 233,202 236,201 240,201 244,201 247,201 251,201 255,201 258,201 262,201 266,201 269,201 273,201 277,201 280,201 284,199 288,199 291,199 295,199 299,199 302,199 306,197 310,195 314,193 317,188 321,186 325,186 328,186 332,186 336,186 339,186 343,186 347,186 350,186 354,186 358,186 361,185 365,185 369,185 372,181 376,180 380,180 383,175 387,175 391,175 395,175 398,163 402,163 406,163 409,155 413,146 417,139 420,138 424,137 428,137 431,137 435,137 439,137 442,137 446,137 450,137 453,137 457,137 461,137 464,136 468,136 472,136 475,135 479,135 483,135 487,135 490,132 494,131 498,129 501,129 505,129 509,129 512,129 516,129 520,128 523,128 527,128 531,128 534,128 538,128 542,128 545,128 549,127 553,127 556,127 560,126 564,126 568,126 571,126 575,126 579,126 582,126 586,126 590,126 593,125 597,125 601,124 604,124 608,120 612,117 615,113 619,110 623,106 626,102 630,99 634,96 637,94 641,91 645,89 649,86 652,83 656,81 660,80 663,78 667,76 671,75 674,72 678,70 682,69 685,63 689,60 693,59 696,58 700,56 704,55 707,54 711,54 715,53 718,53 722,53 726,52 730,50 730,250" fill="#e8e8e8" opacity="0.6"/>
<polyline points="60,250 63,250 67,250 71,245 74,245 78,245 82,245 85,245 89,245 93,245 96,245 100,245 104,245 107,245 111,245 115,245 118,245 122,245 126,245 129,245 133,245 137,245 140,245 144,245 148,245 152,245 155,245 159,245 163,241 166,241 170,241 174,241 177,241 181,240 185,238 188,236 192,235 196,226 199,226 203,226 207,224 210,215 214,213 218,212 221,212 225,212 229,212 233,202 236,201 240,201 244,201 247,201 251,201 255,201 258,201 262,201 266,201 269,201 273,201 277,201 280,201 284,199 288,199 291,199 295,199 299,199 302,199 306,197 310,195 314,193 317,188 321,186 325,186 328,186 332,186 336,186 339,186 343,186 347,186 350,186 354,186 358,186 361,185 365,185 369,185 372,181 376,180 380,180 383,175 387,175 391,175 395,175 398,163 402,163 406,163 409,155 413,146 417,139 420,138 424,137 428,137 431,137 435,137 439,137 442,137 446,137 450,137 453,137 457,137 461,137 464,136 468,136 472,136 475,135 479,135 483,135 487,135 490,132 494,131 498,129 501,129 505,129 509,129 512,129 516,129 520,128 523,128 527,128 531,128 534,128 538,128 542,128 545,128 549,127 553,127 556,127 560,126 564,126 568,126 571,126 575,126 579,126 582,126 586,126 590,126 593,125 597,125 601,124 604,124 608,120 612,117 615,113 619,110 623,106 626,102 630,99 634,96 637,94 641,91 645,89 649,86 652,83 656,81 660,80 663,78 667,76 671,75 674,72 678,70 682,69 685,63 689,60 693,59 696,58 700,56 704,55 707,54 711,54 715,53 718,53 722,53 726,52 730,50" fill="none" stroke="#111111" stroke-width="2.4" stroke-linejoin="round" stroke-linecap="round" filter="url(#pline)"/>
<circle cx="730" cy="50" r="4" fill="#111111" filter="url(#pencil)"/>
<text x="724" y="42" text-anchor="end" font-size="10" font-family="Georgia,serif" fill="#111111">566K</text>
<text x="60" y="289" font-size="9" font-family="Georgia,serif" fill="#888888">기준: 2026-06-21 22:36</text>
</svg>