<svg xmlns="http://www.w3.org/2000/svg" width="760" height="295">
<defs><filter id="pencil" x="-5%" y="-5%" width="110%" height="110%"><feTurbulence type="fractalNoise" baseFrequency="0.9" numOctaves="4" seed="5" result="noise"/><feDisplacementMap in="SourceGraphic" in2="noise" scale="1.6" xChannelSelector="R" yChannelSelector="G"/></filter><filter id="pline" x="-2%" y="-30%" width="104%" height="160%"><feTurbulence type="fractalNoise" baseFrequency="0.015 0.9" numOctaves="3" seed="11" result="noise"/><feDisplacementMap in="SourceGraphic" in2="noise" scale="1.8" xChannelSelector="R" yChannelSelector="G"/></filter><filter id="rough" x="-5%" y="-5%" width="110%" height="110%"><feTurbulence type="turbulence" baseFrequency="0.05" numOctaves="2" seed="2" result="noise"/><feDisplacementMap in="SourceGraphic" in2="noise" scale="2" xChannelSelector="R" yChannelSelector="G"/></filter></defs>
<rect width="760" height="295" fill="#ffffff"/>
<text x="380" y="32" text-anchor="middle" font-size="14" font-weight="bold" font-family="Georgia,serif" fill="#111111" filter="url(#pencil)">Workload (6 months)</text>
<line x1="60" y1="250" x2="730" y2="250" stroke="#cccccc" stroke-width="0.7" stroke-dasharray="4,5" filter="url(#rough)"/>
<text x="54" y="254" text-anchor="end" font-size="10" font-family="Georgia,serif" fill="#333333">0</text>
<line x1="60" y1="201" x2="730" y2="201" stroke="#cccccc" stroke-width="0.7" stroke-dasharray="4,5" filter="url(#rough)"/>
<text x="54" y="205" text-anchor="end" font-size="10" font-family="Georgia,serif" fill="#333333">70K</text>
<line x1="60" y1="150" x2="730" y2="150" stroke="#cccccc" stroke-width="0.7" stroke-dasharray="4,5" filter="url(#rough)"/>
<text x="54" y="154" text-anchor="end" font-size="10" font-family="Georgia,serif" fill="#333333">140K</text>
<line x1="60" y1="101" x2="730" y2="101" stroke="#cccccc" stroke-width="0.7" stroke-dasharray="4,5" filter="url(#rough)"/>
<text x="54" y="105" text-anchor="end" font-size="10" font-family="Georgia,serif" fill="#333333">211K</text>
<line x1="60" y1="50" x2="730" y2="50" stroke="#cccccc" stroke-width="0.7" stroke-dasharray="4,5" filter="url(#rough)"/>
<text x="54" y="54" text-anchor="end" font-size="10" font-family="Georgia,serif" fill="#333333">281K</text>
<text x="170" y="270" text-anchor="middle" font-size="11" font-family="Georgia,serif" fill="#333333" filter="url(#pencil)">1월</text>
<text x="284" y="270" text-anchor="middle" font-size="11" font-family="Georgia,serif" fill="#333333" filter="url(#pencil)">2월</text>
<text x="387" y="270" text-anchor="middle" font-size="11" font-family="Georgia,serif" fill="#333333" filter="url(#pencil)">3월</text>
<text x="501" y="270" text-anchor="middle" font-size="11" font-family="Georgia,serif" fill="#333333" filter="url(#pencil)">4월</text>
<text x="612" y="270" text-anchor="middle" font-size="11" font-family="Georgia,serif" fill="#333333" filter="url(#pencil)">5월</text>
<text x="726" y="270" text-anchor="middle" font-size="11" font-family="Georgia,serif" fill="#333333" filter="url(#pencil)">6월</text>
<line x1="59" y1="42" x2="59" y2="256" stroke="#111111" stroke-width="2" filter="url(#pline)"/>
<line x1="52" y1="251" x2="738" y2="251" stroke="#111111" stroke-width="2" filter="url(#pline)"/>
<polygon points="60,250 60,250 63,250 67,250 71,250 74,246 78,246 82,229 85,229 89,229 93,229 96,198 100,198 104,198 107,198 111,198 115,198 118,198 122,180 126,180 129,180 133,180 137,180 140,175 144,175 148,175 152,175 155,175 159,175 163,175 166,175 170,175 174,175 177,175 181,175 185,175 188,175 192,175 196,175 199,175 203,175 207,175 210,175 214,175 218,175 221,175 225,175 229,175 233,171 236,171 240,171 244,171 247,171 251,171 255,168 258,167 262,166 266,158 269,158 273,158 277,157 280,149 284,147 288,146 291,146 295,146 299,146 302,137 306,137 310,136 314,136 317,136 321,136 325,136 328,136 332,136 336,136 339,136 343,136 347,136 350,136 354,135 358,135 361,135 365,135 369,135 372,135 376,133 380,131 383,130 387,125 391,124 395,124 398,123 402,123 406,123 409,123 413,123 417,123 420,123 424,123 428,123 431,122 435,122 439,122 442,119 446,118 450,118 453,114 457,113 461,113 464,113 468,103 472,103 475,103 479,97 483,89 487,82 490,82 494,81 498,81 501,81 505,81 509,81 512,81 516,81 520,81 523,81 527,81 531,81 534,80 538,80 542,80 545,80 549,80 553,80 556,80 560,78 564,76 568,76 571,76 575,76 579,76 582,76 586,76 590,76 593,76 597,76 601,76 604,76 608,76 612,76 615,76 619,76 623,76 626,76 630,75 634,75 637,75 641,75 645,75 649,75 652,75 656,75 660,75 663,75 667,75 671,74 674,74 678,71 682,68 685,65 689,63 693,60 696,58 700,56 704,55 707,53 711,52 715,52 718,51 722,51 726,50 730,50 730,250" fill="#e8e8e8" opacity="0.6"/>
<polyline points="60,250 63,250 67,250 71,250 74,246 78,246 82,229 85,229 89,229 93,229 96,198 100,198 104,198 107,198 111,198 115,198 118,198 122,180 126,180 129,180 133,180 137,180 140,175 144,175 148,175 152,175 155,175 159,175 163,175 166,175 170,175 174,175 177,175 181,175 185,175 188,175 192,175 196,175 199,175 203,175 207,175 210,175 214,175 218,175 221,175 225,175 229,175 233,171 236,171 240,171 244,171 247,171 251,171 255,168 258,167 262,166 266,158 269,158 273,158 277,157 280,149 284,147 288,146 291,146 295,146 299,146 302,137 306,137 310,136 314,136 317,136 321,136 325,136 328,136 332,136 336,136 339,136 343,136 347,136 350,136 354,135 358,135 361,135 365,135 369,135 372,135 376,133 380,131 383,130 387,125 391,124 395,124 398,123 402,123 406,123 409,123 413,123 417,123 420,123 424,123 428,123 431,122 435,122 439,122 442,119 446,118 450,118 453,114 457,113 461,113 464,113 468,103 472,103 475,103 479,97 483,89 487,82 490,82 494,81 498,81 501,81 505,81 509,81 512,81 516,81 520,81 523,81 527,81 531,81 534,80 538,80 542,80 545,80 549,80 553,80 556,80 560,78 564,76 568,76 571,76 575,76 579,76 582,76 586,76 590,76 593,76 597,76 601,76 604,76 608,76 612,76 615,76 619,76 623,76 626,76 630,75 634,75 637,75 641,75 645,75 649,75 652,75 656,75 660,75 663,75 667,75 671,74 674,74 678,71 682,68 685,65 689,63 693,60 696,58 700,56 704,55 707,53 711,52 715,52 718,51 722,51 726,50 730,50" fill="none" stroke="#111111" stroke-width="2.4" stroke-linejoin="round" stroke-linecap="round" filter="url(#pline)"/>
<circle cx="730" cy="50" r="4" fill="#111111" filter="url(#pencil)"/>
<text x="724" y="42" text-anchor="end" font-size="10" font-family="Georgia,serif" fill="#111111">281K</text>
<text x="60" y="289" font-size="9" font-family="Georgia,serif" fill="#888888">기준: 2026-06-02 05:02</text>
</svg>