<svg xmlns="http://www.w3.org/2000/svg" width="760" height="295">
<defs><filter id="pencil" x="-5%" y="-5%" width="110%" height="110%"><feTurbulence type="fractalNoise" baseFrequency="0.9" numOctaves="4" seed="5" result="noise"/><feDisplacementMap in="SourceGraphic" in2="noise" scale="1.6" xChannelSelector="R" yChannelSelector="G"/></filter><filter id="pline" x="-2%" y="-30%" width="104%" height="160%"><feTurbulence type="fractalNoise" baseFrequency="0.015 0.9" numOctaves="3" seed="11" result="noise"/><feDisplacementMap in="SourceGraphic" in2="noise" scale="1.8" xChannelSelector="R" yChannelSelector="G"/></filter><filter id="rough" x="-5%" y="-5%" width="110%" height="110%"><feTurbulence type="turbulence" baseFrequency="0.05" numOctaves="2" seed="2" result="noise"/><feDisplacementMap in="SourceGraphic" in2="noise" scale="2" xChannelSelector="R" yChannelSelector="G"/></filter></defs>
<rect width="760" height="295" fill="#ffffff"/>
<text x="380" y="32" text-anchor="middle" font-size="14" font-weight="bold" font-family="Georgia,serif" fill="#111111" filter="url(#pencil)">Workload (6 months)</text>
<line x1="60" y1="250" x2="730" y2="250" stroke="#cccccc" stroke-width="0.7" stroke-dasharray="4,5" filter="url(#rough)"/>
<text x="54" y="254" text-anchor="end" font-size="10" font-family="Georgia,serif" fill="#333333">0</text>
<line x1="60" y1="201" x2="730" y2="201" stroke="#cccccc" stroke-width="0.7" stroke-dasharray="4,5" filter="url(#rough)"/>
<text x="54" y="205" text-anchor="end" font-size="10" font-family="Georgia,serif" fill="#333333">171K</text>
<line x1="60" y1="151" x2="730" y2="151" stroke="#cccccc" stroke-width="0.7" stroke-dasharray="4,5" filter="url(#rough)"/>
<text x="54" y="155" text-anchor="end" font-size="10" font-family="Georgia,serif" fill="#333333">343K</text>
<line x1="60" y1="101" x2="730" y2="101" stroke="#cccccc" stroke-width="0.7" stroke-dasharray="4,5" filter="url(#rough)"/>
<text x="54" y="105" text-anchor="end" font-size="10" font-family="Georgia,serif" fill="#333333">515K</text>
<line x1="60" y1="50" x2="730" y2="50" stroke="#cccccc" stroke-width="0.7" stroke-dasharray="4,5" filter="url(#rough)"/>
<text x="54" y="54" text-anchor="end" font-size="10" font-family="Georgia,serif" fill="#333333">687K</text>
<text x="85" y="270" text-anchor="middle" font-size="11" font-family="Georgia,serif" fill="#333333" filter="url(#pencil)">1월</text>
<text x="199" y="270" text-anchor="middle" font-size="11" font-family="Georgia,serif" fill="#333333" filter="url(#pencil)">2월</text>
<text x="302" y="270" text-anchor="middle" font-size="11" font-family="Georgia,serif" fill="#333333" filter="url(#pencil)">3월</text>
<text x="417" y="270" text-anchor="middle" font-size="11" font-family="Georgia,serif" fill="#333333" filter="url(#pencil)">4월</text>
<text x="527" y="270" text-anchor="middle" font-size="11" font-family="Georgia,serif" fill="#333333" filter="url(#pencil)">5월</text>
<text x="641" y="270" text-anchor="middle" font-size="11" font-family="Georgia,serif" fill="#333333" filter="url(#pencil)">6월</text>
<line x1="59" y1="42" x2="59" y2="256" stroke="#111111" stroke-width="2" filter="url(#pline)"/>
<line x1="52" y1="251" x2="738" y2="251" stroke="#111111" stroke-width="2" filter="url(#pline)"/>
<polygon points="60,250 60,250 63,250 67,250 71,250 74,250 78,250 82,250 85,250 89,250 93,250 96,250 100,250 104,250 107,250 111,250 115,250 118,250 122,250 126,250 129,250 133,250 137,250 140,250 144,250 148,246 152,246 155,246 159,246 163,246 166,246 170,243 174,242 177,241 181,233 185,233 188,233 192,231 196,224 199,222 203,221 207,221 210,221 214,220 218,211 221,211 225,210 229,210 233,210 236,210 240,210 244,210 247,210 251,210 255,210 258,210 262,210 266,210 269,209 273,209 277,209 280,209 284,209 288,209 291,207 295,205 299,204 302,199 306,197 310,197 314,197 317,197 321,197 325,197 328,197 332,197 336,197 339,197 343,197 347,196 350,196 354,196 358,193 361,192 365,192 369,188 372,187 376,187 380,187 383,176 387,176 391,176 395,169 398,161 402,154 406,154 409,153 413,153 417,153 420,152 424,152 428,152 431,152 435,152 439,152 442,152 446,152 450,152 453,152 457,152 461,149 464,149 468,149 472,149 475,147 479,145 483,143 487,143 490,143 494,141 498,141 501,141 505,140 509,139 512,139 516,139 520,139 523,139 527,139 531,139 534,138 538,138 542,138 545,137 549,137 553,137 556,137 560,137 564,137 568,137 571,137 575,137 579,136 582,136 586,135 590,134 593,131 597,128 601,125 604,121 608,118 612,114 615,111 619,109 623,106 626,104 630,101 634,98 637,96 641,94 645,93 649,91 652,90 656,88 660,86 663,83 667,82 671,76 674,73 678,72 682,70 685,68 689,67 693,66 696,66 700,65 704,64 707,63 711,61 715,56 718,53 722,51 726,51 730,50 730,250" fill="#e8e8e8" opacity="0.6"/>
<polyline points="60,250 63,250 67,250 71,250 74,250 78,250 82,250 85,250 89,250 93,250 96,250 100,250 104,250 107,250 111,250 115,250 118,250 122,250 126,250 129,250 133,250 137,250 140,250 144,250 148,246 152,246 155,246 159,246 163,246 166,246 170,243 174,242 177,241 181,233 185,233 188,233 192,231 196,224 199,222 203,221 207,221 210,221 214,220 218,211 221,211 225,210 229,210 233,210 236,210 240,210 244,210 247,210 251,210 255,210 258,210 262,210 266,210 269,209 273,209 277,209 280,209 284,209 288,209 291,207 295,205 299,204 302,199 306,197 310,197 314,197 317,197 321,197 325,197 328,197 332,197 336,197 339,197 343,197 347,196 350,196 354,196 358,193 361,192 365,192 369,188 372,187 376,187 380,187 383,176 387,176 391,176 395,169 398,161 402,154 406,154 409,153 413,153 417,153 420,152 424,152 428,152 431,152 435,152 439,152 442,152 446,152 450,152 453,152 457,152 461,149 464,149 468,149 472,149 475,147 479,145 483,143 487,143 490,143 494,141 498,141 501,141 505,140 509,139 512,139 516,139 520,139 523,139 527,139 531,139 534,138 538,138 542,138 545,137 549,137 553,137 556,137 560,137 564,137 568,137 571,137 575,137 579,136 582,136 586,135 590,134 593,131 597,128 601,125 604,121 608,118 612,114 615,111 619,109 623,106 626,104 630,101 634,98 637,96 641,94 645,93 649,91 652,90 656,88 660,86 663,83 667,82 671,76 674,73 678,72 682,70 685,68 689,67 693,66 696,66 700,65 704,64 707,63 711,61 715,56 718,53 722,51 726,51 730,50" fill="none" stroke="#111111" stroke-width="2.4" stroke-linejoin="round" stroke-linecap="round" filter="url(#pline)"/>
<circle cx="730" cy="50" r="4" fill="#111111" filter="url(#pencil)"/>
<text x="724" y="42" text-anchor="end" font-size="10" font-family="Georgia,serif" fill="#111111">687K</text>
<text x="60" y="289" font-size="9" font-family="Georgia,serif" fill="#888888">기준: 2026-06-25 09:45</text>
</svg>