<svg xmlns="http://www.w3.org/2000/svg" width="760" height="295">
<defs><filter id="pencil" x="-5%" y="-5%" width="110%" height="110%"><feTurbulence type="fractalNoise" baseFrequency="0.9" numOctaves="4" seed="5" result="noise"/><feDisplacementMap in="SourceGraphic" in2="noise" scale="1.6" xChannelSelector="R" yChannelSelector="G"/></filter><filter id="pline" x="-2%" y="-30%" width="104%" height="160%"><feTurbulence type="fractalNoise" baseFrequency="0.015 0.9" numOctaves="3" seed="11" result="noise"/><feDisplacementMap in="SourceGraphic" in2="noise" scale="1.8" xChannelSelector="R" yChannelSelector="G"/></filter><filter id="rough" x="-5%" y="-5%" width="110%" height="110%"><feTurbulence type="turbulence" baseFrequency="0.05" numOctaves="2" seed="2" result="noise"/><feDisplacementMap in="SourceGraphic" in2="noise" scale="2" xChannelSelector="R" yChannelSelector="G"/></filter></defs>
<rect width="760" height="295" fill="#ffffff"/>
<text x="380" y="32" text-anchor="middle" font-size="14" font-weight="bold" font-family="Georgia,serif" fill="#111111" filter="url(#pencil)">Workload (6 months)</text>
<line x1="60" y1="250" x2="730" y2="250" stroke="#cccccc" stroke-width="0.7" stroke-dasharray="4,5" filter="url(#rough)"/>
<text x="54" y="254" text-anchor="end" font-size="10" font-family="Georgia,serif" fill="#333333">0</text>
<line x1="60" y1="201" x2="730" y2="201" stroke="#cccccc" stroke-width="0.7" stroke-dasharray="4,5" filter="url(#rough)"/>
<text x="54" y="205" text-anchor="end" font-size="10" font-family="Georgia,serif" fill="#333333">200K</text>
<line x1="60" y1="151" x2="730" y2="151" stroke="#cccccc" stroke-width="0.7" stroke-dasharray="4,5" filter="url(#rough)"/>
<text x="54" y="155" text-anchor="end" font-size="10" font-family="Georgia,serif" fill="#333333">401K</text>
<line x1="60" y1="101" x2="730" y2="101" stroke="#cccccc" stroke-width="0.7" stroke-dasharray="4,5" filter="url(#rough)"/>
<text x="54" y="105" text-anchor="end" font-size="10" font-family="Georgia,serif" fill="#333333">602K</text>
<line x1="60" y1="50" x2="730" y2="50" stroke="#cccccc" stroke-width="0.7" stroke-dasharray="4,5" filter="url(#rough)"/>
<text x="54" y="54" text-anchor="end" font-size="10" font-family="Georgia,serif" fill="#333333">803K</text>
<text x="78" y="270" text-anchor="middle" font-size="11" font-family="Georgia,serif" fill="#333333" filter="url(#pencil)">1월</text>
<text x="192" y="270" text-anchor="middle" font-size="11" font-family="Georgia,serif" fill="#333333" filter="url(#pencil)">2월</text>
<text x="295" y="270" text-anchor="middle" font-size="11" font-family="Georgia,serif" fill="#333333" filter="url(#pencil)">3월</text>
<text x="409" y="270" text-anchor="middle" font-size="11" font-family="Georgia,serif" fill="#333333" filter="url(#pencil)">4월</text>
<text x="520" y="270" text-anchor="middle" font-size="11" font-family="Georgia,serif" fill="#333333" filter="url(#pencil)">5월</text>
<text x="634" y="270" text-anchor="middle" font-size="11" font-family="Georgia,serif" fill="#333333" filter="url(#pencil)">6월</text>
<line x1="59" y1="42" x2="59" y2="256" stroke="#111111" stroke-width="2" filter="url(#pline)"/>
<line x1="52" y1="251" x2="738" y2="251" stroke="#111111" stroke-width="2" filter="url(#pline)"/>
<polygon points="60,250 60,250 63,250 67,250 71,250 74,250 78,250 82,250 85,250 89,250 93,250 96,250 100,250 104,250 107,250 111,250 115,250 118,250 122,250 126,250 129,250 133,250 137,250 140,247 144,247 148,247 152,247 155,247 159,246 163,244 166,243 170,242 174,235 177,235 181,235 185,233 188,226 192,224 196,223 199,223 203,223 207,223 210,215 214,214 218,214 221,214 225,214 229,214 233,214 236,214 240,214 244,214 247,214 251,214 255,214 258,214 262,212 266,212 269,212 273,212 277,212 280,212 284,210 288,209 291,208 295,203 299,202 302,202 306,202 310,202 314,202 317,202 321,202 325,202 328,202 332,202 336,202 339,201 343,201 347,201 350,198 354,197 358,197 361,193 365,192 369,192 372,192 376,183 380,183 383,183 387,176 391,169 395,163 398,162 402,162 406,161 409,161 413,161 417,161 420,161 424,161 428,161 431,161 435,161 439,161 442,160 446,160 450,160 453,157 457,157 461,157 464,157 468,155 472,154 475,150 479,150 483,150 487,148 490,148 494,148 498,147 501,145 505,145 509,145 512,145 516,145 520,145 523,145 527,144 531,144 534,144 538,144 542,144 545,144 549,144 553,143 556,143 560,143 564,143 568,143 571,142 575,142 579,141 582,141 586,138 590,135 593,132 597,128 601,125 604,121 608,119 612,117 615,114 619,112 623,110 626,107 630,105 634,103 637,101 641,100 645,98 649,97 652,95 656,92 660,91 663,85 667,82 671,81 674,79 678,77 682,76 685,75 689,74 693,73 696,73 700,71 704,69 707,61 711,57 715,54 718,51 722,51 726,51 730,50 730,250" fill="#e8e8e8" opacity="0.6"/>
<polyline points="60,250 63,250 67,250 71,250 74,250 78,250 82,250 85,250 89,250 93,250 96,250 100,250 104,250 107,250 111,250 115,250 118,250 122,250 126,250 129,250 133,250 137,250 140,247 144,247 148,247 152,247 155,247 159,246 163,244 166,243 170,242 174,235 177,235 181,235 185,233 188,226 192,224 196,223 199,223 203,223 207,223 210,215 214,214 218,214 221,214 225,214 229,214 233,214 236,214 240,214 244,214 247,214 251,214 255,214 258,214 262,212 266,212 269,212 273,212 277,212 280,212 284,210 288,209 291,208 295,203 299,202 302,202 306,202 310,202 314,202 317,202 321,202 325,202 328,202 332,202 336,202 339,201 343,201 347,201 350,198 354,197 358,197 361,193 365,192 369,192 372,192 376,183 380,183 383,183 387,176 391,169 395,163 398,162 402,162 406,161 409,161 413,161 417,161 420,161 424,161 428,161 431,161 435,161 439,161 442,160 446,160 450,160 453,157 457,157 461,157 464,157 468,155 472,154 475,150 479,150 483,150 487,148 490,148 494,148 498,147 501,145 505,145 509,145 512,145 516,145 520,145 523,145 527,144 531,144 534,144 538,144 542,144 545,144 549,144 553,143 556,143 560,143 564,143 568,143 571,142 575,142 579,141 582,141 586,138 590,135 593,132 597,128 601,125 604,121 608,119 612,117 615,114 619,112 623,110 626,107 630,105 634,103 637,101 641,100 645,98 649,97 652,95 656,92 660,91 663,85 667,82 671,81 674,79 678,77 682,76 685,75 689,74 693,73 696,73 700,71 704,69 707,61 711,57 715,54 718,51 722,51 726,51 730,50" fill="none" stroke="#111111" stroke-width="2.4" stroke-linejoin="round" stroke-linecap="round" filter="url(#pline)"/>
<circle cx="730" cy="50" r="4" fill="#111111" filter="url(#pencil)"/>
<text x="724" y="42" text-anchor="end" font-size="10" font-family="Georgia,serif" fill="#111111">803K</text>
<text x="60" y="289" font-size="9" font-family="Georgia,serif" fill="#888888">기준: 2026-06-27 14:08</text>
</svg>