<svg xmlns="http://www.w3.org/2000/svg" width="760" height="295">
<defs><filter id="pencil" x="-5%" y="-5%" width="110%" height="110%"><feTurbulence type="fractalNoise" baseFrequency="0.9" numOctaves="4" seed="5" result="noise"/><feDisplacementMap in="SourceGraphic" in2="noise" scale="1.6" xChannelSelector="R" yChannelSelector="G"/></filter><filter id="pline" x="-2%" y="-30%" width="104%" height="160%"><feTurbulence type="fractalNoise" baseFrequency="0.015 0.9" numOctaves="3" seed="11" result="noise"/><feDisplacementMap in="SourceGraphic" in2="noise" scale="1.8" xChannelSelector="R" yChannelSelector="G"/></filter><filter id="rough" x="-5%" y="-5%" width="110%" height="110%"><feTurbulence type="turbulence" baseFrequency="0.05" numOctaves="2" seed="2" result="noise"/><feDisplacementMap in="SourceGraphic" in2="noise" scale="2" xChannelSelector="R" yChannelSelector="G"/></filter></defs>
<rect width="760" height="295" fill="#ffffff"/>
<text x="380" y="32" text-anchor="middle" font-size="14" font-weight="bold" font-family="Georgia,serif" fill="#111111" filter="url(#pencil)">Workload (6 months)</text>
<line x1="60" y1="250" x2="730" y2="250" stroke="#cccccc" stroke-width="0.7" stroke-dasharray="4,5" filter="url(#rough)"/>
<text x="54" y="254" text-anchor="end" font-size="10" font-family="Georgia,serif" fill="#333333">0</text>
<line x1="60" y1="201" x2="730" y2="201" stroke="#cccccc" stroke-width="0.7" stroke-dasharray="4,5" filter="url(#rough)"/>
<text x="54" y="205" text-anchor="end" font-size="10" font-family="Georgia,serif" fill="#333333">221K</text>
<line x1="60" y1="151" x2="730" y2="151" stroke="#cccccc" stroke-width="0.7" stroke-dasharray="4,5" filter="url(#rough)"/>
<text x="54" y="155" text-anchor="end" font-size="10" font-family="Georgia,serif" fill="#333333">442K</text>
<line x1="60" y1="101" x2="730" y2="101" stroke="#cccccc" stroke-width="0.7" stroke-dasharray="4,5" filter="url(#rough)"/>
<text x="54" y="105" text-anchor="end" font-size="10" font-family="Georgia,serif" fill="#333333">663K</text>
<line x1="60" y1="50" x2="730" y2="50" stroke="#cccccc" stroke-width="0.7" stroke-dasharray="4,5" filter="url(#rough)"/>
<text x="54" y="54" text-anchor="end" font-size="10" font-family="Georgia,serif" fill="#333333">884K</text>
<text x="74" y="270" text-anchor="middle" font-size="11" font-family="Georgia,serif" fill="#333333" filter="url(#pencil)">1월</text>
<text x="188" y="270" text-anchor="middle" font-size="11" font-family="Georgia,serif" fill="#333333" filter="url(#pencil)">2월</text>
<text x="291" y="270" text-anchor="middle" font-size="11" font-family="Georgia,serif" fill="#333333" filter="url(#pencil)">3월</text>
<text x="406" y="270" text-anchor="middle" font-size="11" font-family="Georgia,serif" fill="#333333" filter="url(#pencil)">4월</text>
<text x="516" y="270" text-anchor="middle" font-size="11" font-family="Georgia,serif" fill="#333333" filter="url(#pencil)">5월</text>
<text x="630" y="270" text-anchor="middle" font-size="11" font-family="Georgia,serif" fill="#333333" filter="url(#pencil)">6월</text>
<line x1="59" y1="42" x2="59" y2="256" stroke="#111111" stroke-width="2" filter="url(#pline)"/>
<line x1="52" y1="251" x2="738" y2="251" stroke="#111111" stroke-width="2" filter="url(#pline)"/>
<polygon points="60,250 60,250 63,250 67,250 71,250 74,250 78,250 82,250 85,250 89,250 93,250 96,250 100,250 104,250 107,250 111,250 115,250 118,250 122,250 126,250 129,250 133,250 137,247 140,247 144,247 148,247 152,247 155,246 159,244 163,244 166,242 170,236 174,236 177,236 181,234 185,227 188,226 192,225 196,225 199,225 203,224 207,217 210,216 214,216 218,216 221,216 225,216 229,216 233,216 236,216 240,216 244,216 247,216 251,216 255,216 258,214 262,214 266,214 269,214 273,214 277,214 280,213 284,211 288,210 291,206 295,204 299,204 302,204 306,204 310,204 314,204 317,204 321,204 325,204 328,204 332,204 336,203 339,203 343,203 347,200 350,200 354,200 358,196 361,195 365,195 369,195 372,186 376,186 380,186 383,180 387,173 391,167 395,167 398,166 402,166 406,166 409,165 413,165 417,165 420,165 424,165 428,165 431,165 435,165 439,165 442,165 446,165 450,161 453,161 457,161 461,161 464,159 468,158 472,154 475,154 479,154 483,152 487,152 490,152 494,151 498,149 501,148 505,148 509,148 512,148 516,148 520,148 523,148 527,148 531,148 534,147 538,147 542,147 545,147 549,147 553,147 556,147 560,147 564,147 568,145 571,145 575,145 579,144 582,141 586,139 590,136 593,132 597,129 601,126 604,123 608,121 612,119 615,117 619,114 623,112 626,109 630,108 634,106 637,105 641,103 645,102 649,100 652,97 656,96 660,90 663,87 667,86 671,84 674,82 678,81 682,80 685,79 689,78 693,77 696,76 700,73 704,64 707,59 711,56 715,52 718,51 722,51 726,51 730,50 730,250" fill="#e8e8e8" opacity="0.6"/>
<polyline points="60,250 63,250 67,250 71,250 74,250 78,250 82,250 85,250 89,250 93,250 96,250 100,250 104,250 107,250 111,250 115,250 118,250 122,250 126,250 129,250 133,250 137,247 140,247 144,247 148,247 152,247 155,246 159,244 163,244 166,242 170,236 174,236 177,236 181,234 185,227 188,226 192,225 196,225 199,225 203,224 207,217 210,216 214,216 218,216 221,216 225,216 229,216 233,216 236,216 240,216 244,216 247,216 251,216 255,216 258,214 262,214 266,214 269,214 273,214 277,214 280,213 284,211 288,210 291,206 295,204 299,204 302,204 306,204 310,204 314,204 317,204 321,204 325,204 328,204 332,204 336,203 339,203 343,203 347,200 350,200 354,200 358,196 361,195 365,195 369,195 372,186 376,186 380,186 383,180 387,173 391,167 395,167 398,166 402,166 406,166 409,165 413,165 417,165 420,165 424,165 428,165 431,165 435,165 439,165 442,165 446,165 450,161 453,161 457,161 461,161 464,159 468,158 472,154 475,154 479,154 483,152 487,152 490,152 494,151 498,149 501,148 505,148 509,148 512,148 516,148 520,148 523,148 527,148 531,148 534,147 538,147 542,147 545,147 549,147 553,147 556,147 560,147 564,147 568,145 571,145 575,145 579,144 582,141 586,139 590,136 593,132 597,129 601,126 604,123 608,121 612,119 615,117 619,114 623,112 626,109 630,108 634,106 637,105 641,103 645,102 649,100 652,97 656,96 660,90 663,87 667,86 671,84 674,82 678,81 682,80 685,79 689,78 693,77 696,76 700,73 704,64 707,59 711,56 715,52 718,51 722,51 726,51 730,50" fill="none" stroke="#111111" stroke-width="2.4" stroke-linejoin="round" stroke-linecap="round" filter="url(#pline)"/>
<circle cx="730" cy="50" r="4" fill="#111111" filter="url(#pencil)"/>
<text x="724" y="42" text-anchor="end" font-size="10" font-family="Georgia,serif" fill="#111111">884K</text>
<text x="60" y="289" font-size="9" font-family="Georgia,serif" fill="#888888">기준: 2026-06-28 22:16</text>
</svg>