<svg xmlns="http://www.w3.org/2000/svg" width="760" height="295">
<defs><filter id="pencil" x="-5%" y="-5%" width="110%" height="110%"><feTurbulence type="fractalNoise" baseFrequency="0.9" numOctaves="4" seed="5" result="noise"/><feDisplacementMap in="SourceGraphic" in2="noise" scale="1.6" xChannelSelector="R" yChannelSelector="G"/></filter><filter id="pline" x="-2%" y="-30%" width="104%" height="160%"><feTurbulence type="fractalNoise" baseFrequency="0.015 0.9" numOctaves="3" seed="11" result="noise"/><feDisplacementMap in="SourceGraphic" in2="noise" scale="1.8" xChannelSelector="R" yChannelSelector="G"/></filter><filter id="rough" x="-5%" y="-5%" width="110%" height="110%"><feTurbulence type="turbulence" baseFrequency="0.05" numOctaves="2" seed="2" result="noise"/><feDisplacementMap in="SourceGraphic" in2="noise" scale="2" xChannelSelector="R" yChannelSelector="G"/></filter></defs>
<rect width="760" height="295" fill="#ffffff"/>
<text x="380" y="32" text-anchor="middle" font-size="14" font-weight="bold" font-family="Georgia,serif" fill="#111111" filter="url(#pencil)">Workload (6 months)</text>
<line x1="60" y1="250" x2="730" y2="250" stroke="#cccccc" stroke-width="0.7" stroke-dasharray="4,5" filter="url(#rough)"/>
<text x="54" y="254" text-anchor="end" font-size="10" font-family="Georgia,serif" fill="#333333">0</text>
<line x1="60" y1="200" x2="730" y2="200" stroke="#cccccc" stroke-width="0.7" stroke-dasharray="4,5" filter="url(#rough)"/>
<text x="54" y="204" text-anchor="end" font-size="10" font-family="Georgia,serif" fill="#333333">34K</text>
<line x1="60" y1="150" x2="730" y2="150" stroke="#cccccc" stroke-width="0.7" stroke-dasharray="4,5" filter="url(#rough)"/>
<text x="54" y="154" text-anchor="end" font-size="10" font-family="Georgia,serif" fill="#333333">69K</text>
<line x1="60" y1="100" x2="730" y2="100" stroke="#cccccc" stroke-width="0.7" stroke-dasharray="4,5" filter="url(#rough)"/>
<text x="54" y="104" text-anchor="end" font-size="10" font-family="Georgia,serif" fill="#333333">104K</text>
<line x1="60" y1="50" x2="730" y2="50" stroke="#cccccc" stroke-width="0.7" stroke-dasharray="4,5" filter="url(#rough)"/>
<text x="54" y="54" text-anchor="end" font-size="10" font-family="Georgia,serif" fill="#333333">139K</text>
<text x="85" y="270" text-anchor="middle" font-size="11" font-family="Georgia,serif" fill="#333333" filter="url(#pencil)">12월</text>
<text x="199" y="270" text-anchor="middle" font-size="11" font-family="Georgia,serif" fill="#333333" filter="url(#pencil)">1월</text>
<text x="314" y="270" text-anchor="middle" font-size="11" font-family="Georgia,serif" fill="#333333" filter="url(#pencil)">2월</text>
<text x="417" y="270" text-anchor="middle" font-size="11" font-family="Georgia,serif" fill="#333333" filter="url(#pencil)">3월</text>
<text x="531" y="270" text-anchor="middle" font-size="11" font-family="Georgia,serif" fill="#333333" filter="url(#pencil)">4월</text>
<text x="641" y="270" text-anchor="middle" font-size="11" font-family="Georgia,serif" fill="#333333" filter="url(#pencil)">5월</text>
<line x1="59" y1="42" x2="59" y2="256" stroke="#111111" stroke-width="2" filter="url(#pline)"/>
<line x1="52" y1="251" x2="738" y2="251" stroke="#111111" stroke-width="2" filter="url(#pline)"/>
<polygon points="60,250 60,250 63,248 67,246 71,246 74,246 78,246 82,246 85,246 89,246 93,245 96,245 100,245 104,241 107,241 111,223 115,223 118,223 122,223 126,191 129,191 133,191 137,191 140,191 144,191 148,191 152,172 155,172 159,172 163,172 166,172 170,168 174,168 177,168 181,168 185,168 188,168 192,168 196,168 199,168 203,168 207,168 210,168 214,168 218,168 221,168 225,168 229,168 233,168 236,168 240,168 244,168 247,168 251,168 255,168 258,168 262,164 266,164 269,164 273,163 277,163 280,163 284,161 288,160 291,158 295,150 299,150 302,150 306,149 310,141 314,139 317,138 321,138 325,138 328,137 332,128 336,128 339,127 343,127 347,127 350,127 354,127 358,127 361,127 365,127 369,127 372,127 376,127 380,127 383,126 387,126 391,126 395,126 398,126 402,126 406,124 409,122 413,121 417,116 420,114 424,114 428,114 431,114 435,114 439,114 442,114 446,114 450,114 453,114 457,114 461,113 464,113 468,113 472,110 475,109 479,109 483,105 487,104 490,104 494,104 498,93 501,93 505,93 509,86 512,78 516,71 520,71 523,70 527,70 531,70 534,70 538,70 542,70 545,70 549,70 553,70 556,70 560,70 564,69 568,69 571,69 575,69 579,69 582,69 586,69 590,67 593,65 597,65 601,65 604,65 608,65 612,65 615,65 619,65 623,65 626,65 630,65 634,65 637,65 641,65 645,65 649,65 652,65 656,65 660,64 663,64 667,64 671,64 674,64 678,64 682,64 685,64 689,64 693,64 696,64 700,63 704,62 707,59 711,57 715,55 718,53 722,52 726,51 730,50 730,250" fill="#e8e8e8" opacity="0.6"/>
<polyline points="60,250 63,248 67,246 71,246 74,246 78,246 82,246 85,246 89,246 93,245 96,245 100,245 104,241 107,241 111,223 115,223 118,223 122,223 126,191 129,191 133,191 137,191 140,191 144,191 148,191 152,172 155,172 159,172 163,172 166,172 170,168 174,168 177,168 181,168 185,168 188,168 192,168 196,168 199,168 203,168 207,168 210,168 214,168 218,168 221,168 225,168 229,168 233,168 236,168 240,168 244,168 247,168 251,168 255,168 258,168 262,164 266,164 269,164 273,163 277,163 280,163 284,161 288,160 291,158 295,150 299,150 302,150 306,149 310,141 314,139 317,138 321,138 325,138 328,137 332,128 336,128 339,127 343,127 347,127 350,127 354,127 358,127 361,127 365,127 369,127 372,127 376,127 380,127 383,126 387,126 391,126 395,126 398,126 402,126 406,124 409,122 413,121 417,116 420,114 424,114 428,114 431,114 435,114 439,114 442,114 446,114 450,114 453,114 457,114 461,113 464,113 468,113 472,110 475,109 479,109 483,105 487,104 490,104 494,104 498,93 501,93 505,93 509,86 512,78 516,71 520,71 523,70 527,70 531,70 534,70 538,70 542,70 545,70 549,70 553,70 556,70 560,70 564,69 568,69 571,69 575,69 579,69 582,69 586,69 590,67 593,65 597,65 601,65 604,65 608,65 612,65 615,65 619,65 623,65 626,65 630,65 634,65 637,65 641,65 645,65 649,65 652,65 656,65 660,64 663,64 667,64 671,64 674,64 678,64 682,64 685,64 689,64 693,64 696,64 700,63 704,62 707,59 711,57 715,55 718,53 722,52 726,51 730,50" fill="none" stroke="#111111" stroke-width="2.4" stroke-linejoin="round" stroke-linecap="round" filter="url(#pline)"/>
<circle cx="730" cy="50" r="4" fill="#111111" filter="url(#pencil)"/>
<text x="724" y="42" text-anchor="end" font-size="10" font-family="Georgia,serif" fill="#111111">139K</text>
<text x="60" y="289" font-size="9" font-family="Georgia,serif" fill="#888888">기준: 2026-05-25 22:18</text>
</svg>