<svg xmlns="http://www.w3.org/2000/svg" width="760" height="295">
<defs><filter id="pencil" x="-5%" y="-5%" width="110%" height="110%"><feTurbulence type="fractalNoise" baseFrequency="0.9" numOctaves="4" seed="5" result="noise"/><feDisplacementMap in="SourceGraphic" in2="noise" scale="1.6" xChannelSelector="R" yChannelSelector="G"/></filter><filter id="pline" x="-2%" y="-30%" width="104%" height="160%"><feTurbulence type="fractalNoise" baseFrequency="0.015 0.9" numOctaves="3" seed="11" result="noise"/><feDisplacementMap in="SourceGraphic" in2="noise" scale="1.8" xChannelSelector="R" yChannelSelector="G"/></filter><filter id="rough" x="-5%" y="-5%" width="110%" height="110%"><feTurbulence type="turbulence" baseFrequency="0.05" numOctaves="2" seed="2" result="noise"/><feDisplacementMap in="SourceGraphic" in2="noise" scale="2" xChannelSelector="R" yChannelSelector="G"/></filter></defs>
<rect width="760" height="295" fill="#ffffff"/>
<text x="380" y="32" text-anchor="middle" font-size="14" font-weight="bold" font-family="Georgia,serif" fill="#111111" filter="url(#pencil)">Workload (6 months)</text>
<line x1="60" y1="250" x2="730" y2="250" stroke="#cccccc" stroke-width="0.7" stroke-dasharray="4,5" filter="url(#rough)"/>
<text x="54" y="254" text-anchor="end" font-size="10" font-family="Georgia,serif" fill="#333333">0</text>
<line x1="60" y1="201" x2="730" y2="201" stroke="#cccccc" stroke-width="0.7" stroke-dasharray="4,5" filter="url(#rough)"/>
<text x="54" y="205" text-anchor="end" font-size="10" font-family="Georgia,serif" fill="#333333">96K</text>
<line x1="60" y1="151" x2="730" y2="151" stroke="#cccccc" stroke-width="0.7" stroke-dasharray="4,5" filter="url(#rough)"/>
<text x="54" y="155" text-anchor="end" font-size="10" font-family="Georgia,serif" fill="#333333">192K</text>
<line x1="60" y1="101" x2="730" y2="101" stroke="#cccccc" stroke-width="0.7" stroke-dasharray="4,5" filter="url(#rough)"/>
<text x="54" y="105" text-anchor="end" font-size="10" font-family="Georgia,serif" fill="#333333">289K</text>
<line x1="60" y1="50" x2="730" y2="50" stroke="#cccccc" stroke-width="0.7" stroke-dasharray="4,5" filter="url(#rough)"/>
<text x="54" y="54" text-anchor="end" font-size="10" font-family="Georgia,serif" fill="#333333">385K</text>
<text x="152" y="270" text-anchor="middle" font-size="11" font-family="Georgia,serif" fill="#333333" filter="url(#pencil)">1월</text>
<text x="266" y="270" text-anchor="middle" font-size="11" font-family="Georgia,serif" fill="#333333" filter="url(#pencil)">2월</text>
<text x="369" y="270" text-anchor="middle" font-size="11" font-family="Georgia,serif" fill="#333333" filter="url(#pencil)">3월</text>
<text x="483" y="270" text-anchor="middle" font-size="11" font-family="Georgia,serif" fill="#333333" filter="url(#pencil)">4월</text>
<text x="593" y="270" text-anchor="middle" font-size="11" font-family="Georgia,serif" fill="#333333" filter="url(#pencil)">5월</text>
<text x="707" y="270" text-anchor="middle" font-size="11" font-family="Georgia,serif" fill="#333333" filter="url(#pencil)">6월</text>
<line x1="59" y1="42" x2="59" y2="256" stroke="#111111" stroke-width="2" filter="url(#pline)"/>
<line x1="52" y1="251" x2="738" y2="251" stroke="#111111" stroke-width="2" filter="url(#pline)"/>
<polygon points="60,250 60,250 63,234 67,234 71,234 74,234 78,204 82,204 85,204 89,204 93,204 96,204 100,204 104,186 107,186 111,186 115,186 118,186 122,181 126,181 129,181 133,181 137,181 140,181 144,181 148,181 152,181 155,181 159,181 163,181 166,181 170,181 174,181 177,181 181,181 185,181 188,181 192,181 196,181 199,181 203,181 207,181 210,181 214,177 218,177 221,177 225,177 229,177 233,177 236,174 240,174 244,172 247,165 251,165 255,165 258,163 262,156 266,154 269,153 273,153 277,153 280,152 284,144 288,143 291,143 295,143 299,143 302,143 306,143 310,143 314,143 317,143 321,143 325,143 328,143 332,143 336,141 339,141 343,141 347,141 350,141 354,141 358,139 361,138 365,137 369,132 372,131 376,131 380,130 383,130 387,130 391,130 395,130 398,130 402,130 406,130 409,130 413,129 417,129 420,129 424,126 428,125 431,125 435,121 439,121 442,121 446,121 450,111 453,111 457,111 461,104 464,96 468,90 472,89 475,89 479,89 483,89 487,89 490,89 494,89 498,89 501,89 505,89 509,89 512,89 516,88 520,88 523,88 527,88 531,88 534,88 538,88 542,85 545,84 549,84 553,84 556,84 560,84 564,84 568,84 571,84 575,84 579,84 582,84 586,84 590,84 593,84 597,84 601,84 604,84 608,84 612,83 615,83 619,83 623,83 626,83 630,83 634,83 637,83 641,83 645,83 649,83 652,82 656,81 660,78 663,76 667,73 671,70 674,67 678,64 682,62 685,61 689,59 693,58 696,56 700,55 704,53 707,53 711,52 715,52 718,51 722,51 726,51 730,50 730,250" fill="#e8e8e8" opacity="0.6"/>
<polyline points="60,250 63,234 67,234 71,234 74,234 78,204 82,204 85,204 89,204 93,204 96,204 100,204 104,186 107,186 111,186 115,186 118,186 122,181 126,181 129,181 133,181 137,181 140,181 144,181 148,181 152,181 155,181 159,181 163,181 166,181 170,181 174,181 177,181 181,181 185,181 188,181 192,181 196,181 199,181 203,181 207,181 210,181 214,177 218,177 221,177 225,177 229,177 233,177 236,174 240,174 244,172 247,165 251,165 255,165 258,163 262,156 266,154 269,153 273,153 277,153 280,152 284,144 288,143 291,143 295,143 299,143 302,143 306,143 310,143 314,143 317,143 321,143 325,143 328,143 332,143 336,141 339,141 343,141 347,141 350,141 354,141 358,139 361,138 365,137 369,132 372,131 376,131 380,130 383,130 387,130 391,130 395,130 398,130 402,130 406,130 409,130 413,129 417,129 420,129 424,126 428,125 431,125 435,121 439,121 442,121 446,121 450,111 453,111 457,111 461,104 464,96 468,90 472,89 475,89 479,89 483,89 487,89 490,89 494,89 498,89 501,89 505,89 509,89 512,89 516,88 520,88 523,88 527,88 531,88 534,88 538,88 542,85 545,84 549,84 553,84 556,84 560,84 564,84 568,84 571,84 575,84 579,84 582,84 586,84 590,84 593,84 597,84 601,84 604,84 608,84 612,83 615,83 619,83 623,83 626,83 630,83 634,83 637,83 641,83 645,83 649,83 652,82 656,81 660,78 663,76 667,73 671,70 674,67 678,64 682,62 685,61 689,59 693,58 696,56 700,55 704,53 707,53 711,52 715,52 718,51 722,51 726,51 730,50" fill="none" stroke="#111111" stroke-width="2.4" stroke-linejoin="round" stroke-linecap="round" filter="url(#pline)"/>
<circle cx="730" cy="50" r="4" fill="#111111" filter="url(#pencil)"/>
<text x="724" y="42" text-anchor="end" font-size="10" font-family="Georgia,serif" fill="#111111">385K</text>
<text x="60" y="289" font-size="9" font-family="Georgia,serif" fill="#888888">기준: 2026-06-07 14:22</text>
</svg>