<svg xmlns="http://www.w3.org/2000/svg" width="760" height="295">
<defs><filter id="pencil" x="-5%" y="-5%" width="110%" height="110%"><feTurbulence type="fractalNoise" baseFrequency="0.9" numOctaves="4" seed="5" result="noise"/><feDisplacementMap in="SourceGraphic" in2="noise" scale="1.6" xChannelSelector="R" yChannelSelector="G"/></filter><filter id="pline" x="-2%" y="-30%" width="104%" height="160%"><feTurbulence type="fractalNoise" baseFrequency="0.015 0.9" numOctaves="3" seed="11" result="noise"/><feDisplacementMap in="SourceGraphic" in2="noise" scale="1.8" xChannelSelector="R" yChannelSelector="G"/></filter><filter id="rough" x="-5%" y="-5%" width="110%" height="110%"><feTurbulence type="turbulence" baseFrequency="0.05" numOctaves="2" seed="2" result="noise"/><feDisplacementMap in="SourceGraphic" in2="noise" scale="2" xChannelSelector="R" yChannelSelector="G"/></filter></defs>
<rect width="760" height="295" fill="#ffffff"/>
<text x="380" y="32" text-anchor="middle" font-size="14" font-weight="bold" font-family="Georgia,serif" fill="#111111" filter="url(#pencil)">Workload (6 months)</text>
<line x1="60" y1="250" x2="730" y2="250" stroke="#cccccc" stroke-width="0.7" stroke-dasharray="4,5" filter="url(#rough)"/>
<text x="54" y="254" text-anchor="end" font-size="10" font-family="Georgia,serif" fill="#333333">0</text>
<line x1="60" y1="200" x2="730" y2="200" stroke="#cccccc" stroke-width="0.7" stroke-dasharray="4,5" filter="url(#rough)"/>
<text x="54" y="204" text-anchor="end" font-size="10" font-family="Georgia,serif" fill="#333333">78K</text>
<line x1="60" y1="150" x2="730" y2="150" stroke="#cccccc" stroke-width="0.7" stroke-dasharray="4,5" filter="url(#rough)"/>
<text x="54" y="154" text-anchor="end" font-size="10" font-family="Georgia,serif" fill="#333333">156K</text>
<line x1="60" y1="100" x2="730" y2="100" stroke="#cccccc" stroke-width="0.7" stroke-dasharray="4,5" filter="url(#rough)"/>
<text x="54" y="104" text-anchor="end" font-size="10" font-family="Georgia,serif" fill="#333333">235K</text>
<line x1="60" y1="50" x2="730" y2="50" stroke="#cccccc" stroke-width="0.7" stroke-dasharray="4,5" filter="url(#rough)"/>
<text x="54" y="54" text-anchor="end" font-size="10" font-family="Georgia,serif" fill="#333333">313K</text>
<text x="163" y="270" text-anchor="middle" font-size="11" font-family="Georgia,serif" fill="#333333" filter="url(#pencil)">1월</text>
<text x="277" y="270" text-anchor="middle" font-size="11" font-family="Georgia,serif" fill="#333333" filter="url(#pencil)">2월</text>
<text x="380" y="270" text-anchor="middle" font-size="11" font-family="Georgia,serif" fill="#333333" filter="url(#pencil)">3월</text>
<text x="494" y="270" text-anchor="middle" font-size="11" font-family="Georgia,serif" fill="#333333" filter="url(#pencil)">4월</text>
<text x="604" y="270" text-anchor="middle" font-size="11" font-family="Georgia,serif" fill="#333333" filter="url(#pencil)">5월</text>
<text x="718" y="270" text-anchor="middle" font-size="11" font-family="Georgia,serif" fill="#333333" filter="url(#pencil)">6월</text>
<line x1="59" y1="42" x2="59" y2="256" stroke="#111111" stroke-width="2" filter="url(#pline)"/>
<line x1="52" y1="251" x2="738" y2="251" stroke="#111111" stroke-width="2" filter="url(#pline)"/>
<polygon points="60,250 60,250 63,250 67,246 71,246 74,230 78,230 82,230 85,230 89,199 93,199 96,199 100,199 104,199 107,199 111,199 115,181 118,181 122,181 126,181 129,181 133,176 137,176 140,176 144,176 148,176 152,176 155,176 159,176 163,176 166,176 170,176 174,176 177,176 181,176 185,176 188,176 192,176 196,176 199,176 203,176 207,176 210,176 214,176 218,176 221,176 225,172 229,172 233,172 236,172 240,172 244,172 247,170 251,169 255,167 258,160 262,160 266,160 269,158 273,151 277,149 280,148 284,148 288,148 291,147 295,139 299,138 302,138 306,138 310,138 314,138 317,138 321,138 325,138 328,138 332,138 336,138 339,138 343,138 347,136 350,136 354,136 358,136 361,136 365,136 369,134 372,133 376,132 380,127 383,125 387,125 391,125 395,125 398,125 402,125 406,125 409,125 413,125 417,125 420,125 424,124 428,124 431,124 435,121 439,120 442,120 446,116 450,115 453,115 457,115 461,105 464,105 468,105 472,99 475,91 479,84 483,84 487,83 490,83 494,83 498,83 501,83 505,83 509,83 512,83 516,83 520,83 523,83 527,82 531,82 534,82 538,82 542,82 545,82 549,82 553,80 556,79 560,79 564,79 568,79 571,79 575,79 579,79 582,79 586,79 590,79 593,79 597,79 601,79 604,79 608,79 612,78 615,78 619,78 623,77 626,77 630,77 634,77 637,77 641,77 645,77 649,77 652,77 656,77 660,77 663,76 667,76 671,73 674,70 678,67 682,65 685,62 689,59 693,58 696,56 700,55 704,54 707,53 711,52 715,51 718,51 722,51 726,50 730,50 730,250" fill="#e8e8e8" opacity="0.6"/>
<polyline points="60,250 63,250 67,246 71,246 74,230 78,230 82,230 85,230 89,199 93,199 96,199 100,199 104,199 107,199 111,199 115,181 118,181 122,181 126,181 129,181 133,176 137,176 140,176 144,176 148,176 152,176 155,176 159,176 163,176 166,176 170,176 174,176 177,176 181,176 185,176 188,176 192,176 196,176 199,176 203,176 207,176 210,176 214,176 218,176 221,176 225,172 229,172 233,172 236,172 240,172 244,172 247,170 251,169 255,167 258,160 262,160 266,160 269,158 273,151 277,149 280,148 284,148 288,148 291,147 295,139 299,138 302,138 306,138 310,138 314,138 317,138 321,138 325,138 328,138 332,138 336,138 339,138 343,138 347,136 350,136 354,136 358,136 361,136 365,136 369,134 372,133 376,132 380,127 383,125 387,125 391,125 395,125 398,125 402,125 406,125 409,125 413,125 417,125 420,125 424,124 428,124 431,124 435,121 439,120 442,120 446,116 450,115 453,115 457,115 461,105 464,105 468,105 472,99 475,91 479,84 483,84 487,83 490,83 494,83 498,83 501,83 505,83 509,83 512,83 516,83 520,83 523,83 527,82 531,82 534,82 538,82 542,82 545,82 549,82 553,80 556,79 560,79 564,79 568,79 571,79 575,79 579,79 582,79 586,79 590,79 593,79 597,79 601,79 604,79 608,79 612,78 615,78 619,78 623,77 626,77 630,77 634,77 637,77 641,77 645,77 649,77 652,77 656,77 660,77 663,76 667,76 671,73 674,70 678,67 682,65 685,62 689,59 693,58 696,56 700,55 704,54 707,53 711,52 715,51 718,51 722,51 726,50 730,50" fill="none" stroke="#111111" stroke-width="2.4" stroke-linejoin="round" stroke-linecap="round" filter="url(#pline)"/>
<circle cx="730" cy="50" r="4" fill="#111111" filter="url(#pencil)"/>
<text x="724" y="42" text-anchor="end" font-size="10" font-family="Georgia,serif" fill="#111111">313K</text>
<text x="60" y="289" font-size="9" font-family="Georgia,serif" fill="#888888">기준: 2026-06-04 05:11</text>
</svg>