<svg xmlns="http://www.w3.org/2000/svg" width="760" height="295">
<defs><filter id="pencil" x="-5%" y="-5%" width="110%" height="110%"><feTurbulence type="fractalNoise" baseFrequency="0.9" numOctaves="4" seed="5" result="noise"/><feDisplacementMap in="SourceGraphic" in2="noise" scale="1.6" xChannelSelector="R" yChannelSelector="G"/></filter><filter id="pline" x="-2%" y="-30%" width="104%" height="160%"><feTurbulence type="fractalNoise" baseFrequency="0.015 0.9" numOctaves="3" seed="11" result="noise"/><feDisplacementMap in="SourceGraphic" in2="noise" scale="1.8" xChannelSelector="R" yChannelSelector="G"/></filter><filter id="rough" x="-5%" y="-5%" width="110%" height="110%"><feTurbulence type="turbulence" baseFrequency="0.05" numOctaves="2" seed="2" result="noise"/><feDisplacementMap in="SourceGraphic" in2="noise" scale="2" xChannelSelector="R" yChannelSelector="G"/></filter></defs>
<rect width="760" height="295" fill="#ffffff"/>
<text x="380" y="32" text-anchor="middle" font-size="14" font-weight="bold" font-family="Georgia,serif" fill="#111111" filter="url(#pencil)">Workload (6 months)</text>
<line x1="60" y1="250" x2="730" y2="250" stroke="#cccccc" stroke-width="0.7" stroke-dasharray="4,5" filter="url(#rough)"/>
<text x="54" y="254" text-anchor="end" font-size="10" font-family="Georgia,serif" fill="#333333">0</text>
<line x1="60" y1="201" x2="730" y2="201" stroke="#cccccc" stroke-width="0.7" stroke-dasharray="4,5" filter="url(#rough)"/>
<text x="54" y="205" text-anchor="end" font-size="10" font-family="Georgia,serif" fill="#333333">365K</text>
<line x1="60" y1="150" x2="730" y2="150" stroke="#cccccc" stroke-width="0.7" stroke-dasharray="4,5" filter="url(#rough)"/>
<text x="54" y="154" text-anchor="end" font-size="10" font-family="Georgia,serif" fill="#333333">730K</text>
<line x1="60" y1="101" x2="730" y2="101" stroke="#cccccc" stroke-width="0.7" stroke-dasharray="4,5" filter="url(#rough)"/>
<text x="54" y="105" text-anchor="end" font-size="10" font-family="Georgia,serif" fill="#333333">1096K</text>
<line x1="60" y1="50" x2="730" y2="50" stroke="#cccccc" stroke-width="0.7" stroke-dasharray="4,5" filter="url(#rough)"/>
<text x="54" y="54" text-anchor="end" font-size="10" font-family="Georgia,serif" fill="#333333">1461K</text>
<text x="148" y="270" text-anchor="middle" font-size="11" font-family="Georgia,serif" fill="#333333" filter="url(#pencil)">2월</text>
<text x="251" y="270" text-anchor="middle" font-size="11" font-family="Georgia,serif" fill="#333333" filter="url(#pencil)">3월</text>
<text x="365" y="270" text-anchor="middle" font-size="11" font-family="Georgia,serif" fill="#333333" filter="url(#pencil)">4월</text>
<text x="475" y="270" text-anchor="middle" font-size="11" font-family="Georgia,serif" fill="#333333" filter="url(#pencil)">5월</text>
<text x="590" y="270" text-anchor="middle" font-size="11" font-family="Georgia,serif" fill="#333333" filter="url(#pencil)">6월</text>
<text x="700" y="270" text-anchor="middle" font-size="11" font-family="Georgia,serif" fill="#333333" filter="url(#pencil)">7월</text>
<line x1="59" y1="42" x2="59" y2="256" stroke="#111111" stroke-width="2" filter="url(#pline)"/>
<line x1="52" y1="251" x2="738" y2="251" stroke="#111111" stroke-width="2" filter="url(#pline)"/>
<polygon points="60,250 60,250 63,250 67,250 71,250 74,250 78,250 82,250 85,250 89,250 93,250 96,248 100,248 104,248 107,248 111,248 115,247 118,246 122,245 126,244 129,239 133,239 137,239 140,238 144,233 148,231 152,231 155,231 159,231 163,230 166,224 170,224 174,224 177,224 181,224 185,224 188,224 192,224 196,224 199,224 203,224 207,224 210,224 214,224 218,223 221,223 225,223 229,223 233,223 236,223 240,221 244,220 247,219 251,216 255,215 258,215 262,215 266,215 269,215 273,215 277,215 280,215 284,215 288,215 291,215 295,214 299,214 302,214 306,212 310,211 314,211 317,209 321,208 325,208 328,208 332,201 336,201 339,201 343,196 347,191 350,186 354,186 358,186 361,185 365,185 369,184 372,184 376,184 380,184 383,184 387,184 391,184 395,184 398,184 402,184 406,184 409,179 413,179 417,179 420,179 424,178 428,177 431,172 435,172 439,172 442,169 446,169 450,168 453,167 457,164 461,164 464,164 468,164 472,164 475,164 479,164 483,164 487,164 490,164 494,163 498,163 501,163 505,163 509,163 512,163 516,162 520,162 523,162 527,160 531,160 534,160 538,160 542,157 545,155 549,153 553,150 556,147 560,144 564,142 568,141 571,139 575,137 579,135 582,132 586,131 590,129 593,128 597,127 601,125 604,124 608,122 612,120 615,118 619,113 623,110 626,109 630,107 634,105 637,103 641,102 645,101 649,100 652,99 656,97 660,93 663,81 667,73 671,67 674,60 678,58 682,56 685,56 689,55 693,54 696,53 700,52 704,52 707,52 711,51 715,51 718,51 722,51 726,50 730,50 730,250" fill="#e8e8e8" opacity="0.6"/>
<polyline points="60,250 63,250 67,250 71,250 74,250 78,250 82,250 85,250 89,250 93,250 96,248 100,248 104,248 107,248 111,248 115,247 118,246 122,245 126,244 129,239 133,239 137,239 140,238 144,233 148,231 152,231 155,231 159,231 163,230 166,224 170,224 174,224 177,224 181,224 185,224 188,224 192,224 196,224 199,224 203,224 207,224 210,224 214,224 218,223 221,223 225,223 229,223 233,223 236,223 240,221 244,220 247,219 251,216 255,215 258,215 262,215 266,215 269,215 273,215 277,215 280,215 284,215 288,215 291,215 295,214 299,214 302,214 306,212 310,211 314,211 317,209 321,208 325,208 328,208 332,201 336,201 339,201 343,196 347,191 350,186 354,186 358,186 361,185 365,185 369,184 372,184 376,184 380,184 383,184 387,184 391,184 395,184 398,184 402,184 406,184 409,179 413,179 417,179 420,179 424,178 428,177 431,172 435,172 439,172 442,169 446,169 450,168 453,167 457,164 461,164 464,164 468,164 472,164 475,164 479,164 483,164 487,164 490,164 494,163 498,163 501,163 505,163 509,163 512,163 516,162 520,162 523,162 527,160 531,160 534,160 538,160 542,157 545,155 549,153 553,150 556,147 560,144 564,142 568,141 571,139 575,137 579,135 582,132 586,131 590,129 593,128 597,127 601,125 604,124 608,122 612,120 615,118 619,113 623,110 626,109 630,107 634,105 637,103 641,102 645,101 649,100 652,99 656,97 660,93 663,81 667,73 671,67 674,60 678,58 682,56 685,56 689,55 693,54 696,53 700,52 704,52 707,52 711,51 715,51 718,51 722,51 726,50 730,50" fill="none" stroke="#111111" stroke-width="2.4" stroke-linejoin="round" stroke-linecap="round" filter="url(#pline)"/>
<circle cx="730" cy="50" r="4" fill="#111111" filter="url(#pencil)"/>
<text x="724" y="42" text-anchor="end" font-size="10" font-family="Georgia,serif" fill="#111111">1461K</text>
<text x="60" y="289" font-size="9" font-family="Georgia,serif" fill="#888888">기준: 2026-07-09 04:15</text>
</svg>