<svg xmlns="http://www.w3.org/2000/svg" width="760" height="295">
<defs><filter id="pencil" x="-5%" y="-5%" width="110%" height="110%"><feTurbulence type="fractalNoise" baseFrequency="0.9" numOctaves="4" seed="5" result="noise"/><feDisplacementMap in="SourceGraphic" in2="noise" scale="1.6" xChannelSelector="R" yChannelSelector="G"/></filter><filter id="pline" x="-2%" y="-30%" width="104%" height="160%"><feTurbulence type="fractalNoise" baseFrequency="0.015 0.9" numOctaves="3" seed="11" result="noise"/><feDisplacementMap in="SourceGraphic" in2="noise" scale="1.8" xChannelSelector="R" yChannelSelector="G"/></filter><filter id="rough" x="-5%" y="-5%" width="110%" height="110%"><feTurbulence type="turbulence" baseFrequency="0.05" numOctaves="2" seed="2" result="noise"/><feDisplacementMap in="SourceGraphic" in2="noise" scale="2" xChannelSelector="R" yChannelSelector="G"/></filter></defs>
<rect width="760" height="295" fill="#ffffff"/>
<text x="380" y="32" text-anchor="middle" font-size="14" font-weight="bold" font-family="Georgia,serif" fill="#111111" filter="url(#pencil)">Workload (6 months)</text>
<line x1="60" y1="250" x2="730" y2="250" stroke="#cccccc" stroke-width="0.7" stroke-dasharray="4,5" filter="url(#rough)"/>
<text x="54" y="254" text-anchor="end" font-size="10" font-family="Georgia,serif" fill="#333333">0</text>
<line x1="60" y1="201" x2="730" y2="201" stroke="#cccccc" stroke-width="0.7" stroke-dasharray="4,5" filter="url(#rough)"/>
<text x="54" y="205" text-anchor="end" font-size="10" font-family="Georgia,serif" fill="#333333">207K</text>
<line x1="60" y1="151" x2="730" y2="151" stroke="#cccccc" stroke-width="0.7" stroke-dasharray="4,5" filter="url(#rough)"/>
<text x="54" y="155" text-anchor="end" font-size="10" font-family="Georgia,serif" fill="#333333">415K</text>
<line x1="60" y1="101" x2="730" y2="101" stroke="#cccccc" stroke-width="0.7" stroke-dasharray="4,5" filter="url(#rough)"/>
<text x="54" y="105" text-anchor="end" font-size="10" font-family="Georgia,serif" fill="#333333">622K</text>
<line x1="60" y1="50" x2="730" y2="50" stroke="#cccccc" stroke-width="0.7" stroke-dasharray="4,5" filter="url(#rough)"/>
<text x="54" y="54" text-anchor="end" font-size="10" font-family="Georgia,serif" fill="#333333">830K</text>
<text x="78" y="270" text-anchor="middle" font-size="11" font-family="Georgia,serif" fill="#333333" filter="url(#pencil)">1월</text>
<text x="192" y="270" text-anchor="middle" font-size="11" font-family="Georgia,serif" fill="#333333" filter="url(#pencil)">2월</text>
<text x="295" y="270" text-anchor="middle" font-size="11" font-family="Georgia,serif" fill="#333333" filter="url(#pencil)">3월</text>
<text x="409" y="270" text-anchor="middle" font-size="11" font-family="Georgia,serif" fill="#333333" filter="url(#pencil)">4월</text>
<text x="520" y="270" text-anchor="middle" font-size="11" font-family="Georgia,serif" fill="#333333" filter="url(#pencil)">5월</text>
<text x="634" y="270" text-anchor="middle" font-size="11" font-family="Georgia,serif" fill="#333333" filter="url(#pencil)">6월</text>
<line x1="59" y1="42" x2="59" y2="256" stroke="#111111" stroke-width="2" filter="url(#pline)"/>
<line x1="52" y1="251" x2="738" y2="251" stroke="#111111" stroke-width="2" filter="url(#pline)"/>
<polygon points="60,250 60,250 63,250 67,250 71,250 74,250 78,250 82,250 85,250 89,250 93,250 96,250 100,250 104,250 107,250 111,250 115,250 118,250 122,250 126,250 129,250 133,250 137,250 140,247 144,247 148,247 152,247 155,247 159,246 163,244 166,243 170,242 174,235 177,235 181,235 185,233 188,226 192,225 196,224 199,224 203,224 207,223 210,215 214,215 218,214 221,214 225,214 229,214 233,214 236,214 240,214 244,214 247,214 251,214 255,214 258,214 262,213 266,213 269,213 273,213 277,213 280,213 284,211 288,210 291,209 295,204 299,203 302,203 306,203 310,203 314,203 317,203 321,203 325,203 328,203 332,203 336,203 339,202 343,202 347,202 350,199 354,198 358,198 361,194 365,193 369,193 372,193 376,184 380,184 383,184 387,178 391,170 395,164 398,164 402,163 406,163 409,163 413,162 417,162 420,162 424,162 428,162 431,162 435,162 439,162 442,162 446,162 450,162 453,159 457,159 461,159 464,159 468,156 472,155 475,152 479,152 483,152 487,150 490,150 494,149 498,148 501,146 505,146 509,146 512,146 516,146 520,146 523,146 527,146 531,146 534,146 538,145 542,145 545,145 549,145 553,145 556,145 560,144 564,144 568,144 571,143 575,143 579,142 582,142 586,139 590,136 593,133 597,130 601,126 604,123 608,121 612,118 615,116 619,114 623,111 626,109 630,106 634,105 637,103 641,102 645,100 649,99 652,96 656,94 660,93 663,87 667,84 671,82 674,81 678,79 682,78 685,77 689,76 693,75 696,74 700,73 704,70 707,62 711,58 715,54 718,52 722,51 726,51 730,50 730,250" fill="#e8e8e8" opacity="0.6"/>
<polyline points="60,250 63,250 67,250 71,250 74,250 78,250 82,250 85,250 89,250 93,250 96,250 100,250 104,250 107,250 111,250 115,250 118,250 122,250 126,250 129,250 133,250 137,250 140,247 144,247 148,247 152,247 155,247 159,246 163,244 166,243 170,242 174,235 177,235 181,235 185,233 188,226 192,225 196,224 199,224 203,224 207,223 210,215 214,215 218,214 221,214 225,214 229,214 233,214 236,214 240,214 244,214 247,214 251,214 255,214 258,214 262,213 266,213 269,213 273,213 277,213 280,213 284,211 288,210 291,209 295,204 299,203 302,203 306,203 310,203 314,203 317,203 321,203 325,203 328,203 332,203 336,203 339,202 343,202 347,202 350,199 354,198 358,198 361,194 365,193 369,193 372,193 376,184 380,184 383,184 387,178 391,170 395,164 398,164 402,163 406,163 409,163 413,162 417,162 420,162 424,162 428,162 431,162 435,162 439,162 442,162 446,162 450,162 453,159 457,159 461,159 464,159 468,156 472,155 475,152 479,152 483,152 487,150 490,150 494,149 498,148 501,146 505,146 509,146 512,146 516,146 520,146 523,146 527,146 531,146 534,146 538,145 542,145 545,145 549,145 553,145 556,145 560,144 564,144 568,144 571,143 575,143 579,142 582,142 586,139 590,136 593,133 597,130 601,126 604,123 608,121 612,118 615,116 619,114 623,111 626,109 630,106 634,105 637,103 641,102 645,100 649,99 652,96 656,94 660,93 663,87 667,84 671,82 674,81 678,79 682,78 685,77 689,76 693,75 696,74 700,73 704,70 707,62 711,58 715,54 718,52 722,51 726,51 730,50" fill="none" stroke="#111111" stroke-width="2.4" stroke-linejoin="round" stroke-linecap="round" filter="url(#pline)"/>
<circle cx="730" cy="50" r="4" fill="#111111" filter="url(#pencil)"/>
<text x="724" y="42" text-anchor="end" font-size="10" font-family="Georgia,serif" fill="#111111">830K</text>
<text x="60" y="289" font-size="9" font-family="Georgia,serif" fill="#888888">기준: 2026-06-27 22:18</text>
</svg>