<svg xmlns="http://www.w3.org/2000/svg" width="760" height="295">
<defs><filter id="pencil" x="-5%" y="-5%" width="110%" height="110%"><feTurbulence type="fractalNoise" baseFrequency="0.9" numOctaves="4" seed="5" result="noise"/><feDisplacementMap in="SourceGraphic" in2="noise" scale="1.6" xChannelSelector="R" yChannelSelector="G"/></filter><filter id="pline" x="-2%" y="-30%" width="104%" height="160%"><feTurbulence type="fractalNoise" baseFrequency="0.015 0.9" numOctaves="3" seed="11" result="noise"/><feDisplacementMap in="SourceGraphic" in2="noise" scale="1.8" xChannelSelector="R" yChannelSelector="G"/></filter><filter id="rough" x="-5%" y="-5%" width="110%" height="110%"><feTurbulence type="turbulence" baseFrequency="0.05" numOctaves="2" seed="2" result="noise"/><feDisplacementMap in="SourceGraphic" in2="noise" scale="2" xChannelSelector="R" yChannelSelector="G"/></filter></defs>
<rect width="760" height="295" fill="#ffffff"/>
<text x="380" y="32" text-anchor="middle" font-size="14" font-weight="bold" font-family="Georgia,serif" fill="#111111" filter="url(#pencil)">Workload (6 months)</text>
<line x1="60" y1="250" x2="730" y2="250" stroke="#cccccc" stroke-width="0.7" stroke-dasharray="4,5" filter="url(#rough)"/>
<text x="54" y="254" text-anchor="end" font-size="10" font-family="Georgia,serif" fill="#333333">0</text>
<line x1="60" y1="201" x2="730" y2="201" stroke="#cccccc" stroke-width="0.7" stroke-dasharray="4,5" filter="url(#rough)"/>
<text x="54" y="205" text-anchor="end" font-size="10" font-family="Georgia,serif" fill="#333333">474K</text>
<line x1="60" y1="151" x2="730" y2="151" stroke="#cccccc" stroke-width="0.7" stroke-dasharray="4,5" filter="url(#rough)"/>
<text x="54" y="155" text-anchor="end" font-size="10" font-family="Georgia,serif" fill="#333333">948K</text>
<line x1="60" y1="101" x2="730" y2="101" stroke="#cccccc" stroke-width="0.7" stroke-dasharray="4,5" filter="url(#rough)"/>
<text x="54" y="105" text-anchor="end" font-size="10" font-family="Georgia,serif" fill="#333333">1422K</text>
<line x1="60" y1="50" x2="730" y2="50" stroke="#cccccc" stroke-width="0.7" stroke-dasharray="4,5" filter="url(#rough)"/>
<text x="54" y="54" text-anchor="end" font-size="10" font-family="Georgia,serif" fill="#333333">1896K</text>
<text x="133" y="270" text-anchor="middle" font-size="11" font-family="Georgia,serif" fill="#333333" filter="url(#pencil)">2월</text>
<text x="236" y="270" text-anchor="middle" font-size="11" font-family="Georgia,serif" fill="#333333" filter="url(#pencil)">3월</text>
<text x="350" y="270" text-anchor="middle" font-size="11" font-family="Georgia,serif" fill="#333333" filter="url(#pencil)">4월</text>
<text x="461" y="270" text-anchor="middle" font-size="11" font-family="Georgia,serif" fill="#333333" filter="url(#pencil)">5월</text>
<text x="575" y="270" text-anchor="middle" font-size="11" font-family="Georgia,serif" fill="#333333" filter="url(#pencil)">6월</text>
<text x="685" y="270" text-anchor="middle" font-size="11" font-family="Georgia,serif" fill="#333333" filter="url(#pencil)">7월</text>
<line x1="59" y1="42" x2="59" y2="256" stroke="#111111" stroke-width="2" filter="url(#pline)"/>
<line x1="52" y1="251" x2="738" y2="251" stroke="#111111" stroke-width="2" filter="url(#pline)"/>
<polygon points="60,250 60,250 63,250 67,250 71,250 74,250 78,250 82,248 85,248 89,248 93,248 96,248 100,247 104,246 107,245 111,245 115,241 118,240 122,240 126,239 129,235 133,234 137,233 140,233 144,233 148,232 152,227 155,227 159,226 163,226 166,226 170,226 174,226 177,226 181,226 185,226 188,226 192,226 196,226 199,226 203,225 207,225 210,225 214,225 218,224 221,224 225,223 229,222 233,221 236,218 240,217 244,217 247,217 251,217 255,217 258,217 262,217 266,217 269,217 273,216 277,216 280,216 284,216 288,216 291,214 295,213 299,213 302,211 306,210 310,210 314,210 317,204 321,204 325,204 328,200 332,196 336,192 339,192 343,191 347,191 350,191 354,190 358,190 361,190 365,190 369,190 372,190 376,190 380,190 383,189 387,189 391,189 395,184 398,184 402,184 406,184 409,183 413,182 417,178 420,178 424,178 428,175 431,175 435,175 439,174 442,172 446,171 450,171 453,171 457,171 461,171 464,171 468,170 472,170 475,170 479,169 483,169 487,169 490,169 494,169 498,169 501,169 505,169 509,169 512,167 516,166 520,166 523,165 527,163 531,161 534,160 538,156 542,154 545,152 549,149 553,147 556,145 560,143 564,141 568,138 571,136 575,135 579,133 582,132 586,131 590,130 593,128 597,126 601,125 604,120 608,116 612,115 615,114 619,112 623,110 626,109 630,108 634,107 637,106 641,104 645,99 649,87 652,79 656,73 660,66 663,64 667,62 671,61 674,60 678,58 682,57 685,56 689,55 693,54 696,54 700,53 704,53 707,52 711,52 715,52 718,51 722,51 726,51 730,50 730,250" fill="#e8e8e8" opacity="0.6"/>
<polyline points="60,250 63,250 67,250 71,250 74,250 78,250 82,248 85,248 89,248 93,248 96,248 100,247 104,246 107,245 111,245 115,241 118,240 122,240 126,239 129,235 133,234 137,233 140,233 144,233 148,232 152,227 155,227 159,226 163,226 166,226 170,226 174,226 177,226 181,226 185,226 188,226 192,226 196,226 199,226 203,225 207,225 210,225 214,225 218,224 221,224 225,223 229,222 233,221 236,218 240,217 244,217 247,217 251,217 255,217 258,217 262,217 266,217 269,217 273,216 277,216 280,216 284,216 288,216 291,214 295,213 299,213 302,211 306,210 310,210 314,210 317,204 321,204 325,204 328,200 332,196 336,192 339,192 343,191 347,191 350,191 354,190 358,190 361,190 365,190 369,190 372,190 376,190 380,190 383,189 387,189 391,189 395,184 398,184 402,184 406,184 409,183 413,182 417,178 420,178 424,178 428,175 431,175 435,175 439,174 442,172 446,171 450,171 453,171 457,171 461,171 464,171 468,170 472,170 475,170 479,169 483,169 487,169 490,169 494,169 498,169 501,169 505,169 509,169 512,167 516,166 520,166 523,165 527,163 531,161 534,160 538,156 542,154 545,152 549,149 553,147 556,145 560,143 564,141 568,138 571,136 575,135 579,133 582,132 586,131 590,130 593,128 597,126 601,125 604,120 608,116 612,115 615,114 619,112 623,110 626,109 630,108 634,107 637,106 641,104 645,99 649,87 652,79 656,73 660,66 663,64 667,62 671,61 674,60 678,58 682,57 685,56 689,55 693,54 696,54 700,53 704,53 707,52 711,52 715,52 718,51 722,51 726,51 730,50" fill="none" stroke="#111111" stroke-width="2.4" stroke-linejoin="round" stroke-linecap="round" filter="url(#pline)"/>
<circle cx="730" cy="50" r="4" fill="#111111" filter="url(#pencil)"/>
<text x="724" y="42" text-anchor="end" font-size="10" font-family="Georgia,serif" fill="#111111">1896K</text>
<text x="60" y="289" font-size="9" font-family="Georgia,serif" fill="#888888">기준: 2026-07-13 15:13</text>
</svg>