<svg xmlns="http://www.w3.org/2000/svg" width="760" height="295">
<defs><filter id="pencil" x="-5%" y="-5%" width="110%" height="110%"><feTurbulence type="fractalNoise" baseFrequency="0.9" numOctaves="4" seed="5" result="noise"/><feDisplacementMap in="SourceGraphic" in2="noise" scale="1.6" xChannelSelector="R" yChannelSelector="G"/></filter><filter id="pline" x="-2%" y="-30%" width="104%" height="160%"><feTurbulence type="fractalNoise" baseFrequency="0.015 0.9" numOctaves="3" seed="11" result="noise"/><feDisplacementMap in="SourceGraphic" in2="noise" scale="1.8" xChannelSelector="R" yChannelSelector="G"/></filter><filter id="rough" x="-5%" y="-5%" width="110%" height="110%"><feTurbulence type="turbulence" baseFrequency="0.05" numOctaves="2" seed="2" result="noise"/><feDisplacementMap in="SourceGraphic" in2="noise" scale="2" xChannelSelector="R" yChannelSelector="G"/></filter></defs>
<rect width="760" height="295" fill="#ffffff"/>
<text x="380" y="32" text-anchor="middle" font-size="14" font-weight="bold" font-family="Georgia,serif" fill="#111111" filter="url(#pencil)">Workload (6 months)</text>
<line x1="60" y1="250" x2="730" y2="250" stroke="#cccccc" stroke-width="0.7" stroke-dasharray="4,5" filter="url(#rough)"/>
<text x="54" y="254" text-anchor="end" font-size="10" font-family="Georgia,serif" fill="#333333">0</text>
<line x1="60" y1="201" x2="730" y2="201" stroke="#cccccc" stroke-width="0.7" stroke-dasharray="4,5" filter="url(#rough)"/>
<text x="54" y="205" text-anchor="end" font-size="10" font-family="Georgia,serif" fill="#333333">110K</text>
<line x1="60" y1="151" x2="730" y2="151" stroke="#cccccc" stroke-width="0.7" stroke-dasharray="4,5" filter="url(#rough)"/>
<text x="54" y="155" text-anchor="end" font-size="10" font-family="Georgia,serif" fill="#333333">220K</text>
<line x1="60" y1="101" x2="730" y2="101" stroke="#cccccc" stroke-width="0.7" stroke-dasharray="4,5" filter="url(#rough)"/>
<text x="54" y="105" text-anchor="end" font-size="10" font-family="Georgia,serif" fill="#333333">331K</text>
<line x1="60" y1="50" x2="730" y2="50" stroke="#cccccc" stroke-width="0.7" stroke-dasharray="4,5" filter="url(#rough)"/>
<text x="54" y="54" text-anchor="end" font-size="10" font-family="Georgia,serif" fill="#333333">441K</text>
<text x="126" y="270" text-anchor="middle" font-size="11" font-family="Georgia,serif" fill="#333333" filter="url(#pencil)">1월</text>
<text x="240" y="270" text-anchor="middle" font-size="11" font-family="Georgia,serif" fill="#333333" filter="url(#pencil)">2월</text>
<text x="343" y="270" text-anchor="middle" font-size="11" font-family="Georgia,serif" fill="#333333" filter="url(#pencil)">3월</text>
<text x="457" y="270" text-anchor="middle" font-size="11" font-family="Georgia,serif" fill="#333333" filter="url(#pencil)">4월</text>
<text x="568" y="270" text-anchor="middle" font-size="11" font-family="Georgia,serif" fill="#333333" filter="url(#pencil)">5월</text>
<text x="682" y="270" text-anchor="middle" font-size="11" font-family="Georgia,serif" fill="#333333" filter="url(#pencil)">6월</text>
<line x1="59" y1="42" x2="59" y2="256" stroke="#111111" stroke-width="2" filter="url(#pline)"/>
<line x1="52" y1="251" x2="738" y2="251" stroke="#111111" stroke-width="2" filter="url(#pline)"/>
<polygon points="60,250 60,250 63,250 67,250 71,250 74,250 78,229 82,229 85,229 89,229 93,229 96,224 100,224 104,224 107,224 111,224 115,224 118,224 122,224 126,224 129,224 133,224 137,224 140,224 144,224 148,224 152,224 155,224 159,224 163,224 166,224 170,224 174,224 177,224 181,224 185,224 188,219 192,219 196,219 199,219 203,219 207,218 210,216 214,215 218,213 221,204 225,204 229,204 233,202 236,193 240,191 244,190 247,190 251,190 255,189 258,179 262,179 266,178 269,178 273,178 277,178 280,178 284,178 288,178 291,178 295,178 299,178 302,178 306,178 310,176 314,176 317,176 321,176 325,176 328,176 332,174 336,172 339,171 343,165 347,163 350,163 354,163 358,163 361,163 365,163 369,163 372,163 376,163 380,163 383,163 387,162 391,162 395,162 398,158 402,157 406,157 409,152 413,152 417,152 420,152 424,140 428,140 431,140 435,132 439,122 442,115 446,114 450,113 453,113 457,113 461,113 464,113 468,113 472,113 475,113 479,113 483,113 487,113 490,112 494,112 498,112 501,112 505,112 509,112 512,112 516,110 520,108 523,108 527,108 531,108 534,108 538,108 542,108 545,108 549,108 553,108 556,108 560,108 564,108 568,108 571,108 575,108 579,108 582,108 586,107 590,107 593,107 597,107 601,107 604,107 608,106 612,106 615,106 619,106 623,106 626,105 630,105 634,101 637,98 641,95 645,91 649,87 652,83 656,81 660,78 663,76 667,74 671,72 674,69 678,67 682,65 685,64 689,63 693,61 696,60 700,59 704,57 707,56 711,53 715,52 718,51 722,51 726,51 730,50 730,250" fill="#e8e8e8" opacity="0.6"/>
<polyline points="60,250 63,250 67,250 71,250 74,250 78,229 82,229 85,229 89,229 93,229 96,224 100,224 104,224 107,224 111,224 115,224 118,224 122,224 126,224 129,224 133,224 137,224 140,224 144,224 148,224 152,224 155,224 159,224 163,224 166,224 170,224 174,224 177,224 181,224 185,224 188,219 192,219 196,219 199,219 203,219 207,218 210,216 214,215 218,213 221,204 225,204 229,204 233,202 236,193 240,191 244,190 247,190 251,190 255,189 258,179 262,179 266,178 269,178 273,178 277,178 280,178 284,178 288,178 291,178 295,178 299,178 302,178 306,178 310,176 314,176 317,176 321,176 325,176 328,176 332,174 336,172 339,171 343,165 347,163 350,163 354,163 358,163 361,163 365,163 369,163 372,163 376,163 380,163 383,163 387,162 391,162 395,162 398,158 402,157 406,157 409,152 413,152 417,152 420,152 424,140 428,140 431,140 435,132 439,122 442,115 446,114 450,113 453,113 457,113 461,113 464,113 468,113 472,113 475,113 479,113 483,113 487,113 490,112 494,112 498,112 501,112 505,112 509,112 512,112 516,110 520,108 523,108 527,108 531,108 534,108 538,108 542,108 545,108 549,108 553,108 556,108 560,108 564,108 568,108 571,108 575,108 579,108 582,108 586,107 590,107 593,107 597,107 601,107 604,107 608,106 612,106 615,106 619,106 623,106 626,105 630,105 634,101 637,98 641,95 645,91 649,87 652,83 656,81 660,78 663,76 667,74 671,72 674,69 678,67 682,65 685,64 689,63 693,61 696,60 700,59 704,57 707,56 711,53 715,52 718,51 722,51 726,51 730,50" fill="none" stroke="#111111" stroke-width="2.4" stroke-linejoin="round" stroke-linecap="round" filter="url(#pline)"/>
<circle cx="730" cy="50" r="4" fill="#111111" filter="url(#pencil)"/>
<text x="724" y="42" text-anchor="end" font-size="10" font-family="Georgia,serif" fill="#111111">441K</text>
<text x="60" y="289" font-size="9" font-family="Georgia,serif" fill="#888888">기준: 2026-06-14 16:47</text>
</svg>