<svg xmlns="http://www.w3.org/2000/svg" width="760" height="295">
<defs><filter id="pencil" x="-5%" y="-5%" width="110%" height="110%"><feTurbulence type="fractalNoise" baseFrequency="0.9" numOctaves="4" seed="5" result="noise"/><feDisplacementMap in="SourceGraphic" in2="noise" scale="1.6" xChannelSelector="R" yChannelSelector="G"/></filter><filter id="pline" x="-2%" y="-30%" width="104%" height="160%"><feTurbulence type="fractalNoise" baseFrequency="0.015 0.9" numOctaves="3" seed="11" result="noise"/><feDisplacementMap in="SourceGraphic" in2="noise" scale="1.8" xChannelSelector="R" yChannelSelector="G"/></filter><filter id="rough" x="-5%" y="-5%" width="110%" height="110%"><feTurbulence type="turbulence" baseFrequency="0.05" numOctaves="2" seed="2" result="noise"/><feDisplacementMap in="SourceGraphic" in2="noise" scale="2" xChannelSelector="R" yChannelSelector="G"/></filter></defs>
<rect width="760" height="295" fill="#ffffff"/>
<text x="380" y="32" text-anchor="middle" font-size="14" font-weight="bold" font-family="Georgia,serif" fill="#111111" filter="url(#pencil)">Workload (6 months)</text>
<line x1="60" y1="250" x2="730" y2="250" stroke="#cccccc" stroke-width="0.7" stroke-dasharray="4,5" filter="url(#rough)"/>
<text x="54" y="254" text-anchor="end" font-size="10" font-family="Georgia,serif" fill="#333333">0</text>
<line x1="60" y1="201" x2="730" y2="201" stroke="#cccccc" stroke-width="0.7" stroke-dasharray="4,5" filter="url(#rough)"/>
<text x="54" y="205" text-anchor="end" font-size="10" font-family="Georgia,serif" fill="#333333">315K</text>
<line x1="60" y1="151" x2="730" y2="151" stroke="#cccccc" stroke-width="0.7" stroke-dasharray="4,5" filter="url(#rough)"/>
<text x="54" y="155" text-anchor="end" font-size="10" font-family="Georgia,serif" fill="#333333">631K</text>
<line x1="60" y1="101" x2="730" y2="101" stroke="#cccccc" stroke-width="0.7" stroke-dasharray="4,5" filter="url(#rough)"/>
<text x="54" y="105" text-anchor="end" font-size="10" font-family="Georgia,serif" fill="#333333">947K</text>
<line x1="60" y1="50" x2="730" y2="50" stroke="#cccccc" stroke-width="0.7" stroke-dasharray="4,5" filter="url(#rough)"/>
<text x="54" y="54" text-anchor="end" font-size="10" font-family="Georgia,serif" fill="#333333">1263K</text>
<text x="163" y="270" text-anchor="middle" font-size="11" font-family="Georgia,serif" fill="#333333" filter="url(#pencil)">2월</text>
<text x="266" y="270" text-anchor="middle" font-size="11" font-family="Georgia,serif" fill="#333333" filter="url(#pencil)">3월</text>
<text x="380" y="270" text-anchor="middle" font-size="11" font-family="Georgia,serif" fill="#333333" filter="url(#pencil)">4월</text>
<text x="490" y="270" text-anchor="middle" font-size="11" font-family="Georgia,serif" fill="#333333" filter="url(#pencil)">5월</text>
<text x="604" y="270" text-anchor="middle" font-size="11" font-family="Georgia,serif" fill="#333333" filter="url(#pencil)">6월</text>
<text x="715" y="270" text-anchor="middle" font-size="11" font-family="Georgia,serif" fill="#333333" filter="url(#pencil)">7월</text>
<line x1="59" y1="42" x2="59" y2="256" stroke="#111111" stroke-width="2" filter="url(#pline)"/>
<line x1="52" y1="251" x2="738" y2="251" stroke="#111111" stroke-width="2" filter="url(#pline)"/>
<polygon points="60,250 60,250 63,250 67,250 71,250 74,250 78,250 82,250 85,250 89,250 93,250 96,250 100,250 104,250 107,250 111,248 115,248 118,248 122,248 126,248 129,247 133,245 137,245 140,244 144,238 148,238 152,238 155,237 159,231 163,230 166,229 170,229 174,229 177,229 181,222 185,222 188,222 192,222 196,222 199,222 203,222 207,222 210,222 214,222 218,222 221,222 225,222 229,222 233,220 236,220 240,220 244,220 247,220 251,220 255,219 258,218 262,217 266,214 269,212 273,212 277,212 280,212 284,212 288,212 291,212 295,212 299,212 302,212 306,212 310,211 314,211 317,211 321,209 325,208 328,208 332,205 336,205 339,205 343,205 347,197 350,197 354,197 358,192 361,186 365,182 369,181 372,181 376,181 380,181 383,180 387,180 391,180 395,180 398,180 402,180 406,180 409,180 413,179 417,179 420,179 424,175 428,175 431,175 435,175 439,173 442,172 446,167 450,167 453,167 457,165 461,165 464,164 468,163 472,160 475,160 479,160 483,160 487,160 490,160 494,160 498,160 501,160 505,160 509,159 512,159 516,159 520,159 523,158 527,158 531,158 534,158 538,158 542,156 545,156 549,156 553,156 556,153 560,151 564,149 568,145 571,142 575,139 579,138 582,135 586,133 590,132 593,129 597,127 601,125 604,124 608,122 612,121 615,120 619,118 623,116 626,114 630,113 634,107 637,104 641,103 645,101 649,99 652,97 656,96 660,96 663,94 667,93 671,92 674,88 678,76 682,69 685,63 689,57 693,55 696,54 700,54 704,53 707,52 711,51 715,51 718,51 722,51 726,51 730,50 730,250" fill="#e8e8e8" opacity="0.6"/>
<polyline points="60,250 63,250 67,250 71,250 74,250 78,250 82,250 85,250 89,250 93,250 96,250 100,250 104,250 107,250 111,248 115,248 118,248 122,248 126,248 129,247 133,245 137,245 140,244 144,238 148,238 152,238 155,237 159,231 163,230 166,229 170,229 174,229 177,229 181,222 185,222 188,222 192,222 196,222 199,222 203,222 207,222 210,222 214,222 218,222 221,222 225,222 229,222 233,220 236,220 240,220 244,220 247,220 251,220 255,219 258,218 262,217 266,214 269,212 273,212 277,212 280,212 284,212 288,212 291,212 295,212 299,212 302,212 306,212 310,211 314,211 317,211 321,209 325,208 328,208 332,205 336,205 339,205 343,205 347,197 350,197 354,197 358,192 361,186 365,182 369,181 372,181 376,181 380,181 383,180 387,180 391,180 395,180 398,180 402,180 406,180 409,180 413,179 417,179 420,179 424,175 428,175 431,175 435,175 439,173 442,172 446,167 450,167 453,167 457,165 461,165 464,164 468,163 472,160 475,160 479,160 483,160 487,160 490,160 494,160 498,160 501,160 505,160 509,159 512,159 516,159 520,159 523,158 527,158 531,158 534,158 538,158 542,156 545,156 549,156 553,156 556,153 560,151 564,149 568,145 571,142 575,139 579,138 582,135 586,133 590,132 593,129 597,127 601,125 604,124 608,122 612,121 615,120 619,118 623,116 626,114 630,113 634,107 637,104 641,103 645,101 649,99 652,97 656,96 660,96 663,94 667,93 671,92 674,88 678,76 682,69 685,63 689,57 693,55 696,54 700,54 704,53 707,52 711,51 715,51 718,51 722,51 726,51 730,50" fill="none" stroke="#111111" stroke-width="2.4" stroke-linejoin="round" stroke-linecap="round" filter="url(#pline)"/>
<circle cx="730" cy="50" r="4" fill="#111111" filter="url(#pencil)"/>
<text x="724" y="42" text-anchor="end" font-size="10" font-family="Georgia,serif" fill="#111111">1263K</text>
<text x="60" y="289" font-size="9" font-family="Georgia,serif" fill="#888888">기준: 2026-07-05 16:28</text>
</svg>