<svg xmlns="http://www.w3.org/2000/svg" width="760" height="295">
<defs><filter id="pencil" x="-5%" y="-5%" width="110%" height="110%"><feTurbulence type="fractalNoise" baseFrequency="0.9" numOctaves="4" seed="5" result="noise"/><feDisplacementMap in="SourceGraphic" in2="noise" scale="1.6" xChannelSelector="R" yChannelSelector="G"/></filter><filter id="pline" x="-2%" y="-30%" width="104%" height="160%"><feTurbulence type="fractalNoise" baseFrequency="0.015 0.9" numOctaves="3" seed="11" result="noise"/><feDisplacementMap in="SourceGraphic" in2="noise" scale="1.8" xChannelSelector="R" yChannelSelector="G"/></filter><filter id="rough" x="-5%" y="-5%" width="110%" height="110%"><feTurbulence type="turbulence" baseFrequency="0.05" numOctaves="2" seed="2" result="noise"/><feDisplacementMap in="SourceGraphic" in2="noise" scale="2" xChannelSelector="R" yChannelSelector="G"/></filter></defs>
<rect width="760" height="295" fill="#ffffff"/>
<text x="380" y="32" text-anchor="middle" font-size="14" font-weight="bold" font-family="Georgia,serif" fill="#111111" filter="url(#pencil)">Workload (6 months)</text>
<line x1="60" y1="250" x2="730" y2="250" stroke="#cccccc" stroke-width="0.7" stroke-dasharray="4,5" filter="url(#rough)"/>
<text x="54" y="254" text-anchor="end" font-size="10" font-family="Georgia,serif" fill="#333333">0</text>
<line x1="60" y1="200" x2="730" y2="200" stroke="#cccccc" stroke-width="0.7" stroke-dasharray="4,5" filter="url(#rough)"/>
<text x="54" y="204" text-anchor="end" font-size="10" font-family="Georgia,serif" fill="#333333">521K</text>
<line x1="60" y1="150" x2="730" y2="150" stroke="#cccccc" stroke-width="0.7" stroke-dasharray="4,5" filter="url(#rough)"/>
<text x="54" y="154" text-anchor="end" font-size="10" font-family="Georgia,serif" fill="#333333">1042K</text>
<line x1="60" y1="100" x2="730" y2="100" stroke="#cccccc" stroke-width="0.7" stroke-dasharray="4,5" filter="url(#rough)"/>
<text x="54" y="104" text-anchor="end" font-size="10" font-family="Georgia,serif" fill="#333333">1563K</text>
<line x1="60" y1="50" x2="730" y2="50" stroke="#cccccc" stroke-width="0.7" stroke-dasharray="4,5" filter="url(#rough)"/>
<text x="54" y="54" text-anchor="end" font-size="10" font-family="Georgia,serif" fill="#333333">2084K</text>
<text x="129" y="270" text-anchor="middle" font-size="11" font-family="Georgia,serif" fill="#333333" filter="url(#pencil)">2월</text>
<text x="233" y="270" text-anchor="middle" font-size="11" font-family="Georgia,serif" fill="#333333" filter="url(#pencil)">3월</text>
<text x="347" y="270" text-anchor="middle" font-size="11" font-family="Georgia,serif" fill="#333333" filter="url(#pencil)">4월</text>
<text x="457" y="270" text-anchor="middle" font-size="11" font-family="Georgia,serif" fill="#333333" filter="url(#pencil)">5월</text>
<text x="571" y="270" text-anchor="middle" font-size="11" font-family="Georgia,serif" fill="#333333" filter="url(#pencil)">6월</text>
<text x="682" y="270" text-anchor="middle" font-size="11" font-family="Georgia,serif" fill="#333333" filter="url(#pencil)">7월</text>
<line x1="59" y1="42" x2="59" y2="256" stroke="#111111" stroke-width="2" filter="url(#pline)"/>
<line x1="52" y1="251" x2="738" y2="251" stroke="#111111" stroke-width="2" filter="url(#pline)"/>
<polygon points="60,250 60,250 63,250 67,250 71,250 74,250 78,248 82,248 85,248 89,248 93,248 96,247 100,246 104,245 107,245 111,241 115,241 118,241 122,240 126,235 129,234 133,233 137,233 140,233 144,233 148,228 152,228 155,227 159,227 163,227 166,227 170,227 174,227 177,227 181,227 185,227 188,227 192,227 196,227 199,226 203,226 207,225 210,225 214,225 218,225 221,224 225,223 229,221 233,219 236,218 240,218 244,218 247,218 251,218 255,217 258,217 262,217 266,217 269,217 273,217 277,216 280,216 284,216 288,214 291,214 295,214 299,211 302,211 306,211 310,211 314,205 317,205 321,205 325,202 328,197 332,194 336,193 339,193 343,193 347,193 350,192 354,192 358,192 361,192 365,192 369,192 372,192 376,192 380,191 383,191 387,191 391,186 395,186 398,186 402,186 406,184 409,184 413,180 417,180 420,179 424,177 428,177 431,177 435,176 439,174 442,173 446,173 450,173 453,173 457,173 461,173 464,172 468,172 472,172 475,171 479,171 483,171 487,171 490,171 494,171 498,171 501,171 505,171 509,168 512,168 516,168 520,167 523,165 527,163 531,162 534,158 538,156 542,154 545,151 549,149 553,147 556,145 560,143 564,140 568,138 571,136 575,135 579,134 582,133 586,132 590,130 593,128 597,127 601,122 604,119 608,117 612,116 615,114 619,112 623,111 626,110 630,109 634,108 637,106 641,102 645,89 649,82 652,75 656,68 660,66 663,64 667,63 671,62 674,60 678,59 682,57 685,56 689,56 693,55 696,54 700,54 704,53 707,53 711,52 715,52 718,51 722,51 726,51 730,50 730,250" fill="#e8e8e8" opacity="0.6"/>
<polyline points="60,250 63,250 67,250 71,250 74,250 78,248 82,248 85,248 89,248 93,248 96,247 100,246 104,245 107,245 111,241 115,241 118,241 122,240 126,235 129,234 133,233 137,233 140,233 144,233 148,228 152,228 155,227 159,227 163,227 166,227 170,227 174,227 177,227 181,227 185,227 188,227 192,227 196,227 199,226 203,226 207,225 210,225 214,225 218,225 221,224 225,223 229,221 233,219 236,218 240,218 244,218 247,218 251,218 255,217 258,217 262,217 266,217 269,217 273,217 277,216 280,216 284,216 288,214 291,214 295,214 299,211 302,211 306,211 310,211 314,205 317,205 321,205 325,202 328,197 332,194 336,193 339,193 343,193 347,193 350,192 354,192 358,192 361,192 365,192 369,192 372,192 376,192 380,191 383,191 387,191 391,186 395,186 398,186 402,186 406,184 409,184 413,180 417,180 420,179 424,177 428,177 431,177 435,176 439,174 442,173 446,173 450,173 453,173 457,173 461,173 464,172 468,172 472,172 475,171 479,171 483,171 487,171 490,171 494,171 498,171 501,171 505,171 509,168 512,168 516,168 520,167 523,165 527,163 531,162 534,158 538,156 542,154 545,151 549,149 553,147 556,145 560,143 564,140 568,138 571,136 575,135 579,134 582,133 586,132 590,130 593,128 597,127 601,122 604,119 608,117 612,116 615,114 619,112 623,111 626,110 630,109 634,108 637,106 641,102 645,89 649,82 652,75 656,68 660,66 663,64 667,63 671,62 674,60 678,59 682,57 685,56 689,56 693,55 696,54 700,54 704,53 707,53 711,52 715,52 718,51 722,51 726,51 730,50" fill="none" stroke="#111111" stroke-width="2.4" stroke-linejoin="round" stroke-linecap="round" filter="url(#pline)"/>
<circle cx="730" cy="50" r="4" fill="#111111" filter="url(#pencil)"/>
<text x="724" y="42" text-anchor="end" font-size="10" font-family="Georgia,serif" fill="#111111">2084K</text>
<text x="60" y="289" font-size="9" font-family="Georgia,serif" fill="#888888">기준: 2026-07-14 22:14</text>
</svg>