<svg xmlns="http://www.w3.org/2000/svg" width="760" height="295">
<defs><filter id="pencil" x="-5%" y="-5%" width="110%" height="110%"><feTurbulence type="fractalNoise" baseFrequency="0.9" numOctaves="4" seed="5" result="noise"/><feDisplacementMap in="SourceGraphic" in2="noise" scale="1.6" xChannelSelector="R" yChannelSelector="G"/></filter><filter id="pline" x="-2%" y="-30%" width="104%" height="160%"><feTurbulence type="fractalNoise" baseFrequency="0.015 0.9" numOctaves="3" seed="11" result="noise"/><feDisplacementMap in="SourceGraphic" in2="noise" scale="1.8" xChannelSelector="R" yChannelSelector="G"/></filter><filter id="rough" x="-5%" y="-5%" width="110%" height="110%"><feTurbulence type="turbulence" baseFrequency="0.05" numOctaves="2" seed="2" result="noise"/><feDisplacementMap in="SourceGraphic" in2="noise" scale="2" xChannelSelector="R" yChannelSelector="G"/></filter></defs>
<rect width="760" height="295" fill="#ffffff"/>
<text x="380" y="32" text-anchor="middle" font-size="14" font-weight="bold" font-family="Georgia,serif" fill="#111111" filter="url(#pencil)">Workload (6 months)</text>
<line x1="60" y1="250" x2="730" y2="250" stroke="#cccccc" stroke-width="0.7" stroke-dasharray="4,5" filter="url(#rough)"/>
<text x="54" y="254" text-anchor="end" font-size="10" font-family="Georgia,serif" fill="#333333">0</text>
<line x1="60" y1="201" x2="730" y2="201" stroke="#cccccc" stroke-width="0.7" stroke-dasharray="4,5" filter="url(#rough)"/>
<text x="54" y="205" text-anchor="end" font-size="10" font-family="Georgia,serif" fill="#333333">117K</text>
<line x1="60" y1="151" x2="730" y2="151" stroke="#cccccc" stroke-width="0.7" stroke-dasharray="4,5" filter="url(#rough)"/>
<text x="54" y="155" text-anchor="end" font-size="10" font-family="Georgia,serif" fill="#333333">234K</text>
<line x1="60" y1="101" x2="730" y2="101" stroke="#cccccc" stroke-width="0.7" stroke-dasharray="4,5" filter="url(#rough)"/>
<text x="54" y="105" text-anchor="end" font-size="10" font-family="Georgia,serif" fill="#333333">352K</text>
<line x1="60" y1="50" x2="730" y2="50" stroke="#cccccc" stroke-width="0.7" stroke-dasharray="4,5" filter="url(#rough)"/>
<text x="54" y="54" text-anchor="end" font-size="10" font-family="Georgia,serif" fill="#333333">469K</text>
<text x="133" y="270" text-anchor="middle" font-size="11" font-family="Georgia,serif" fill="#333333" filter="url(#pencil)">1월</text>
<text x="247" y="270" text-anchor="middle" font-size="11" font-family="Georgia,serif" fill="#333333" filter="url(#pencil)">2월</text>
<text x="350" y="270" text-anchor="middle" font-size="11" font-family="Georgia,serif" fill="#333333" filter="url(#pencil)">3월</text>
<text x="464" y="270" text-anchor="middle" font-size="11" font-family="Georgia,serif" fill="#333333" filter="url(#pencil)">4월</text>
<text x="575" y="270" text-anchor="middle" font-size="11" font-family="Georgia,serif" fill="#333333" filter="url(#pencil)">5월</text>
<text x="689" y="270" text-anchor="middle" font-size="11" font-family="Georgia,serif" fill="#333333" filter="url(#pencil)">6월</text>
<line x1="59" y1="42" x2="59" y2="256" stroke="#111111" stroke-width="2" filter="url(#pline)"/>
<line x1="52" y1="251" x2="738" y2="251" stroke="#111111" stroke-width="2" filter="url(#pline)"/>
<polygon points="60,250 60,219 63,219 67,219 71,219 74,219 78,219 82,219 85,200 89,200 93,200 96,200 100,200 104,196 107,196 111,196 115,196 118,196 122,196 126,196 129,196 133,196 137,196 140,196 144,196 148,196 152,196 155,196 159,196 163,196 166,196 170,196 174,196 177,196 181,196 185,196 188,196 192,196 196,192 199,192 203,192 207,192 210,192 214,191 218,189 221,188 225,187 229,179 233,179 236,179 240,177 244,169 247,168 251,167 255,167 258,167 262,166 266,157 269,157 273,156 277,156 280,156 284,156 288,156 291,156 295,156 299,156 302,156 306,156 310,156 314,156 317,155 321,155 325,155 328,155 332,155 336,155 339,153 343,151 347,150 350,145 354,144 358,144 361,143 365,143 369,143 372,143 376,143 380,143 383,143 387,143 391,143 395,142 398,142 402,142 406,139 409,138 413,138 417,134 420,133 424,133 428,133 431,123 435,123 439,123 442,116 446,108 450,102 453,101 457,100 461,100 464,100 468,100 472,100 475,100 479,100 483,100 487,100 490,100 494,100 498,99 501,99 505,99 509,99 512,99 516,99 520,99 523,97 527,96 531,96 534,96 538,96 542,96 545,96 549,96 553,96 556,96 560,96 564,96 568,96 571,96 575,96 579,96 582,95 586,95 590,95 593,94 597,94 601,94 604,94 608,94 612,94 615,94 619,94 623,94 626,94 630,94 634,93 637,93 641,90 645,87 649,84 652,81 656,78 660,75 663,72 667,70 671,68 674,66 678,65 682,62 685,61 689,60 693,59 696,58 700,57 704,56 707,55 711,54 715,53 718,51 722,51 726,51 730,50 730,250" fill="#e8e8e8" opacity="0.6"/>
<polyline points="60,219 63,219 67,219 71,219 74,219 78,219 82,219 85,200 89,200 93,200 96,200 100,200 104,196 107,196 111,196 115,196 118,196 122,196 126,196 129,196 133,196 137,196 140,196 144,196 148,196 152,196 155,196 159,196 163,196 166,196 170,196 174,196 177,196 181,196 185,196 188,196 192,196 196,192 199,192 203,192 207,192 210,192 214,191 218,189 221,188 225,187 229,179 233,179 236,179 240,177 244,169 247,168 251,167 255,167 258,167 262,166 266,157 269,157 273,156 277,156 280,156 284,156 288,156 291,156 295,156 299,156 302,156 306,156 310,156 314,156 317,155 321,155 325,155 328,155 332,155 336,155 339,153 343,151 347,150 350,145 354,144 358,144 361,143 365,143 369,143 372,143 376,143 380,143 383,143 387,143 391,143 395,142 398,142 402,142 406,139 409,138 413,138 417,134 420,133 424,133 428,133 431,123 435,123 439,123 442,116 446,108 450,102 453,101 457,100 461,100 464,100 468,100 472,100 475,100 479,100 483,100 487,100 490,100 494,100 498,99 501,99 505,99 509,99 512,99 516,99 520,99 523,97 527,96 531,96 534,96 538,96 542,96 545,96 549,96 553,96 556,96 560,96 564,96 568,96 571,96 575,96 579,96 582,95 586,95 590,95 593,94 597,94 601,94 604,94 608,94 612,94 615,94 619,94 623,94 626,94 630,94 634,93 637,93 641,90 645,87 649,84 652,81 656,78 660,75 663,72 667,70 671,68 674,66 678,65 682,62 685,61 689,60 693,59 696,58 700,57 704,56 707,55 711,54 715,53 718,51 722,51 726,51 730,50" fill="none" stroke="#111111" stroke-width="2.4" stroke-linejoin="round" stroke-linecap="round" filter="url(#pline)"/>
<circle cx="730" cy="50" r="4" fill="#111111" filter="url(#pencil)"/>
<text x="724" y="42" text-anchor="end" font-size="10" font-family="Georgia,serif" fill="#111111">469K</text>
<text x="60" y="289" font-size="9" font-family="Georgia,serif" fill="#888888">기준: 2026-06-12 20:28</text>
</svg>