<svg xmlns="http://www.w3.org/2000/svg" width="760" height="295">
<defs><filter id="pencil" x="-5%" y="-5%" width="110%" height="110%"><feTurbulence type="fractalNoise" baseFrequency="0.9" numOctaves="4" seed="5" result="noise"/><feDisplacementMap in="SourceGraphic" in2="noise" scale="1.6" xChannelSelector="R" yChannelSelector="G"/></filter><filter id="pline" x="-2%" y="-30%" width="104%" height="160%"><feTurbulence type="fractalNoise" baseFrequency="0.015 0.9" numOctaves="3" seed="11" result="noise"/><feDisplacementMap in="SourceGraphic" in2="noise" scale="1.8" xChannelSelector="R" yChannelSelector="G"/></filter><filter id="rough" x="-5%" y="-5%" width="110%" height="110%"><feTurbulence type="turbulence" baseFrequency="0.05" numOctaves="2" seed="2" result="noise"/><feDisplacementMap in="SourceGraphic" in2="noise" scale="2" xChannelSelector="R" yChannelSelector="G"/></filter></defs>
<rect width="760" height="295" fill="#ffffff"/>
<text x="380" y="32" text-anchor="middle" font-size="14" font-weight="bold" font-family="Georgia,serif" fill="#111111" filter="url(#pencil)">Workload (6 months)</text>
<line x1="60" y1="250" x2="730" y2="250" stroke="#cccccc" stroke-width="0.7" stroke-dasharray="4,5" filter="url(#rough)"/>
<text x="54" y="254" text-anchor="end" font-size="10" font-family="Georgia,serif" fill="#333333">0</text>
<line x1="60" y1="201" x2="730" y2="201" stroke="#cccccc" stroke-width="0.7" stroke-dasharray="4,5" filter="url(#rough)"/>
<text x="54" y="205" text-anchor="end" font-size="10" font-family="Georgia,serif" fill="#333333">99K</text>
<line x1="60" y1="151" x2="730" y2="151" stroke="#cccccc" stroke-width="0.7" stroke-dasharray="4,5" filter="url(#rough)"/>
<text x="54" y="155" text-anchor="end" font-size="10" font-family="Georgia,serif" fill="#333333">199K</text>
<line x1="60" y1="101" x2="730" y2="101" stroke="#cccccc" stroke-width="0.7" stroke-dasharray="4,5" filter="url(#rough)"/>
<text x="54" y="105" text-anchor="end" font-size="10" font-family="Georgia,serif" fill="#333333">299K</text>
<line x1="60" y1="50" x2="730" y2="50" stroke="#cccccc" stroke-width="0.7" stroke-dasharray="4,5" filter="url(#rough)"/>
<text x="54" y="54" text-anchor="end" font-size="10" font-family="Georgia,serif" fill="#333333">398K</text>
<text x="144" y="270" text-anchor="middle" font-size="11" font-family="Georgia,serif" fill="#333333" filter="url(#pencil)">1월</text>
<text x="258" y="270" text-anchor="middle" font-size="11" font-family="Georgia,serif" fill="#333333" filter="url(#pencil)">2월</text>
<text x="361" y="270" text-anchor="middle" font-size="11" font-family="Georgia,serif" fill="#333333" filter="url(#pencil)">3월</text>
<text x="475" y="270" text-anchor="middle" font-size="11" font-family="Georgia,serif" fill="#333333" filter="url(#pencil)">4월</text>
<text x="586" y="270" text-anchor="middle" font-size="11" font-family="Georgia,serif" fill="#333333" filter="url(#pencil)">5월</text>
<text x="700" y="270" text-anchor="middle" font-size="11" font-family="Georgia,serif" fill="#333333" filter="url(#pencil)">6월</text>
<line x1="59" y1="42" x2="59" y2="256" stroke="#111111" stroke-width="2" filter="url(#pline)"/>
<line x1="52" y1="251" x2="738" y2="251" stroke="#111111" stroke-width="2" filter="url(#pline)"/>
<polygon points="60,250 60,250 63,250 67,250 71,218 74,218 78,218 82,218 85,218 89,218 93,218 96,199 100,199 104,199 107,199 111,199 115,194 118,194 122,194 126,194 129,194 133,194 137,194 140,194 144,194 148,194 152,194 155,194 159,194 163,194 166,194 170,194 174,194 177,194 181,194 185,194 188,194 192,194 196,194 199,194 203,194 207,190 210,190 214,190 218,190 221,190 225,189 229,187 233,186 236,184 240,177 244,177 247,177 251,175 255,167 258,165 262,164 266,164 269,164 273,163 277,154 280,154 284,153 288,153 291,153 295,153 299,153 302,153 306,153 310,153 314,153 317,153 321,153 325,153 328,151 332,151 336,151 339,151 343,151 347,151 350,149 354,148 358,147 361,142 365,140 369,140 372,140 376,140 380,140 383,140 387,140 391,140 395,140 398,140 402,140 406,138 409,138 413,138 417,135 420,134 424,134 428,130 431,129 435,129 439,129 442,119 446,119 450,119 453,112 457,103 461,96 464,96 468,95 472,95 475,95 479,95 483,95 487,95 490,95 494,95 498,95 501,95 505,95 509,94 512,94 516,94 520,94 523,94 527,94 531,94 534,92 538,90 542,90 545,90 549,90 553,90 556,90 560,90 564,90 568,90 571,90 575,90 579,90 582,90 586,90 590,90 593,90 597,90 601,90 604,89 608,89 612,89 615,89 619,89 623,89 626,89 630,89 634,89 637,89 641,89 645,88 649,87 652,84 656,81 660,78 663,76 667,72 671,69 674,67 678,65 682,63 685,61 689,59 693,57 696,56 700,55 704,54 707,53 711,53 715,52 718,51 722,51 726,51 730,50 730,250" fill="#e8e8e8" opacity="0.6"/>
<polyline points="60,250 63,250 67,250 71,218 74,218 78,218 82,218 85,218 89,218 93,218 96,199 100,199 104,199 107,199 111,199 115,194 118,194 122,194 126,194 129,194 133,194 137,194 140,194 144,194 148,194 152,194 155,194 159,194 163,194 166,194 170,194 174,194 177,194 181,194 185,194 188,194 192,194 196,194 199,194 203,194 207,190 210,190 214,190 218,190 221,190 225,189 229,187 233,186 236,184 240,177 244,177 247,177 251,175 255,167 258,165 262,164 266,164 269,164 273,163 277,154 280,154 284,153 288,153 291,153 295,153 299,153 302,153 306,153 310,153 314,153 317,153 321,153 325,153 328,151 332,151 336,151 339,151 343,151 347,151 350,149 354,148 358,147 361,142 365,140 369,140 372,140 376,140 380,140 383,140 387,140 391,140 395,140 398,140 402,140 406,138 409,138 413,138 417,135 420,134 424,134 428,130 431,129 435,129 439,129 442,119 446,119 450,119 453,112 457,103 461,96 464,96 468,95 472,95 475,95 479,95 483,95 487,95 490,95 494,95 498,95 501,95 505,95 509,94 512,94 516,94 520,94 523,94 527,94 531,94 534,92 538,90 542,90 545,90 549,90 553,90 556,90 560,90 564,90 568,90 571,90 575,90 579,90 582,90 586,90 590,90 593,90 597,90 601,90 604,89 608,89 612,89 615,89 619,89 623,89 626,89 630,89 634,89 637,89 641,89 645,88 649,87 652,84 656,81 660,78 663,76 667,72 671,69 674,67 678,65 682,63 685,61 689,59 693,57 696,56 700,55 704,54 707,53 711,53 715,52 718,51 722,51 726,51 730,50" fill="none" stroke="#111111" stroke-width="2.4" stroke-linejoin="round" stroke-linecap="round" filter="url(#pline)"/>
<circle cx="730" cy="50" r="4" fill="#111111" filter="url(#pencil)"/>
<text x="724" y="42" text-anchor="end" font-size="10" font-family="Georgia,serif" fill="#111111">398K</text>
<text x="60" y="289" font-size="9" font-family="Georgia,serif" fill="#888888">기준: 2026-06-09 15:29</text>
</svg>