<svg xmlns="http://www.w3.org/2000/svg" width="760" height="295">
<defs><filter id="pencil" x="-5%" y="-5%" width="110%" height="110%"><feTurbulence type="fractalNoise" baseFrequency="0.9" numOctaves="4" seed="5" result="noise"/><feDisplacementMap in="SourceGraphic" in2="noise" scale="1.6" xChannelSelector="R" yChannelSelector="G"/></filter><filter id="pline" x="-2%" y="-30%" width="104%" height="160%"><feTurbulence type="fractalNoise" baseFrequency="0.015 0.9" numOctaves="3" seed="11" result="noise"/><feDisplacementMap in="SourceGraphic" in2="noise" scale="1.8" xChannelSelector="R" yChannelSelector="G"/></filter><filter id="rough" x="-5%" y="-5%" width="110%" height="110%"><feTurbulence type="turbulence" baseFrequency="0.05" numOctaves="2" seed="2" result="noise"/><feDisplacementMap in="SourceGraphic" in2="noise" scale="2" xChannelSelector="R" yChannelSelector="G"/></filter></defs>
<rect width="760" height="295" fill="#ffffff"/>
<text x="380" y="32" text-anchor="middle" font-size="14" font-weight="bold" font-family="Georgia,serif" fill="#111111" filter="url(#pencil)">Workload (6 months)</text>
<line x1="60" y1="250" x2="730" y2="250" stroke="#cccccc" stroke-width="0.7" stroke-dasharray="4,5" filter="url(#rough)"/>
<text x="54" y="254" text-anchor="end" font-size="10" font-family="Georgia,serif" fill="#333333">0</text>
<line x1="60" y1="200" x2="730" y2="200" stroke="#cccccc" stroke-width="0.7" stroke-dasharray="4,5" filter="url(#rough)"/>
<text x="54" y="204" text-anchor="end" font-size="10" font-family="Georgia,serif" fill="#333333">41K</text>
<line x1="60" y1="150" x2="730" y2="150" stroke="#cccccc" stroke-width="0.7" stroke-dasharray="4,5" filter="url(#rough)"/>
<text x="54" y="154" text-anchor="end" font-size="10" font-family="Georgia,serif" fill="#333333">83K</text>
<line x1="60" y1="100" x2="730" y2="100" stroke="#cccccc" stroke-width="0.7" stroke-dasharray="4,5" filter="url(#rough)"/>
<text x="54" y="104" text-anchor="end" font-size="10" font-family="Georgia,serif" fill="#333333">125K</text>
<line x1="60" y1="50" x2="730" y2="50" stroke="#cccccc" stroke-width="0.7" stroke-dasharray="4,5" filter="url(#rough)"/>
<text x="54" y="54" text-anchor="end" font-size="10" font-family="Georgia,serif" fill="#333333">167K</text>
<text x="78" y="270" text-anchor="middle" font-size="11" font-family="Georgia,serif" fill="#333333" filter="url(#pencil)">12월</text>
<text x="192" y="270" text-anchor="middle" font-size="11" font-family="Georgia,serif" fill="#333333" filter="url(#pencil)">1월</text>
<text x="306" y="270" text-anchor="middle" font-size="11" font-family="Georgia,serif" fill="#333333" filter="url(#pencil)">2월</text>
<text x="409" y="270" text-anchor="middle" font-size="11" font-family="Georgia,serif" fill="#333333" filter="url(#pencil)">3월</text>
<text x="523" y="270" text-anchor="middle" font-size="11" font-family="Georgia,serif" fill="#333333" filter="url(#pencil)">4월</text>
<text x="634" y="270" text-anchor="middle" font-size="11" font-family="Georgia,serif" fill="#333333" filter="url(#pencil)">5월</text>
<line x1="59" y1="42" x2="59" y2="256" stroke="#111111" stroke-width="2" filter="url(#pline)"/>
<line x1="52" y1="251" x2="738" y2="251" stroke="#111111" stroke-width="2" filter="url(#pline)"/>
<polygon points="60,250 60,249 63,249 67,249 71,249 74,249 78,249 82,248 85,248 89,248 93,248 96,243 100,243 104,226 107,226 111,226 115,226 118,194 122,194 126,194 129,194 133,194 137,194 140,194 144,175 148,175 152,175 155,175 159,175 163,170 166,170 170,170 174,170 177,170 181,170 185,170 188,170 192,170 196,170 199,170 203,170 207,170 210,170 214,170 218,170 221,170 225,170 229,170 233,170 236,170 240,170 244,170 247,170 251,170 255,166 258,166 262,166 266,166 269,166 273,166 277,163 280,162 284,161 288,153 291,153 295,153 299,151 302,143 306,141 310,140 314,140 317,140 321,140 325,131 328,130 332,130 336,130 339,130 343,130 347,130 350,130 354,130 358,130 361,130 365,130 369,130 372,130 376,128 380,128 383,128 387,128 391,128 395,128 398,126 402,124 406,123 409,119 413,117 417,117 420,117 424,117 428,117 431,117 435,117 439,117 442,117 446,117 450,117 453,116 457,116 461,116 464,112 468,111 472,111 475,107 479,106 483,106 487,106 490,96 494,96 498,96 501,89 505,81 509,74 512,73 516,73 520,72 523,72 527,72 531,72 534,72 538,72 542,72 545,72 549,72 553,72 556,72 560,72 564,72 568,72 571,72 575,72 579,72 582,69 586,68 590,68 593,68 597,68 601,68 604,68 608,68 612,68 615,68 619,68 623,68 626,68 630,68 634,68 637,68 641,68 645,68 649,68 652,66 656,66 660,66 663,66 667,66 671,66 674,66 678,66 682,66 685,66 689,66 693,65 696,65 700,62 704,59 707,57 711,55 715,53 718,52 722,51 726,51 730,50 730,250" fill="#e8e8e8" opacity="0.6"/>
<polyline points="60,249 63,249 67,249 71,249 74,249 78,249 82,248 85,248 89,248 93,248 96,243 100,243 104,226 107,226 111,226 115,226 118,194 122,194 126,194 129,194 133,194 137,194 140,194 144,175 148,175 152,175 155,175 159,175 163,170 166,170 170,170 174,170 177,170 181,170 185,170 188,170 192,170 196,170 199,170 203,170 207,170 210,170 214,170 218,170 221,170 225,170 229,170 233,170 236,170 240,170 244,170 247,170 251,170 255,166 258,166 262,166 266,166 269,166 273,166 277,163 280,162 284,161 288,153 291,153 295,153 299,151 302,143 306,141 310,140 314,140 317,140 321,140 325,131 328,130 332,130 336,130 339,130 343,130 347,130 350,130 354,130 358,130 361,130 365,130 369,130 372,130 376,128 380,128 383,128 387,128 391,128 395,128 398,126 402,124 406,123 409,119 413,117 417,117 420,117 424,117 428,117 431,117 435,117 439,117 442,117 446,117 450,117 453,116 457,116 461,116 464,112 468,111 472,111 475,107 479,106 483,106 487,106 490,96 494,96 498,96 501,89 505,81 509,74 512,73 516,73 520,72 523,72 527,72 531,72 534,72 538,72 542,72 545,72 549,72 553,72 556,72 560,72 564,72 568,72 571,72 575,72 579,72 582,69 586,68 590,68 593,68 597,68 601,68 604,68 608,68 612,68 615,68 619,68 623,68 626,68 630,68 634,68 637,68 641,68 645,68 649,68 652,66 656,66 660,66 663,66 667,66 671,66 674,66 678,66 682,66 685,66 689,66 693,65 696,65 700,62 704,59 707,57 711,55 715,53 718,52 722,51 726,51 730,50" fill="none" stroke="#111111" stroke-width="2.4" stroke-linejoin="round" stroke-linecap="round" filter="url(#pline)"/>
<circle cx="730" cy="50" r="4" fill="#111111" filter="url(#pencil)"/>
<text x="724" y="42" text-anchor="end" font-size="10" font-family="Georgia,serif" fill="#111111">167K</text>
<text x="60" y="289" font-size="9" font-family="Georgia,serif" fill="#888888">기준: 2026-05-27 16:13</text>
</svg>