<svg xmlns="http://www.w3.org/2000/svg" width="760" height="295">
<defs><filter id="pencil" x="-5%" y="-5%" width="110%" height="110%"><feTurbulence type="fractalNoise" baseFrequency="0.9" numOctaves="4" seed="5" result="noise"/><feDisplacementMap in="SourceGraphic" in2="noise" scale="1.6" xChannelSelector="R" yChannelSelector="G"/></filter><filter id="pline" x="-2%" y="-30%" width="104%" height="160%"><feTurbulence type="fractalNoise" baseFrequency="0.015 0.9" numOctaves="3" seed="11" result="noise"/><feDisplacementMap in="SourceGraphic" in2="noise" scale="1.8" xChannelSelector="R" yChannelSelector="G"/></filter><filter id="rough" x="-5%" y="-5%" width="110%" height="110%"><feTurbulence type="turbulence" baseFrequency="0.05" numOctaves="2" seed="2" result="noise"/><feDisplacementMap in="SourceGraphic" in2="noise" scale="2" xChannelSelector="R" yChannelSelector="G"/></filter></defs>
<rect width="760" height="295" fill="#ffffff"/>
<text x="380" y="32" text-anchor="middle" font-size="14" font-weight="bold" font-family="Georgia,serif" fill="#111111" filter="url(#pencil)">Workload (6 months)</text>
<line x1="60" y1="250" x2="730" y2="250" stroke="#cccccc" stroke-width="0.7" stroke-dasharray="4,5" filter="url(#rough)"/>
<text x="54" y="254" text-anchor="end" font-size="10" font-family="Georgia,serif" fill="#333333">0</text>
<line x1="60" y1="201" x2="730" y2="201" stroke="#cccccc" stroke-width="0.7" stroke-dasharray="4,5" filter="url(#rough)"/>
<text x="54" y="205" text-anchor="end" font-size="10" font-family="Georgia,serif" fill="#333333">205K</text>
<line x1="60" y1="150" x2="730" y2="150" stroke="#cccccc" stroke-width="0.7" stroke-dasharray="4,5" filter="url(#rough)"/>
<text x="54" y="154" text-anchor="end" font-size="10" font-family="Georgia,serif" fill="#333333">410K</text>
<line x1="60" y1="101" x2="730" y2="101" stroke="#cccccc" stroke-width="0.7" stroke-dasharray="4,5" filter="url(#rough)"/>
<text x="54" y="105" text-anchor="end" font-size="10" font-family="Georgia,serif" fill="#333333">615K</text>
<line x1="60" y1="50" x2="730" y2="50" stroke="#cccccc" stroke-width="0.7" stroke-dasharray="4,5" filter="url(#rough)"/>
<text x="54" y="54" text-anchor="end" font-size="10" font-family="Georgia,serif" fill="#333333">821K</text>
<text x="78" y="270" text-anchor="middle" font-size="11" font-family="Georgia,serif" fill="#333333" filter="url(#pencil)">1월</text>
<text x="192" y="270" text-anchor="middle" font-size="11" font-family="Georgia,serif" fill="#333333" filter="url(#pencil)">2월</text>
<text x="295" y="270" text-anchor="middle" font-size="11" font-family="Georgia,serif" fill="#333333" filter="url(#pencil)">3월</text>
<text x="409" y="270" text-anchor="middle" font-size="11" font-family="Georgia,serif" fill="#333333" filter="url(#pencil)">4월</text>
<text x="520" y="270" text-anchor="middle" font-size="11" font-family="Georgia,serif" fill="#333333" filter="url(#pencil)">5월</text>
<text x="634" y="270" text-anchor="middle" font-size="11" font-family="Georgia,serif" fill="#333333" filter="url(#pencil)">6월</text>
<line x1="59" y1="42" x2="59" y2="256" stroke="#111111" stroke-width="2" filter="url(#pline)"/>
<line x1="52" y1="251" x2="738" y2="251" stroke="#111111" stroke-width="2" filter="url(#pline)"/>
<polygon points="60,250 60,250 63,250 67,250 71,250 74,250 78,250 82,250 85,250 89,250 93,250 96,250 100,250 104,250 107,250 111,250 115,250 118,250 122,250 126,250 129,250 133,250 137,250 140,247 144,247 148,247 152,247 155,247 159,246 163,244 166,243 170,242 174,235 177,235 181,235 185,233 188,226 192,225 196,224 199,224 203,224 207,223 210,215 214,215 218,214 221,214 225,214 229,214 233,214 236,214 240,214 244,214 247,214 251,214 255,214 258,214 262,213 266,213 269,213 273,213 277,213 280,213 284,211 288,209 291,208 295,204 299,202 302,202 306,202 310,202 314,202 317,202 321,202 325,202 328,202 332,202 336,202 339,201 343,201 347,201 350,198 354,197 358,197 361,194 365,193 369,193 372,193 376,183 380,183 383,183 387,177 391,170 395,164 398,163 402,163 406,163 409,163 413,162 417,162 420,162 424,162 428,162 431,162 435,162 439,162 442,161 446,161 450,161 453,158 457,158 461,158 464,158 468,156 472,155 475,151 479,151 483,151 487,149 490,149 494,149 498,148 501,146 505,146 509,146 512,146 516,146 520,146 523,146 527,145 531,145 534,145 538,144 542,144 545,144 549,144 553,144 556,144 560,144 564,144 568,144 571,143 575,143 579,142 582,141 586,138 590,136 593,133 597,129 601,126 604,122 608,120 612,118 615,115 619,113 623,111 626,108 630,106 634,104 637,103 641,101 645,100 649,98 652,96 656,93 660,92 663,86 667,83 671,82 674,81 678,78 682,77 685,76 689,75 693,74 696,74 700,72 704,70 707,62 711,57 715,54 718,52 722,51 726,51 730,50 730,250" fill="#e8e8e8" opacity="0.6"/>
<polyline points="60,250 63,250 67,250 71,250 74,250 78,250 82,250 85,250 89,250 93,250 96,250 100,250 104,250 107,250 111,250 115,250 118,250 122,250 126,250 129,250 133,250 137,250 140,247 144,247 148,247 152,247 155,247 159,246 163,244 166,243 170,242 174,235 177,235 181,235 185,233 188,226 192,225 196,224 199,224 203,224 207,223 210,215 214,215 218,214 221,214 225,214 229,214 233,214 236,214 240,214 244,214 247,214 251,214 255,214 258,214 262,213 266,213 269,213 273,213 277,213 280,213 284,211 288,209 291,208 295,204 299,202 302,202 306,202 310,202 314,202 317,202 321,202 325,202 328,202 332,202 336,202 339,201 343,201 347,201 350,198 354,197 358,197 361,194 365,193 369,193 372,193 376,183 380,183 383,183 387,177 391,170 395,164 398,163 402,163 406,163 409,163 413,162 417,162 420,162 424,162 428,162 431,162 435,162 439,162 442,161 446,161 450,161 453,158 457,158 461,158 464,158 468,156 472,155 475,151 479,151 483,151 487,149 490,149 494,149 498,148 501,146 505,146 509,146 512,146 516,146 520,146 523,146 527,145 531,145 534,145 538,144 542,144 545,144 549,144 553,144 556,144 560,144 564,144 568,144 571,143 575,143 579,142 582,141 586,138 590,136 593,133 597,129 601,126 604,122 608,120 612,118 615,115 619,113 623,111 626,108 630,106 634,104 637,103 641,101 645,100 649,98 652,96 656,93 660,92 663,86 667,83 671,82 674,81 678,78 682,77 685,76 689,75 693,74 696,74 700,72 704,70 707,62 711,57 715,54 718,52 722,51 726,51 730,50" fill="none" stroke="#111111" stroke-width="2.4" stroke-linejoin="round" stroke-linecap="round" filter="url(#pline)"/>
<circle cx="730" cy="50" r="4" fill="#111111" filter="url(#pencil)"/>
<text x="724" y="42" text-anchor="end" font-size="10" font-family="Georgia,serif" fill="#111111">821K</text>
<text x="60" y="289" font-size="9" font-family="Georgia,serif" fill="#888888">기준: 2026-06-27 19:47</text>
</svg>