<svg xmlns="http://www.w3.org/2000/svg" width="760" height="295">
<defs><filter id="pencil" x="-5%" y="-5%" width="110%" height="110%"><feTurbulence type="fractalNoise" baseFrequency="0.9" numOctaves="4" seed="5" result="noise"/><feDisplacementMap in="SourceGraphic" in2="noise" scale="1.6" xChannelSelector="R" yChannelSelector="G"/></filter><filter id="pline" x="-2%" y="-30%" width="104%" height="160%"><feTurbulence type="fractalNoise" baseFrequency="0.015 0.9" numOctaves="3" seed="11" result="noise"/><feDisplacementMap in="SourceGraphic" in2="noise" scale="1.8" xChannelSelector="R" yChannelSelector="G"/></filter><filter id="rough" x="-5%" y="-5%" width="110%" height="110%"><feTurbulence type="turbulence" baseFrequency="0.05" numOctaves="2" seed="2" result="noise"/><feDisplacementMap in="SourceGraphic" in2="noise" scale="2" xChannelSelector="R" yChannelSelector="G"/></filter></defs>
<rect width="760" height="295" fill="#ffffff"/>
<text x="380" y="32" text-anchor="middle" font-size="14" font-weight="bold" font-family="Georgia,serif" fill="#111111" filter="url(#pencil)">Workload (6 months)</text>
<line x1="60" y1="250" x2="730" y2="250" stroke="#cccccc" stroke-width="0.7" stroke-dasharray="4,5" filter="url(#rough)"/>
<text x="54" y="254" text-anchor="end" font-size="10" font-family="Georgia,serif" fill="#333333">0</text>
<line x1="60" y1="201" x2="730" y2="201" stroke="#cccccc" stroke-width="0.7" stroke-dasharray="4,5" filter="url(#rough)"/>
<text x="54" y="205" text-anchor="end" font-size="10" font-family="Georgia,serif" fill="#333333">147K</text>
<line x1="60" y1="150" x2="730" y2="150" stroke="#cccccc" stroke-width="0.7" stroke-dasharray="4,5" filter="url(#rough)"/>
<text x="54" y="154" text-anchor="end" font-size="10" font-family="Georgia,serif" fill="#333333">294K</text>
<line x1="60" y1="101" x2="730" y2="101" stroke="#cccccc" stroke-width="0.7" stroke-dasharray="4,5" filter="url(#rough)"/>
<text x="54" y="105" text-anchor="end" font-size="10" font-family="Georgia,serif" fill="#333333">441K</text>
<line x1="60" y1="50" x2="730" y2="50" stroke="#cccccc" stroke-width="0.7" stroke-dasharray="4,5" filter="url(#rough)"/>
<text x="54" y="54" text-anchor="end" font-size="10" font-family="Georgia,serif" fill="#333333">588K</text>
<text x="96" y="270" text-anchor="middle" font-size="11" font-family="Georgia,serif" fill="#333333" filter="url(#pencil)">1월</text>
<text x="210" y="270" text-anchor="middle" font-size="11" font-family="Georgia,serif" fill="#333333" filter="url(#pencil)">2월</text>
<text x="314" y="270" text-anchor="middle" font-size="11" font-family="Georgia,serif" fill="#333333" filter="url(#pencil)">3월</text>
<text x="428" y="270" text-anchor="middle" font-size="11" font-family="Georgia,serif" fill="#333333" filter="url(#pencil)">4월</text>
<text x="538" y="270" text-anchor="middle" font-size="11" font-family="Georgia,serif" fill="#333333" filter="url(#pencil)">5월</text>
<text x="652" y="270" text-anchor="middle" font-size="11" font-family="Georgia,serif" fill="#333333" filter="url(#pencil)">6월</text>
<line x1="59" y1="42" x2="59" y2="256" stroke="#111111" stroke-width="2" filter="url(#pline)"/>
<line x1="52" y1="251" x2="738" y2="251" stroke="#111111" stroke-width="2" filter="url(#pline)"/>
<polygon points="60,250 60,250 63,250 67,245 71,245 74,245 78,245 82,245 85,245 89,245 93,245 96,245 100,245 104,245 107,245 111,245 115,245 118,245 122,245 126,245 129,245 133,245 137,245 140,245 144,245 148,245 152,245 155,245 159,241 163,241 166,241 170,241 174,241 177,240 181,238 185,237 188,235 192,227 196,227 199,227 203,225 207,216 210,214 214,213 218,213 221,213 225,212 229,203 233,202 236,202 240,202 244,202 247,202 251,202 255,202 258,202 262,202 266,202 269,202 273,202 277,202 280,200 284,200 288,200 291,200 295,200 299,200 302,198 306,196 310,195 314,189 317,188 321,188 325,187 328,187 332,187 336,187 339,187 343,187 347,187 350,187 354,187 358,186 361,186 365,186 369,183 372,182 376,182 380,177 383,176 387,176 391,176 395,165 398,165 402,165 406,157 409,148 413,141 417,141 420,140 424,139 428,139 431,139 435,139 439,139 442,139 446,139 450,139 453,139 457,139 461,138 464,138 468,138 472,137 475,137 479,137 483,137 487,134 490,133 494,131 498,131 501,131 505,131 509,130 512,130 516,130 520,129 523,129 527,129 531,129 534,129 538,129 542,129 545,129 549,129 553,129 556,127 560,127 564,127 568,127 571,127 575,127 579,127 582,127 586,127 590,127 593,127 597,126 601,125 604,122 608,118 612,115 615,111 619,107 623,103 626,101 630,98 634,95 637,93 641,90 645,87 649,85 652,83 656,82 660,80 663,78 667,77 671,74 674,72 678,70 682,65 685,62 689,61 693,60 696,58 700,57 704,56 707,56 711,55 715,55 718,54 722,53 726,51 730,50 730,250" fill="#e8e8e8" opacity="0.6"/>
<polyline points="60,250 63,250 67,245 71,245 74,245 78,245 82,245 85,245 89,245 93,245 96,245 100,245 104,245 107,245 111,245 115,245 118,245 122,245 126,245 129,245 133,245 137,245 140,245 144,245 148,245 152,245 155,245 159,241 163,241 166,241 170,241 174,241 177,240 181,238 185,237 188,235 192,227 196,227 199,227 203,225 207,216 210,214 214,213 218,213 221,213 225,212 229,203 233,202 236,202 240,202 244,202 247,202 251,202 255,202 258,202 262,202 266,202 269,202 273,202 277,202 280,200 284,200 288,200 291,200 295,200 299,200 302,198 306,196 310,195 314,189 317,188 321,188 325,187 328,187 332,187 336,187 339,187 343,187 347,187 350,187 354,187 358,186 361,186 365,186 369,183 372,182 376,182 380,177 383,176 387,176 391,176 395,165 398,165 402,165 406,157 409,148 413,141 417,141 420,140 424,139 428,139 431,139 435,139 439,139 442,139 446,139 450,139 453,139 457,139 461,138 464,138 468,138 472,137 475,137 479,137 483,137 487,134 490,133 494,131 498,131 501,131 505,131 509,130 512,130 516,130 520,129 523,129 527,129 531,129 534,129 538,129 542,129 545,129 549,129 553,129 556,127 560,127 564,127 568,127 571,127 575,127 579,127 582,127 586,127 590,127 593,127 597,126 601,125 604,122 608,118 612,115 615,111 619,107 623,103 626,101 630,98 634,95 637,93 641,90 645,87 649,85 652,83 656,82 660,80 663,78 667,77 671,74 674,72 678,70 682,65 685,62 689,61 693,60 696,58 700,57 704,56 707,56 711,55 715,55 718,54 722,53 726,51 730,50" fill="none" stroke="#111111" stroke-width="2.4" stroke-linejoin="round" stroke-linecap="round" filter="url(#pline)"/>
<circle cx="730" cy="50" r="4" fill="#111111" filter="url(#pencil)"/>
<text x="724" y="42" text-anchor="end" font-size="10" font-family="Georgia,serif" fill="#111111">588K</text>
<text x="60" y="289" font-size="9" font-family="Georgia,serif" fill="#888888">기준: 2026-06-22 18:53</text>
</svg>