<svg xmlns="http://www.w3.org/2000/svg" width="760" height="295">
<defs><filter id="pencil" x="-5%" y="-5%" width="110%" height="110%"><feTurbulence type="fractalNoise" baseFrequency="0.9" numOctaves="4" seed="5" result="noise"/><feDisplacementMap in="SourceGraphic" in2="noise" scale="1.6" xChannelSelector="R" yChannelSelector="G"/></filter><filter id="pline" x="-2%" y="-30%" width="104%" height="160%"><feTurbulence type="fractalNoise" baseFrequency="0.015 0.9" numOctaves="3" seed="11" result="noise"/><feDisplacementMap in="SourceGraphic" in2="noise" scale="1.8" xChannelSelector="R" yChannelSelector="G"/></filter><filter id="rough" x="-5%" y="-5%" width="110%" height="110%"><feTurbulence type="turbulence" baseFrequency="0.05" numOctaves="2" seed="2" result="noise"/><feDisplacementMap in="SourceGraphic" in2="noise" scale="2" xChannelSelector="R" yChannelSelector="G"/></filter></defs>
<rect width="760" height="295" fill="#ffffff"/>
<text x="380" y="32" text-anchor="middle" font-size="14" font-weight="bold" font-family="Georgia,serif" fill="#111111" filter="url(#pencil)">Workload (6 months)</text>
<line x1="60" y1="250" x2="730" y2="250" stroke="#cccccc" stroke-width="0.7" stroke-dasharray="4,5" filter="url(#rough)"/>
<text x="54" y="254" text-anchor="end" font-size="10" font-family="Georgia,serif" fill="#333333">0</text>
<line x1="60" y1="201" x2="730" y2="201" stroke="#cccccc" stroke-width="0.7" stroke-dasharray="4,5" filter="url(#rough)"/>
<text x="54" y="205" text-anchor="end" font-size="10" font-family="Georgia,serif" fill="#333333">265K</text>
<line x1="60" y1="151" x2="730" y2="151" stroke="#cccccc" stroke-width="0.7" stroke-dasharray="4,5" filter="url(#rough)"/>
<text x="54" y="155" text-anchor="end" font-size="10" font-family="Georgia,serif" fill="#333333">530K</text>
<line x1="60" y1="101" x2="730" y2="101" stroke="#cccccc" stroke-width="0.7" stroke-dasharray="4,5" filter="url(#rough)"/>
<text x="54" y="105" text-anchor="end" font-size="10" font-family="Georgia,serif" fill="#333333">796K</text>
<line x1="60" y1="50" x2="730" y2="50" stroke="#cccccc" stroke-width="0.7" stroke-dasharray="4,5" filter="url(#rough)"/>
<text x="54" y="54" text-anchor="end" font-size="10" font-family="Georgia,serif" fill="#333333">1061K</text>
<text x="60" y="270" text-anchor="middle" font-size="11" font-family="Georgia,serif" fill="#333333" filter="url(#pencil)">1월</text>
<text x="174" y="270" text-anchor="middle" font-size="11" font-family="Georgia,serif" fill="#333333" filter="url(#pencil)">2월</text>
<text x="277" y="270" text-anchor="middle" font-size="11" font-family="Georgia,serif" fill="#333333" filter="url(#pencil)">3월</text>
<text x="391" y="270" text-anchor="middle" font-size="11" font-family="Georgia,serif" fill="#333333" filter="url(#pencil)">4월</text>
<text x="501" y="270" text-anchor="middle" font-size="11" font-family="Georgia,serif" fill="#333333" filter="url(#pencil)">5월</text>
<text x="615" y="270" text-anchor="middle" font-size="11" font-family="Georgia,serif" fill="#333333" filter="url(#pencil)">6월</text>
<text x="726" y="270" text-anchor="middle" font-size="11" font-family="Georgia,serif" fill="#333333" filter="url(#pencil)">7월</text>
<line x1="59" y1="42" x2="59" y2="256" stroke="#111111" stroke-width="2" filter="url(#pline)"/>
<line x1="52" y1="251" x2="738" y2="251" stroke="#111111" stroke-width="2" filter="url(#pline)"/>
<polygon points="60,250 60,250 63,250 67,250 71,250 74,250 78,250 82,250 85,250 89,250 93,250 96,250 100,250 104,250 107,250 111,250 115,250 118,250 122,247 126,247 129,247 133,247 137,247 140,247 144,245 148,244 152,243 155,237 159,237 163,237 166,236 170,229 174,228 177,227 181,227 185,227 188,227 192,220 196,219 199,219 203,219 207,219 210,219 214,219 218,219 221,219 225,219 229,219 233,219 236,219 240,219 244,218 247,218 251,218 255,218 258,218 262,218 266,216 269,215 273,214 277,210 280,209 284,209 288,209 291,209 295,209 299,209 302,209 306,209 310,209 314,209 317,209 321,208 325,208 328,208 332,205 336,204 339,204 343,201 347,201 350,201 354,201 358,192 361,192 365,192 369,187 372,180 376,175 380,175 383,174 387,174 391,174 395,173 398,173 402,173 406,173 409,173 413,173 417,173 420,173 424,173 428,173 431,173 435,169 439,169 442,169 446,169 450,167 453,166 457,161 461,161 464,161 468,159 472,159 475,158 479,157 483,155 487,155 490,155 494,155 498,155 501,155 505,155 509,154 512,154 516,154 520,153 523,153 527,153 531,153 534,153 538,153 542,153 545,153 549,153 553,151 556,151 560,151 564,150 568,148 571,145 575,143 579,139 582,136 586,133 590,131 593,129 597,127 601,125 604,122 608,120 612,118 615,116 619,115 623,114 626,112 630,111 634,109 637,106 641,105 645,99 649,96 652,95 656,93 660,91 663,90 667,89 671,88 674,87 678,86 682,84 685,81 689,70 693,64 696,59 700,55 704,53 707,52 711,52 715,51 718,51 722,51 726,51 730,50 730,250" fill="#e8e8e8" opacity="0.6"/>
<polyline points="60,250 63,250 67,250 71,250 74,250 78,250 82,250 85,250 89,250 93,250 96,250 100,250 104,250 107,250 111,250 115,250 118,250 122,247 126,247 129,247 133,247 137,247 140,247 144,245 148,244 152,243 155,237 159,237 163,237 166,236 170,229 174,228 177,227 181,227 185,227 188,227 192,220 196,219 199,219 203,219 207,219 210,219 214,219 218,219 221,219 225,219 229,219 233,219 236,219 240,219 244,218 247,218 251,218 255,218 258,218 262,218 266,216 269,215 273,214 277,210 280,209 284,209 288,209 291,209 295,209 299,209 302,209 306,209 310,209 314,209 317,209 321,208 325,208 328,208 332,205 336,204 339,204 343,201 347,201 350,201 354,201 358,192 361,192 365,192 369,187 372,180 376,175 380,175 383,174 387,174 391,174 395,173 398,173 402,173 406,173 409,173 413,173 417,173 420,173 424,173 428,173 431,173 435,169 439,169 442,169 446,169 450,167 453,166 457,161 461,161 464,161 468,159 472,159 475,158 479,157 483,155 487,155 490,155 494,155 498,155 501,155 505,155 509,154 512,154 516,154 520,153 523,153 527,153 531,153 534,153 538,153 542,153 545,153 549,153 553,151 556,151 560,151 564,150 568,148 571,145 575,143 579,139 582,136 586,133 590,131 593,129 597,127 601,125 604,122 608,120 612,118 615,116 619,115 623,114 626,112 630,111 634,109 637,106 641,105 645,99 649,96 652,95 656,93 660,91 663,90 667,89 671,88 674,87 678,86 682,84 685,81 689,70 693,64 696,59 700,55 704,53 707,52 711,52 715,51 718,51 722,51 726,51 730,50" fill="none" stroke="#111111" stroke-width="2.4" stroke-linejoin="round" stroke-linecap="round" filter="url(#pline)"/>
<circle cx="730" cy="50" r="4" fill="#111111" filter="url(#pencil)"/>
<text x="724" y="42" text-anchor="end" font-size="10" font-family="Georgia,serif" fill="#111111">1061K</text>
<text x="60" y="289" font-size="9" font-family="Georgia,serif" fill="#888888">기준: 2026-07-02 09:35</text>
</svg>