<svg xmlns="http://www.w3.org/2000/svg" width="760" height="295">
<defs><filter id="pencil" x="-5%" y="-5%" width="110%" height="110%"><feTurbulence type="fractalNoise" baseFrequency="0.9" numOctaves="4" seed="5" result="noise"/><feDisplacementMap in="SourceGraphic" in2="noise" scale="1.6" xChannelSelector="R" yChannelSelector="G"/></filter><filter id="pline" x="-2%" y="-30%" width="104%" height="160%"><feTurbulence type="fractalNoise" baseFrequency="0.015 0.9" numOctaves="3" seed="11" result="noise"/><feDisplacementMap in="SourceGraphic" in2="noise" scale="1.8" xChannelSelector="R" yChannelSelector="G"/></filter><filter id="rough" x="-5%" y="-5%" width="110%" height="110%"><feTurbulence type="turbulence" baseFrequency="0.05" numOctaves="2" seed="2" result="noise"/><feDisplacementMap in="SourceGraphic" in2="noise" scale="2" xChannelSelector="R" yChannelSelector="G"/></filter></defs>
<rect width="760" height="295" fill="#ffffff"/>
<text x="380" y="32" text-anchor="middle" font-size="14" font-weight="bold" font-family="Georgia,serif" fill="#111111" filter="url(#pencil)">Workload (6 months)</text>
<line x1="60" y1="250" x2="730" y2="250" stroke="#cccccc" stroke-width="0.7" stroke-dasharray="4,5" filter="url(#rough)"/>
<text x="54" y="254" text-anchor="end" font-size="10" font-family="Georgia,serif" fill="#333333">0</text>
<line x1="60" y1="201" x2="730" y2="201" stroke="#cccccc" stroke-width="0.7" stroke-dasharray="4,5" filter="url(#rough)"/>
<text x="54" y="205" text-anchor="end" font-size="10" font-family="Georgia,serif" fill="#333333">127K</text>
<line x1="60" y1="151" x2="730" y2="151" stroke="#cccccc" stroke-width="0.7" stroke-dasharray="4,5" filter="url(#rough)"/>
<text x="54" y="155" text-anchor="end" font-size="10" font-family="Georgia,serif" fill="#333333">254K</text>
<line x1="60" y1="101" x2="730" y2="101" stroke="#cccccc" stroke-width="0.7" stroke-dasharray="4,5" filter="url(#rough)"/>
<text x="54" y="105" text-anchor="end" font-size="10" font-family="Georgia,serif" fill="#333333">382K</text>
<line x1="60" y1="50" x2="730" y2="50" stroke="#cccccc" stroke-width="0.7" stroke-dasharray="4,5" filter="url(#rough)"/>
<text x="54" y="54" text-anchor="end" font-size="10" font-family="Georgia,serif" fill="#333333">509K</text>
<text x="111" y="270" text-anchor="middle" font-size="11" font-family="Georgia,serif" fill="#333333" filter="url(#pencil)">1월</text>
<text x="225" y="270" text-anchor="middle" font-size="11" font-family="Georgia,serif" fill="#333333" filter="url(#pencil)">2월</text>
<text x="328" y="270" text-anchor="middle" font-size="11" font-family="Georgia,serif" fill="#333333" filter="url(#pencil)">3월</text>
<text x="442" y="270" text-anchor="middle" font-size="11" font-family="Georgia,serif" fill="#333333" filter="url(#pencil)">4월</text>
<text x="553" y="270" text-anchor="middle" font-size="11" font-family="Georgia,serif" fill="#333333" filter="url(#pencil)">5월</text>
<text x="667" y="270" text-anchor="middle" font-size="11" font-family="Georgia,serif" fill="#333333" filter="url(#pencil)">6월</text>
<line x1="59" y1="42" x2="59" y2="256" stroke="#111111" stroke-width="2" filter="url(#pline)"/>
<line x1="52" y1="251" x2="738" y2="251" stroke="#111111" stroke-width="2" filter="url(#pline)"/>
<polygon points="60,250 60,250 63,230 67,230 71,230 74,230 78,230 82,225 85,225 89,225 93,225 96,225 100,225 104,225 107,225 111,225 115,225 118,225 122,225 126,225 129,225 133,225 137,225 140,225 144,225 148,225 152,225 155,225 159,225 163,225 166,225 170,225 174,220 177,220 181,220 185,220 188,220 192,220 196,217 199,216 203,214 207,206 210,206 214,206 218,204 221,195 225,193 229,192 233,192 236,192 240,192 244,182 247,181 251,181 255,181 258,181 262,181 266,181 269,181 273,181 277,181 280,181 284,181 288,181 291,181 295,179 299,179 302,179 306,179 310,179 314,179 317,177 321,175 325,174 328,168 332,167 336,167 339,166 343,166 347,166 350,166 354,166 358,166 361,166 365,166 369,166 372,165 376,165 380,165 383,162 387,161 391,161 395,156 398,155 402,155 406,155 409,144 413,144 417,144 420,136 424,127 428,120 431,119 435,119 439,118 442,118 446,118 450,118 453,118 457,118 461,118 464,118 468,118 472,118 475,118 479,118 483,118 487,118 490,118 494,118 498,118 501,115 505,113 509,113 512,113 516,113 520,113 523,113 527,113 531,113 534,113 538,113 542,113 545,113 549,113 553,113 556,113 560,113 564,113 568,113 571,112 575,112 579,112 582,112 586,112 590,112 593,112 597,112 601,112 604,112 608,112 612,111 615,110 619,107 623,103 626,100 630,97 634,93 637,89 641,87 645,84 649,82 652,79 656,77 660,74 663,72 667,71 671,69 674,68 678,66 682,65 685,63 689,61 693,60 696,56 700,54 704,53 707,52 711,51 715,51 718,51 722,51 726,50 730,50 730,250" fill="#e8e8e8" opacity="0.6"/>
<polyline points="60,250 63,230 67,230 71,230 74,230 78,230 82,225 85,225 89,225 93,225 96,225 100,225 104,225 107,225 111,225 115,225 118,225 122,225 126,225 129,225 133,225 137,225 140,225 144,225 148,225 152,225 155,225 159,225 163,225 166,225 170,225 174,220 177,220 181,220 185,220 188,220 192,220 196,217 199,216 203,214 207,206 210,206 214,206 218,204 221,195 225,193 229,192 233,192 236,192 240,192 244,182 247,181 251,181 255,181 258,181 262,181 266,181 269,181 273,181 277,181 280,181 284,181 288,181 291,181 295,179 299,179 302,179 306,179 310,179 314,179 317,177 321,175 325,174 328,168 332,167 336,167 339,166 343,166 347,166 350,166 354,166 358,166 361,166 365,166 369,166 372,165 376,165 380,165 383,162 387,161 391,161 395,156 398,155 402,155 406,155 409,144 413,144 417,144 420,136 424,127 428,120 431,119 435,119 439,118 442,118 446,118 450,118 453,118 457,118 461,118 464,118 468,118 472,118 475,118 479,118 483,118 487,118 490,118 494,118 498,118 501,115 505,113 509,113 512,113 516,113 520,113 523,113 527,113 531,113 534,113 538,113 542,113 545,113 549,113 553,113 556,113 560,113 564,113 568,113 571,112 575,112 579,112 582,112 586,112 590,112 593,112 597,112 601,112 604,112 608,112 612,111 615,110 619,107 623,103 626,100 630,97 634,93 637,89 641,87 645,84 649,82 652,79 656,77 660,74 663,72 667,71 671,69 674,68 678,66 682,65 685,63 689,61 693,60 696,56 700,54 704,53 707,52 711,51 715,51 718,51 722,51 726,50 730,50" fill="none" stroke="#111111" stroke-width="2.4" stroke-linejoin="round" stroke-linecap="round" filter="url(#pline)"/>
<circle cx="730" cy="50" r="4" fill="#111111" filter="url(#pencil)"/>
<text x="724" y="42" text-anchor="end" font-size="10" font-family="Georgia,serif" fill="#111111">509K</text>
<text x="60" y="289" font-size="9" font-family="Georgia,serif" fill="#888888">기준: 2026-06-18 05:06</text>
</svg>