<svg xmlns="http://www.w3.org/2000/svg" width="760" height="295">
<defs><filter id="pencil" x="-5%" y="-5%" width="110%" height="110%"><feTurbulence type="fractalNoise" baseFrequency="0.9" numOctaves="4" seed="5" result="noise"/><feDisplacementMap in="SourceGraphic" in2="noise" scale="1.6" xChannelSelector="R" yChannelSelector="G"/></filter><filter id="pline" x="-2%" y="-30%" width="104%" height="160%"><feTurbulence type="fractalNoise" baseFrequency="0.015 0.9" numOctaves="3" seed="11" result="noise"/><feDisplacementMap in="SourceGraphic" in2="noise" scale="1.8" xChannelSelector="R" yChannelSelector="G"/></filter><filter id="rough" x="-5%" y="-5%" width="110%" height="110%"><feTurbulence type="turbulence" baseFrequency="0.05" numOctaves="2" seed="2" result="noise"/><feDisplacementMap in="SourceGraphic" in2="noise" scale="2" xChannelSelector="R" yChannelSelector="G"/></filter></defs>
<rect width="760" height="295" fill="#ffffff"/>
<text x="380" y="32" text-anchor="middle" font-size="14" font-weight="bold" font-family="Georgia,serif" fill="#111111" filter="url(#pencil)">Workload (6 months)</text>
<line x1="60" y1="250" x2="730" y2="250" stroke="#cccccc" stroke-width="0.7" stroke-dasharray="4,5" filter="url(#rough)"/>
<text x="54" y="254" text-anchor="end" font-size="10" font-family="Georgia,serif" fill="#333333">0</text>
<line x1="60" y1="201" x2="730" y2="201" stroke="#cccccc" stroke-width="0.7" stroke-dasharray="4,5" filter="url(#rough)"/>
<text x="54" y="205" text-anchor="end" font-size="10" font-family="Georgia,serif" fill="#333333">244K</text>
<line x1="60" y1="150" x2="730" y2="150" stroke="#cccccc" stroke-width="0.7" stroke-dasharray="4,5" filter="url(#rough)"/>
<text x="54" y="154" text-anchor="end" font-size="10" font-family="Georgia,serif" fill="#333333">488K</text>
<line x1="60" y1="101" x2="730" y2="101" stroke="#cccccc" stroke-width="0.7" stroke-dasharray="4,5" filter="url(#rough)"/>
<text x="54" y="105" text-anchor="end" font-size="10" font-family="Georgia,serif" fill="#333333">732K</text>
<line x1="60" y1="50" x2="730" y2="50" stroke="#cccccc" stroke-width="0.7" stroke-dasharray="4,5" filter="url(#rough)"/>
<text x="54" y="54" text-anchor="end" font-size="10" font-family="Georgia,serif" fill="#333333">976K</text>
<text x="67" y="270" text-anchor="middle" font-size="11" font-family="Georgia,serif" fill="#333333" filter="url(#pencil)">1월</text>
<text x="181" y="270" text-anchor="middle" font-size="11" font-family="Georgia,serif" fill="#333333" filter="url(#pencil)">2월</text>
<text x="284" y="270" text-anchor="middle" font-size="11" font-family="Georgia,serif" fill="#333333" filter="url(#pencil)">3월</text>
<text x="398" y="270" text-anchor="middle" font-size="11" font-family="Georgia,serif" fill="#333333" filter="url(#pencil)">4월</text>
<text x="509" y="270" text-anchor="middle" font-size="11" font-family="Georgia,serif" fill="#333333" filter="url(#pencil)">5월</text>
<text x="623" y="270" text-anchor="middle" font-size="11" font-family="Georgia,serif" fill="#333333" filter="url(#pencil)">6월</text>
<line x1="59" y1="42" x2="59" y2="256" stroke="#111111" stroke-width="2" filter="url(#pline)"/>
<line x1="52" y1="251" x2="738" y2="251" stroke="#111111" stroke-width="2" filter="url(#pline)"/>
<polygon points="60,250 60,250 63,250 67,250 71,250 74,250 78,250 82,250 85,250 89,250 93,250 96,250 100,250 104,250 107,250 111,250 115,250 118,250 122,250 126,250 129,247 133,247 137,247 140,247 144,247 148,247 152,245 155,244 159,243 163,236 166,236 170,236 174,235 177,228 181,227 185,226 188,226 192,226 196,226 199,218 203,218 207,218 210,218 214,218 218,218 221,218 225,218 229,218 233,218 236,218 240,218 244,218 247,218 251,216 255,216 258,216 262,216 266,216 269,216 273,215 277,213 280,212 284,208 288,207 291,207 295,207 299,207 302,207 306,207 310,207 314,207 317,207 321,207 325,207 328,206 332,206 336,206 339,203 343,202 347,202 350,199 354,198 358,198 361,198 365,190 369,190 372,190 376,184 380,177 383,172 387,171 391,171 395,171 398,171 402,170 406,170 409,170 413,170 417,170 420,170 424,170 428,170 431,169 435,169 439,169 442,166 446,166 450,166 453,166 457,163 461,162 464,158 468,158 472,158 475,156 479,156 483,155 487,154 490,152 494,152 498,152 501,152 505,152 509,152 512,152 516,152 520,152 523,152 527,151 531,151 534,151 538,151 542,150 545,150 549,150 553,150 556,150 560,149 564,149 568,148 571,148 575,145 579,142 582,140 586,136 590,133 593,130 597,128 601,125 604,123 608,121 612,119 615,116 619,114 623,113 626,111 630,110 634,108 637,107 641,105 645,102 649,101 652,95 656,92 660,91 663,89 667,87 671,86 674,85 678,84 682,83 685,82 689,81 693,77 696,68 700,62 704,58 707,53 711,52 715,51 718,51 722,51 726,51 730,50 730,250" fill="#e8e8e8" opacity="0.6"/>
<polyline points="60,250 63,250 67,250 71,250 74,250 78,250 82,250 85,250 89,250 93,250 96,250 100,250 104,250 107,250 111,250 115,250 118,250 122,250 126,250 129,247 133,247 137,247 140,247 144,247 148,247 152,245 155,244 159,243 163,236 166,236 170,236 174,235 177,228 181,227 185,226 188,226 192,226 196,226 199,218 203,218 207,218 210,218 214,218 218,218 221,218 225,218 229,218 233,218 236,218 240,218 244,218 247,218 251,216 255,216 258,216 262,216 266,216 269,216 273,215 277,213 280,212 284,208 288,207 291,207 295,207 299,207 302,207 306,207 310,207 314,207 317,207 321,207 325,207 328,206 332,206 336,206 339,203 343,202 347,202 350,199 354,198 358,198 361,198 365,190 369,190 372,190 376,184 380,177 383,172 387,171 391,171 395,171 398,171 402,170 406,170 409,170 413,170 417,170 420,170 424,170 428,170 431,169 435,169 439,169 442,166 446,166 450,166 453,166 457,163 461,162 464,158 468,158 472,158 475,156 479,156 483,155 487,154 490,152 494,152 498,152 501,152 505,152 509,152 512,152 516,152 520,152 523,152 527,151 531,151 534,151 538,151 542,150 545,150 549,150 553,150 556,150 560,149 564,149 568,148 571,148 575,145 579,142 582,140 586,136 590,133 593,130 597,128 601,125 604,123 608,121 612,119 615,116 619,114 623,113 626,111 630,110 634,108 637,107 641,105 645,102 649,101 652,95 656,92 660,91 663,89 667,87 671,86 674,85 678,84 682,83 685,82 689,81 693,77 696,68 700,62 704,58 707,53 711,52 715,51 718,51 722,51 726,51 730,50" fill="none" stroke="#111111" stroke-width="2.4" stroke-linejoin="round" stroke-linecap="round" filter="url(#pline)"/>
<circle cx="730" cy="50" r="4" fill="#111111" filter="url(#pencil)"/>
<text x="724" y="42" text-anchor="end" font-size="10" font-family="Georgia,serif" fill="#111111">976K</text>
<text x="60" y="289" font-size="9" font-family="Georgia,serif" fill="#888888">기준: 2026-06-30 20:21</text>
</svg>