<svg xmlns="http://www.w3.org/2000/svg" width="760" height="295">
<defs><filter id="pencil" x="-5%" y="-5%" width="110%" height="110%"><feTurbulence type="fractalNoise" baseFrequency="0.9" numOctaves="4" seed="5" result="noise"/><feDisplacementMap in="SourceGraphic" in2="noise" scale="1.6" xChannelSelector="R" yChannelSelector="G"/></filter><filter id="pline" x="-2%" y="-30%" width="104%" height="160%"><feTurbulence type="fractalNoise" baseFrequency="0.015 0.9" numOctaves="3" seed="11" result="noise"/><feDisplacementMap in="SourceGraphic" in2="noise" scale="1.8" xChannelSelector="R" yChannelSelector="G"/></filter><filter id="rough" x="-5%" y="-5%" width="110%" height="110%"><feTurbulence type="turbulence" baseFrequency="0.05" numOctaves="2" seed="2" result="noise"/><feDisplacementMap in="SourceGraphic" in2="noise" scale="2" xChannelSelector="R" yChannelSelector="G"/></filter></defs>
<rect width="760" height="295" fill="#ffffff"/>
<text x="380" y="32" text-anchor="middle" font-size="14" font-weight="bold" font-family="Georgia,serif" fill="#111111" filter="url(#pencil)">Workload (6 months)</text>
<line x1="60" y1="250" x2="730" y2="250" stroke="#cccccc" stroke-width="0.7" stroke-dasharray="4,5" filter="url(#rough)"/>
<text x="54" y="254" text-anchor="end" font-size="10" font-family="Georgia,serif" fill="#333333">0</text>
<line x1="60" y1="200" x2="730" y2="200" stroke="#cccccc" stroke-width="0.7" stroke-dasharray="4,5" filter="url(#rough)"/>
<text x="54" y="204" text-anchor="end" font-size="10" font-family="Georgia,serif" fill="#333333">187K</text>
<line x1="60" y1="150" x2="730" y2="150" stroke="#cccccc" stroke-width="0.7" stroke-dasharray="4,5" filter="url(#rough)"/>
<text x="54" y="154" text-anchor="end" font-size="10" font-family="Georgia,serif" fill="#333333">374K</text>
<line x1="60" y1="100" x2="730" y2="100" stroke="#cccccc" stroke-width="0.7" stroke-dasharray="4,5" filter="url(#rough)"/>
<text x="54" y="104" text-anchor="end" font-size="10" font-family="Georgia,serif" fill="#333333">562K</text>
<line x1="60" y1="50" x2="730" y2="50" stroke="#cccccc" stroke-width="0.7" stroke-dasharray="4,5" filter="url(#rough)"/>
<text x="54" y="54" text-anchor="end" font-size="10" font-family="Georgia,serif" fill="#333333">749K</text>
<text x="82" y="270" text-anchor="middle" font-size="11" font-family="Georgia,serif" fill="#333333" filter="url(#pencil)">1월</text>
<text x="196" y="270" text-anchor="middle" font-size="11" font-family="Georgia,serif" fill="#333333" filter="url(#pencil)">2월</text>
<text x="299" y="270" text-anchor="middle" font-size="11" font-family="Georgia,serif" fill="#333333" filter="url(#pencil)">3월</text>
<text x="413" y="270" text-anchor="middle" font-size="11" font-family="Georgia,serif" fill="#333333" filter="url(#pencil)">4월</text>
<text x="523" y="270" text-anchor="middle" font-size="11" font-family="Georgia,serif" fill="#333333" filter="url(#pencil)">5월</text>
<text x="637" y="270" text-anchor="middle" font-size="11" font-family="Georgia,serif" fill="#333333" filter="url(#pencil)">6월</text>
<line x1="59" y1="42" x2="59" y2="256" stroke="#111111" stroke-width="2" filter="url(#pline)"/>
<line x1="52" y1="251" x2="738" y2="251" stroke="#111111" stroke-width="2" filter="url(#pline)"/>
<polygon points="60,250 60,250 63,250 67,250 71,250 74,250 78,250 82,250 85,250 89,250 93,250 96,250 100,250 104,250 107,250 111,250 115,250 118,250 122,250 126,250 129,250 133,250 137,250 140,250 144,247 148,247 152,247 155,247 159,247 163,246 166,244 170,243 174,242 177,234 181,234 185,234 188,232 192,225 196,223 199,222 203,222 207,222 210,222 214,213 218,213 221,212 225,212 229,212 233,212 236,212 240,212 244,212 247,212 251,212 255,212 258,212 262,212 266,211 269,211 273,211 277,211 280,211 284,211 288,209 291,207 295,206 299,201 302,200 306,200 310,200 314,200 317,200 321,200 325,200 328,200 332,200 336,200 339,200 343,199 347,199 350,199 354,196 358,195 361,195 365,191 369,190 372,190 376,190 380,180 383,180 387,180 391,173 395,165 398,159 402,159 406,158 409,158 413,158 417,157 420,157 424,157 428,157 431,157 435,157 439,157 442,157 446,156 450,156 453,156 457,154 461,154 464,154 468,154 472,151 475,150 479,147 483,147 487,147 490,145 494,145 498,145 501,144 505,142 509,142 512,142 516,142 520,142 523,142 527,142 531,142 534,142 538,142 542,141 545,141 549,141 553,141 556,141 560,141 564,140 568,140 571,140 575,139 579,139 582,138 586,138 590,135 593,132 597,129 601,125 604,122 608,118 612,116 615,113 619,111 623,108 626,106 630,103 634,101 637,99 641,98 645,96 649,95 652,93 656,91 660,88 663,87 667,81 671,78 674,77 678,75 682,73 685,72 689,71 693,71 696,70 700,69 704,68 707,65 711,59 715,55 718,53 722,51 726,51 730,50 730,250" fill="#e8e8e8" opacity="0.6"/>
<polyline points="60,250 63,250 67,250 71,250 74,250 78,250 82,250 85,250 89,250 93,250 96,250 100,250 104,250 107,250 111,250 115,250 118,250 122,250 126,250 129,250 133,250 137,250 140,250 144,247 148,247 152,247 155,247 159,247 163,246 166,244 170,243 174,242 177,234 181,234 185,234 188,232 192,225 196,223 199,222 203,222 207,222 210,222 214,213 218,213 221,212 225,212 229,212 233,212 236,212 240,212 244,212 247,212 251,212 255,212 258,212 262,212 266,211 269,211 273,211 277,211 280,211 284,211 288,209 291,207 295,206 299,201 302,200 306,200 310,200 314,200 317,200 321,200 325,200 328,200 332,200 336,200 339,200 343,199 347,199 350,199 354,196 358,195 361,195 365,191 369,190 372,190 376,190 380,180 383,180 387,180 391,173 395,165 398,159 402,159 406,158 409,158 413,158 417,157 420,157 424,157 428,157 431,157 435,157 439,157 442,157 446,156 450,156 453,156 457,154 461,154 464,154 468,154 472,151 475,150 479,147 483,147 487,147 490,145 494,145 498,145 501,144 505,142 509,142 512,142 516,142 520,142 523,142 527,142 531,142 534,142 538,142 542,141 545,141 549,141 553,141 556,141 560,141 564,140 568,140 571,140 575,139 579,139 582,138 586,138 590,135 593,132 597,129 601,125 604,122 608,118 612,116 615,113 619,111 623,108 626,106 630,103 634,101 637,99 641,98 645,96 649,95 652,93 656,91 660,88 663,87 667,81 671,78 674,77 678,75 682,73 685,72 689,71 693,71 696,70 700,69 704,68 707,65 711,59 715,55 718,53 722,51 726,51 730,50" fill="none" stroke="#111111" stroke-width="2.4" stroke-linejoin="round" stroke-linecap="round" filter="url(#pline)"/>
<circle cx="730" cy="50" r="4" fill="#111111" filter="url(#pencil)"/>
<text x="724" y="42" text-anchor="end" font-size="10" font-family="Georgia,serif" fill="#111111">749K</text>
<text x="60" y="289" font-size="9" font-family="Georgia,serif" fill="#888888">기준: 2026-06-26 17:10</text>
</svg>