<svg xmlns="http://www.w3.org/2000/svg" width="760" height="295">
<defs><filter id="pencil" x="-5%" y="-5%" width="110%" height="110%"><feTurbulence type="fractalNoise" baseFrequency="0.9" numOctaves="4" seed="5" result="noise"/><feDisplacementMap in="SourceGraphic" in2="noise" scale="1.6" xChannelSelector="R" yChannelSelector="G"/></filter><filter id="pline" x="-2%" y="-30%" width="104%" height="160%"><feTurbulence type="fractalNoise" baseFrequency="0.015 0.9" numOctaves="3" seed="11" result="noise"/><feDisplacementMap in="SourceGraphic" in2="noise" scale="1.8" xChannelSelector="R" yChannelSelector="G"/></filter><filter id="rough" x="-5%" y="-5%" width="110%" height="110%"><feTurbulence type="turbulence" baseFrequency="0.05" numOctaves="2" seed="2" result="noise"/><feDisplacementMap in="SourceGraphic" in2="noise" scale="2" xChannelSelector="R" yChannelSelector="G"/></filter></defs>
<rect width="760" height="295" fill="#ffffff"/>
<text x="380" y="32" text-anchor="middle" font-size="14" font-weight="bold" font-family="Georgia,serif" fill="#111111" filter="url(#pencil)">Workload (6 months)</text>
<line x1="60" y1="250" x2="730" y2="250" stroke="#cccccc" stroke-width="0.7" stroke-dasharray="4,5" filter="url(#rough)"/>
<text x="54" y="254" text-anchor="end" font-size="10" font-family="Georgia,serif" fill="#333333">0</text>
<line x1="60" y1="200" x2="730" y2="200" stroke="#cccccc" stroke-width="0.7" stroke-dasharray="4,5" filter="url(#rough)"/>
<text x="54" y="204" text-anchor="end" font-size="10" font-family="Georgia,serif" fill="#333333">116K</text>
<line x1="60" y1="150" x2="730" y2="150" stroke="#cccccc" stroke-width="0.7" stroke-dasharray="4,5" filter="url(#rough)"/>
<text x="54" y="154" text-anchor="end" font-size="10" font-family="Georgia,serif" fill="#333333">233K</text>
<line x1="60" y1="100" x2="730" y2="100" stroke="#cccccc" stroke-width="0.7" stroke-dasharray="4,5" filter="url(#rough)"/>
<text x="54" y="104" text-anchor="end" font-size="10" font-family="Georgia,serif" fill="#333333">349K</text>
<line x1="60" y1="50" x2="730" y2="50" stroke="#cccccc" stroke-width="0.7" stroke-dasharray="4,5" filter="url(#rough)"/>
<text x="54" y="54" text-anchor="end" font-size="10" font-family="Georgia,serif" fill="#333333">466K</text>
<text x="122" y="270" text-anchor="middle" font-size="11" font-family="Georgia,serif" fill="#333333" filter="url(#pencil)">1월</text>
<text x="236" y="270" text-anchor="middle" font-size="11" font-family="Georgia,serif" fill="#333333" filter="url(#pencil)">2월</text>
<text x="339" y="270" text-anchor="middle" font-size="11" font-family="Georgia,serif" fill="#333333" filter="url(#pencil)">3월</text>
<text x="453" y="270" text-anchor="middle" font-size="11" font-family="Georgia,serif" fill="#333333" filter="url(#pencil)">4월</text>
<text x="564" y="270" text-anchor="middle" font-size="11" font-family="Georgia,serif" fill="#333333" filter="url(#pencil)">5월</text>
<text x="678" y="270" text-anchor="middle" font-size="11" font-family="Georgia,serif" fill="#333333" filter="url(#pencil)">6월</text>
<line x1="59" y1="42" x2="59" y2="256" stroke="#111111" stroke-width="2" filter="url(#pline)"/>
<line x1="52" y1="251" x2="738" y2="251" stroke="#111111" stroke-width="2" filter="url(#pline)"/>
<polygon points="60,250 60,250 63,250 67,250 71,250 74,229 78,229 82,229 85,229 89,229 93,224 96,224 100,224 104,224 107,224 111,224 115,224 118,224 122,224 126,224 129,224 133,224 137,224 140,224 144,224 148,224 152,224 155,224 159,224 163,224 166,224 170,224 174,224 177,224 181,224 185,220 188,220 192,220 196,219 199,219 203,219 207,216 210,215 214,214 218,205 221,205 225,205 229,203 233,194 236,192 240,191 244,191 247,191 251,190 255,180 258,180 262,179 266,179 269,179 273,179 277,179 280,179 284,179 288,179 291,179 295,179 299,179 302,179 306,177 310,177 314,177 317,177 321,177 325,177 328,175 332,173 336,172 339,166 343,165 347,165 350,164 354,164 358,164 361,164 365,164 369,164 372,164 376,164 380,164 383,163 387,163 391,163 395,160 398,159 402,159 406,154 409,153 413,153 417,153 420,141 424,141 428,141 431,134 435,124 439,117 442,116 446,115 450,115 453,115 457,115 461,115 464,115 468,115 472,115 475,115 479,115 483,115 487,114 490,114 494,114 498,114 501,114 505,114 509,114 512,112 516,110 520,110 523,110 527,110 531,110 534,110 538,110 542,110 545,110 549,110 553,110 556,110 560,110 564,110 568,110 571,110 575,110 579,110 582,109 586,109 590,109 593,109 597,109 601,109 604,108 608,108 612,108 615,108 619,108 623,107 626,107 630,103 634,100 637,97 641,94 645,90 649,86 652,83 656,81 660,78 663,76 667,74 671,71 674,69 678,67 682,66 685,65 689,63 693,62 696,60 700,59 704,58 707,54 711,52 715,52 718,51 722,51 726,51 730,50 730,250" fill="#e8e8e8" opacity="0.6"/>
<polyline points="60,250 63,250 67,250 71,250 74,229 78,229 82,229 85,229 89,229 93,224 96,224 100,224 104,224 107,224 111,224 115,224 118,224 122,224 126,224 129,224 133,224 137,224 140,224 144,224 148,224 152,224 155,224 159,224 163,224 166,224 170,224 174,224 177,224 181,224 185,220 188,220 192,220 196,219 199,219 203,219 207,216 210,215 214,214 218,205 221,205 225,205 229,203 233,194 236,192 240,191 244,191 247,191 251,190 255,180 258,180 262,179 266,179 269,179 273,179 277,179 280,179 284,179 288,179 291,179 295,179 299,179 302,179 306,177 310,177 314,177 317,177 321,177 325,177 328,175 332,173 336,172 339,166 343,165 347,165 350,164 354,164 358,164 361,164 365,164 369,164 372,164 376,164 380,164 383,163 387,163 391,163 395,160 398,159 402,159 406,154 409,153 413,153 417,153 420,141 424,141 428,141 431,134 435,124 439,117 442,116 446,115 450,115 453,115 457,115 461,115 464,115 468,115 472,115 475,115 479,115 483,115 487,114 490,114 494,114 498,114 501,114 505,114 509,114 512,112 516,110 520,110 523,110 527,110 531,110 534,110 538,110 542,110 545,110 549,110 553,110 556,110 560,110 564,110 568,110 571,110 575,110 579,110 582,109 586,109 590,109 593,109 597,109 601,109 604,108 608,108 612,108 615,108 619,108 623,107 626,107 630,103 634,100 637,97 641,94 645,90 649,86 652,83 656,81 660,78 663,76 667,74 671,71 674,69 678,67 682,66 685,65 689,63 693,62 696,60 700,59 704,58 707,54 711,52 715,52 718,51 722,51 726,51 730,50" fill="none" stroke="#111111" stroke-width="2.4" stroke-linejoin="round" stroke-linecap="round" filter="url(#pline)"/>
<circle cx="730" cy="50" r="4" fill="#111111" filter="url(#pencil)"/>
<text x="724" y="42" text-anchor="end" font-size="10" font-family="Georgia,serif" fill="#111111">466K</text>
<text x="60" y="289" font-size="9" font-family="Georgia,serif" fill="#888888">기준: 2026-06-15 23:11</text>
</svg>