<svg xmlns="http://www.w3.org/2000/svg" width="760" height="295">
<defs><filter id="pencil" x="-5%" y="-5%" width="110%" height="110%"><feTurbulence type="fractalNoise" baseFrequency="0.9" numOctaves="4" seed="5" result="noise"/><feDisplacementMap in="SourceGraphic" in2="noise" scale="1.6" xChannelSelector="R" yChannelSelector="G"/></filter><filter id="pline" x="-2%" y="-30%" width="104%" height="160%"><feTurbulence type="fractalNoise" baseFrequency="0.015 0.9" numOctaves="3" seed="11" result="noise"/><feDisplacementMap in="SourceGraphic" in2="noise" scale="1.8" xChannelSelector="R" yChannelSelector="G"/></filter><filter id="rough" x="-5%" y="-5%" width="110%" height="110%"><feTurbulence type="turbulence" baseFrequency="0.05" numOctaves="2" seed="2" result="noise"/><feDisplacementMap in="SourceGraphic" in2="noise" scale="2" xChannelSelector="R" yChannelSelector="G"/></filter></defs>
<rect width="760" height="295" fill="#ffffff"/>
<text x="380" y="32" text-anchor="middle" font-size="14" font-weight="bold" font-family="Georgia,serif" fill="#111111" filter="url(#pencil)">Workload (6 months)</text>
<line x1="60" y1="250" x2="730" y2="250" stroke="#cccccc" stroke-width="0.7" stroke-dasharray="4,5" filter="url(#rough)"/>
<text x="54" y="254" text-anchor="end" font-size="10" font-family="Georgia,serif" fill="#333333">0</text>
<line x1="60" y1="201" x2="730" y2="201" stroke="#cccccc" stroke-width="0.7" stroke-dasharray="4,5" filter="url(#rough)"/>
<text x="54" y="205" text-anchor="end" font-size="10" font-family="Georgia,serif" fill="#333333">3K</text>
<line x1="60" y1="150" x2="730" y2="150" stroke="#cccccc" stroke-width="0.7" stroke-dasharray="4,5" filter="url(#rough)"/>
<text x="54" y="154" text-anchor="end" font-size="10" font-family="Georgia,serif" fill="#333333">6K</text>
<line x1="60" y1="101" x2="730" y2="101" stroke="#cccccc" stroke-width="0.7" stroke-dasharray="4,5" filter="url(#rough)"/>
<text x="54" y="105" text-anchor="end" font-size="10" font-family="Georgia,serif" fill="#333333">10K</text>
<line x1="60" y1="50" x2="730" y2="50" stroke="#cccccc" stroke-width="0.7" stroke-dasharray="4,5" filter="url(#rough)"/>
<text x="54" y="54" text-anchor="end" font-size="10" font-family="Georgia,serif" fill="#333333">13K</text>
<text x="107" y="270" text-anchor="middle" font-size="11" font-family="Georgia,serif" fill="#333333" filter="url(#pencil)">12월</text>
<text x="221" y="270" text-anchor="middle" font-size="11" font-family="Georgia,serif" fill="#333333" filter="url(#pencil)">1월</text>
<text x="336" y="270" text-anchor="middle" font-size="11" font-family="Georgia,serif" fill="#333333" filter="url(#pencil)">2월</text>
<text x="439" y="270" text-anchor="middle" font-size="11" font-family="Georgia,serif" fill="#333333" filter="url(#pencil)">3월</text>
<text x="553" y="270" text-anchor="middle" font-size="11" font-family="Georgia,serif" fill="#333333" filter="url(#pencil)">4월</text>
<text x="663" y="270" text-anchor="middle" font-size="11" font-family="Georgia,serif" fill="#333333" filter="url(#pencil)">5월</text>
<line x1="59" y1="42" x2="59" y2="256" stroke="#111111" stroke-width="2" filter="url(#pline)"/>
<line x1="52" y1="251" x2="738" y2="251" stroke="#111111" stroke-width="2" filter="url(#pline)"/>
<polygon points="60,250 60,249 63,248 67,247 71,246 74,240 78,239 82,238 85,236 89,234 93,234 96,234 100,234 104,234 107,234 111,234 115,233 118,233 122,233 126,229 129,229 133,212 137,212 140,212 144,212 148,180 152,180 155,180 159,180 163,180 166,180 170,180 174,161 177,161 181,161 185,161 188,161 192,156 196,156 199,156 203,156 207,156 210,156 214,156 218,156 221,156 225,156 229,156 233,156 236,156 240,156 244,156 247,156 251,156 255,156 258,156 262,156 266,156 269,156 273,156 277,156 280,156 284,152 288,152 291,152 295,152 299,152 302,151 306,149 310,148 314,146 317,139 321,139 325,139 328,137 332,129 336,127 339,126 343,126 347,126 350,126 354,117 358,116 361,116 365,116 369,116 372,116 376,116 380,116 383,116 387,116 391,116 395,116 398,116 402,116 406,114 409,114 413,114 417,114 420,114 424,114 428,112 431,110 435,109 439,104 442,103 446,103 450,102 453,102 457,102 461,102 464,102 468,102 472,102 475,102 479,102 483,101 487,101 490,101 494,98 498,97 501,97 505,93 509,92 512,92 516,92 520,82 523,82 527,82 531,75 534,66 538,60 542,59 545,58 549,58 553,58 556,58 560,58 564,58 568,58 571,58 575,58 579,58 582,58 586,58 590,58 593,58 597,58 601,58 604,58 608,58 612,55 615,54 619,54 623,54 626,54 630,54 634,54 637,54 641,54 645,54 649,54 652,54 656,54 660,54 663,54 667,54 671,53 674,53 678,53 682,52 685,52 689,52 693,52 696,52 700,52 704,52 707,52 711,52 715,52 718,52 722,51 726,51 730,50 730,250" fill="#e8e8e8" opacity="0.6"/>
<polyline points="60,249 63,248 67,247 71,246 74,240 78,239 82,238 85,236 89,234 93,234 96,234 100,234 104,234 107,234 111,234 115,233 118,233 122,233 126,229 129,229 133,212 137,212 140,212 144,212 148,180 152,180 155,180 159,180 163,180 166,180 170,180 174,161 177,161 181,161 185,161 188,161 192,156 196,156 199,156 203,156 207,156 210,156 214,156 218,156 221,156 225,156 229,156 233,156 236,156 240,156 244,156 247,156 251,156 255,156 258,156 262,156 266,156 269,156 273,156 277,156 280,156 284,152 288,152 291,152 295,152 299,152 302,151 306,149 310,148 314,146 317,139 321,139 325,139 328,137 332,129 336,127 339,126 343,126 347,126 350,126 354,117 358,116 361,116 365,116 369,116 372,116 376,116 380,116 383,116 387,116 391,116 395,116 398,116 402,116 406,114 409,114 413,114 417,114 420,114 424,114 428,112 431,110 435,109 439,104 442,103 446,103 450,102 453,102 457,102 461,102 464,102 468,102 472,102 475,102 479,102 483,101 487,101 490,101 494,98 498,97 501,97 505,93 509,92 512,92 516,92 520,82 523,82 527,82 531,75 534,66 538,60 542,59 545,58 549,58 553,58 556,58 560,58 564,58 568,58 571,58 575,58 579,58 582,58 586,58 590,58 593,58 597,58 601,58 604,58 608,58 612,55 615,54 619,54 623,54 626,54 630,54 634,54 637,54 641,54 645,54 649,54 652,54 656,54 660,54 663,54 667,54 671,53 674,53 678,53 682,52 685,52 689,52 693,52 696,52 700,52 704,52 707,52 711,52 715,52 718,52 722,51 726,51 730,50" fill="none" stroke="#111111" stroke-width="2.4" stroke-linejoin="round" stroke-linecap="round" filter="url(#pline)"/>
<circle cx="730" cy="50" r="4" fill="#111111" filter="url(#pencil)"/>
<text x="724" y="42" text-anchor="end" font-size="10" font-family="Georgia,serif" fill="#111111">13K</text>
<text x="60" y="289" font-size="9" font-family="Georgia,serif" fill="#888888">기준: 2026-05-19 15:53</text>
</svg>