<svg xmlns="http://www.w3.org/2000/svg" width="760" height="295">
<defs><filter id="pencil" x="-5%" y="-5%" width="110%" height="110%"><feTurbulence type="fractalNoise" baseFrequency="0.9" numOctaves="4" seed="5" result="noise"/><feDisplacementMap in="SourceGraphic" in2="noise" scale="1.6" xChannelSelector="R" yChannelSelector="G"/></filter><filter id="pline" x="-2%" y="-30%" width="104%" height="160%"><feTurbulence type="fractalNoise" baseFrequency="0.015 0.9" numOctaves="3" seed="11" result="noise"/><feDisplacementMap in="SourceGraphic" in2="noise" scale="1.8" xChannelSelector="R" yChannelSelector="G"/></filter><filter id="rough" x="-5%" y="-5%" width="110%" height="110%"><feTurbulence type="turbulence" baseFrequency="0.05" numOctaves="2" seed="2" result="noise"/><feDisplacementMap in="SourceGraphic" in2="noise" scale="2" xChannelSelector="R" yChannelSelector="G"/></filter></defs>
<rect width="760" height="295" fill="#ffffff"/>
<text x="380" y="32" text-anchor="middle" font-size="14" font-weight="bold" font-family="Georgia,serif" fill="#111111" filter="url(#pencil)">Workload (6 months)</text>
<line x1="60" y1="250" x2="730" y2="250" stroke="#cccccc" stroke-width="0.7" stroke-dasharray="4,5" filter="url(#rough)"/>
<text x="54" y="254" text-anchor="end" font-size="10" font-family="Georgia,serif" fill="#333333">0</text>
<line x1="60" y1="200" x2="730" y2="200" stroke="#cccccc" stroke-width="0.7" stroke-dasharray="4,5" filter="url(#rough)"/>
<text x="54" y="204" text-anchor="end" font-size="10" font-family="Georgia,serif" fill="#333333">14K</text>
<line x1="60" y1="150" x2="730" y2="150" stroke="#cccccc" stroke-width="0.7" stroke-dasharray="4,5" filter="url(#rough)"/>
<text x="54" y="154" text-anchor="end" font-size="10" font-family="Georgia,serif" fill="#333333">28K</text>
<line x1="60" y1="100" x2="730" y2="100" stroke="#cccccc" stroke-width="0.7" stroke-dasharray="4,5" filter="url(#rough)"/>
<text x="54" y="104" text-anchor="end" font-size="10" font-family="Georgia,serif" fill="#333333">42K</text>
<line x1="60" y1="50" x2="730" y2="50" stroke="#cccccc" stroke-width="0.7" stroke-dasharray="4,5" filter="url(#rough)"/>
<text x="54" y="54" text-anchor="end" font-size="10" font-family="Georgia,serif" fill="#333333">56K</text>
<text x="100" y="270" text-anchor="middle" font-size="11" font-family="Georgia,serif" fill="#333333" filter="url(#pencil)">12월</text>
<text x="214" y="270" text-anchor="middle" font-size="11" font-family="Georgia,serif" fill="#333333" filter="url(#pencil)">1월</text>
<text x="328" y="270" text-anchor="middle" font-size="11" font-family="Georgia,serif" fill="#333333" filter="url(#pencil)">2월</text>
<text x="431" y="270" text-anchor="middle" font-size="11" font-family="Georgia,serif" fill="#333333" filter="url(#pencil)">3월</text>
<text x="545" y="270" text-anchor="middle" font-size="11" font-family="Georgia,serif" fill="#333333" filter="url(#pencil)">4월</text>
<text x="656" y="270" text-anchor="middle" font-size="11" font-family="Georgia,serif" fill="#333333" filter="url(#pencil)">5월</text>
<line x1="59" y1="42" x2="59" y2="256" stroke="#111111" stroke-width="2" filter="url(#pline)"/>
<line x1="52" y1="251" x2="738" y2="251" stroke="#111111" stroke-width="2" filter="url(#pline)"/>
<polygon points="60,250 60,250 63,249 67,242 71,241 74,240 78,238 82,236 85,236 89,236 93,236 96,236 100,236 104,236 107,236 111,236 115,235 118,231 122,231 126,214 129,214 133,214 137,214 140,182 144,182 148,182 152,182 155,182 159,182 163,182 166,164 170,164 174,164 177,164 181,164 185,159 188,159 192,159 196,159 199,159 203,159 207,159 210,159 214,159 218,159 221,159 225,159 229,159 233,159 236,159 240,159 244,159 247,159 251,159 255,159 258,159 262,159 266,159 269,159 273,159 277,155 280,155 284,155 288,155 291,155 295,154 299,152 302,151 306,150 310,142 314,142 317,142 321,140 325,132 328,130 332,129 336,129 339,129 343,129 347,120 350,119 354,119 358,119 361,119 365,119 369,119 372,119 376,119 380,119 383,119 387,119 391,119 395,119 398,117 402,117 406,117 409,117 413,117 417,117 420,115 424,114 428,113 431,108 435,106 439,106 442,106 446,106 450,106 453,106 457,106 461,106 464,106 468,106 472,106 475,105 479,105 483,105 487,102 490,101 494,101 498,96 501,96 505,96 509,96 512,85 516,85 520,85 523,79 527,70 531,64 534,63 538,62 542,62 545,62 549,62 553,62 556,62 560,62 564,62 568,62 571,62 575,62 579,61 582,61 586,61 590,61 593,61 597,61 601,61 604,59 608,58 612,58 615,58 619,58 623,58 626,58 630,58 634,58 637,58 641,58 645,58 649,58 652,58 656,58 660,58 663,57 667,57 671,57 674,56 678,56 682,56 685,56 689,56 693,56 696,56 700,56 704,56 707,56 711,56 715,55 718,55 722,52 726,51 730,50 730,250" fill="#e8e8e8" opacity="0.6"/>
<polyline points="60,250 63,249 67,242 71,241 74,240 78,238 82,236 85,236 89,236 93,236 96,236 100,236 104,236 107,236 111,236 115,235 118,231 122,231 126,214 129,214 133,214 137,214 140,182 144,182 148,182 152,182 155,182 159,182 163,182 166,164 170,164 174,164 177,164 181,164 185,159 188,159 192,159 196,159 199,159 203,159 207,159 210,159 214,159 218,159 221,159 225,159 229,159 233,159 236,159 240,159 244,159 247,159 251,159 255,159 258,159 262,159 266,159 269,159 273,159 277,155 280,155 284,155 288,155 291,155 295,154 299,152 302,151 306,150 310,142 314,142 317,142 321,140 325,132 328,130 332,129 336,129 339,129 343,129 347,120 350,119 354,119 358,119 361,119 365,119 369,119 372,119 376,119 380,119 383,119 387,119 391,119 395,119 398,117 402,117 406,117 409,117 413,117 417,117 420,115 424,114 428,113 431,108 435,106 439,106 442,106 446,106 450,106 453,106 457,106 461,106 464,106 468,106 472,106 475,105 479,105 483,105 487,102 490,101 494,101 498,96 501,96 505,96 509,96 512,85 516,85 520,85 523,79 527,70 531,64 534,63 538,62 542,62 545,62 549,62 553,62 556,62 560,62 564,62 568,62 571,62 575,62 579,61 582,61 586,61 590,61 593,61 597,61 601,61 604,59 608,58 612,58 615,58 619,58 623,58 626,58 630,58 634,58 637,58 641,58 645,58 649,58 652,58 656,58 660,58 663,57 667,57 671,57 674,56 678,56 682,56 685,56 689,56 693,56 696,56 700,56 704,56 707,56 711,56 715,55 718,55 722,52 726,51 730,50" fill="none" stroke="#111111" stroke-width="2.4" stroke-linejoin="round" stroke-linecap="round" filter="url(#pline)"/>
<circle cx="730" cy="50" r="4" fill="#111111" filter="url(#pencil)"/>
<text x="724" y="42" text-anchor="end" font-size="10" font-family="Georgia,serif" fill="#111111">56K</text>
<text x="60" y="289" font-size="9" font-family="Georgia,serif" fill="#888888">기준: 2026-05-21 22:43</text>
</svg>