<svg xmlns="http://www.w3.org/2000/svg" width="760" height="295">
<defs><filter id="pencil" x="-5%" y="-5%" width="110%" height="110%"><feTurbulence type="fractalNoise" baseFrequency="0.9" numOctaves="4" seed="5" result="noise"/><feDisplacementMap in="SourceGraphic" in2="noise" scale="1.6" xChannelSelector="R" yChannelSelector="G"/></filter><filter id="pline" x="-2%" y="-30%" width="104%" height="160%"><feTurbulence type="fractalNoise" baseFrequency="0.015 0.9" numOctaves="3" seed="11" result="noise"/><feDisplacementMap in="SourceGraphic" in2="noise" scale="1.8" xChannelSelector="R" yChannelSelector="G"/></filter><filter id="rough" x="-5%" y="-5%" width="110%" height="110%"><feTurbulence type="turbulence" baseFrequency="0.05" numOctaves="2" seed="2" result="noise"/><feDisplacementMap in="SourceGraphic" in2="noise" scale="2" xChannelSelector="R" yChannelSelector="G"/></filter></defs>
<rect width="760" height="295" fill="#ffffff"/>
<text x="380" y="32" text-anchor="middle" font-size="14" font-weight="bold" font-family="Georgia,serif" fill="#111111" filter="url(#pencil)">Workload (6 months)</text>
<line x1="60" y1="250" x2="730" y2="250" stroke="#cccccc" stroke-width="0.7" stroke-dasharray="4,5" filter="url(#rough)"/>
<text x="54" y="254" text-anchor="end" font-size="10" font-family="Georgia,serif" fill="#333333">0</text>
<line x1="60" y1="201" x2="730" y2="201" stroke="#cccccc" stroke-width="0.7" stroke-dasharray="4,5" filter="url(#rough)"/>
<text x="54" y="205" text-anchor="end" font-size="10" font-family="Georgia,serif" fill="#333333">114K</text>
<line x1="60" y1="151" x2="730" y2="151" stroke="#cccccc" stroke-width="0.7" stroke-dasharray="4,5" filter="url(#rough)"/>
<text x="54" y="155" text-anchor="end" font-size="10" font-family="Georgia,serif" fill="#333333">228K</text>
<line x1="60" y1="101" x2="730" y2="101" stroke="#cccccc" stroke-width="0.7" stroke-dasharray="4,5" filter="url(#rough)"/>
<text x="54" y="105" text-anchor="end" font-size="10" font-family="Georgia,serif" fill="#333333">342K</text>
<line x1="60" y1="50" x2="730" y2="50" stroke="#cccccc" stroke-width="0.7" stroke-dasharray="4,5" filter="url(#rough)"/>
<text x="54" y="54" text-anchor="end" font-size="10" font-family="Georgia,serif" fill="#333333">456K</text>
<text x="133" y="270" text-anchor="middle" font-size="11" font-family="Georgia,serif" fill="#333333" filter="url(#pencil)">1월</text>
<text x="247" y="270" text-anchor="middle" font-size="11" font-family="Georgia,serif" fill="#333333" filter="url(#pencil)">2월</text>
<text x="350" y="270" text-anchor="middle" font-size="11" font-family="Georgia,serif" fill="#333333" filter="url(#pencil)">3월</text>
<text x="464" y="270" text-anchor="middle" font-size="11" font-family="Georgia,serif" fill="#333333" filter="url(#pencil)">4월</text>
<text x="575" y="270" text-anchor="middle" font-size="11" font-family="Georgia,serif" fill="#333333" filter="url(#pencil)">5월</text>
<text x="689" y="270" text-anchor="middle" font-size="11" font-family="Georgia,serif" fill="#333333" filter="url(#pencil)">6월</text>
<line x1="59" y1="42" x2="59" y2="256" stroke="#111111" stroke-width="2" filter="url(#pline)"/>
<line x1="52" y1="251" x2="738" y2="251" stroke="#111111" stroke-width="2" filter="url(#pline)"/>
<polygon points="60,250 60,219 63,219 67,219 71,219 74,219 78,219 82,219 85,200 89,200 93,200 96,200 100,200 104,196 107,196 111,196 115,196 118,196 122,196 126,196 129,196 133,196 137,196 140,196 144,196 148,196 152,196 155,196 159,196 163,196 166,196 170,196 174,196 177,196 181,196 185,196 188,196 192,196 196,192 199,192 203,192 207,191 210,191 214,191 218,189 221,188 225,186 229,179 233,179 236,179 240,177 244,169 247,167 251,166 255,166 258,166 262,166 266,157 269,156 273,156 277,156 280,156 284,156 288,156 291,156 295,156 299,156 302,156 306,156 310,156 314,156 317,154 321,154 325,154 328,154 332,154 336,154 339,152 343,150 347,149 350,145 354,143 358,143 361,143 365,143 369,143 372,143 376,143 380,143 383,143 387,143 391,143 395,142 398,142 402,142 406,139 409,138 413,138 417,133 420,133 424,133 428,133 431,122 435,122 439,122 442,116 446,107 450,101 453,100 457,99 461,99 464,99 468,99 472,99 475,99 479,99 483,99 487,99 490,99 494,99 498,99 501,99 505,99 509,99 512,99 516,99 520,99 523,96 527,95 531,95 534,95 538,95 542,95 545,95 549,95 553,95 556,95 560,95 564,95 568,95 571,95 575,95 579,95 582,94 586,94 590,94 593,93 597,93 601,93 604,93 608,93 612,93 615,93 619,93 623,93 626,93 630,93 634,92 637,92 641,89 645,86 649,83 652,80 656,77 660,73 663,71 667,69 671,67 674,65 678,64 682,62 685,60 689,59 693,58 696,57 700,56 704,55 707,54 711,53 715,53 718,51 722,51 726,50 730,50 730,250" fill="#e8e8e8" opacity="0.6"/>
<polyline points="60,219 63,219 67,219 71,219 74,219 78,219 82,219 85,200 89,200 93,200 96,200 100,200 104,196 107,196 111,196 115,196 118,196 122,196 126,196 129,196 133,196 137,196 140,196 144,196 148,196 152,196 155,196 159,196 163,196 166,196 170,196 174,196 177,196 181,196 185,196 188,196 192,196 196,192 199,192 203,192 207,191 210,191 214,191 218,189 221,188 225,186 229,179 233,179 236,179 240,177 244,169 247,167 251,166 255,166 258,166 262,166 266,157 269,156 273,156 277,156 280,156 284,156 288,156 291,156 295,156 299,156 302,156 306,156 310,156 314,156 317,154 321,154 325,154 328,154 332,154 336,154 339,152 343,150 347,149 350,145 354,143 358,143 361,143 365,143 369,143 372,143 376,143 380,143 383,143 387,143 391,143 395,142 398,142 402,142 406,139 409,138 413,138 417,133 420,133 424,133 428,133 431,122 435,122 439,122 442,116 446,107 450,101 453,100 457,99 461,99 464,99 468,99 472,99 475,99 479,99 483,99 487,99 490,99 494,99 498,99 501,99 505,99 509,99 512,99 516,99 520,99 523,96 527,95 531,95 534,95 538,95 542,95 545,95 549,95 553,95 556,95 560,95 564,95 568,95 571,95 575,95 579,95 582,94 586,94 590,94 593,93 597,93 601,93 604,93 608,93 612,93 615,93 619,93 623,93 626,93 630,93 634,92 637,92 641,89 645,86 649,83 652,80 656,77 660,73 663,71 667,69 671,67 674,65 678,64 682,62 685,60 689,59 693,58 696,57 700,56 704,55 707,54 711,53 715,53 718,51 722,51 726,50 730,50" fill="none" stroke="#111111" stroke-width="2.4" stroke-linejoin="round" stroke-linecap="round" filter="url(#pline)"/>
<circle cx="730" cy="50" r="4" fill="#111111" filter="url(#pencil)"/>
<text x="724" y="42" text-anchor="end" font-size="10" font-family="Georgia,serif" fill="#111111">456K</text>
<text x="60" y="289" font-size="9" font-family="Georgia,serif" fill="#888888">기준: 2026-06-12 05:07</text>
</svg>