<svg xmlns="http://www.w3.org/2000/svg" width="760" height="295">
<defs><filter id="pencil" x="-5%" y="-5%" width="110%" height="110%"><feTurbulence type="fractalNoise" baseFrequency="0.9" numOctaves="4" seed="5" result="noise"/><feDisplacementMap in="SourceGraphic" in2="noise" scale="1.6" xChannelSelector="R" yChannelSelector="G"/></filter><filter id="pline" x="-2%" y="-30%" width="104%" height="160%"><feTurbulence type="fractalNoise" baseFrequency="0.015 0.9" numOctaves="3" seed="11" result="noise"/><feDisplacementMap in="SourceGraphic" in2="noise" scale="1.8" xChannelSelector="R" yChannelSelector="G"/></filter><filter id="rough" x="-5%" y="-5%" width="110%" height="110%"><feTurbulence type="turbulence" baseFrequency="0.05" numOctaves="2" seed="2" result="noise"/><feDisplacementMap in="SourceGraphic" in2="noise" scale="2" xChannelSelector="R" yChannelSelector="G"/></filter></defs>
<rect width="760" height="295" fill="#ffffff"/>
<text x="380" y="32" text-anchor="middle" font-size="14" font-weight="bold" font-family="Georgia,serif" fill="#111111" filter="url(#pencil)">Workload (6 months)</text>
<line x1="60" y1="250" x2="730" y2="250" stroke="#cccccc" stroke-width="0.7" stroke-dasharray="4,5" filter="url(#rough)"/>
<text x="54" y="254" text-anchor="end" font-size="10" font-family="Georgia,serif" fill="#333333">0</text>
<line x1="60" y1="200" x2="730" y2="200" stroke="#cccccc" stroke-width="0.7" stroke-dasharray="4,5" filter="url(#rough)"/>
<text x="54" y="204" text-anchor="end" font-size="10" font-family="Georgia,serif" fill="#333333">291K</text>
<line x1="60" y1="150" x2="730" y2="150" stroke="#cccccc" stroke-width="0.7" stroke-dasharray="4,5" filter="url(#rough)"/>
<text x="54" y="154" text-anchor="end" font-size="10" font-family="Georgia,serif" fill="#333333">583K</text>
<line x1="60" y1="100" x2="730" y2="100" stroke="#cccccc" stroke-width="0.7" stroke-dasharray="4,5" filter="url(#rough)"/>
<text x="54" y="104" text-anchor="end" font-size="10" font-family="Georgia,serif" fill="#333333">874K</text>
<line x1="60" y1="50" x2="730" y2="50" stroke="#cccccc" stroke-width="0.7" stroke-dasharray="4,5" filter="url(#rough)"/>
<text x="54" y="54" text-anchor="end" font-size="10" font-family="Georgia,serif" fill="#333333">1166K</text>
<text x="166" y="270" text-anchor="middle" font-size="11" font-family="Georgia,serif" fill="#333333" filter="url(#pencil)">2월</text>
<text x="269" y="270" text-anchor="middle" font-size="11" font-family="Georgia,serif" fill="#333333" filter="url(#pencil)">3월</text>
<text x="383" y="270" text-anchor="middle" font-size="11" font-family="Georgia,serif" fill="#333333" filter="url(#pencil)">4월</text>
<text x="494" y="270" text-anchor="middle" font-size="11" font-family="Georgia,serif" fill="#333333" filter="url(#pencil)">5월</text>
<text x="608" y="270" text-anchor="middle" font-size="11" font-family="Georgia,serif" fill="#333333" filter="url(#pencil)">6월</text>
<text x="718" y="270" text-anchor="middle" font-size="11" font-family="Georgia,serif" fill="#333333" filter="url(#pencil)">7월</text>
<line x1="59" y1="42" x2="59" y2="256" stroke="#111111" stroke-width="2" filter="url(#pline)"/>
<line x1="52" y1="251" x2="738" y2="251" stroke="#111111" stroke-width="2" filter="url(#pline)"/>
<polygon points="60,250 60,250 63,250 67,250 71,250 74,250 78,250 82,250 85,250 89,250 93,250 96,250 100,250 104,250 107,250 111,250 115,248 118,248 122,248 126,247 129,247 133,247 137,245 140,245 144,243 148,238 152,238 155,238 159,236 163,230 166,229 170,228 174,228 177,228 181,228 185,221 188,221 192,221 196,221 199,221 203,221 207,221 210,221 214,221 218,221 221,221 225,221 229,221 233,221 236,219 240,219 244,219 247,219 251,219 255,219 258,218 262,216 266,216 269,212 273,211 277,211 280,211 284,211 288,211 291,211 295,211 299,211 302,211 306,211 310,211 314,210 317,210 321,210 325,207 328,207 332,207 336,204 339,203 343,203 347,203 350,195 354,195 358,195 361,190 365,184 369,179 372,178 376,178 380,178 383,178 387,177 391,177 395,177 398,177 402,177 406,177 409,177 413,177 417,176 420,176 424,176 428,172 431,172 435,172 439,172 442,170 446,169 450,165 453,165 457,165 461,162 464,162 468,161 472,160 475,158 479,157 483,157 487,157 490,157 494,157 498,157 501,157 505,157 509,157 512,156 516,156 520,156 523,156 527,156 531,156 534,156 538,156 542,156 545,154 549,154 553,154 556,153 560,151 564,148 568,146 571,142 575,139 579,137 582,135 586,133 590,130 593,128 597,126 601,124 604,122 608,121 612,119 615,118 619,116 623,115 626,113 630,110 634,109 637,104 641,100 645,99 649,98 652,95 656,94 660,93 663,92 667,91 671,90 674,88 678,85 682,74 685,67 689,61 693,56 696,54 700,53 704,53 707,52 711,51 715,51 718,51 722,51 726,50 730,50 730,250" fill="#e8e8e8" opacity="0.6"/>
<polyline points="60,250 63,250 67,250 71,250 74,250 78,250 82,250 85,250 89,250 93,250 96,250 100,250 104,250 107,250 111,250 115,248 118,248 122,248 126,247 129,247 133,247 137,245 140,245 144,243 148,238 152,238 155,238 159,236 163,230 166,229 170,228 174,228 177,228 181,228 185,221 188,221 192,221 196,221 199,221 203,221 207,221 210,221 214,221 218,221 221,221 225,221 229,221 233,221 236,219 240,219 244,219 247,219 251,219 255,219 258,218 262,216 266,216 269,212 273,211 277,211 280,211 284,211 288,211 291,211 295,211 299,211 302,211 306,211 310,211 314,210 317,210 321,210 325,207 328,207 332,207 336,204 339,203 343,203 347,203 350,195 354,195 358,195 361,190 365,184 369,179 372,178 376,178 380,178 383,178 387,177 391,177 395,177 398,177 402,177 406,177 409,177 413,177 417,176 420,176 424,176 428,172 431,172 435,172 439,172 442,170 446,169 450,165 453,165 457,165 461,162 464,162 468,161 472,160 475,158 479,157 483,157 487,157 490,157 494,157 498,157 501,157 505,157 509,157 512,156 516,156 520,156 523,156 527,156 531,156 534,156 538,156 542,156 545,154 549,154 553,154 556,153 560,151 564,148 568,146 571,142 575,139 579,137 582,135 586,133 590,130 593,128 597,126 601,124 604,122 608,121 612,119 615,118 619,116 623,115 626,113 630,110 634,109 637,104 641,100 645,99 649,98 652,95 656,94 660,93 663,92 667,91 671,90 674,88 678,85 682,74 685,67 689,61 693,56 696,54 700,53 704,53 707,52 711,51 715,51 718,51 722,51 726,50 730,50" fill="none" stroke="#111111" stroke-width="2.4" stroke-linejoin="round" stroke-linecap="round" filter="url(#pline)"/>
<circle cx="730" cy="50" r="4" fill="#111111" filter="url(#pencil)"/>
<text x="724" y="42" text-anchor="end" font-size="10" font-family="Georgia,serif" fill="#111111">1166K</text>
<text x="60" y="289" font-size="9" font-family="Georgia,serif" fill="#888888">기준: 2026-07-04 04:04</text>
</svg>