<svg xmlns="http://www.w3.org/2000/svg" width="760" height="295">
<defs><filter id="pencil" x="-5%" y="-5%" width="110%" height="110%"><feTurbulence type="fractalNoise" baseFrequency="0.9" numOctaves="4" seed="5" result="noise"/><feDisplacementMap in="SourceGraphic" in2="noise" scale="1.6" xChannelSelector="R" yChannelSelector="G"/></filter><filter id="pline" x="-2%" y="-30%" width="104%" height="160%"><feTurbulence type="fractalNoise" baseFrequency="0.015 0.9" numOctaves="3" seed="11" result="noise"/><feDisplacementMap in="SourceGraphic" in2="noise" scale="1.8" xChannelSelector="R" yChannelSelector="G"/></filter><filter id="rough" x="-5%" y="-5%" width="110%" height="110%"><feTurbulence type="turbulence" baseFrequency="0.05" numOctaves="2" seed="2" result="noise"/><feDisplacementMap in="SourceGraphic" in2="noise" scale="2" xChannelSelector="R" yChannelSelector="G"/></filter></defs>
<rect width="760" height="295" fill="#ffffff"/>
<text x="380" y="32" text-anchor="middle" font-size="14" font-weight="bold" font-family="Georgia,serif" fill="#111111" filter="url(#pencil)">Workload (6 months)</text>
<line x1="60" y1="250" x2="730" y2="250" stroke="#cccccc" stroke-width="0.7" stroke-dasharray="4,5" filter="url(#rough)"/>
<text x="54" y="254" text-anchor="end" font-size="10" font-family="Georgia,serif" fill="#333333">0</text>
<line x1="60" y1="201" x2="730" y2="201" stroke="#cccccc" stroke-width="0.7" stroke-dasharray="4,5" filter="url(#rough)"/>
<text x="54" y="205" text-anchor="end" font-size="10" font-family="Georgia,serif" fill="#333333">35K</text>
<line x1="60" y1="151" x2="730" y2="151" stroke="#cccccc" stroke-width="0.7" stroke-dasharray="4,5" filter="url(#rough)"/>
<text x="54" y="155" text-anchor="end" font-size="10" font-family="Georgia,serif" fill="#333333">71K</text>
<line x1="60" y1="101" x2="730" y2="101" stroke="#cccccc" stroke-width="0.7" stroke-dasharray="4,5" filter="url(#rough)"/>
<text x="54" y="105" text-anchor="end" font-size="10" font-family="Georgia,serif" fill="#333333">106K</text>
<line x1="60" y1="50" x2="730" y2="50" stroke="#cccccc" stroke-width="0.7" stroke-dasharray="4,5" filter="url(#rough)"/>
<text x="54" y="54" text-anchor="end" font-size="10" font-family="Georgia,serif" fill="#333333">142K</text>
<text x="82" y="270" text-anchor="middle" font-size="11" font-family="Georgia,serif" fill="#333333" filter="url(#pencil)">12월</text>
<text x="196" y="270" text-anchor="middle" font-size="11" font-family="Georgia,serif" fill="#333333" filter="url(#pencil)">1월</text>
<text x="310" y="270" text-anchor="middle" font-size="11" font-family="Georgia,serif" fill="#333333" filter="url(#pencil)">2월</text>
<text x="413" y="270" text-anchor="middle" font-size="11" font-family="Georgia,serif" fill="#333333" filter="url(#pencil)">3월</text>
<text x="527" y="270" text-anchor="middle" font-size="11" font-family="Georgia,serif" fill="#333333" filter="url(#pencil)">4월</text>
<text x="637" y="270" text-anchor="middle" font-size="11" font-family="Georgia,serif" fill="#333333" filter="url(#pencil)">5월</text>
<line x1="59" y1="42" x2="59" y2="256" stroke="#111111" stroke-width="2" filter="url(#pline)"/>
<line x1="52" y1="251" x2="738" y2="251" stroke="#111111" stroke-width="2" filter="url(#pline)"/>
<polygon points="60,250 60,248 63,247 67,247 71,247 74,247 78,247 82,247 85,246 89,246 93,246 96,246 100,241 104,241 107,224 111,224 115,224 118,224 122,192 126,192 129,192 133,192 137,192 140,192 144,192 148,173 152,173 155,173 159,173 163,173 166,168 170,168 174,168 177,168 181,168 185,168 188,168 192,168 196,168 199,168 203,168 207,168 210,168 214,168 218,168 221,168 225,168 229,168 233,168 236,168 240,168 244,168 247,168 251,168 255,168 258,164 262,164 266,164 269,164 273,164 277,164 280,161 284,160 288,159 291,151 295,151 299,151 302,149 306,141 310,139 314,138 317,138 321,138 325,138 328,129 332,128 336,128 339,128 343,128 347,128 350,128 354,128 358,128 361,128 365,128 369,128 372,128 376,128 380,126 383,126 387,126 391,126 395,126 398,126 402,124 406,122 409,121 413,116 417,115 420,115 424,115 428,115 431,115 435,115 439,115 442,115 446,115 450,115 453,115 457,113 461,113 464,113 468,110 472,109 475,109 479,105 483,104 487,104 490,104 494,94 498,94 501,94 505,87 509,78 512,72 516,71 520,70 523,70 527,70 531,70 534,70 538,70 542,70 545,70 549,70 553,70 556,70 560,70 564,70 568,70 571,70 575,70 579,70 582,70 586,67 590,66 593,66 597,66 601,66 604,66 608,66 612,66 615,66 619,66 623,66 626,66 630,66 634,66 637,66 641,66 645,65 649,65 652,65 656,64 660,64 663,64 667,64 671,64 674,64 678,64 682,64 685,64 689,64 693,64 696,63 700,63 704,60 707,57 711,55 715,53 718,52 722,51 726,50 730,50 730,250" fill="#e8e8e8" opacity="0.6"/>
<polyline points="60,248 63,247 67,247 71,247 74,247 78,247 82,247 85,246 89,246 93,246 96,246 100,241 104,241 107,224 111,224 115,224 118,224 122,192 126,192 129,192 133,192 137,192 140,192 144,192 148,173 152,173 155,173 159,173 163,173 166,168 170,168 174,168 177,168 181,168 185,168 188,168 192,168 196,168 199,168 203,168 207,168 210,168 214,168 218,168 221,168 225,168 229,168 233,168 236,168 240,168 244,168 247,168 251,168 255,168 258,164 262,164 266,164 269,164 273,164 277,164 280,161 284,160 288,159 291,151 295,151 299,151 302,149 306,141 310,139 314,138 317,138 321,138 325,138 328,129 332,128 336,128 339,128 343,128 347,128 350,128 354,128 358,128 361,128 365,128 369,128 372,128 376,128 380,126 383,126 387,126 391,126 395,126 398,126 402,124 406,122 409,121 413,116 417,115 420,115 424,115 428,115 431,115 435,115 439,115 442,115 446,115 450,115 453,115 457,113 461,113 464,113 468,110 472,109 475,109 479,105 483,104 487,104 490,104 494,94 498,94 501,94 505,87 509,78 512,72 516,71 520,70 523,70 527,70 531,70 534,70 538,70 542,70 545,70 549,70 553,70 556,70 560,70 564,70 568,70 571,70 575,70 579,70 582,70 586,67 590,66 593,66 597,66 601,66 604,66 608,66 612,66 615,66 619,66 623,66 626,66 630,66 634,66 637,66 641,66 645,65 649,65 652,65 656,64 660,64 663,64 667,64 671,64 674,64 678,64 682,64 685,64 689,64 693,64 696,63 700,63 704,60 707,57 711,55 715,53 718,52 722,51 726,50 730,50" fill="none" stroke="#111111" stroke-width="2.4" stroke-linejoin="round" stroke-linecap="round" filter="url(#pline)"/>
<circle cx="730" cy="50" r="4" fill="#111111" filter="url(#pencil)"/>
<text x="724" y="42" text-anchor="end" font-size="10" font-family="Georgia,serif" fill="#111111">142K</text>
<text x="60" y="289" font-size="9" font-family="Georgia,serif" fill="#888888">기준: 2026-05-26 04:36</text>
</svg>