<svg xmlns="http://www.w3.org/2000/svg" width="760" height="295">
<defs><filter id="pencil" x="-5%" y="-5%" width="110%" height="110%"><feTurbulence type="fractalNoise" baseFrequency="0.9" numOctaves="4" seed="5" result="noise"/><feDisplacementMap in="SourceGraphic" in2="noise" scale="1.6" xChannelSelector="R" yChannelSelector="G"/></filter><filter id="pline" x="-2%" y="-30%" width="104%" height="160%"><feTurbulence type="fractalNoise" baseFrequency="0.015 0.9" numOctaves="3" seed="11" result="noise"/><feDisplacementMap in="SourceGraphic" in2="noise" scale="1.8" xChannelSelector="R" yChannelSelector="G"/></filter><filter id="rough" x="-5%" y="-5%" width="110%" height="110%"><feTurbulence type="turbulence" baseFrequency="0.05" numOctaves="2" seed="2" result="noise"/><feDisplacementMap in="SourceGraphic" in2="noise" scale="2" xChannelSelector="R" yChannelSelector="G"/></filter></defs>
<rect width="760" height="295" fill="#ffffff"/>
<text x="380" y="32" text-anchor="middle" font-size="14" font-weight="bold" font-family="Georgia,serif" fill="#111111" filter="url(#pencil)">Workload (6 months)</text>
<line x1="60" y1="250" x2="730" y2="250" stroke="#cccccc" stroke-width="0.7" stroke-dasharray="4,5" filter="url(#rough)"/>
<text x="54" y="254" text-anchor="end" font-size="10" font-family="Georgia,serif" fill="#333333">0</text>
<line x1="60" y1="201" x2="730" y2="201" stroke="#cccccc" stroke-width="0.7" stroke-dasharray="4,5" filter="url(#rough)"/>
<text x="54" y="205" text-anchor="end" font-size="10" font-family="Georgia,serif" fill="#333333">103K</text>
<line x1="60" y1="151" x2="730" y2="151" stroke="#cccccc" stroke-width="0.7" stroke-dasharray="4,5" filter="url(#rough)"/>
<text x="54" y="155" text-anchor="end" font-size="10" font-family="Georgia,serif" fill="#333333">206K</text>
<line x1="60" y1="101" x2="730" y2="101" stroke="#cccccc" stroke-width="0.7" stroke-dasharray="4,5" filter="url(#rough)"/>
<text x="54" y="105" text-anchor="end" font-size="10" font-family="Georgia,serif" fill="#333333">309K</text>
<line x1="60" y1="50" x2="730" y2="50" stroke="#cccccc" stroke-width="0.7" stroke-dasharray="4,5" filter="url(#rough)"/>
<text x="54" y="54" text-anchor="end" font-size="10" font-family="Georgia,serif" fill="#333333">412K</text>
<text x="129" y="270" text-anchor="middle" font-size="11" font-family="Georgia,serif" fill="#333333" filter="url(#pencil)">1월</text>
<text x="244" y="270" text-anchor="middle" font-size="11" font-family="Georgia,serif" fill="#333333" filter="url(#pencil)">2월</text>
<text x="347" y="270" text-anchor="middle" font-size="11" font-family="Georgia,serif" fill="#333333" filter="url(#pencil)">3월</text>
<text x="461" y="270" text-anchor="middle" font-size="11" font-family="Georgia,serif" fill="#333333" filter="url(#pencil)">4월</text>
<text x="571" y="270" text-anchor="middle" font-size="11" font-family="Georgia,serif" fill="#333333" filter="url(#pencil)">5월</text>
<text x="685" y="270" text-anchor="middle" font-size="11" font-family="Georgia,serif" fill="#333333" filter="url(#pencil)">6월</text>
<line x1="59" y1="42" x2="59" y2="256" stroke="#111111" stroke-width="2" filter="url(#pline)"/>
<line x1="52" y1="251" x2="738" y2="251" stroke="#111111" stroke-width="2" filter="url(#pline)"/>
<polygon points="60,250 60,250 63,250 67,250 71,250 74,250 78,250 82,229 85,229 89,229 93,229 96,229 100,223 104,223 107,223 111,223 115,223 118,223 122,223 126,223 129,223 133,223 137,223 140,223 144,223 148,223 152,223 155,223 159,223 163,223 166,223 170,223 174,223 177,223 181,223 185,223 188,223 192,219 196,219 199,219 203,218 207,218 210,218 214,215 218,214 221,212 225,203 229,203 233,203 236,201 240,192 244,190 247,189 251,189 255,189 258,188 262,178 266,177 269,177 273,177 277,177 280,177 284,177 288,177 291,177 295,177 299,177 302,177 306,177 310,177 314,175 317,175 321,175 325,175 328,175 332,175 336,173 339,171 343,169 347,164 350,162 354,162 358,162 361,162 365,162 369,162 372,162 376,162 380,162 383,162 387,162 391,160 395,160 398,160 402,157 406,156 409,156 413,151 417,150 420,150 424,150 428,138 431,138 435,138 439,130 442,120 446,113 450,112 453,111 457,111 461,111 464,111 468,111 472,111 475,111 479,111 483,111 487,111 490,111 494,110 498,110 501,110 505,110 509,110 512,110 516,110 520,107 523,106 527,106 531,106 534,106 538,106 542,106 545,106 549,106 553,106 556,106 560,106 564,106 568,106 571,106 575,106 579,105 582,105 586,105 590,104 593,104 597,104 601,104 604,104 608,104 612,104 615,104 619,104 623,104 626,104 630,103 634,102 637,99 641,95 645,92 649,89 652,84 656,81 660,78 663,76 667,73 671,71 674,69 678,66 682,64 685,63 689,62 693,60 696,59 700,58 704,57 707,55 711,54 715,52 718,51 722,51 726,51 730,50 730,250" fill="#e8e8e8" opacity="0.6"/>
<polyline points="60,250 63,250 67,250 71,250 74,250 78,250 82,229 85,229 89,229 93,229 96,229 100,223 104,223 107,223 111,223 115,223 118,223 122,223 126,223 129,223 133,223 137,223 140,223 144,223 148,223 152,223 155,223 159,223 163,223 166,223 170,223 174,223 177,223 181,223 185,223 188,223 192,219 196,219 199,219 203,218 207,218 210,218 214,215 218,214 221,212 225,203 229,203 233,203 236,201 240,192 244,190 247,189 251,189 255,189 258,188 262,178 266,177 269,177 273,177 277,177 280,177 284,177 288,177 291,177 295,177 299,177 302,177 306,177 310,177 314,175 317,175 321,175 325,175 328,175 332,175 336,173 339,171 343,169 347,164 350,162 354,162 358,162 361,162 365,162 369,162 372,162 376,162 380,162 383,162 387,162 391,160 395,160 398,160 402,157 406,156 409,156 413,151 417,150 420,150 424,150 428,138 431,138 435,138 439,130 442,120 446,113 450,112 453,111 457,111 461,111 464,111 468,111 472,111 475,111 479,111 483,111 487,111 490,111 494,110 498,110 501,110 505,110 509,110 512,110 516,110 520,107 523,106 527,106 531,106 534,106 538,106 542,106 545,106 549,106 553,106 556,106 560,106 564,106 568,106 571,106 575,106 579,105 582,105 586,105 590,104 593,104 597,104 601,104 604,104 608,104 612,104 615,104 619,104 623,104 626,104 630,103 634,102 637,99 641,95 645,92 649,89 652,84 656,81 660,78 663,76 667,73 671,71 674,69 678,66 682,64 685,63 689,62 693,60 696,59 700,58 704,57 707,55 711,54 715,52 718,51 722,51 726,51 730,50" fill="none" stroke="#111111" stroke-width="2.4" stroke-linejoin="round" stroke-linecap="round" filter="url(#pline)"/>
<circle cx="730" cy="50" r="4" fill="#111111" filter="url(#pencil)"/>
<text x="724" y="42" text-anchor="end" font-size="10" font-family="Georgia,serif" fill="#111111">412K</text>
<text x="60" y="289" font-size="9" font-family="Georgia,serif" fill="#888888">기준: 2026-06-13 14:29</text>
</svg>