<svg xmlns="http://www.w3.org/2000/svg" width="760" height="295">
<defs><filter id="pencil" x="-5%" y="-5%" width="110%" height="110%"><feTurbulence type="fractalNoise" baseFrequency="0.9" numOctaves="4" seed="5" result="noise"/><feDisplacementMap in="SourceGraphic" in2="noise" scale="1.6" xChannelSelector="R" yChannelSelector="G"/></filter><filter id="pline" x="-2%" y="-30%" width="104%" height="160%"><feTurbulence type="fractalNoise" baseFrequency="0.015 0.9" numOctaves="3" seed="11" result="noise"/><feDisplacementMap in="SourceGraphic" in2="noise" scale="1.8" xChannelSelector="R" yChannelSelector="G"/></filter><filter id="rough" x="-5%" y="-5%" width="110%" height="110%"><feTurbulence type="turbulence" baseFrequency="0.05" numOctaves="2" seed="2" result="noise"/><feDisplacementMap in="SourceGraphic" in2="noise" scale="2" xChannelSelector="R" yChannelSelector="G"/></filter></defs>
<rect width="760" height="295" fill="#ffffff"/>
<text x="380" y="32" text-anchor="middle" font-size="14" font-weight="bold" font-family="Georgia,serif" fill="#111111" filter="url(#pencil)">Workload (6 months)</text>
<line x1="60" y1="250" x2="730" y2="250" stroke="#cccccc" stroke-width="0.7" stroke-dasharray="4,5" filter="url(#rough)"/>
<text x="54" y="254" text-anchor="end" font-size="10" font-family="Georgia,serif" fill="#333333">0</text>
<line x1="60" y1="201" x2="730" y2="201" stroke="#cccccc" stroke-width="0.7" stroke-dasharray="4,5" filter="url(#rough)"/>
<text x="54" y="205" text-anchor="end" font-size="10" font-family="Georgia,serif" fill="#333333">10K</text>
<line x1="60" y1="150" x2="730" y2="150" stroke="#cccccc" stroke-width="0.7" stroke-dasharray="4,5" filter="url(#rough)"/>
<text x="54" y="154" text-anchor="end" font-size="10" font-family="Georgia,serif" fill="#333333">20K</text>
<line x1="60" y1="101" x2="730" y2="101" stroke="#cccccc" stroke-width="0.7" stroke-dasharray="4,5" filter="url(#rough)"/>
<text x="54" y="105" text-anchor="end" font-size="10" font-family="Georgia,serif" fill="#333333">31K</text>
<line x1="60" y1="50" x2="730" y2="50" stroke="#cccccc" stroke-width="0.7" stroke-dasharray="4,5" filter="url(#rough)"/>
<text x="54" y="54" text-anchor="end" font-size="10" font-family="Georgia,serif" fill="#333333">41K</text>
<text x="100" y="270" text-anchor="middle" font-size="11" font-family="Georgia,serif" fill="#333333" filter="url(#pencil)">12월</text>
<text x="214" y="270" text-anchor="middle" font-size="11" font-family="Georgia,serif" fill="#333333" filter="url(#pencil)">1월</text>
<text x="328" y="270" text-anchor="middle" font-size="11" font-family="Georgia,serif" fill="#333333" filter="url(#pencil)">2월</text>
<text x="431" y="270" text-anchor="middle" font-size="11" font-family="Georgia,serif" fill="#333333" filter="url(#pencil)">3월</text>
<text x="545" y="270" text-anchor="middle" font-size="11" font-family="Georgia,serif" fill="#333333" filter="url(#pencil)">4월</text>
<text x="656" y="270" text-anchor="middle" font-size="11" font-family="Georgia,serif" fill="#333333" filter="url(#pencil)">5월</text>
<line x1="59" y1="42" x2="59" y2="256" stroke="#111111" stroke-width="2" filter="url(#pline)"/>
<line x1="52" y1="251" x2="738" y2="251" stroke="#111111" stroke-width="2" filter="url(#pline)"/>
<polygon points="60,250 60,250 63,249 67,242 71,241 74,240 78,238 82,236 85,236 89,236 93,236 96,236 100,236 104,236 107,236 111,236 115,235 118,231 122,231 126,214 129,214 133,214 137,214 140,182 144,182 148,182 152,182 155,182 159,182 163,182 166,163 170,163 174,163 177,163 181,163 185,158 188,158 192,158 196,158 199,158 203,158 207,158 210,158 214,158 218,158 221,158 225,158 229,158 233,158 236,158 240,158 244,158 247,158 251,158 255,158 258,158 262,158 266,158 269,158 273,158 277,154 280,154 284,154 288,154 291,154 295,154 299,151 302,150 306,149 310,141 314,141 317,141 321,139 325,131 328,130 332,129 336,129 339,128 343,128 347,119 350,119 354,118 358,118 361,118 365,118 369,118 372,118 376,118 380,118 383,118 387,118 391,118 395,118 398,116 402,116 406,116 409,116 413,116 417,116 420,114 424,113 428,112 431,107 435,105 439,105 442,105 446,105 450,105 453,105 457,105 461,105 464,105 468,105 472,105 475,104 479,104 483,104 487,101 490,100 494,100 498,96 501,95 505,95 509,95 512,84 516,84 520,84 523,77 527,69 531,62 534,62 538,61 542,61 545,61 549,61 553,61 556,61 560,61 564,61 568,61 571,61 575,61 579,60 582,60 586,60 590,60 593,60 597,60 601,60 604,58 608,56 612,56 615,56 619,56 623,56 626,56 630,56 634,56 637,56 641,56 645,56 649,56 652,56 656,56 660,56 663,56 667,56 671,56 674,55 678,55 682,55 685,55 689,55 693,55 696,55 700,55 704,55 707,55 711,55 715,54 718,54 722,51 726,50 730,50 730,250" fill="#e8e8e8" opacity="0.6"/>
<polyline points="60,250 63,249 67,242 71,241 74,240 78,238 82,236 85,236 89,236 93,236 96,236 100,236 104,236 107,236 111,236 115,235 118,231 122,231 126,214 129,214 133,214 137,214 140,182 144,182 148,182 152,182 155,182 159,182 163,182 166,163 170,163 174,163 177,163 181,163 185,158 188,158 192,158 196,158 199,158 203,158 207,158 210,158 214,158 218,158 221,158 225,158 229,158 233,158 236,158 240,158 244,158 247,158 251,158 255,158 258,158 262,158 266,158 269,158 273,158 277,154 280,154 284,154 288,154 291,154 295,154 299,151 302,150 306,149 310,141 314,141 317,141 321,139 325,131 328,130 332,129 336,129 339,128 343,128 347,119 350,119 354,118 358,118 361,118 365,118 369,118 372,118 376,118 380,118 383,118 387,118 391,118 395,118 398,116 402,116 406,116 409,116 413,116 417,116 420,114 424,113 428,112 431,107 435,105 439,105 442,105 446,105 450,105 453,105 457,105 461,105 464,105 468,105 472,105 475,104 479,104 483,104 487,101 490,100 494,100 498,96 501,95 505,95 509,95 512,84 516,84 520,84 523,77 527,69 531,62 534,62 538,61 542,61 545,61 549,61 553,61 556,61 560,61 564,61 568,61 571,61 575,61 579,60 582,60 586,60 590,60 593,60 597,60 601,60 604,58 608,56 612,56 615,56 619,56 623,56 626,56 630,56 634,56 637,56 641,56 645,56 649,56 652,56 656,56 660,56 663,56 667,56 671,56 674,55 678,55 682,55 685,55 689,55 693,55 696,55 700,55 704,55 707,55 711,55 715,54 718,54 722,51 726,50 730,50" fill="none" stroke="#111111" stroke-width="2.4" stroke-linejoin="round" stroke-linecap="round" filter="url(#pline)"/>
<circle cx="730" cy="50" r="4" fill="#111111" filter="url(#pencil)"/>
<text x="724" y="42" text-anchor="end" font-size="10" font-family="Georgia,serif" fill="#111111">41K</text>
<text x="60" y="289" font-size="9" font-family="Georgia,serif" fill="#888888">기준: 2026-05-21 04:47</text>
</svg>