<svg xmlns="http://www.w3.org/2000/svg" width="760" height="295">
<defs><filter id="pencil" x="-5%" y="-5%" width="110%" height="110%"><feTurbulence type="fractalNoise" baseFrequency="0.9" numOctaves="4" seed="5" result="noise"/><feDisplacementMap in="SourceGraphic" in2="noise" scale="1.6" xChannelSelector="R" yChannelSelector="G"/></filter><filter id="pline" x="-2%" y="-30%" width="104%" height="160%"><feTurbulence type="fractalNoise" baseFrequency="0.015 0.9" numOctaves="3" seed="11" result="noise"/><feDisplacementMap in="SourceGraphic" in2="noise" scale="1.8" xChannelSelector="R" yChannelSelector="G"/></filter><filter id="rough" x="-5%" y="-5%" width="110%" height="110%"><feTurbulence type="turbulence" baseFrequency="0.05" numOctaves="2" seed="2" result="noise"/><feDisplacementMap in="SourceGraphic" in2="noise" scale="2" xChannelSelector="R" yChannelSelector="G"/></filter></defs>
<rect width="760" height="295" fill="#ffffff"/>
<text x="380" y="32" text-anchor="middle" font-size="14" font-weight="bold" font-family="Georgia,serif" fill="#111111" filter="url(#pencil)">Workload (6 months)</text>
<line x1="60" y1="250" x2="730" y2="250" stroke="#cccccc" stroke-width="0.7" stroke-dasharray="4,5" filter="url(#rough)"/>
<text x="54" y="254" text-anchor="end" font-size="10" font-family="Georgia,serif" fill="#333333">0</text>
<line x1="60" y1="201" x2="730" y2="201" stroke="#cccccc" stroke-width="0.7" stroke-dasharray="4,5" filter="url(#rough)"/>
<text x="54" y="205" text-anchor="end" font-size="10" font-family="Georgia,serif" fill="#333333">62K</text>
<line x1="60" y1="151" x2="730" y2="151" stroke="#cccccc" stroke-width="0.7" stroke-dasharray="4,5" filter="url(#rough)"/>
<text x="54" y="155" text-anchor="end" font-size="10" font-family="Georgia,serif" fill="#333333">124K</text>
<line x1="60" y1="101" x2="730" y2="101" stroke="#cccccc" stroke-width="0.7" stroke-dasharray="4,5" filter="url(#rough)"/>
<text x="54" y="105" text-anchor="end" font-size="10" font-family="Georgia,serif" fill="#333333">187K</text>
<line x1="60" y1="50" x2="730" y2="50" stroke="#cccccc" stroke-width="0.7" stroke-dasharray="4,5" filter="url(#rough)"/>
<text x="54" y="54" text-anchor="end" font-size="10" font-family="Georgia,serif" fill="#333333">249K</text>
<text x="63" y="270" text-anchor="middle" font-size="11" font-family="Georgia,serif" fill="#333333" filter="url(#pencil)">12월</text>
<text x="177" y="270" text-anchor="middle" font-size="11" font-family="Georgia,serif" fill="#333333" filter="url(#pencil)">1월</text>
<text x="291" y="270" text-anchor="middle" font-size="11" font-family="Georgia,serif" fill="#333333" filter="url(#pencil)">2월</text>
<text x="395" y="270" text-anchor="middle" font-size="11" font-family="Georgia,serif" fill="#333333" filter="url(#pencil)">3월</text>
<text x="509" y="270" text-anchor="middle" font-size="11" font-family="Georgia,serif" fill="#333333" filter="url(#pencil)">4월</text>
<text x="619" y="270" text-anchor="middle" font-size="11" font-family="Georgia,serif" fill="#333333" filter="url(#pencil)">5월</text>
<line x1="59" y1="42" x2="59" y2="256" stroke="#111111" stroke-width="2" filter="url(#pline)"/>
<line x1="52" y1="251" x2="738" y2="251" stroke="#111111" stroke-width="2" filter="url(#pline)"/>
<polygon points="60,250 60,250 63,250 67,250 71,250 74,250 78,250 82,246 85,246 89,229 93,229 96,229 100,229 104,197 107,197 111,197 115,197 118,197 122,197 126,197 129,179 133,179 137,179 140,179 144,179 148,174 152,174 155,174 159,174 163,174 166,174 170,174 174,174 177,174 181,174 185,174 188,174 192,174 196,174 199,174 203,174 207,174 210,174 214,174 218,174 221,174 225,174 229,174 233,174 236,174 240,170 244,170 247,170 251,170 255,170 258,170 262,167 266,166 269,165 273,157 277,157 280,157 284,156 288,148 291,146 295,145 299,145 302,145 306,144 310,136 314,135 317,135 321,135 325,135 328,135 332,135 336,135 339,135 343,135 347,135 350,135 354,135 358,135 361,133 365,133 369,133 372,133 376,133 380,133 383,131 387,129 391,128 395,124 398,122 402,122 406,122 409,122 413,122 417,122 420,122 424,122 428,122 431,122 435,122 439,121 442,121 446,121 450,118 453,117 457,117 461,113 464,112 468,112 472,112 475,101 479,101 483,101 487,95 490,87 494,80 498,80 501,79 505,79 509,79 512,79 516,79 520,79 523,79 527,79 531,79 534,79 538,79 542,78 545,78 549,78 553,78 556,78 560,78 564,78 568,75 571,74 575,74 579,74 582,74 586,74 590,74 593,74 597,74 601,74 604,74 608,74 612,74 615,74 619,74 623,74 626,74 630,74 634,74 637,73 641,73 645,73 649,73 652,73 656,73 660,73 663,73 667,73 671,73 674,73 678,72 682,71 685,68 689,66 693,63 696,61 700,58 704,56 707,54 711,53 715,52 718,51 722,51 726,51 730,50 730,250" fill="#e8e8e8" opacity="0.6"/>
<polyline points="60,250 63,250 67,250 71,250 74,250 78,250 82,246 85,246 89,229 93,229 96,229 100,229 104,197 107,197 111,197 115,197 118,197 122,197 126,197 129,179 133,179 137,179 140,179 144,179 148,174 152,174 155,174 159,174 163,174 166,174 170,174 174,174 177,174 181,174 185,174 188,174 192,174 196,174 199,174 203,174 207,174 210,174 214,174 218,174 221,174 225,174 229,174 233,174 236,174 240,170 244,170 247,170 251,170 255,170 258,170 262,167 266,166 269,165 273,157 277,157 280,157 284,156 288,148 291,146 295,145 299,145 302,145 306,144 310,136 314,135 317,135 321,135 325,135 328,135 332,135 336,135 339,135 343,135 347,135 350,135 354,135 358,135 361,133 365,133 369,133 372,133 376,133 380,133 383,131 387,129 391,128 395,124 398,122 402,122 406,122 409,122 413,122 417,122 420,122 424,122 428,122 431,122 435,122 439,121 442,121 446,121 450,118 453,117 457,117 461,113 464,112 468,112 472,112 475,101 479,101 483,101 487,95 490,87 494,80 498,80 501,79 505,79 509,79 512,79 516,79 520,79 523,79 527,79 531,79 534,79 538,79 542,78 545,78 549,78 553,78 556,78 560,78 564,78 568,75 571,74 575,74 579,74 582,74 586,74 590,74 593,74 597,74 601,74 604,74 608,74 612,74 615,74 619,74 623,74 626,74 630,74 634,74 637,73 641,73 645,73 649,73 652,73 656,73 660,73 663,73 667,73 671,73 674,73 678,72 682,71 685,68 689,66 693,63 696,61 700,58 704,56 707,54 711,53 715,52 718,51 722,51 726,51 730,50" fill="none" stroke="#111111" stroke-width="2.4" stroke-linejoin="round" stroke-linecap="round" filter="url(#pline)"/>
<circle cx="730" cy="50" r="4" fill="#111111" filter="url(#pencil)"/>
<text x="724" y="42" text-anchor="end" font-size="10" font-family="Georgia,serif" fill="#111111">249K</text>
<text x="60" y="289" font-size="9" font-family="Georgia,serif" fill="#888888">기준: 2026-05-31 14:13</text>
</svg>