<svg xmlns="http://www.w3.org/2000/svg" width="760" height="295">
<defs><filter id="pencil" x="-5%" y="-5%" width="110%" height="110%"><feTurbulence type="fractalNoise" baseFrequency="0.9" numOctaves="4" seed="5" result="noise"/><feDisplacementMap in="SourceGraphic" in2="noise" scale="1.6" xChannelSelector="R" yChannelSelector="G"/></filter><filter id="pline" x="-2%" y="-30%" width="104%" height="160%"><feTurbulence type="fractalNoise" baseFrequency="0.015 0.9" numOctaves="3" seed="11" result="noise"/><feDisplacementMap in="SourceGraphic" in2="noise" scale="1.8" xChannelSelector="R" yChannelSelector="G"/></filter><filter id="rough" x="-5%" y="-5%" width="110%" height="110%"><feTurbulence type="turbulence" baseFrequency="0.05" numOctaves="2" seed="2" result="noise"/><feDisplacementMap in="SourceGraphic" in2="noise" scale="2" xChannelSelector="R" yChannelSelector="G"/></filter></defs>
<rect width="760" height="295" fill="#ffffff"/>
<text x="380" y="32" text-anchor="middle" font-size="14" font-weight="bold" font-family="Georgia,serif" fill="#111111" filter="url(#pencil)">Workload (6 months)</text>
<line x1="60" y1="250" x2="730" y2="250" stroke="#cccccc" stroke-width="0.7" stroke-dasharray="4,5" filter="url(#rough)"/>
<text x="54" y="254" text-anchor="end" font-size="10" font-family="Georgia,serif" fill="#333333">0</text>
<line x1="60" y1="201" x2="730" y2="201" stroke="#cccccc" stroke-width="0.7" stroke-dasharray="4,5" filter="url(#rough)"/>
<text x="54" y="205" text-anchor="end" font-size="10" font-family="Georgia,serif" fill="#333333">19K</text>
<line x1="60" y1="151" x2="730" y2="151" stroke="#cccccc" stroke-width="0.7" stroke-dasharray="4,5" filter="url(#rough)"/>
<text x="54" y="155" text-anchor="end" font-size="10" font-family="Georgia,serif" fill="#333333">38K</text>
<line x1="60" y1="101" x2="730" y2="101" stroke="#cccccc" stroke-width="0.7" stroke-dasharray="4,5" filter="url(#rough)"/>
<text x="54" y="105" text-anchor="end" font-size="10" font-family="Georgia,serif" fill="#333333">58K</text>
<line x1="60" y1="50" x2="730" y2="50" stroke="#cccccc" stroke-width="0.7" stroke-dasharray="4,5" filter="url(#rough)"/>
<text x="54" y="54" text-anchor="end" font-size="10" font-family="Georgia,serif" fill="#333333">77K</text>
<text x="93" y="270" text-anchor="middle" font-size="11" font-family="Georgia,serif" fill="#333333" filter="url(#pencil)">12월</text>
<text x="207" y="270" text-anchor="middle" font-size="11" font-family="Georgia,serif" fill="#333333" filter="url(#pencil)">1월</text>
<text x="321" y="270" text-anchor="middle" font-size="11" font-family="Georgia,serif" fill="#333333" filter="url(#pencil)">2월</text>
<text x="424" y="270" text-anchor="middle" font-size="11" font-family="Georgia,serif" fill="#333333" filter="url(#pencil)">3월</text>
<text x="538" y="270" text-anchor="middle" font-size="11" font-family="Georgia,serif" fill="#333333" filter="url(#pencil)">4월</text>
<text x="649" y="270" text-anchor="middle" font-size="11" font-family="Georgia,serif" fill="#333333" filter="url(#pencil)">5월</text>
<line x1="59" y1="42" x2="59" y2="256" stroke="#111111" stroke-width="2" filter="url(#pline)"/>
<line x1="52" y1="251" x2="738" y2="251" stroke="#111111" stroke-width="2" filter="url(#pline)"/>
<polygon points="60,250 60,244 63,243 67,242 71,240 74,238 78,238 82,238 85,238 89,238 93,238 96,238 100,238 104,238 107,237 111,233 115,233 118,216 122,216 126,216 129,216 133,184 137,184 140,184 144,184 148,184 152,184 155,184 159,165 163,165 166,165 170,165 174,165 177,161 181,161 185,161 188,161 192,161 196,161 199,161 203,161 207,161 210,161 214,161 218,161 221,161 225,161 229,161 233,161 236,161 240,161 244,161 247,161 251,161 255,161 258,161 262,161 266,161 269,157 273,157 277,157 280,157 284,157 288,156 291,154 295,153 299,151 302,144 306,144 310,144 314,142 317,134 321,132 325,131 328,131 332,131 336,131 339,122 343,121 347,121 350,121 354,121 358,121 361,121 365,121 369,121 372,121 376,121 380,121 383,121 387,121 391,119 395,119 398,119 402,119 406,119 409,119 413,117 417,115 420,114 424,110 428,108 431,108 435,108 439,108 442,108 446,108 450,108 453,108 457,108 461,108 464,108 468,107 472,107 475,107 479,103 483,103 487,103 490,98 494,98 498,98 501,98 505,87 509,87 512,87 516,80 520,72 523,66 527,65 531,64 534,64 538,64 542,64 545,64 549,64 553,64 556,64 560,64 564,64 568,64 571,63 575,63 579,63 582,63 586,63 590,63 593,63 597,61 601,60 604,60 608,60 612,60 615,60 619,60 623,60 626,60 630,60 634,60 637,60 641,60 645,60 649,60 652,60 656,59 660,59 663,59 667,58 671,58 674,58 678,58 682,58 685,58 689,58 693,58 696,58 700,58 704,58 707,57 711,57 715,54 718,52 722,51 726,50 730,50 730,250" fill="#e8e8e8" opacity="0.6"/>
<polyline points="60,244 63,243 67,242 71,240 74,238 78,238 82,238 85,238 89,238 93,238 96,238 100,238 104,238 107,237 111,233 115,233 118,216 122,216 126,216 129,216 133,184 137,184 140,184 144,184 148,184 152,184 155,184 159,165 163,165 166,165 170,165 174,165 177,161 181,161 185,161 188,161 192,161 196,161 199,161 203,161 207,161 210,161 214,161 218,161 221,161 225,161 229,161 233,161 236,161 240,161 244,161 247,161 251,161 255,161 258,161 262,161 266,161 269,157 273,157 277,157 280,157 284,157 288,156 291,154 295,153 299,151 302,144 306,144 310,144 314,142 317,134 321,132 325,131 328,131 332,131 336,131 339,122 343,121 347,121 350,121 354,121 358,121 361,121 365,121 369,121 372,121 376,121 380,121 383,121 387,121 391,119 395,119 398,119 402,119 406,119 409,119 413,117 417,115 420,114 424,110 428,108 431,108 435,108 439,108 442,108 446,108 450,108 453,108 457,108 461,108 464,108 468,107 472,107 475,107 479,103 483,103 487,103 490,98 494,98 498,98 501,98 505,87 509,87 512,87 516,80 520,72 523,66 527,65 531,64 534,64 538,64 542,64 545,64 549,64 553,64 556,64 560,64 564,64 568,64 571,63 575,63 579,63 582,63 586,63 590,63 593,63 597,61 601,60 604,60 608,60 612,60 615,60 619,60 623,60 626,60 630,60 634,60 637,60 641,60 645,60 649,60 652,60 656,59 660,59 663,59 667,58 671,58 674,58 678,58 682,58 685,58 689,58 693,58 696,58 700,58 704,58 707,57 711,57 715,54 718,52 722,51 726,50 730,50" fill="none" stroke="#111111" stroke-width="2.4" stroke-linejoin="round" stroke-linecap="round" filter="url(#pline)"/>
<circle cx="730" cy="50" r="4" fill="#111111" filter="url(#pencil)"/>
<text x="724" y="42" text-anchor="end" font-size="10" font-family="Georgia,serif" fill="#111111">77K</text>
<text x="60" y="289" font-size="9" font-family="Georgia,serif" fill="#888888">기준: 2026-05-23 04:10</text>
</svg>