<svg xmlns="http://www.w3.org/2000/svg" width="760" height="295">
<defs><filter id="pencil" x="-5%" y="-5%" width="110%" height="110%"><feTurbulence type="fractalNoise" baseFrequency="0.9" numOctaves="4" seed="5" result="noise"/><feDisplacementMap in="SourceGraphic" in2="noise" scale="1.6" xChannelSelector="R" yChannelSelector="G"/></filter><filter id="pline" x="-2%" y="-30%" width="104%" height="160%"><feTurbulence type="fractalNoise" baseFrequency="0.015 0.9" numOctaves="3" seed="11" result="noise"/><feDisplacementMap in="SourceGraphic" in2="noise" scale="1.8" xChannelSelector="R" yChannelSelector="G"/></filter><filter id="rough" x="-5%" y="-5%" width="110%" height="110%"><feTurbulence type="turbulence" baseFrequency="0.05" numOctaves="2" seed="2" result="noise"/><feDisplacementMap in="SourceGraphic" in2="noise" scale="2" xChannelSelector="R" yChannelSelector="G"/></filter></defs>
<rect width="760" height="295" fill="#ffffff"/>
<text x="380" y="32" text-anchor="middle" font-size="14" font-weight="bold" font-family="Georgia,serif" fill="#111111" filter="url(#pencil)">Workload (6 months)</text>
<line x1="60" y1="250" x2="730" y2="250" stroke="#cccccc" stroke-width="0.7" stroke-dasharray="4,5" filter="url(#rough)"/>
<text x="54" y="254" text-anchor="end" font-size="10" font-family="Georgia,serif" fill="#333333">0</text>
<line x1="60" y1="201" x2="730" y2="201" stroke="#cccccc" stroke-width="0.7" stroke-dasharray="4,5" filter="url(#rough)"/>
<text x="54" y="205" text-anchor="end" font-size="10" font-family="Georgia,serif" fill="#333333">14K</text>
<line x1="60" y1="151" x2="730" y2="151" stroke="#cccccc" stroke-width="0.7" stroke-dasharray="4,5" filter="url(#rough)"/>
<text x="54" y="155" text-anchor="end" font-size="10" font-family="Georgia,serif" fill="#333333">29K</text>
<line x1="60" y1="101" x2="730" y2="101" stroke="#cccccc" stroke-width="0.7" stroke-dasharray="4,5" filter="url(#rough)"/>
<text x="54" y="105" text-anchor="end" font-size="10" font-family="Georgia,serif" fill="#333333">44K</text>
<line x1="60" y1="50" x2="730" y2="50" stroke="#cccccc" stroke-width="0.7" stroke-dasharray="4,5" filter="url(#rough)"/>
<text x="54" y="54" text-anchor="end" font-size="10" font-family="Georgia,serif" fill="#333333">59K</text>
<text x="96" y="270" text-anchor="middle" font-size="11" font-family="Georgia,serif" fill="#333333" filter="url(#pencil)">12월</text>
<text x="210" y="270" text-anchor="middle" font-size="11" font-family="Georgia,serif" fill="#333333" filter="url(#pencil)">1월</text>
<text x="325" y="270" text-anchor="middle" font-size="11" font-family="Georgia,serif" fill="#333333" filter="url(#pencil)">2월</text>
<text x="428" y="270" text-anchor="middle" font-size="11" font-family="Georgia,serif" fill="#333333" filter="url(#pencil)">3월</text>
<text x="542" y="270" text-anchor="middle" font-size="11" font-family="Georgia,serif" fill="#333333" filter="url(#pencil)">4월</text>
<text x="652" y="270" text-anchor="middle" font-size="11" font-family="Georgia,serif" fill="#333333" filter="url(#pencil)">5월</text>
<line x1="59" y1="42" x2="59" y2="256" stroke="#111111" stroke-width="2" filter="url(#pline)"/>
<line x1="52" y1="251" x2="738" y2="251" stroke="#111111" stroke-width="2" filter="url(#pline)"/>
<polygon points="60,250 60,250 63,243 67,242 71,241 74,239 78,237 82,237 85,237 89,237 93,237 96,237 100,237 104,237 107,237 111,236 115,232 118,232 122,215 126,215 129,215 133,215 137,183 140,183 144,183 148,183 152,183 155,183 159,183 163,164 166,164 170,164 174,164 177,164 181,160 185,160 188,160 192,160 196,160 199,160 203,160 207,160 210,160 214,160 218,160 221,160 225,160 229,160 233,160 236,160 240,160 244,160 247,160 251,160 255,160 258,160 262,160 266,160 269,160 273,156 277,156 280,156 284,155 288,155 291,155 295,153 299,152 302,150 306,142 310,142 314,142 317,141 321,133 325,131 328,130 332,130 336,130 339,129 343,121 347,120 350,120 354,120 358,120 361,120 365,120 369,120 372,120 376,120 380,120 383,120 387,120 391,120 395,118 398,118 402,118 406,118 409,118 413,118 417,116 420,114 424,113 428,108 431,107 435,107 439,106 442,106 446,106 450,106 453,106 457,106 461,106 464,106 468,106 472,105 475,105 479,105 483,102 487,101 490,101 494,97 498,96 501,96 505,96 509,86 512,86 516,86 520,79 523,71 527,64 531,64 534,63 538,63 542,63 545,63 549,63 553,63 556,63 560,63 564,63 568,63 571,63 575,62 579,62 582,62 586,62 590,62 593,62 597,62 601,59 604,58 608,58 612,58 615,58 619,58 623,58 626,58 630,58 634,58 637,58 641,58 645,58 649,58 652,58 656,58 660,58 663,58 667,58 671,57 674,57 678,57 682,57 685,57 689,57 693,56 696,56 700,56 704,56 707,56 711,56 715,55 718,53 722,51 726,50 730,50 730,250" fill="#e8e8e8" opacity="0.6"/>
<polyline points="60,250 63,243 67,242 71,241 74,239 78,237 82,237 85,237 89,237 93,237 96,237 100,237 104,237 107,237 111,236 115,232 118,232 122,215 126,215 129,215 133,215 137,183 140,183 144,183 148,183 152,183 155,183 159,183 163,164 166,164 170,164 174,164 177,164 181,160 185,160 188,160 192,160 196,160 199,160 203,160 207,160 210,160 214,160 218,160 221,160 225,160 229,160 233,160 236,160 240,160 244,160 247,160 251,160 255,160 258,160 262,160 266,160 269,160 273,156 277,156 280,156 284,155 288,155 291,155 295,153 299,152 302,150 306,142 310,142 314,142 317,141 321,133 325,131 328,130 332,130 336,130 339,129 343,121 347,120 350,120 354,120 358,120 361,120 365,120 369,120 372,120 376,120 380,120 383,120 387,120 391,120 395,118 398,118 402,118 406,118 409,118 413,118 417,116 420,114 424,113 428,108 431,107 435,107 439,106 442,106 446,106 450,106 453,106 457,106 461,106 464,106 468,106 472,105 475,105 479,105 483,102 487,101 490,101 494,97 498,96 501,96 505,96 509,86 512,86 516,86 520,79 523,71 527,64 531,64 534,63 538,63 542,63 545,63 549,63 553,63 556,63 560,63 564,63 568,63 571,63 575,62 579,62 582,62 586,62 590,62 593,62 597,62 601,59 604,58 608,58 612,58 615,58 619,58 623,58 626,58 630,58 634,58 637,58 641,58 645,58 649,58 652,58 656,58 660,58 663,58 667,58 671,57 674,57 678,57 682,57 685,57 689,57 693,56 696,56 700,56 704,56 707,56 711,56 715,55 718,53 722,51 726,50 730,50" fill="none" stroke="#111111" stroke-width="2.4" stroke-linejoin="round" stroke-linecap="round" filter="url(#pline)"/>
<circle cx="730" cy="50" r="4" fill="#111111" filter="url(#pencil)"/>
<text x="724" y="42" text-anchor="end" font-size="10" font-family="Georgia,serif" fill="#111111">59K</text>
<text x="60" y="289" font-size="9" font-family="Georgia,serif" fill="#888888">기준: 2026-05-22 04:38</text>
</svg>