<svg xmlns="http://www.w3.org/2000/svg" width="760" height="295">
<defs><filter id="pencil" x="-5%" y="-5%" width="110%" height="110%"><feTurbulence type="fractalNoise" baseFrequency="0.9" numOctaves="4" seed="5" result="noise"/><feDisplacementMap in="SourceGraphic" in2="noise" scale="1.6" xChannelSelector="R" yChannelSelector="G"/></filter><filter id="pline" x="-2%" y="-30%" width="104%" height="160%"><feTurbulence type="fractalNoise" baseFrequency="0.015 0.9" numOctaves="3" seed="11" result="noise"/><feDisplacementMap in="SourceGraphic" in2="noise" scale="1.8" xChannelSelector="R" yChannelSelector="G"/></filter><filter id="rough" x="-5%" y="-5%" width="110%" height="110%"><feTurbulence type="turbulence" baseFrequency="0.05" numOctaves="2" seed="2" result="noise"/><feDisplacementMap in="SourceGraphic" in2="noise" scale="2" xChannelSelector="R" yChannelSelector="G"/></filter></defs>
<rect width="760" height="295" fill="#ffffff"/>
<text x="380" y="32" text-anchor="middle" font-size="14" font-weight="bold" font-family="Georgia,serif" fill="#111111" filter="url(#pencil)">Workload (6 months)</text>
<line x1="60" y1="250" x2="730" y2="250" stroke="#cccccc" stroke-width="0.7" stroke-dasharray="4,5" filter="url(#rough)"/>
<text x="54" y="254" text-anchor="end" font-size="10" font-family="Georgia,serif" fill="#333333">0</text>
<line x1="60" y1="200" x2="730" y2="200" stroke="#cccccc" stroke-width="0.7" stroke-dasharray="4,5" filter="url(#rough)"/>
<text x="54" y="204" text-anchor="end" font-size="10" font-family="Georgia,serif" fill="#333333">139K</text>
<line x1="60" y1="150" x2="730" y2="150" stroke="#cccccc" stroke-width="0.7" stroke-dasharray="4,5" filter="url(#rough)"/>
<text x="54" y="154" text-anchor="end" font-size="10" font-family="Georgia,serif" fill="#333333">279K</text>
<line x1="60" y1="100" x2="730" y2="100" stroke="#cccccc" stroke-width="0.7" stroke-dasharray="4,5" filter="url(#rough)"/>
<text x="54" y="104" text-anchor="end" font-size="10" font-family="Georgia,serif" fill="#333333">419K</text>
<line x1="60" y1="50" x2="730" y2="50" stroke="#cccccc" stroke-width="0.7" stroke-dasharray="4,5" filter="url(#rough)"/>
<text x="54" y="54" text-anchor="end" font-size="10" font-family="Georgia,serif" fill="#333333">559K</text>
<text x="100" y="270" text-anchor="middle" font-size="11" font-family="Georgia,serif" fill="#333333" filter="url(#pencil)">1월</text>
<text x="214" y="270" text-anchor="middle" font-size="11" font-family="Georgia,serif" fill="#333333" filter="url(#pencil)">2월</text>
<text x="317" y="270" text-anchor="middle" font-size="11" font-family="Georgia,serif" fill="#333333" filter="url(#pencil)">3월</text>
<text x="431" y="270" text-anchor="middle" font-size="11" font-family="Georgia,serif" fill="#333333" filter="url(#pencil)">4월</text>
<text x="542" y="270" text-anchor="middle" font-size="11" font-family="Georgia,serif" fill="#333333" filter="url(#pencil)">5월</text>
<text x="656" y="270" text-anchor="middle" font-size="11" font-family="Georgia,serif" fill="#333333" filter="url(#pencil)">6월</text>
<line x1="59" y1="42" x2="59" y2="256" stroke="#111111" stroke-width="2" filter="url(#pline)"/>
<line x1="52" y1="251" x2="738" y2="251" stroke="#111111" stroke-width="2" filter="url(#pline)"/>
<polygon points="60,250 60,250 63,250 67,250 71,245 74,245 78,245 82,245 85,245 89,245 93,245 96,245 100,245 104,245 107,245 111,245 115,245 118,245 122,245 126,245 129,245 133,245 137,245 140,245 144,245 148,245 152,245 155,245 159,245 163,241 166,241 170,241 174,241 177,241 181,240 185,237 188,236 192,235 196,226 199,226 203,226 207,224 210,215 214,213 218,212 221,212 225,212 229,211 233,202 236,201 240,200 244,200 247,200 251,200 255,200 258,200 262,200 266,200 269,200 273,200 277,200 280,200 284,198 288,198 291,198 295,198 299,198 302,198 306,196 310,194 314,193 317,188 321,186 325,186 328,186 332,185 336,185 339,185 343,185 347,185 350,185 354,185 358,185 361,184 365,184 369,184 372,181 376,180 380,180 383,175 387,174 391,174 395,174 398,162 402,162 406,162 409,155 413,145 417,138 420,137 424,136 428,136 431,136 435,136 439,136 442,136 446,136 450,136 453,136 457,136 461,136 464,135 468,135 472,135 475,134 479,134 483,134 487,134 490,131 494,130 498,129 501,129 505,129 509,128 512,128 516,128 520,128 523,127 527,127 531,127 534,127 538,127 542,127 545,127 549,127 553,127 556,127 560,126 564,126 568,126 571,126 575,125 579,125 582,125 586,125 590,125 593,125 597,125 601,124 604,123 608,120 612,116 615,113 619,109 623,105 626,101 630,98 634,96 637,93 641,91 645,88 649,85 652,82 656,81 660,79 663,78 667,76 671,74 674,72 678,69 682,68 685,63 689,59 693,58 696,57 700,55 704,55 707,54 711,54 715,53 718,53 722,52 726,51 730,50 730,250" fill="#e8e8e8" opacity="0.6"/>
<polyline points="60,250 63,250 67,250 71,245 74,245 78,245 82,245 85,245 89,245 93,245 96,245 100,245 104,245 107,245 111,245 115,245 118,245 122,245 126,245 129,245 133,245 137,245 140,245 144,245 148,245 152,245 155,245 159,245 163,241 166,241 170,241 174,241 177,241 181,240 185,237 188,236 192,235 196,226 199,226 203,226 207,224 210,215 214,213 218,212 221,212 225,212 229,211 233,202 236,201 240,200 244,200 247,200 251,200 255,200 258,200 262,200 266,200 269,200 273,200 277,200 280,200 284,198 288,198 291,198 295,198 299,198 302,198 306,196 310,194 314,193 317,188 321,186 325,186 328,186 332,185 336,185 339,185 343,185 347,185 350,185 354,185 358,185 361,184 365,184 369,184 372,181 376,180 380,180 383,175 387,174 391,174 395,174 398,162 402,162 406,162 409,155 413,145 417,138 420,137 424,136 428,136 431,136 435,136 439,136 442,136 446,136 450,136 453,136 457,136 461,136 464,135 468,135 472,135 475,134 479,134 483,134 487,134 490,131 494,130 498,129 501,129 505,129 509,128 512,128 516,128 520,128 523,127 527,127 531,127 534,127 538,127 542,127 545,127 549,127 553,127 556,127 560,126 564,126 568,126 571,126 575,125 579,125 582,125 586,125 590,125 593,125 597,125 601,124 604,123 608,120 612,116 615,113 619,109 623,105 626,101 630,98 634,96 637,93 641,91 645,88 649,85 652,82 656,81 660,79 663,78 667,76 671,74 674,72 678,69 682,68 685,63 689,59 693,58 696,57 700,55 704,55 707,54 711,54 715,53 718,53 722,52 726,51 730,50" fill="none" stroke="#111111" stroke-width="2.4" stroke-linejoin="round" stroke-linecap="round" filter="url(#pline)"/>
<circle cx="730" cy="50" r="4" fill="#111111" filter="url(#pencil)"/>
<text x="724" y="42" text-anchor="end" font-size="10" font-family="Georgia,serif" fill="#111111">559K</text>
<text x="60" y="289" font-size="9" font-family="Georgia,serif" fill="#888888">기준: 2026-06-21 20:05</text>
</svg>