<svg xmlns="http://www.w3.org/2000/svg" width="760" height="295">
<defs><filter id="pencil" x="-5%" y="-5%" width="110%" height="110%"><feTurbulence type="fractalNoise" baseFrequency="0.9" numOctaves="4" seed="5" result="noise"/><feDisplacementMap in="SourceGraphic" in2="noise" scale="1.6" xChannelSelector="R" yChannelSelector="G"/></filter><filter id="pline" x="-2%" y="-30%" width="104%" height="160%"><feTurbulence type="fractalNoise" baseFrequency="0.015 0.9" numOctaves="3" seed="11" result="noise"/><feDisplacementMap in="SourceGraphic" in2="noise" scale="1.8" xChannelSelector="R" yChannelSelector="G"/></filter><filter id="rough" x="-5%" y="-5%" width="110%" height="110%"><feTurbulence type="turbulence" baseFrequency="0.05" numOctaves="2" seed="2" result="noise"/><feDisplacementMap in="SourceGraphic" in2="noise" scale="2" xChannelSelector="R" yChannelSelector="G"/></filter></defs>
<rect width="760" height="295" fill="#ffffff"/>
<text x="380" y="32" text-anchor="middle" font-size="14" font-weight="bold" font-family="Georgia,serif" fill="#111111" filter="url(#pencil)">Workload (6 months)</text>
<line x1="60" y1="250" x2="730" y2="250" stroke="#cccccc" stroke-width="0.7" stroke-dasharray="4,5" filter="url(#rough)"/>
<text x="54" y="254" text-anchor="end" font-size="10" font-family="Georgia,serif" fill="#333333">0</text>
<line x1="60" y1="200" x2="730" y2="200" stroke="#cccccc" stroke-width="0.7" stroke-dasharray="4,5" filter="url(#rough)"/>
<text x="54" y="204" text-anchor="end" font-size="10" font-family="Georgia,serif" fill="#333333">152K</text>
<line x1="60" y1="150" x2="730" y2="150" stroke="#cccccc" stroke-width="0.7" stroke-dasharray="4,5" filter="url(#rough)"/>
<text x="54" y="154" text-anchor="end" font-size="10" font-family="Georgia,serif" fill="#333333">305K</text>
<line x1="60" y1="100" x2="730" y2="100" stroke="#cccccc" stroke-width="0.7" stroke-dasharray="4,5" filter="url(#rough)"/>
<text x="54" y="104" text-anchor="end" font-size="10" font-family="Georgia,serif" fill="#333333">458K</text>
<line x1="60" y1="50" x2="730" y2="50" stroke="#cccccc" stroke-width="0.7" stroke-dasharray="4,5" filter="url(#rough)"/>
<text x="54" y="54" text-anchor="end" font-size="10" font-family="Georgia,serif" fill="#333333">611K</text>
<text x="93" y="270" text-anchor="middle" font-size="11" font-family="Georgia,serif" fill="#333333" filter="url(#pencil)">1월</text>
<text x="207" y="270" text-anchor="middle" font-size="11" font-family="Georgia,serif" fill="#333333" filter="url(#pencil)">2월</text>
<text x="310" y="270" text-anchor="middle" font-size="11" font-family="Georgia,serif" fill="#333333" filter="url(#pencil)">3월</text>
<text x="424" y="270" text-anchor="middle" font-size="11" font-family="Georgia,serif" fill="#333333" filter="url(#pencil)">4월</text>
<text x="534" y="270" text-anchor="middle" font-size="11" font-family="Georgia,serif" fill="#333333" filter="url(#pencil)">5월</text>
<text x="649" y="270" text-anchor="middle" font-size="11" font-family="Georgia,serif" fill="#333333" filter="url(#pencil)">6월</text>
<line x1="59" y1="42" x2="59" y2="256" stroke="#111111" stroke-width="2" filter="url(#pline)"/>
<line x1="52" y1="251" x2="738" y2="251" stroke="#111111" stroke-width="2" filter="url(#pline)"/>
<polygon points="60,250 60,250 63,246 67,246 71,246 74,246 78,246 82,246 85,246 89,246 93,246 96,246 100,246 104,246 107,246 111,246 115,246 118,246 122,246 126,246 129,246 133,246 137,246 140,246 144,246 148,246 152,246 155,241 159,241 163,241 166,241 170,241 174,241 177,238 181,237 185,236 188,227 192,227 196,227 199,225 203,217 207,215 210,214 214,214 218,214 221,213 225,204 229,203 233,203 236,203 240,203 244,203 247,203 251,203 255,203 258,203 262,203 266,203 269,203 273,203 277,201 280,201 284,201 288,201 291,201 295,201 299,199 302,197 306,196 310,191 314,189 317,189 321,189 325,189 328,189 332,189 336,189 339,189 343,189 347,189 350,189 354,188 358,188 361,188 365,184 369,183 372,183 376,179 380,178 383,178 387,178 391,167 395,167 398,167 402,159 406,150 409,144 413,143 417,142 420,142 424,142 428,142 431,142 435,142 439,142 442,142 446,142 450,142 453,142 457,141 461,141 464,141 468,139 472,139 475,139 479,139 483,136 487,135 490,133 494,133 498,133 501,132 505,132 509,132 512,132 516,131 520,131 523,131 527,131 531,131 534,131 538,131 542,130 545,130 549,130 553,129 556,129 560,129 564,129 568,129 571,129 575,129 579,129 582,129 586,128 590,128 593,127 597,127 601,123 604,120 608,117 612,113 615,109 619,105 623,103 626,100 630,97 634,95 637,92 641,89 645,87 649,85 652,84 656,82 660,80 663,79 667,77 671,74 674,73 678,67 682,64 685,63 689,62 693,60 696,59 700,58 704,58 707,57 711,56 715,56 718,54 722,51 726,51 730,50 730,250" fill="#e8e8e8" opacity="0.6"/>
<polyline points="60,250 63,246 67,246 71,246 74,246 78,246 82,246 85,246 89,246 93,246 96,246 100,246 104,246 107,246 111,246 115,246 118,246 122,246 126,246 129,246 133,246 137,246 140,246 144,246 148,246 152,246 155,241 159,241 163,241 166,241 170,241 174,241 177,238 181,237 185,236 188,227 192,227 196,227 199,225 203,217 207,215 210,214 214,214 218,214 221,213 225,204 229,203 233,203 236,203 240,203 244,203 247,203 251,203 255,203 258,203 262,203 266,203 269,203 273,203 277,201 280,201 284,201 288,201 291,201 295,201 299,199 302,197 306,196 310,191 314,189 317,189 321,189 325,189 328,189 332,189 336,189 339,189 343,189 347,189 350,189 354,188 358,188 361,188 365,184 369,183 372,183 376,179 380,178 383,178 387,178 391,167 395,167 398,167 402,159 406,150 409,144 413,143 417,142 420,142 424,142 428,142 431,142 435,142 439,142 442,142 446,142 450,142 453,142 457,141 461,141 464,141 468,139 472,139 475,139 479,139 483,136 487,135 490,133 494,133 498,133 501,132 505,132 509,132 512,132 516,131 520,131 523,131 527,131 531,131 534,131 538,131 542,130 545,130 549,130 553,129 556,129 560,129 564,129 568,129 571,129 575,129 579,129 582,129 586,128 590,128 593,127 597,127 601,123 604,120 608,117 612,113 615,109 619,105 623,103 626,100 630,97 634,95 637,92 641,89 645,87 649,85 652,84 656,82 660,80 663,79 667,77 671,74 674,73 678,67 682,64 685,63 689,62 693,60 696,59 700,58 704,58 707,57 711,56 715,56 718,54 722,51 726,51 730,50" fill="none" stroke="#111111" stroke-width="2.4" stroke-linejoin="round" stroke-linecap="round" filter="url(#pline)"/>
<circle cx="730" cy="50" r="4" fill="#111111" filter="url(#pencil)"/>
<text x="724" y="42" text-anchor="end" font-size="10" font-family="Georgia,serif" fill="#111111">611K</text>
<text x="60" y="289" font-size="9" font-family="Georgia,serif" fill="#888888">기준: 2026-06-23 10:04</text>
</svg>