<svg xmlns="http://www.w3.org/2000/svg" width="363" height="260">
<text x="181" y="18" text-anchor="middle" font-size="13" font-weight="bold" fill="#e0e0e0">최근 2주 요일별 활동</text>
<text x="24" y="46" text-anchor="end" font-size="12" fill="#cccccc">일</text><rect x="28" y="30" width="79" height="22" rx="3" fill="#40c463"><title>일: 4150.0점</title></rect><text x="112" y="46" font-size="10" fill="#cccccc">4150.0</text><text x="24" y="74" text-anchor="end" font-size="12" fill="#cccccc">월</text><rect x="28" y="58" width="280" height="22" rx="3" fill="#216e39"><title>월: 14591.4점</title></rect><text x="313" y="74" font-size="10" fill="#cccccc">14591.4</text><text x="24" y="102" text-anchor="end" font-size="12" fill="#cccccc">화</text><rect x="28" y="86" width="272" height="22" rx="3" fill="#216e39"><title>화: 14202.3점</title></rect><text x="305" y="102" font-size="10" fill="#cccccc">14202.3</text><text x="24" y="130" text-anchor="end" font-size="12" fill="#cccccc">수</text><rect x="28" y="114" width="212" height="22" rx="3" fill="#216e39"><title>수: 11090.1점</title></rect><text x="245" y="130" font-size="10" fill="#cccccc">11090.1</text><text x="24" y="158" text-anchor="end" font-size="12" fill="#cccccc">목</text><rect x="28" y="142" width="141" height="22" rx="3" fill="#30a14e"><title>목: 7398.5점</title></rect><text x="174" y="158" font-size="10" fill="#cccccc">7398.5</text><text x="24" y="186" text-anchor="end" font-size="12" fill="#cccccc">금</text><rect x="28" y="170" width="133" height="22" rx="3" fill="#40c463"><title>금: 6943.2점</title></rect><text x="166" y="186" font-size="10" fill="#cccccc">6943.2</text><text x="24" y="214" text-anchor="end" font-size="12" fill="#cccccc">토</text><rect x="28" y="198" width="142" height="22" rx="3" fill="#30a14e"><title>토: 7408.6점</title></rect><text x="175" y="214" font-size="10" fill="#cccccc">7408.6</text>
<text x="28" y="254" font-size="9" fill="#999999">기준: 2026-07-12 22:09</text>
</svg>