<svg xmlns="http://www.w3.org/2000/svg" width="363" height="260">
<text x="181" y="18" text-anchor="middle" font-size="13" font-weight="bold" fill="#e0e0e0">최근 1달 요일별 활동</text>
<text x="24" y="46" text-anchor="end" font-size="12" fill="#cccccc">일</text><rect x="28" y="30" width="191" height="22" rx="3" fill="#30a14e"><title>일: 7900.8점</title></rect><text x="224" y="46" font-size="10" fill="#cccccc">7900.8</text><text x="24" y="74" text-anchor="end" font-size="12" fill="#cccccc">월</text><rect x="28" y="58" width="107" height="22" rx="3" fill="#40c463"><title>월: 4436.2점</title></rect><text x="140" y="74" font-size="10" fill="#cccccc">4436.2</text><text x="24" y="102" text-anchor="end" font-size="12" fill="#cccccc">화</text><rect x="28" y="86" width="280" height="22" rx="3" fill="#216e39"><title>화: 11574.2점</title></rect><text x="313" y="102" font-size="10" fill="#cccccc">11574.2</text><text x="24" y="130" text-anchor="end" font-size="12" fill="#cccccc">수</text><rect x="28" y="114" width="229" height="22" rx="3" fill="#216e39"><title>수: 9503.7점</title></rect><text x="262" y="130" font-size="10" fill="#cccccc">9503.7</text><text x="24" y="158" text-anchor="end" font-size="12" fill="#cccccc">목</text><rect x="28" y="142" width="204" height="22" rx="3" fill="#30a14e"><title>목: 8442.2점</title></rect><text x="237" y="158" font-size="10" fill="#cccccc">8442.2</text><text x="24" y="186" text-anchor="end" font-size="12" fill="#cccccc">금</text><rect x="28" y="170" width="181" height="22" rx="3" fill="#30a14e"><title>금: 7494.0점</title></rect><text x="214" y="186" font-size="10" fill="#cccccc">7494.0</text><text x="24" y="214" text-anchor="end" font-size="12" fill="#cccccc">토</text><rect x="28" y="198" width="176" height="22" rx="3" fill="#30a14e"><title>토: 7303.0점</title></rect><text x="209" y="214" font-size="10" fill="#cccccc">7303.0</text>
<text x="28" y="254" font-size="9" fill="#999999">기준: 2026-06-03 11:24</text>
</svg>