<svg xmlns="http://www.w3.org/2000/svg" width="363" height="260">
<text x="181" y="18" text-anchor="middle" font-size="13" font-weight="bold" fill="#e0e0e0">최근 2주 요일별 활동</text>
<text x="24" y="46" text-anchor="end" font-size="12" fill="#cccccc">일</text><rect x="28" y="30" width="210" height="22" rx="3" fill="#216e39"><title>일: 8233.8점</title></rect><text x="243" y="46" font-size="10" fill="#cccccc">8233.8</text><text x="24" y="74" text-anchor="end" font-size="12" fill="#cccccc">월</text><rect x="28" y="58" width="138" height="22" rx="3" fill="#40c463"><title>월: 5432.5점</title></rect><text x="171" y="74" font-size="10" fill="#cccccc">5432.5</text><text x="24" y="102" text-anchor="end" font-size="12" fill="#cccccc">화</text><rect x="28" y="86" width="97" height="22" rx="3" fill="#40c463"><title>화: 3820.5점</title></rect><text x="130" y="102" font-size="10" fill="#cccccc">3820.5</text><text x="24" y="130" text-anchor="end" font-size="12" fill="#cccccc">수</text><rect x="28" y="114" width="69" height="22" rx="3" fill="#9be9a8"><title>수: 2715.0점</title></rect><text x="102" y="130" font-size="10" fill="#cccccc">2715.0</text><text x="24" y="158" text-anchor="end" font-size="12" fill="#cccccc">목</text><rect x="28" y="142" width="143" height="22" rx="3" fill="#30a14e"><title>목: 5625.8점</title></rect><text x="176" y="158" font-size="10" fill="#cccccc">5625.8</text><text x="24" y="186" text-anchor="end" font-size="12" fill="#cccccc">금</text><rect x="28" y="170" width="159" height="22" rx="3" fill="#30a14e"><title>금: 6232.7점</title></rect><text x="192" y="186" font-size="10" fill="#cccccc">6232.7</text><text x="24" y="214" text-anchor="end" font-size="12" fill="#cccccc">토</text><rect x="28" y="198" width="280" height="22" rx="3" fill="#216e39"><title>토: 10970.4점</title></rect><text x="313" y="214" font-size="10" fill="#cccccc">10970.4</text>
<text x="28" y="254" font-size="9" fill="#999999">기준: 2026-06-24 15:10</text>
</svg>