<svg xmlns="http://www.w3.org/2000/svg" width="363" height="260">
<text x="181" y="18" text-anchor="middle" font-size="13" font-weight="bold" fill="#111111">최근 2주 요일별 활동</text>
<text x="24" y="46" text-anchor="end" font-size="12" fill="#333333">일</text><rect x="28" y="30" width="125" height="22" rx="3" fill="#40c463"><title>일: 2173.3점</title></rect><text x="158" y="46" font-size="10" fill="#333333">2173.3</text><text x="24" y="74" text-anchor="end" font-size="12" fill="#333333">월</text><rect x="28" y="58" width="280" height="22" rx="3" fill="#216e39"><title>월: 4843.2점</title></rect><text x="313" y="74" font-size="10" fill="#333333">4843.2</text><text x="24" y="102" text-anchor="end" font-size="12" fill="#333333">화</text><rect x="28" y="86" width="253" height="22" rx="3" fill="#216e39"><title>화: 4381.0점</title></rect><text x="286" y="102" font-size="10" fill="#333333">4381.0</text><text x="24" y="130" text-anchor="end" font-size="12" fill="#333333">수</text><rect x="28" y="114" width="224" height="22" rx="3" fill="#216e39"><title>수: 3883.0점</title></rect><text x="257" y="130" font-size="10" fill="#333333">3883.0</text><text x="24" y="158" text-anchor="end" font-size="12" fill="#333333">목</text><rect x="28" y="142" width="206" height="22" rx="3" fill="#30a14e"><title>목: 3575.0점</title></rect><text x="239" y="158" font-size="10" fill="#333333">3575.0</text><text x="24" y="186" text-anchor="end" font-size="12" fill="#333333">금</text><rect x="28" y="170" width="174" height="22" rx="3" fill="#30a14e"><title>금: 3025.0점</title></rect><text x="207" y="186" font-size="10" fill="#333333">3025.0</text><text x="24" y="214" text-anchor="end" font-size="12" fill="#333333">토</text><rect x="28" y="198" width="191" height="22" rx="3" fill="#30a14e"><title>토: 3311.0점</title></rect><text x="224" y="214" font-size="10" fill="#333333">3311.0</text>
<text x="28" y="254" font-size="9" fill="#666666">기준: 2026-06-07 04:58</text>
</svg>