<svg xmlns="http://www.w3.org/2000/svg" width="363" height="260">
<text x="181" y="18" text-anchor="middle" font-size="13" font-weight="bold" fill="#111111">최근 1주 요일별 활동</text>
<text x="24" y="46" text-anchor="end" font-size="12" fill="#333333">일</text><rect x="28" y="30" width="280" height="22" rx="3" fill="#216e39"><title>일: 2907.1점</title></rect><text x="313" y="46" font-size="10" fill="#333333">2907.1</text><text x="24" y="74" text-anchor="end" font-size="12" fill="#333333">월</text><rect x="28" y="58" width="255" height="22" rx="3" fill="#216e39"><title>월: 2656.5점</title></rect><text x="288" y="74" font-size="10" fill="#333333">2656.5</text><text x="24" y="102" text-anchor="end" font-size="12" fill="#333333">화</text><rect x="28" y="86" width="190" height="22" rx="3" fill="#30a14e"><title>화: 1980.0점</title></rect><text x="223" y="102" font-size="10" fill="#333333">1980.0</text><text x="24" y="130" text-anchor="end" font-size="12" fill="#333333">수</text><rect x="28" y="114" width="87" height="22" rx="3" fill="#40c463"><title>수: 907.4점</title></rect><text x="120" y="130" font-size="10" fill="#333333">907.4</text><text x="24" y="158" text-anchor="end" font-size="12" fill="#333333">목</text><rect x="28" y="142" width="38" height="22" rx="3" fill="#9be9a8"><title>목: 404.8점</title></rect><text x="71" y="158" font-size="10" fill="#333333">404.8</text><text x="24" y="186" text-anchor="end" font-size="12" fill="#333333">금</text><rect x="28" y="170" width="3" height="22" rx="3" fill="#9be9a8"><title>금: 33.0점</title></rect><text x="36" y="186" font-size="10" fill="#333333">33.0</text><text x="24" y="214" text-anchor="end" font-size="12" fill="#333333">토</text><rect x="28" y="198" width="279" height="22" rx="3" fill="#216e39"><title>토: 2907.0점</title></rect><text x="312" y="214" font-size="10" fill="#333333">2907.0</text>
<text x="28" y="254" font-size="9" fill="#666666">기준: 2026-07-03 14:33</text>
</svg>