<svg xmlns="http://www.w3.org/2000/svg" width="363" height="260">
<text x="181" y="18" text-anchor="middle" font-size="13" font-weight="bold" fill="#111111">최근 2주 요일별 활동</text>
<text x="24" y="46" text-anchor="end" font-size="12" fill="#333333">일</text><rect x="28" y="30" width="280" height="22" rx="3" fill="#216e39"><title>일: 22082.0점</title></rect><text x="313" y="46" font-size="10" fill="#333333">22082.0</text><text x="24" y="74" text-anchor="end" font-size="12" fill="#333333">월</text><rect x="28" y="58" width="227" height="22" rx="3" fill="#216e39"><title>월: 17971.8점</title></rect><text x="260" y="74" font-size="10" fill="#333333">17971.8</text><text x="24" y="102" text-anchor="end" font-size="12" fill="#333333">화</text><rect x="28" y="86" width="229" height="22" rx="3" fill="#216e39"><title>화: 18126.7점</title></rect><text x="262" y="102" font-size="10" fill="#333333">18126.7</text><text x="24" y="130" text-anchor="end" font-size="12" fill="#333333">수</text><rect x="28" y="114" width="216" height="22" rx="3" fill="#216e39"><title>수: 17097.5점</title></rect><text x="249" y="130" font-size="10" fill="#333333">17097.5</text><text x="24" y="158" text-anchor="end" font-size="12" fill="#333333">목</text><rect x="28" y="142" width="74" height="22" rx="3" fill="#40c463"><title>목: 5861.3점</title></rect><text x="107" y="158" font-size="10" fill="#333333">5861.3</text><text x="24" y="186" text-anchor="end" font-size="12" fill="#333333">금</text><rect x="28" y="170" width="154" height="22" rx="3" fill="#30a14e"><title>금: 12189.6점</title></rect><text x="187" y="186" font-size="10" fill="#333333">12189.6</text><text x="24" y="214" text-anchor="end" font-size="12" fill="#333333">토</text><rect x="28" y="198" width="198" height="22" rx="3" fill="#30a14e"><title>토: 15665.4점</title></rect><text x="231" y="214" font-size="10" fill="#333333">15665.4</text>
<text x="28" y="254" font-size="9" fill="#666666">기준: 2026-07-02 14:30</text>
</svg>