<svg xmlns="http://www.w3.org/2000/svg" width="363" height="260">
<text x="181" y="18" text-anchor="middle" font-size="13" font-weight="bold" fill="#e0e0e0">최근 1주 요일별 활동</text>
<text x="24" y="46" text-anchor="end" font-size="12" fill="#cccccc">일</text><rect x="28" y="30" width="65" height="22" rx="3" fill="#9be9a8"><title>일: 539.0점</title></rect><text x="98" y="46" font-size="10" fill="#cccccc">539.0</text><text x="24" y="74" text-anchor="end" font-size="12" fill="#cccccc">월</text><rect x="28" y="58" width="8" height="22" rx="3" fill="#9be9a8"><title>월: 66.0점</title></rect><text x="41" y="74" font-size="10" fill="#cccccc">66.0</text><text x="24" y="102" text-anchor="end" font-size="12" fill="#cccccc">화</text><rect x="28" y="86" width="280" height="22" rx="3" fill="#216e39"><title>화: 2302.9점</title></rect><text x="313" y="102" font-size="10" fill="#cccccc">2302.9</text><text x="24" y="130" text-anchor="end" font-size="12" fill="#cccccc">수</text><rect x="28" y="114" width="212" height="22" rx="3" fill="#216e39"><title>수: 1749.2점</title></rect><text x="245" y="130" font-size="10" fill="#cccccc">1749.2</text><text x="24" y="158" text-anchor="end" font-size="12" fill="#cccccc">목</text><rect x="28" y="142" width="167" height="22" rx="3" fill="#30a14e"><title>목: 1375.0점</title></rect><text x="200" y="158" font-size="10" fill="#cccccc">1375.0</text><text x="24" y="186" text-anchor="end" font-size="12" fill="#cccccc">금</text><rect x="28" y="170" width="133" height="22" rx="3" fill="#40c463"><title>금: 1100.0점</title></rect><text x="166" y="186" font-size="10" fill="#cccccc">1100.0</text><text x="24" y="214" text-anchor="end" font-size="12" fill="#cccccc">토</text><rect x="28" y="198" width="131" height="22" rx="3" fill="#40c463"><title>토: 1078.0점</title></rect><text x="164" y="214" font-size="10" fill="#cccccc">1078.0</text>
<text x="28" y="254" font-size="9" fill="#999999">기준: 2026-05-25 20:00</text>
</svg>