<svg xmlns="http://www.w3.org/2000/svg" width="363" height="260">
<text x="181" y="18" text-anchor="middle" font-size="13" font-weight="bold" fill="#e0e0e0">최근 1주 요일별 활동</text>
<text x="24" y="46" text-anchor="end" font-size="12" fill="#cccccc">일</text><rect x="28" y="30" width="130" height="22" rx="3" fill="#40c463"><title>일: 677.7점</title></rect><text x="163" y="46" font-size="10" fill="#cccccc">677.7</text><text x="24" y="74" text-anchor="end" font-size="12" fill="#cccccc">월</text><rect x="28" y="58" width="48" height="22" rx="3" fill="#9be9a8"><title>월: 249.5점</title></rect><text x="81" y="74" font-size="10" fill="#cccccc">249.5</text><text x="24" y="102" text-anchor="end" font-size="12" fill="#cccccc">화</text><rect x="28" y="86" width="280" height="22" rx="3" fill="#216e39"><title>화: 1452.5점</title></rect><text x="313" y="102" font-size="10" fill="#cccccc">1452.5</text><text x="24" y="130" text-anchor="end" font-size="12" fill="#cccccc">수</text><rect x="28" y="114" width="191" height="22" rx="3" fill="#30a14e"><title>수: 992.6점</title></rect><text x="224" y="130" font-size="10" fill="#cccccc">992.6</text><text x="24" y="158" text-anchor="end" font-size="12" fill="#cccccc">목</text><rect x="28" y="142" width="127" height="22" rx="3" fill="#40c463"><title>목: 660.0점</title></rect><text x="160" y="158" font-size="10" fill="#cccccc">660.0</text><text x="24" y="186" text-anchor="end" font-size="12" fill="#cccccc">금</text><rect x="28" y="170" width="74" height="22" rx="3" fill="#40c463"><title>금: 385.0점</title></rect><text x="107" y="186" font-size="10" fill="#cccccc">385.0</text><text x="24" y="214" text-anchor="end" font-size="12" fill="#cccccc">토</text><rect x="28" y="198" width="21" height="22" rx="3" fill="#9be9a8"><title>토: 110.0점</title></rect><text x="54" y="214" font-size="10" fill="#cccccc">110.0</text>
<text x="28" y="254" font-size="9" fill="#999999">기준: 2026-05-23 16:15</text>
</svg>