<svg xmlns="http://www.w3.org/2000/svg" width="363" height="260">
<text x="181" y="18" text-anchor="middle" font-size="13" font-weight="bold" fill="#e0e0e0">최근 2주 요일별 활동</text>
<text x="24" y="46" text-anchor="end" font-size="12" fill="#cccccc">일</text><rect x="28" y="30" width="93" height="22" rx="3" fill="#40c463"><title>일: 4716.1점</title></rect><text x="126" y="46" font-size="10" fill="#cccccc">4716.1</text><text x="24" y="74" text-anchor="end" font-size="12" fill="#cccccc">월</text><rect x="28" y="58" width="46" height="22" rx="3" fill="#9be9a8"><title>월: 2364.5점</title></rect><text x="79" y="74" font-size="10" fill="#cccccc">2364.5</text><text x="24" y="102" text-anchor="end" font-size="12" fill="#cccccc">화</text><rect x="28" y="86" width="280" height="22" rx="3" fill="#216e39"><title>화: 14088.7점</title></rect><text x="313" y="102" font-size="10" fill="#cccccc">14088.7</text><text x="24" y="130" text-anchor="end" font-size="12" fill="#cccccc">수</text><rect x="28" y="114" width="170" height="22" rx="3" fill="#30a14e"><title>수: 8564.7점</title></rect><text x="203" y="130" font-size="10" fill="#cccccc">8564.7</text><text x="24" y="158" text-anchor="end" font-size="12" fill="#cccccc">목</text><rect x="28" y="142" width="89" height="22" rx="3" fill="#40c463"><title>목: 4516.9점</title></rect><text x="122" y="158" font-size="10" fill="#cccccc">4516.9</text><text x="24" y="186" text-anchor="end" font-size="12" fill="#cccccc">금</text><rect x="28" y="170" width="93" height="22" rx="3" fill="#40c463"><title>금: 4691.0점</title></rect><text x="126" y="186" font-size="10" fill="#cccccc">4691.0</text><text x="24" y="214" text-anchor="end" font-size="12" fill="#cccccc">토</text><rect x="28" y="198" width="161" height="22" rx="3" fill="#30a14e"><title>토: 8101.4점</title></rect><text x="194" y="214" font-size="10" fill="#cccccc">8101.4</text>
<text x="28" y="254" font-size="9" fill="#999999">기준: 2026-06-22 18:53</text>
</svg>