<svg xmlns="http://www.w3.org/2000/svg" width="363" height="260">
<text x="181" y="18" text-anchor="middle" font-size="13" font-weight="bold" fill="#e0e0e0">최근 1달 요일별 활동</text>
<text x="24" y="46" text-anchor="end" font-size="12" fill="#cccccc">일</text><rect x="28" y="30" width="244" height="22" rx="3" fill="#216e39"><title>일: 61996.8점</title></rect><text x="277" y="46" font-size="10" fill="#cccccc">61996.8</text><text x="24" y="74" text-anchor="end" font-size="12" fill="#cccccc">월</text><rect x="28" y="58" width="262" height="22" rx="3" fill="#216e39"><title>월: 66541.9점</title></rect><text x="295" y="74" font-size="10" fill="#cccccc">66541.9</text><text x="24" y="102" text-anchor="end" font-size="12" fill="#cccccc">화</text><rect x="28" y="86" width="263" height="22" rx="3" fill="#216e39"><title>화: 66853.0점</title></rect><text x="296" y="102" font-size="10" fill="#cccccc">66853.0</text><text x="24" y="130" text-anchor="end" font-size="12" fill="#cccccc">수</text><rect x="28" y="114" width="280" height="22" rx="3" fill="#216e39"><title>수: 71039.6점</title></rect><text x="313" y="130" font-size="10" fill="#cccccc">71039.6</text><text x="24" y="158" text-anchor="end" font-size="12" fill="#cccccc">목</text><rect x="28" y="142" width="141" height="22" rx="3" fill="#30a14e"><title>목: 35912.0점</title></rect><text x="174" y="158" font-size="10" fill="#cccccc">35912.0</text><text x="24" y="186" text-anchor="end" font-size="12" fill="#cccccc">금</text><rect x="28" y="170" width="158" height="22" rx="3" fill="#30a14e"><title>금: 40160.9점</title></rect><text x="191" y="186" font-size="10" fill="#cccccc">40160.9</text><text x="24" y="214" text-anchor="end" font-size="12" fill="#cccccc">토</text><rect x="28" y="198" width="181" height="22" rx="3" fill="#30a14e"><title>토: 45946.3점</title></rect><text x="214" y="214" font-size="10" fill="#cccccc">45946.3</text>
<text x="28" y="254" font-size="9" fill="#999999">기준: 2026-07-14 03:38</text>
</svg>