<svg xmlns="http://www.w3.org/2000/svg" width="363" height="260">
<text x="181" y="18" text-anchor="middle" font-size="13" font-weight="bold" fill="#111111">최근 2주 요일별 활동</text>
<text x="24" y="46" text-anchor="end" font-size="12" fill="#333333">일</text><rect x="28" y="30" width="276" height="22" rx="3" fill="#216e39"><title>일: 15807.2점</title></rect><text x="309" y="46" font-size="10" fill="#333333">15807.2</text><text x="24" y="74" text-anchor="end" font-size="12" fill="#333333">월</text><rect x="28" y="58" width="211" height="22" rx="3" fill="#216e39"><title>월: 12102.9점</title></rect><text x="244" y="74" font-size="10" fill="#333333">12102.9</text><text x="24" y="102" text-anchor="end" font-size="12" fill="#333333">화</text><rect x="28" y="86" width="269" height="22" rx="3" fill="#216e39"><title>화: 15380.8점</title></rect><text x="302" y="102" font-size="10" fill="#333333">15380.8</text><text x="24" y="130" text-anchor="end" font-size="12" fill="#333333">수</text><rect x="28" y="114" width="280" height="22" rx="3" fill="#216e39"><title>수: 15988.6점</title></rect><text x="313" y="130" font-size="10" fill="#333333">15988.6</text><text x="24" y="158" text-anchor="end" font-size="12" fill="#333333">목</text><rect x="28" y="142" width="138" height="22" rx="3" fill="#40c463"><title>목: 7904.2점</title></rect><text x="171" y="158" font-size="10" fill="#333333">7904.2</text><text x="24" y="186" text-anchor="end" font-size="12" fill="#333333">금</text><rect x="28" y="170" width="150" height="22" rx="3" fill="#30a14e"><title>금: 8622.0점</title></rect><text x="183" y="186" font-size="10" fill="#333333">8622.0</text><text x="24" y="214" text-anchor="end" font-size="12" fill="#333333">토</text><rect x="28" y="198" width="201" height="22" rx="3" fill="#30a14e"><title>토: 11488.2점</title></rect><text x="234" y="214" font-size="10" fill="#333333">11488.2</text>
<text x="28" y="254" font-size="9" fill="#666666">기준: 2026-06-29 22:32</text>
</svg>