<svg xmlns="http://www.w3.org/2000/svg" width="363" height="260">
<text x="181" y="18" text-anchor="middle" font-size="13" font-weight="bold" fill="#111111">최근 2주 요일별 활동</text>
<text x="24" y="46" text-anchor="end" font-size="12" fill="#333333">일</text><rect x="28" y="30" width="280" height="22" rx="3" fill="#216e39"><title>일: 14487.6점</title></rect><text x="313" y="46" font-size="10" fill="#333333">14487.6</text><text x="24" y="74" text-anchor="end" font-size="12" fill="#333333">월</text><rect x="28" y="58" width="210" height="22" rx="3" fill="#216e39"><title>월: 10906.5점</title></rect><text x="243" y="74" font-size="10" fill="#333333">10906.5</text><text x="24" y="102" text-anchor="end" font-size="12" fill="#333333">화</text><rect x="28" y="86" width="185" height="22" rx="3" fill="#30a14e"><title>화: 9600.6점</title></rect><text x="218" y="102" font-size="10" fill="#333333">9600.6</text><text x="24" y="130" text-anchor="end" font-size="12" fill="#333333">수</text><rect x="28" y="114" width="179" height="22" rx="3" fill="#30a14e"><title>수: 9293.8점</title></rect><text x="212" y="130" font-size="10" fill="#333333">9293.8</text><text x="24" y="158" text-anchor="end" font-size="12" fill="#333333">목</text><rect x="28" y="142" width="88" height="22" rx="3" fill="#40c463"><title>목: 4580.7점</title></rect><text x="121" y="158" font-size="10" fill="#333333">4580.7</text><text x="24" y="186" text-anchor="end" font-size="12" fill="#333333">금</text><rect x="28" y="170" width="94" height="22" rx="3" fill="#40c463"><title>금: 4866.3점</title></rect><text x="127" y="186" font-size="10" fill="#333333">4866.3</text><text x="24" y="214" text-anchor="end" font-size="12" fill="#333333">토</text><rect x="28" y="198" width="139" height="22" rx="3" fill="#40c463"><title>토: 7197.5점</title></rect><text x="172" y="214" font-size="10" fill="#333333">7197.5</text>
<text x="28" y="254" font-size="9" fill="#666666">기준: 2026-06-27 09:06</text>
</svg>