<svg xmlns="http://www.w3.org/2000/svg" width="363" height="260">
<text x="181" y="18" text-anchor="middle" font-size="13" font-weight="bold" fill="#111111">최근 1주 요일별 활동</text>
<text x="24" y="46" text-anchor="end" font-size="12" fill="#333333">일</text><rect x="28" y="30" width="24" height="22" rx="3" fill="#9be9a8"><title>일: 1104.9점</title></rect><text x="57" y="46" font-size="10" fill="#333333">1104.9</text><text x="24" y="74" text-anchor="end" font-size="12" fill="#333333">월</text><rect x="28" y="58" width="14" height="22" rx="3" fill="#9be9a8"><title>월: 631.1점</title></rect><text x="47" y="74" font-size="10" fill="#333333">631.1</text><text x="24" y="102" text-anchor="end" font-size="12" fill="#333333">화</text><rect x="28" y="86" width="2" height="22" rx="3" fill="#9be9a8"><title>화: 84.0점</title></rect><text x="35" y="102" font-size="10" fill="#333333">84.0</text><text x="24" y="130" text-anchor="end" font-size="12" fill="#333333">수</text><rect x="28" y="114" width="280" height="22" rx="3" fill="#216e39"><title>수: 12471.3점</title></rect><text x="313" y="130" font-size="10" fill="#333333">12471.3</text><text x="24" y="158" text-anchor="end" font-size="12" fill="#333333">목</text><rect x="28" y="142" width="93" height="22" rx="3" fill="#40c463"><title>목: 4143.8점</title></rect><text x="126" y="158" font-size="10" fill="#333333">4143.8</text><text x="24" y="186" text-anchor="end" font-size="12" fill="#333333">금</text><rect x="28" y="170" width="70" height="22" rx="3" fill="#40c463"><title>금: 3160.3점</title></rect><text x="103" y="186" font-size="10" fill="#333333">3160.3</text><text x="24" y="214" text-anchor="end" font-size="12" fill="#333333">토</text><rect x="28" y="198" width="31" height="22" rx="3" fill="#9be9a8"><title>토: 1420.6점</title></rect><text x="64" y="214" font-size="10" fill="#333333">1420.6</text>
<text x="28" y="254" font-size="9" fill="#666666">기준: 2026-06-30 14:44</text>
</svg>