<svg xmlns="http://www.w3.org/2000/svg" width="363" height="260">
<text x="181" y="18" text-anchor="middle" font-size="13" font-weight="bold" fill="#e0e0e0">최근 1달 요일별 활동</text>
<text x="24" y="46" text-anchor="end" font-size="12" fill="#cccccc">일</text><rect x="28" y="30" width="280" height="22" rx="3" fill="#216e39"><title>일: 29922.2점</title></rect><text x="313" y="46" font-size="10" fill="#cccccc">29922.2</text><text x="24" y="74" text-anchor="end" font-size="12" fill="#cccccc">월</text><rect x="28" y="58" width="172" height="22" rx="3" fill="#30a14e"><title>월: 18447.2점</title></rect><text x="205" y="74" font-size="10" fill="#cccccc">18447.2</text><text x="24" y="102" text-anchor="end" font-size="12" fill="#cccccc">화</text><rect x="28" y="86" width="243" height="22" rx="3" fill="#216e39"><title>화: 25994.9점</title></rect><text x="276" y="102" font-size="10" fill="#cccccc">25994.9</text><text x="24" y="130" text-anchor="end" font-size="12" fill="#cccccc">수</text><rect x="28" y="114" width="186" height="22" rx="3" fill="#30a14e"><title>수: 19896.3점</title></rect><text x="219" y="130" font-size="10" fill="#cccccc">19896.3</text><text x="24" y="158" text-anchor="end" font-size="12" fill="#cccccc">목</text><rect x="28" y="142" width="155" height="22" rx="3" fill="#30a14e"><title>목: 16620.3점</title></rect><text x="188" y="158" font-size="10" fill="#cccccc">16620.3</text><text x="24" y="186" text-anchor="end" font-size="12" fill="#cccccc">금</text><rect x="28" y="170" width="151" height="22" rx="3" fill="#30a14e"><title>금: 16175.8점</title></rect><text x="184" y="186" font-size="10" fill="#cccccc">16175.8</text><text x="24" y="214" text-anchor="end" font-size="12" fill="#cccccc">토</text><rect x="28" y="198" width="213" height="22" rx="3" fill="#216e39"><title>토: 22786.8점</title></rect><text x="246" y="214" font-size="10" fill="#cccccc">22786.8</text>
<text x="28" y="254" font-size="9" fill="#999999">기준: 2026-06-22 05:33</text>
</svg>