<svg xmlns="http://www.w3.org/2000/svg" width="363" height="260">
<text x="181" y="18" text-anchor="middle" font-size="13" font-weight="bold" fill="#e0e0e0">최근 2주 요일별 활동</text>
<text x="24" y="46" text-anchor="end" font-size="12" fill="#cccccc">일</text><rect x="28" y="30" width="203" height="22" rx="3" fill="#30a14e"><title>일: 1592.4점</title></rect><text x="236" y="46" font-size="10" fill="#cccccc">1592.4</text><text x="24" y="74" text-anchor="end" font-size="12" fill="#cccccc">월</text><rect x="28" y="58" width="131" height="22" rx="3" fill="#40c463"><title>월: 1025.7점</title></rect><text x="164" y="74" font-size="10" fill="#cccccc">1025.7</text><text x="24" y="102" text-anchor="end" font-size="12" fill="#cccccc">화</text><rect x="28" y="86" width="280" height="22" rx="3" fill="#216e39"><title>화: 2190.3점</title></rect><text x="313" y="102" font-size="10" fill="#cccccc">2190.3</text><text x="24" y="130" text-anchor="end" font-size="12" fill="#cccccc">수</text><rect x="28" y="114" width="151" height="22" rx="3" fill="#30a14e"><title>수: 1184.3점</title></rect><text x="184" y="130" font-size="10" fill="#cccccc">1184.3</text><text x="24" y="158" text-anchor="end" font-size="12" fill="#cccccc">목</text><rect x="28" y="142" width="119" height="22" rx="3" fill="#40c463"><title>목: 937.5점</title></rect><text x="152" y="158" font-size="10" fill="#cccccc">937.5</text><text x="24" y="186" text-anchor="end" font-size="12" fill="#cccccc">금</text><rect x="28" y="170" width="83" height="22" rx="3" fill="#40c463"><title>금: 655.5점</title></rect><text x="116" y="186" font-size="10" fill="#cccccc">655.5</text><text x="24" y="214" text-anchor="end" font-size="12" fill="#cccccc">토</text><rect x="28" y="198" width="54" height="22" rx="3" fill="#9be9a8"><title>토: 426.5점</title></rect><text x="87" y="214" font-size="10" fill="#cccccc">426.5</text>
<text x="28" y="254" font-size="9" fill="#999999">기준: 2026-05-23 10:45</text>
</svg>