<svg xmlns="http://www.w3.org/2000/svg" width="363" height="260">
<text x="181" y="18" text-anchor="middle" font-size="13" font-weight="bold" fill="#111111">최근 2주 요일별 활동</text>
<text x="24" y="46" text-anchor="end" font-size="12" fill="#333333">일</text><rect x="28" y="30" width="133" height="22" rx="3" fill="#40c463"><title>일: 4311.3점</title></rect><text x="166" y="46" font-size="10" fill="#333333">4311.3</text><text x="24" y="74" text-anchor="end" font-size="12" fill="#333333">월</text><rect x="28" y="58" width="61" height="22" rx="3" fill="#9be9a8"><title>월: 2003.7점</title></rect><text x="94" y="74" font-size="10" fill="#333333">2003.7</text><text x="24" y="102" text-anchor="end" font-size="12" fill="#333333">화</text><rect x="28" y="86" width="280" height="22" rx="3" fill="#216e39"><title>화: 9052.4점</title></rect><text x="313" y="102" font-size="10" fill="#333333">9052.4</text><text x="24" y="130" text-anchor="end" font-size="12" fill="#333333">수</text><rect x="28" y="114" width="171" height="22" rx="3" fill="#30a14e"><title>수: 5550.2점</title></rect><text x="204" y="130" font-size="10" fill="#333333">5550.2</text><text x="24" y="158" text-anchor="end" font-size="12" fill="#333333">목</text><rect x="28" y="142" width="136" height="22" rx="3" fill="#40c463"><title>목: 4400.0점</title></rect><text x="169" y="158" font-size="10" fill="#333333">4400.0</text><text x="24" y="186" text-anchor="end" font-size="12" fill="#333333">금</text><rect x="28" y="170" width="119" height="22" rx="3" fill="#40c463"><title>금: 3850.0점</title></rect><text x="152" y="186" font-size="10" fill="#333333">3850.0</text><text x="24" y="214" text-anchor="end" font-size="12" fill="#333333">토</text><rect x="28" y="198" width="157" height="22" rx="3" fill="#30a14e"><title>토: 5090.3점</title></rect><text x="190" y="214" font-size="10" fill="#333333">5090.3</text>
<text x="28" y="254" font-size="9" fill="#666666">기준: 2026-06-15 12:44</text>
</svg>