<svg xmlns="http://www.w3.org/2000/svg" width="363" height="260">
<text x="181" y="18" text-anchor="middle" font-size="13" font-weight="bold" fill="#111111">최근 2주 요일별 활동</text>
<text x="24" y="46" text-anchor="end" font-size="12" fill="#333333">일</text><rect x="28" y="30" width="141" height="22" rx="3" fill="#30a14e"><title>일: 1663.0점</title></rect><text x="174" y="46" font-size="10" fill="#333333">1663.0</text><text x="24" y="74" text-anchor="end" font-size="12" fill="#333333">월</text><rect x="28" y="58" width="42" height="22" rx="3" fill="#9be9a8"><title>월: 499.2점</title></rect><text x="75" y="74" font-size="10" fill="#333333">499.2</text><text x="24" y="102" text-anchor="end" font-size="12" fill="#333333">화</text><rect x="28" y="86" width="280" height="22" rx="3" fill="#216e39"><title>화: 3281.5점</title></rect><text x="313" y="102" font-size="10" fill="#333333">3281.5</text><text x="24" y="130" text-anchor="end" font-size="12" fill="#333333">수</text><rect x="28" y="114" width="180" height="22" rx="3" fill="#30a14e"><title>수: 2115.5점</title></rect><text x="213" y="130" font-size="10" fill="#333333">2115.5</text><text x="24" y="158" text-anchor="end" font-size="12" fill="#333333">목</text><rect x="28" y="142" width="155" height="22" rx="3" fill="#30a14e"><title>목: 1817.5점</title></rect><text x="188" y="158" font-size="10" fill="#333333">1817.5</text><text x="24" y="186" text-anchor="end" font-size="12" fill="#333333">금</text><rect x="28" y="170" width="131" height="22" rx="3" fill="#40c463"><title>금: 1535.5점</title></rect><text x="164" y="186" font-size="10" fill="#333333">1535.5</text><text x="24" y="214" text-anchor="end" font-size="12" fill="#333333">토</text><rect x="28" y="198" width="132" height="22" rx="3" fill="#40c463"><title>토: 1548.5점</title></rect><text x="165" y="214" font-size="10" fill="#333333">1548.5</text>
<text x="28" y="254" font-size="9" fill="#666666">기준: 2026-05-25 22:18</text>
</svg>