<svg xmlns="http://www.w3.org/2000/svg" width="363" height="260">
<text x="181" y="18" text-anchor="middle" font-size="13" font-weight="bold" fill="#e0e0e0">최근 1주 요일별 활동</text>
<text x="24" y="46" text-anchor="end" font-size="12" fill="#cccccc">일</text><rect x="28" y="30" width="280" height="22" rx="3" fill="#216e39"><title>일: 2079.0점</title></rect><text x="313" y="46" font-size="10" fill="#cccccc">2079.0</text><text x="24" y="74" text-anchor="end" font-size="12" fill="#cccccc">월</text><rect x="28" y="58" width="164" height="22" rx="3" fill="#30a14e"><title>월: 1222.2점</title></rect><text x="197" y="74" font-size="10" fill="#cccccc">1222.2</text><text x="24" y="102" text-anchor="end" font-size="12" fill="#cccccc">화</text><rect x="28" y="86" width="139" height="22" rx="3" fill="#40c463"><title>화: 1035.1점</title></rect><text x="172" y="102" font-size="10" fill="#cccccc">1035.1</text><text x="24" y="130" text-anchor="end" font-size="12" fill="#cccccc">수</text><rect x="28" y="114" width="109" height="22" rx="3" fill="#40c463"><title>수: 814.0점</title></rect><text x="142" y="130" font-size="10" fill="#cccccc">814.0</text><text x="24" y="158" text-anchor="end" font-size="12" fill="#cccccc">목</text><rect x="28" y="142" width="103" height="22" rx="3" fill="#40c463"><title>목: 770.0점</title></rect><text x="136" y="158" font-size="10" fill="#cccccc">770.0</text><text x="24" y="186" text-anchor="end" font-size="12" fill="#cccccc">금</text><rect x="28" y="170" width="66" height="22" rx="3" fill="#9be9a8"><title>금: 495.0점</title></rect><text x="99" y="186" font-size="10" fill="#cccccc">495.0</text><text x="24" y="214" text-anchor="end" font-size="12" fill="#cccccc">토</text><rect x="28" y="198" width="31" height="22" rx="3" fill="#9be9a8"><title>토: 231.0점</title></rect><text x="64" y="214" font-size="10" fill="#cccccc">231.0</text>
<text x="28" y="254" font-size="9" fill="#999999">기준: 2026-06-06 22:31</text>
</svg>