<svg xmlns="http://www.w3.org/2000/svg" width="363" height="260">
<text x="181" y="18" text-anchor="middle" font-size="13" font-weight="bold" fill="#111111">최근 1주 요일별 활동</text>
<text x="24" y="46" text-anchor="end" font-size="12" fill="#333333">일</text><rect x="28" y="30" width="2" height="22" rx="3" fill="#9be9a8"><title>일: 1.4점</title></rect><text x="35" y="46" font-size="10" fill="#333333">1.4</text><text x="24" y="74" text-anchor="end" font-size="12" fill="#333333">월</text><rect x="28" y="58" width="238" height="22" rx="3" fill="#216e39"><title>월: 2476.2점</title></rect><text x="271" y="74" font-size="10" fill="#333333">2476.2</text><text x="24" y="102" text-anchor="end" font-size="12" fill="#333333">화</text><rect x="28" y="86" width="269" height="22" rx="3" fill="#216e39"><title>화: 2797.5점</title></rect><text x="302" y="102" font-size="10" fill="#333333">2797.5</text><text x="24" y="130" text-anchor="end" font-size="12" fill="#333333">수</text><rect x="28" y="114" width="280" height="22" rx="3" fill="#216e39"><title>수: 2907.9점</title></rect><text x="313" y="130" font-size="10" fill="#333333">2907.9</text><text x="24" y="158" text-anchor="end" font-size="12" fill="#333333">목</text><rect x="28" y="142" width="118" height="22" rx="3" fill="#40c463"><title>목: 1227.8점</title></rect><text x="151" y="158" font-size="10" fill="#333333">1227.8</text><text x="24" y="186" text-anchor="end" font-size="12" fill="#333333">금</text><rect x="28" y="170" width="179" height="22" rx="3" fill="#30a14e"><title>금: 1862.0점</title></rect><text x="212" y="186" font-size="10" fill="#333333">1862.0</text><text x="24" y="214" text-anchor="end" font-size="12" fill="#333333">토</text><rect x="28" y="198" width="49" height="22" rx="3" fill="#9be9a8"><title>토: 510.8점</title></rect><text x="82" y="214" font-size="10" fill="#333333">510.8</text>
<text x="28" y="254" font-size="9" fill="#666666">기준: 2026-07-12 04:01</text>
</svg>