<svg xmlns="http://www.w3.org/2000/svg" width="363" height="260">
<text x="181" y="18" text-anchor="middle" font-size="13" font-weight="bold" fill="#111111">최근 2주 요일별 활동</text>
<text x="24" y="46" text-anchor="end" font-size="12" fill="#333333">일</text><rect x="28" y="30" width="52" height="22" rx="3" fill="#9be9a8"><title>일: 5595.1점</title></rect><text x="85" y="46" font-size="10" fill="#333333">5595.1</text><text x="24" y="74" text-anchor="end" font-size="12" fill="#333333">월</text><rect x="28" y="58" width="48" height="22" rx="3" fill="#9be9a8"><title>월: 5152.6점</title></rect><text x="81" y="74" font-size="10" fill="#333333">5152.6</text><text x="24" y="102" text-anchor="end" font-size="12" fill="#333333">화</text><rect x="28" y="86" width="280" height="22" rx="3" fill="#216e39"><title>화: 29577.4점</title></rect><text x="313" y="102" font-size="10" fill="#333333">29577.4</text><text x="24" y="130" text-anchor="end" font-size="12" fill="#333333">수</text><rect x="28" y="114" width="270" height="22" rx="3" fill="#216e39"><title>수: 28567.1점</title></rect><text x="303" y="130" font-size="10" fill="#333333">28567.1</text><text x="24" y="158" text-anchor="end" font-size="12" fill="#333333">목</text><rect x="28" y="142" width="108" height="22" rx="3" fill="#40c463"><title>목: 11484.7점</title></rect><text x="141" y="158" font-size="10" fill="#333333">11484.7</text><text x="24" y="186" text-anchor="end" font-size="12" fill="#333333">금</text><rect x="28" y="170" width="92" height="22" rx="3" fill="#40c463"><title>금: 9782.2점</title></rect><text x="125" y="186" font-size="10" fill="#333333">9782.2</text><text x="24" y="214" text-anchor="end" font-size="12" fill="#333333">토</text><rect x="28" y="198" width="61" height="22" rx="3" fill="#9be9a8"><title>토: 6450.6점</title></rect><text x="94" y="214" font-size="10" fill="#333333">6450.6</text>
<text x="28" y="254" font-size="9" fill="#666666">기준: 2026-07-06 22:40</text>
</svg>