<svg xmlns="http://www.w3.org/2000/svg" width="363" height="260">
<text x="181" y="18" text-anchor="middle" font-size="13" font-weight="bold" fill="#111111">최근 1주 요일별 활동</text>
<text x="24" y="46" text-anchor="end" font-size="12" fill="#333333">일</text><rect x="28" y="30" width="3" height="22" rx="3" fill="#9be9a8"><title>일: 20.8점</title></rect><text x="36" y="46" font-size="10" fill="#333333">20.8</text><text x="24" y="74" text-anchor="end" font-size="12" fill="#333333">월</text><rect x="28" y="58" width="280" height="22" rx="3" fill="#216e39"><title>월: 1465.4점</title></rect><text x="313" y="74" font-size="10" fill="#333333">1465.4</text><text x="24" y="102" text-anchor="end" font-size="12" fill="#333333">화</text><rect x="28" y="86" width="199" height="22" rx="3" fill="#30a14e"><title>화: 1044.8점</title></rect><text x="232" y="102" font-size="10" fill="#333333">1044.8</text><text x="24" y="130" text-anchor="end" font-size="12" fill="#333333">수</text><rect x="28" y="114" width="214" height="22" rx="3" fill="#216e39"><title>수: 1121.1점</title></rect><text x="247" y="130" font-size="10" fill="#333333">1121.1</text><text x="24" y="158" text-anchor="end" font-size="12" fill="#333333">목</text><rect x="28" y="142" width="159" height="22" rx="3" fill="#30a14e"><title>목: 836.1점</title></rect><text x="192" y="158" font-size="10" fill="#333333">836.1</text><text x="24" y="186" text-anchor="end" font-size="12" fill="#333333">금</text><rect x="28" y="170" width="159" height="22" rx="3" fill="#30a14e"><title>금: 832.8점</title></rect><text x="192" y="186" font-size="10" fill="#333333">832.8</text><text x="24" y="214" text-anchor="end" font-size="12" fill="#333333">토</text><rect x="28" y="198" width="138" height="22" rx="3" fill="#40c463"><title>토: 727.2점</title></rect><text x="171" y="214" font-size="10" fill="#333333">727.2</text>
<text x="28" y="254" font-size="9" fill="#666666">기준: 2026-06-21 05:20</text>
</svg>