<svg xmlns="http://www.w3.org/2000/svg" width="363" height="260">
<text x="181" y="18" text-anchor="middle" font-size="13" font-weight="bold" fill="#111111">최근 1주 요일별 활동</text>
<text x="24" y="46" text-anchor="end" font-size="12" fill="#333333">일</text><rect x="28" y="30" width="130" height="22" rx="3" fill="#40c463"><title>일: 2106.1점</title></rect><text x="163" y="46" font-size="10" fill="#333333">2106.1</text><text x="24" y="74" text-anchor="end" font-size="12" fill="#333333">월</text><rect x="28" y="58" width="109" height="22" rx="3" fill="#40c463"><title>월: 1756.3점</title></rect><text x="142" y="74" font-size="10" fill="#333333">1756.3</text><text x="24" y="102" text-anchor="end" font-size="12" fill="#333333">화</text><rect x="28" y="86" width="68" height="22" rx="3" fill="#9be9a8"><title>화: 1108.0점</title></rect><text x="101" y="102" font-size="10" fill="#333333">1108.0</text><text x="24" y="130" text-anchor="end" font-size="12" fill="#333333">수</text><rect x="28" y="114" width="18" height="22" rx="3" fill="#9be9a8"><title>수: 294.6점</title></rect><text x="51" y="130" font-size="10" fill="#333333">294.6</text><text x="24" y="158" text-anchor="end" font-size="12" fill="#333333">목</text><rect x="28" y="142" width="2" height="22" rx="3" fill="#ebedf0"><title>목: 0.0점</title></rect><text x="35" y="158" font-size="10" fill="#333333">0.0</text><text x="24" y="186" text-anchor="end" font-size="12" fill="#333333">금</text><rect x="28" y="170" width="280" height="22" rx="3" fill="#216e39"><title>금: 4511.3점</title></rect><text x="313" y="186" font-size="10" fill="#333333">4511.3</text><text x="24" y="214" text-anchor="end" font-size="12" fill="#333333">토</text><rect x="28" y="198" width="139" height="22" rx="3" fill="#40c463"><title>토: 2246.4점</title></rect><text x="172" y="214" font-size="10" fill="#333333">2246.4</text>
<text x="28" y="254" font-size="9" fill="#666666">기준: 2026-07-02 04:32</text>
</svg>