<svg xmlns="http://www.w3.org/2000/svg" width="363" height="260">
<text x="181" y="18" text-anchor="middle" font-size="13" font-weight="bold" fill="#111111">최근 1주 요일별 활동</text>
<text x="24" y="46" text-anchor="end" font-size="12" fill="#333333">일</text><rect x="28" y="30" width="180" height="22" rx="3" fill="#30a14e"><title>일: 1287.0점</title></rect><text x="213" y="46" font-size="10" fill="#333333">1287.0</text><text x="24" y="74" text-anchor="end" font-size="12" fill="#333333">월</text><rect x="28" y="58" width="93" height="22" rx="3" fill="#40c463"><title>월: 669.2점</title></rect><text x="126" y="74" font-size="10" fill="#333333">669.2</text><text x="24" y="102" text-anchor="end" font-size="12" fill="#333333">화</text><rect x="28" y="86" width="67" height="22" rx="3" fill="#9be9a8"><title>화: 483.6점</title></rect><text x="100" y="102" font-size="10" fill="#333333">483.6</text><text x="24" y="130" text-anchor="end" font-size="12" fill="#333333">수</text><rect x="28" y="114" width="40" height="22" rx="3" fill="#9be9a8"><title>수: 286.0점</title></rect><text x="73" y="130" font-size="10" fill="#333333">286.0</text><text x="24" y="158" text-anchor="end" font-size="12" fill="#333333">목</text><rect x="28" y="142" width="15" height="22" rx="3" fill="#9be9a8"><title>목: 110.0점</title></rect><text x="48" y="158" font-size="10" fill="#333333">110.0</text><text x="24" y="186" text-anchor="end" font-size="12" fill="#333333">금</text><rect x="28" y="170" width="246" height="22" rx="3" fill="#216e39"><title>금: 1760.0점</title></rect><text x="279" y="186" font-size="10" fill="#333333">1760.0</text><text x="24" y="214" text-anchor="end" font-size="12" fill="#333333">토</text><rect x="28" y="198" width="280" height="22" rx="3" fill="#216e39"><title>토: 2002.0점</title></rect><text x="313" y="214" font-size="10" fill="#333333">2002.0</text>
<text x="28" y="254" font-size="9" fill="#666666">기준: 2026-06-04 22:47</text>
</svg>