<svg xmlns="http://www.w3.org/2000/svg" width="363" height="260">
<text x="181" y="18" text-anchor="middle" font-size="13" font-weight="bold" fill="#111111">최근 2주 요일별 활동</text>
<text x="24" y="46" text-anchor="end" font-size="12" fill="#333333">일</text><rect x="28" y="30" width="201" height="22" rx="3" fill="#30a14e"><title>일: 7452.1점</title></rect><text x="234" y="46" font-size="10" fill="#333333">7452.1</text><text x="24" y="74" text-anchor="end" font-size="12" fill="#333333">월</text><rect x="28" y="58" width="128" height="22" rx="3" fill="#40c463"><title>월: 4748.3점</title></rect><text x="161" y="74" font-size="10" fill="#333333">4748.3</text><text x="24" y="102" text-anchor="end" font-size="12" fill="#333333">화</text><rect x="28" y="86" width="83" height="22" rx="3" fill="#40c463"><title>화: 3098.0점</title></rect><text x="116" y="102" font-size="10" fill="#333333">3098.0</text><text x="24" y="130" text-anchor="end" font-size="12" fill="#333333">수</text><rect x="28" y="114" width="59" height="22" rx="3" fill="#9be9a8"><title>수: 2209.9점</title></rect><text x="92" y="130" font-size="10" fill="#333333">2209.9</text><text x="24" y="158" text-anchor="end" font-size="12" fill="#333333">목</text><rect x="28" y="142" width="145" height="22" rx="3" fill="#30a14e"><title>목: 5379.4점</title></rect><text x="178" y="158" font-size="10" fill="#333333">5379.4</text><text x="24" y="186" text-anchor="end" font-size="12" fill="#333333">금</text><rect x="28" y="170" width="159" height="22" rx="3" fill="#30a14e"><title>금: 5890.1점</title></rect><text x="192" y="186" font-size="10" fill="#333333">5890.1</text><text x="24" y="214" text-anchor="end" font-size="12" fill="#333333">토</text><rect x="28" y="198" width="280" height="22" rx="3" fill="#216e39"><title>토: 10332.8점</title></rect><text x="313" y="214" font-size="10" fill="#333333">10332.8</text>
<text x="28" y="254" font-size="9" fill="#666666">기준: 2026-06-24 04:39</text>
</svg>