<svg xmlns="http://www.w3.org/2000/svg" width="363" height="260">
<text x="181" y="18" text-anchor="middle" font-size="13" font-weight="bold" fill="#e0e0e0">최근 1달 요일별 활동</text>
<text x="24" y="46" text-anchor="end" font-size="12" fill="#cccccc">일</text><rect x="28" y="30" width="213" height="22" rx="3" fill="#216e39"><title>일: 7203.0점</title></rect><text x="246" y="46" font-size="10" fill="#cccccc">7203.0</text><text x="24" y="74" text-anchor="end" font-size="12" fill="#cccccc">월</text><rect x="28" y="58" width="122" height="22" rx="3" fill="#40c463"><title>월: 4139.7점</title></rect><text x="155" y="74" font-size="10" fill="#cccccc">4139.7</text><text x="24" y="102" text-anchor="end" font-size="12" fill="#cccccc">화</text><rect x="28" y="86" width="232" height="22" rx="3" fill="#216e39"><title>화: 7839.5점</title></rect><text x="265" y="102" font-size="10" fill="#cccccc">7839.5</text><text x="24" y="130" text-anchor="end" font-size="12" fill="#cccccc">수</text><rect x="28" y="114" width="280" height="22" rx="3" fill="#216e39"><title>수: 9449.4점</title></rect><text x="313" y="130" font-size="10" fill="#cccccc">9449.4</text><text x="24" y="158" text-anchor="end" font-size="12" fill="#cccccc">목</text><rect x="28" y="142" width="221" height="22" rx="3" fill="#216e39"><title>목: 7489.3점</title></rect><text x="254" y="158" font-size="10" fill="#cccccc">7489.3</text><text x="24" y="186" text-anchor="end" font-size="12" fill="#cccccc">금</text><rect x="28" y="170" width="168" height="22" rx="3" fill="#30a14e"><title>금: 5672.0점</title></rect><text x="201" y="186" font-size="10" fill="#cccccc">5672.0</text><text x="24" y="214" text-anchor="end" font-size="12" fill="#cccccc">토</text><rect x="28" y="198" width="110" height="22" rx="3" fill="#40c463"><title>토: 3738.6점</title></rect><text x="143" y="214" font-size="10" fill="#cccccc">3738.6</text>
<text x="28" y="254" font-size="9" fill="#999999">기준: 2026-05-28 20:39</text>
</svg>