<svg xmlns="http://www.w3.org/2000/svg" width="363" height="260">
<text x="181" y="18" text-anchor="middle" font-size="13" font-weight="bold" fill="#e0e0e0">최근 1주 요일별 활동</text>
<text x="24" y="46" text-anchor="end" font-size="12" fill="#cccccc">일</text><rect x="28" y="30" width="280" height="22" rx="3" fill="#216e39"><title>일: 10547.9점</title></rect><text x="313" y="46" font-size="10" fill="#cccccc">10547.9</text><text x="24" y="74" text-anchor="end" font-size="12" fill="#cccccc">월</text><rect x="28" y="58" width="209" height="22" rx="3" fill="#30a14e"><title>월: 7907.0점</title></rect><text x="242" y="74" font-size="10" fill="#cccccc">7907.0</text><text x="24" y="102" text-anchor="end" font-size="12" fill="#cccccc">화</text><rect x="28" y="86" width="203" height="22" rx="3" fill="#30a14e"><title>화: 7662.8점</title></rect><text x="236" y="102" font-size="10" fill="#cccccc">7662.8</text><text x="24" y="130" text-anchor="end" font-size="12" fill="#cccccc">수</text><rect x="28" y="114" width="173" height="22" rx="3" fill="#30a14e"><title>수: 6551.9점</title></rect><text x="206" y="130" font-size="10" fill="#cccccc">6551.9</text><text x="24" y="158" text-anchor="end" font-size="12" fill="#cccccc">목</text><rect x="28" y="142" width="47" height="22" rx="3" fill="#9be9a8"><title>목: 1772.3점</title></rect><text x="80" y="158" font-size="10" fill="#cccccc">1772.3</text><text x="24" y="186" text-anchor="end" font-size="12" fill="#cccccc">금</text><rect x="28" y="170" width="23" height="22" rx="3" fill="#9be9a8"><title>금: 898.2점</title></rect><text x="56" y="186" font-size="10" fill="#cccccc">898.2</text><text x="24" y="214" text-anchor="end" font-size="12" fill="#cccccc">토</text><rect x="28" y="198" width="2" height="22" rx="3" fill="#9be9a8"><title>토: 82.7점</title></rect><text x="35" y="214" font-size="10" fill="#cccccc">82.7</text>
<text x="28" y="254" font-size="9" fill="#999999">기준: 2026-06-27 14:08</text>
</svg>