<svg xmlns="http://www.w3.org/2000/svg" width="363" height="260">
<text x="181" y="18" text-anchor="middle" font-size="13" font-weight="bold" fill="#e0e0e0">최근 1주 요일별 활동</text>
<text x="24" y="46" text-anchor="end" font-size="12" fill="#cccccc">일</text><rect x="28" y="30" width="106" height="22" rx="3" fill="#40c463"><title>일: 2284.8점</title></rect><text x="139" y="46" font-size="10" fill="#cccccc">2284.8</text><text x="24" y="74" text-anchor="end" font-size="12" fill="#cccccc">월</text><rect x="28" y="58" width="98" height="22" rx="3" fill="#40c463"><title>월: 2121.7점</title></rect><text x="131" y="74" font-size="10" fill="#cccccc">2121.7</text><text x="24" y="102" text-anchor="end" font-size="12" fill="#cccccc">화</text><rect x="28" y="86" width="31" height="22" rx="3" fill="#9be9a8"><title>화: 676.7점</title></rect><text x="64" y="102" font-size="10" fill="#cccccc">676.7</text><text x="24" y="130" text-anchor="end" font-size="12" fill="#cccccc">수</text><rect x="28" y="114" width="280" height="22" rx="3" fill="#216e39"><title>수: 6009.5점</title></rect><text x="313" y="130" font-size="10" fill="#cccccc">6009.5</text><text x="24" y="158" text-anchor="end" font-size="12" fill="#cccccc">목</text><rect x="28" y="142" width="127" height="22" rx="3" fill="#40c463"><title>목: 2726.1점</title></rect><text x="160" y="158" font-size="10" fill="#cccccc">2726.1</text><text x="24" y="186" text-anchor="end" font-size="12" fill="#cccccc">금</text><rect x="28" y="170" width="231" height="22" rx="3" fill="#216e39"><title>금: 4967.0점</title></rect><text x="264" y="186" font-size="10" fill="#cccccc">4967.0</text><text x="24" y="214" text-anchor="end" font-size="12" fill="#cccccc">토</text><rect x="28" y="198" width="135" height="22" rx="3" fill="#40c463"><title>토: 2912.8점</title></rect><text x="168" y="214" font-size="10" fill="#cccccc">2912.8</text>
<text x="28" y="254" font-size="9" fill="#999999">기준: 2026-07-14 22:14</text>
</svg>