<svg xmlns="http://www.w3.org/2000/svg" width="363" height="260">
<text x="181" y="18" text-anchor="middle" font-size="13" font-weight="bold" fill="#111111">최근 1주 요일별 활동</text>
<text x="24" y="46" text-anchor="end" font-size="12" fill="#333333">일</text><rect x="28" y="30" width="278" height="22" rx="3" fill="#216e39"><title>일: 2806.9점</title></rect><text x="311" y="46" font-size="10" fill="#333333">2806.9</text><text x="24" y="74" text-anchor="end" font-size="12" fill="#333333">월</text><rect x="28" y="58" width="252" height="22" rx="3" fill="#216e39"><title>월: 2544.0점</title></rect><text x="285" y="74" font-size="10" fill="#333333">2544.0</text><text x="24" y="102" text-anchor="end" font-size="12" fill="#333333">화</text><rect x="28" y="86" width="185" height="22" rx="3" fill="#30a14e"><title>화: 1871.0점</title></rect><text x="218" y="102" font-size="10" fill="#333333">1871.0</text><text x="24" y="130" text-anchor="end" font-size="12" fill="#333333">수</text><rect x="28" y="114" width="82" height="22" rx="3" fill="#40c463"><title>수: 830.8점</title></rect><text x="115" y="130" font-size="10" fill="#333333">830.8</text><text x="24" y="158" text-anchor="end" font-size="12" fill="#333333">목</text><rect x="28" y="142" width="33" height="22" rx="3" fill="#9be9a8"><title>목: 333.5점</title></rect><text x="66" y="158" font-size="10" fill="#333333">333.5</text><text x="24" y="186" text-anchor="end" font-size="12" fill="#333333">금</text><rect x="28" y="170" width="2" height="22" rx="3" fill="#9be9a8"><title>금: 11.0점</title></rect><text x="35" y="186" font-size="10" fill="#333333">11.0</text><text x="24" y="214" text-anchor="end" font-size="12" fill="#333333">토</text><rect x="28" y="198" width="280" height="22" rx="3" fill="#216e39"><title>토: 2824.5점</title></rect><text x="313" y="214" font-size="10" fill="#333333">2824.5</text>
<text x="28" y="254" font-size="9" fill="#666666">기준: 2026-07-03 09:37</text>
</svg>