<svg xmlns="http://www.w3.org/2000/svg" width="363" height="260">
<text x="181" y="18" text-anchor="middle" font-size="13" font-weight="bold" fill="#e0e0e0">최근 1주 요일별 활동</text>
<text x="24" y="46" text-anchor="end" font-size="12" fill="#cccccc">일</text><rect x="28" y="30" width="13" height="22" rx="3" fill="#9be9a8"><title>일: 75.8점</title></rect><text x="46" y="46" font-size="10" fill="#cccccc">75.8</text><text x="24" y="74" text-anchor="end" font-size="12" fill="#cccccc">월</text><rect x="28" y="58" width="280" height="22" rx="3" fill="#216e39"><title>월: 1528.8점</title></rect><text x="313" y="74" font-size="10" fill="#cccccc">1528.8</text><text x="24" y="102" text-anchor="end" font-size="12" fill="#cccccc">화</text><rect x="28" y="86" width="199" height="22" rx="3" fill="#30a14e"><title>화: 1091.0점</title></rect><text x="232" y="102" font-size="10" fill="#cccccc">1091.0</text><text x="24" y="130" text-anchor="end" font-size="12" fill="#cccccc">수</text><rect x="28" y="114" width="218" height="22" rx="3" fill="#216e39"><title>수: 1191.3점</title></rect><text x="251" y="130" font-size="10" fill="#cccccc">1191.3</text><text x="24" y="158" text-anchor="end" font-size="12" fill="#cccccc">목</text><rect x="28" y="142" width="165" height="22" rx="3" fill="#30a14e"><title>목: 904.3점</title></rect><text x="198" y="158" font-size="10" fill="#cccccc">904.3</text><text x="24" y="186" text-anchor="end" font-size="12" fill="#cccccc">금</text><rect x="28" y="170" width="171" height="22" rx="3" fill="#30a14e"><title>금: 935.5점</title></rect><text x="204" y="186" font-size="10" fill="#cccccc">935.5</text><text x="24" y="214" text-anchor="end" font-size="12" fill="#cccccc">토</text><rect x="28" y="198" width="167" height="22" rx="3" fill="#30a14e"><title>토: 912.1점</title></rect><text x="200" y="214" font-size="10" fill="#cccccc">912.1</text>
<text x="28" y="254" font-size="9" fill="#999999">기준: 2026-06-21 10:06</text>
</svg>