<svg xmlns="http://www.w3.org/2000/svg" width="363" height="260">
<text x="181" y="18" text-anchor="middle" font-size="13" font-weight="bold" fill="#e0e0e0">최근 1달 요일별 활동</text>
<text x="24" y="46" text-anchor="end" font-size="12" fill="#cccccc">일</text><rect x="28" y="30" width="272" height="22" rx="3" fill="#216e39"><title>일: 7062.2점</title></rect><text x="305" y="46" font-size="10" fill="#cccccc">7062.2</text><text x="24" y="74" text-anchor="end" font-size="12" fill="#cccccc">월</text><rect x="28" y="58" width="142" height="22" rx="3" fill="#30a14e"><title>월: 3692.2점</title></rect><text x="175" y="74" font-size="10" fill="#cccccc">3692.2</text><text x="24" y="102" text-anchor="end" font-size="12" fill="#cccccc">화</text><rect x="28" y="86" width="280" height="22" rx="3" fill="#216e39"><title>화: 7259.5점</title></rect><text x="313" y="102" font-size="10" fill="#cccccc">7259.5</text><text x="24" y="130" text-anchor="end" font-size="12" fill="#cccccc">수</text><rect x="28" y="114" width="274" height="22" rx="3" fill="#216e39"><title>수: 7122.9점</title></rect><text x="307" y="130" font-size="10" fill="#cccccc">7122.9</text><text x="24" y="158" text-anchor="end" font-size="12" fill="#cccccc">목</text><rect x="28" y="142" width="233" height="22" rx="3" fill="#216e39"><title>목: 6048.3점</title></rect><text x="266" y="158" font-size="10" fill="#cccccc">6048.3</text><text x="24" y="186" text-anchor="end" font-size="12" fill="#cccccc">금</text><rect x="28" y="170" width="165" height="22" rx="3" fill="#30a14e"><title>금: 4297.0점</title></rect><text x="198" y="186" font-size="10" fill="#cccccc">4297.0</text><text x="24" y="214" text-anchor="end" font-size="12" fill="#cccccc">토</text><rect x="28" y="198" width="122" height="22" rx="3" fill="#40c463"><title>토: 3165.6점</title></rect><text x="155" y="214" font-size="10" fill="#cccccc">3165.6</text>
<text x="28" y="254" font-size="9" fill="#999999">기준: 2026-05-24 04:41</text>
</svg>