<svg xmlns="http://www.w3.org/2000/svg" width="363" height="260">
<text x="181" y="18" text-anchor="middle" font-size="13" font-weight="bold" fill="#111111">최근 1주 요일별 활동</text>
<text x="24" y="46" text-anchor="end" font-size="12" fill="#333333">일</text><rect x="28" y="30" width="56" height="22" rx="3" fill="#9be9a8"><title>일: 363.0점</title></rect><text x="89" y="46" font-size="10" fill="#333333">363.0</text><text x="24" y="74" text-anchor="end" font-size="12" fill="#333333">월</text><rect x="28" y="58" width="5" height="22" rx="3" fill="#9be9a8"><title>월: 35.1점</title></rect><text x="38" y="74" font-size="10" fill="#333333">35.1</text><text x="24" y="102" text-anchor="end" font-size="12" fill="#333333">화</text><rect x="28" y="86" width="280" height="22" rx="3" fill="#216e39"><title>화: 1815.0점</title></rect><text x="313" y="102" font-size="10" fill="#333333">1815.0</text><text x="24" y="130" text-anchor="end" font-size="12" fill="#333333">수</text><rect x="28" y="114" width="237" height="22" rx="3" fill="#216e39"><title>수: 1540.0점</title></rect><text x="270" y="130" font-size="10" fill="#333333">1540.0</text><text x="24" y="158" text-anchor="end" font-size="12" fill="#333333">목</text><rect x="28" y="142" width="195" height="22" rx="3" fill="#30a14e"><title>목: 1265.0점</title></rect><text x="228" y="158" font-size="10" fill="#333333">1265.0</text><text x="24" y="186" text-anchor="end" font-size="12" fill="#333333">금</text><rect x="28" y="170" width="152" height="22" rx="3" fill="#30a14e"><title>금: 990.0점</title></rect><text x="185" y="186" font-size="10" fill="#333333">990.0</text><text x="24" y="214" text-anchor="end" font-size="12" fill="#333333">토</text><rect x="28" y="198" width="142" height="22" rx="3" fill="#30a14e"><title>토: 924.0점</title></rect><text x="175" y="214" font-size="10" fill="#333333">924.0</text>
<text x="28" y="254" font-size="9" fill="#666666">기준: 2026-06-01 18:17</text>
</svg>