<svg xmlns="http://www.w3.org/2000/svg" width="363" height="260">
<text x="181" y="18" text-anchor="middle" font-size="13" font-weight="bold" fill="#111111">최근 1주 요일별 활동</text>
<text x="24" y="46" text-anchor="end" font-size="12" fill="#333333">일</text><rect x="28" y="30" width="29" height="22" rx="3" fill="#9be9a8"><title>일: 392.1점</title></rect><text x="62" y="46" font-size="10" fill="#333333">392.1</text><text x="24" y="74" text-anchor="end" font-size="12" fill="#333333">월</text><rect x="28" y="58" width="224" height="22" rx="3" fill="#216e39"><title>월: 2985.0점</title></rect><text x="257" y="74" font-size="10" fill="#333333">2985.0</text><text x="24" y="102" text-anchor="end" font-size="12" fill="#333333">화</text><rect x="28" y="86" width="259" height="22" rx="3" fill="#216e39"><title>화: 3451.8점</title></rect><text x="292" y="102" font-size="10" fill="#333333">3451.8</text><text x="24" y="130" text-anchor="end" font-size="12" fill="#333333">수</text><rect x="28" y="114" width="280" height="22" rx="3" fill="#216e39"><title>수: 3724.1점</title></rect><text x="313" y="130" font-size="10" fill="#333333">3724.1</text><text x="24" y="158" text-anchor="end" font-size="12" fill="#333333">목</text><rect x="28" y="142" width="121" height="22" rx="3" fill="#40c463"><title>목: 1622.1점</title></rect><text x="154" y="158" font-size="10" fill="#333333">1622.1</text><text x="24" y="186" text-anchor="end" font-size="12" fill="#333333">금</text><rect x="28" y="170" width="201" height="22" rx="3" fill="#30a14e"><title>금: 2679.1점</title></rect><text x="234" y="186" font-size="10" fill="#333333">2679.1</text><text x="24" y="214" text-anchor="end" font-size="12" fill="#333333">토</text><rect x="28" y="198" width="85" height="22" rx="3" fill="#40c463"><title>토: 1142.9점</title></rect><text x="118" y="214" font-size="10" fill="#333333">1142.9</text>
<text x="28" y="254" font-size="9" fill="#666666">기준: 2026-07-12 19:33</text>
</svg>