<svg xmlns="http://www.w3.org/2000/svg" width="363" height="260">
<text x="181" y="18" text-anchor="middle" font-size="13" font-weight="bold" fill="#111111">최근 2주 요일별 활동</text>
<text x="24" y="46" text-anchor="end" font-size="12" fill="#333333">일</text><rect x="28" y="30" width="208" height="22" rx="3" fill="#30a14e"><title>일: 1869.8점</title></rect><text x="241" y="46" font-size="10" fill="#333333">1869.8</text><text x="24" y="74" text-anchor="end" font-size="12" fill="#333333">월</text><rect x="28" y="58" width="70" height="22" rx="3" fill="#40c463"><title>월: 629.2점</title></rect><text x="103" y="74" font-size="10" fill="#333333">629.2</text><text x="24" y="102" text-anchor="end" font-size="12" fill="#333333">화</text><rect x="28" y="86" width="280" height="22" rx="3" fill="#216e39"><title>화: 2510.2점</title></rect><text x="313" y="102" font-size="10" fill="#333333">2510.2</text><text x="24" y="130" text-anchor="end" font-size="12" fill="#333333">수</text><rect x="28" y="114" width="248" height="22" rx="3" fill="#216e39"><title>수: 2231.9점</title></rect><text x="281" y="130" font-size="10" fill="#333333">2231.9</text><text x="24" y="158" text-anchor="end" font-size="12" fill="#333333">목</text><rect x="28" y="142" width="215" height="22" rx="3" fill="#216e39"><title>목: 1927.5점</title></rect><text x="248" y="158" font-size="10" fill="#333333">1927.5</text><text x="24" y="186" text-anchor="end" font-size="12" fill="#333333">금</text><rect x="28" y="170" width="183" height="22" rx="3" fill="#30a14e"><title>금: 1645.5점</title></rect><text x="216" y="186" font-size="10" fill="#333333">1645.5</text><text x="24" y="214" text-anchor="end" font-size="12" fill="#333333">토</text><rect x="28" y="198" width="189" height="22" rx="3" fill="#30a14e"><title>토: 1702.5점</title></rect><text x="222" y="214" font-size="10" fill="#333333">1702.5</text>
<text x="28" y="254" font-size="9" fill="#666666">기준: 2026-05-26 10:30</text>
</svg>