<svg xmlns="http://www.w3.org/2000/svg" width="363" height="260">
<text x="181" y="18" text-anchor="middle" font-size="13" font-weight="bold" fill="#e0e0e0">최근 1주 요일별 활동</text>
<text x="24" y="46" text-anchor="end" font-size="12" fill="#cccccc">일</text><rect x="28" y="30" width="280" height="22" rx="3" fill="#216e39"><title>일: 7365.9점</title></rect><text x="313" y="46" font-size="10" fill="#cccccc">7365.9</text><text x="24" y="74" text-anchor="end" font-size="12" fill="#cccccc">월</text><rect x="28" y="58" width="194" height="22" rx="3" fill="#30a14e"><title>월: 5119.6점</title></rect><text x="227" y="74" font-size="10" fill="#cccccc">5119.6</text><text x="24" y="102" text-anchor="end" font-size="12" fill="#cccccc">화</text><rect x="28" y="86" width="171" height="22" rx="3" fill="#30a14e"><title>화: 4511.8점</title></rect><text x="204" y="102" font-size="10" fill="#cccccc">4511.8</text><text x="24" y="130" text-anchor="end" font-size="12" fill="#cccccc">수</text><rect x="28" y="114" width="116" height="22" rx="3" fill="#40c463"><title>수: 3069.9점</title></rect><text x="149" y="130" font-size="10" fill="#cccccc">3069.9</text><text x="24" y="158" text-anchor="end" font-size="12" fill="#cccccc">목</text><rect x="28" y="142" width="14" height="22" rx="3" fill="#9be9a8"><title>목: 377.3점</title></rect><text x="47" y="158" font-size="10" fill="#cccccc">377.3</text><text x="24" y="186" text-anchor="end" font-size="12" fill="#cccccc">금</text><rect x="28" y="170" width="129" height="22" rx="3" fill="#40c463"><title>금: 3401.3점</title></rect><text x="162" y="186" font-size="10" fill="#cccccc">3401.3</text><text x="24" y="214" text-anchor="end" font-size="12" fill="#cccccc">토</text><rect x="28" y="198" width="213" height="22" rx="3" fill="#216e39"><title>토: 5613.7점</title></rect><text x="246" y="214" font-size="10" fill="#cccccc">5613.7</text>
<text x="28" y="254" font-size="9" fill="#999999">기준: 2026-06-25 22:48</text>
</svg>