<svg xmlns="http://www.w3.org/2000/svg" width="363" height="260">
<text x="181" y="18" text-anchor="middle" font-size="13" font-weight="bold" fill="#e0e0e0">최근 1달 요일별 활동</text>
<text x="24" y="46" text-anchor="end" font-size="12" fill="#cccccc">일</text><rect x="28" y="30" width="275" height="22" rx="3" fill="#216e39"><title>일: 7539.7점</title></rect><text x="308" y="46" font-size="10" fill="#cccccc">7539.7</text><text x="24" y="74" text-anchor="end" font-size="12" fill="#cccccc">월</text><rect x="28" y="58" width="136" height="22" rx="3" fill="#40c463"><title>월: 3752.1점</title></rect><text x="169" y="74" font-size="10" fill="#cccccc">3752.1</text><text x="24" y="102" text-anchor="end" font-size="12" fill="#cccccc">화</text><rect x="28" y="86" width="280" height="22" rx="3" fill="#216e39"><title>화: 7668.7점</title></rect><text x="313" y="102" font-size="10" fill="#cccccc">7668.7</text><text x="24" y="130" text-anchor="end" font-size="12" fill="#cccccc">수</text><rect x="28" y="114" width="277" height="22" rx="3" fill="#216e39"><title>수: 7602.1점</title></rect><text x="310" y="130" font-size="10" fill="#cccccc">7602.1</text><text x="24" y="158" text-anchor="end" font-size="12" fill="#cccccc">목</text><rect x="28" y="142" width="232" height="22" rx="3" fill="#216e39"><title>목: 6378.3점</title></rect><text x="265" y="158" font-size="10" fill="#cccccc">6378.3</text><text x="24" y="186" text-anchor="end" font-size="12" fill="#cccccc">금</text><rect x="28" y="170" width="168" height="22" rx="3" fill="#30a14e"><title>금: 4627.0점</title></rect><text x="201" y="186" font-size="10" fill="#cccccc">4627.0</text><text x="24" y="214" text-anchor="end" font-size="12" fill="#cccccc">토</text><rect x="28" y="198" width="132" height="22" rx="3" fill="#40c463"><title>토: 3627.6점</title></rect><text x="165" y="214" font-size="10" fill="#cccccc">3627.6</text>
<text x="28" y="254" font-size="9" fill="#999999">기준: 2026-05-24 22:13</text>
</svg>