<svg xmlns="http://www.w3.org/2000/svg" width="363" height="260">
<text x="181" y="18" text-anchor="middle" font-size="13" font-weight="bold" fill="#e0e0e0">최근 2주 요일별 활동</text>
<text x="24" y="46" text-anchor="end" font-size="12" fill="#cccccc">일</text><rect x="28" y="30" width="127" height="22" rx="3" fill="#40c463"><title>일: 3702.9점</title></rect><text x="160" y="46" font-size="10" fill="#cccccc">3702.9</text><text x="24" y="74" text-anchor="end" font-size="12" fill="#cccccc">월</text><rect x="28" y="58" width="167" height="22" rx="3" fill="#30a14e"><title>월: 4871.4점</title></rect><text x="200" y="74" font-size="10" fill="#cccccc">4871.4</text><text x="24" y="102" text-anchor="end" font-size="12" fill="#cccccc">화</text><rect x="28" y="86" width="280" height="22" rx="3" fill="#216e39"><title>화: 8121.3점</title></rect><text x="313" y="102" font-size="10" fill="#cccccc">8121.3</text><text x="24" y="130" text-anchor="end" font-size="12" fill="#cccccc">수</text><rect x="28" y="114" width="170" height="22" rx="3" fill="#30a14e"><title>수: 4957.8점</title></rect><text x="203" y="130" font-size="10" fill="#cccccc">4957.8</text><text x="24" y="158" text-anchor="end" font-size="12" fill="#cccccc">목</text><rect x="28" y="142" width="136" height="22" rx="3" fill="#40c463"><title>목: 3960.0점</title></rect><text x="169" y="158" font-size="10" fill="#cccccc">3960.0</text><text x="24" y="186" text-anchor="end" font-size="12" fill="#cccccc">금</text><rect x="28" y="170" width="117" height="22" rx="3" fill="#40c463"><title>금: 3410.0점</title></rect><text x="150" y="186" font-size="10" fill="#cccccc">3410.0</text><text x="24" y="214" text-anchor="end" font-size="12" fill="#cccccc">토</text><rect x="28" y="198" width="147" height="22" rx="3" fill="#30a14e"><title>토: 4290.8점</title></rect><text x="180" y="214" font-size="10" fill="#cccccc">4290.8</text>
<text x="28" y="254" font-size="9" fill="#999999">기준: 2026-06-14 16:47</text>
</svg>