<svg xmlns="http://www.w3.org/2000/svg" width="363" height="260">
<text x="181" y="18" text-anchor="middle" font-size="13" font-weight="bold" fill="#111111">최근 1주 요일별 활동</text>
<text x="24" y="46" text-anchor="end" font-size="12" fill="#333333">일</text><rect x="28" y="30" width="280" height="22" rx="3" fill="#216e39"><title>일: 2655.8점</title></rect><text x="313" y="46" font-size="10" fill="#333333">2655.8</text><text x="24" y="74" text-anchor="end" font-size="12" fill="#333333">월</text><rect x="28" y="58" width="196" height="22" rx="3" fill="#30a14e"><title>월: 1865.6점</title></rect><text x="229" y="74" font-size="10" fill="#333333">1865.6</text><text x="24" y="102" text-anchor="end" font-size="12" fill="#333333">화</text><rect x="28" y="86" width="212" height="22" rx="3" fill="#216e39"><title>화: 2012.3점</title></rect><text x="245" y="102" font-size="10" fill="#333333">2012.3</text><text x="24" y="130" text-anchor="end" font-size="12" fill="#333333">수</text><rect x="28" y="114" width="203" height="22" rx="3" fill="#30a14e"><title>수: 1928.5점</title></rect><text x="236" y="130" font-size="10" fill="#333333">1928.5</text><text x="24" y="158" text-anchor="end" font-size="12" fill="#333333">목</text><rect x="28" y="142" width="79" height="22" rx="3" fill="#40c463"><title>목: 754.6점</title></rect><text x="112" y="158" font-size="10" fill="#333333">754.6</text><text x="24" y="186" text-anchor="end" font-size="12" fill="#333333">금</text><rect x="28" y="170" width="92" height="22" rx="3" fill="#40c463"><title>금: 881.5점</title></rect><text x="125" y="186" font-size="10" fill="#333333">881.5</text><text x="24" y="214" text-anchor="end" font-size="12" fill="#333333">토</text><rect x="28" y="198" width="2" height="22" rx="3" fill="#9be9a8"><title>토: 27.3점</title></rect><text x="35" y="214" font-size="10" fill="#333333">27.3</text>
<text x="28" y="254" font-size="9" fill="#666666">기준: 2026-07-11 08:15</text>
</svg>