<svg xmlns="http://www.w3.org/2000/svg" width="363" height="260">
<text x="181" y="18" text-anchor="middle" font-size="13" font-weight="bold" fill="#111111">최근 1주 요일별 활동</text>
<text x="24" y="46" text-anchor="end" font-size="12" fill="#333333">일</text><rect x="28" y="30" width="14" height="22" rx="3" fill="#9be9a8"><title>일: 67.7점</title></rect><text x="47" y="46" font-size="10" fill="#333333">67.7</text><text x="24" y="74" text-anchor="end" font-size="12" fill="#333333">월</text><rect x="28" y="58" width="280" height="22" rx="3" fill="#216e39"><title>월: 1314.3점</title></rect><text x="313" y="74" font-size="10" fill="#333333">1314.3</text><text x="24" y="102" text-anchor="end" font-size="12" fill="#333333">화</text><rect x="28" y="86" width="240" height="22" rx="3" fill="#216e39"><title>화: 1127.0점</title></rect><text x="273" y="102" font-size="10" fill="#333333">1127.0</text><text x="24" y="130" text-anchor="end" font-size="12" fill="#333333">수</text><rect x="28" y="114" width="192" height="22" rx="3" fill="#30a14e"><title>수: 902.0점</title></rect><text x="225" y="130" font-size="10" fill="#333333">902.0</text><text x="24" y="158" text-anchor="end" font-size="12" fill="#333333">목</text><rect x="28" y="142" width="187" height="22" rx="3" fill="#30a14e"><title>목: 880.0점</title></rect><text x="220" y="158" font-size="10" fill="#333333">880.0</text><text x="24" y="186" text-anchor="end" font-size="12" fill="#333333">금</text><rect x="28" y="170" width="128" height="22" rx="3" fill="#40c463"><title>금: 605.0점</title></rect><text x="161" y="186" font-size="10" fill="#333333">605.0</text><text x="24" y="214" text-anchor="end" font-size="12" fill="#333333">토</text><rect x="28" y="198" width="82" height="22" rx="3" fill="#40c463"><title>토: 385.0점</title></rect><text x="115" y="214" font-size="10" fill="#333333">385.0</text>
<text x="28" y="254" font-size="9" fill="#666666">기준: 2026-06-07 09:41</text>
</svg>