<svg xmlns="http://www.w3.org/2000/svg" width="363" height="260">
<text x="181" y="18" text-anchor="middle" font-size="13" font-weight="bold" fill="#e0e0e0">최근 1주 요일별 활동</text>
<text x="24" y="46" text-anchor="end" font-size="12" fill="#cccccc">일</text><rect x="28" y="30" width="104" height="22" rx="3" fill="#40c463"><title>일: 1023.0점</title></rect><text x="137" y="46" font-size="10" fill="#cccccc">1023.0</text><text x="24" y="74" text-anchor="end" font-size="12" fill="#cccccc">월</text><rect x="28" y="58" width="55" height="22" rx="3" fill="#9be9a8"><title>월: 544.4점</title></rect><text x="88" y="74" font-size="10" fill="#cccccc">544.4</text><text x="24" y="102" text-anchor="end" font-size="12" fill="#cccccc">화</text><rect x="28" y="86" width="29" height="22" rx="3" fill="#9be9a8"><title>화: 286.0점</title></rect><text x="62" y="102" font-size="10" fill="#cccccc">286.0</text><text x="24" y="130" text-anchor="end" font-size="12" fill="#cccccc">수</text><rect x="28" y="114" width="11" height="22" rx="3" fill="#9be9a8"><title>수: 110.0점</title></rect><text x="44" y="130" font-size="10" fill="#cccccc">110.0</text><text x="24" y="158" text-anchor="end" font-size="12" fill="#cccccc">목</text><rect x="28" y="142" width="179" height="22" rx="3" fill="#30a14e"><title>목: 1760.0점</title></rect><text x="212" y="158" font-size="10" fill="#cccccc">1760.0</text><text x="24" y="186" text-anchor="end" font-size="12" fill="#cccccc">금</text><rect x="28" y="170" width="151" height="22" rx="3" fill="#30a14e"><title>금: 1485.0점</title></rect><text x="184" y="186" font-size="10" fill="#cccccc">1485.0</text><text x="24" y="214" text-anchor="end" font-size="12" fill="#cccccc">토</text><rect x="28" y="198" width="280" height="22" rx="3" fill="#216e39"><title>토: 2746.0점</title></rect><text x="313" y="214" font-size="10" fill="#cccccc">2746.0</text>
<text x="28" y="254" font-size="9" fill="#999999">기준: 2026-06-17 22:53</text>
</svg>