<svg xmlns="http://www.w3.org/2000/svg" width="363" height="260">
<text x="181" y="18" text-anchor="middle" font-size="13" font-weight="bold" fill="#111111">최근 2주 요일별 활동</text>
<text x="24" y="46" text-anchor="end" font-size="12" fill="#333333">일</text><rect x="28" y="30" width="276" height="22" rx="3" fill="#216e39"><title>일: 14552.3점</title></rect><text x="309" y="46" font-size="10" fill="#333333">14552.3</text><text x="24" y="74" text-anchor="end" font-size="12" fill="#333333">월</text><rect x="28" y="58" width="208" height="22" rx="3" fill="#30a14e"><title>월: 10995.1점</title></rect><text x="241" y="74" font-size="10" fill="#333333">10995.1</text><text x="24" y="102" text-anchor="end" font-size="12" fill="#333333">화</text><rect x="28" y="86" width="271" height="22" rx="3" fill="#216e39"><title>화: 14297.0점</title></rect><text x="304" y="102" font-size="10" fill="#333333">14297.0</text><text x="24" y="130" text-anchor="end" font-size="12" fill="#333333">수</text><rect x="28" y="114" width="280" height="22" rx="3" fill="#216e39"><title>수: 14733.3점</title></rect><text x="313" y="130" font-size="10" fill="#333333">14733.3</text><text x="24" y="158" text-anchor="end" font-size="12" fill="#333333">목</text><rect x="28" y="142" width="138" height="22" rx="3" fill="#40c463"><title>목: 7281.0점</title></rect><text x="171" y="158" font-size="10" fill="#333333">7281.0</text><text x="24" y="186" text-anchor="end" font-size="12" fill="#333333">금</text><rect x="28" y="170" width="150" height="22" rx="3" fill="#30a14e"><title>금: 7908.5점</title></rect><text x="183" y="186" font-size="10" fill="#333333">7908.5</text><text x="24" y="214" text-anchor="end" font-size="12" fill="#333333">토</text><rect x="28" y="198" width="202" height="22" rx="3" fill="#30a14e"><title>토: 10652.7점</title></rect><text x="235" y="214" font-size="10" fill="#333333">10652.7</text>
<text x="28" y="254" font-size="9" fill="#666666">기준: 2026-06-29 11:25</text>
</svg>