<svg xmlns="http://www.w3.org/2000/svg" width="363" height="260">
<text x="181" y="18" text-anchor="middle" font-size="13" font-weight="bold" fill="#111111">최근 2주 요일별 활동</text>
<text x="24" y="46" text-anchor="end" font-size="12" fill="#333333">일</text><rect x="28" y="30" width="189" height="22" rx="3" fill="#30a14e"><title>일: 9150.2점</title></rect><text x="222" y="46" font-size="10" fill="#333333">9150.2</text><text x="24" y="74" text-anchor="end" font-size="12" fill="#333333">월</text><rect x="28" y="58" width="200" height="22" rx="3" fill="#30a14e"><title>월: 9678.7점</title></rect><text x="233" y="74" font-size="10" fill="#333333">9678.7</text><text x="24" y="102" text-anchor="end" font-size="12" fill="#333333">화</text><rect x="28" y="86" width="188" height="22" rx="3" fill="#30a14e"><title>화: 9089.5점</title></rect><text x="221" y="102" font-size="10" fill="#333333">9089.5</text><text x="24" y="130" text-anchor="end" font-size="12" fill="#333333">수</text><rect x="28" y="114" width="183" height="22" rx="3" fill="#30a14e"><title>수: 8865.8점</title></rect><text x="216" y="130" font-size="10" fill="#333333">8865.8</text><text x="24" y="158" text-anchor="end" font-size="12" fill="#333333">목</text><rect x="28" y="142" width="74" height="22" rx="3" fill="#40c463"><title>목: 3613.6점</title></rect><text x="107" y="158" font-size="10" fill="#333333">3613.6</text><text x="24" y="186" text-anchor="end" font-size="12" fill="#333333">금</text><rect x="28" y="170" width="277" height="22" rx="3" fill="#216e39"><title>금: 13383.7점</title></rect><text x="310" y="186" font-size="10" fill="#333333">13383.7</text><text x="24" y="214" text-anchor="end" font-size="12" fill="#333333">토</text><rect x="28" y="198" width="280" height="22" rx="3" fill="#216e39"><title>토: 13503.8점</title></rect><text x="313" y="214" font-size="10" fill="#333333">13503.8</text>
<text x="28" y="254" font-size="9" fill="#666666">기준: 2026-07-16 11:13</text>
</svg>