<svg xmlns="http://www.w3.org/2000/svg" width="363" height="260">
<text x="181" y="18" text-anchor="middle" font-size="13" font-weight="bold" fill="#111111">최근 1주 요일별 활동</text>
<text x="24" y="46" text-anchor="end" font-size="12" fill="#333333">일</text><rect x="28" y="30" width="97" height="22" rx="3" fill="#40c463"><title>일: 825.0점</title></rect><text x="130" y="46" font-size="10" fill="#333333">825.0</text><text x="24" y="74" text-anchor="end" font-size="12" fill="#333333">월</text><rect x="28" y="58" width="46" height="22" rx="3" fill="#9be9a8"><title>월: 393.4점</title></rect><text x="79" y="74" font-size="10" fill="#333333">393.4</text><text x="24" y="102" text-anchor="end" font-size="12" fill="#333333">화</text><rect x="28" y="86" width="18" height="22" rx="3" fill="#9be9a8"><title>화: 154.0점</title></rect><text x="51" y="102" font-size="10" fill="#333333">154.0</text><text x="24" y="130" text-anchor="end" font-size="12" fill="#333333">수</text><rect x="28" y="114" width="2" height="22" rx="3" fill="#9be9a8"><title>수: 11.0점</title></rect><text x="35" y="130" font-size="10" fill="#333333">11.0</text><text x="24" y="158" text-anchor="end" font-size="12" fill="#333333">목</text><rect x="28" y="142" width="187" height="22" rx="3" fill="#30a14e"><title>목: 1595.0점</title></rect><text x="220" y="158" font-size="10" fill="#333333">1595.0</text><text x="24" y="186" text-anchor="end" font-size="12" fill="#333333">금</text><rect x="28" y="170" width="155" height="22" rx="3" fill="#30a14e"><title>금: 1320.0점</title></rect><text x="188" y="186" font-size="10" fill="#333333">1320.0</text><text x="24" y="214" text-anchor="end" font-size="12" fill="#333333">토</text><rect x="28" y="198" width="280" height="22" rx="3" fill="#216e39"><title>토: 2377.3점</title></rect><text x="313" y="214" font-size="10" fill="#333333">2377.3</text>
<text x="28" y="254" font-size="9" fill="#666666">기준: 2026-06-17 11:18</text>
</svg>