<svg xmlns="http://www.w3.org/2000/svg" width="363" height="260">
<text x="181" y="18" text-anchor="middle" font-size="13" font-weight="bold" fill="#111111">최근 2주 요일별 활동</text>
<text x="24" y="46" text-anchor="end" font-size="12" fill="#333333">일</text><rect x="28" y="30" width="188" height="22" rx="3" fill="#30a14e"><title>일: 8280.6점</title></rect><text x="221" y="46" font-size="10" fill="#333333">8280.6</text><text x="24" y="74" text-anchor="end" font-size="12" fill="#333333">월</text><rect x="28" y="58" width="191" height="22" rx="3" fill="#30a14e"><title>월: 8415.6점</title></rect><text x="224" y="74" font-size="10" fill="#333333">8415.6</text><text x="24" y="102" text-anchor="end" font-size="12" fill="#333333">화</text><rect x="28" y="86" width="178" height="22" rx="3" fill="#30a14e"><title>화: 7833.5점</title></rect><text x="211" y="102" font-size="10" fill="#333333">7833.5</text><text x="24" y="130" text-anchor="end" font-size="12" fill="#333333">수</text><rect x="28" y="114" width="171" height="22" rx="3" fill="#30a14e"><title>수: 7536.0점</title></rect><text x="204" y="130" font-size="10" fill="#333333">7536.0</text><text x="24" y="158" text-anchor="end" font-size="12" fill="#333333">목</text><rect x="28" y="142" width="261" height="22" rx="3" fill="#216e39"><title>목: 11476.7점</title></rect><text x="294" y="158" font-size="10" fill="#333333">11476.7</text><text x="24" y="186" text-anchor="end" font-size="12" fill="#333333">금</text><rect x="28" y="170" width="274" height="22" rx="3" fill="#216e39"><title>금: 12054.4점</title></rect><text x="307" y="186" font-size="10" fill="#333333">12054.4</text><text x="24" y="214" text-anchor="end" font-size="12" fill="#333333">토</text><rect x="28" y="198" width="280" height="22" rx="3" fill="#216e39"><title>토: 12290.6점</title></rect><text x="313" y="214" font-size="10" fill="#333333">12290.6</text>
<text x="28" y="254" font-size="9" fill="#666666">기준: 2026-07-15 19:38</text>
</svg>