<svg xmlns="http://www.w3.org/2000/svg" width="363" height="260">
<text x="181" y="18" text-anchor="middle" font-size="13" font-weight="bold" fill="#111111">최근 2주 요일별 활동</text>
<text x="24" y="46" text-anchor="end" font-size="12" fill="#333333">일</text><rect x="28" y="30" width="97" height="22" rx="3" fill="#40c463"><title>일: 972.3점</title></rect><text x="130" y="46" font-size="10" fill="#333333">972.3</text><text x="24" y="74" text-anchor="end" font-size="12" fill="#333333">월</text><rect x="28" y="58" width="111" height="22" rx="3" fill="#40c463"><title>월: 1115.6점</title></rect><text x="144" y="74" font-size="10" fill="#333333">1115.6</text><text x="24" y="102" text-anchor="end" font-size="12" fill="#333333">화</text><rect x="28" y="86" width="280" height="22" rx="3" fill="#216e39"><title>화: 2804.1점</title></rect><text x="313" y="102" font-size="10" fill="#333333">2804.1</text><text x="24" y="130" text-anchor="end" font-size="12" fill="#333333">수</text><rect x="28" y="114" width="170" height="22" rx="3" fill="#30a14e"><title>수: 1708.1점</title></rect><text x="203" y="130" font-size="10" fill="#333333">1708.1</text><text x="24" y="158" text-anchor="end" font-size="12" fill="#333333">목</text><rect x="28" y="142" width="143" height="22" rx="3" fill="#30a14e"><title>목: 1432.5점</title></rect><text x="176" y="158" font-size="10" fill="#333333">1432.5</text><text x="24" y="186" text-anchor="end" font-size="12" fill="#333333">금</text><rect x="28" y="170" width="114" height="22" rx="3" fill="#40c463"><title>금: 1150.5점</title></rect><text x="147" y="186" font-size="10" fill="#333333">1150.5</text><text x="24" y="214" text-anchor="end" font-size="12" fill="#333333">토</text><rect x="28" y="198" width="100" height="22" rx="3" fill="#40c463"><title>토: 1009.5점</title></rect><text x="133" y="214" font-size="10" fill="#333333">1009.5</text>
<text x="28" y="254" font-size="9" fill="#666666">기준: 2026-05-24 16:15</text>
</svg>