<svg xmlns="http://www.w3.org/2000/svg" width="363" height="260">
<text x="181" y="18" text-anchor="middle" font-size="13" font-weight="bold" fill="#e0e0e0">최근 1주 요일별 활동</text>
<text x="24" y="46" text-anchor="end" font-size="12" fill="#cccccc">일</text><rect x="28" y="30" width="236" height="22" rx="3" fill="#216e39"><title>일: 2504.9점</title></rect><text x="269" y="46" font-size="10" fill="#cccccc">2504.9</text><text x="24" y="74" text-anchor="end" font-size="12" fill="#cccccc">월</text><rect x="28" y="58" width="104" height="22" rx="3" fill="#40c463"><title>월: 1100.0점</title></rect><text x="137" y="74" font-size="10" fill="#cccccc">1100.0</text><text x="24" y="102" text-anchor="end" font-size="12" fill="#cccccc">화</text><rect x="28" y="86" width="280" height="22" rx="3" fill="#216e39"><title>화: 2960.0점</title></rect><text x="313" y="102" font-size="10" fill="#cccccc">2960.0</text><text x="24" y="130" text-anchor="end" font-size="12" fill="#cccccc">수</text><rect x="28" y="114" width="103" height="22" rx="3" fill="#40c463"><title>수: 1090.3점</title></rect><text x="136" y="130" font-size="10" fill="#cccccc">1090.3</text><text x="24" y="158" text-anchor="end" font-size="12" fill="#cccccc">목</text><rect x="28" y="142" width="26" height="22" rx="3" fill="#9be9a8"><title>목: 275.0점</title></rect><text x="59" y="158" font-size="10" fill="#cccccc">275.0</text><text x="24" y="186" text-anchor="end" font-size="12" fill="#cccccc">금</text><rect x="28" y="170" width="3" height="22" rx="3" fill="#9be9a8"><title>금: 33.0점</title></rect><text x="36" y="186" font-size="10" fill="#cccccc">33.0</text><text x="24" y="214" text-anchor="end" font-size="12" fill="#cccccc">토</text><rect x="28" y="198" width="233" height="22" rx="3" fill="#216e39"><title>토: 2464.0점</title></rect><text x="266" y="214" font-size="10" fill="#cccccc">2464.0</text>
<text x="28" y="254" font-size="9" fill="#999999">기준: 2026-06-12 15:42</text>
</svg>