<svg xmlns="http://www.w3.org/2000/svg" width="363" height="260">
<text x="181" y="18" text-anchor="middle" font-size="13" font-weight="bold" fill="#111111">최근 1주 요일별 활동</text>
<text x="24" y="46" text-anchor="end" font-size="12" fill="#333333">일</text><rect x="28" y="30" width="133" height="22" rx="3" fill="#40c463"><title>일: 1001.0점</title></rect><text x="166" y="46" font-size="10" fill="#333333">1001.0</text><text x="24" y="74" text-anchor="end" font-size="12" fill="#333333">월</text><rect x="28" y="58" width="51" height="22" rx="3" fill="#9be9a8"><title>월: 385.0점</title></rect><text x="84" y="74" font-size="10" fill="#333333">385.0</text><text x="24" y="102" text-anchor="end" font-size="12" fill="#333333">화</text><rect x="28" y="86" width="14" height="22" rx="3" fill="#9be9a8"><title>화: 110.0점</title></rect><text x="47" y="102" font-size="10" fill="#333333">110.0</text><text x="24" y="130" text-anchor="end" font-size="12" fill="#333333">수</text><rect x="28" y="114" width="280" height="22" rx="3" fill="#216e39"><title>수: 2098.4점</title></rect><text x="313" y="130" font-size="10" fill="#333333">2098.4</text><text x="24" y="158" text-anchor="end" font-size="12" fill="#333333">목</text><rect x="28" y="142" width="227" height="22" rx="3" fill="#216e39"><title>목: 1705.0점</title></rect><text x="260" y="158" font-size="10" fill="#333333">1705.0</text><text x="24" y="186" text-anchor="end" font-size="12" fill="#333333">금</text><rect x="28" y="170" width="190" height="22" rx="3" fill="#30a14e"><title>금: 1430.0점</title></rect><text x="223" y="186" font-size="10" fill="#333333">1430.0</text><text x="24" y="214" text-anchor="end" font-size="12" fill="#333333">토</text><rect x="28" y="198" width="205" height="22" rx="3" fill="#30a14e"><title>토: 1540.0점</title></rect><text x="238" y="214" font-size="10" fill="#333333">1540.0</text>
<text x="28" y="254" font-size="9" fill="#666666">기준: 2026-05-26 22:41</text>
</svg>