<svg xmlns="http://www.w3.org/2000/svg" width="363" height="260">
<text x="181" y="18" text-anchor="middle" font-size="13" font-weight="bold" fill="#e0e0e0">최근 1달 요일별 활동</text>
<text x="24" y="46" text-anchor="end" font-size="12" fill="#cccccc">일</text><rect x="28" y="30" width="280" height="22" rx="3" fill="#216e39"><title>일: 31806.8점</title></rect><text x="313" y="46" font-size="10" fill="#cccccc">31806.8</text><text x="24" y="74" text-anchor="end" font-size="12" fill="#cccccc">월</text><rect x="28" y="58" width="173" height="22" rx="3" fill="#30a14e"><title>월: 19741.3점</title></rect><text x="206" y="74" font-size="10" fill="#cccccc">19741.3</text><text x="24" y="102" text-anchor="end" font-size="12" fill="#cccccc">화</text><rect x="28" y="86" width="237" height="22" rx="3" fill="#216e39"><title>화: 27028.4점</title></rect><text x="270" y="102" font-size="10" fill="#cccccc">27028.4</text><text x="24" y="130" text-anchor="end" font-size="12" fill="#cccccc">수</text><rect x="28" y="114" width="183" height="22" rx="3" fill="#30a14e"><title>수: 20839.7점</title></rect><text x="216" y="130" font-size="10" fill="#cccccc">20839.7</text><text x="24" y="158" text-anchor="end" font-size="12" fill="#cccccc">목</text><rect x="28" y="142" width="152" height="22" rx="3" fill="#30a14e"><title>목: 17373.2점</title></rect><text x="185" y="158" font-size="10" fill="#cccccc">17373.2</text><text x="24" y="186" text-anchor="end" font-size="12" fill="#cccccc">금</text><rect x="28" y="170" width="150" height="22" rx="3" fill="#30a14e"><title>금: 17080.4점</title></rect><text x="183" y="186" font-size="10" fill="#cccccc">17080.4</text><text x="24" y="214" text-anchor="end" font-size="12" fill="#cccccc">토</text><rect x="28" y="198" width="213" height="22" rx="3" fill="#216e39"><title>토: 24205.2점</title></rect><text x="246" y="214" font-size="10" fill="#cccccc">24205.2</text>
<text x="28" y="254" font-size="9" fill="#999999">기준: 2026-06-22 22:56</text>
</svg>