<svg xmlns="http://www.w3.org/2000/svg" width="363" height="260">
<text x="181" y="18" text-anchor="middle" font-size="13" font-weight="bold" fill="#111111">최근 1달 요일별 활동</text>
<text x="24" y="46" text-anchor="end" font-size="12" fill="#333333">일</text><rect x="28" y="30" width="190" height="22" rx="3" fill="#30a14e"><title>일: 43327.4점</title></rect><text x="223" y="46" font-size="10" fill="#333333">43327.4</text><text x="24" y="74" text-anchor="end" font-size="12" fill="#333333">월</text><rect x="28" y="58" width="197" height="22" rx="3" fill="#30a14e"><title>월: 44996.3점</title></rect><text x="230" y="74" font-size="10" fill="#333333">44996.3</text><text x="24" y="102" text-anchor="end" font-size="12" fill="#333333">화</text><rect x="28" y="86" width="280" height="22" rx="3" fill="#216e39"><title>화: 63660.5점</title></rect><text x="313" y="102" font-size="10" fill="#333333">63660.5</text><text x="24" y="130" text-anchor="end" font-size="12" fill="#333333">수</text><rect x="28" y="114" width="240" height="22" rx="3" fill="#216e39"><title>수: 54638.8점</title></rect><text x="273" y="130" font-size="10" fill="#333333">54638.8</text><text x="24" y="158" text-anchor="end" font-size="12" fill="#333333">목</text><rect x="28" y="142" width="116" height="22" rx="3" fill="#40c463"><title>목: 26562.8점</title></rect><text x="149" y="158" font-size="10" fill="#333333">26562.8</text><text x="24" y="186" text-anchor="end" font-size="12" fill="#333333">금</text><rect x="28" y="170" width="127" height="22" rx="3" fill="#40c463"><title>금: 29063.5점</title></rect><text x="160" y="186" font-size="10" fill="#333333">29063.5</text><text x="24" y="214" text-anchor="end" font-size="12" fill="#333333">토</text><rect x="28" y="198" width="182" height="22" rx="3" fill="#30a14e"><title>토: 41536.8점</title></rect><text x="215" y="214" font-size="10" fill="#333333">41536.8</text>
<text x="28" y="254" font-size="9" fill="#666666">기준: 2026-07-07 04:18</text>
</svg>