<svg xmlns="http://www.w3.org/2000/svg" width="363" height="260">
<text x="181" y="18" text-anchor="middle" font-size="13" font-weight="bold" fill="#e0e0e0">최근 1주 요일별 활동</text>
<text x="24" y="46" text-anchor="end" font-size="12" fill="#cccccc">일</text><rect x="28" y="30" width="2" height="22" rx="3" fill="#ebedf0"><title>일: 0.0점</title></rect><text x="35" y="46" font-size="10" fill="#cccccc">0.0</text><text x="24" y="74" text-anchor="end" font-size="12" fill="#cccccc">월</text><rect x="28" y="58" width="47" height="22" rx="3" fill="#9be9a8"><title>월: 279.4점</title></rect><text x="80" y="74" font-size="10" fill="#cccccc">279.4</text><text x="24" y="102" text-anchor="end" font-size="12" fill="#cccccc">화</text><rect x="28" y="86" width="280" height="22" rx="3" fill="#216e39"><title>화: 1648.7점</title></rect><text x="313" y="102" font-size="10" fill="#cccccc">1648.7</text><text x="24" y="130" text-anchor="end" font-size="12" fill="#cccccc">수</text><rect x="28" y="114" width="198" height="22" rx="3" fill="#30a14e"><title>수: 1167.2점</title></rect><text x="231" y="130" font-size="10" fill="#cccccc">1167.2</text><text x="24" y="158" text-anchor="end" font-size="12" fill="#cccccc">목</text><rect x="28" y="142" width="140" height="22" rx="3" fill="#30a14e"><title>목: 825.0점</title></rect><text x="173" y="158" font-size="10" fill="#cccccc">825.0</text><text x="24" y="186" text-anchor="end" font-size="12" fill="#cccccc">금</text><rect x="28" y="170" width="93" height="22" rx="3" fill="#40c463"><title>금: 550.0점</title></rect><text x="126" y="186" font-size="10" fill="#cccccc">550.0</text><text x="24" y="214" text-anchor="end" font-size="12" fill="#cccccc">토</text><rect x="28" y="198" width="52" height="22" rx="3" fill="#9be9a8"><title>토: 308.0점</title></rect><text x="85" y="214" font-size="10" fill="#cccccc">308.0</text>
<text x="28" y="254" font-size="9" fill="#999999">기준: 2026-05-24 04:41</text>
</svg>