<svg xmlns="http://www.w3.org/2000/svg" width="363" height="260">
<text x="181" y="18" text-anchor="middle" font-size="13" font-weight="bold" fill="#e0e0e0">최근 2주 요일별 활동</text>
<text x="24" y="46" text-anchor="end" font-size="12" fill="#cccccc">일</text><rect x="28" y="30" width="44" height="22" rx="3" fill="#9be9a8"><title>일: 4008.4점</title></rect><text x="77" y="46" font-size="10" fill="#cccccc">4008.4</text><text x="24" y="74" text-anchor="end" font-size="12" fill="#cccccc">월</text><rect x="28" y="58" width="272" height="22" rx="3" fill="#216e39"><title>월: 24623.2점</title></rect><text x="305" y="74" font-size="10" fill="#cccccc">24623.2</text><text x="24" y="102" text-anchor="end" font-size="12" fill="#cccccc">화</text><rect x="28" y="86" width="280" height="22" rx="3" fill="#216e39"><title>화: 25336.4점</title></rect><text x="313" y="102" font-size="10" fill="#cccccc">25336.4</text><text x="24" y="130" text-anchor="end" font-size="12" fill="#cccccc">수</text><rect x="28" y="114" width="268" height="22" rx="3" fill="#216e39"><title>수: 24319.1점</title></rect><text x="301" y="130" font-size="10" fill="#cccccc">24319.1</text><text x="24" y="158" text-anchor="end" font-size="12" fill="#cccccc">목</text><rect x="28" y="142" width="103" height="22" rx="3" fill="#40c463"><title>목: 9377.5점</title></rect><text x="136" y="158" font-size="10" fill="#cccccc">9377.5</text><text x="24" y="186" text-anchor="end" font-size="12" fill="#cccccc">금</text><rect x="28" y="170" width="85" height="22" rx="3" fill="#40c463"><title>금: 7771.2점</title></rect><text x="118" y="186" font-size="10" fill="#cccccc">7771.2</text><text x="24" y="214" text-anchor="end" font-size="12" fill="#cccccc">토</text><rect x="28" y="198" width="48" height="22" rx="3" fill="#9be9a8"><title>토: 4377.8점</title></rect><text x="81" y="214" font-size="10" fill="#cccccc">4377.8</text>
<text x="28" y="254" font-size="9" fill="#999999">기준: 2026-07-05 04:32</text>
</svg>