<svg xmlns="http://www.w3.org/2000/svg" width="363" height="260">
<text x="181" y="18" text-anchor="middle" font-size="13" font-weight="bold" fill="#e0e0e0">최근 2주 요일별 활동</text>
<text x="24" y="46" text-anchor="end" font-size="12" fill="#cccccc">일</text><rect x="28" y="30" width="137" height="22" rx="3" fill="#40c463"><title>일: 2522.4점</title></rect><text x="170" y="46" font-size="10" fill="#cccccc">2522.4</text><text x="24" y="74" text-anchor="end" font-size="12" fill="#cccccc">월</text><rect x="28" y="58" width="280" height="22" rx="3" fill="#216e39"><title>월: 5146.5점</title></rect><text x="313" y="74" font-size="10" fill="#cccccc">5146.5</text><text x="24" y="102" text-anchor="end" font-size="12" fill="#cccccc">화</text><rect x="28" y="86" width="254" height="22" rx="3" fill="#216e39"><title>화: 4683.9점</title></rect><text x="287" y="102" font-size="10" fill="#cccccc">4683.9</text><text x="24" y="130" text-anchor="end" font-size="12" fill="#cccccc">수</text><rect x="28" y="114" width="227" height="22" rx="3" fill="#216e39"><title>수: 4180.0점</title></rect><text x="260" y="130" font-size="10" fill="#cccccc">4180.0</text><text x="24" y="158" text-anchor="end" font-size="12" fill="#cccccc">목</text><rect x="28" y="142" width="212" height="22" rx="3" fill="#216e39"><title>목: 3905.0점</title></rect><text x="245" y="158" font-size="10" fill="#cccccc">3905.0</text><text x="24" y="186" text-anchor="end" font-size="12" fill="#cccccc">금</text><rect x="28" y="170" width="182" height="22" rx="3" fill="#30a14e"><title>금: 3355.0점</title></rect><text x="215" y="186" font-size="10" fill="#cccccc">3355.0</text><text x="24" y="214" text-anchor="end" font-size="12" fill="#cccccc">토</text><rect x="28" y="198" width="205" height="22" rx="3" fill="#30a14e"><title>토: 3773.0점</title></rect><text x="238" y="214" font-size="10" fill="#cccccc">3773.0</text>
<text x="28" y="254" font-size="9" fill="#999999">기준: 2026-06-07 16:46</text>
</svg>