<svg xmlns="http://www.w3.org/2000/svg" width="363" height="260">
<text x="181" y="18" text-anchor="middle" font-size="13" font-weight="bold" fill="#111111">최근 2주 요일별 활동</text>
<text x="24" y="46" text-anchor="end" font-size="12" fill="#333333">일</text><rect x="28" y="30" width="255" height="22" rx="3" fill="#216e39"><title>일: 11820.7점</title></rect><text x="288" y="46" font-size="10" fill="#333333">11820.7</text><text x="24" y="74" text-anchor="end" font-size="12" fill="#333333">월</text><rect x="28" y="58" width="280" height="22" rx="3" fill="#216e39"><title>월: 12959.2점</title></rect><text x="313" y="74" font-size="10" fill="#333333">12959.2</text><text x="24" y="102" text-anchor="end" font-size="12" fill="#333333">화</text><rect x="28" y="86" width="254" height="22" rx="3" fill="#216e39"><title>화: 11768.2점</title></rect><text x="287" y="102" font-size="10" fill="#333333">11768.2</text><text x="24" y="130" text-anchor="end" font-size="12" fill="#333333">수</text><rect x="28" y="114" width="255" height="22" rx="3" fill="#216e39"><title>수: 11804.4점</title></rect><text x="288" y="130" font-size="10" fill="#333333">11804.4</text><text x="24" y="158" text-anchor="end" font-size="12" fill="#333333">목</text><rect x="28" y="142" width="125" height="22" rx="3" fill="#40c463"><title>목: 5827.0점</title></rect><text x="158" y="158" font-size="10" fill="#333333">5827.0</text><text x="24" y="186" text-anchor="end" font-size="12" fill="#333333">금</text><rect x="28" y="170" width="134" height="22" rx="3" fill="#40c463"><title>금: 6248.0점</title></rect><text x="167" y="186" font-size="10" fill="#333333">6248.0</text><text x="24" y="214" text-anchor="end" font-size="12" fill="#333333">토</text><rect x="28" y="198" width="188" height="22" rx="3" fill="#30a14e"><title>토: 8703.4점</title></rect><text x="221" y="214" font-size="10" fill="#333333">8703.4</text>
<text x="28" y="254" font-size="9" fill="#666666">기준: 2026-06-28 04:54</text>
</svg>