<svg xmlns="http://www.w3.org/2000/svg" width="363" height="260">
<text x="181" y="18" text-anchor="middle" font-size="13" font-weight="bold" fill="#e0e0e0">최근 1달 요일별 활동</text>
<text x="24" y="46" text-anchor="end" font-size="12" fill="#cccccc">일</text><rect x="28" y="30" width="274" height="22" rx="3" fill="#216e39"><title>일: 6774.7점</title></rect><text x="307" y="46" font-size="10" fill="#cccccc">6774.7</text><text x="24" y="74" text-anchor="end" font-size="12" fill="#cccccc">월</text><rect x="28" y="58" width="146" height="22" rx="3" fill="#30a14e"><title>월: 3622.4점</title></rect><text x="179" y="74" font-size="10" fill="#cccccc">3622.4</text><text x="24" y="102" text-anchor="end" font-size="12" fill="#cccccc">화</text><rect x="28" y="86" width="274" height="22" rx="3" fill="#216e39"><title>화: 6782.1점</title></rect><text x="307" y="102" font-size="10" fill="#cccccc">6782.1</text><text x="24" y="130" text-anchor="end" font-size="12" fill="#cccccc">수</text><rect x="28" y="114" width="265" height="22" rx="3" fill="#216e39"><title>수: 6563.9점</title></rect><text x="298" y="130" font-size="10" fill="#cccccc">6563.9</text><text x="24" y="158" text-anchor="end" font-size="12" fill="#cccccc">목</text><rect x="28" y="142" width="229" height="22" rx="3" fill="#216e39"><title>목: 5663.3점</title></rect><text x="262" y="158" font-size="10" fill="#cccccc">5663.3</text><text x="24" y="186" text-anchor="end" font-size="12" fill="#cccccc">금</text><rect x="28" y="170" width="280" height="22" rx="3" fill="#216e39"><title>금: 6922.6점</title></rect><text x="313" y="186" font-size="10" fill="#cccccc">6922.6</text><text x="24" y="214" text-anchor="end" font-size="12" fill="#cccccc">토</text><rect x="28" y="198" width="115" height="22" rx="3" fill="#40c463"><title>토: 2857.6점</title></rect><text x="148" y="214" font-size="10" fill="#cccccc">2857.6</text>
<text x="28" y="254" font-size="9" fill="#999999">기준: 2026-05-23 04:10</text>
</svg>