<svg xmlns="http://www.w3.org/2000/svg" width="363" height="260">
<text x="181" y="18" text-anchor="middle" font-size="13" font-weight="bold" fill="#111111">최근 1달 요일별 활동</text>
<text x="24" y="46" text-anchor="end" font-size="12" fill="#333333">일</text><rect x="28" y="30" width="280" height="22" rx="3" fill="#216e39"><title>일: 53508.7점</title></rect><text x="313" y="46" font-size="10" fill="#333333">53508.7</text><text x="24" y="74" text-anchor="end" font-size="12" fill="#333333">월</text><rect x="28" y="58" width="238" height="22" rx="3" fill="#216e39"><title>월: 45662.1점</title></rect><text x="271" y="74" font-size="10" fill="#333333">45662.1</text><text x="24" y="102" text-anchor="end" font-size="12" fill="#333333">화</text><rect x="28" y="86" width="234" height="22" rx="3" fill="#216e39"><title>화: 44881.8점</title></rect><text x="267" y="102" font-size="10" fill="#333333">44881.8</text><text x="24" y="130" text-anchor="end" font-size="12" fill="#333333">수</text><rect x="28" y="114" width="242" height="22" rx="3" fill="#216e39"><title>수: 46375.6점</title></rect><text x="275" y="130" font-size="10" fill="#333333">46375.6</text><text x="24" y="158" text-anchor="end" font-size="12" fill="#333333">목</text><rect x="28" y="142" width="171" height="22" rx="3" fill="#30a14e"><title>목: 32848.5점</title></rect><text x="204" y="158" font-size="10" fill="#333333">32848.5</text><text x="24" y="186" text-anchor="end" font-size="12" fill="#333333">금</text><rect x="28" y="170" width="186" height="22" rx="3" fill="#30a14e"><title>금: 35557.8점</title></rect><text x="219" y="186" font-size="10" fill="#333333">35557.8</text><text x="24" y="214" text-anchor="end" font-size="12" fill="#333333">토</text><rect x="28" y="198" width="264" height="22" rx="3" fill="#216e39"><title>토: 50527.1점</title></rect><text x="297" y="214" font-size="10" fill="#333333">50527.1</text>
<text x="28" y="254" font-size="9" fill="#666666">기준: 2026-07-10 09:54</text>
</svg>