<svg xmlns="http://www.w3.org/2000/svg" width="363" height="260">
<text x="181" y="18" text-anchor="middle" font-size="13" font-weight="bold" fill="#e0e0e0">최근 2주 요일별 활동</text>
<text x="24" y="46" text-anchor="end" font-size="12" fill="#cccccc">일</text><rect x="28" y="30" width="188" height="22" rx="3" fill="#30a14e"><title>일: 8498.0점</title></rect><text x="221" y="46" font-size="10" fill="#cccccc">8498.0</text><text x="24" y="74" text-anchor="end" font-size="12" fill="#cccccc">월</text><rect x="28" y="58" width="194" height="22" rx="3" fill="#30a14e"><title>월: 8731.4점</title></rect><text x="227" y="74" font-size="10" fill="#cccccc">8731.4</text><text x="24" y="102" text-anchor="end" font-size="12" fill="#cccccc">화</text><rect x="28" y="86" width="181" height="22" rx="3" fill="#30a14e"><title>화: 8147.5점</title></rect><text x="214" y="102" font-size="10" fill="#cccccc">8147.5</text><text x="24" y="130" text-anchor="end" font-size="12" fill="#cccccc">수</text><rect x="28" y="114" width="174" height="22" rx="3" fill="#30a14e"><title>수: 7860.2점</title></rect><text x="207" y="130" font-size="10" fill="#cccccc">7860.2</text><text x="24" y="158" text-anchor="end" font-size="12" fill="#cccccc">목</text><rect x="28" y="142" width="259" height="22" rx="3" fill="#216e39"><title>목: 11691.3점</title></rect><text x="292" y="158" font-size="10" fill="#cccccc">11691.3</text><text x="24" y="186" text-anchor="end" font-size="12" fill="#cccccc">금</text><rect x="28" y="170" width="275" height="22" rx="3" fill="#216e39"><title>금: 12386.7점</title></rect><text x="308" y="186" font-size="10" fill="#cccccc">12386.7</text><text x="24" y="214" text-anchor="end" font-size="12" fill="#cccccc">토</text><rect x="28" y="198" width="280" height="22" rx="3" fill="#216e39"><title>토: 12593.9점</title></rect><text x="313" y="214" font-size="10" fill="#cccccc">12593.9</text>
<text x="28" y="254" font-size="9" fill="#999999">기준: 2026-07-15 22:15</text>
</svg>