<svg xmlns="http://www.w3.org/2000/svg" width="363" height="260">
<text x="181" y="18" text-anchor="middle" font-size="13" font-weight="bold" fill="#e0e0e0">최근 1주 요일별 활동</text>
<text x="24" y="46" text-anchor="end" font-size="12" fill="#cccccc">일</text><rect x="28" y="30" width="150" height="22" rx="3" fill="#30a14e"><title>일: 2330.2점</title></rect><text x="183" y="46" font-size="10" fill="#cccccc">2330.2</text><text x="24" y="74" text-anchor="end" font-size="12" fill="#cccccc">월</text><rect x="28" y="58" width="94" height="22" rx="3" fill="#40c463"><title>월: 1458.6점</title></rect><text x="127" y="74" font-size="10" fill="#cccccc">1458.6</text><text x="24" y="102" text-anchor="end" font-size="12" fill="#cccccc">화</text><rect x="28" y="86" width="96" height="22" rx="3" fill="#40c463"><title>화: 1488.9점</title></rect><text x="129" y="102" font-size="10" fill="#cccccc">1488.9</text><text x="24" y="130" text-anchor="end" font-size="12" fill="#cccccc">수</text><rect x="28" y="114" width="82" height="22" rx="3" fill="#40c463"><title>수: 1275.5점</title></rect><text x="115" y="130" font-size="10" fill="#cccccc">1275.5</text><text x="24" y="158" text-anchor="end" font-size="12" fill="#cccccc">목</text><rect x="28" y="142" width="28" height="22" rx="3" fill="#9be9a8"><title>목: 439.2점</title></rect><text x="61" y="158" font-size="10" fill="#cccccc">439.2</text><text x="24" y="186" text-anchor="end" font-size="12" fill="#cccccc">금</text><rect x="28" y="170" width="16" height="22" rx="3" fill="#9be9a8"><title>금: 260.8점</title></rect><text x="49" y="186" font-size="10" fill="#cccccc">260.8</text><text x="24" y="214" text-anchor="end" font-size="12" fill="#cccccc">토</text><rect x="28" y="198" width="280" height="22" rx="3" fill="#216e39"><title>토: 4335.7점</title></rect><text x="313" y="214" font-size="10" fill="#cccccc">4335.7</text>
<text x="28" y="254" font-size="9" fill="#999999">기준: 2026-07-10 17:11</text>
</svg>