<svg xmlns="http://www.w3.org/2000/svg" width="363" height="260">
<text x="181" y="18" text-anchor="middle" font-size="13" font-weight="bold" fill="#e0e0e0">최근 2주 요일별 활동</text>
<text x="24" y="46" text-anchor="end" font-size="12" fill="#cccccc">일</text><rect x="28" y="30" width="277" height="22" rx="3" fill="#216e39"><title>일: 17898.8점</title></rect><text x="310" y="46" font-size="10" fill="#cccccc">17898.8</text><text x="24" y="74" text-anchor="end" font-size="12" fill="#cccccc">월</text><rect x="28" y="58" width="217" height="22" rx="3" fill="#216e39"><title>월: 14059.2점</title></rect><text x="250" y="74" font-size="10" fill="#cccccc">14059.2</text><text x="24" y="102" text-anchor="end" font-size="12" fill="#cccccc">화</text><rect x="28" y="86" width="215" height="22" rx="3" fill="#216e39"><title>화: 13896.7점</title></rect><text x="248" y="102" font-size="10" fill="#cccccc">13896.7</text><text x="24" y="130" text-anchor="end" font-size="12" fill="#cccccc">수</text><rect x="28" y="114" width="280" height="22" rx="3" fill="#216e39"><title>수: 18080.7점</title></rect><text x="313" y="130" font-size="10" fill="#cccccc">18080.7</text><text x="24" y="158" text-anchor="end" font-size="12" fill="#cccccc">목</text><rect x="28" y="142" width="138" height="22" rx="3" fill="#40c463"><title>목: 8942.8점</title></rect><text x="171" y="158" font-size="10" fill="#cccccc">8942.8</text><text x="24" y="186" text-anchor="end" font-size="12" fill="#cccccc">금</text><rect x="28" y="170" width="151" height="22" rx="3" fill="#30a14e"><title>금: 9811.2점</title></rect><text x="184" y="186" font-size="10" fill="#cccccc">9811.2</text><text x="24" y="214" text-anchor="end" font-size="12" fill="#cccccc">토</text><rect x="28" y="198" width="199" height="22" rx="3" fill="#30a14e"><title>토: 12880.6점</title></rect><text x="232" y="214" font-size="10" fill="#cccccc">12880.6</text>
<text x="28" y="254" font-size="9" fill="#999999">기준: 2026-06-30 20:21</text>
</svg>