<svg xmlns="http://www.w3.org/2000/svg" width="363" height="260">
<text x="181" y="18" text-anchor="middle" font-size="13" font-weight="bold" fill="#e0e0e0">최근 2주 요일별 활동</text>
<text x="24" y="46" text-anchor="end" font-size="12" fill="#cccccc">일</text><rect x="28" y="30" width="280" height="22" rx="3" fill="#216e39"><title>일: 10768.2점</title></rect><text x="313" y="46" font-size="10" fill="#cccccc">10768.2</text><text x="24" y="74" text-anchor="end" font-size="12" fill="#cccccc">월</text><rect x="28" y="58" width="272" height="22" rx="3" fill="#216e39"><title>월: 10472.0점</title></rect><text x="305" y="74" font-size="10" fill="#cccccc">10472.0</text><text x="24" y="102" text-anchor="end" font-size="12" fill="#cccccc">화</text><rect x="28" y="86" width="253" height="22" rx="3" fill="#216e39"><title>화: 9752.5점</title></rect><text x="286" y="102" font-size="10" fill="#cccccc">9752.5</text><text x="24" y="130" text-anchor="end" font-size="12" fill="#cccccc">수</text><rect x="28" y="114" width="181" height="22" rx="3" fill="#30a14e"><title>수: 6977.0점</title></rect><text x="214" y="130" font-size="10" fill="#cccccc">6977.0</text><text x="24" y="158" text-anchor="end" font-size="12" fill="#cccccc">목</text><rect x="28" y="142" width="125" height="22" rx="3" fill="#40c463"><title>목: 4822.8점</title></rect><text x="158" y="158" font-size="10" fill="#cccccc">4822.8</text><text x="24" y="186" text-anchor="end" font-size="12" fill="#cccccc">금</text><rect x="28" y="170" width="103" height="22" rx="3" fill="#40c463"><title>금: 3986.4점</title></rect><text x="136" y="186" font-size="10" fill="#cccccc">3986.4</text><text x="24" y="214" text-anchor="end" font-size="12" fill="#cccccc">토</text><rect x="28" y="198" width="125" height="22" rx="3" fill="#40c463"><title>토: 4814.0점</title></rect><text x="158" y="214" font-size="10" fill="#cccccc">4814.0</text>
<text x="28" y="254" font-size="9" fill="#999999">기준: 2026-07-11 08:15</text>
</svg>