<svg xmlns="http://www.w3.org/2000/svg" width="363" height="260">
<text x="181" y="18" text-anchor="middle" font-size="13" font-weight="bold" fill="#e0e0e0">최근 1달 요일별 활동</text>
<text x="24" y="46" text-anchor="end" font-size="12" fill="#cccccc">일</text><rect x="28" y="30" width="263" height="22" rx="3" fill="#216e39"><title>일: 10441.5점</title></rect><text x="296" y="46" font-size="10" fill="#cccccc">10441.5</text><text x="24" y="74" text-anchor="end" font-size="12" fill="#cccccc">월</text><rect x="28" y="58" width="153" height="22" rx="3" fill="#30a14e"><title>월: 6102.1점</title></rect><text x="186" y="74" font-size="10" fill="#cccccc">6102.1</text><text x="24" y="102" text-anchor="end" font-size="12" fill="#cccccc">화</text><rect x="28" y="86" width="280" height="22" rx="3" fill="#216e39"><title>화: 11105.4점</title></rect><text x="313" y="102" font-size="10" fill="#cccccc">11105.4</text><text x="24" y="130" text-anchor="end" font-size="12" fill="#cccccc">수</text><rect x="28" y="114" width="223" height="22" rx="3" fill="#216e39"><title>수: 8879.1점</title></rect><text x="256" y="130" font-size="10" fill="#cccccc">8879.1</text><text x="24" y="158" text-anchor="end" font-size="12" fill="#cccccc">목</text><rect x="28" y="142" width="202" height="22" rx="3" fill="#30a14e"><title>목: 8032.5점</title></rect><text x="235" y="158" font-size="10" fill="#cccccc">8032.5</text><text x="24" y="186" text-anchor="end" font-size="12" fill="#cccccc">금</text><rect x="28" y="170" width="237" height="22" rx="3" fill="#216e39"><title>금: 9419.0점</title></rect><text x="270" y="186" font-size="10" fill="#cccccc">9419.0</text><text x="24" y="214" text-anchor="end" font-size="12" fill="#cccccc">토</text><rect x="28" y="198" width="243" height="22" rx="3" fill="#216e39"><title>토: 9646.0점</title></rect><text x="276" y="214" font-size="10" fill="#cccccc">9646.0</text>
<text x="28" y="254" font-size="9" fill="#999999">기준: 2026-06-06 11:00</text>
</svg>