<svg xmlns="http://www.w3.org/2000/svg" width="363" height="260">
<text x="181" y="18" text-anchor="middle" font-size="13" font-weight="bold" fill="#111111">최근 1주 요일별 활동</text>
<text x="24" y="46" text-anchor="end" font-size="12" fill="#333333">일</text><rect x="28" y="30" width="133" height="22" rx="3" fill="#40c463"><title>일: 759.0점</title></rect><text x="166" y="46" font-size="10" fill="#333333">759.0</text><text x="24" y="74" text-anchor="end" font-size="12" fill="#333333">월</text><rect x="28" y="58" width="52" height="22" rx="3" fill="#9be9a8"><title>월: 300.6점</title></rect><text x="85" y="74" font-size="10" fill="#333333">300.6</text><text x="24" y="102" text-anchor="end" font-size="12" fill="#333333">화</text><rect x="28" y="86" width="20" height="22" rx="3" fill="#9be9a8"><title>화: 115.9점</title></rect><text x="53" y="102" font-size="10" fill="#333333">115.9</text><text x="24" y="130" text-anchor="end" font-size="12" fill="#333333">수</text><rect x="28" y="114" width="2" height="22" rx="3" fill="#ebedf0"><title>수: 0.0점</title></rect><text x="35" y="130" font-size="10" fill="#333333">0.0</text><text x="24" y="158" text-anchor="end" font-size="12" fill="#333333">목</text><rect x="28" y="142" width="280" height="22" rx="3" fill="#216e39"><title>목: 1595.0점</title></rect><text x="313" y="158" font-size="10" fill="#333333">1595.0</text><text x="24" y="186" text-anchor="end" font-size="12" fill="#333333">금</text><rect x="28" y="170" width="231" height="22" rx="3" fill="#216e39"><title>금: 1320.0점</title></rect><text x="264" y="186" font-size="10" fill="#333333">1320.0</text><text x="24" y="214" text-anchor="end" font-size="12" fill="#333333">토</text><rect x="28" y="198" width="243" height="22" rx="3" fill="#216e39"><title>토: 1386.0점</title></rect><text x="276" y="214" font-size="10" fill="#333333">1386.0</text>
<text x="28" y="254" font-size="9" fill="#666666">기준: 2026-06-03 05:19</text>
</svg>