<svg xmlns="http://www.w3.org/2000/svg" width="363" height="260">
<text x="181" y="18" text-anchor="middle" font-size="13" font-weight="bold" fill="#111111">최근 2주 요일별 활동</text>
<text x="24" y="46" text-anchor="end" font-size="12" fill="#333333">일</text><rect x="28" y="30" width="280" height="22" rx="3" fill="#216e39"><title>일: 10486.7점</title></rect><text x="313" y="46" font-size="10" fill="#333333">10486.7</text><text x="24" y="74" text-anchor="end" font-size="12" fill="#333333">월</text><rect x="28" y="58" width="270" height="22" rx="3" fill="#216e39"><title>월: 10128.8점</title></rect><text x="303" y="74" font-size="10" fill="#333333">10128.8</text><text x="24" y="102" text-anchor="end" font-size="12" fill="#333333">화</text><rect x="28" y="86" width="250" height="22" rx="3" fill="#216e39"><title>화: 9381.6점</title></rect><text x="283" y="102" font-size="10" fill="#333333">9381.6</text><text x="24" y="130" text-anchor="end" font-size="12" fill="#333333">수</text><rect x="28" y="114" width="177" height="22" rx="3" fill="#30a14e"><title>수: 6634.3점</title></rect><text x="210" y="130" font-size="10" fill="#333333">6634.3</text><text x="24" y="158" text-anchor="end" font-size="12" fill="#333333">목</text><rect x="28" y="142" width="123" height="22" rx="3" fill="#40c463"><title>목: 4608.2점</title></rect><text x="156" y="158" font-size="10" fill="#333333">4608.2</text><text x="24" y="186" text-anchor="end" font-size="12" fill="#333333">금</text><rect x="28" y="170" width="99" height="22" rx="3" fill="#40c463"><title>금: 3740.0점</title></rect><text x="132" y="186" font-size="10" fill="#333333">3740.0</text><text x="24" y="214" text-anchor="end" font-size="12" fill="#333333">토</text><rect x="28" y="198" width="124" height="22" rx="3" fill="#40c463"><title>토: 4673.9점</title></rect><text x="157" y="214" font-size="10" fill="#333333">4673.9</text>
<text x="28" y="254" font-size="9" fill="#666666">기준: 2026-07-11 03:45</text>
</svg>