<svg xmlns="http://www.w3.org/2000/svg" width="363" height="260">
<text x="181" y="18" text-anchor="middle" font-size="13" font-weight="bold" fill="#111111">최근 1주 요일별 활동</text>
<text x="24" y="46" text-anchor="end" font-size="12" fill="#333333">일</text><rect x="28" y="30" width="85" height="22" rx="3" fill="#40c463"><title>일: 837.8점</title></rect><text x="118" y="46" font-size="10" fill="#333333">837.8</text><text x="24" y="74" text-anchor="end" font-size="12" fill="#333333">월</text><rect x="28" y="58" width="31" height="22" rx="3" fill="#9be9a8"><title>월: 312.1점</title></rect><text x="64" y="74" font-size="10" fill="#333333">312.1</text><text x="24" y="102" text-anchor="end" font-size="12" fill="#333333">화</text><rect x="28" y="86" width="5" height="22" rx="3" fill="#9be9a8"><title>화: 53.4점</title></rect><text x="38" y="102" font-size="10" fill="#333333">53.4</text><text x="24" y="130" text-anchor="end" font-size="12" fill="#333333">수</text><rect x="28" y="114" width="280" height="22" rx="3" fill="#216e39"><title>수: 2745.8점</title></rect><text x="313" y="130" font-size="10" fill="#333333">2745.8</text><text x="24" y="158" text-anchor="end" font-size="12" fill="#333333">목</text><rect x="28" y="142" width="215" height="22" rx="3" fill="#216e39"><title>목: 2114.0점</title></rect><text x="248" y="158" font-size="10" fill="#333333">2114.0</text><text x="24" y="186" text-anchor="end" font-size="12" fill="#333333">금</text><rect x="28" y="170" width="158" height="22" rx="3" fill="#30a14e"><title>금: 1551.0점</title></rect><text x="191" y="186" font-size="10" fill="#333333">1551.0</text><text x="24" y="214" text-anchor="end" font-size="12" fill="#333333">토</text><rect x="28" y="198" width="222" height="22" rx="3" fill="#216e39"><title>토: 2183.5점</title></rect><text x="255" y="214" font-size="10" fill="#333333">2183.5</text>
<text x="28" y="254" font-size="9" fill="#666666">기준: 2026-07-07 15:17</text>
</svg>