<svg xmlns="http://www.w3.org/2000/svg" width="363" height="260">
<text x="181" y="18" text-anchor="middle" font-size="13" font-weight="bold" fill="#e0e0e0">최근 1달 요일별 활동</text>
<text x="24" y="46" text-anchor="end" font-size="12" fill="#cccccc">일</text><rect x="28" y="30" width="239" height="22" rx="3" fill="#216e39"><title>일: 74350.5점</title></rect><text x="272" y="46" font-size="10" fill="#cccccc">74350.5</text><text x="24" y="74" text-anchor="end" font-size="12" fill="#cccccc">월</text><rect x="28" y="58" width="223" height="22" rx="3" fill="#216e39"><title>월: 69367.9점</title></rect><text x="256" y="74" font-size="10" fill="#cccccc">69367.9</text><text x="24" y="102" text-anchor="end" font-size="12" fill="#cccccc">화</text><rect x="28" y="86" width="229" height="22" rx="3" fill="#216e39"><title>화: 71171.8점</title></rect><text x="262" y="102" font-size="10" fill="#cccccc">71171.8</text><text x="24" y="130" text-anchor="end" font-size="12" fill="#cccccc">수</text><rect x="28" y="114" width="280" height="22" rx="3" fill="#216e39"><title>수: 86890.0점</title></rect><text x="313" y="130" font-size="10" fill="#cccccc">86890.0</text><text x="24" y="158" text-anchor="end" font-size="12" fill="#cccccc">목</text><rect x="28" y="142" width="138" height="22" rx="3" fill="#40c463"><title>목: 43038.4점</title></rect><text x="171" y="158" font-size="10" fill="#cccccc">43038.4</text><text x="24" y="186" text-anchor="end" font-size="12" fill="#cccccc">금</text><rect x="28" y="170" width="160" height="22" rx="3" fill="#30a14e"><title>금: 49693.8점</title></rect><text x="193" y="186" font-size="10" fill="#cccccc">49693.8</text><text x="24" y="214" text-anchor="end" font-size="12" fill="#cccccc">토</text><rect x="28" y="198" width="177" height="22" rx="3" fill="#30a14e"><title>토: 55204.5점</title></rect><text x="210" y="214" font-size="10" fill="#cccccc">55204.5</text>
<text x="28" y="254" font-size="9" fill="#999999">기준: 2026-07-16 08:35</text>
</svg>