<svg xmlns="http://www.w3.org/2000/svg" width="363" height="260">
<text x="181" y="18" text-anchor="middle" font-size="13" font-weight="bold" fill="#111111">최근 2주 요일별 활동</text>
<text x="24" y="46" text-anchor="end" font-size="12" fill="#333333">일</text><rect x="28" y="30" width="191" height="22" rx="3" fill="#30a14e"><title>일: 10090.4점</title></rect><text x="224" y="46" font-size="10" fill="#333333">10090.4</text><text x="24" y="74" text-anchor="end" font-size="12" fill="#333333">월</text><rect x="28" y="58" width="208" height="22" rx="3" fill="#30a14e"><title>월: 11016.6점</title></rect><text x="241" y="74" font-size="10" fill="#333333">11016.6</text><text x="24" y="102" text-anchor="end" font-size="12" fill="#333333">화</text><rect x="28" y="86" width="198" height="22" rx="3" fill="#30a14e"><title>화: 10454.1점</title></rect><text x="231" y="102" font-size="10" fill="#333333">10454.1</text><text x="24" y="130" text-anchor="end" font-size="12" fill="#333333">수</text><rect x="28" y="114" width="195" height="22" rx="3" fill="#30a14e"><title>수: 10326.2점</title></rect><text x="228" y="130" font-size="10" fill="#333333">10326.2</text><text x="24" y="158" text-anchor="end" font-size="12" fill="#333333">목</text><rect x="28" y="142" width="81" height="22" rx="3" fill="#40c463"><title>목: 4320.3점</title></rect><text x="114" y="158" font-size="10" fill="#333333">4320.3</text><text x="24" y="186" text-anchor="end" font-size="12" fill="#333333">금</text><rect x="28" y="170" width="159" height="22" rx="3" fill="#30a14e"><title>금: 8410.9점</title></rect><text x="192" y="186" font-size="10" fill="#333333">8410.9</text><text x="24" y="214" text-anchor="end" font-size="12" fill="#333333">토</text><rect x="28" y="198" width="280" height="22" rx="3" fill="#216e39"><title>토: 14759.9점</title></rect><text x="313" y="214" font-size="10" fill="#333333">14759.9</text>
<text x="28" y="254" font-size="9" fill="#666666">기준: 2026-07-17 03:40</text>
</svg>