<svg xmlns="http://www.w3.org/2000/svg" width="363" height="260">
<text x="181" y="18" text-anchor="middle" font-size="13" font-weight="bold" fill="#e0e0e0">최근 1달 요일별 활동</text>
<text x="24" y="46" text-anchor="end" font-size="12" fill="#cccccc">일</text><rect x="28" y="30" width="280" height="22" rx="3" fill="#216e39"><title>일: 78771.8점</title></rect><text x="313" y="46" font-size="10" fill="#cccccc">78771.8</text><text x="24" y="74" text-anchor="end" font-size="12" fill="#cccccc">월</text><rect x="28" y="58" width="263" height="22" rx="3" fill="#216e39"><title>월: 74221.6점</title></rect><text x="296" y="74" font-size="10" fill="#cccccc">74221.6</text><text x="24" y="102" text-anchor="end" font-size="12" fill="#cccccc">화</text><rect x="28" y="86" width="270" height="22" rx="3" fill="#216e39"><title>화: 76125.4점</title></rect><text x="303" y="102" font-size="10" fill="#cccccc">76125.4</text><text x="24" y="130" text-anchor="end" font-size="12" fill="#cccccc">수</text><rect x="28" y="114" width="271" height="22" rx="3" fill="#216e39"><title>수: 76411.6점</title></rect><text x="304" y="130" font-size="10" fill="#cccccc">76411.6</text><text x="24" y="158" text-anchor="end" font-size="12" fill="#cccccc">목</text><rect x="28" y="142" width="163" height="22" rx="3" fill="#30a14e"><title>목: 45974.7점</title></rect><text x="196" y="158" font-size="10" fill="#cccccc">45974.7</text><text x="24" y="186" text-anchor="end" font-size="12" fill="#cccccc">금</text><rect x="28" y="170" width="189" height="22" rx="3" fill="#30a14e"><title>금: 53249.7점</title></rect><text x="222" y="186" font-size="10" fill="#cccccc">53249.7</text><text x="24" y="214" text-anchor="end" font-size="12" fill="#cccccc">토</text><rect x="28" y="198" width="208" height="22" rx="3" fill="#30a14e"><title>토: 58584.4점</title></rect><text x="241" y="214" font-size="10" fill="#cccccc">58584.4</text>
<text x="28" y="254" font-size="9" fill="#999999">기준: 2026-07-17 03:40</text>
</svg>