<svg xmlns="http://www.w3.org/2000/svg" width="363" height="260">
<text x="181" y="18" text-anchor="middle" font-size="13" font-weight="bold" fill="#e0e0e0">최근 2주 요일별 활동</text>
<text x="24" y="46" text-anchor="end" font-size="12" fill="#cccccc">일</text><rect x="28" y="30" width="124" height="22" rx="3" fill="#40c463"><title>일: 6758.8점</title></rect><text x="157" y="46" font-size="10" fill="#cccccc">6758.8</text><text x="24" y="74" text-anchor="end" font-size="12" fill="#cccccc">월</text><rect x="28" y="58" width="114" height="22" rx="3" fill="#40c463"><title>월: 6226.0점</title></rect><text x="147" y="74" font-size="10" fill="#cccccc">6226.0</text><text x="24" y="102" text-anchor="end" font-size="12" fill="#cccccc">화</text><rect x="28" y="86" width="104" height="22" rx="3" fill="#40c463"><title>화: 5679.5점</title></rect><text x="137" y="102" font-size="10" fill="#cccccc">5679.5</text><text x="24" y="130" text-anchor="end" font-size="12" fill="#cccccc">수</text><rect x="28" y="114" width="280" height="22" rx="3" fill="#216e39"><title>수: 15203.3점</title></rect><text x="313" y="130" font-size="10" fill="#cccccc">15203.3</text><text x="24" y="158" text-anchor="end" font-size="12" fill="#cccccc">목</text><rect x="28" y="142" width="183" height="22" rx="3" fill="#30a14e"><title>목: 9974.2점</title></rect><text x="216" y="158" font-size="10" fill="#cccccc">9974.2</text><text x="24" y="186" text-anchor="end" font-size="12" fill="#cccccc">금</text><rect x="28" y="170" width="182" height="22" rx="3" fill="#30a14e"><title>금: 9900.0점</title></rect><text x="215" y="186" font-size="10" fill="#cccccc">9900.0</text><text x="24" y="214" text-anchor="end" font-size="12" fill="#cccccc">토</text><rect x="28" y="198" width="189" height="22" rx="3" fill="#30a14e"><title>토: 10278.2점</title></rect><text x="222" y="214" font-size="10" fill="#cccccc">10278.2</text>
<text x="28" y="254" font-size="9" fill="#999999">기준: 2026-07-14 19:45</text>
</svg>