<svg xmlns="http://www.w3.org/2000/svg" width="363" height="260">
<text x="181" y="18" text-anchor="middle" font-size="13" font-weight="bold" fill="#111111">최근 2주 요일별 활동</text>
<text x="24" y="46" text-anchor="end" font-size="12" fill="#333333">일</text><rect x="28" y="30" width="230" height="22" rx="3" fill="#216e39"><title>일: 1407.8점</title></rect><text x="263" y="46" font-size="10" fill="#333333">1407.8</text><text x="24" y="74" text-anchor="end" font-size="12" fill="#333333">월</text><rect x="28" y="58" width="156" height="22" rx="3" fill="#30a14e"><title>월: 955.9점</title></rect><text x="189" y="74" font-size="10" fill="#333333">955.9</text><text x="24" y="102" text-anchor="end" font-size="12" fill="#333333">화</text><rect x="28" y="86" width="280" height="22" rx="3" fill="#216e39"><title>화: 1712.9점</title></rect><text x="313" y="102" font-size="10" fill="#333333">1712.9</text><text x="24" y="130" text-anchor="end" font-size="12" fill="#333333">수</text><rect x="28" y="114" width="126" height="22" rx="3" fill="#40c463"><title>수: 776.9점</title></rect><text x="159" y="130" font-size="10" fill="#333333">776.9</text><text x="24" y="158" text-anchor="end" font-size="12" fill="#333333">목</text><rect x="28" y="142" width="90" height="22" rx="3" fill="#40c463"><title>목: 552.5점</title></rect><text x="123" y="158" font-size="10" fill="#333333">552.5</text><text x="24" y="186" text-anchor="end" font-size="12" fill="#333333">금</text><rect x="28" y="170" width="62" height="22" rx="3" fill="#9be9a8"><title>금: 380.5점</title></rect><text x="95" y="186" font-size="10" fill="#333333">380.5</text><text x="24" y="214" text-anchor="end" font-size="12" fill="#333333">토</text><rect x="28" y="198" width="224" height="22" rx="3" fill="#216e39"><title>토: 1374.0점</title></rect><text x="257" y="214" font-size="10" fill="#333333">1374.0</text>
<text x="28" y="254" font-size="9" fill="#666666">기준: 2026-05-22 04:38</text>
</svg>