<svg xmlns="http://www.w3.org/2000/svg" width="363" height="260">
<text x="181" y="18" text-anchor="middle" font-size="13" font-weight="bold" fill="#111111">최근 1달 요일별 활동</text>
<text x="24" y="46" text-anchor="end" font-size="12" fill="#333333">일</text><rect x="28" y="30" width="264" height="22" rx="3" fill="#216e39"><title>일: 36638.8점</title></rect><text x="297" y="46" font-size="10" fill="#333333">36638.8</text><text x="24" y="74" text-anchor="end" font-size="12" fill="#333333">월</text><rect x="28" y="58" width="180" height="22" rx="3" fill="#30a14e"><title>월: 25007.3점</title></rect><text x="213" y="74" font-size="10" fill="#333333">25007.3</text><text x="24" y="102" text-anchor="end" font-size="12" fill="#333333">화</text><rect x="28" y="86" width="264" height="22" rx="3" fill="#216e39"><title>화: 36522.5점</title></rect><text x="297" y="102" font-size="10" fill="#333333">36522.5</text><text x="24" y="130" text-anchor="end" font-size="12" fill="#333333">수</text><rect x="28" y="114" width="206" height="22" rx="3" fill="#30a14e"><title>수: 28555.5점</title></rect><text x="239" y="130" font-size="10" fill="#333333">28555.5</text><text x="24" y="158" text-anchor="end" font-size="12" fill="#333333">목</text><rect x="28" y="142" width="130" height="22" rx="3" fill="#40c463"><title>목: 18102.1점</title></rect><text x="163" y="158" font-size="10" fill="#333333">18102.1</text><text x="24" y="186" text-anchor="end" font-size="12" fill="#333333">금</text><rect x="28" y="170" width="130" height="22" rx="3" fill="#40c463"><title>금: 18064.6점</title></rect><text x="163" y="186" font-size="10" fill="#333333">18064.6</text><text x="24" y="214" text-anchor="end" font-size="12" fill="#333333">토</text><rect x="28" y="198" width="280" height="22" rx="3" fill="#216e39"><title>토: 38735.6점</title></rect><text x="313" y="214" font-size="10" fill="#333333">38735.6</text>
<text x="28" y="254" font-size="9" fill="#666666">기준: 2026-06-28 04:54</text>
</svg>