<svg xmlns="http://www.w3.org/2000/svg" width="363" height="260">
<text x="181" y="18" text-anchor="middle" font-size="13" font-weight="bold" fill="#111111">최근 2주 요일별 활동</text>
<text x="24" y="46" text-anchor="end" font-size="12" fill="#333333">일</text><rect x="28" y="30" width="147" height="22" rx="3" fill="#30a14e"><title>일: 6700.4점</title></rect><text x="180" y="46" font-size="10" fill="#333333">6700.4</text><text x="24" y="74" text-anchor="end" font-size="12" fill="#333333">월</text><rect x="28" y="58" width="135" height="22" rx="3" fill="#40c463"><title>월: 6185.6점</title></rect><text x="168" y="74" font-size="10" fill="#333333">6185.6</text><text x="24" y="102" text-anchor="end" font-size="12" fill="#333333">화</text><rect x="28" y="86" width="113" height="22" rx="3" fill="#40c463"><title>화: 5169.7점</title></rect><text x="146" y="102" font-size="10" fill="#333333">5169.7</text><text x="24" y="130" text-anchor="end" font-size="12" fill="#333333">수</text><rect x="28" y="114" width="65" height="22" rx="3" fill="#9be9a8"><title>수: 2975.6점</title></rect><text x="98" y="130" font-size="10" fill="#333333">2975.6</text><text x="24" y="158" text-anchor="end" font-size="12" fill="#333333">목</text><rect x="28" y="142" width="280" height="22" rx="3" fill="#216e39"><title>목: 12749.0점</title></rect><text x="313" y="158" font-size="10" fill="#333333">12749.0</text><text x="24" y="186" text-anchor="end" font-size="12" fill="#333333">금</text><rect x="28" y="170" width="241" height="22" rx="3" fill="#216e39"><title>금: 10988.8점</title></rect><text x="274" y="186" font-size="10" fill="#333333">10988.8</text><text x="24" y="214" text-anchor="end" font-size="12" fill="#333333">토</text><rect x="28" y="198" width="168" height="22" rx="3" fill="#30a14e"><title>토: 7694.3점</title></rect><text x="201" y="214" font-size="10" fill="#333333">7694.3</text>
<text x="28" y="254" font-size="9" fill="#666666">기준: 2026-07-08 03:47</text>
</svg>