<svg xmlns="http://www.w3.org/2000/svg" width="363" height="260">
<text x="181" y="18" text-anchor="middle" font-size="13" font-weight="bold" fill="#111111">최근 1달 요일별 활동</text>
<text x="24" y="46" text-anchor="end" font-size="12" fill="#333333">일</text><rect x="28" y="30" width="257" height="22" rx="3" fill="#216e39"><title>일: 41604.1점</title></rect><text x="290" y="46" font-size="10" fill="#333333">41604.1</text><text x="24" y="74" text-anchor="end" font-size="12" fill="#333333">월</text><rect x="28" y="58" width="188" height="22" rx="3" fill="#30a14e"><title>월: 30533.5점</title></rect><text x="221" y="74" font-size="10" fill="#333333">30533.5</text><text x="24" y="102" text-anchor="end" font-size="12" fill="#333333">화</text><rect x="28" y="86" width="280" height="22" rx="3" fill="#216e39"><title>화: 45262.3점</title></rect><text x="313" y="102" font-size="10" fill="#333333">45262.3</text><text x="24" y="130" text-anchor="end" font-size="12" fill="#333333">수</text><rect x="28" y="114" width="271" height="22" rx="3" fill="#216e39"><title>수: 43892.3점</title></rect><text x="304" y="130" font-size="10" fill="#333333">43892.3</text><text x="24" y="158" text-anchor="end" font-size="12" fill="#333333">목</text><rect x="28" y="142" width="163" height="22" rx="3" fill="#30a14e"><title>목: 26375.6점</title></rect><text x="196" y="158" font-size="10" fill="#333333">26375.6</text><text x="24" y="186" text-anchor="end" font-size="12" fill="#333333">금</text><rect x="28" y="170" width="167" height="22" rx="3" fill="#30a14e"><title>금: 27095.3점</title></rect><text x="200" y="186" font-size="10" fill="#333333">27095.3</text><text x="24" y="214" text-anchor="end" font-size="12" fill="#333333">토</text><rect x="28" y="198" width="242" height="22" rx="3" fill="#216e39"><title>토: 39144.6점</title></rect><text x="275" y="214" font-size="10" fill="#333333">39144.6</text>
<text x="28" y="254" font-size="9" fill="#666666">기준: 2026-07-02 14:30</text>
</svg>