<svg xmlns="http://www.w3.org/2000/svg" width="363" height="260">
<text x="181" y="18" text-anchor="middle" font-size="13" font-weight="bold" fill="#e0e0e0">최근 1달 요일별 활동</text>
<text x="24" y="46" text-anchor="end" font-size="12" fill="#cccccc">일</text><rect x="28" y="30" width="277" height="22" rx="3" fill="#216e39"><title>일: 12997.8점</title></rect><text x="310" y="46" font-size="10" fill="#cccccc">12997.8</text><text x="24" y="74" text-anchor="end" font-size="12" fill="#cccccc">월</text><rect x="28" y="58" width="158" height="22" rx="3" fill="#30a14e"><title>월: 7445.8점</title></rect><text x="191" y="74" font-size="10" fill="#cccccc">7445.8</text><text x="24" y="102" text-anchor="end" font-size="12" fill="#cccccc">화</text><rect x="28" y="86" width="280" height="22" rx="3" fill="#216e39"><title>화: 13135.3점</title></rect><text x="313" y="102" font-size="10" fill="#cccccc">13135.3</text><text x="24" y="130" text-anchor="end" font-size="12" fill="#cccccc">수</text><rect x="28" y="114" width="229" height="22" rx="3" fill="#216e39"><title>수: 10765.5점</title></rect><text x="262" y="130" font-size="10" fill="#cccccc">10765.5</text><text x="24" y="158" text-anchor="end" font-size="12" fill="#cccccc">목</text><rect x="28" y="142" width="213" height="22" rx="3" fill="#216e39"><title>목: 10012.5점</title></rect><text x="246" y="158" font-size="10" fill="#cccccc">10012.5</text><text x="24" y="186" text-anchor="end" font-size="12" fill="#cccccc">금</text><rect x="28" y="170" width="195" height="22" rx="3" fill="#30a14e"><title>금: 9180.5점</title></rect><text x="228" y="186" font-size="10" fill="#cccccc">9180.5</text><text x="24" y="214" text-anchor="end" font-size="12" fill="#cccccc">토</text><rect x="28" y="198" width="241" height="22" rx="3" fill="#216e39"><title>토: 11327.5점</title></rect><text x="274" y="214" font-size="10" fill="#cccccc">11327.5</text>
<text x="28" y="254" font-size="9" fill="#999999">기준: 2026-06-08 11:21</text>
</svg>