<svg xmlns="http://www.w3.org/2000/svg" width="363" height="260">
<text x="181" y="18" text-anchor="middle" font-size="13" font-weight="bold" fill="#111111">최근 1달 요일별 활동</text>
<text x="24" y="46" text-anchor="end" font-size="12" fill="#333333">일</text><rect x="28" y="30" width="264" height="22" rx="3" fill="#216e39"><title>일: 36087.6점</title></rect><text x="297" y="46" font-size="10" fill="#333333">36087.6</text><text x="24" y="74" text-anchor="end" font-size="12" fill="#333333">월</text><rect x="28" y="58" width="180" height="22" rx="3" fill="#30a14e"><title>월: 24564.1점</title></rect><text x="213" y="74" font-size="10" fill="#333333">24564.1</text><text x="24" y="102" text-anchor="end" font-size="12" fill="#333333">화</text><rect x="28" y="86" width="263" height="22" rx="3" fill="#216e39"><title>화: 35926.0점</title></rect><text x="296" y="102" font-size="10" fill="#333333">35926.0</text><text x="24" y="130" text-anchor="end" font-size="12" fill="#333333">수</text><rect x="28" y="114" width="205" height="22" rx="3" fill="#30a14e"><title>수: 27960.0점</title></rect><text x="238" y="130" font-size="10" fill="#333333">27960.0</text><text x="24" y="158" text-anchor="end" font-size="12" fill="#333333">목</text><rect x="28" y="142" width="130" height="22" rx="3" fill="#40c463"><title>목: 17772.9점</title></rect><text x="163" y="158" font-size="10" fill="#333333">17772.9</text><text x="24" y="186" text-anchor="end" font-size="12" fill="#333333">금</text><rect x="28" y="170" width="198" height="22" rx="3" fill="#30a14e"><title>금: 27105.2점</title></rect><text x="231" y="186" font-size="10" fill="#333333">27105.2</text><text x="24" y="214" text-anchor="end" font-size="12" fill="#333333">토</text><rect x="28" y="198" width="280" height="22" rx="3" fill="#216e39"><title>토: 38180.3점</title></rect><text x="313" y="214" font-size="10" fill="#333333">38180.3</text>
<text x="28" y="254" font-size="9" fill="#666666">기준: 2026-06-27 22:18</text>
</svg>