<svg xmlns="http://www.w3.org/2000/svg" width="363" height="260">
<text x="181" y="18" text-anchor="middle" font-size="13" font-weight="bold" fill="#111111">최근 2주 요일별 활동</text>
<text x="24" y="46" text-anchor="end" font-size="12" fill="#333333">일</text><rect x="28" y="30" width="58" height="22" rx="3" fill="#9be9a8"><title>일: 6332.0점</title></rect><text x="91" y="46" font-size="10" fill="#333333">6332.0</text><text x="24" y="74" text-anchor="end" font-size="12" fill="#333333">월</text><rect x="28" y="58" width="54" height="22" rx="3" fill="#9be9a8"><title>월: 5841.2점</title></rect><text x="87" y="74" font-size="10" fill="#333333">5841.2</text><text x="24" y="102" text-anchor="end" font-size="12" fill="#333333">화</text><rect x="28" y="86" width="44" height="22" rx="3" fill="#9be9a8"><title>화: 4811.8점</title></rect><text x="77" y="102" font-size="10" fill="#333333">4811.8</text><text x="24" y="130" text-anchor="end" font-size="12" fill="#333333">수</text><rect x="28" y="114" width="280" height="22" rx="3" fill="#216e39"><title>수: 30266.3점</title></rect><text x="313" y="130" font-size="10" fill="#333333">30266.3</text><text x="24" y="158" text-anchor="end" font-size="12" fill="#333333">목</text><rect x="28" y="142" width="114" height="22" rx="3" fill="#40c463"><title>목: 12327.6점</title></rect><text x="147" y="158" font-size="10" fill="#333333">12327.6</text><text x="24" y="186" text-anchor="end" font-size="12" fill="#333333">금</text><rect x="28" y="170" width="97" height="22" rx="3" fill="#40c463"><title>금: 10586.6점</title></rect><text x="130" y="186" font-size="10" fill="#333333">10586.6</text><text x="24" y="214" text-anchor="end" font-size="12" fill="#333333">토</text><rect x="28" y="198" width="67" height="22" rx="3" fill="#9be9a8"><title>토: 7279.8점</title></rect><text x="100" y="214" font-size="10" fill="#333333">7279.8</text>
<text x="28" y="254" font-size="9" fill="#666666">기준: 2026-07-07 20:17</text>
</svg>