<svg xmlns="http://www.w3.org/2000/svg" width="363" height="260">
<text x="181" y="18" text-anchor="middle" font-size="13" font-weight="bold" fill="#e0e0e0">최근 1달 요일별 활동</text>
<text x="24" y="46" text-anchor="end" font-size="12" fill="#cccccc">일</text><rect x="28" y="30" width="255" height="22" rx="3" fill="#216e39"><title>일: 53376.4점</title></rect><text x="288" y="46" font-size="10" fill="#cccccc">53376.4</text><text x="24" y="74" text-anchor="end" font-size="12" fill="#cccccc">월</text><rect x="28" y="58" width="195" height="22" rx="3" fill="#30a14e"><title>월: 40726.3점</title></rect><text x="228" y="74" font-size="10" fill="#cccccc">40726.3</text><text x="24" y="102" text-anchor="end" font-size="12" fill="#cccccc">화</text><rect x="28" y="86" width="280" height="22" rx="3" fill="#216e39"><title>화: 58403.9점</title></rect><text x="313" y="102" font-size="10" fill="#cccccc">58403.9</text><text x="24" y="130" text-anchor="end" font-size="12" fill="#cccccc">수</text><rect x="28" y="114" width="237" height="22" rx="3" fill="#216e39"><title>수: 49613.5점</title></rect><text x="270" y="130" font-size="10" fill="#cccccc">49613.5</text><text x="24" y="158" text-anchor="end" font-size="12" fill="#cccccc">목</text><rect x="28" y="142" width="114" height="22" rx="3" fill="#40c463"><title>목: 23891.2점</title></rect><text x="147" y="158" font-size="10" fill="#cccccc">23891.2</text><text x="24" y="186" text-anchor="end" font-size="12" fill="#cccccc">금</text><rect x="28" y="170" width="125" height="22" rx="3" fill="#40c463"><title>금: 26084.3점</title></rect><text x="158" y="186" font-size="10" fill="#cccccc">26084.3</text><text x="24" y="214" text-anchor="end" font-size="12" fill="#cccccc">토</text><rect x="28" y="198" width="238" height="22" rx="3" fill="#216e39"><title>토: 49648.3점</title></rect><text x="271" y="214" font-size="10" fill="#cccccc">49648.3</text>
<text x="28" y="254" font-size="9" fill="#999999">기준: 2026-07-05 16:28</text>
</svg>