<svg xmlns="http://www.w3.org/2000/svg" width="363" height="260">
<text x="181" y="18" text-anchor="middle" font-size="13" font-weight="bold" fill="#111111">최근 1달 요일별 활동</text>
<text x="24" y="46" text-anchor="end" font-size="12" fill="#333333">일</text><rect x="28" y="30" width="237" height="22" rx="3" fill="#216e39"><title>일: 77644.8점</title></rect><text x="270" y="46" font-size="10" fill="#333333">77644.8</text><text x="24" y="74" text-anchor="end" font-size="12" fill="#333333">월</text><rect x="28" y="58" width="223" height="22" rx="3" fill="#216e39"><title>월: 73034.6점</title></rect><text x="256" y="74" font-size="10" fill="#333333">73034.6</text><text x="24" y="102" text-anchor="end" font-size="12" fill="#333333">화</text><rect x="28" y="86" width="229" height="22" rx="3" fill="#216e39"><title>화: 74914.2점</title></rect><text x="262" y="102" font-size="10" fill="#333333">74914.2</text><text x="24" y="130" text-anchor="end" font-size="12" fill="#333333">수</text><rect x="28" y="114" width="280" height="22" rx="3" fill="#216e39"><title>수: 91524.2점</title></rect><text x="313" y="130" font-size="10" fill="#333333">91524.2</text><text x="24" y="158" text-anchor="end" font-size="12" fill="#333333">목</text><rect x="28" y="142" width="138" height="22" rx="3" fill="#40c463"><title>목: 45224.0점</title></rect><text x="171" y="158" font-size="10" fill="#333333">45224.0</text><text x="24" y="186" text-anchor="end" font-size="12" fill="#333333">금</text><rect x="28" y="170" width="160" height="22" rx="3" fill="#30a14e"><title>금: 52396.3점</title></rect><text x="193" y="186" font-size="10" fill="#333333">52396.3</text><text x="24" y="214" text-anchor="end" font-size="12" fill="#333333">토</text><rect x="28" y="198" width="176" height="22" rx="3" fill="#30a14e"><title>토: 57776.3점</title></rect><text x="209" y="214" font-size="10" fill="#333333">57776.3</text>
<text x="28" y="254" font-size="9" fill="#666666">기준: 2026-07-16 19:35</text>
</svg>