<svg xmlns="http://www.w3.org/2000/svg" width="363" height="260">
<text x="181" y="18" text-anchor="middle" font-size="13" font-weight="bold" fill="#111111">최근 1달 요일별 활동</text>
<text x="24" y="46" text-anchor="end" font-size="12" fill="#333333">일</text><rect x="28" y="30" width="269" height="22" rx="3" fill="#216e39"><title>일: 10163.8점</title></rect><text x="302" y="46" font-size="10" fill="#333333">10163.8</text><text x="24" y="74" text-anchor="end" font-size="12" fill="#333333">월</text><rect x="28" y="58" width="148" height="22" rx="3" fill="#30a14e"><title>월: 5604.4점</title></rect><text x="181" y="74" font-size="10" fill="#333333">5604.4</text><text x="24" y="102" text-anchor="end" font-size="12" fill="#333333">화</text><rect x="28" y="86" width="280" height="22" rx="3" fill="#216e39"><title>화: 10549.9점</title></rect><text x="313" y="102" font-size="10" fill="#333333">10549.9</text><text x="24" y="130" text-anchor="end" font-size="12" fill="#333333">수</text><rect x="28" y="114" width="226" height="22" rx="3" fill="#216e39"><title>수: 8548.7점</title></rect><text x="259" y="130" font-size="10" fill="#333333">8548.7</text><text x="24" y="158" text-anchor="end" font-size="12" fill="#333333">목</text><rect x="28" y="142" width="203" height="22" rx="3" fill="#30a14e"><title>목: 7672.2점</title></rect><text x="236" y="158" font-size="10" fill="#333333">7672.2</text><text x="24" y="186" text-anchor="end" font-size="12" fill="#333333">금</text><rect x="28" y="170" width="178" height="22" rx="3" fill="#30a14e"><title>금: 6724.0점</title></rect><text x="211" y="186" font-size="10" fill="#333333">6724.0</text><text x="24" y="214" text-anchor="end" font-size="12" fill="#333333">토</text><rect x="28" y="198" width="165" height="22" rx="3" fill="#30a14e"><title>토: 6225.0점</title></rect><text x="198" y="214" font-size="10" fill="#333333">6225.0</text>
<text x="28" y="254" font-size="9" fill="#666666">기준: 2026-06-01 18:17</text>
</svg>