<svg xmlns="http://www.w3.org/2000/svg" width="363" height="260">
<text x="181" y="18" text-anchor="middle" font-size="13" font-weight="bold" fill="#e0e0e0">최근 1주 요일별 활동</text>
<text x="24" y="46" text-anchor="end" font-size="12" fill="#cccccc">일</text><rect x="28" y="30" width="137" height="22" rx="3" fill="#40c463"><title>일: 2406.5점</title></rect><text x="170" y="46" font-size="10" fill="#cccccc">2406.5</text><text x="24" y="74" text-anchor="end" font-size="12" fill="#cccccc">월</text><rect x="28" y="58" width="119" height="22" rx="3" fill="#40c463"><title>월: 2093.9점</title></rect><text x="152" y="74" font-size="10" fill="#cccccc">2093.9</text><text x="24" y="102" text-anchor="end" font-size="12" fill="#cccccc">화</text><rect x="28" y="86" width="81" height="22" rx="3" fill="#40c463"><title>화: 1435.0점</title></rect><text x="114" y="102" font-size="10" fill="#cccccc">1435.0</text><text x="24" y="130" text-anchor="end" font-size="12" fill="#cccccc">수</text><rect x="28" y="114" width="29" height="22" rx="3" fill="#9be9a8"><title>수: 524.4점</title></rect><text x="62" y="130" font-size="10" fill="#cccccc">524.4</text><text x="24" y="158" text-anchor="end" font-size="12" fill="#cccccc">목</text><rect x="28" y="142" width="4" height="22" rx="3" fill="#9be9a8"><title>목: 81.7점</title></rect><text x="37" y="158" font-size="10" fill="#cccccc">81.7</text><text x="24" y="186" text-anchor="end" font-size="12" fill="#cccccc">금</text><rect x="28" y="170" width="280" height="22" rx="3" fill="#216e39"><title>금: 4916.6점</title></rect><text x="313" y="186" font-size="10" fill="#cccccc">4916.6</text><text x="24" y="214" text-anchor="end" font-size="12" fill="#cccccc">토</text><rect x="28" y="198" width="142" height="22" rx="3" fill="#30a14e"><title>토: 2494.1점</title></rect><text x="175" y="214" font-size="10" fill="#cccccc">2494.1</text>
<text x="28" y="254" font-size="9" fill="#999999">기준: 2026-07-02 17:01</text>
</svg>