<svg xmlns="http://www.w3.org/2000/svg" width="363" height="260">
<text x="181" y="18" text-anchor="middle" font-size="13" font-weight="bold" fill="#111111">최근 1주 요일별 활동</text>
<text x="24" y="46" text-anchor="end" font-size="12" fill="#333333">일</text><rect x="28" y="30" width="129" height="22" rx="3" fill="#40c463"><title>일: 730.4점</title></rect><text x="162" y="46" font-size="10" fill="#333333">730.4</text><text x="24" y="74" text-anchor="end" font-size="12" fill="#333333">월</text><rect x="28" y="58" width="47" height="22" rx="3" fill="#9be9a8"><title>월: 269.5점</title></rect><text x="80" y="74" font-size="10" fill="#333333">269.5</text><text x="24" y="102" text-anchor="end" font-size="12" fill="#333333">화</text><rect x="28" y="86" width="280" height="22" rx="3" fill="#216e39"><title>화: 1583.3점</title></rect><text x="313" y="102" font-size="10" fill="#333333">1583.3</text><text x="24" y="130" text-anchor="end" font-size="12" fill="#333333">수</text><rect x="28" y="114" width="196" height="22" rx="3" fill="#30a14e"><title>수: 1109.0점</title></rect><text x="229" y="130" font-size="10" fill="#333333">1109.0</text><text x="24" y="158" text-anchor="end" font-size="12" fill="#333333">목</text><rect x="28" y="142" width="136" height="22" rx="3" fill="#40c463"><title>목: 770.0점</title></rect><text x="169" y="158" font-size="10" fill="#333333">770.0</text><text x="24" y="186" text-anchor="end" font-size="12" fill="#333333">금</text><rect x="28" y="170" width="87" height="22" rx="3" fill="#40c463"><title>금: 495.0점</title></rect><text x="120" y="186" font-size="10" fill="#333333">495.0</text><text x="24" y="214" text-anchor="end" font-size="12" fill="#333333">토</text><rect x="28" y="198" width="40" height="22" rx="3" fill="#9be9a8"><title>토: 231.0점</title></rect><text x="73" y="214" font-size="10" fill="#333333">231.0</text>
<text x="28" y="254" font-size="9" fill="#666666">기준: 2026-05-23 22:10</text>
</svg>