<svg xmlns="http://www.w3.org/2000/svg" width="363" height="260">
<text x="181" y="18" text-anchor="middle" font-size="13" font-weight="bold" fill="#e0e0e0">최근 1달 요일별 활동</text>
<text x="24" y="46" text-anchor="end" font-size="12" fill="#cccccc">일</text><rect x="28" y="30" width="271" height="22" rx="3" fill="#216e39"><title>일: 10347.9점</title></rect><text x="304" y="46" font-size="10" fill="#cccccc">10347.9</text><text x="24" y="74" text-anchor="end" font-size="12" fill="#cccccc">월</text><rect x="28" y="58" width="149" height="22" rx="3" fill="#30a14e"><title>월: 5704.4점</title></rect><text x="182" y="74" font-size="10" fill="#cccccc">5704.4</text><text x="24" y="102" text-anchor="end" font-size="12" fill="#cccccc">화</text><rect x="28" y="86" width="280" height="22" rx="3" fill="#216e39"><title>화: 10673.1점</title></rect><text x="313" y="102" font-size="10" fill="#cccccc">10673.1</text><text x="24" y="130" text-anchor="end" font-size="12" fill="#cccccc">수</text><rect x="28" y="114" width="227" height="22" rx="3" fill="#216e39"><title>수: 8683.5점</title></rect><text x="260" y="130" font-size="10" fill="#cccccc">8683.5</text><text x="24" y="158" text-anchor="end" font-size="12" fill="#cccccc">목</text><rect x="28" y="142" width="204" height="22" rx="3" fill="#30a14e"><title>목: 7782.2점</title></rect><text x="237" y="158" font-size="10" fill="#cccccc">7782.2</text><text x="24" y="186" text-anchor="end" font-size="12" fill="#cccccc">금</text><rect x="28" y="170" width="179" height="22" rx="3" fill="#30a14e"><title>금: 6834.0점</title></rect><text x="212" y="186" font-size="10" fill="#cccccc">6834.0</text><text x="24" y="214" text-anchor="end" font-size="12" fill="#cccccc">토</text><rect x="28" y="198" width="167" height="22" rx="3" fill="#30a14e"><title>토: 6379.0점</title></rect><text x="200" y="214" font-size="10" fill="#cccccc">6379.0</text>
<text x="28" y="254" font-size="9" fill="#999999">기준: 2026-06-01 23:11</text>
</svg>