<svg xmlns="http://www.w3.org/2000/svg" width="363" height="260">
<text x="181" y="18" text-anchor="middle" font-size="13" font-weight="bold" fill="#111111">최근 1달 요일별 활동</text>
<text x="24" y="46" text-anchor="end" font-size="12" fill="#333333">일</text><rect x="28" y="30" width="272" height="22" rx="3" fill="#216e39"><title>일: 12470.4점</title></rect><text x="305" y="46" font-size="10" fill="#333333">12470.4</text><text x="24" y="74" text-anchor="end" font-size="12" fill="#333333">월</text><rect x="28" y="58" width="157" height="22" rx="3" fill="#30a14e"><title>월: 7212.7점</title></rect><text x="190" y="74" font-size="10" fill="#333333">7212.7</text><text x="24" y="102" text-anchor="end" font-size="12" fill="#333333">화</text><rect x="28" y="86" width="280" height="22" rx="3" fill="#216e39"><title>화: 12797.0점</title></rect><text x="313" y="102" font-size="10" fill="#333333">12797.0</text><text x="24" y="130" text-anchor="end" font-size="12" fill="#333333">수</text><rect x="28" y="114" width="228" height="22" rx="3" fill="#216e39"><title>수: 10451.1점</title></rect><text x="261" y="130" font-size="10" fill="#333333">10451.1</text><text x="24" y="158" text-anchor="end" font-size="12" fill="#333333">목</text><rect x="28" y="142" width="211" height="22" rx="3" fill="#216e39"><title>목: 9682.5점</title></rect><text x="244" y="158" font-size="10" fill="#333333">9682.5</text><text x="24" y="186" text-anchor="end" font-size="12" fill="#333333">금</text><rect x="28" y="170" width="193" height="22" rx="3" fill="#30a14e"><title>금: 8850.5점</title></rect><text x="226" y="186" font-size="10" fill="#333333">8850.5</text><text x="24" y="214" text-anchor="end" font-size="12" fill="#333333">토</text><rect x="28" y="198" width="259" height="22" rx="3" fill="#216e39"><title>토: 11846.0점</title></rect><text x="292" y="214" font-size="10" fill="#333333">11846.0</text>
<text x="28" y="254" font-size="9" fill="#666666">기준: 2026-06-07 22:31</text>
</svg>