<svg xmlns="http://www.w3.org/2000/svg" width="363" height="260">
<text x="181" y="18" text-anchor="middle" font-size="13" font-weight="bold" fill="#111111">최근 1달 요일별 활동</text>
<text x="24" y="46" text-anchor="end" font-size="12" fill="#333333">일</text><rect x="28" y="30" width="213" height="22" rx="3" fill="#216e39"><title>일: 21248.7점</title></rect><text x="246" y="46" font-size="10" fill="#333333">21248.7</text><text x="24" y="74" text-anchor="end" font-size="12" fill="#333333">월</text><rect x="28" y="58" width="133" height="22" rx="3" fill="#40c463"><title>월: 13325.6점</title></rect><text x="166" y="74" font-size="10" fill="#333333">13325.6</text><text x="24" y="102" text-anchor="end" font-size="12" fill="#333333">화</text><rect x="28" y="86" width="280" height="22" rx="3" fill="#216e39"><title>화: 27906.7점</title></rect><text x="313" y="102" font-size="10" fill="#333333">27906.7</text><text x="24" y="130" text-anchor="end" font-size="12" fill="#333333">수</text><rect x="28" y="114" width="217" height="22" rx="3" fill="#216e39"><title>수: 21709.2점</title></rect><text x="250" y="130" font-size="10" fill="#333333">21709.2</text><text x="24" y="158" text-anchor="end" font-size="12" fill="#333333">목</text><rect x="28" y="142" width="191" height="22" rx="3" fill="#30a14e"><title>목: 19085.0점</title></rect><text x="224" y="158" font-size="10" fill="#333333">19085.0</text><text x="24" y="186" text-anchor="end" font-size="12" fill="#333333">금</text><rect x="28" y="170" width="180" height="22" rx="3" fill="#30a14e"><title>금: 17985.0점</title></rect><text x="213" y="186" font-size="10" fill="#333333">17985.0</text><text x="24" y="214" text-anchor="end" font-size="12" fill="#333333">토</text><rect x="28" y="198" width="244" height="22" rx="3" fill="#216e39"><title>토: 24414.1점</title></rect><text x="277" y="214" font-size="10" fill="#333333">24414.1</text>
<text x="28" y="254" font-size="9" fill="#666666">기준: 2026-06-17 20:31</text>
</svg>