<svg xmlns="http://www.w3.org/2000/svg" width="363" height="260">
<text x="181" y="18" text-anchor="middle" font-size="13" font-weight="bold" fill="#e0e0e0">최근 1주 요일별 활동</text>
<text x="24" y="46" text-anchor="end" font-size="12" fill="#cccccc">일</text><rect x="28" y="30" width="280" height="22" rx="3" fill="#216e39"><title>일: 5138.5점</title></rect><text x="313" y="46" font-size="10" fill="#cccccc">5138.5</text><text x="24" y="74" text-anchor="end" font-size="12" fill="#cccccc">월</text><rect x="28" y="58" width="172" height="22" rx="3" fill="#30a14e"><title>월: 3168.4점</title></rect><text x="205" y="74" font-size="10" fill="#cccccc">3168.4</text><text x="24" y="102" text-anchor="end" font-size="12" fill="#cccccc">화</text><rect x="28" y="86" width="125" height="22" rx="3" fill="#40c463"><title>화: 2306.1점</title></rect><text x="158" y="102" font-size="10" fill="#cccccc">2306.1</text><text x="24" y="130" text-anchor="end" font-size="12" fill="#cccccc">수</text><rect x="28" y="114" width="37" height="22" rx="3" fill="#9be9a8"><title>수: 690.4점</title></rect><text x="70" y="130" font-size="10" fill="#cccccc">690.4</text><text x="24" y="158" text-anchor="end" font-size="12" fill="#cccccc">목</text><rect x="28" y="142" width="112" height="22" rx="3" fill="#40c463"><title>목: 2064.1점</title></rect><text x="145" y="158" font-size="10" fill="#cccccc">2064.1</text><text x="24" y="186" text-anchor="end" font-size="12" fill="#cccccc">금</text><rect x="28" y="170" width="146" height="22" rx="3" fill="#30a14e"><title>금: 2682.1점</title></rect><text x="179" y="186" font-size="10" fill="#cccccc">2682.1</text><text x="24" y="214" text-anchor="end" font-size="12" fill="#cccccc">토</text><rect x="28" y="198" width="231" height="22" rx="3" fill="#216e39"><title>토: 4242.4점</title></rect><text x="264" y="214" font-size="10" fill="#cccccc">4242.4</text>
<text x="28" y="254" font-size="9" fill="#999999">기준: 2026-06-24 17:20</text>
</svg>