<svg xmlns="http://www.w3.org/2000/svg" width="363" height="260">
<text x="181" y="18" text-anchor="middle" font-size="13" font-weight="bold" fill="#e0e0e0">최근 1달 요일별 활동</text>
<text x="24" y="46" text-anchor="end" font-size="12" fill="#cccccc">일</text><rect x="28" y="30" width="266" height="22" rx="3" fill="#216e39"><title>일: 38429.1점</title></rect><text x="299" y="46" font-size="10" fill="#cccccc">38429.1</text><text x="24" y="74" text-anchor="end" font-size="12" fill="#cccccc">월</text><rect x="28" y="58" width="182" height="22" rx="3" fill="#30a14e"><title>월: 26336.9점</title></rect><text x="215" y="74" font-size="10" fill="#cccccc">26336.9</text><text x="24" y="102" text-anchor="end" font-size="12" fill="#cccccc">화</text><rect x="28" y="86" width="265" height="22" rx="3" fill="#216e39"><title>화: 38311.8점</title></rect><text x="298" y="102" font-size="10" fill="#cccccc">38311.8</text><text x="24" y="130" text-anchor="end" font-size="12" fill="#cccccc">수</text><rect x="28" y="114" width="210" height="22" rx="3" fill="#216e39"><title>수: 30342.2점</title></rect><text x="243" y="130" font-size="10" fill="#cccccc">30342.2</text><text x="24" y="158" text-anchor="end" font-size="12" fill="#cccccc">목</text><rect x="28" y="142" width="132" height="22" rx="3" fill="#40c463"><title>목: 19089.7점</title></rect><text x="165" y="158" font-size="10" fill="#cccccc">19089.7</text><text x="24" y="186" text-anchor="end" font-size="12" fill="#cccccc">금</text><rect x="28" y="170" width="132" height="22" rx="3" fill="#40c463"><title>금: 19144.5점</title></rect><text x="165" y="186" font-size="10" fill="#cccccc">19144.5</text><text x="24" y="214" text-anchor="end" font-size="12" fill="#cccccc">토</text><rect x="28" y="198" width="280" height="22" rx="3" fill="#216e39"><title>토: 40401.7점</title></rect><text x="313" y="214" font-size="10" fill="#cccccc">40401.7</text>
<text x="28" y="254" font-size="9" fill="#999999">기준: 2026-06-28 16:37</text>
</svg>