<svg xmlns="http://www.w3.org/2000/svg" width="363" height="260">
<text x="181" y="18" text-anchor="middle" font-size="13" font-weight="bold" fill="#e0e0e0">최근 2주 요일별 활동</text>
<text x="24" y="46" text-anchor="end" font-size="12" fill="#cccccc">일</text><rect x="28" y="30" width="56" height="22" rx="3" fill="#9be9a8"><title>일: 5963.5점</title></rect><text x="89" y="46" font-size="10" fill="#cccccc">5963.5</text><text x="24" y="74" text-anchor="end" font-size="12" fill="#cccccc">월</text><rect x="28" y="58" width="52" height="22" rx="3" fill="#9be9a8"><title>월: 5496.9점</title></rect><text x="85" y="74" font-size="10" fill="#cccccc">5496.9</text><text x="24" y="102" text-anchor="end" font-size="12" fill="#cccccc">화</text><rect x="28" y="86" width="42" height="22" rx="3" fill="#9be9a8"><title>화: 4498.0점</title></rect><text x="75" y="102" font-size="10" fill="#cccccc">4498.0</text><text x="24" y="130" text-anchor="end" font-size="12" fill="#cccccc">수</text><rect x="28" y="114" width="280" height="22" rx="3" fill="#216e39"><title>수: 29416.7점</title></rect><text x="313" y="130" font-size="10" fill="#cccccc">29416.7</text><text x="24" y="158" text-anchor="end" font-size="12" fill="#cccccc">목</text><rect x="28" y="142" width="113" height="22" rx="3" fill="#40c463"><title>목: 11906.1점</title></rect><text x="146" y="158" font-size="10" fill="#cccccc">11906.1</text><text x="24" y="186" text-anchor="end" font-size="12" fill="#cccccc">금</text><rect x="28" y="170" width="96" height="22" rx="3" fill="#40c463"><title>금: 10184.4점</title></rect><text x="129" y="186" font-size="10" fill="#cccccc">10184.4</text><text x="24" y="214" text-anchor="end" font-size="12" fill="#cccccc">토</text><rect x="28" y="198" width="65" height="22" rx="3" fill="#9be9a8"><title>토: 6865.2점</title></rect><text x="98" y="214" font-size="10" fill="#cccccc">6865.2</text>
<text x="28" y="254" font-size="9" fill="#999999">기준: 2026-07-07 10:02</text>
</svg>