<svg xmlns="http://www.w3.org/2000/svg" width="363" height="260">
<text x="181" y="18" text-anchor="middle" font-size="13" font-weight="bold" fill="#111111">최근 2주 요일별 활동</text>
<text x="24" y="46" text-anchor="end" font-size="12" fill="#333333">일</text><rect x="28" y="30" width="225" height="22" rx="3" fill="#216e39"><title>일: 3523.8점</title></rect><text x="258" y="46" font-size="10" fill="#333333">3523.8</text><text x="24" y="74" text-anchor="end" font-size="12" fill="#333333">월</text><rect x="28" y="58" width="106" height="22" rx="3" fill="#40c463"><title>월: 1668.9점</title></rect><text x="139" y="74" font-size="10" fill="#333333">1668.9</text><text x="24" y="102" text-anchor="end" font-size="12" fill="#333333">화</text><rect x="28" y="86" width="280" height="22" rx="3" fill="#216e39"><title>화: 4370.9점</title></rect><text x="313" y="102" font-size="10" fill="#333333">4370.9</text><text x="24" y="130" text-anchor="end" font-size="12" fill="#333333">수</text><rect x="28" y="114" width="218" height="22" rx="3" fill="#216e39"><title>수: 3405.0점</title></rect><text x="251" y="130" font-size="10" fill="#333333">3405.0</text><text x="24" y="158" text-anchor="end" font-size="12" fill="#333333">목</text><rect x="28" y="142" width="172" height="22" rx="3" fill="#30a14e"><title>목: 2695.0점</title></rect><text x="205" y="158" font-size="10" fill="#333333">2695.0</text><text x="24" y="186" text-anchor="end" font-size="12" fill="#333333">금</text><rect x="28" y="170" width="139" height="22" rx="3" fill="#40c463"><title>금: 2178.0점</title></rect><text x="172" y="186" font-size="10" fill="#333333">2178.0</text><text x="24" y="214" text-anchor="end" font-size="12" fill="#333333">토</text><rect x="28" y="198" width="187" height="22" rx="3" fill="#30a14e"><title>토: 2934.5점</title></rect><text x="220" y="214" font-size="10" fill="#333333">2934.5</text>
<text x="28" y="254" font-size="9" fill="#666666">기준: 2026-05-29 16:10</text>
</svg>