<svg xmlns="http://www.w3.org/2000/svg" width="363" height="260">
<text x="181" y="18" text-anchor="middle" font-size="13" font-weight="bold" fill="#e0e0e0">최근 2주 요일별 활동</text>
<text x="24" y="46" text-anchor="end" font-size="12" fill="#cccccc">일</text><rect x="28" y="30" width="280" height="22" rx="3" fill="#216e39"><title>일: 21245.4점</title></rect><text x="313" y="46" font-size="10" fill="#cccccc">21245.4</text><text x="24" y="74" text-anchor="end" font-size="12" fill="#cccccc">월</text><rect x="28" y="58" width="226" height="22" rx="3" fill="#216e39"><title>월: 17189.3점</title></rect><text x="259" y="74" font-size="10" fill="#cccccc">17189.3</text><text x="24" y="102" text-anchor="end" font-size="12" fill="#cccccc">화</text><rect x="28" y="86" width="227" height="22" rx="3" fill="#216e39"><title>화: 17278.5점</title></rect><text x="260" y="102" font-size="10" fill="#cccccc">17278.5</text><text x="24" y="130" text-anchor="end" font-size="12" fill="#cccccc">수</text><rect x="28" y="114" width="214" height="22" rx="3" fill="#216e39"><title>수: 16247.9점</title></rect><text x="247" y="130" font-size="10" fill="#cccccc">16247.9</text><text x="24" y="158" text-anchor="end" font-size="12" fill="#cccccc">목</text><rect x="28" y="142" width="72" height="22" rx="3" fill="#40c463"><title>목: 5538.8점</title></rect><text x="105" y="158" font-size="10" fill="#cccccc">5538.8</text><text x="24" y="186" text-anchor="end" font-size="12" fill="#cccccc">금</text><rect x="28" y="170" width="154" height="22" rx="3" fill="#30a14e"><title>금: 11714.0점</title></rect><text x="187" y="186" font-size="10" fill="#cccccc">11714.0</text><text x="24" y="214" text-anchor="end" font-size="12" fill="#cccccc">토</text><rect x="28" y="198" width="199" height="22" rx="3" fill="#30a14e"><title>토: 15108.4점</title></rect><text x="232" y="214" font-size="10" fill="#cccccc">15108.4</text>
<text x="28" y="254" font-size="9" fill="#999999">기준: 2026-07-02 04:32</text>
</svg>