<svg xmlns="http://www.w3.org/2000/svg" width="363" height="260">
<text x="181" y="18" text-anchor="middle" font-size="13" font-weight="bold" fill="#e0e0e0">최근 2주 요일별 활동</text>
<text x="24" y="46" text-anchor="end" font-size="12" fill="#cccccc">일</text><rect x="28" y="30" width="229" height="22" rx="3" fill="#216e39"><title>일: 5375.5점</title></rect><text x="262" y="46" font-size="10" fill="#cccccc">5375.5</text><text x="24" y="74" text-anchor="end" font-size="12" fill="#cccccc">월</text><rect x="28" y="58" width="126" height="22" rx="3" fill="#40c463"><title>월: 2950.9점</title></rect><text x="159" y="74" font-size="10" fill="#cccccc">2950.9</text><text x="24" y="102" text-anchor="end" font-size="12" fill="#cccccc">화</text><rect x="28" y="86" width="158" height="22" rx="3" fill="#30a14e"><title>화: 3698.5점</title></rect><text x="191" y="102" font-size="10" fill="#cccccc">3698.5</text><text x="24" y="130" text-anchor="end" font-size="12" fill="#cccccc">수</text><rect x="28" y="114" width="91" height="22" rx="3" fill="#40c463"><title>수: 2143.5점</title></rect><text x="124" y="130" font-size="10" fill="#cccccc">2143.5</text><text x="24" y="158" text-anchor="end" font-size="12" fill="#cccccc">목</text><rect x="28" y="142" width="84" height="22" rx="3" fill="#40c463"><title>목: 1980.0점</title></rect><text x="117" y="158" font-size="10" fill="#cccccc">1980.0</text><text x="24" y="186" text-anchor="end" font-size="12" fill="#cccccc">금</text><rect x="28" y="170" width="228" height="22" rx="3" fill="#216e39"><title>금: 5335.0점</title></rect><text x="261" y="186" font-size="10" fill="#cccccc">5335.0</text><text x="24" y="214" text-anchor="end" font-size="12" fill="#cccccc">토</text><rect x="28" y="198" width="280" height="22" rx="3" fill="#216e39"><title>토: 6545.0점</title></rect><text x="313" y="214" font-size="10" fill="#cccccc">6545.0</text>
<text x="28" y="254" font-size="9" fill="#999999">기준: 2026-06-11 05:00</text>
</svg>