<svg xmlns="http://www.w3.org/2000/svg" width="363" height="260">
<text x="181" y="18" text-anchor="middle" font-size="13" font-weight="bold" fill="#e0e0e0">최근 1달 요일별 활동</text>
<text x="24" y="46" text-anchor="end" font-size="12" fill="#cccccc">일</text><rect x="28" y="30" width="217" height="22" rx="3" fill="#216e39"><title>일: 26166.0점</title></rect><text x="250" y="46" font-size="10" fill="#cccccc">26166.0</text><text x="24" y="74" text-anchor="end" font-size="12" fill="#cccccc">월</text><rect x="28" y="58" width="137" height="22" rx="3" fill="#40c463"><title>월: 16586.5점</title></rect><text x="170" y="74" font-size="10" fill="#cccccc">16586.5</text><text x="24" y="102" text-anchor="end" font-size="12" fill="#cccccc">화</text><rect x="28" y="86" width="280" height="22" rx="3" fill="#216e39"><title>화: 33754.1점</title></rect><text x="313" y="102" font-size="10" fill="#cccccc">33754.1</text><text x="24" y="130" text-anchor="end" font-size="12" fill="#cccccc">수</text><rect x="28" y="114" width="212" height="22" rx="3" fill="#216e39"><title>수: 25627.9점</title></rect><text x="245" y="130" font-size="10" fill="#cccccc">25627.9</text><text x="24" y="158" text-anchor="end" font-size="12" fill="#cccccc">목</text><rect x="28" y="142" width="167" height="22" rx="3" fill="#30a14e"><title>목: 20133.5점</title></rect><text x="200" y="158" font-size="10" fill="#cccccc">20133.5</text><text x="24" y="186" text-anchor="end" font-size="12" fill="#cccccc">금</text><rect x="28" y="170" width="169" height="22" rx="3" fill="#30a14e"><title>금: 20397.1점</title></rect><text x="202" y="186" font-size="10" fill="#cccccc">20397.1</text><text x="24" y="214" text-anchor="end" font-size="12" fill="#cccccc">토</text><rect x="28" y="198" width="243" height="22" rx="3" fill="#216e39"><title>토: 29405.7점</title></rect><text x="276" y="214" font-size="10" fill="#cccccc">29405.7</text>
<text x="28" y="254" font-size="9" fill="#999999">기준: 2026-06-24 22:40</text>
</svg>