<svg xmlns="http://www.w3.org/2000/svg" width="363" height="260">
<text x="181" y="18" text-anchor="middle" font-size="13" font-weight="bold" fill="#e0e0e0">최근 2주 요일별 활동</text>
<text x="24" y="46" text-anchor="end" font-size="12" fill="#cccccc">일</text><rect x="28" y="30" width="280" height="22" rx="3" fill="#216e39"><title>일: 16051.0점</title></rect><text x="313" y="46" font-size="10" fill="#cccccc">16051.0</text><text x="24" y="74" text-anchor="end" font-size="12" fill="#cccccc">월</text><rect x="28" y="58" width="214" height="22" rx="3" fill="#216e39"><title>월: 12274.9점</title></rect><text x="247" y="74" font-size="10" fill="#cccccc">12274.9</text><text x="24" y="102" text-anchor="end" font-size="12" fill="#cccccc">화</text><rect x="28" y="86" width="192" height="22" rx="3" fill="#30a14e"><title>화: 11045.7점</title></rect><text x="225" y="102" font-size="10" fill="#cccccc">11045.7</text><text x="24" y="130" text-anchor="end" font-size="12" fill="#cccccc">수</text><rect x="28" y="114" width="191" height="22" rx="3" fill="#30a14e"><title>수: 10967.5점</title></rect><text x="224" y="130" font-size="10" fill="#cccccc">10967.5</text><text x="24" y="158" text-anchor="end" font-size="12" fill="#cccccc">목</text><rect x="28" y="142" width="94" height="22" rx="3" fill="#40c463"><title>목: 5411.6점</title></rect><text x="127" y="158" font-size="10" fill="#cccccc">5411.6</text><text x="24" y="186" text-anchor="end" font-size="12" fill="#cccccc">금</text><rect x="28" y="170" width="100" height="22" rx="3" fill="#40c463"><title>금: 5787.4점</title></rect><text x="133" y="186" font-size="10" fill="#cccccc">5787.4</text><text x="24" y="214" text-anchor="end" font-size="12" fill="#cccccc">토</text><rect x="28" y="198" width="142" height="22" rx="3" fill="#30a14e"><title>토: 8157.4점</title></rect><text x="175" y="214" font-size="10" fill="#cccccc">8157.4</text>
<text x="28" y="254" font-size="9" fill="#999999">기준: 2026-06-27 19:47</text>
</svg>