<svg xmlns="http://www.w3.org/2000/svg" width="363" height="260">
<text x="181" y="18" text-anchor="middle" font-size="13" font-weight="bold" fill="#111111">최근 2주 요일별 활동</text>
<text x="24" y="46" text-anchor="end" font-size="12" fill="#333333">일</text><rect x="28" y="30" width="71" height="22" rx="3" fill="#40c463"><title>일: 3397.3점</title></rect><text x="104" y="46" font-size="10" fill="#333333">3397.3</text><text x="24" y="74" text-anchor="end" font-size="12" fill="#333333">월</text><rect x="28" y="58" width="280" height="22" rx="3" fill="#216e39"><title>월: 13218.3점</title></rect><text x="313" y="74" font-size="10" fill="#333333">13218.3</text><text x="24" y="102" text-anchor="end" font-size="12" fill="#333333">화</text><rect x="28" y="86" width="269" height="22" rx="3" fill="#216e39"><title>화: 12719.0점</title></rect><text x="302" y="102" font-size="10" fill="#333333">12719.0</text><text x="24" y="130" text-anchor="end" font-size="12" fill="#333333">수</text><rect x="28" y="114" width="205" height="22" rx="3" fill="#30a14e"><title>수: 9719.1점</title></rect><text x="238" y="130" font-size="10" fill="#333333">9719.1</text><text x="24" y="158" text-anchor="end" font-size="12" fill="#333333">목</text><rect x="28" y="142" width="138" height="22" rx="3" fill="#40c463"><title>목: 6540.0점</title></rect><text x="171" y="158" font-size="10" fill="#333333">6540.0</text><text x="24" y="186" text-anchor="end" font-size="12" fill="#333333">금</text><rect x="28" y="170" width="126" height="22" rx="3" fill="#40c463"><title>금: 5957.6점</title></rect><text x="159" y="186" font-size="10" fill="#333333">5957.6</text><text x="24" y="214" text-anchor="end" font-size="12" fill="#333333">토</text><rect x="28" y="198" width="136" height="22" rx="3" fill="#40c463"><title>토: 6452.0점</title></rect><text x="169" y="214" font-size="10" fill="#333333">6452.0</text>
<text x="28" y="254" font-size="9" fill="#666666">기준: 2026-07-12 10:44</text>
</svg>