<svg xmlns="http://www.w3.org/2000/svg" width="363" height="260">
<text x="181" y="18" text-anchor="middle" font-size="13" font-weight="bold" fill="#111111">최근 2주 요일별 활동</text>
<text x="24" y="46" text-anchor="end" font-size="12" fill="#333333">일</text><rect x="28" y="30" width="231" height="22" rx="3" fill="#216e39"><title>일: 5535.8점</title></rect><text x="264" y="46" font-size="10" fill="#333333">5535.8</text><text x="24" y="74" text-anchor="end" font-size="12" fill="#333333">월</text><rect x="28" y="58" width="127" height="22" rx="3" fill="#40c463"><title>월: 3052.0점</title></rect><text x="160" y="74" font-size="10" fill="#333333">3052.0</text><text x="24" y="102" text-anchor="end" font-size="12" fill="#333333">화</text><rect x="28" y="86" width="164" height="22" rx="3" fill="#30a14e"><title>화: 3931.3점</title></rect><text x="197" y="102" font-size="10" fill="#333333">3931.3</text><text x="24" y="130" text-anchor="end" font-size="12" fill="#333333">수</text><rect x="28" y="114" width="95" height="22" rx="3" fill="#40c463"><title>수: 2291.6점</title></rect><text x="128" y="130" font-size="10" fill="#333333">2291.6</text><text x="24" y="158" text-anchor="end" font-size="12" fill="#333333">목</text><rect x="28" y="142" width="85" height="22" rx="3" fill="#40c463"><title>목: 2046.0점</title></rect><text x="118" y="158" font-size="10" fill="#333333">2046.0</text><text x="24" y="186" text-anchor="end" font-size="12" fill="#333333">금</text><rect x="28" y="170" width="227" height="22" rx="3" fill="#216e39"><title>금: 5445.0점</title></rect><text x="260" y="186" font-size="10" fill="#333333">5445.0</text><text x="24" y="214" text-anchor="end" font-size="12" fill="#333333">토</text><rect x="28" y="198" width="280" height="22" rx="3" fill="#216e39"><title>토: 6699.0점</title></rect><text x="313" y="214" font-size="10" fill="#333333">6699.0</text>
<text x="28" y="254" font-size="9" fill="#666666">기준: 2026-06-11 10:59</text>
</svg>