<svg xmlns="http://www.w3.org/2000/svg" width="363" height="260">
<text x="181" y="18" text-anchor="middle" font-size="13" font-weight="bold" fill="#e0e0e0">최근 1주 요일별 활동</text>
<text x="24" y="46" text-anchor="end" font-size="12" fill="#cccccc">일</text><rect x="28" y="30" width="140" height="22" rx="3" fill="#30a14e"><title>일: 2606.7점</title></rect><text x="173" y="46" font-size="10" fill="#cccccc">2606.7</text><text x="24" y="74" text-anchor="end" font-size="12" fill="#cccccc">월</text><rect x="28" y="58" width="125" height="22" rx="3" fill="#40c463"><title>월: 2318.9점</title></rect><text x="158" y="74" font-size="10" fill="#cccccc">2318.9</text><text x="24" y="102" text-anchor="end" font-size="12" fill="#cccccc">화</text><rect x="28" y="86" width="89" height="22" rx="3" fill="#40c463"><title>화: 1653.0점</title></rect><text x="122" y="102" font-size="10" fill="#cccccc">1653.0</text><text x="24" y="130" text-anchor="end" font-size="12" fill="#cccccc">수</text><rect x="28" y="114" width="36" height="22" rx="3" fill="#9be9a8"><title>수: 677.6점</title></rect><text x="69" y="130" font-size="10" fill="#cccccc">677.6</text><text x="24" y="158" text-anchor="end" font-size="12" fill="#cccccc">목</text><rect x="28" y="142" width="10" height="22" rx="3" fill="#9be9a8"><title>목: 191.1점</title></rect><text x="43" y="158" font-size="10" fill="#cccccc">191.1</text><text x="24" y="186" text-anchor="end" font-size="12" fill="#cccccc">금</text><rect x="28" y="170" width="280" height="22" rx="3" fill="#216e39"><title>금: 5186.8점</title></rect><text x="313" y="186" font-size="10" fill="#cccccc">5186.8</text><text x="24" y="214" text-anchor="end" font-size="12" fill="#cccccc">토</text><rect x="28" y="198" width="143" height="22" rx="3" fill="#30a14e"><title>토: 2659.3점</title></rect><text x="176" y="214" font-size="10" fill="#cccccc">2659.3</text>
<text x="28" y="254" font-size="9" fill="#999999">기준: 2026-07-02 22:29</text>
</svg>