<svg xmlns="http://www.w3.org/2000/svg" width="363" height="260">
<text x="181" y="18" text-anchor="middle" font-size="13" font-weight="bold" fill="#111111">최근 1주 요일별 활동</text>
<text x="24" y="46" text-anchor="end" font-size="12" fill="#333333">일</text><rect x="28" y="30" width="40" height="22" rx="3" fill="#9be9a8"><title>일: 308.0점</title></rect><text x="73" y="46" font-size="10" fill="#333333">308.0</text><text x="24" y="74" text-anchor="end" font-size="12" fill="#333333">월</text><rect x="28" y="58" width="2" height="22" rx="3" fill="#ebedf0"><title>월: 0.0점</title></rect><text x="35" y="74" font-size="10" fill="#333333">0.0</text><text x="24" y="102" text-anchor="end" font-size="12" fill="#333333">화</text><rect x="28" y="86" width="280" height="22" rx="3" fill="#216e39"><title>화: 2106.7점</title></rect><text x="313" y="102" font-size="10" fill="#333333">2106.7</text><text x="24" y="130" text-anchor="end" font-size="12" fill="#333333">수</text><rect x="28" y="114" width="209" height="22" rx="3" fill="#30a14e"><title>수: 1574.6점</title></rect><text x="242" y="130" font-size="10" fill="#333333">1574.6</text><text x="24" y="158" text-anchor="end" font-size="12" fill="#333333">목</text><rect x="28" y="142" width="160" height="22" rx="3" fill="#30a14e"><title>목: 1210.0점</title></rect><text x="193" y="158" font-size="10" fill="#333333">1210.0</text><text x="24" y="186" text-anchor="end" font-size="12" fill="#333333">금</text><rect x="28" y="170" width="124" height="22" rx="3" fill="#40c463"><title>금: 935.0점</title></rect><text x="157" y="186" font-size="10" fill="#333333">935.0</text><text x="24" y="214" text-anchor="end" font-size="12" fill="#333333">토</text><rect x="28" y="198" width="112" height="22" rx="3" fill="#40c463"><title>토: 847.0점</title></rect><text x="145" y="214" font-size="10" fill="#333333">847.0</text>
<text x="28" y="254" font-size="9" fill="#666666">기준: 2026-05-25 04:55</text>
</svg>