<svg xmlns="http://www.w3.org/2000/svg" width="363" height="260">
<text x="181" y="18" text-anchor="middle" font-size="13" font-weight="bold" fill="#111111">최근 2주 요일별 활동</text>
<text x="24" y="46" text-anchor="end" font-size="12" fill="#333333">일</text><rect x="28" y="30" width="145" height="22" rx="3" fill="#30a14e"><title>일: 1355.0점</title></rect><text x="178" y="46" font-size="10" fill="#333333">1355.0</text><text x="24" y="74" text-anchor="end" font-size="12" fill="#333333">월</text><rect x="28" y="58" width="100" height="22" rx="3" fill="#40c463"><title>월: 935.9점</title></rect><text x="133" y="74" font-size="10" fill="#333333">935.9</text><text x="24" y="102" text-anchor="end" font-size="12" fill="#333333">화</text><rect x="28" y="86" width="169" height="22" rx="3" fill="#30a14e"><title>화: 1576.5점</title></rect><text x="202" y="102" font-size="10" fill="#333333">1576.5</text><text x="24" y="130" text-anchor="end" font-size="12" fill="#333333">수</text><rect x="28" y="114" width="71" height="22" rx="3" fill="#40c463"><title>수: 660.5점</title></rect><text x="104" y="130" font-size="10" fill="#333333">660.5</text><text x="24" y="158" text-anchor="end" font-size="12" fill="#333333">목</text><rect x="28" y="142" width="48" height="22" rx="3" fill="#9be9a8"><title>목: 453.5점</title></rect><text x="81" y="158" font-size="10" fill="#333333">453.5</text><text x="24" y="186" text-anchor="end" font-size="12" fill="#333333">금</text><rect x="28" y="170" width="280" height="22" rx="3" fill="#216e39"><title>금: 2599.0점</title></rect><text x="313" y="186" font-size="10" fill="#333333">2599.0</text><text x="24" y="214" text-anchor="end" font-size="12" fill="#333333">토</text><rect x="28" y="198" width="148" height="22" rx="3" fill="#30a14e"><title>토: 1374.0점</title></rect><text x="181" y="214" font-size="10" fill="#333333">1374.0</text>
<text x="28" y="254" font-size="9" fill="#666666">기준: 2026-05-21 20:13</text>
</svg>