<svg xmlns="http://www.w3.org/2000/svg" width="363" height="260">
<text x="181" y="18" text-anchor="middle" font-size="13" font-weight="bold" fill="#e0e0e0">최근 1주 요일별 활동</text>
<text x="24" y="46" text-anchor="end" font-size="12" fill="#cccccc">일</text><rect x="28" y="30" width="125" height="22" rx="3" fill="#40c463"><title>일: 1258.3점</title></rect><text x="158" y="46" font-size="10" fill="#cccccc">1258.3</text><text x="24" y="74" text-anchor="end" font-size="12" fill="#cccccc">월</text><rect x="28" y="58" width="60" height="22" rx="3" fill="#9be9a8"><title>월: 610.3점</title></rect><text x="93" y="74" font-size="10" fill="#cccccc">610.3</text><text x="24" y="102" text-anchor="end" font-size="12" fill="#cccccc">화</text><rect x="28" y="86" width="39" height="22" rx="3" fill="#9be9a8"><title>화: 397.5점</title></rect><text x="72" y="102" font-size="10" fill="#cccccc">397.5</text><text x="24" y="130" text-anchor="end" font-size="12" fill="#cccccc">수</text><rect x="28" y="114" width="5" height="22" rx="3" fill="#9be9a8"><title>수: 58.1점</title></rect><text x="38" y="130" font-size="10" fill="#cccccc">58.1</text><text x="24" y="158" text-anchor="end" font-size="12" fill="#cccccc">목</text><rect x="28" y="142" width="246" height="22" rx="3" fill="#216e39"><title>목: 2470.1점</title></rect><text x="279" y="158" font-size="10" fill="#cccccc">2470.1</text><text x="24" y="186" text-anchor="end" font-size="12" fill="#cccccc">금</text><rect x="28" y="170" width="187" height="22" rx="3" fill="#30a14e"><title>금: 1881.0점</title></rect><text x="220" y="186" font-size="10" fill="#cccccc">1881.0</text><text x="24" y="214" text-anchor="end" font-size="12" fill="#cccccc">토</text><rect x="28" y="198" width="280" height="22" rx="3" fill="#216e39"><title>토: 2807.0점</title></rect><text x="313" y="214" font-size="10" fill="#cccccc">2807.0</text>
<text x="28" y="254" font-size="9" fill="#999999">기준: 2026-07-08 11:18</text>
</svg>