<svg xmlns="http://www.w3.org/2000/svg" width="439" height="181">
<text x="69" y="16" font-size="9" fill="#333333">2</text><text x="129" y="16" font-size="9" fill="#333333">3</text><text x="189" y="16" font-size="9" fill="#333333">4</text><text x="249" y="16" font-size="9" fill="#333333">5</text><text x="324" y="16" font-size="9" fill="#333333">6</text><text x="384" y="16" font-size="9" fill="#333333">7</text><text x="20" y="48" text-anchor="end" font-size="9" fill="#333333">월</text><text x="20" y="78" text-anchor="end" font-size="9" fill="#333333">수</text><text x="20" y="108" text-anchor="end" font-size="9" fill="#333333">금</text><rect x="24" y="22" width="13" height="13" rx="2" fill="#ebedf0"><title>2026-01-11 (0)</title></rect><rect x="24" y="37" width="13" height="13" rx="2" fill="#9be9a8"><title>2026-01-12 (495.4)</title></rect><rect x="24" y="52" width="13" height="13" rx="2" fill="#9be9a8"><title>2026-01-13 (41.5)</title></rect><rect x="24" y="67" width="13" height="13" rx="2" fill="#9be9a8"><title>2026-01-14 (166.2)</title></rect><rect x="24" y="82" width="13" height="13" rx="2" fill="#ebedf0"><title>2026-01-15 (0)</title></rect><rect x="24" y="97" width="13" height="13" rx="2" fill="#9be9a8"><title>2026-01-16 (34.7)</title></rect><rect x="24" y="112" width="13" height="13" rx="2" fill="#9be9a8"><title>2026-01-17 (622.5)</title></rect><rect x="39" y="22" width="13" height="13" rx="2" fill="#9be9a8"><title>2026-01-18 (4023.5)</title></rect><rect x="39" y="37" width="13" height="13" rx="2" fill="#9be9a8"><title>2026-01-19 (55.8)</title></rect><rect x="39" y="52" width="13" height="13" rx="2" fill="#9be9a8"><title>2026-01-20 (101.1)</title></rect><rect x="39" y="67" width="13" height="13" rx="2" fill="#9be9a8"><title>2026-01-21 (7744.4)</title></rect><rect x="39" y="82" width="13" height="13" rx="2" fill="#9be9a8"><title>2026-01-22 (1411.7)</title></rect><rect x="39" y="97" width="13" height="13" rx="2" fill="#9be9a8"><title>2026-01-23 (6624.3)</title></rect><rect x="39" y="112" width="13" height="13" rx="2" fill="#9be9a8"><title>2026-01-24 (10428.0)</title></rect><rect x="54" y="22" width="13" height="13" rx="2" fill="#9be9a8"><title>2026-01-25 (7475.9)</title></rect><rect x="54" y="37" width="13" height="13" rx="2" fill="#9be9a8"><title>2026-01-26 (4574.0)</title></rect><rect x="54" y="52" width="13" height="13" rx="2" fill="#9be9a8"><title>2026-01-27 (10972.5)</title></rect><rect x="54" y="67" width="13" height="13" rx="2" fill="#9be9a8"><title>2026-01-28 (1227.0)</title></rect><rect x="54" y="82" width="13" height="13" rx="2" fill="#9be9a8"><title>2026-01-29 (683.9)</title></rect><rect x="54" y="97" width="13" height="13" rx="2" fill="#9be9a8"><title>2026-01-30 (10553.2)</title></rect><rect x="54" y="112" width="13" height="13" rx="2" fill="#9be9a8"><title>2026-01-31 (6952.0)</title></rect><rect x="69" y="22" width="13" height="13" rx="2" fill="#9be9a8"><title>2026-02-01 (8795.9)</title></rect><rect x="69" y="37" width="13" height="13" rx="2" fill="#40c463"><title>2026-02-02 (20937.6)</title></rect><rect x="69" y="52" width="13" height="13" rx="2" fill="#9be9a8"><title>2026-02-03 (1177.4)</title></rect><rect x="69" y="67" width="13" height="13" rx="2" fill="#9be9a8"><title>2026-02-04 (714.2)</title></rect><rect x="69" y="82" width="13" height="13" rx="2" fill="#9be9a8"><title>2026-02-05 (6944.0)</title></rect><rect x="69" y="97" width="13" height="13" rx="2" fill="#40c463"><title>2026-02-06 (13883.4)</title></rect><rect x="69" y="112" width="13" height="13" rx="2" fill="#9be9a8"><title>2026-02-07 (4810.6)</title></rect><rect x="84" y="22" width="13" height="13" rx="2" fill="#9be9a8"><title>2026-02-08 (3505.6)</title></rect><rect x="84" y="37" width="13" height="13" rx="2" fill="#9be9a8"><title>2026-02-09 (125.9)</title></rect><rect x="84" y="52" width="13" height="13" rx="2" fill="#ebedf0"><title>2026-02-10 (0)</title></rect><rect x="84" y="67" width="13" height="13" rx="2" fill="#ebedf0"><title>2026-02-11 (0)</title></rect><rect x="84" y="82" width="13" height="13" rx="2" fill="#9be9a8"><title>2026-02-12 (708.0)</title></rect><rect x="84" y="97" width="13" height="13" rx="2" fill="#9be9a8"><title>2026-02-13 (384.4)</title></rect><rect x="84" y="112" width="13" height="13" rx="2" fill="#ebedf0"><title>2026-02-14 (0)</title></rect><rect x="99" y="22" width="13" height="13" rx="2" fill="#ebedf0"><title>2026-02-15 (0)</title></rect><rect x="99" y="37" width="13" height="13" rx="2" fill="#ebedf0"><title>2026-02-16 (0)</title></rect><rect x="99" y="52" width="13" height="13" rx="2" fill="#ebedf0"><title>2026-02-17 (0)</title></rect><rect x="99" y="67" width="13" height="13" rx="2" fill="#9be9a8"><title>2026-02-18 (2253.7)</title></rect><rect x="99" y="82" width="13" height="13" rx="2" fill="#9be9a8"><title>2026-02-19 (1817.8)</title></rect><rect x="99" y="97" width="13" height="13" rx="2" fill="#9be9a8"><title>2026-02-20 (6551.6)</title></rect><rect x="99" y="112" width="13" height="13" rx="2" fill="#9be9a8"><title>2026-02-21 (456.9)</title></rect><rect x="114" y="22" width="13" height="13" rx="2" fill="#9be9a8"><title>2026-02-22 (2564.3)</title></rect><rect x="114" y="37" width="13" height="13" rx="2" fill="#9be9a8"><title>2026-02-23 (926.3)</title></rect><rect x="114" y="52" width="13" height="13" rx="2" fill="#9be9a8"><title>2026-02-24 (1150.1)</title></rect><rect x="114" y="67" width="13" height="13" rx="2" fill="#9be9a8"><title>2026-02-25 (1252.4)</title></rect><rect x="114" y="82" width="13" height="13" rx="2" fill="#9be9a8"><title>2026-02-26 (7665.2)</title></rect><rect x="114" y="97" width="13" height="13" rx="2" fill="#40c463"><title>2026-02-27 (17156.7)</title></rect><rect x="114" y="112" width="13" height="13" rx="2" fill="#40c463"><title>2026-02-28 (12544.4)</title></rect><rect x="129" y="22" width="13" height="13" rx="2" fill="#9be9a8"><title>2026-03-01 (11642.3)</title></rect><rect x="129" y="37" width="13" height="13" rx="2" fill="#9be9a8"><title>2026-03-02 (4369.8)</title></rect><rect x="129" y="52" width="13" height="13" rx="2" fill="#9be9a8"><title>2026-03-03 (143.2)</title></rect><rect x="129" y="67" width="13" height="13" rx="2" fill="#9be9a8"><title>2026-03-04 (4353.3)</title></rect><rect x="129" y="82" width="13" height="13" rx="2" fill="#9be9a8"><title>2026-03-05 (4022.3)</title></rect><rect x="129" y="97" width="13" height="13" rx="2" fill="#9be9a8"><title>2026-03-06 (1241.9)</title></rect><rect x="129" y="112" width="13" height="13" rx="2" fill="#9be9a8"><title>2026-03-07 (1607.7)</title></rect><rect x="144" y="22" width="13" height="13" rx="2" fill="#9be9a8"><title>2026-03-08 (1247.4)</title></rect><rect x="144" y="37" width="13" height="13" rx="2" fill="#9be9a8"><title>2026-03-09 (495.4)</title></rect><rect x="144" y="52" width="13" height="13" rx="2" fill="#9be9a8"><title>2026-03-10 (2858.2)</title></rect><rect x="144" y="67" width="13" height="13" rx="2" fill="#9be9a8"><title>2026-03-11 (1279.1)</title></rect><rect x="144" y="82" width="13" height="13" rx="2" fill="#9be9a8"><title>2026-03-12 (394.9)</title></rect><rect x="144" y="97" width="13" height="13" rx="2" fill="#9be9a8"><title>2026-03-13 (6097.5)</title></rect><rect x="144" y="112" width="13" height="13" rx="2" fill="#9be9a8"><title>2026-03-14 (245.9)</title></rect><rect x="159" y="22" width="13" height="13" rx="2" fill="#9be9a8"><title>2026-03-15 (548.7)</title></rect><rect x="159" y="37" width="13" height="13" rx="2" fill="#9be9a8"><title>2026-03-16 (8663.7)</title></rect><rect x="159" y="52" width="13" height="13" rx="2" fill="#9be9a8"><title>2026-03-17 (8719.8)</title></rect><rect x="159" y="67" width="13" height="13" rx="2" fill="#9be9a8"><title>2026-03-18 (183.0)</title></rect><rect x="159" y="82" width="13" height="13" rx="2" fill="#9be9a8"><title>2026-03-19 (6917.0)</title></rect><rect x="159" y="97" width="13" height="13" rx="2" fill="#9be9a8"><title>2026-03-20 (4045.2)</title></rect><rect x="159" y="112" width="13" height="13" rx="2" fill="#ebedf0"><title>2026-03-21 (0)</title></rect><rect x="174" y="22" width="13" height="13" rx="2" fill="#ebedf0"><title>2026-03-22 (0)</title></rect><rect x="174" y="37" width="13" height="13" rx="2" fill="#9be9a8"><title>2026-03-23 (11286.7)</title></rect><rect x="174" y="52" width="13" height="13" rx="2" fill="#9be9a8"><title>2026-03-24 (437.5)</title></rect><rect x="174" y="67" width="13" height="13" rx="2" fill="#9be9a8"><title>2026-03-25 (141.4)</title></rect><rect x="174" y="82" width="13" height="13" rx="2" fill="#9be9a8"><title>2026-03-26 (3476.0)</title></rect><rect x="174" y="97" width="13" height="13" rx="2" fill="#40c463"><title>2026-03-27 (18562.7)</title></rect><rect x="174" y="112" width="13" height="13" rx="2" fill="#40c463"><title>2026-03-28 (16963.8)</title></rect><rect x="189" y="22" width="13" height="13" rx="2" fill="#9be9a8"><title>2026-03-29 (3900.7)</title></rect><rect x="189" y="37" width="13" height="13" rx="2" fill="#9be9a8"><title>2026-03-30 (4257.5)</title></rect><rect x="189" y="52" width="13" height="13" rx="2" fill="#9be9a8"><title>2026-03-31 (1064.6)</title></rect><rect x="189" y="67" width="13" height="13" rx="2" fill="#9be9a8"><title>2026-04-01 (88.5)</title></rect><rect x="189" y="82" width="13" height="13" rx="2" fill="#9be9a8"><title>2026-04-02 (1298.9)</title></rect><rect x="189" y="97" width="13" height="13" rx="2" fill="#ebedf0"><title>2026-04-03 (0)</title></rect><rect x="189" y="112" width="13" height="13" rx="2" fill="#ebedf0"><title>2026-04-04 (0)</title></rect><rect x="204" y="22" width="13" height="13" rx="2" fill="#9be9a8"><title>2026-04-05 (230.6)</title></rect><rect x="204" y="37" width="13" height="13" rx="2" fill="#9be9a8"><title>2026-04-06 (444.5)</title></rect><rect x="204" y="52" width="13" height="13" rx="2" fill="#9be9a8"><title>2026-04-07 (369.0)</title></rect><rect x="204" y="67" width="13" height="13" rx="2" fill="#9be9a8"><title>2026-04-08 (501.0)</title></rect><rect x="204" y="82" width="13" height="13" rx="2" fill="#9be9a8"><title>2026-04-09 (7.9)</title></rect><rect x="204" y="97" width="13" height="13" rx="2" fill="#9be9a8"><title>2026-04-10 (6716.8)</title></rect><rect x="204" y="112" width="13" height="13" rx="2" fill="#9be9a8"><title>2026-04-11 (548.2)</title></rect><rect x="219" y="22" width="13" height="13" rx="2" fill="#9be9a8"><title>2026-04-12 (689.4)</title></rect><rect x="219" y="37" width="13" height="13" rx="2" fill="#9be9a8"><title>2026-04-13 (3703.9)</title></rect><rect x="219" y="52" width="13" height="13" rx="2" fill="#9be9a8"><title>2026-04-14 (596.7)</title></rect><rect x="219" y="67" width="13" height="13" rx="2" fill="#9be9a8"><title>2026-04-15 (75.4)</title></rect><rect x="219" y="82" width="13" height="13" rx="2" fill="#9be9a8"><title>2026-04-16 (978.4)</title></rect><rect x="219" y="97" width="13" height="13" rx="2" fill="#9be9a8"><title>2026-04-17 (10035.4)</title></rect><rect x="219" y="112" width="13" height="13" rx="2" fill="#9be9a8"><title>2026-04-18 (7940.9)</title></rect><rect x="234" y="22" width="13" height="13" rx="2" fill="#9be9a8"><title>2026-04-19 (10615.2)</title></rect><rect x="234" y="37" width="13" height="13" rx="2" fill="#9be9a8"><title>2026-04-20 (909.9)</title></rect><rect x="234" y="52" width="13" height="13" rx="2" fill="#9be9a8"><title>2026-04-21 (1142.5)</title></rect><rect x="234" y="67" width="13" height="13" rx="2" fill="#40c463"><title>2026-04-22 (15297.2)</title></rect><rect x="234" y="82" width="13" height="13" rx="2" fill="#9be9a8"><title>2026-04-23 (2264.2)</title></rect><rect x="234" y="97" width="13" height="13" rx="2" fill="#40c463"><title>2026-04-24 (14414.4)</title></rect><rect x="234" y="112" width="13" height="13" rx="2" fill="#30a14e"><title>2026-04-25 (23646.3)</title></rect><rect x="249" y="22" width="13" height="13" rx="2" fill="#40c463"><title>2026-04-26 (22479.0)</title></rect><rect x="249" y="37" width="13" height="13" rx="2" fill="#9be9a8"><title>2026-04-27 (6781.1)</title></rect><rect x="249" y="52" width="13" height="13" rx="2" fill="#9be9a8"><title>2026-04-28 (1767.2)</title></rect><rect x="249" y="67" width="13" height="13" rx="2" fill="#9be9a8"><title>2026-04-29 (4428.8)</title></rect><rect x="249" y="82" width="13" height="13" rx="2" fill="#9be9a8"><title>2026-04-30 (2226.1)</title></rect><rect x="249" y="97" width="13" height="13" rx="2" fill="#9be9a8"><title>2026-05-01 (1494.0)</title></rect><rect x="249" y="112" width="13" height="13" rx="2" fill="#9be9a8"><title>2026-05-02 (1710.7)</title></rect><rect x="264" y="22" width="13" height="13" rx="2" fill="#9be9a8"><title>2026-05-03 (9912.3)</title></rect><rect x="264" y="37" width="13" height="13" rx="2" fill="#9be9a8"><title>2026-05-04 (2237.8)</title></rect><rect x="264" y="52" width="13" height="13" rx="2" fill="#9be9a8"><title>2026-05-05 (7676.1)</title></rect><rect x="264" y="67" width="13" height="13" rx="2" fill="#9be9a8"><title>2026-05-06 (9167.6)</title></rect><rect x="264" y="82" width="13" height="13" rx="2" fill="#9be9a8"><title>2026-05-07 (2644.4)</title></rect><rect x="264" y="97" width="13" height="13" rx="2" fill="#9be9a8"><title>2026-05-08 (2218.5)</title></rect><rect x="264" y="112" width="13" height="13" rx="2" fill="#9be9a8"><title>2026-05-09 (980.5)</title></rect><rect x="279" y="22" width="13" height="13" rx="2" fill="#9be9a8"><title>2026-05-10 (3501.9)</title></rect><rect x="279" y="37" width="13" height="13" rx="2" fill="#9be9a8"><title>2026-05-11 (1156.4)</title></rect><rect x="279" y="52" width="13" height="13" rx="2" fill="#9be9a8"><title>2026-05-12 (3484.8)</title></rect><rect x="279" y="67" width="13" height="13" rx="2" fill="#9be9a8"><title>2026-05-13 (1156.9)</title></rect><rect x="279" y="82" width="13" height="13" rx="2" fill="#9be9a8"><title>2026-05-14 (569.8)</title></rect><rect x="279" y="97" width="13" height="13" rx="2" fill="#9be9a8"><title>2026-05-15 (3987.4)</title></rect><rect x="279" y="112" width="13" height="13" rx="2" fill="#9be9a8"><title>2026-05-16 (1723.4)</title></rect><rect x="294" y="22" width="13" height="13" rx="2" fill="#9be9a8"><title>2026-05-17 (9789.7)</title></rect><rect x="294" y="37" width="13" height="13" rx="2" fill="#9be9a8"><title>2026-05-18 (4569.4)</title></rect><rect x="294" y="52" width="13" height="13" rx="2" fill="#40c463"><title>2026-05-19 (20643.6)</title></rect><rect x="294" y="67" width="13" height="13" rx="2" fill="#40c463"><title>2026-05-20 (19293.5)</title></rect><rect x="294" y="82" width="13" height="13" rx="2" fill="#40c463"><title>2026-05-21 (16610.0)</title></rect><rect x="294" y="97" width="13" height="13" rx="2" fill="#40c463"><title>2026-05-22 (18558.5)</title></rect><rect x="294" y="112" width="13" height="13" rx="2" fill="#40c463"><title>2026-05-23 (22583.7)</title></rect><rect x="309" y="22" width="13" height="13" rx="2" fill="#40c463"><title>2026-05-24 (21858.0)</title></rect><rect x="309" y="37" width="13" height="13" rx="2" fill="#40c463"><title>2026-05-25 (18346.0)</title></rect><rect x="309" y="52" width="13" height="13" rx="2" fill="#40c463"><title>2026-05-26 (16711.0)</title></rect><rect x="309" y="67" width="13" height="13" rx="2" fill="#40c463"><title>2026-05-27 (18005.0)</title></rect><rect x="309" y="82" width="13" height="13" rx="2" fill="#40c463"><title>2026-05-28 (17125.7)</title></rect><rect x="309" y="97" width="13" height="13" rx="2" fill="#40c463"><title>2026-05-29 (21527.4)</title></rect><rect x="309" y="112" width="13" height="13" rx="2" fill="#30a14e"><title>2026-05-30 (26145.9)</title></rect><rect x="324" y="22" width="13" height="13" rx="2" fill="#40c463"><title>2026-05-31 (22193.4)</title></rect><rect x="324" y="37" width="13" height="13" rx="2" fill="#40c463"><title>2026-06-01 (12751.0)</title></rect><rect x="324" y="52" width="13" height="13" rx="2" fill="#40c463"><title>2026-06-02 (12282.0)</title></rect><rect x="324" y="67" width="13" height="13" rx="2" fill="#9be9a8"><title>2026-06-03 (11391.3)</title></rect><rect x="324" y="82" width="13" height="13" rx="2" fill="#40c463"><title>2026-06-04 (14894.4)</title></rect><rect x="324" y="97" width="13" height="13" rx="2" fill="#40c463"><title>2026-06-05 (12265.0)</title></rect><rect x="324" y="112" width="13" height="13" rx="2" fill="#40c463"><title>2026-06-06 (18578.3)</title></rect><rect x="339" y="22" width="13" height="13" rx="2" fill="#40c463"><title>2026-06-07 (21818.5)</title></rect><rect x="339" y="37" width="13" height="13" rx="2" fill="#40c463"><title>2026-06-08 (12114.5)</title></rect><rect x="339" y="52" width="13" height="13" rx="2" fill="#216e39"><title>2026-06-09 (40112.6)</title></rect><rect x="339" y="67" width="13" height="13" rx="2" fill="#30a14e"><title>2026-06-10 (28691.1)</title></rect><rect x="339" y="82" width="13" height="13" rx="2" fill="#40c463"><title>2026-06-11 (14039.2)</title></rect><rect x="339" y="97" width="13" height="13" rx="2" fill="#40c463"><title>2026-06-12 (15264.1)</title></rect><rect x="339" y="112" width="13" height="13" rx="2" fill="#40c463"><title>2026-06-13 (22713.9)</title></rect><rect x="354" y="22" width="13" height="13" rx="2" fill="#40c463"><title>2026-06-14 (15398.1)</title></rect><rect x="354" y="37" width="13" height="13" rx="2" fill="#9be9a8"><title>2026-06-15 (11427.5)</title></rect><rect x="354" y="52" width="13" height="13" rx="2" fill="#9be9a8"><title>2026-06-16 (10011.7)</title></rect><rect x="354" y="67" width="13" height="13" rx="2" fill="#40c463"><title>2026-06-17 (14224.4)</title></rect><rect x="354" y="82" width="13" height="13" rx="2" fill="#9be9a8"><title>2026-06-18 (10646.1)</title></rect><rect x="354" y="97" width="13" height="13" rx="2" fill="#40c463"><title>2026-06-19 (16977.3)</title></rect><rect x="354" y="112" width="13" height="13" rx="2" fill="#30a14e"><title>2026-06-20 (30206.1)</title></rect><rect x="369" y="22" width="13" height="13" rx="2" fill="#216e39"><title>2026-06-21 (46847.7)</title></rect><rect x="369" y="37" width="13" height="13" rx="2" fill="#216e39"><title>2026-06-22 (39952.6)</title></rect><rect x="369" y="52" width="13" height="13" rx="2" fill="#216e39"><title>2026-06-23 (43062.7)</title></rect><rect x="369" y="67" width="13" height="13" rx="2" fill="#216e39"><title>2026-06-24 (47188.6)</title></rect><rect x="369" y="82" width="13" height="13" rx="2" fill="#40c463"><title>2026-06-25 (17911.1)</title></rect><rect x="369" y="97" width="13" height="13" rx="2" fill="#40c463"><title>2026-06-26 (16575.4)</title></rect><rect x="369" y="112" width="13" height="13" rx="2" fill="#9be9a8"><title>2026-06-27 (8725.8)</title></rect><rect x="384" y="22" width="13" height="13" rx="2" fill="#40c463"><title>2026-06-28 (13114.3)</title></rect><rect x="384" y="37" width="13" height="13" rx="2" fill="#40c463"><title>2026-06-29 (14644.4)</title></rect><rect x="384" y="52" width="13" height="13" rx="2" fill="#40c463"><title>2026-06-30 (13739.2)</title></rect><rect x="384" y="67" width="13" height="13" rx="2" fill="#9be9a8"><title>2026-07-01 (9536.5)</title></rect><rect x="384" y="82" width="13" height="13" rx="2" fill="#9be9a8"><title>2026-07-02 (7462.7)</title></rect><rect x="384" y="97" width="13" height="13" rx="2" fill="#9be9a8"><title>2026-07-03 (5179.4)</title></rect><rect x="384" y="112" width="13" height="13" rx="2" fill="#9be9a8"><title>2026-07-04 (7604.6)</title></rect><rect x="399" y="22" width="13" height="13" rx="2" fill="#9be9a8"><title>2026-07-05 (4691.3)</title></rect><rect x="399" y="37" width="13" height="13" rx="2" fill="#9be9a8"><title>2026-07-06 (4409.6)</title></rect><rect x="399" y="52" width="13" height="13" rx="2" fill="#9be9a8"><title>2026-07-07 (5283.8)</title></rect><rect x="399" y="67" width="13" height="13" rx="2" fill="#9be9a8"><title>2026-07-08 (6009.5)</title></rect><rect x="399" y="82" width="13" height="13" rx="2" fill="#9be9a8"><title>2026-07-09 (2726.1)</title></rect><rect x="399" y="97" width="13" height="13" rx="2" fill="#9be9a8"><title>2026-07-10 (4967.0)</title></rect><rect x="399" y="112" width="13" height="13" rx="2" fill="#9be9a8"><title>2026-07-11 (2912.8)</title></rect><rect x="414" y="22" width="13" height="13" rx="2" fill="#9be9a8"><title>2026-07-12 (2284.8)</title></rect><rect x="414" y="37" width="13" height="13" rx="2" fill="#9be9a8"><title>2026-07-13 (2121.7)</title></rect><rect x="414" y="52" width="13" height="13" rx="2" fill="#9be9a8"><title>2026-07-14 (676.7)</title></rect><text x="24" y="145" font-size="9" fill="#333333">적음</text><rect x="52" y="135" width="13" height="13" rx="2" fill="#ebedf0"/><rect x="67" y="135" width="13" height="13" rx="2" fill="#9be9a8"/><rect x="82" y="135" width="13" height="13" rx="2" fill="#40c463"/><rect x="97" y="135" width="13" height="13" rx="2" fill="#30a14e"/><rect x="112" y="135" width="13" height="13" rx="2" fill="#216e39"/><text x="131" y="145" font-size="9" fill="#333333">많음</text><text x="24" y="163" font-size="9" fill="#333333">기준: 2026-07-14 22:14</text>
</svg>