<svg xmlns="http://www.w3.org/2000/svg" width="363" height="260">
<text x="181" y="18" text-anchor="middle" font-size="13" font-weight="bold" fill="#111111">최근 1달 요일별 활동</text>
<text x="24" y="46" text-anchor="end" font-size="12" fill="#333333">일</text><rect x="28" y="30" width="261" height="22" rx="3" fill="#216e39"><title>일: 32780.4점</title></rect><text x="294" y="46" font-size="10" fill="#333333">32780.4</text><text x="24" y="74" text-anchor="end" font-size="12" fill="#333333">월</text><rect x="28" y="58" width="174" height="22" rx="3" fill="#30a14e"><title>월: 21904.9점</title></rect><text x="207" y="74" font-size="10" fill="#333333">21904.9</text><text x="24" y="102" text-anchor="end" font-size="12" fill="#333333">화</text><rect x="28" y="86" width="258" height="22" rx="3" fill="#216e39"><title>화: 32347.4점</title></rect><text x="291" y="102" font-size="10" fill="#333333">32347.4</text><text x="24" y="130" text-anchor="end" font-size="12" fill="#333333">수</text><rect x="28" y="114" width="194" height="22" rx="3" fill="#30a14e"><title>수: 24386.6점</title></rect><text x="227" y="130" font-size="10" fill="#333333">24386.6</text><text x="24" y="158" text-anchor="end" font-size="12" fill="#333333">목</text><rect x="28" y="142" width="126" height="22" rx="3" fill="#40c463"><title>목: 15797.7점</title></rect><text x="159" y="158" font-size="10" fill="#333333">15797.7</text><text x="24" y="186" text-anchor="end" font-size="12" fill="#333333">금</text><rect x="28" y="170" width="195" height="22" rx="3" fill="#30a14e"><title>금: 24530.9점</title></rect><text x="228" y="186" font-size="10" fill="#333333">24530.9</text><text x="24" y="214" text-anchor="end" font-size="12" fill="#333333">토</text><rect x="28" y="198" width="280" height="22" rx="3" fill="#216e39"><title>토: 35079.1점</title></rect><text x="313" y="214" font-size="10" fill="#333333">35079.1</text>
<text x="28" y="254" font-size="9" fill="#666666">기준: 2026-06-27 04:18</text>
</svg>