<svg xmlns="http://www.w3.org/2000/svg" width="363" height="260">
<text x="181" y="18" text-anchor="middle" font-size="13" font-weight="bold" fill="#e0e0e0">최근 1주 요일별 활동</text>
<text x="24" y="46" text-anchor="end" font-size="12" fill="#cccccc">일</text><rect x="28" y="30" width="134" height="22" rx="3" fill="#40c463"><title>일: 2828.8점</title></rect><text x="167" y="46" font-size="10" fill="#cccccc">2828.8</text><text x="24" y="74" text-anchor="end" font-size="12" fill="#cccccc">월</text><rect x="28" y="58" width="141" height="22" rx="3" fill="#30a14e"><title>월: 2967.4점</title></rect><text x="174" y="74" font-size="10" fill="#cccccc">2967.4</text><text x="24" y="102" text-anchor="end" font-size="12" fill="#cccccc">화</text><rect x="28" y="86" width="66" height="22" rx="3" fill="#9be9a8"><title>화: 1398.3점</title></rect><text x="99" y="102" font-size="10" fill="#cccccc">1398.3</text><text x="24" y="130" text-anchor="end" font-size="12" fill="#cccccc">수</text><rect x="28" y="114" width="12" height="22" rx="3" fill="#9be9a8"><title>수: 260.8점</title></rect><text x="45" y="130" font-size="10" fill="#cccccc">260.8</text><text x="24" y="158" text-anchor="end" font-size="12" fill="#cccccc">목</text><rect x="28" y="142" width="144" height="22" rx="3" fill="#30a14e"><title>목: 3041.5점</title></rect><text x="177" y="158" font-size="10" fill="#cccccc">3041.5</text><text x="24" y="186" text-anchor="end" font-size="12" fill="#cccccc">금</text><rect x="28" y="170" width="280" height="22" rx="3" fill="#216e39"><title>금: 5878.5점</title></rect><text x="313" y="186" font-size="10" fill="#cccccc">5878.5</text><text x="24" y="214" text-anchor="end" font-size="12" fill="#cccccc">토</text><rect x="28" y="198" width="172" height="22" rx="3" fill="#30a14e"><title>토: 3628.7점</title></rect><text x="205" y="214" font-size="10" fill="#cccccc">3628.7</text>
<text x="28" y="254" font-size="9" fill="#999999">기준: 2026-07-15 14:13</text>
</svg>