<svg xmlns="http://www.w3.org/2000/svg" width="363" height="260">
<text x="181" y="18" text-anchor="middle" font-size="13" font-weight="bold" fill="#e0e0e0">최근 1달 요일별 활동</text>
<text x="24" y="46" text-anchor="end" font-size="12" fill="#cccccc">일</text><rect x="28" y="30" width="280" height="22" rx="3" fill="#216e39"><title>일: 40350.1점</title></rect><text x="313" y="46" font-size="10" fill="#cccccc">40350.1</text><text x="24" y="74" text-anchor="end" font-size="12" fill="#cccccc">월</text><rect x="28" y="58" width="191" height="22" rx="3" fill="#30a14e"><title>월: 27666.5점</title></rect><text x="224" y="74" font-size="10" fill="#cccccc">27666.5</text><text x="24" y="102" text-anchor="end" font-size="12" fill="#cccccc">화</text><rect x="28" y="86" width="278" height="22" rx="3" fill="#216e39"><title>화: 40101.1점</title></rect><text x="311" y="102" font-size="10" fill="#cccccc">40101.1</text><text x="24" y="130" text-anchor="end" font-size="12" fill="#cccccc">수</text><rect x="28" y="114" width="222" height="22" rx="3" fill="#216e39"><title>수: 32128.9점</title></rect><text x="255" y="130" font-size="10" fill="#cccccc">32128.9</text><text x="24" y="158" text-anchor="end" font-size="12" fill="#cccccc">목</text><rect x="28" y="142" width="139" height="22" rx="3" fill="#40c463"><title>목: 20077.3점</title></rect><text x="172" y="158" font-size="10" fill="#cccccc">20077.3</text><text x="24" y="186" text-anchor="end" font-size="12" fill="#cccccc">금</text><rect x="28" y="170" width="140" height="22" rx="3" fill="#30a14e"><title>금: 20228.7점</title></rect><text x="173" y="186" font-size="10" fill="#cccccc">20228.7</text><text x="24" y="214" text-anchor="end" font-size="12" fill="#cccccc">토</text><rect x="28" y="198" width="208" height="22" rx="3" fill="#30a14e"><title>토: 30055.8점</title></rect><text x="241" y="214" font-size="10" fill="#cccccc">30055.8</text>
<text x="28" y="254" font-size="9" fill="#999999">기준: 2026-06-29 05:01</text>
</svg>