<svg xmlns="http://www.w3.org/2000/svg" width="363" height="260">
<text x="181" y="18" text-anchor="middle" font-size="13" font-weight="bold" fill="#111111">최근 2주 요일별 활동</text>
<text x="24" y="46" text-anchor="end" font-size="12" fill="#333333">일</text><rect x="28" y="30" width="92" height="22" rx="3" fill="#40c463"><title>일: 5454.4점</title></rect><text x="125" y="46" font-size="10" fill="#333333">5454.4</text><text x="24" y="74" text-anchor="end" font-size="12" fill="#333333">월</text><rect x="28" y="58" width="74" height="22" rx="3" fill="#40c463"><title>월: 4398.4점</title></rect><text x="107" y="74" font-size="10" fill="#333333">4398.4</text><text x="24" y="102" text-anchor="end" font-size="12" fill="#333333">화</text><rect x="28" y="86" width="280" height="22" rx="3" fill="#216e39"><title>화: 16427.2점</title></rect><text x="313" y="102" font-size="10" fill="#333333">16427.2</text><text x="24" y="130" text-anchor="end" font-size="12" fill="#333333">수</text><rect x="28" y="114" width="224" height="22" rx="3" fill="#216e39"><title>수: 13146.7점</title></rect><text x="257" y="130" font-size="10" fill="#333333">13146.7</text><text x="24" y="158" text-anchor="end" font-size="12" fill="#333333">목</text><rect x="28" y="142" width="148" height="22" rx="3" fill="#30a14e"><title>목: 8686.4점</title></rect><text x="181" y="158" font-size="10" fill="#333333">8686.4</text><text x="24" y="186" text-anchor="end" font-size="12" fill="#333333">금</text><rect x="28" y="170" width="143" height="22" rx="3" fill="#30a14e"><title>금: 8421.6점</title></rect><text x="176" y="186" font-size="10" fill="#333333">8421.6</text><text x="24" y="214" text-anchor="end" font-size="12" fill="#333333">토</text><rect x="28" y="198" width="150" height="22" rx="3" fill="#30a14e"><title>토: 8843.4점</title></rect><text x="183" y="214" font-size="10" fill="#333333">8843.4</text>
<text x="28" y="254" font-size="9" fill="#666666">기준: 2026-07-13 22:13</text>
</svg>