<svg xmlns="http://www.w3.org/2000/svg" width="363" height="260">
<text x="181" y="18" text-anchor="middle" font-size="13" font-weight="bold" fill="#e0e0e0">최근 1주 요일별 활동</text>
<text x="24" y="46" text-anchor="end" font-size="12" fill="#cccccc">일</text><rect x="28" y="30" width="62" height="22" rx="3" fill="#9be9a8"><title>일: 335.0점</title></rect><text x="95" y="46" font-size="10" fill="#cccccc">335.0</text><text x="24" y="74" text-anchor="end" font-size="12" fill="#cccccc">월</text><rect x="28" y="58" width="280" height="22" rx="3" fill="#216e39"><title>월: 1498.6점</title></rect><text x="313" y="74" font-size="10" fill="#cccccc">1498.6</text><text x="24" y="102" text-anchor="end" font-size="12" fill="#cccccc">화</text><rect x="28" y="86" width="244" height="22" rx="3" fill="#216e39"><title>화: 1310.8점</title></rect><text x="277" y="102" font-size="10" fill="#cccccc">1310.8</text><text x="24" y="130" text-anchor="end" font-size="12" fill="#cccccc">수</text><rect x="28" y="114" width="201" height="22" rx="3" fill="#30a14e"><title>수: 1078.0점</title></rect><text x="234" y="130" font-size="10" fill="#cccccc">1078.0</text><text x="24" y="158" text-anchor="end" font-size="12" fill="#cccccc">목</text><rect x="28" y="142" width="205" height="22" rx="3" fill="#30a14e"><title>목: 1100.0점</title></rect><text x="238" y="158" font-size="10" fill="#cccccc">1100.0</text><text x="24" y="186" text-anchor="end" font-size="12" fill="#cccccc">금</text><rect x="28" y="170" width="154" height="22" rx="3" fill="#30a14e"><title>금: 825.0점</title></rect><text x="187" y="186" font-size="10" fill="#cccccc">825.0</text><text x="24" y="214" text-anchor="end" font-size="12" fill="#cccccc">토</text><rect x="28" y="198" width="129" height="22" rx="3" fill="#40c463"><title>토: 693.0점</title></rect><text x="162" y="214" font-size="10" fill="#cccccc">693.0</text>
<text x="28" y="254" font-size="9" fill="#999999">기준: 2026-06-07 22:31</text>
</svg>