<svg xmlns="http://www.w3.org/2000/svg" width="363" height="260">
<text x="181" y="18" text-anchor="middle" font-size="13" font-weight="bold" fill="#111111">최근 2주 요일별 활동</text>
<text x="24" y="46" text-anchor="end" font-size="12" fill="#333333">일</text><rect x="28" y="30" width="135" height="22" rx="3" fill="#40c463"><title>일: 1559.6점</title></rect><text x="168" y="46" font-size="10" fill="#333333">1559.6</text><text x="24" y="74" text-anchor="end" font-size="12" fill="#333333">월</text><rect x="28" y="58" width="38" height="22" rx="3" fill="#9be9a8"><title>월: 445.2점</title></rect><text x="71" y="74" font-size="10" fill="#333333">445.2</text><text x="24" y="102" text-anchor="end" font-size="12" fill="#333333">화</text><rect x="28" y="86" width="280" height="22" rx="3" fill="#216e39"><title>화: 3213.3점</title></rect><text x="313" y="102" font-size="10" fill="#333333">3213.3</text><text x="24" y="130" text-anchor="end" font-size="12" fill="#333333">수</text><rect x="28" y="114" width="179" height="22" rx="3" fill="#30a14e"><title>수: 2057.3점</title></rect><text x="212" y="130" font-size="10" fill="#333333">2057.3</text><text x="24" y="158" text-anchor="end" font-size="12" fill="#333333">목</text><rect x="28" y="142" width="153" height="22" rx="3" fill="#30a14e"><title>목: 1762.5점</title></rect><text x="186" y="158" font-size="10" fill="#333333">1762.5</text><text x="24" y="186" text-anchor="end" font-size="12" fill="#333333">금</text><rect x="28" y="170" width="129" height="22" rx="3" fill="#40c463"><title>금: 1480.5점</title></rect><text x="162" y="186" font-size="10" fill="#333333">1480.5</text><text x="24" y="214" text-anchor="end" font-size="12" fill="#333333">토</text><rect x="28" y="198" width="128" height="22" rx="3" fill="#40c463"><title>토: 1471.5점</title></rect><text x="161" y="214" font-size="10" fill="#333333">1471.5</text>
<text x="28" y="254" font-size="9" fill="#666666">기준: 2026-05-25 20:00</text>
</svg>