<svg xmlns="http://www.w3.org/2000/svg" width="363" height="260">
<text x="181" y="18" text-anchor="middle" font-size="13" font-weight="bold" fill="#111111">최근 1주 요일별 활동</text>
<text x="24" y="46" text-anchor="end" font-size="12" fill="#333333">일</text><rect x="28" y="30" width="280" height="22" rx="3" fill="#216e39"><title>일: 9593.3점</title></rect><text x="313" y="46" font-size="10" fill="#333333">9593.3</text><text x="24" y="74" text-anchor="end" font-size="12" fill="#333333">월</text><rect x="28" y="58" width="206" height="22" rx="3" fill="#30a14e"><title>월: 7070.8점</title></rect><text x="239" y="74" font-size="10" fill="#333333">7070.8</text><text x="24" y="102" text-anchor="end" font-size="12" fill="#333333">화</text><rect x="28" y="86" width="196" height="22" rx="3" fill="#30a14e"><title>화: 6717.5점</title></rect><text x="229" y="102" font-size="10" fill="#333333">6717.5</text><text x="24" y="130" text-anchor="end" font-size="12" fill="#333333">수</text><rect x="28" y="114" width="160" height="22" rx="3" fill="#30a14e"><title>수: 5507.3점</title></rect><text x="193" y="130" font-size="10" fill="#333333">5507.3</text><text x="24" y="158" text-anchor="end" font-size="12" fill="#333333">목</text><rect x="28" y="142" width="39" height="22" rx="3" fill="#9be9a8"><title>목: 1353.8점</title></rect><text x="72" y="158" font-size="10" fill="#333333">1353.8</text><text x="24" y="186" text-anchor="end" font-size="12" fill="#333333">금</text><rect x="28" y="170" width="15" height="22" rx="3" fill="#9be9a8"><title>금: 515.5점</title></rect><text x="48" y="186" font-size="10" fill="#333333">515.5</text><text x="24" y="214" text-anchor="end" font-size="12" fill="#333333">토</text><rect x="28" y="198" width="2" height="22" rx="3" fill="#ebedf0"><title>토: 0.0점</title></rect><text x="35" y="214" font-size="10" fill="#333333">0.0</text>
<text x="28" y="254" font-size="9" fill="#666666">기준: 2026-06-27 04:18</text>
</svg>