<svg xmlns="http://www.w3.org/2000/svg" width="363" height="260">
<text x="181" y="18" text-anchor="middle" font-size="13" font-weight="bold" fill="#111111">최근 2주 요일별 활동</text>
<text x="24" y="46" text-anchor="end" font-size="12" fill="#333333">일</text><rect x="28" y="30" width="220" height="22" rx="3" fill="#216e39"><title>일: 2593.4점</title></rect><text x="253" y="46" font-size="10" fill="#333333">2593.4</text><text x="24" y="74" text-anchor="end" font-size="12" fill="#333333">월</text><rect x="28" y="58" width="92" height="22" rx="3" fill="#40c463"><title>월: 1084.0점</title></rect><text x="125" y="74" font-size="10" fill="#333333">1084.0</text><text x="24" y="102" text-anchor="end" font-size="12" fill="#333333">화</text><rect x="28" y="86" width="280" height="22" rx="3" fill="#216e39"><title>화: 3287.1점</title></rect><text x="313" y="102" font-size="10" fill="#333333">3287.1</text><text x="24" y="130" text-anchor="end" font-size="12" fill="#333333">수</text><rect x="28" y="114" width="204" height="22" rx="3" fill="#30a14e"><title>수: 2397.2점</title></rect><text x="237" y="130" font-size="10" fill="#333333">2397.2</text><text x="24" y="158" text-anchor="end" font-size="12" fill="#333333">목</text><rect x="28" y="142" width="196" height="22" rx="3" fill="#30a14e"><title>목: 2312.5점</title></rect><text x="229" y="158" font-size="10" fill="#333333">2312.5</text><text x="24" y="186" text-anchor="end" font-size="12" fill="#333333">금</text><rect x="28" y="170" width="172" height="22" rx="3" fill="#30a14e"><title>금: 2030.5점</title></rect><text x="205" y="186" font-size="10" fill="#333333">2030.5</text><text x="24" y="214" text-anchor="end" font-size="12" fill="#333333">토</text><rect x="28" y="198" width="190" height="22" rx="3" fill="#30a14e"><title>토: 2241.5점</title></rect><text x="223" y="214" font-size="10" fill="#333333">2241.5</text>
<text x="28" y="254" font-size="9" fill="#666666">기준: 2026-05-27 20:30</text>
</svg>