<svg xmlns="http://www.w3.org/2000/svg" width="363" height="260">
<text x="181" y="18" text-anchor="middle" font-size="13" font-weight="bold" fill="#e0e0e0">최근 1주 요일별 활동</text>
<text x="24" y="46" text-anchor="end" font-size="12" fill="#cccccc">일</text><rect x="28" y="30" width="157" height="22" rx="3" fill="#30a14e"><title>일: 1001.9점</title></rect><text x="190" y="46" font-size="10" fill="#cccccc">1001.9</text><text x="24" y="74" text-anchor="end" font-size="12" fill="#cccccc">월</text><rect x="28" y="58" width="280" height="22" rx="3" fill="#216e39"><title>월: 1782.3점</title></rect><text x="313" y="74" font-size="10" fill="#cccccc">1782.3</text><text x="24" y="102" text-anchor="end" font-size="12" fill="#cccccc">화</text><rect x="28" y="86" width="200" height="22" rx="3" fill="#30a14e"><title>화: 1275.6점</title></rect><text x="233" y="102" font-size="10" fill="#cccccc">1275.6</text><text x="24" y="130" text-anchor="end" font-size="12" fill="#cccccc">수</text><rect x="28" y="114" width="231" height="22" rx="3" fill="#216e39"><title>수: 1472.2점</title></rect><text x="264" y="130" font-size="10" fill="#cccccc">1472.2</text><text x="24" y="158" text-anchor="end" font-size="12" fill="#cccccc">목</text><rect x="28" y="142" width="184" height="22" rx="3" fill="#30a14e"><title>목: 1177.2점</title></rect><text x="217" y="158" font-size="10" fill="#cccccc">1177.2</text><text x="24" y="186" text-anchor="end" font-size="12" fill="#cccccc">금</text><rect x="28" y="170" width="211" height="22" rx="3" fill="#216e39"><title>금: 1346.5점</title></rect><text x="244" y="186" font-size="10" fill="#cccccc">1346.5</text><text x="24" y="214" text-anchor="end" font-size="12" fill="#cccccc">토</text><rect x="28" y="198" width="266" height="22" rx="3" fill="#216e39"><title>토: 1695.7점</title></rect><text x="299" y="214" font-size="10" fill="#cccccc">1695.7</text>
<text x="28" y="254" font-size="9" fill="#999999">기준: 2026-06-21 22:36</text>
</svg>