<svg xmlns="http://www.w3.org/2000/svg" width="363" height="260">
<text x="181" y="18" text-anchor="middle" font-size="13" font-weight="bold" fill="#e0e0e0">최근 2주 요일별 활동</text>
<text x="24" y="46" text-anchor="end" font-size="12" fill="#cccccc">일</text><rect x="28" y="30" width="166" height="22" rx="3" fill="#30a14e"><title>일: 2970.4점</title></rect><text x="199" y="46" font-size="10" fill="#cccccc">2970.4</text><text x="24" y="74" text-anchor="end" font-size="12" fill="#cccccc">월</text><rect x="28" y="58" width="86" height="22" rx="3" fill="#40c463"><title>월: 1544.7점</title></rect><text x="119" y="74" font-size="10" fill="#cccccc">1544.7</text><text x="24" y="102" text-anchor="end" font-size="12" fill="#cccccc">화</text><rect x="28" y="86" width="280" height="22" rx="3" fill="#216e39"><title>화: 4986.8점</title></rect><text x="313" y="102" font-size="10" fill="#cccccc">4986.8</text><text x="24" y="130" text-anchor="end" font-size="12" fill="#cccccc">수</text><rect x="28" y="114" width="251" height="22" rx="3" fill="#216e39"><title>수: 4477.0점</title></rect><text x="284" y="130" font-size="10" fill="#cccccc">4477.0</text><text x="24" y="158" text-anchor="end" font-size="12" fill="#cccccc">목</text><rect x="28" y="142" width="237" height="22" rx="3" fill="#216e39"><title>목: 4235.0점</title></rect><text x="270" y="158" font-size="10" fill="#cccccc">4235.0</text><text x="24" y="186" text-anchor="end" font-size="12" fill="#cccccc">금</text><rect x="28" y="170" width="206" height="22" rx="3" fill="#30a14e"><title>금: 3685.0점</title></rect><text x="239" y="186" font-size="10" fill="#cccccc">3685.0</text><text x="24" y="214" text-anchor="end" font-size="12" fill="#cccccc">토</text><rect x="28" y="198" width="237" height="22" rx="3" fill="#216e39"><title>토: 4235.0점</title></rect><text x="270" y="214" font-size="10" fill="#cccccc">4235.0</text>
<text x="28" y="254" font-size="9" fill="#999999">기준: 2026-06-08 05:03</text>
</svg>