<svg xmlns="http://www.w3.org/2000/svg" width="363" height="260">
<text x="181" y="18" text-anchor="middle" font-size="13" font-weight="bold" fill="#111111">최근 1달 요일별 활동</text>
<text x="24" y="46" text-anchor="end" font-size="12" fill="#333333">일</text><rect x="28" y="30" width="280" height="22" rx="3" fill="#216e39"><title>일: 72414.4점</title></rect><text x="313" y="46" font-size="10" fill="#333333">72414.4</text><text x="24" y="74" text-anchor="end" font-size="12" fill="#333333">월</text><rect x="28" y="58" width="242" height="22" rx="3" fill="#216e39"><title>월: 62615.9점</title></rect><text x="275" y="74" font-size="10" fill="#333333">62615.9</text><text x="24" y="102" text-anchor="end" font-size="12" fill="#333333">화</text><rect x="28" y="86" width="244" height="22" rx="3" fill="#216e39"><title>화: 63318.2점</title></rect><text x="277" y="102" font-size="10" fill="#333333">63318.2</text><text x="24" y="130" text-anchor="end" font-size="12" fill="#333333">수</text><rect x="28" y="114" width="259" height="22" rx="3" fill="#216e39"><title>수: 67093.4점</title></rect><text x="292" y="130" font-size="10" fill="#333333">67093.4</text><text x="24" y="158" text-anchor="end" font-size="12" fill="#333333">목</text><rect x="28" y="142" width="131" height="22" rx="3" fill="#40c463"><title>목: 34022.7점</title></rect><text x="164" y="158" font-size="10" fill="#333333">34022.7</text><text x="24" y="186" text-anchor="end" font-size="12" fill="#333333">금</text><rect x="28" y="170" width="146" height="22" rx="3" fill="#30a14e"><title>금: 37802.1점</title></rect><text x="179" y="186" font-size="10" fill="#333333">37802.1</text><text x="24" y="214" text-anchor="end" font-size="12" fill="#333333">토</text><rect x="28" y="198" width="168" height="22" rx="3" fill="#30a14e"><title>토: 43610.9점</title></rect><text x="201" y="214" font-size="10" fill="#333333">43610.9</text>
<text x="28" y="254" font-size="9" fill="#666666">기준: 2026-07-13 15:13</text>
</svg>