<svg xmlns="http://www.w3.org/2000/svg" width="363" height="260">
<text x="181" y="18" text-anchor="middle" font-size="13" font-weight="bold" fill="#111111">최근 2주 요일별 활동</text>
<text x="24" y="46" text-anchor="end" font-size="12" fill="#333333">일</text><rect x="28" y="30" width="230" height="22" rx="3" fill="#216e39"><title>일: 5896.0점</title></rect><text x="263" y="46" font-size="10" fill="#333333">5896.0</text><text x="24" y="74" text-anchor="end" font-size="12" fill="#333333">월</text><rect x="28" y="58" width="141" height="22" rx="3" fill="#30a14e"><title>월: 3630.3점</title></rect><text x="174" y="74" font-size="10" fill="#333333">3630.3</text><text x="24" y="102" text-anchor="end" font-size="12" fill="#333333">화</text><rect x="28" y="86" width="123" height="22" rx="3" fill="#40c463"><title>화: 3169.5점</title></rect><text x="156" y="102" font-size="10" fill="#333333">3169.5</text><text x="24" y="130" text-anchor="end" font-size="12" fill="#333333">수</text><rect x="28" y="114" width="105" height="22" rx="3" fill="#40c463"><title>수: 2695.0점</title></rect><text x="138" y="130" font-size="10" fill="#333333">2695.0</text><text x="24" y="158" text-anchor="end" font-size="12" fill="#333333">목</text><rect x="28" y="142" width="88" height="22" rx="3" fill="#40c463"><title>목: 2255.0점</title></rect><text x="121" y="158" font-size="10" fill="#333333">2255.0</text><text x="24" y="186" text-anchor="end" font-size="12" fill="#333333">금</text><rect x="28" y="170" width="70" height="22" rx="3" fill="#40c463"><title>금: 1815.0점</title></rect><text x="103" y="186" font-size="10" fill="#333333">1815.0</text><text x="24" y="214" text-anchor="end" font-size="12" fill="#333333">토</text><rect x="28" y="198" width="280" height="22" rx="3" fill="#216e39"><title>토: 7161.0점</title></rect><text x="313" y="214" font-size="10" fill="#333333">7161.0</text>
<text x="28" y="254" font-size="9" fill="#666666">기준: 2026-06-05 04:49</text>
</svg>