<svg xmlns="http://www.w3.org/2000/svg" width="363" height="260">
<text x="181" y="18" text-anchor="middle" font-size="13" font-weight="bold" fill="#111111">최근 1주 요일별 활동</text>
<text x="24" y="46" text-anchor="end" font-size="12" fill="#333333">일</text><rect x="28" y="30" width="98" height="22" rx="3" fill="#40c463"><title>일: 1805.7점</title></rect><text x="131" y="46" font-size="10" fill="#333333">1805.7</text><text x="24" y="74" text-anchor="end" font-size="12" fill="#333333">월</text><rect x="28" y="58" width="77" height="22" rx="3" fill="#40c463"><title>월: 1418.8점</title></rect><text x="110" y="74" font-size="10" fill="#333333">1418.8</text><text x="24" y="102" text-anchor="end" font-size="12" fill="#333333">화</text><rect x="28" y="86" width="42" height="22" rx="3" fill="#9be9a8"><title>화: 781.0점</title></rect><text x="75" y="102" font-size="10" fill="#333333">781.0</text><text x="24" y="130" text-anchor="end" font-size="12" fill="#333333">수</text><rect x="28" y="114" width="5" height="22" rx="3" fill="#9be9a8"><title>수: 97.8점</title></rect><text x="38" y="130" font-size="10" fill="#333333">97.8</text><text x="24" y="158" text-anchor="end" font-size="12" fill="#333333">목</text><rect x="28" y="142" width="280" height="22" rx="3" fill="#216e39"><title>목: 5120.3점</title></rect><text x="313" y="158" font-size="10" fill="#333333">5120.3</text><text x="24" y="186" text-anchor="end" font-size="12" fill="#333333">금</text><rect x="28" y="170" width="224" height="22" rx="3" fill="#216e39"><title>금: 4106.0점</title></rect><text x="257" y="186" font-size="10" fill="#333333">4106.0</text><text x="24" y="214" text-anchor="end" font-size="12" fill="#333333">토</text><rect x="28" y="198" width="109" height="22" rx="3" fill="#40c463"><title>토: 1998.7점</title></rect><text x="142" y="214" font-size="10" fill="#333333">1998.7</text>
<text x="28" y="254" font-size="9" fill="#666666">기준: 2026-07-01 17:24</text>
</svg>