<svg xmlns="http://www.w3.org/2000/svg" width="363" height="260">
<text x="181" y="18" text-anchor="middle" font-size="13" font-weight="bold" fill="#111111">최근 1달 요일별 활동</text>
<text x="24" y="46" text-anchor="end" font-size="12" fill="#333333">일</text><rect x="28" y="30" width="193" height="22" rx="3" fill="#30a14e"><title>일: 48503.1점</title></rect><text x="226" y="46" font-size="10" fill="#333333">48503.1</text><text x="24" y="74" text-anchor="end" font-size="12" fill="#333333">월</text><rect x="28" y="58" width="163" height="22" rx="3" fill="#30a14e"><title>월: 41044.8점</title></rect><text x="196" y="74" font-size="10" fill="#333333">41044.8</text><text x="24" y="102" text-anchor="end" font-size="12" fill="#333333">화</text><rect x="28" y="86" width="280" height="22" rx="3" fill="#216e39"><title>화: 70122.6점</title></rect><text x="313" y="102" font-size="10" fill="#333333">70122.6</text><text x="24" y="130" text-anchor="end" font-size="12" fill="#333333">수</text><rect x="28" y="114" width="241" height="22" rx="3" fill="#216e39"><title>수: 60455.3점</title></rect><text x="274" y="130" font-size="10" fill="#333333">60455.3</text><text x="24" y="158" text-anchor="end" font-size="12" fill="#333333">목</text><rect x="28" y="142" width="118" height="22" rx="3" fill="#40c463"><title>목: 29568.2점</title></rect><text x="151" y="158" font-size="10" fill="#333333">29568.2</text><text x="24" y="186" text-anchor="end" font-size="12" fill="#333333">금</text><rect x="28" y="170" width="129" height="22" rx="3" fill="#40c463"><title>금: 32415.1점</title></rect><text x="162" y="186" font-size="10" fill="#333333">32415.1</text><text x="24" y="214" text-anchor="end" font-size="12" fill="#333333">토</text><rect x="28" y="198" width="184" height="22" rx="3" fill="#30a14e"><title>토: 46271.4점</title></rect><text x="217" y="214" font-size="10" fill="#333333">46271.4</text>
<text x="28" y="254" font-size="9" fill="#666666">기준: 2026-07-08 16:51</text>
</svg>