<svg xmlns="http://www.w3.org/2000/svg" width="363" height="260">
<text x="181" y="18" text-anchor="middle" font-size="13" font-weight="bold" fill="#111111">최근 1달 요일별 활동</text>
<text x="24" y="46" text-anchor="end" font-size="12" fill="#333333">일</text><rect x="28" y="30" width="253" height="22" rx="3" fill="#216e39"><title>일: 28370.8점</title></rect><text x="286" y="46" font-size="10" fill="#333333">28370.8</text><text x="24" y="74" text-anchor="end" font-size="12" fill="#333333">월</text><rect x="28" y="58" width="164" height="22" rx="3" fill="#30a14e"><title>월: 18359.3점</title></rect><text x="197" y="74" font-size="10" fill="#333333">18359.3</text><text x="24" y="102" text-anchor="end" font-size="12" fill="#333333">화</text><rect x="28" y="86" width="246" height="22" rx="3" fill="#216e39"><title>화: 27575.9점</title></rect><text x="279" y="102" font-size="10" fill="#333333">27575.9</text><text x="24" y="130" text-anchor="end" font-size="12" fill="#333333">수</text><rect x="28" y="114" width="252" height="22" rx="3" fill="#216e39"><title>수: 28278.6점</title></rect><text x="285" y="130" font-size="10" fill="#333333">28278.6</text><text x="24" y="158" text-anchor="end" font-size="12" fill="#333333">목</text><rect x="28" y="142" width="191" height="22" rx="3" fill="#30a14e"><title>목: 21386.1점</title></rect><text x="224" y="158" font-size="10" fill="#333333">21386.1</text><text x="24" y="186" text-anchor="end" font-size="12" fill="#333333">금</text><rect x="28" y="170" width="193" height="22" rx="3" fill="#30a14e"><title>금: 21603.2점</title></rect><text x="226" y="186" font-size="10" fill="#333333">21603.2</text><text x="24" y="214" text-anchor="end" font-size="12" fill="#333333">토</text><rect x="28" y="198" width="280" height="22" rx="3" fill="#216e39"><title>토: 31296.9점</title></rect><text x="313" y="214" font-size="10" fill="#333333">31296.9</text>
<text x="28" y="254" font-size="9" fill="#666666">기준: 2026-06-25 20:23</text>
</svg>