<svg xmlns="http://www.w3.org/2000/svg" width="363" height="260">
<text x="181" y="18" text-anchor="middle" font-size="13" font-weight="bold" fill="#e0e0e0">최근 2주 요일별 활동</text>
<text x="24" y="46" text-anchor="end" font-size="12" fill="#cccccc">일</text><rect x="28" y="30" width="280" height="22" rx="3" fill="#216e39"><title>일: 15269.3점</title></rect><text x="313" y="46" font-size="10" fill="#cccccc">15269.3</text><text x="24" y="74" text-anchor="end" font-size="12" fill="#cccccc">월</text><rect x="28" y="58" width="212" height="22" rx="3" fill="#216e39"><title>월: 11590.7점</title></rect><text x="245" y="74" font-size="10" fill="#cccccc">11590.7</text><text x="24" y="102" text-anchor="end" font-size="12" fill="#cccccc">화</text><rect x="28" y="86" width="189" height="22" rx="3" fill="#30a14e"><title>화: 10323.2점</title></rect><text x="222" y="102" font-size="10" fill="#cccccc">10323.2</text><text x="24" y="130" text-anchor="end" font-size="12" fill="#cccccc">수</text><rect x="28" y="114" width="185" height="22" rx="3" fill="#30a14e"><title>수: 10130.7점</title></rect><text x="218" y="130" font-size="10" fill="#cccccc">10130.7</text><text x="24" y="158" text-anchor="end" font-size="12" fill="#cccccc">목</text><rect x="28" y="142" width="91" height="22" rx="3" fill="#40c463"><title>목: 4996.1점</title></rect><text x="124" y="158" font-size="10" fill="#cccccc">4996.1</text><text x="24" y="186" text-anchor="end" font-size="12" fill="#cccccc">금</text><rect x="28" y="170" width="97" height="22" rx="3" fill="#40c463"><title>금: 5326.9점</title></rect><text x="130" y="186" font-size="10" fill="#cccccc">5326.9</text><text x="24" y="214" text-anchor="end" font-size="12" fill="#cccccc">토</text><rect x="28" y="198" width="140" height="22" rx="3" fill="#30a14e"><title>토: 7655.5점</title></rect><text x="173" y="214" font-size="10" fill="#cccccc">7655.5</text>
<text x="28" y="254" font-size="9" fill="#999999">기준: 2026-06-27 14:08</text>
</svg>