<svg xmlns="http://www.w3.org/2000/svg" width="363" height="260">
<text x="181" y="18" text-anchor="middle" font-size="13" font-weight="bold" fill="#111111">최근 2주 요일별 활동</text>
<text x="24" y="46" text-anchor="end" font-size="12" fill="#333333">일</text><rect x="28" y="30" width="223" height="22" rx="3" fill="#216e39"><title>일: 4734.1점</title></rect><text x="256" y="46" font-size="10" fill="#333333">4734.1</text><text x="24" y="74" text-anchor="end" font-size="12" fill="#333333">월</text><rect x="28" y="58" width="120" height="22" rx="3" fill="#40c463"><title>월: 2546.6점</title></rect><text x="153" y="74" font-size="10" fill="#333333">2546.6</text><text x="24" y="102" text-anchor="end" font-size="12" fill="#333333">화</text><rect x="28" y="86" width="130" height="22" rx="3" fill="#40c463"><title>화: 2767.4점</title></rect><text x="163" y="102" font-size="10" fill="#333333">2767.4</text><text x="24" y="130" text-anchor="end" font-size="12" fill="#333333">수</text><rect x="28" y="114" width="76" height="22" rx="3" fill="#40c463"><title>수: 1617.0점</title></rect><text x="109" y="130" font-size="10" fill="#333333">1617.0</text><text x="24" y="158" text-anchor="end" font-size="12" fill="#333333">목</text><rect x="28" y="142" width="257" height="22" rx="3" fill="#216e39"><title>목: 5445.0점</title></rect><text x="290" y="158" font-size="10" fill="#333333">5445.0</text><text x="24" y="186" text-anchor="end" font-size="12" fill="#333333">금</text><rect x="28" y="170" width="231" height="22" rx="3" fill="#216e39"><title>금: 4895.0점</title></rect><text x="264" y="186" font-size="10" fill="#333333">4895.0</text><text x="24" y="214" text-anchor="end" font-size="12" fill="#333333">토</text><rect x="28" y="198" width="280" height="22" rx="3" fill="#216e39"><title>토: 5929.0점</title></rect><text x="313" y="214" font-size="10" fill="#333333">5929.0</text>
<text x="28" y="254" font-size="9" fill="#666666">기준: 2026-06-10 10:35</text>
</svg>