<svg xmlns="http://www.w3.org/2000/svg" width="363" height="260">
<text x="181" y="18" text-anchor="middle" font-size="13" font-weight="bold" fill="#111111">최근 1달 요일별 활동</text>
<text x="24" y="46" text-anchor="end" font-size="12" fill="#333333">일</text><rect x="28" y="30" width="280" height="22" rx="3" fill="#216e39"><title>일: 69437.8점</title></rect><text x="313" y="46" font-size="10" fill="#333333">69437.8</text><text x="24" y="74" text-anchor="end" font-size="12" fill="#333333">월</text><rect x="28" y="58" width="242" height="22" rx="3" fill="#216e39"><title>월: 60045.9점</title></rect><text x="275" y="74" font-size="10" fill="#333333">60045.9</text><text x="24" y="102" text-anchor="end" font-size="12" fill="#333333">화</text><rect x="28" y="86" width="244" height="22" rx="3" fill="#216e39"><title>화: 60684.4점</title></rect><text x="277" y="102" font-size="10" fill="#333333">60684.4</text><text x="24" y="130" text-anchor="end" font-size="12" fill="#333333">수</text><rect x="28" y="114" width="258" height="22" rx="3" fill="#216e39"><title>수: 64133.7점</title></rect><text x="291" y="130" font-size="10" fill="#333333">64133.7</text><text x="24" y="158" text-anchor="end" font-size="12" fill="#333333">목</text><rect x="28" y="142" width="131" height="22" rx="3" fill="#40c463"><title>목: 32605.6점</title></rect><text x="164" y="158" font-size="10" fill="#333333">32605.6</text><text x="24" y="186" text-anchor="end" font-size="12" fill="#333333">금</text><rect x="28" y="170" width="145" height="22" rx="3" fill="#30a14e"><title>금: 36033.0점</title></rect><text x="178" y="186" font-size="10" fill="#333333">36033.0</text><text x="24" y="214" text-anchor="end" font-size="12" fill="#333333">토</text><rect x="28" y="198" width="252" height="22" rx="3" fill="#216e39"><title>토: 62668.0점</title></rect><text x="285" y="214" font-size="10" fill="#333333">62668.0</text>
<text x="28" y="254" font-size="9" fill="#666666">기준: 2026-07-12 22:09</text>
</svg>