<svg xmlns="http://www.w3.org/2000/svg" width="363" height="260">
<text x="181" y="18" text-anchor="middle" font-size="13" font-weight="bold" fill="#e0e0e0">최근 1주 요일별 활동</text>
<text x="24" y="46" text-anchor="end" font-size="12" fill="#cccccc">일</text><rect x="28" y="30" width="8" height="22" rx="3" fill="#9be9a8"><title>일: 303.9점</title></rect><text x="41" y="46" font-size="10" fill="#cccccc">303.9</text><text x="24" y="74" text-anchor="end" font-size="12" fill="#cccccc">월</text><rect x="28" y="58" width="277" height="22" rx="3" fill="#216e39"><title>월: 10415.7점</title></rect><text x="310" y="74" font-size="10" fill="#cccccc">10415.7</text><text x="24" y="102" text-anchor="end" font-size="12" fill="#cccccc">화</text><rect x="28" y="86" width="280" height="22" rx="3" fill="#216e39"><title>화: 10498.7점</title></rect><text x="313" y="102" font-size="10" fill="#cccccc">10498.7</text><text x="24" y="130" text-anchor="end" font-size="12" fill="#cccccc">수</text><rect x="28" y="114" width="258" height="22" rx="3" fill="#216e39"><title>수: 9685.7점</title></rect><text x="291" y="130" font-size="10" fill="#cccccc">9685.7</text><text x="24" y="158" text-anchor="end" font-size="12" fill="#cccccc">목</text><rect x="28" y="142" width="80" height="22" rx="3" fill="#40c463"><title>목: 3027.8점</title></rect><text x="113" y="158" font-size="10" fill="#cccccc">3027.8</text><text x="24" y="186" text-anchor="end" font-size="12" fill="#cccccc">금</text><rect x="28" y="170" width="55" height="22" rx="3" fill="#9be9a8"><title>금: 2079.5점</title></rect><text x="88" y="186" font-size="10" fill="#cccccc">2079.5</text><text x="24" y="214" text-anchor="end" font-size="12" fill="#cccccc">토</text><rect x="28" y="198" width="20" height="22" rx="3" fill="#9be9a8"><title>토: 760.0점</title></rect><text x="53" y="214" font-size="10" fill="#cccccc">760.0</text>
<text x="28" y="254" font-size="9" fill="#999999">기준: 2026-06-28 22:16</text>
</svg>