<svg xmlns="http://www.w3.org/2000/svg" width="439" height="181">
<text x="54" y="16" font-size="9" fill="#cccccc">1</text><text x="129" y="16" font-size="9" fill="#cccccc">2</text><text x="189" y="16" font-size="9" fill="#cccccc">3</text><text x="249" y="16" font-size="9" fill="#cccccc">4</text><text x="309" y="16" font-size="9" fill="#cccccc">5</text><text x="384" y="16" font-size="9" fill="#cccccc">6</text><text x="20" y="48" text-anchor="end" font-size="9" fill="#cccccc">월</text><text x="20" y="78" text-anchor="end" font-size="9" fill="#cccccc">수</text><text x="20" y="108" text-anchor="end" font-size="9" fill="#cccccc">금</text><rect x="24" y="22" width="13" height="13" rx="2" fill="#ebedf0"><title>2025-12-14 (0)</title></rect><rect x="24" y="37" width="13" height="13" rx="2" fill="#ebedf0"><title>2025-12-15 (0)</title></rect><rect x="24" y="52" width="13" height="13" rx="2" fill="#ebedf0"><title>2025-12-16 (0)</title></rect><rect x="24" y="67" width="13" height="13" rx="2" fill="#ebedf0"><title>2025-12-17 (0)</title></rect><rect x="24" y="82" width="13" height="13" rx="2" fill="#ebedf0"><title>2025-12-18 (0)</title></rect><rect x="24" y="97" width="13" height="13" rx="2" fill="#40c463"><title>2025-12-19 (3966.3)</title></rect><rect x="24" y="112" width="13" height="13" rx="2" fill="#ebedf0"><title>2025-12-20 (0)</title></rect><rect x="39" y="22" width="13" height="13" rx="2" fill="#ebedf0"><title>2025-12-21 (0)</title></rect><rect x="39" y="37" width="13" height="13" rx="2" fill="#ebedf0"><title>2025-12-22 (0)</title></rect><rect x="39" y="52" width="13" height="13" rx="2" fill="#ebedf0"><title>2025-12-23 (0)</title></rect><rect x="39" y="67" width="13" height="13" rx="2" fill="#30a14e"><title>2025-12-24 (8283.5)</title></rect><rect x="39" y="82" width="13" height="13" rx="2" fill="#ebedf0"><title>2025-12-25 (0)</title></rect><rect x="39" y="97" width="13" height="13" rx="2" fill="#ebedf0"><title>2025-12-26 (0)</title></rect><rect x="39" y="112" width="13" height="13" rx="2" fill="#ebedf0"><title>2025-12-27 (0)</title></rect><rect x="54" y="22" width="13" height="13" rx="2" fill="#ebedf0"><title>2025-12-28 (0)</title></rect><rect x="54" y="37" width="13" height="13" rx="2" fill="#ebedf0"><title>2025-12-29 (0)</title></rect><rect x="54" y="52" width="13" height="13" rx="2" fill="#ebedf0"><title>2025-12-30 (0)</title></rect><rect x="54" y="67" width="13" height="13" rx="2" fill="#ebedf0"><title>2025-12-31 (0)</title></rect><rect x="54" y="82" width="13" height="13" rx="2" fill="#ebedf0"><title>2026-01-01 (0)</title></rect><rect x="54" y="97" width="13" height="13" rx="2" fill="#ebedf0"><title>2026-01-02 (0)</title></rect><rect x="54" y="112" width="13" height="13" rx="2" fill="#ebedf0"><title>2026-01-03 (0)</title></rect><rect x="69" y="22" width="13" height="13" rx="2" fill="#ebedf0"><title>2026-01-04 (0)</title></rect><rect x="69" y="37" width="13" height="13" rx="2" fill="#ebedf0"><title>2026-01-05 (0)</title></rect><rect x="69" y="52" width="13" height="13" rx="2" fill="#ebedf0"><title>2026-01-06 (0)</title></rect><rect x="69" y="67" width="13" height="13" rx="2" fill="#ebedf0"><title>2026-01-07 (0)</title></rect><rect x="69" y="82" width="13" height="13" rx="2" fill="#ebedf0"><title>2026-01-08 (0)</title></rect><rect x="69" y="97" width="13" height="13" rx="2" fill="#ebedf0"><title>2026-01-09 (0)</title></rect><rect x="69" y="112" width="13" height="13" rx="2" fill="#ebedf0"><title>2026-01-10 (0)</title></rect><rect x="84" y="22" width="13" height="13" rx="2" fill="#ebedf0"><title>2026-01-11 (0)</title></rect><rect x="84" y="37" width="13" height="13" rx="2" fill="#ebedf0"><title>2026-01-12 (0)</title></rect><rect x="84" y="52" width="13" height="13" rx="2" fill="#ebedf0"><title>2026-01-13 (0)</title></rect><rect x="84" y="67" width="13" height="13" rx="2" fill="#ebedf0"><title>2026-01-14 (0)</title></rect><rect x="84" y="82" width="13" height="13" rx="2" fill="#ebedf0"><title>2026-01-15 (0)</title></rect><rect x="84" y="97" width="13" height="13" rx="2" fill="#ebedf0"><title>2026-01-16 (0)</title></rect><rect x="84" y="112" width="13" height="13" rx="2" fill="#ebedf0"><title>2026-01-17 (0)</title></rect><rect x="99" y="22" width="13" height="13" rx="2" fill="#9be9a8"><title>2026-01-18 (1892.0)</title></rect><rect x="99" y="37" width="13" height="13" rx="2" fill="#ebedf0"><title>2026-01-19 (0)</title></rect><rect x="99" y="52" width="13" height="13" rx="2" fill="#ebedf0"><title>2026-01-20 (0)</title></rect><rect x="99" y="67" width="13" height="13" rx="2" fill="#40c463"><title>2026-01-21 (3784.0)</title></rect><rect x="99" y="82" width="13" height="13" rx="2" fill="#ebedf0"><title>2026-01-22 (0)</title></rect><rect x="99" y="97" width="13" height="13" rx="2" fill="#40c463"><title>2026-01-23 (3027.2)</title></rect><rect x="99" y="112" width="13" height="13" rx="2" fill="#30a14e"><title>2026-01-24 (5676.0)</title></rect><rect x="114" y="22" width="13" height="13" rx="2" fill="#40c463"><title>2026-01-25 (3784.0)</title></rect><rect x="114" y="37" width="13" height="13" rx="2" fill="#9be9a8"><title>2026-01-26 (1892.0)</title></rect><rect x="114" y="52" width="13" height="13" rx="2" fill="#30a14e"><title>2026-01-27 (6319.3)</title></rect><rect x="114" y="67" width="13" height="13" rx="2" fill="#ebedf0"><title>2026-01-28 (0)</title></rect><rect x="114" y="82" width="13" height="13" rx="2" fill="#ebedf0"><title>2026-01-29 (0)</title></rect><rect x="114" y="97" width="13" height="13" rx="2" fill="#30a14e"><title>2026-01-30 (5676.0)</title></rect><rect x="114" y="112" width="13" height="13" rx="2" fill="#40c463"><title>2026-01-31 (3784.0)</title></rect><rect x="129" y="22" width="13" height="13" rx="2" fill="#40c463"><title>2026-02-01 (3784.0)</title></rect><rect x="129" y="37" width="13" height="13" rx="2" fill="#216e39"><title>2026-02-02 (10547.0)</title></rect><rect x="129" y="52" width="13" height="13" rx="2" fill="#ebedf0"><title>2026-02-03 (0)</title></rect><rect x="129" y="67" width="13" height="13" rx="2" fill="#9be9a8"><title>2026-02-04 (388.7)</title></rect><rect x="129" y="82" width="13" height="13" rx="2" fill="#40c463"><title>2026-02-05 (3921.6)</title></rect><rect x="129" y="97" width="13" height="13" rx="2" fill="#30a14e"><title>2026-02-06 (7626.5)</title></rect><rect x="129" y="112" width="13" height="13" rx="2" fill="#9be9a8"><title>2026-02-07 (2098.4)</title></rect><rect x="144" y="22" width="13" height="13" rx="2" fill="#9be9a8"><title>2026-02-08 (767.1)</title></rect><rect x="144" y="37" width="13" height="13" rx="2" fill="#ebedf0"><title>2026-02-09 (0)</title></rect><rect x="144" y="52" width="13" height="13" rx="2" fill="#ebedf0"><title>2026-02-10 (0)</title></rect><rect x="144" y="67" width="13" height="13" rx="2" fill="#ebedf0"><title>2026-02-11 (0)</title></rect><rect x="144" y="82" width="13" height="13" rx="2" fill="#ebedf0"><title>2026-02-12 (0)</title></rect><rect x="144" y="97" width="13" height="13" rx="2" fill="#ebedf0"><title>2026-02-13 (0)</title></rect><rect x="144" y="112" width="13" height="13" rx="2" fill="#ebedf0"><title>2026-02-14 (0)</title></rect><rect x="159" y="22" width="13" height="13" rx="2" fill="#ebedf0"><title>2026-02-15 (0)</title></rect><rect x="159" y="37" width="13" height="13" rx="2" fill="#ebedf0"><title>2026-02-16 (0)</title></rect><rect x="159" y="52" width="13" height="13" rx="2" fill="#ebedf0"><title>2026-02-17 (0)</title></rect><rect x="159" y="67" width="13" height="13" rx="2" fill="#ebedf0"><title>2026-02-18 (0)</title></rect><rect x="159" y="82" width="13" height="13" rx="2" fill="#ebedf0"><title>2026-02-19 (0)</title></rect><rect x="159" y="97" width="13" height="13" rx="2" fill="#40c463"><title>2026-02-20 (3075.4)</title></rect><rect x="159" y="112" width="13" height="13" rx="2" fill="#ebedf0"><title>2026-02-21 (0)</title></rect><rect x="174" y="22" width="13" height="13" rx="2" fill="#ebedf0"><title>2026-02-22 (0)</title></rect><rect x="174" y="37" width="13" height="13" rx="2" fill="#ebedf0"><title>2026-02-23 (0)</title></rect><rect x="174" y="52" width="13" height="13" rx="2" fill="#ebedf0"><title>2026-02-24 (0)</title></rect><rect x="174" y="67" width="13" height="13" rx="2" fill="#ebedf0"><title>2026-02-25 (0)</title></rect><rect x="174" y="82" width="13" height="13" rx="2" fill="#40c463"><title>2026-02-26 (3718.6)</title></rect><rect x="174" y="97" width="13" height="13" rx="2" fill="#216e39"><title>2026-02-27 (8875.2)</title></rect><rect x="174" y="112" width="13" height="13" rx="2" fill="#40c463"><title>2026-02-28 (4726.6)</title></rect><rect x="189" y="22" width="13" height="13" rx="2" fill="#30a14e"><title>2026-03-01 (6095.7)</title></rect><rect x="189" y="37" width="13" height="13" rx="2" fill="#9be9a8"><title>2026-03-02 (2081.2)</title></rect><rect x="189" y="52" width="13" height="13" rx="2" fill="#ebedf0"><title>2026-03-03 (0)</title></rect><rect x="189" y="67" width="13" height="13" rx="2" fill="#9be9a8"><title>2026-03-04 (1892.0)</title></rect><rect x="189" y="82" width="13" height="13" rx="2" fill="#9be9a8"><title>2026-03-05 (49.2)</title></rect><rect x="189" y="97" width="13" height="13" rx="2" fill="#ebedf0"><title>2026-03-06 (0)</title></rect><rect x="189" y="112" width="13" height="13" rx="2" fill="#ebedf0"><title>2026-03-07 (0)</title></rect><rect x="204" y="22" width="13" height="13" rx="2" fill="#ebedf0"><title>2026-03-08 (0)</title></rect><rect x="204" y="37" width="13" height="13" rx="2" fill="#ebedf0"><title>2026-03-09 (0)</title></rect><rect x="204" y="52" width="13" height="13" rx="2" fill="#ebedf0"><title>2026-03-10 (0)</title></rect><rect x="204" y="67" width="13" height="13" rx="2" fill="#ebedf0"><title>2026-03-11 (0)</title></rect><rect x="204" y="82" width="13" height="13" rx="2" fill="#ebedf0"><title>2026-03-12 (0)</title></rect><rect x="204" y="97" width="13" height="13" rx="2" fill="#40c463"><title>2026-03-13 (3075.3)</title></rect><rect x="204" y="112" width="13" height="13" rx="2" fill="#9be9a8"><title>2026-03-14 (101.4)</title></rect><rect x="219" y="22" width="13" height="13" rx="2" fill="#ebedf0"><title>2026-03-15 (0)</title></rect><rect x="219" y="37" width="13" height="13" rx="2" fill="#40c463"><title>2026-03-16 (3959.4)</title></rect><rect x="219" y="52" width="13" height="13" rx="2" fill="#40c463"><title>2026-03-17 (3629.2)</title></rect><rect x="219" y="67" width="13" height="13" rx="2" fill="#9be9a8"><title>2026-03-18 (64.0)</title></rect><rect x="219" y="82" width="13" height="13" rx="2" fill="#40c463"><title>2026-03-19 (3806.0)</title></rect><rect x="219" y="97" width="13" height="13" rx="2" fill="#9be9a8"><title>2026-03-20 (2242.9)</title></rect><rect x="219" y="112" width="13" height="13" rx="2" fill="#ebedf0"><title>2026-03-21 (0)</title></rect><rect x="234" y="22" width="13" height="13" rx="2" fill="#ebedf0"><title>2026-03-22 (0)</title></rect><rect x="234" y="37" width="13" height="13" rx="2" fill="#30a14e"><title>2026-03-23 (5676.0)</title></rect><rect x="234" y="52" width="13" height="13" rx="2" fill="#9be9a8"><title>2026-03-24 (61.8)</title></rect><rect x="234" y="67" width="13" height="13" rx="2" fill="#ebedf0"><title>2026-03-25 (0)</title></rect><rect x="234" y="82" width="13" height="13" rx="2" fill="#9be9a8"><title>2026-03-26 (1892.0)</title></rect><rect x="234" y="97" width="13" height="13" rx="2" fill="#216e39"><title>2026-03-27 (9828.1)</title></rect><rect x="234" y="112" width="13" height="13" rx="2" fill="#216e39"><title>2026-03-28 (8827.0)</title></rect><rect x="249" y="22" width="13" height="13" rx="2" fill="#9be9a8"><title>2026-03-29 (1892.0)</title></rect><rect x="249" y="37" width="13" height="13" rx="2" fill="#9be9a8"><title>2026-03-30 (2177.5)</title></rect><rect x="249" y="52" width="13" height="13" rx="2" fill="#9be9a8"><title>2026-03-31 (375.0)</title></rect><rect x="249" y="67" width="13" height="13" rx="2" fill="#9be9a8"><title>2026-04-01 (55.0)</title></rect><rect x="249" y="82" width="13" height="13" rx="2" fill="#9be9a8"><title>2026-04-02 (110.9)</title></rect><rect x="249" y="97" width="13" height="13" rx="2" fill="#ebedf0"><title>2026-04-03 (0)</title></rect><rect x="249" y="112" width="13" height="13" rx="2" fill="#ebedf0"><title>2026-04-04 (0)</title></rect><rect x="264" y="22" width="13" height="13" rx="2" fill="#ebedf0"><title>2026-04-05 (0)</title></rect><rect x="264" y="37" width="13" height="13" rx="2" fill="#ebedf0"><title>2026-04-06 (0)</title></rect><rect x="264" y="52" width="13" height="13" rx="2" fill="#9be9a8"><title>2026-04-07 (186.1)</title></rect><rect x="264" y="67" width="13" height="13" rx="2" fill="#ebedf0"><title>2026-04-08 (0)</title></rect><rect x="264" y="82" width="13" height="13" rx="2" fill="#9be9a8"><title>2026-04-09 (7.9)</title></rect><rect x="264" y="97" width="13" height="13" rx="2" fill="#9be9a8"><title>2026-04-10 (1926.2)</title></rect><rect x="264" y="112" width="13" height="13" rx="2" fill="#9be9a8"><title>2026-04-11 (25.5)</title></rect><rect x="279" y="22" width="13" height="13" rx="2" fill="#ebedf0"><title>2026-04-12 (0)</title></rect><rect x="279" y="37" width="13" height="13" rx="2" fill="#9be9a8"><title>2026-04-13 (77.0)</title></rect><rect x="279" y="52" width="13" height="13" rx="2" fill="#9be9a8"><title>2026-04-14 (141.6)</title></rect><rect x="279" y="67" width="13" height="13" rx="2" fill="#9be9a8"><title>2026-04-15 (75.4)</title></rect><rect x="279" y="82" width="13" height="13" rx="2" fill="#ebedf0"><title>2026-04-16 (0)</title></rect><rect x="279" y="97" width="13" height="13" rx="2" fill="#40c463"><title>2026-04-17 (5527.8)</title></rect><rect x="279" y="112" width="13" height="13" rx="2" fill="#40c463"><title>2026-04-18 (3784.0)</title></rect><rect x="294" y="22" width="13" height="13" rx="2" fill="#9be9a8"><title>2026-04-19 (162.2)</title></rect><rect x="294" y="37" width="13" height="13" rx="2" fill="#9be9a8"><title>2026-04-20 (795.2)</title></rect><rect x="294" y="52" width="13" height="13" rx="2" fill="#9be9a8"><title>2026-04-21 (91.0)</title></rect><rect x="294" y="67" width="13" height="13" rx="2" fill="#9be9a8"><title>2026-04-22 (525.3)</title></rect><rect x="294" y="82" width="13" height="13" rx="2" fill="#9be9a8"><title>2026-04-23 (1601.4)</title></rect><rect x="294" y="97" width="13" height="13" rx="2" fill="#40c463"><title>2026-04-24 (3213.0)</title></rect><rect x="294" y="112" width="13" height="13" rx="2" fill="#9be9a8"><title>2026-04-25 (1718.2)</title></rect><rect x="309" y="22" width="13" height="13" rx="2" fill="#40c463"><title>2026-04-26 (2924.8)</title></rect><rect x="309" y="37" width="13" height="13" rx="2" fill="#9be9a8"><title>2026-04-27 (757.4)</title></rect><rect x="309" y="52" width="13" height="13" rx="2" fill="#9be9a8"><title>2026-04-28 (1730.0)</title></rect><rect x="309" y="67" width="13" height="13" rx="2" fill="#40c463"><title>2026-04-29 (3867.7)</title></rect><rect x="309" y="82" width="13" height="13" rx="2" fill="#9be9a8"><title>2026-04-30 (2226.1)</title></rect><rect x="309" y="97" width="13" height="13" rx="2" fill="#9be9a8"><title>2026-05-01 (1148.0)</title></rect><rect x="309" y="112" width="13" height="13" rx="2" fill="#9be9a8"><title>2026-05-02 (131.6)</title></rect><rect x="324" y="22" width="13" height="13" rx="2" fill="#40c463"><title>2026-05-03 (4859.8)</title></rect><rect x="324" y="37" width="13" height="13" rx="2" fill="#9be9a8"><title>2026-05-04 (1934.6)</title></rect><rect x="324" y="52" width="13" height="13" rx="2" fill="#40c463"><title>2026-05-05 (2998.2)</title></rect><rect x="324" y="67" width="13" height="13" rx="2" fill="#40c463"><title>2026-05-06 (4877.3)</title></rect><rect x="324" y="82" width="13" height="13" rx="2" fill="#9be9a8"><title>2026-05-07 (2609.7)</title></rect><rect x="324" y="97" width="13" height="13" rx="2" fill="#9be9a8"><title>2026-05-08 (2218.5)</title></rect><rect x="324" y="112" width="13" height="13" rx="2" fill="#9be9a8"><title>2026-05-09 (980.5)</title></rect><rect x="339" y="22" width="13" height="13" rx="2" fill="#9be9a8"><title>2026-05-10 (1013.6)</title></rect><rect x="339" y="37" width="13" height="13" rx="2" fill="#9be9a8"><title>2026-05-11 (796.2)</title></rect><rect x="339" y="52" width="13" height="13" rx="2" fill="#9be9a8"><title>2026-05-12 (1280.2)</title></rect><rect x="339" y="67" width="13" height="13" rx="2" fill="#9be9a8"><title>2026-05-13 (308.1)</title></rect><rect x="339" y="82" width="13" height="13" rx="2" fill="#9be9a8"><title>2026-05-14 (387.5)</title></rect><rect x="339" y="97" width="13" height="13" rx="2" fill="#9be9a8"><title>2026-05-15 (424.5)</title></rect><rect x="339" y="112" width="13" height="13" rx="2" fill="#9be9a8"><title>2026-05-16 (393.5)</title></rect><rect x="354" y="22" width="13" height="13" rx="2" fill="#40c463"><title>2026-05-17 (4524.1)</title></rect><rect x="354" y="37" width="13" height="13" rx="2" fill="#9be9a8"><title>2026-05-18 (1706.6)</title></rect><rect x="354" y="52" width="13" height="13" rx="2" fill="#216e39"><title>2026-05-19 (10995.8)</title></rect><rect x="354" y="67" width="13" height="13" rx="2" fill="#216e39"><title>2026-05-20 (9489.8)</title></rect><rect x="354" y="82" width="13" height="13" rx="2" fill="#216e39"><title>2026-05-21 (8690.0)</title></rect><rect x="354" y="97" width="13" height="13" rx="2" fill="#30a14e"><title>2026-05-22 (8437.0)</title></rect><rect x="354" y="112" width="13" height="13" rx="2" fill="#216e39"><title>2026-05-23 (11319.0)</title></rect><rect x="369" y="22" width="13" height="13" rx="2" fill="#216e39"><title>2026-05-24 (10780.0)</title></rect><rect x="369" y="37" width="13" height="13" rx="2" fill="#30a14e"><title>2026-05-25 (7370.0)</title></rect><rect x="369" y="52" width="13" height="13" rx="2" fill="#30a14e"><title>2026-05-26 (7111.3)</title></rect><rect x="369" y="67" width="13" height="13" rx="2" fill="#30a14e"><title>2026-05-27 (6844.2)</title></rect><rect x="369" y="82" width="13" height="13" rx="2" fill="#30a14e"><title>2026-05-28 (6557.5)</title></rect><rect x="369" y="97" width="13" height="13" rx="2" fill="#30a14e"><title>2026-05-29 (6310.4)</title></rect><rect x="369" y="112" width="13" height="13" rx="2" fill="#30a14e"><title>2026-05-30 (8316.0)</title></rect><rect x="384" y="22" width="13" height="13" rx="2" fill="#30a14e"><title>2026-05-31 (6699.0)</title></rect><rect x="384" y="37" width="13" height="13" rx="2" fill="#40c463"><title>2026-06-01 (4447.8)</title></rect><rect x="384" y="52" width="13" height="13" rx="2" fill="#40c463"><title>2026-06-02 (4257.1)</title></rect><rect x="384" y="67" width="13" height="13" rx="2" fill="#40c463"><title>2026-06-03 (3894.0)</title></rect><rect x="384" y="82" width="13" height="13" rx="2" fill="#40c463"><title>2026-06-04 (4643.0)</title></rect><rect x="384" y="97" width="13" height="13" rx="2" fill="#40c463"><title>2026-06-05 (4345.0)</title></rect><rect x="384" y="112" width="13" height="13" rx="2" fill="#40c463"><title>2026-06-06 (5621.0)</title></rect><rect x="399" y="22" width="13" height="13" rx="2" fill="#30a14e"><title>2026-06-07 (6372.8)</title></rect><rect x="399" y="37" width="13" height="13" rx="2" fill="#40c463"><title>2026-06-08 (3355.0)</title></rect><rect x="399" y="52" width="13" height="13" rx="2" fill="#216e39"><title>2026-06-09 (10619.6)</title></rect><rect x="399" y="67" width="13" height="13" rx="2" fill="#40c463"><title>2026-06-10 (5417.3)</title></rect><rect x="399" y="82" width="13" height="13" rx="2" fill="#9be9a8"><title>2026-06-11 (2530.0)</title></rect><rect x="399" y="97" width="13" height="13" rx="2" fill="#9be9a8"><title>2026-06-12 (2282.1)</title></rect><rect x="399" y="112" width="13" height="13" rx="2" fill="#40c463"><title>2026-06-13 (4466.3)</title></rect><rect x="414" y="22" width="13" height="13" rx="2" fill="#9be9a8"><title>2026-06-14 (1960.3)</title></rect><rect x="414" y="37" width="13" height="13" rx="2" fill="#9be9a8"><title>2026-06-15 (1275.3)</title></rect><rect x="414" y="52" width="13" height="13" rx="2" fill="#9be9a8"><title>2026-06-16 (906.3)</title></rect><rect x="414" y="67" width="13" height="13" rx="2" fill="#9be9a8"><title>2026-06-17 (910.4)</title></rect><rect x="414" y="82" width="13" height="13" rx="2" fill="#9be9a8"><title>2026-06-18 (631.4)</title></rect><rect x="414" y="97" width="13" height="13" rx="2" fill="#9be9a8"><title>2026-06-19 (524.6)</title></rect><rect x="414" y="112" width="13" height="13" rx="2" fill="#9be9a8"><title>2026-06-20 (218.5)</title></rect><text x="24" y="145" font-size="9" fill="#cccccc">적음</text><rect x="52" y="135" width="13" height="13" rx="2" fill="#ebedf0"/><rect x="67" y="135" width="13" height="13" rx="2" fill="#9be9a8"/><rect x="82" y="135" width="13" height="13" rx="2" fill="#40c463"/><rect x="97" y="135" width="13" height="13" rx="2" fill="#30a14e"/><rect x="112" y="135" width="13" height="13" rx="2" fill="#216e39"/><text x="131" y="145" font-size="9" fill="#cccccc">많음</text><text x="24" y="163" font-size="9" fill="#cccccc">기준: 2026-06-20 16:53</text>
</svg>