<svg xmlns="http://www.w3.org/2000/svg" width="363" height="260">
<text x="181" y="18" text-anchor="middle" font-size="13" font-weight="bold" fill="#111111">최근 2주 요일별 활동</text>
<text x="24" y="46" text-anchor="end" font-size="12" fill="#333333">일</text><rect x="28" y="30" width="280" height="22" rx="3" fill="#216e39"><title>일: 27938.3점</title></rect><text x="313" y="46" font-size="10" fill="#333333">27938.3</text><text x="24" y="74" text-anchor="end" font-size="12" fill="#333333">월</text><rect x="28" y="58" width="235" height="22" rx="3" fill="#216e39"><title>월: 23449.5점</title></rect><text x="268" y="74" font-size="10" fill="#333333">23449.5</text><text x="24" y="102" text-anchor="end" font-size="12" fill="#333333">화</text><rect x="28" y="86" width="241" height="22" rx="3" fill="#216e39"><title>화: 24064.1점</title></rect><text x="274" y="102" font-size="10" fill="#333333">24064.1</text><text x="24" y="130" text-anchor="end" font-size="12" fill="#333333">수</text><rect x="28" y="114" width="230" height="22" rx="3" fill="#216e39"><title>수: 23044.7점</title></rect><text x="263" y="130" font-size="10" fill="#333333">23044.7</text><text x="24" y="158" text-anchor="end" font-size="12" fill="#333333">목</text><rect x="28" y="142" width="87" height="22" rx="3" fill="#40c463"><title>목: 8745.3점</title></rect><text x="120" y="158" font-size="10" fill="#333333">8745.3</text><text x="24" y="186" text-anchor="end" font-size="12" fill="#333333">금</text><rect x="28" y="170" width="71" height="22" rx="3" fill="#40c463"><title>금: 7167.9점</title></rect><text x="104" y="186" font-size="10" fill="#333333">7167.9</text><text x="24" y="214" text-anchor="end" font-size="12" fill="#333333">토</text><rect x="28" y="198" width="37" height="22" rx="3" fill="#9be9a8"><title>토: 3789.0점</title></rect><text x="70" y="214" font-size="10" fill="#333333">3789.0</text>
<text x="28" y="254" font-size="9" fill="#666666">기준: 2026-07-04 16:16</text>
</svg>