<svg xmlns="http://www.w3.org/2000/svg" width="363" height="260">
<text x="181" y="18" text-anchor="middle" font-size="13" font-weight="bold" fill="#111111">최근 1달 요일별 활동</text>
<text x="24" y="46" text-anchor="end" font-size="12" fill="#333333">일</text><rect x="28" y="30" width="280" height="22" rx="3" fill="#216e39"><title>일: 56933.6점</title></rect><text x="313" y="46" font-size="10" fill="#333333">56933.6</text><text x="24" y="74" text-anchor="end" font-size="12" fill="#333333">월</text><rect x="28" y="58" width="240" height="22" rx="3" fill="#216e39"><title>월: 48858.5점</title></rect><text x="273" y="74" font-size="10" fill="#333333">48858.5</text><text x="24" y="102" text-anchor="end" font-size="12" fill="#333333">화</text><rect x="28" y="86" width="237" height="22" rx="3" fill="#216e39"><title>화: 48393.5점</title></rect><text x="270" y="102" font-size="10" fill="#333333">48393.5</text><text x="24" y="130" text-anchor="end" font-size="12" fill="#333333">수</text><rect x="28" y="114" width="247" height="22" rx="3" fill="#216e39"><title>수: 50321.9점</title></rect><text x="280" y="130" font-size="10" fill="#333333">50321.9</text><text x="24" y="158" text-anchor="end" font-size="12" fill="#333333">목</text><rect x="28" y="142" width="174" height="22" rx="3" fill="#30a14e"><title>목: 35421.0점</title></rect><text x="207" y="158" font-size="10" fill="#333333">35421.0</text><text x="24" y="186" text-anchor="end" font-size="12" fill="#333333">금</text><rect x="28" y="170" width="189" height="22" rx="3" fill="#30a14e"><title>금: 38482.1점</title></rect><text x="222" y="186" font-size="10" fill="#333333">38482.1</text><text x="24" y="214" text-anchor="end" font-size="12" fill="#333333">토</text><rect x="28" y="198" width="260" height="22" rx="3" fill="#216e39"><title>토: 52943.0점</title></rect><text x="293" y="214" font-size="10" fill="#333333">52943.0</text>
<text x="28" y="254" font-size="9" fill="#666666">기준: 2026-07-10 22:18</text>
</svg>