<svg xmlns="http://www.w3.org/2000/svg" width="363" height="260">
<text x="181" y="18" text-anchor="middle" font-size="13" font-weight="bold" fill="#e0e0e0">최근 2주 요일별 활동</text>
<text x="24" y="46" text-anchor="end" font-size="12" fill="#cccccc">일</text><rect x="28" y="30" width="227" height="22" rx="3" fill="#216e39"><title>일: 4144.1점</title></rect><text x="260" y="46" font-size="10" fill="#cccccc">4144.1</text><text x="24" y="74" text-anchor="end" font-size="12" fill="#cccccc">월</text><rect x="28" y="58" width="113" height="22" rx="3" fill="#40c463"><title>월: 2058.7점</title></rect><text x="146" y="74" font-size="10" fill="#cccccc">2058.7</text><text x="24" y="102" text-anchor="end" font-size="12" fill="#cccccc">화</text><rect x="28" y="86" width="280" height="22" rx="3" fill="#216e39"><title>화: 5093.4점</title></rect><text x="313" y="102" font-size="10" fill="#cccccc">5093.4</text><text x="24" y="130" text-anchor="end" font-size="12" fill="#cccccc">수</text><rect x="28" y="114" width="224" height="22" rx="3" fill="#216e39"><title>수: 4084.2점</title></rect><text x="257" y="130" font-size="10" fill="#cccccc">4084.2</text><text x="24" y="158" text-anchor="end" font-size="12" fill="#cccccc">목</text><rect x="28" y="142" width="184" height="22" rx="3" fill="#30a14e"><title>목: 3355.0점</title></rect><text x="217" y="158" font-size="10" fill="#cccccc">3355.0</text><text x="24" y="186" text-anchor="end" font-size="12" fill="#cccccc">금</text><rect x="28" y="170" width="154" height="22" rx="3" fill="#30a14e"><title>금: 2805.0점</title></rect><text x="187" y="186" font-size="10" fill="#cccccc">2805.0</text><text x="24" y="214" text-anchor="end" font-size="12" fill="#cccccc">토</text><rect x="28" y="198" width="168" height="22" rx="3" fill="#30a14e"><title>토: 3069.0점</title></rect><text x="201" y="214" font-size="10" fill="#cccccc">3069.0</text>
<text x="28" y="254" font-size="9" fill="#999999">기준: 2026-05-30 14:07</text>
</svg>