<svg xmlns="http://www.w3.org/2000/svg" width="363" height="260">
<text x="181" y="18" text-anchor="middle" font-size="13" font-weight="bold" fill="#111111">최근 1달 요일별 활동</text>
<text x="24" y="46" text-anchor="end" font-size="12" fill="#333333">일</text><rect x="28" y="30" width="280" height="22" rx="3" fill="#216e39"><title>일: 13525.3점</title></rect><text x="313" y="46" font-size="10" fill="#333333">13525.3</text><text x="24" y="74" text-anchor="end" font-size="12" fill="#333333">월</text><rect x="28" y="58" width="159" height="22" rx="3" fill="#30a14e"><title>월: 7722.9점</title></rect><text x="192" y="74" font-size="10" fill="#333333">7722.9</text><text x="24" y="102" text-anchor="end" font-size="12" fill="#333333">화</text><rect x="28" y="86" width="278" height="22" rx="3" fill="#216e39"><title>화: 13473.6점</title></rect><text x="311" y="102" font-size="10" fill="#333333">13473.6</text><text x="24" y="130" text-anchor="end" font-size="12" fill="#333333">수</text><rect x="28" y="114" width="229" height="22" rx="3" fill="#216e39"><title>수: 11079.9점</title></rect><text x="262" y="130" font-size="10" fill="#333333">11079.9</text><text x="24" y="158" text-anchor="end" font-size="12" fill="#333333">목</text><rect x="28" y="142" width="214" height="22" rx="3" fill="#216e39"><title>목: 10342.5점</title></rect><text x="247" y="158" font-size="10" fill="#333333">10342.5</text><text x="24" y="186" text-anchor="end" font-size="12" fill="#333333">금</text><rect x="28" y="170" width="196" height="22" rx="3" fill="#30a14e"><title>금: 9510.5점</title></rect><text x="229" y="186" font-size="10" fill="#333333">9510.5</text><text x="24" y="214" text-anchor="end" font-size="12" fill="#333333">토</text><rect x="28" y="198" width="244" height="22" rx="3" fill="#216e39"><title>토: 11789.5점</title></rect><text x="277" y="214" font-size="10" fill="#333333">11789.5</text>
<text x="28" y="254" font-size="9" fill="#666666">기준: 2026-06-08 20:36</text>
</svg>