<svg xmlns="http://www.w3.org/2000/svg" width="363" height="260">
<text x="181" y="18" text-anchor="middle" font-size="13" font-weight="bold" fill="#e0e0e0">최근 2주 요일별 활동</text>
<text x="24" y="46" text-anchor="end" font-size="12" fill="#cccccc">일</text><rect x="28" y="30" width="206" height="22" rx="3" fill="#30a14e"><title>일: 7842.9점</title></rect><text x="239" y="46" font-size="10" fill="#cccccc">7842.9</text><text x="24" y="74" text-anchor="end" font-size="12" fill="#cccccc">월</text><rect x="28" y="58" width="133" height="22" rx="3" fill="#40c463"><title>월: 5090.4점</title></rect><text x="166" y="74" font-size="10" fill="#cccccc">5090.4</text><text x="24" y="102" text-anchor="end" font-size="12" fill="#cccccc">화</text><rect x="28" y="86" width="90" height="22" rx="3" fill="#40c463"><title>화: 3459.2점</title></rect><text x="123" y="102" font-size="10" fill="#cccccc">3459.2</text><text x="24" y="130" text-anchor="end" font-size="12" fill="#cccccc">수</text><rect x="28" y="114" width="63" height="22" rx="3" fill="#9be9a8"><title>수: 2433.2점</title></rect><text x="96" y="130" font-size="10" fill="#cccccc">2433.2</text><text x="24" y="158" text-anchor="end" font-size="12" fill="#cccccc">목</text><rect x="28" y="142" width="144" height="22" rx="3" fill="#30a14e"><title>목: 5502.6점</title></rect><text x="177" y="158" font-size="10" fill="#cccccc">5502.6</text><text x="24" y="186" text-anchor="end" font-size="12" fill="#cccccc">금</text><rect x="28" y="170" width="159" height="22" rx="3" fill="#30a14e"><title>금: 6061.4점</title></rect><text x="192" y="186" font-size="10" fill="#cccccc">6061.4</text><text x="24" y="214" text-anchor="end" font-size="12" fill="#cccccc">토</text><rect x="28" y="198" width="280" height="22" rx="3" fill="#216e39"><title>토: 10651.6점</title></rect><text x="313" y="214" font-size="10" fill="#cccccc">10651.6</text>
<text x="28" y="254" font-size="9" fill="#999999">기준: 2026-06-24 09:52</text>
</svg>