<svg xmlns="http://www.w3.org/2000/svg" width="363" height="260">
<text x="181" y="18" text-anchor="middle" font-size="13" font-weight="bold" fill="#111111">최근 2주 요일별 활동</text>
<text x="24" y="46" text-anchor="end" font-size="12" fill="#333333">일</text><rect x="28" y="30" width="190" height="22" rx="3" fill="#30a14e"><title>일: 9802.4점</title></rect><text x="223" y="46" font-size="10" fill="#333333">9802.4</text><text x="24" y="74" text-anchor="end" font-size="12" fill="#333333">월</text><rect x="28" y="58" width="206" height="22" rx="3" fill="#30a14e"><title>월: 10626.1점</title></rect><text x="239" y="74" font-size="10" fill="#333333">10626.1</text><text x="24" y="102" text-anchor="end" font-size="12" fill="#333333">화</text><rect x="28" y="86" width="194" height="22" rx="3" fill="#30a14e"><title>화: 10031.5점</title></rect><text x="227" y="102" font-size="10" fill="#333333">10031.5</text><text x="24" y="130" text-anchor="end" font-size="12" fill="#333333">수</text><rect x="28" y="114" width="191" height="22" rx="3" fill="#30a14e"><title>수: 9871.5점</title></rect><text x="224" y="130" font-size="10" fill="#333333">9871.5</text><text x="24" y="158" text-anchor="end" font-size="12" fill="#333333">목</text><rect x="28" y="142" width="79" height="22" rx="3" fill="#40c463"><title>목: 4088.8점</title></rect><text x="112" y="158" font-size="10" fill="#333333">4088.8</text><text x="24" y="186" text-anchor="end" font-size="12" fill="#333333">금</text><rect x="28" y="170" width="279" height="22" rx="3" fill="#216e39"><title>금: 14380.6점</title></rect><text x="312" y="186" font-size="10" fill="#333333">14380.6</text><text x="24" y="214" text-anchor="end" font-size="12" fill="#333333">토</text><rect x="28" y="198" width="280" height="22" rx="3" fill="#216e39"><title>토: 14413.6점</title></rect><text x="313" y="214" font-size="10" fill="#333333">14413.6</text>
<text x="28" y="254" font-size="9" fill="#666666">기준: 2026-07-16 19:35</text>
</svg>