<svg xmlns="http://www.w3.org/2000/svg" width="363" height="260">
<text x="181" y="18" text-anchor="middle" font-size="13" font-weight="bold" fill="#111111">최근 1주 요일별 활동</text>
<text x="24" y="46" text-anchor="end" font-size="12" fill="#333333">일</text><rect x="28" y="30" width="210" height="22" rx="3" fill="#216e39"><title>일: 1617.0점</title></rect><text x="243" y="46" font-size="10" fill="#333333">1617.0</text><text x="24" y="74" text-anchor="end" font-size="12" fill="#333333">월</text><rect x="28" y="58" width="107" height="22" rx="3" fill="#40c463"><title>월: 825.0점</title></rect><text x="140" y="74" font-size="10" fill="#333333">825.0</text><text x="24" y="102" text-anchor="end" font-size="12" fill="#333333">화</text><rect x="28" y="86" width="71" height="22" rx="3" fill="#40c463"><title>화: 550.0점</title></rect><text x="104" y="102" font-size="10" fill="#333333">550.0</text><text x="24" y="130" text-anchor="end" font-size="12" fill="#333333">수</text><rect x="28" y="114" width="35" height="22" rx="3" fill="#9be9a8"><title>수: 275.0점</title></rect><text x="68" y="130" font-size="10" fill="#333333">275.0</text><text x="24" y="158" text-anchor="end" font-size="12" fill="#333333">목</text><rect x="28" y="142" width="4" height="22" rx="3" fill="#9be9a8"><title>목: 33.0점</title></rect><text x="37" y="158" font-size="10" fill="#333333">33.0</text><text x="24" y="186" text-anchor="end" font-size="12" fill="#333333">금</text><rect x="28" y="170" width="242" height="22" rx="3" fill="#216e39"><title>금: 1870.0점</title></rect><text x="275" y="186" font-size="10" fill="#333333">1870.0</text><text x="24" y="214" text-anchor="end" font-size="12" fill="#333333">토</text><rect x="28" y="198" width="280" height="22" rx="3" fill="#216e39"><title>토: 2156.0점</title></rect><text x="313" y="214" font-size="10" fill="#333333">2156.0</text>
<text x="28" y="254" font-size="9" fill="#666666">기준: 2026-05-28 16:35</text>
</svg>