<svg xmlns="http://www.w3.org/2000/svg" width="363" height="260">
<text x="181" y="18" text-anchor="middle" font-size="13" font-weight="bold" fill="#111111">최근 1달 요일별 활동</text>
<text x="24" y="46" text-anchor="end" font-size="12" fill="#333333">일</text><rect x="28" y="30" width="255" height="22" rx="3" fill="#216e39"><title>일: 29473.2점</title></rect><text x="288" y="46" font-size="10" fill="#333333">29473.2</text><text x="24" y="74" text-anchor="end" font-size="12" fill="#333333">월</text><rect x="28" y="58" width="167" height="22" rx="3" fill="#30a14e"><title>월: 19245.7점</title></rect><text x="200" y="74" font-size="10" fill="#333333">19245.7</text><text x="24" y="102" text-anchor="end" font-size="12" fill="#333333">화</text><rect x="28" y="86" width="249" height="22" rx="3" fill="#216e39"><title>화: 28768.8점</title></rect><text x="282" y="102" font-size="10" fill="#333333">28768.8</text><text x="24" y="130" text-anchor="end" font-size="12" fill="#333333">수</text><rect x="28" y="114" width="180" height="22" rx="3" fill="#30a14e"><title>수: 20813.2점</title></rect><text x="213" y="130" font-size="10" fill="#333333">20813.2</text><text x="24" y="158" text-anchor="end" font-size="12" fill="#333333">목</text><rect x="28" y="142" width="192" height="22" rx="3" fill="#30a14e"><title>목: 22156.0점</title></rect><text x="225" y="158" font-size="10" fill="#333333">22156.0</text><text x="24" y="186" text-anchor="end" font-size="12" fill="#333333">금</text><rect x="28" y="170" width="192" height="22" rx="3" fill="#30a14e"><title>금: 22216.5점</title></rect><text x="225" y="186" font-size="10" fill="#333333">22216.5</text><text x="24" y="214" text-anchor="end" font-size="12" fill="#333333">토</text><rect x="28" y="198" width="280" height="22" rx="3" fill="#216e39"><title>토: 32242.4점</title></rect><text x="313" y="214" font-size="10" fill="#333333">32242.4</text>
<text x="28" y="254" font-size="9" fill="#666666">기준: 2026-06-26 04:42</text>
</svg>