<svg xmlns="http://www.w3.org/2000/svg" width="363" height="260">
<text x="181" y="18" text-anchor="middle" font-size="13" font-weight="bold" fill="#e0e0e0">최근 1주 요일별 활동</text>
<text x="24" y="46" text-anchor="end" font-size="12" fill="#cccccc">일</text><rect x="28" y="30" width="146" height="22" rx="3" fill="#30a14e"><title>일: 891.0점</title></rect><text x="179" y="46" font-size="10" fill="#cccccc">891.0</text><text x="24" y="74" text-anchor="end" font-size="12" fill="#cccccc">월</text><rect x="28" y="58" width="64" height="22" rx="3" fill="#9be9a8"><title>월: 392.7점</title></rect><text x="97" y="74" font-size="10" fill="#cccccc">392.7</text><text x="24" y="102" text-anchor="end" font-size="12" fill="#cccccc">화</text><rect x="28" y="86" width="34" height="22" rx="3" fill="#9be9a8"><title>화: 207.8점</title></rect><text x="67" y="102" font-size="10" fill="#cccccc">207.8</text><text x="24" y="130" text-anchor="end" font-size="12" fill="#cccccc">수</text><rect x="28" y="114" width="5" height="22" rx="3" fill="#9be9a8"><title>수: 33.0점</title></rect><text x="38" y="130" font-size="10" fill="#cccccc">33.0</text><text x="24" y="158" text-anchor="end" font-size="12" fill="#cccccc">목</text><rect x="28" y="142" width="280" height="22" rx="3" fill="#216e39"><title>목: 1705.0점</title></rect><text x="313" y="158" font-size="10" fill="#cccccc">1705.0</text><text x="24" y="186" text-anchor="end" font-size="12" fill="#cccccc">금</text><rect x="28" y="170" width="234" height="22" rx="3" fill="#216e39"><title>금: 1430.0점</title></rect><text x="267" y="186" font-size="10" fill="#cccccc">1430.0</text><text x="24" y="214" text-anchor="end" font-size="12" fill="#cccccc">토</text><rect x="28" y="198" width="252" height="22" rx="3" fill="#216e39"><title>토: 1540.0점</title></rect><text x="285" y="214" font-size="10" fill="#cccccc">1540.0</text>
<text x="28" y="254" font-size="9" fill="#999999">기준: 2026-06-03 17:20</text>
</svg>