<svg xmlns="http://www.w3.org/2000/svg" width="363" height="260">
<text x="181" y="18" text-anchor="middle" font-size="13" font-weight="bold" fill="#e0e0e0">최근 1주 요일별 활동</text>
<text x="24" y="46" text-anchor="end" font-size="12" fill="#cccccc">일</text><rect x="28" y="30" width="2" height="22" rx="3" fill="#9be9a8"><title>일: 11.0점</title></rect><text x="35" y="46" font-size="10" fill="#cccccc">11.0</text><text x="24" y="74" text-anchor="end" font-size="12" fill="#cccccc">월</text><rect x="28" y="58" width="280" height="22" rx="3" fill="#216e39"><title>월: 4006.7점</title></rect><text x="313" y="74" font-size="10" fill="#cccccc">4006.7</text><text x="24" y="102" text-anchor="end" font-size="12" fill="#cccccc">화</text><rect x="28" y="86" width="229" height="22" rx="3" fill="#216e39"><title>화: 3288.0점</title></rect><text x="262" y="102" font-size="10" fill="#cccccc">3288.0</text><text x="24" y="130" text-anchor="end" font-size="12" fill="#cccccc">수</text><rect x="28" y="114" width="127" height="22" rx="3" fill="#40c463"><title>수: 1826.6점</title></rect><text x="160" y="130" font-size="10" fill="#cccccc">1826.6</text><text x="24" y="158" text-anchor="end" font-size="12" fill="#cccccc">목</text><rect x="28" y="142" width="88" height="22" rx="3" fill="#40c463"><title>목: 1259.4점</title></rect><text x="121" y="158" font-size="10" fill="#cccccc">1259.4</text><text x="24" y="186" text-anchor="end" font-size="12" fill="#cccccc">금</text><rect x="28" y="170" width="53" height="22" rx="3" fill="#9be9a8"><title>금: 759.0점</title></rect><text x="86" y="186" font-size="10" fill="#cccccc">759.0</text><text x="24" y="214" text-anchor="end" font-size="12" fill="#cccccc">토</text><rect x="28" y="198" width="48" height="22" rx="3" fill="#9be9a8"><title>토: 687.1점</title></rect><text x="81" y="214" font-size="10" fill="#cccccc">687.1</text>
<text x="28" y="254" font-size="9" fill="#999999">기준: 2026-07-05 09:23</text>
</svg>