<svg xmlns="http://www.w3.org/2000/svg" width="363" height="260">
<text x="181" y="18" text-anchor="middle" font-size="13" font-weight="bold" fill="#111111">최근 1주 요일별 활동</text>
<text x="24" y="46" text-anchor="end" font-size="12" fill="#333333">일</text><rect x="28" y="30" width="256" height="22" rx="3" fill="#216e39"><title>일: 2274.7점</title></rect><text x="289" y="46" font-size="10" fill="#333333">2274.7</text><text x="24" y="74" text-anchor="end" font-size="12" fill="#333333">월</text><rect x="28" y="58" width="74" height="22" rx="3" fill="#40c463"><title>월: 659.8점</title></rect><text x="107" y="74" font-size="10" fill="#333333">659.8</text><text x="24" y="102" text-anchor="end" font-size="12" fill="#333333">화</text><rect x="28" y="86" width="164" height="22" rx="3" fill="#30a14e"><title>화: 1460.2점</title></rect><text x="197" y="102" font-size="10" fill="#333333">1460.2</text><text x="24" y="130" text-anchor="end" font-size="12" fill="#333333">수</text><rect x="28" y="114" width="197" height="22" rx="3" fill="#30a14e"><title>수: 1753.1점</title></rect><text x="230" y="130" font-size="10" fill="#333333">1753.1</text><text x="24" y="158" text-anchor="end" font-size="12" fill="#333333">목</text><rect x="28" y="142" width="163" height="22" rx="3" fill="#30a14e"><title>목: 1450.1점</title></rect><text x="196" y="158" font-size="10" fill="#333333">1450.1</text><text x="24" y="186" text-anchor="end" font-size="12" fill="#333333">금</text><rect x="28" y="170" width="198" height="22" rx="3" fill="#30a14e"><title>금: 1757.5점</title></rect><text x="231" y="186" font-size="10" fill="#333333">1757.5</text><text x="24" y="214" text-anchor="end" font-size="12" fill="#333333">토</text><rect x="28" y="198" width="280" height="22" rx="3" fill="#216e39"><title>토: 2479.3점</title></rect><text x="313" y="214" font-size="10" fill="#333333">2479.3</text>
<text x="28" y="254" font-size="9" fill="#666666">기준: 2026-06-22 22:56</text>
</svg>