<svg xmlns="http://www.w3.org/2000/svg" width="363" height="260">
<text x="181" y="18" text-anchor="middle" font-size="13" font-weight="bold" fill="#e0e0e0">최근 2주 요일별 활동</text>
<text x="24" y="46" text-anchor="end" font-size="12" fill="#cccccc">일</text><rect x="28" y="30" width="215" height="22" rx="3" fill="#216e39"><title>일: 4092.8점</title></rect><text x="248" y="46" font-size="10" fill="#cccccc">4092.8</text><text x="24" y="74" text-anchor="end" font-size="12" fill="#cccccc">월</text><rect x="28" y="58" width="112" height="22" rx="3" fill="#40c463"><title>월: 2142.3점</title></rect><text x="145" y="74" font-size="10" fill="#cccccc">2142.3</text><text x="24" y="102" text-anchor="end" font-size="12" fill="#cccccc">화</text><rect x="28" y="86" width="99" height="22" rx="3" fill="#40c463"><title>화: 1894.9점</title></rect><text x="132" y="102" font-size="10" fill="#cccccc">1894.9</text><text x="24" y="130" text-anchor="end" font-size="12" fill="#cccccc">수</text><rect x="28" y="114" width="272" height="22" rx="3" fill="#216e39"><title>수: 5170.0점</title></rect><text x="305" y="130" font-size="10" fill="#cccccc">5170.0</text><text x="24" y="158" text-anchor="end" font-size="12" fill="#cccccc">목</text><rect x="28" y="142" width="263" height="22" rx="3" fill="#216e39"><title>목: 5005.0점</title></rect><text x="296" y="158" font-size="10" fill="#cccccc">5005.0</text><text x="24" y="186" text-anchor="end" font-size="12" fill="#cccccc">금</text><rect x="28" y="170" width="234" height="22" rx="3" fill="#216e39"><title>금: 4455.0점</title></rect><text x="267" y="186" font-size="10" fill="#cccccc">4455.0</text><text x="24" y="214" text-anchor="end" font-size="12" fill="#cccccc">토</text><rect x="28" y="198" width="280" height="22" rx="3" fill="#216e39"><title>토: 5313.0점</title></rect><text x="313" y="214" font-size="10" fill="#cccccc">5313.0</text>
<text x="28" y="254" font-size="9" fill="#999999">기준: 2026-06-09 15:29</text>
</svg>