<svg xmlns="http://www.w3.org/2000/svg" width="363" height="260">
<text x="181" y="18" text-anchor="middle" font-size="13" font-weight="bold" fill="#e0e0e0">최근 2주 요일별 활동</text>
<text x="24" y="46" text-anchor="end" font-size="12" fill="#cccccc">일</text><rect x="28" y="30" width="280" height="22" rx="3" fill="#216e39"><title>일: 7299.6점</title></rect><text x="313" y="46" font-size="10" fill="#cccccc">7299.6</text><text x="24" y="74" text-anchor="end" font-size="12" fill="#cccccc">월</text><rect x="28" y="58" width="159" height="22" rx="3" fill="#30a14e"><title>월: 4163.9점</title></rect><text x="192" y="74" font-size="10" fill="#cccccc">4163.9</text><text x="24" y="102" text-anchor="end" font-size="12" fill="#cccccc">화</text><rect x="28" y="86" width="249" height="22" rx="3" fill="#216e39"><title>화: 6491.8점</title></rect><text x="282" y="102" font-size="10" fill="#cccccc">6491.8</text><text x="24" y="130" text-anchor="end" font-size="12" fill="#cccccc">수</text><rect x="28" y="114" width="150" height="22" rx="3" fill="#30a14e"><title>수: 3920.9점</title></rect><text x="183" y="130" font-size="10" fill="#cccccc">3920.9</text><text x="24" y="158" text-anchor="end" font-size="12" fill="#cccccc">목</text><rect x="28" y="142" width="122" height="22" rx="3" fill="#40c463"><title>목: 3190.0점</title></rect><text x="155" y="158" font-size="10" fill="#cccccc">3190.0</text><text x="24" y="186" text-anchor="end" font-size="12" fill="#cccccc">금</text><rect x="28" y="170" width="101" height="22" rx="3" fill="#40c463"><title>금: 2640.0점</title></rect><text x="134" y="186" font-size="10" fill="#cccccc">2640.0</text><text x="24" y="214" text-anchor="end" font-size="12" fill="#cccccc">토</text><rect x="28" y="198" width="113" height="22" rx="3" fill="#40c463"><title>토: 2957.6점</title></rect><text x="146" y="214" font-size="10" fill="#cccccc">2957.6</text>
<text x="28" y="254" font-size="9" fill="#999999">기준: 2026-06-13 14:29</text>
</svg>