<svg xmlns="http://www.w3.org/2000/svg" width="363" height="260">
<text x="181" y="18" text-anchor="middle" font-size="13" font-weight="bold" fill="#e0e0e0">최근 2주 요일별 활동</text>
<text x="24" y="46" text-anchor="end" font-size="12" fill="#cccccc">일</text><rect x="28" y="30" width="109" height="22" rx="3" fill="#40c463"><title>일: 1170.3점</title></rect><text x="142" y="46" font-size="10" fill="#cccccc">1170.3</text><text x="24" y="74" text-anchor="end" font-size="12" fill="#cccccc">월</text><rect x="28" y="58" width="80" height="22" rx="3" fill="#40c463"><title>월: 866.1점</title></rect><text x="113" y="74" font-size="10" fill="#cccccc">866.1</text><text x="24" y="102" text-anchor="end" font-size="12" fill="#cccccc">화</text><rect x="28" y="86" width="102" height="22" rx="3" fill="#40c463"><title>화: 1099.1점</title></rect><text x="135" y="102" font-size="10" fill="#cccccc">1099.1</text><text x="24" y="130" text-anchor="end" font-size="12" fill="#cccccc">수</text><rect x="28" y="114" width="29" height="22" rx="3" fill="#9be9a8"><title>수: 319.1점</title></rect><text x="62" y="130" font-size="10" fill="#cccccc">319.1</text><text x="24" y="158" text-anchor="end" font-size="12" fill="#cccccc">목</text><rect x="28" y="142" width="280" height="22" rx="3" fill="#216e39"><title>목: 2997.2점</title></rect><text x="313" y="158" font-size="10" fill="#cccccc">2997.2</text><text x="24" y="186" text-anchor="end" font-size="12" fill="#cccccc">금</text><rect x="28" y="170" width="242" height="22" rx="3" fill="#216e39"><title>금: 2599.0점</title></rect><text x="275" y="186" font-size="10" fill="#cccccc">2599.0</text><text x="24" y="214" text-anchor="end" font-size="12" fill="#cccccc">토</text><rect x="28" y="198" width="128" height="22" rx="3" fill="#40c463"><title>토: 1374.0점</title></rect><text x="161" y="214" font-size="10" fill="#cccccc">1374.0</text>
<text x="28" y="254" font-size="9" fill="#999999">기준: 2026-05-20 09:55</text>
</svg>