<svg xmlns="http://www.w3.org/2000/svg" width="363" height="260">
<text x="181" y="18" text-anchor="middle" font-size="13" font-weight="bold" fill="#e0e0e0">최근 2주 요일별 활동</text>
<text x="24" y="46" text-anchor="end" font-size="12" fill="#cccccc">일</text><rect x="28" y="30" width="59" height="22" rx="3" fill="#9be9a8"><title>일: 6516.2점</title></rect><text x="92" y="46" font-size="10" fill="#cccccc">6516.2</text><text x="24" y="74" text-anchor="end" font-size="12" fill="#cccccc">월</text><rect x="28" y="58" width="54" height="22" rx="3" fill="#9be9a8"><title>월: 6013.4점</title></rect><text x="87" y="74" font-size="10" fill="#cccccc">6013.4</text><text x="24" y="102" text-anchor="end" font-size="12" fill="#cccccc">화</text><rect x="28" y="86" width="45" height="22" rx="3" fill="#9be9a8"><title>화: 4985.3점</title></rect><text x="78" y="102" font-size="10" fill="#cccccc">4985.3</text><text x="24" y="130" text-anchor="end" font-size="12" fill="#cccccc">수</text><rect x="28" y="114" width="280" height="22" rx="3" fill="#216e39"><title>수: 30691.1점</title></rect><text x="313" y="130" font-size="10" fill="#cccccc">30691.1</text><text x="24" y="158" text-anchor="end" font-size="12" fill="#cccccc">목</text><rect x="28" y="142" width="114" height="22" rx="3" fill="#40c463"><title>목: 12538.3점</title></rect><text x="147" y="158" font-size="10" fill="#cccccc">12538.3</text><text x="24" y="186" text-anchor="end" font-size="12" fill="#cccccc">금</text><rect x="28" y="170" width="98" height="22" rx="3" fill="#40c463"><title>금: 10787.7점</title></rect><text x="131" y="186" font-size="10" fill="#cccccc">10787.7</text><text x="24" y="214" text-anchor="end" font-size="12" fill="#cccccc">토</text><rect x="28" y="198" width="68" height="22" rx="3" fill="#9be9a8"><title>토: 7487.0점</title></rect><text x="101" y="214" font-size="10" fill="#cccccc">7487.0</text>
<text x="28" y="254" font-size="9" fill="#999999">기준: 2026-07-07 22:32</text>
</svg>