<svg xmlns="http://www.w3.org/2000/svg" width="363" height="260">
<text x="181" y="18" text-anchor="middle" font-size="13" font-weight="bold" fill="#111111">최근 1주 요일별 활동</text>
<text x="24" y="46" text-anchor="end" font-size="12" fill="#333333">일</text><rect x="28" y="30" width="151" height="22" rx="3" fill="#30a14e"><title>일: 2411.6점</title></rect><text x="184" y="46" font-size="10" fill="#333333">2411.6</text><text x="24" y="74" text-anchor="end" font-size="12" fill="#333333">월</text><rect x="28" y="58" width="98" height="22" rx="3" fill="#40c463"><title>월: 1560.4점</title></rect><text x="131" y="74" font-size="10" fill="#333333">1560.4</text><text x="24" y="102" text-anchor="end" font-size="12" fill="#333333">화</text><rect x="28" y="86" width="101" height="22" rx="3" fill="#40c463"><title>화: 1619.7점</title></rect><text x="134" y="102" font-size="10" fill="#333333">1619.7</text><text x="24" y="130" text-anchor="end" font-size="12" fill="#333333">수</text><rect x="28" y="114" width="90" height="22" rx="3" fill="#40c463"><title>수: 1438.8점</title></rect><text x="123" y="130" font-size="10" fill="#333333">1438.8</text><text x="24" y="158" text-anchor="end" font-size="12" fill="#333333">목</text><rect x="28" y="142" width="32" height="22" rx="3" fill="#9be9a8"><title>목: 518.0점</title></rect><text x="65" y="158" font-size="10" fill="#333333">518.0</text><text x="24" y="186" text-anchor="end" font-size="12" fill="#333333">금</text><rect x="28" y="170" width="25" height="22" rx="3" fill="#9be9a8"><title>금: 402.3점</title></rect><text x="58" y="186" font-size="10" fill="#333333">402.3</text><text x="24" y="214" text-anchor="end" font-size="12" fill="#333333">토</text><rect x="28" y="198" width="280" height="22" rx="3" fill="#216e39"><title>토: 4448.5점</title></rect><text x="313" y="214" font-size="10" fill="#333333">4448.5</text>
<text x="28" y="254" font-size="9" fill="#666666">기준: 2026-07-10 19:53</text>
</svg>