<svg xmlns="http://www.w3.org/2000/svg" width="363" height="260">
<text x="181" y="18" text-anchor="middle" font-size="13" font-weight="bold" fill="#111111">최근 1달 요일별 활동</text>
<text x="24" y="46" text-anchor="end" font-size="12" fill="#333333">일</text><rect x="28" y="30" width="280" height="22" rx="3" fill="#216e39"><title>일: 31178.6점</title></rect><text x="313" y="46" font-size="10" fill="#333333">31178.6</text><text x="24" y="74" text-anchor="end" font-size="12" fill="#333333">월</text><rect x="28" y="58" width="172" height="22" rx="3" fill="#30a14e"><title>월: 19254.1점</title></rect><text x="205" y="74" font-size="10" fill="#333333">19254.1</text><text x="24" y="102" text-anchor="end" font-size="12" fill="#333333">화</text><rect x="28" y="86" width="239" height="22" rx="3" fill="#216e39"><title>화: 26683.9점</title></rect><text x="272" y="102" font-size="10" fill="#333333">26683.9</text><text x="24" y="130" text-anchor="end" font-size="12" fill="#333333">수</text><rect x="28" y="114" width="184" height="22" rx="3" fill="#30a14e"><title>수: 20525.2점</title></rect><text x="217" y="130" font-size="10" fill="#333333">20525.2</text><text x="24" y="158" text-anchor="end" font-size="12" fill="#333333">목</text><rect x="28" y="142" width="153" height="22" rx="3" fill="#30a14e"><title>목: 17122.2점</title></rect><text x="186" y="158" font-size="10" fill="#333333">17122.2</text><text x="24" y="186" text-anchor="end" font-size="12" fill="#333333">금</text><rect x="28" y="170" width="150" height="22" rx="3" fill="#30a14e"><title>금: 16778.9점</title></rect><text x="183" y="186" font-size="10" fill="#333333">16778.9</text><text x="24" y="214" text-anchor="end" font-size="12" fill="#333333">토</text><rect x="28" y="198" width="213" height="22" rx="3" fill="#216e39"><title>토: 23732.4점</title></rect><text x="246" y="214" font-size="10" fill="#333333">23732.4</text>
<text x="28" y="254" font-size="9" fill="#666666">기준: 2026-06-22 18:53</text>
</svg>