<svg xmlns="http://www.w3.org/2000/svg" width="363" height="260">
<text x="181" y="18" text-anchor="middle" font-size="13" font-weight="bold" fill="#e0e0e0">최근 1달 요일별 활동</text>
<text x="24" y="46" text-anchor="end" font-size="12" fill="#cccccc">일</text><rect x="28" y="30" width="264" height="22" rx="3" fill="#216e39"><title>일: 18095.9점</title></rect><text x="297" y="46" font-size="10" fill="#cccccc">18095.9</text><text x="24" y="74" text-anchor="end" font-size="12" fill="#cccccc">월</text><rect x="28" y="58" width="151" height="22" rx="3" fill="#30a14e"><title>월: 10403.0점</title></rect><text x="184" y="74" font-size="10" fill="#cccccc">10403.0</text><text x="24" y="102" text-anchor="end" font-size="12" fill="#cccccc">화</text><rect x="28" y="86" width="280" height="22" rx="3" fill="#216e39"><title>화: 19187.9점</title></rect><text x="313" y="102" font-size="10" fill="#cccccc">19187.9</text><text x="24" y="130" text-anchor="end" font-size="12" fill="#cccccc">수</text><rect x="28" y="114" width="224" height="22" rx="3" fill="#216e39"><title>수: 15371.6점</title></rect><text x="257" y="130" font-size="10" fill="#cccccc">15371.6</text><text x="24" y="158" text-anchor="end" font-size="12" fill="#cccccc">목</text><rect x="28" y="142" width="207" height="22" rx="3" fill="#30a14e"><title>목: 14192.5점</title></rect><text x="240" y="158" font-size="10" fill="#cccccc">14192.5</text><text x="24" y="186" text-anchor="end" font-size="12" fill="#cccccc">금</text><rect x="28" y="170" width="190" height="22" rx="3" fill="#30a14e"><title>금: 13085.5점</title></rect><text x="223" y="186" font-size="10" fill="#cccccc">13085.5</text><text x="24" y="214" text-anchor="end" font-size="12" fill="#cccccc">토</text><rect x="28" y="198" width="242" height="22" rx="3" fill="#216e39"><title>토: 16640.5점</title></rect><text x="275" y="214" font-size="10" fill="#cccccc">16640.5</text>
<text x="28" y="254" font-size="9" fill="#999999">기준: 2026-06-12 22:49</text>
</svg>