<svg xmlns="http://www.w3.org/2000/svg" width="363" height="260">
<text x="181" y="18" text-anchor="middle" font-size="13" font-weight="bold" fill="#111111">최근 1주 요일별 활동</text>
<text x="24" y="46" text-anchor="end" font-size="12" fill="#333333">일</text><rect x="28" y="30" width="280" height="22" rx="3" fill="#216e39"><title>일: 3207.4점</title></rect><text x="313" y="46" font-size="10" fill="#333333">3207.4</text><text x="24" y="74" text-anchor="end" font-size="12" fill="#333333">월</text><rect x="28" y="58" width="261" height="22" rx="3" fill="#216e39"><title>월: 2994.0점</title></rect><text x="294" y="74" font-size="10" fill="#333333">2994.0</text><text x="24" y="102" text-anchor="end" font-size="12" fill="#333333">화</text><rect x="28" y="86" width="201" height="22" rx="3" fill="#30a14e"><title>화: 2307.0점</title></rect><text x="234" y="102" font-size="10" fill="#333333">2307.0</text><text x="24" y="130" text-anchor="end" font-size="12" fill="#333333">수</text><rect x="28" y="114" width="99" height="22" rx="3" fill="#40c463"><title>수: 1137.2점</title></rect><text x="132" y="130" font-size="10" fill="#333333">1137.2</text><text x="24" y="158" text-anchor="end" font-size="12" fill="#333333">목</text><rect x="28" y="142" width="53" height="22" rx="3" fill="#9be9a8"><title>목: 618.4점</title></rect><text x="86" y="158" font-size="10" fill="#333333">618.4</text><text x="24" y="186" text-anchor="end" font-size="12" fill="#333333">금</text><rect x="28" y="170" width="14" height="22" rx="3" fill="#9be9a8"><title>금: 165.0점</title></rect><text x="47" y="186" font-size="10" fill="#333333">165.0</text><text x="24" y="214" text-anchor="end" font-size="12" fill="#333333">토</text><rect x="28" y="198" width="275" height="22" rx="3" fill="#216e39"><title>토: 3154.8점</title></rect><text x="308" y="214" font-size="10" fill="#333333">3154.8</text>
<text x="28" y="254" font-size="9" fill="#666666">기준: 2026-07-03 22:17</text>
</svg>