<svg xmlns="http://www.w3.org/2000/svg" width="363" height="260">
<text x="181" y="18" text-anchor="middle" font-size="13" font-weight="bold" fill="#e0e0e0">최근 1달 요일별 활동</text>
<text x="24" y="46" text-anchor="end" font-size="12" fill="#cccccc">일</text><rect x="28" y="30" width="257" height="22" rx="3" fill="#216e39"><title>일: 57993.1점</title></rect><text x="290" y="46" font-size="10" fill="#cccccc">57993.1</text><text x="24" y="74" text-anchor="end" font-size="12" fill="#cccccc">월</text><rect x="28" y="58" width="197" height="22" rx="3" fill="#30a14e"><title>월: 44427.0점</title></rect><text x="230" y="74" font-size="10" fill="#cccccc">44427.0</text><text x="24" y="102" text-anchor="end" font-size="12" fill="#cccccc">화</text><rect x="28" y="86" width="280" height="22" rx="3" fill="#216e39"><title>화: 63003.4점</title></rect><text x="313" y="102" font-size="10" fill="#cccccc">63003.4</text><text x="24" y="130" text-anchor="end" font-size="12" fill="#cccccc">수</text><rect x="28" y="114" width="240" height="22" rx="3" fill="#216e39"><title>수: 54010.6점</title></rect><text x="273" y="130" font-size="10" fill="#cccccc">54010.6</text><text x="24" y="158" text-anchor="end" font-size="12" fill="#cccccc">목</text><rect x="28" y="142" width="116" height="22" rx="3" fill="#40c463"><title>목: 26228.8점</title></rect><text x="149" y="158" font-size="10" fill="#cccccc">26228.8</text><text x="24" y="186" text-anchor="end" font-size="12" fill="#cccccc">금</text><rect x="28" y="170" width="127" height="22" rx="3" fill="#40c463"><title>금: 28691.1점</title></rect><text x="160" y="186" font-size="10" fill="#cccccc">28691.1</text><text x="24" y="214" text-anchor="end" font-size="12" fill="#cccccc">토</text><rect x="28" y="198" width="182" height="22" rx="3" fill="#30a14e"><title>토: 41010.8점</title></rect><text x="215" y="214" font-size="10" fill="#cccccc">41010.8</text>
<text x="28" y="254" font-size="9" fill="#999999">기준: 2026-07-06 22:40</text>
</svg>