<svg xmlns="http://www.w3.org/2000/svg" width="363" height="260">
<text x="181" y="18" text-anchor="middle" font-size="13" font-weight="bold" fill="#111111">최근 1주 요일별 활동</text>
<text x="24" y="46" text-anchor="end" font-size="12" fill="#333333">일</text><rect x="28" y="30" width="280" height="22" rx="3" fill="#216e39"><title>일: 6411.3점</title></rect><text x="313" y="46" font-size="10" fill="#333333">6411.3</text><text x="24" y="74" text-anchor="end" font-size="12" fill="#333333">월</text><rect x="28" y="58" width="187" height="22" rx="3" fill="#30a14e"><title>월: 4283.4점</title></rect><text x="220" y="74" font-size="10" fill="#333333">4283.4</text><text x="24" y="102" text-anchor="end" font-size="12" fill="#333333">화</text><rect x="28" y="86" width="155" height="22" rx="3" fill="#30a14e"><title>화: 3566.5점</title></rect><text x="188" y="102" font-size="10" fill="#333333">3566.5</text><text x="24" y="130" text-anchor="end" font-size="12" fill="#333333">수</text><rect x="28" y="114" width="88" height="22" rx="3" fill="#40c463"><title>수: 2025.3점</title></rect><text x="121" y="130" font-size="10" fill="#333333">2025.3</text><text x="24" y="158" text-anchor="end" font-size="12" fill="#333333">목</text><rect x="28" y="142" width="2" height="22" rx="3" fill="#9be9a8"><title>목: 45.3점</title></rect><text x="35" y="158" font-size="10" fill="#333333">45.3</text><text x="24" y="186" text-anchor="end" font-size="12" fill="#333333">금</text><rect x="28" y="170" width="135" height="22" rx="3" fill="#40c463"><title>금: 3093.1점</title></rect><text x="168" y="186" font-size="10" fill="#333333">3093.1</text><text x="24" y="214" text-anchor="end" font-size="12" fill="#333333">토</text><rect x="28" y="198" width="219" height="22" rx="3" fill="#216e39"><title>토: 5026.0점</title></rect><text x="252" y="214" font-size="10" fill="#333333">5026.0</text>
<text x="28" y="254" font-size="9" fill="#666666">기준: 2026-06-25 09:45</text>
</svg>