<svg xmlns="http://www.w3.org/2000/svg" width="363" height="260">
<text x="181" y="18" text-anchor="middle" font-size="13" font-weight="bold" fill="#111111">최근 1달 요일별 활동</text>
<text x="24" y="46" text-anchor="end" font-size="12" fill="#333333">일</text><rect x="28" y="30" width="259" height="22" rx="3" fill="#216e39"><title>일: 31678.0점</title></rect><text x="292" y="46" font-size="10" fill="#333333">31678.0</text><text x="24" y="74" text-anchor="end" font-size="12" fill="#333333">월</text><rect x="28" y="58" width="172" height="22" rx="3" fill="#30a14e"><title>월: 21018.5점</title></rect><text x="205" y="74" font-size="10" fill="#333333">21018.5</text><text x="24" y="102" text-anchor="end" font-size="12" fill="#333333">화</text><rect x="28" y="86" width="255" height="22" rx="3" fill="#216e39"><title>화: 31154.5점</title></rect><text x="288" y="102" font-size="10" fill="#333333">31154.5</text><text x="24" y="130" text-anchor="end" font-size="12" fill="#333333">수</text><rect x="28" y="114" width="190" height="22" rx="3" fill="#30a14e"><title>수: 23195.5점</title></rect><text x="223" y="130" font-size="10" fill="#333333">23195.5</text><text x="24" y="158" text-anchor="end" font-size="12" fill="#333333">목</text><rect x="28" y="142" width="194" height="22" rx="3" fill="#30a14e"><title>목: 23717.7점</title></rect><text x="227" y="158" font-size="10" fill="#333333">23717.7</text><text x="24" y="186" text-anchor="end" font-size="12" fill="#333333">금</text><rect x="28" y="170" width="194" height="22" rx="3" fill="#30a14e"><title>금: 23683.8점</title></rect><text x="227" y="186" font-size="10" fill="#333333">23683.8</text><text x="24" y="214" text-anchor="end" font-size="12" fill="#333333">토</text><rect x="28" y="198" width="280" height="22" rx="3" fill="#216e39"><title>토: 34133.5점</title></rect><text x="313" y="214" font-size="10" fill="#333333">34133.5</text>
<text x="28" y="254" font-size="9" fill="#666666">기준: 2026-06-26 20:13</text>
</svg>