<svg xmlns="http://www.w3.org/2000/svg" width="363" height="260">
<text x="181" y="18" text-anchor="middle" font-size="13" font-weight="bold" fill="#e0e0e0">최근 2주 요일별 활동</text>
<text x="24" y="46" text-anchor="end" font-size="12" fill="#cccccc">일</text><rect x="28" y="30" width="136" height="22" rx="3" fill="#40c463"><title>일: 4632.0점</title></rect><text x="169" y="46" font-size="10" fill="#cccccc">4632.0</text><text x="24" y="74" text-anchor="end" font-size="12" fill="#cccccc">월</text><rect x="28" y="58" width="64" height="22" rx="3" fill="#9be9a8"><title>월: 2181.4점</title></rect><text x="97" y="74" font-size="10" fill="#cccccc">2181.4</text><text x="24" y="102" text-anchor="end" font-size="12" fill="#cccccc">화</text><rect x="28" y="86" width="280" height="22" rx="3" fill="#216e39"><title>화: 9518.0점</title></rect><text x="313" y="102" font-size="10" fill="#cccccc">9518.0</text><text x="24" y="130" text-anchor="end" font-size="12" fill="#cccccc">수</text><rect x="28" y="114" width="171" height="22" rx="3" fill="#30a14e"><title>수: 5846.5점</title></rect><text x="204" y="130" font-size="10" fill="#cccccc">5846.5</text><text x="24" y="158" text-anchor="end" font-size="12" fill="#cccccc">목</text><rect x="28" y="142" width="135" height="22" rx="3" fill="#40c463"><title>목: 4620.0점</title></rect><text x="168" y="158" font-size="10" fill="#cccccc">4620.0</text><text x="24" y="186" text-anchor="end" font-size="12" fill="#cccccc">금</text><rect x="28" y="170" width="119" height="22" rx="3" fill="#40c463"><title>금: 4070.0점</title></rect><text x="152" y="186" font-size="10" fill="#cccccc">4070.0</text><text x="24" y="214" text-anchor="end" font-size="12" fill="#cccccc">토</text><rect x="28" y="198" width="161" height="22" rx="3" fill="#30a14e"><title>토: 5490.0점</title></rect><text x="194" y="214" font-size="10" fill="#cccccc">5490.0</text>
<text x="28" y="254" font-size="9" fill="#999999">기준: 2026-06-15 23:11</text>
</svg>