<svg xmlns="http://www.w3.org/2000/svg" width="363" height="260">
<text x="181" y="18" text-anchor="middle" font-size="13" font-weight="bold" fill="#111111">최근 2주 요일별 활동</text>
<text x="24" y="46" text-anchor="end" font-size="12" fill="#333333">일</text><rect x="28" y="30" width="227" height="22" rx="3" fill="#216e39"><title>일: 5324.0점</title></rect><text x="260" y="46" font-size="10" fill="#333333">5324.0</text><text x="24" y="74" text-anchor="end" font-size="12" fill="#333333">월</text><rect x="28" y="58" width="138" height="22" rx="3" fill="#40c463"><title>월: 3226.0점</title></rect><text x="171" y="74" font-size="10" fill="#333333">3226.0</text><text x="24" y="102" text-anchor="end" font-size="12" fill="#333333">화</text><rect x="28" y="86" width="118" height="22" rx="3" fill="#40c463"><title>화: 2765.7점</title></rect><text x="151" y="102" font-size="10" fill="#333333">2765.7</text><text x="24" y="130" text-anchor="end" font-size="12" fill="#333333">수</text><rect x="28" y="114" width="98" height="22" rx="3" fill="#40c463"><title>수: 2299.0점</title></rect><text x="131" y="130" font-size="10" fill="#333333">2299.0</text><text x="24" y="158" text-anchor="end" font-size="12" fill="#333333">목</text><rect x="28" y="142" width="80" height="22" rx="3" fill="#40c463"><title>목: 1881.0점</title></rect><text x="113" y="158" font-size="10" fill="#333333">1881.0</text><text x="24" y="186" text-anchor="end" font-size="12" fill="#333333">금</text><rect x="28" y="170" width="228" height="22" rx="3" fill="#216e39"><title>금: 5335.0점</title></rect><text x="261" y="186" font-size="10" fill="#333333">5335.0</text><text x="24" y="214" text-anchor="end" font-size="12" fill="#333333">토</text><rect x="28" y="198" width="280" height="22" rx="3" fill="#216e39"><title>토: 6545.0점</title></rect><text x="313" y="214" font-size="10" fill="#333333">6545.0</text>
<text x="28" y="254" font-size="9" fill="#666666">기준: 2026-06-04 10:13</text>
</svg>