<svg xmlns="http://www.w3.org/2000/svg" width="363" height="260">
<text x="181" y="18" text-anchor="middle" font-size="13" font-weight="bold" fill="#111111">최근 1달 요일별 활동</text>
<text x="24" y="46" text-anchor="end" font-size="12" fill="#333333">일</text><rect x="28" y="30" width="224" height="22" rx="3" fill="#216e39"><title>일: 50228.4점</title></rect><text x="257" y="46" font-size="10" fill="#333333">50228.4</text><text x="24" y="74" text-anchor="end" font-size="12" fill="#333333">월</text><rect x="28" y="58" width="190" height="22" rx="3" fill="#30a14e"><title>월: 42587.7점</title></rect><text x="223" y="74" font-size="10" fill="#333333">42587.7</text><text x="24" y="102" text-anchor="end" font-size="12" fill="#333333">화</text><rect x="28" y="86" width="186" height="22" rx="3" fill="#30a14e"><title>화: 41710.7점</title></rect><text x="219" y="102" font-size="10" fill="#333333">41710.7</text><text x="24" y="130" text-anchor="end" font-size="12" fill="#333333">수</text><rect x="28" y="114" width="280" height="22" rx="3" fill="#216e39"><title>수: 62579.8점</title></rect><text x="313" y="130" font-size="10" fill="#333333">62579.8</text><text x="24" y="158" text-anchor="end" font-size="12" fill="#333333">목</text><rect x="28" y="142" width="136" height="22" rx="3" fill="#40c463"><title>목: 30570.0점</title></rect><text x="169" y="158" font-size="10" fill="#333333">30570.0</text><text x="24" y="186" text-anchor="end" font-size="12" fill="#333333">금</text><rect x="28" y="170" width="150" height="22" rx="3" fill="#30a14e"><title>금: 33532.3점</title></rect><text x="183" y="186" font-size="10" fill="#333333">33532.3</text><text x="24" y="214" text-anchor="end" font-size="12" fill="#333333">토</text><rect x="28" y="198" width="214" height="22" rx="3" fill="#216e39"><title>토: 47849.5점</title></rect><text x="247" y="214" font-size="10" fill="#333333">47849.5</text>
<text x="28" y="254" font-size="9" fill="#666666">기준: 2026-07-09 04:15</text>
</svg>