<svg xmlns="http://www.w3.org/2000/svg" width="363" height="260">
<text x="181" y="18" text-anchor="middle" font-size="13" font-weight="bold" fill="#e0e0e0">최근 2주 요일별 활동</text>
<text x="24" y="46" text-anchor="end" font-size="12" fill="#cccccc">일</text><rect x="28" y="30" width="171" height="22" rx="3" fill="#30a14e"><title>일: 5497.8점</title></rect><text x="204" y="46" font-size="10" fill="#cccccc">5497.8</text><text x="24" y="74" text-anchor="end" font-size="12" fill="#cccccc">월</text><rect x="28" y="58" width="94" height="22" rx="3" fill="#40c463"><title>월: 3037.7점</title></rect><text x="127" y="74" font-size="10" fill="#cccccc">3037.7</text><text x="24" y="102" text-anchor="end" font-size="12" fill="#cccccc">화</text><rect x="28" y="86" width="48" height="22" rx="3" fill="#9be9a8"><title>화: 1542.5점</title></rect><text x="81" y="102" font-size="10" fill="#cccccc">1542.5</text><text x="24" y="130" text-anchor="end" font-size="12" fill="#cccccc">수</text><rect x="28" y="114" width="280" height="22" rx="3" fill="#216e39"><title>수: 8971.4점</title></rect><text x="313" y="130" font-size="10" fill="#cccccc">8971.4</text><text x="24" y="158" text-anchor="end" font-size="12" fill="#cccccc">목</text><rect x="28" y="142" width="148" height="22" rx="3" fill="#30a14e"><title>목: 4763.3점</title></rect><text x="181" y="158" font-size="10" fill="#cccccc">4763.3</text><text x="24" y="186" text-anchor="end" font-size="12" fill="#cccccc">금</text><rect x="28" y="170" width="157" height="22" rx="3" fill="#30a14e"><title>금: 5033.6점</title></rect><text x="190" y="186" font-size="10" fill="#cccccc">5033.6</text><text x="24" y="214" text-anchor="end" font-size="12" fill="#cccccc">토</text><rect x="28" y="198" width="272" height="22" rx="3" fill="#216e39"><title>토: 8738.9점</title></rect><text x="305" y="214" font-size="10" fill="#cccccc">8738.9</text>
<text x="28" y="254" font-size="9" fill="#999999">기준: 2026-06-23 04:31</text>
</svg>