<svg xmlns="http://www.w3.org/2000/svg" width="363" height="260">
<text x="181" y="18" text-anchor="middle" font-size="13" font-weight="bold" fill="#e0e0e0">최근 1달 요일별 활동</text>
<text x="24" y="46" text-anchor="end" font-size="12" fill="#cccccc">일</text><rect x="28" y="30" width="255" height="22" rx="3" fill="#216e39"><title>일: 51554.4점</title></rect><text x="288" y="46" font-size="10" fill="#cccccc">51554.4</text><text x="24" y="74" text-anchor="end" font-size="12" fill="#cccccc">월</text><rect x="28" y="58" width="194" height="22" rx="3" fill="#30a14e"><title>월: 39197.4점</title></rect><text x="227" y="74" font-size="10" fill="#cccccc">39197.4</text><text x="24" y="102" text-anchor="end" font-size="12" fill="#cccccc">화</text><rect x="28" y="86" width="280" height="22" rx="3" fill="#216e39"><title>화: 56432.6점</title></rect><text x="313" y="102" font-size="10" fill="#cccccc">56432.6</text><text x="24" y="130" text-anchor="end" font-size="12" fill="#cccccc">수</text><rect x="28" y="114" width="236" height="22" rx="3" fill="#216e39"><title>수: 47729.0점</title></rect><text x="269" y="130" font-size="10" fill="#cccccc">47729.0</text><text x="24" y="158" text-anchor="end" font-size="12" fill="#cccccc">목</text><rect x="28" y="142" width="113" height="22" rx="3" fill="#40c463"><title>목: 22889.4점</title></rect><text x="146" y="158" font-size="10" fill="#cccccc">22889.4</text><text x="24" y="186" text-anchor="end" font-size="12" fill="#cccccc">금</text><rect x="28" y="170" width="123" height="22" rx="3" fill="#40c463"><title>금: 24967.1점</title></rect><text x="156" y="186" font-size="10" fill="#cccccc">24967.1</text><text x="24" y="214" text-anchor="end" font-size="12" fill="#cccccc">토</text><rect x="28" y="198" width="237" height="22" rx="3" fill="#216e39"><title>토: 47839.2점</title></rect><text x="270" y="214" font-size="10" fill="#cccccc">47839.2</text>
<text x="28" y="254" font-size="9" fill="#999999">기준: 2026-07-05 04:32</text>
</svg>