<svg xmlns="http://www.w3.org/2000/svg" width="363" height="260">
<text x="181" y="18" text-anchor="middle" font-size="13" font-weight="bold" fill="#e0e0e0">최근 1주 요일별 활동</text>
<text x="24" y="46" text-anchor="end" font-size="12" fill="#cccccc">일</text><rect x="28" y="30" width="35" height="22" rx="3" fill="#9be9a8"><title>일: 179.4점</title></rect><text x="68" y="46" font-size="10" fill="#cccccc">179.4</text><text x="24" y="74" text-anchor="end" font-size="12" fill="#cccccc">월</text><rect x="28" y="58" width="280" height="22" rx="3" fill="#216e39"><title>월: 1406.5점</title></rect><text x="313" y="74" font-size="10" fill="#cccccc">1406.5</text><text x="24" y="102" text-anchor="end" font-size="12" fill="#cccccc">화</text><rect x="28" y="86" width="242" height="22" rx="3" fill="#216e39"><title>화: 1218.9점</title></rect><text x="275" y="102" font-size="10" fill="#cccccc">1218.9</text><text x="24" y="130" text-anchor="end" font-size="12" fill="#cccccc">수</text><rect x="28" y="114" width="197" height="22" rx="3" fill="#30a14e"><title>수: 990.0점</title></rect><text x="230" y="130" font-size="10" fill="#cccccc">990.0</text><text x="24" y="158" text-anchor="end" font-size="12" fill="#cccccc">목</text><rect x="28" y="142" width="197" height="22" rx="3" fill="#30a14e"><title>목: 990.0점</title></rect><text x="230" y="158" font-size="10" fill="#cccccc">990.0</text><text x="24" y="186" text-anchor="end" font-size="12" fill="#cccccc">금</text><rect x="28" y="170" width="142" height="22" rx="3" fill="#30a14e"><title>금: 715.0점</title></rect><text x="175" y="186" font-size="10" fill="#cccccc">715.0</text><text x="24" y="214" text-anchor="end" font-size="12" fill="#cccccc">토</text><rect x="28" y="198" width="107" height="22" rx="3" fill="#40c463"><title>토: 539.0점</title></rect><text x="140" y="214" font-size="10" fill="#cccccc">539.0</text>
<text x="28" y="254" font-size="9" fill="#999999">기준: 2026-06-07 16:46</text>
</svg>