<svg xmlns="http://www.w3.org/2000/svg" width="363" height="260">
<text x="181" y="18" text-anchor="middle" font-size="13" font-weight="bold" fill="#111111">최근 1달 요일별 활동</text>
<text x="24" y="46" text-anchor="end" font-size="12" fill="#333333">일</text><rect x="28" y="30" width="265" height="22" rx="3" fill="#216e39"><title>일: 13612.6점</title></rect><text x="298" y="46" font-size="10" fill="#333333">13612.6</text><text x="24" y="74" text-anchor="end" font-size="12" fill="#333333">월</text><rect x="28" y="58" width="163" height="22" rx="3" fill="#30a14e"><title>월: 8376.2점</title></rect><text x="196" y="74" font-size="10" fill="#333333">8376.2</text><text x="24" y="102" text-anchor="end" font-size="12" fill="#333333">화</text><rect x="28" y="86" width="280" height="22" rx="3" fill="#216e39"><title>화: 14366.6점</title></rect><text x="313" y="102" font-size="10" fill="#333333">14366.6</text><text x="24" y="130" text-anchor="end" font-size="12" fill="#333333">수</text><rect x="28" y="114" width="228" height="22" rx="3" fill="#216e39"><title>수: 11708.7점</title></rect><text x="261" y="130" font-size="10" fill="#333333">11708.7</text><text x="24" y="158" text-anchor="end" font-size="12" fill="#333333">목</text><rect x="28" y="142" width="214" height="22" rx="3" fill="#216e39"><title>목: 11002.5점</title></rect><text x="247" y="158" font-size="10" fill="#333333">11002.5</text><text x="24" y="186" text-anchor="end" font-size="12" fill="#333333">금</text><rect x="28" y="170" width="198" height="22" rx="3" fill="#30a14e"><title>금: 10170.5점</title></rect><text x="231" y="186" font-size="10" fill="#333333">10170.5</text><text x="24" y="214" text-anchor="end" font-size="12" fill="#333333">토</text><rect x="28" y="198" width="247" height="22" rx="3" fill="#216e39"><title>토: 12713.5점</title></rect><text x="280" y="214" font-size="10" fill="#333333">12713.5</text>
<text x="28" y="254" font-size="9" fill="#666666">기준: 2026-06-09 15:29</text>
</svg>