<svg xmlns="http://www.w3.org/2000/svg" width="363" height="260">
<text x="181" y="18" text-anchor="middle" font-size="13" font-weight="bold" fill="#e0e0e0">최근 1주 요일별 활동</text>
<text x="24" y="46" text-anchor="end" font-size="12" fill="#cccccc">일</text><rect x="28" y="30" width="219" height="22" rx="3" fill="#216e39"><title>일: 1638.3점</title></rect><text x="252" y="46" font-size="10" fill="#cccccc">1638.3</text><text x="24" y="74" text-anchor="end" font-size="12" fill="#cccccc">월</text><rect x="28" y="58" width="18" height="22" rx="3" fill="#9be9a8"><title>월: 135.3점</title></rect><text x="51" y="74" font-size="10" fill="#cccccc">135.3</text><text x="24" y="102" text-anchor="end" font-size="12" fill="#cccccc">화</text><rect x="28" y="86" width="183" height="22" rx="3" fill="#30a14e"><title>화: 1367.9점</title></rect><text x="216" y="102" font-size="10" fill="#cccccc">1367.9</text><text x="24" y="130" text-anchor="end" font-size="12" fill="#cccccc">수</text><rect x="28" y="114" width="216" height="22" rx="3" fill="#216e39"><title>수: 1612.6점</title></rect><text x="249" y="130" font-size="10" fill="#cccccc">1612.6</text><text x="24" y="158" text-anchor="end" font-size="12" fill="#cccccc">목</text><rect x="28" y="142" width="176" height="22" rx="3" fill="#30a14e"><title>목: 1313.6점</title></rect><text x="209" y="158" font-size="10" fill="#cccccc">1313.6</text><text x="24" y="186" text-anchor="end" font-size="12" fill="#cccccc">금</text><rect x="28" y="170" width="208" height="22" rx="3" fill="#30a14e"><title>금: 1552.0점</title></rect><text x="241" y="186" font-size="10" fill="#cccccc">1552.0</text><text x="24" y="214" text-anchor="end" font-size="12" fill="#cccccc">토</text><rect x="28" y="198" width="280" height="22" rx="3" fill="#216e39"><title>토: 2087.5점</title></rect><text x="313" y="214" font-size="10" fill="#cccccc">2087.5</text>
<text x="28" y="254" font-size="9" fill="#999999">기준: 2026-06-22 12:27</text>
</svg>