<svg xmlns="http://www.w3.org/2000/svg" width="363" height="260">
<text x="181" y="18" text-anchor="middle" font-size="13" font-weight="bold" fill="#e0e0e0">최근 1주 요일별 활동</text>
<text x="24" y="46" text-anchor="end" font-size="12" fill="#cccccc">일</text><rect x="28" y="30" width="142" height="22" rx="3" fill="#30a14e"><title>일: 1923.1점</title></rect><text x="175" y="46" font-size="10" fill="#cccccc">1923.1</text><text x="24" y="74" text-anchor="end" font-size="12" fill="#cccccc">월</text><rect x="28" y="58" width="80" height="22" rx="3" fill="#40c463"><title>월: 1081.8점</title></rect><text x="113" y="74" font-size="10" fill="#cccccc">1081.8</text><text x="24" y="102" text-anchor="end" font-size="12" fill="#cccccc">화</text><rect x="28" y="86" width="74" height="22" rx="3" fill="#40c463"><title>화: 1000.9점</title></rect><text x="107" y="102" font-size="10" fill="#cccccc">1000.9</text><text x="24" y="130" text-anchor="end" font-size="12" fill="#cccccc">수</text><rect x="28" y="114" width="50" height="22" rx="3" fill="#9be9a8"><title>수: 676.1점</title></rect><text x="83" y="130" font-size="10" fill="#cccccc">676.1</text><text x="24" y="158" text-anchor="end" font-size="12" fill="#cccccc">목</text><rect x="28" y="142" width="7" height="22" rx="3" fill="#9be9a8"><title>목: 96.7점</title></rect><text x="40" y="158" font-size="10" fill="#cccccc">96.7</text><text x="24" y="186" text-anchor="end" font-size="12" fill="#cccccc">금</text><rect x="28" y="170" width="178" height="22" rx="3" fill="#30a14e"><title>금: 2409.0점</title></rect><text x="211" y="186" font-size="10" fill="#cccccc">2409.0</text><text x="24" y="214" text-anchor="end" font-size="12" fill="#cccccc">토</text><rect x="28" y="198" width="280" height="22" rx="3" fill="#216e39"><title>토: 3772.1점</title></rect><text x="313" y="214" font-size="10" fill="#cccccc">3772.1</text>
<text x="28" y="254" font-size="9" fill="#999999">기준: 2026-07-09 20:06</text>
</svg>