<svg xmlns="http://www.w3.org/2000/svg" width="363" height="260">
<text x="181" y="18" text-anchor="middle" font-size="13" font-weight="bold" fill="#e0e0e0">최근 2주 요일별 활동</text>
<text x="24" y="46" text-anchor="end" font-size="12" fill="#cccccc">일</text><rect x="28" y="30" width="191" height="22" rx="3" fill="#30a14e"><title>일: 10525.2점</title></rect><text x="224" y="46" font-size="10" fill="#cccccc">10525.2</text><text x="24" y="74" text-anchor="end" font-size="12" fill="#cccccc">월</text><rect x="28" y="58" width="212" height="22" rx="3" fill="#216e39"><title>월: 11642.6점</title></rect><text x="245" y="74" font-size="10" fill="#cccccc">11642.6</text><text x="24" y="102" text-anchor="end" font-size="12" fill="#cccccc">화</text><rect x="28" y="86" width="201" height="22" rx="3" fill="#30a14e"><title>화: 11066.8점</title></rect><text x="234" y="102" font-size="10" fill="#cccccc">11066.8</text><text x="24" y="130" text-anchor="end" font-size="12" fill="#cccccc">수</text><rect x="28" y="114" width="200" height="22" rx="3" fill="#30a14e"><title>수: 10986.6점</title></rect><text x="233" y="130" font-size="10" fill="#cccccc">10986.6</text><text x="24" y="158" text-anchor="end" font-size="12" fill="#cccccc">목</text><rect x="28" y="142" width="85" height="22" rx="3" fill="#40c463"><title>목: 4700.1점</title></rect><text x="118" y="158" font-size="10" fill="#cccccc">4700.1</text><text x="24" y="186" text-anchor="end" font-size="12" fill="#cccccc">금</text><rect x="28" y="170" width="162" height="22" rx="3" fill="#30a14e"><title>금: 8942.5점</title></rect><text x="195" y="186" font-size="10" fill="#cccccc">8942.5</text><text x="24" y="214" text-anchor="end" font-size="12" fill="#cccccc">토</text><rect x="28" y="198" width="280" height="22" rx="3" fill="#216e39"><title>토: 15363.2점</title></rect><text x="313" y="214" font-size="10" fill="#cccccc">15363.2</text>
<text x="28" y="254" font-size="9" fill="#999999">기준: 2026-07-17 10:58</text>
</svg>