<svg xmlns="http://www.w3.org/2000/svg" width="363" height="260">
<text x="181" y="18" text-anchor="middle" font-size="13" font-weight="bold" fill="#111111">최근 1주 요일별 활동</text>
<text x="24" y="46" text-anchor="end" font-size="12" fill="#333333">일</text><rect x="28" y="30" width="10" height="22" rx="3" fill="#9be9a8"><title>일: 404.1점</title></rect><text x="43" y="46" font-size="10" fill="#333333">404.1</text><text x="24" y="74" text-anchor="end" font-size="12" fill="#333333">월</text><rect x="28" y="58" width="2" height="22" rx="3" fill="#ebedf0"><title>월: 0.0점</title></rect><text x="35" y="74" font-size="10" fill="#333333">0.0</text><text x="24" y="102" text-anchor="end" font-size="12" fill="#333333">화</text><rect x="28" y="86" width="280" height="22" rx="3" fill="#216e39"><title>화: 10813.8점</title></rect><text x="313" y="102" font-size="10" fill="#333333">10813.8</text><text x="24" y="130" text-anchor="end" font-size="12" fill="#333333">수</text><rect x="28" y="114" width="259" height="22" rx="3" fill="#216e39"><title>수: 10033.9점</title></rect><text x="292" y="130" font-size="10" fill="#333333">10033.9</text><text x="24" y="158" text-anchor="end" font-size="12" fill="#333333">목</text><rect x="28" y="142" width="82" height="22" rx="3" fill="#40c463"><title>목: 3167.3점</title></rect><text x="115" y="158" font-size="10" fill="#333333">3167.3</text><text x="24" y="186" text-anchor="end" font-size="12" fill="#333333">금</text><rect x="28" y="170" width="57" height="22" rx="3" fill="#9be9a8"><title>금: 2214.6점</title></rect><text x="90" y="186" font-size="10" fill="#333333">2214.6</text><text x="24" y="214" text-anchor="end" font-size="12" fill="#333333">토</text><rect x="28" y="198" width="21" height="22" rx="3" fill="#9be9a8"><title>토: 842.5점</title></rect><text x="54" y="214" font-size="10" fill="#333333">842.5</text>
<text x="28" y="254" font-size="9" fill="#666666">기준: 2026-06-29 05:01</text>
</svg>