<svg xmlns="http://www.w3.org/2000/svg" width="363" height="260">
<text x="181" y="18" text-anchor="middle" font-size="13" font-weight="bold" fill="#e0e0e0">최근 1달 요일별 활동</text>
<text x="24" y="46" text-anchor="end" font-size="12" fill="#cccccc">일</text><rect x="28" y="30" width="213" height="22" rx="3" fill="#216e39"><title>일: 7321.1점</title></rect><text x="246" y="46" font-size="10" fill="#cccccc">7321.1</text><text x="24" y="74" text-anchor="end" font-size="12" fill="#cccccc">월</text><rect x="28" y="58" width="122" height="22" rx="3" fill="#40c463"><title>월: 4204.7점</title></rect><text x="155" y="74" font-size="10" fill="#cccccc">4204.7</text><text x="24" y="102" text-anchor="end" font-size="12" fill="#cccccc">화</text><rect x="28" y="86" width="232" height="22" rx="3" fill="#216e39"><title>화: 7962.7점</title></rect><text x="265" y="102" font-size="10" fill="#cccccc">7962.7</text><text x="24" y="130" text-anchor="end" font-size="12" fill="#cccccc">수</text><rect x="28" y="114" width="280" height="22" rx="3" fill="#216e39"><title>수: 9584.3점</title></rect><text x="313" y="130" font-size="10" fill="#cccccc">9584.3</text><text x="24" y="158" text-anchor="end" font-size="12" fill="#cccccc">목</text><rect x="28" y="142" width="221" height="22" rx="3" fill="#216e39"><title>목: 7588.3점</title></rect><text x="254" y="158" font-size="10" fill="#cccccc">7588.3</text><text x="24" y="186" text-anchor="end" font-size="12" fill="#cccccc">금</text><rect x="28" y="170" width="167" height="22" rx="3" fill="#30a14e"><title>금: 5727.0점</title></rect><text x="200" y="186" font-size="10" fill="#cccccc">5727.0</text><text x="24" y="214" text-anchor="end" font-size="12" fill="#cccccc">토</text><rect x="28" y="198" width="111" height="22" rx="3" fill="#40c463"><title>토: 3815.6점</title></rect><text x="144" y="214" font-size="10" fill="#cccccc">3815.6</text>
<text x="28" y="254" font-size="9" fill="#999999">기준: 2026-05-28 22:46</text>
</svg>