<svg xmlns="http://www.w3.org/2000/svg" width="363" height="260">
<text x="181" y="18" text-anchor="middle" font-size="13" font-weight="bold" fill="#111111">최근 1주 요일별 활동</text>
<text x="24" y="46" text-anchor="end" font-size="12" fill="#333333">일</text><rect x="28" y="30" width="280" height="22" rx="3" fill="#216e39"><title>일: 2737.3점</title></rect><text x="313" y="46" font-size="10" fill="#333333">2737.3</text><text x="24" y="74" text-anchor="end" font-size="12" fill="#333333">월</text><rect x="28" y="58" width="201" height="22" rx="3" fill="#30a14e"><title>월: 1967.4점</title></rect><text x="234" y="74" font-size="10" fill="#333333">1967.4</text><text x="24" y="102" text-anchor="end" font-size="12" fill="#333333">화</text><rect x="28" y="86" width="219" height="22" rx="3" fill="#216e39"><title>화: 2143.2점</title></rect><text x="252" y="102" font-size="10" fill="#333333">2143.2</text><text x="24" y="130" text-anchor="end" font-size="12" fill="#333333">수</text><rect x="28" y="114" width="213" height="22" rx="3" fill="#216e39"><title>수: 2091.7점</title></rect><text x="246" y="130" font-size="10" fill="#333333">2091.7</text><text x="24" y="158" text-anchor="end" font-size="12" fill="#333333">목</text><rect x="28" y="142" width="85" height="22" rx="3" fill="#40c463"><title>목: 833.5점</title></rect><text x="118" y="158" font-size="10" fill="#333333">833.5</text><text x="24" y="186" text-anchor="end" font-size="12" fill="#333333">금</text><rect x="28" y="170" width="106" height="22" rx="3" fill="#40c463"><title>금: 1044.9점</title></rect><text x="139" y="186" font-size="10" fill="#333333">1044.9</text><text x="24" y="214" text-anchor="end" font-size="12" fill="#333333">토</text><rect x="28" y="198" width="6" height="22" rx="3" fill="#9be9a8"><title>토: 65.7점</title></rect><text x="39" y="214" font-size="10" fill="#333333">65.7</text>
<text x="28" y="254" font-size="9" fill="#666666">기준: 2026-07-11 10:35</text>
</svg>