<svg xmlns="http://www.w3.org/2000/svg" width="363" height="260">
<text x="181" y="18" text-anchor="middle" font-size="13" font-weight="bold" fill="#111111">최근 1주 요일별 활동</text>
<text x="24" y="46" text-anchor="end" font-size="12" fill="#333333">일</text><rect x="28" y="30" width="160" height="22" rx="3" fill="#30a14e"><title>일: 308.4점</title></rect><text x="193" y="46" font-size="10" fill="#333333">308.4</text><text x="24" y="74" text-anchor="end" font-size="12" fill="#333333">월</text><rect x="28" y="58" width="57" height="22" rx="3" fill="#9be9a8"><title>월: 109.8점</title></rect><text x="90" y="74" font-size="10" fill="#333333">109.8</text><text x="24" y="102" text-anchor="end" font-size="12" fill="#333333">화</text><rect x="28" y="86" width="280" height="22" rx="3" fill="#216e39"><title>화: 536.6점</title></rect><text x="313" y="102" font-size="10" fill="#333333">536.6</text><text x="24" y="130" text-anchor="end" font-size="12" fill="#333333">수</text><rect x="28" y="114" width="92" height="22" rx="3" fill="#40c463"><title>수: 177.8점</title></rect><text x="125" y="130" font-size="10" fill="#333333">177.8</text><text x="24" y="158" text-anchor="end" font-size="12" fill="#333333">목</text><rect x="28" y="142" width="2" height="22" rx="3" fill="#ebedf0"><title>목: 0.0점</title></rect><text x="35" y="158" font-size="10" fill="#333333">0.0</text><text x="24" y="186" text-anchor="end" font-size="12" fill="#333333">금</text><rect x="28" y="170" width="198" height="22" rx="3" fill="#30a14e"><title>금: 380.5점</title></rect><text x="231" y="186" font-size="10" fill="#333333">380.5</text><text x="24" y="214" text-anchor="end" font-size="12" fill="#333333">토</text><rect x="28" y="198" width="205" height="22" rx="3" fill="#30a14e"><title>토: 393.5점</title></rect><text x="238" y="214" font-size="10" fill="#333333">393.5</text>
<text x="28" y="254" font-size="9" fill="#666666">기준: 2026-05-21 04:47</text>
</svg>