<svg xmlns="http://www.w3.org/2000/svg" width="363" height="260">
<text x="181" y="18" text-anchor="middle" font-size="13" font-weight="bold" fill="#e0e0e0">최근 2주 요일별 활동</text>
<text x="24" y="46" text-anchor="end" font-size="12" fill="#cccccc">일</text><rect x="28" y="30" width="70" height="22" rx="3" fill="#40c463"><title>일: 3145.8점</title></rect><text x="103" y="46" font-size="10" fill="#cccccc">3145.8</text><text x="24" y="74" text-anchor="end" font-size="12" fill="#cccccc">월</text><rect x="28" y="58" width="280" height="22" rx="3" fill="#216e39"><title>월: 12531.7점</title></rect><text x="313" y="74" font-size="10" fill="#cccccc">12531.7</text><text x="24" y="102" text-anchor="end" font-size="12" fill="#cccccc">화</text><rect x="28" y="86" width="267" height="22" rx="3" fill="#216e39"><title>화: 11977.4점</title></rect><text x="300" y="102" font-size="10" fill="#cccccc">11977.4</text><text x="24" y="130" text-anchor="end" font-size="12" fill="#cccccc">수</text><rect x="28" y="114" width="201" height="22" rx="3" fill="#30a14e"><title>수: 9033.6점</title></rect><text x="234" y="130" font-size="10" fill="#cccccc">9033.6</text><text x="24" y="158" text-anchor="end" font-size="12" fill="#cccccc">목</text><rect x="28" y="142" width="136" height="22" rx="3" fill="#40c463"><title>목: 6110.7점</title></rect><text x="169" y="158" font-size="10" fill="#cccccc">6110.7</text><text x="24" y="186" text-anchor="end" font-size="12" fill="#cccccc">금</text><rect x="28" y="170" width="122" height="22" rx="3" fill="#40c463"><title>금: 5464.8점</title></rect><text x="155" y="186" font-size="10" fill="#cccccc">5464.8</text><text x="24" y="214" text-anchor="end" font-size="12" fill="#cccccc">토</text><rect x="28" y="198" width="133" height="22" rx="3" fill="#40c463"><title>토: 5973.7점</title></rect><text x="166" y="214" font-size="10" fill="#cccccc">5973.7</text>
<text x="28" y="254" font-size="9" fill="#999999">기준: 2026-07-12 04:01</text>
</svg>