<svg xmlns="http://www.w3.org/2000/svg" width="363" height="260">
<text x="181" y="18" text-anchor="middle" font-size="13" font-weight="bold" fill="#111111">최근 2주 요일별 활동</text>
<text x="24" y="46" text-anchor="end" font-size="12" fill="#333333">일</text><rect x="28" y="30" width="280" height="22" rx="3" fill="#216e39"><title>일: 6897.0점</title></rect><text x="313" y="46" font-size="10" fill="#333333">6897.0</text><text x="24" y="74" text-anchor="end" font-size="12" fill="#333333">월</text><rect x="28" y="58" width="176" height="22" rx="3" fill="#30a14e"><title>월: 4337.8점</title></rect><text x="209" y="74" font-size="10" fill="#333333">4337.8</text><text x="24" y="102" text-anchor="end" font-size="12" fill="#333333">화</text><rect x="28" y="86" width="157" height="22" rx="3" fill="#30a14e"><title>화: 3876.2점</title></rect><text x="190" y="102" font-size="10" fill="#333333">3876.2</text><text x="24" y="130" text-anchor="end" font-size="12" fill="#333333">수</text><rect x="28" y="114" width="137" height="22" rx="3" fill="#40c463"><title>수: 3388.0점</title></rect><text x="170" y="130" font-size="10" fill="#333333">3388.0</text><text x="24" y="158" text-anchor="end" font-size="12" fill="#333333">목</text><rect x="28" y="142" width="122" height="22" rx="3" fill="#40c463"><title>목: 3025.0점</title></rect><text x="155" y="158" font-size="10" fill="#333333">3025.0</text><text x="24" y="186" text-anchor="end" font-size="12" fill="#333333">금</text><rect x="28" y="170" width="100" height="22" rx="3" fill="#40c463"><title>금: 2475.0점</title></rect><text x="133" y="186" font-size="10" fill="#333333">2475.0</text><text x="24" y="214" text-anchor="end" font-size="12" fill="#333333">토</text><rect x="28" y="198" width="107" height="22" rx="3" fill="#40c463"><title>토: 2651.0점</title></rect><text x="140" y="214" font-size="10" fill="#333333">2651.0</text>
<text x="28" y="254" font-size="9" fill="#666666">기준: 2026-06-06 11:00</text>
</svg>