<svg xmlns="http://www.w3.org/2000/svg" width="363" height="260">
<text x="181" y="18" text-anchor="middle" font-size="13" font-weight="bold" fill="#e0e0e0">최근 1주 요일별 활동</text>
<text x="24" y="46" text-anchor="end" font-size="12" fill="#cccccc">일</text><rect x="28" y="30" width="221" height="22" rx="3" fill="#216e39"><title>일: 2787.9점</title></rect><text x="254" y="46" font-size="10" fill="#cccccc">2787.9</text><text x="24" y="74" text-anchor="end" font-size="12" fill="#cccccc">월</text><rect x="28" y="58" width="100" height="22" rx="3" fill="#40c463"><title>월: 1265.0점</title></rect><text x="133" y="74" font-size="10" fill="#cccccc">1265.0</text><text x="24" y="102" text-anchor="end" font-size="12" fill="#cccccc">화</text><rect x="28" y="86" width="280" height="22" rx="3" fill="#216e39"><title>화: 3520.5점</title></rect><text x="313" y="102" font-size="10" fill="#cccccc">3520.5</text><text x="24" y="130" text-anchor="end" font-size="12" fill="#cccccc">수</text><rect x="28" y="114" width="111" height="22" rx="3" fill="#40c463"><title>수: 1402.7점</title></rect><text x="144" y="130" font-size="10" fill="#cccccc">1402.7</text><text x="24" y="158" text-anchor="end" font-size="12" fill="#cccccc">목</text><rect x="28" y="142" width="34" height="22" rx="3" fill="#9be9a8"><title>목: 440.0점</title></rect><text x="67" y="158" font-size="10" fill="#cccccc">440.0</text><text x="24" y="186" text-anchor="end" font-size="12" fill="#cccccc">금</text><rect x="28" y="170" width="13" height="22" rx="3" fill="#9be9a8"><title>금: 165.0점</title></rect><text x="46" y="186" font-size="10" fill="#cccccc">165.0</text><text x="24" y="214" text-anchor="end" font-size="12" fill="#cccccc">토</text><rect x="28" y="198" width="2" height="22" rx="3" fill="#ebedf0"><title>토: 0.0점</title></rect><text x="35" y="214" font-size="10" fill="#cccccc">0.0</text>
<text x="28" y="254" font-size="9" fill="#999999">기준: 2026-06-13 04:54</text>
</svg>