<svg xmlns="http://www.w3.org/2000/svg" width="363" height="260">
<text x="181" y="18" text-anchor="middle" font-size="13" font-weight="bold" fill="#111111">최근 1달 요일별 활동</text>
<text x="24" y="46" text-anchor="end" font-size="12" fill="#333333">일</text><rect x="28" y="30" width="256" height="22" rx="3" fill="#216e39"><title>일: 21425.5점</title></rect><text x="289" y="46" font-size="10" fill="#333333">21425.5</text><text x="24" y="74" text-anchor="end" font-size="12" fill="#333333">월</text><rect x="28" y="58" width="148" height="22" rx="3" fill="#30a14e"><title>월: 12395.7점</title></rect><text x="181" y="74" font-size="10" fill="#333333">12395.7</text><text x="24" y="102" text-anchor="end" font-size="12" fill="#333333">화</text><rect x="28" y="86" width="280" height="22" rx="3" fill="#216e39"><title>화: 23426.3점</title></rect><text x="313" y="102" font-size="10" fill="#333333">23426.3</text><text x="24" y="130" text-anchor="end" font-size="12" fill="#333333">수</text><rect x="28" y="114" width="221" height="22" rx="3" fill="#216e39"><title>수: 18507.4점</title></rect><text x="254" y="130" font-size="10" fill="#333333">18507.4</text><text x="24" y="158" text-anchor="end" font-size="12" fill="#333333">목</text><rect x="28" y="142" width="196" height="22" rx="3" fill="#30a14e"><title>목: 16445.0점</title></rect><text x="229" y="158" font-size="10" fill="#333333">16445.0</text><text x="24" y="186" text-anchor="end" font-size="12" fill="#333333">금</text><rect x="28" y="170" width="183" height="22" rx="3" fill="#30a14e"><title>금: 15345.0점</title></rect><text x="216" y="186" font-size="10" fill="#333333">15345.0</text><text x="24" y="214" text-anchor="end" font-size="12" fill="#333333">토</text><rect x="28" y="198" width="245" height="22" rx="3" fill="#216e39"><title>토: 20561.0점</title></rect><text x="278" y="214" font-size="10" fill="#333333">20561.0</text>
<text x="28" y="254" font-size="9" fill="#666666">기준: 2026-06-14 22:35</text>
</svg>