<svg xmlns="http://www.w3.org/2000/svg" width="363" height="260">
<text x="181" y="18" text-anchor="middle" font-size="13" font-weight="bold" fill="#111111">최근 1주 요일별 활동</text>
<text x="24" y="46" text-anchor="end" font-size="12" fill="#333333">일</text><rect x="28" y="30" width="10" height="22" rx="3" fill="#9be9a8"><title>일: 66.0점</title></rect><text x="43" y="46" font-size="10" fill="#333333">66.0</text><text x="24" y="74" text-anchor="end" font-size="12" fill="#333333">월</text><rect x="28" y="58" width="46" height="22" rx="3" fill="#9be9a8"><title>월: 309.4점</title></rect><text x="79" y="74" font-size="10" fill="#333333">309.4</text><text x="24" y="102" text-anchor="end" font-size="12" fill="#333333">화</text><rect x="28" y="86" width="280" height="22" rx="3" fill="#216e39"><title>화: 1845.0점</title></rect><text x="313" y="102" font-size="10" fill="#333333">1845.0</text><text x="24" y="130" text-anchor="end" font-size="12" fill="#333333">수</text><rect x="28" y="114" width="203" height="22" rx="3" fill="#30a14e"><title>수: 1341.8점</title></rect><text x="236" y="130" font-size="10" fill="#333333">1341.8</text><text x="24" y="158" text-anchor="end" font-size="12" fill="#333333">목</text><rect x="28" y="142" width="150" height="22" rx="3" fill="#30a14e"><title>목: 990.0점</title></rect><text x="183" y="158" font-size="10" fill="#333333">990.0</text><text x="24" y="186" text-anchor="end" font-size="12" fill="#333333">금</text><rect x="28" y="170" width="108" height="22" rx="3" fill="#40c463"><title>금: 715.0점</title></rect><text x="141" y="186" font-size="10" fill="#333333">715.0</text><text x="24" y="214" text-anchor="end" font-size="12" fill="#333333">토</text><rect x="28" y="198" width="81" height="22" rx="3" fill="#40c463"><title>토: 539.0점</title></rect><text x="114" y="214" font-size="10" fill="#333333">539.0</text>
<text x="28" y="254" font-size="9" fill="#666666">기준: 2026-05-24 14:03</text>
</svg>