<svg xmlns="http://www.w3.org/2000/svg" width="363" height="260">
<text x="181" y="18" text-anchor="middle" font-size="13" font-weight="bold" fill="#111111">최근 1달 요일별 활동</text>
<text x="24" y="46" text-anchor="end" font-size="12" fill="#333333">일</text><rect x="28" y="30" width="242" height="22" rx="3" fill="#216e39"><title>일: 25502.1점</title></rect><text x="275" y="46" font-size="10" fill="#333333">25502.1</text><text x="24" y="74" text-anchor="end" font-size="12" fill="#333333">월</text><rect x="28" y="58" width="154" height="22" rx="3" fill="#30a14e"><title>월: 16228.6점</title></rect><text x="187" y="74" font-size="10" fill="#333333">16228.6</text><text x="24" y="102" text-anchor="end" font-size="12" fill="#333333">화</text><rect x="28" y="86" width="214" height="22" rx="3" fill="#216e39"><title>화: 22549.9점</title></rect><text x="247" y="102" font-size="10" fill="#333333">22549.9</text><text x="24" y="130" text-anchor="end" font-size="12" fill="#333333">수</text><rect x="28" y="114" width="159" height="22" rx="3" fill="#30a14e"><title>수: 16751.5점</title></rect><text x="192" y="130" font-size="10" fill="#333333">16751.5</text><text x="24" y="158" text-anchor="end" font-size="12" fill="#333333">목</text><rect x="28" y="142" width="134" height="22" rx="3" fill="#40c463"><title>목: 14110.9점</title></rect><text x="167" y="158" font-size="10" fill="#333333">14110.9</text><text x="24" y="186" text-anchor="end" font-size="12" fill="#333333">금</text><rect x="28" y="170" width="204" height="22" rx="3" fill="#30a14e"><title>금: 21531.6점</title></rect><text x="237" y="186" font-size="10" fill="#333333">21531.6</text><text x="24" y="214" text-anchor="end" font-size="12" fill="#333333">토</text><rect x="28" y="198" width="280" height="22" rx="3" fill="#216e39"><title>토: 29452.5점</title></rect><text x="313" y="214" font-size="10" fill="#333333">29452.5</text>
<text x="28" y="254" font-size="9" fill="#666666">기준: 2026-06-20 14:33</text>
</svg>