<svg xmlns="http://www.w3.org/2000/svg" width="363" height="260">
<text x="181" y="18" text-anchor="middle" font-size="13" font-weight="bold" fill="#e0e0e0">최근 1주 요일별 활동</text>
<text x="24" y="46" text-anchor="end" font-size="12" fill="#cccccc">일</text><rect x="28" y="30" width="135" height="22" rx="3" fill="#40c463"><title>일: 1594.7점</title></rect><text x="168" y="46" font-size="10" fill="#cccccc">1594.7</text><text x="24" y="74" text-anchor="end" font-size="12" fill="#cccccc">월</text><rect x="28" y="58" width="71" height="22" rx="3" fill="#40c463"><title>월: 848.9점</title></rect><text x="104" y="74" font-size="10" fill="#cccccc">848.9</text><text x="24" y="102" text-anchor="end" font-size="12" fill="#cccccc">화</text><rect x="28" y="86" width="59" height="22" rx="3" fill="#9be9a8"><title>화: 699.2점</title></rect><text x="92" y="102" font-size="10" fill="#cccccc">699.2</text><text x="24" y="130" text-anchor="end" font-size="12" fill="#cccccc">수</text><rect x="28" y="114" width="26" height="22" rx="3" fill="#9be9a8"><title>수: 312.1점</title></rect><text x="59" y="130" font-size="10" fill="#cccccc">312.1</text><text x="24" y="158" text-anchor="end" font-size="12" fill="#cccccc">목</text><rect x="28" y="142" width="233" height="22" rx="3" fill="#216e39"><title>목: 2755.0점</title></rect><text x="266" y="158" font-size="10" fill="#cccccc">2755.0</text><text x="24" y="186" text-anchor="end" font-size="12" fill="#cccccc">금</text><rect x="28" y="170" width="181" height="22" rx="3" fill="#30a14e"><title>금: 2145.0점</title></rect><text x="214" y="186" font-size="10" fill="#cccccc">2145.0</text><text x="24" y="214" text-anchor="end" font-size="12" fill="#cccccc">토</text><rect x="28" y="198" width="280" height="22" rx="3" fill="#216e39"><title>토: 3305.8점</title></rect><text x="313" y="214" font-size="10" fill="#cccccc">3305.8</text>
<text x="28" y="254" font-size="9" fill="#999999">기준: 2026-07-08 22:17</text>
</svg>