<svg xmlns="http://www.w3.org/2000/svg" width="363" height="260">
<text x="181" y="18" text-anchor="middle" font-size="13" font-weight="bold" fill="#e0e0e0">최근 1달 요일별 활동</text>
<text x="24" y="46" text-anchor="end" font-size="12" fill="#cccccc">일</text><rect x="28" y="30" width="280" height="22" rx="3" fill="#216e39"><title>일: 13789.0점</title></rect><text x="313" y="46" font-size="10" fill="#cccccc">13789.0</text><text x="24" y="74" text-anchor="end" font-size="12" fill="#cccccc">월</text><rect x="28" y="58" width="159" height="22" rx="3" fill="#30a14e"><title>월: 7878.0점</title></rect><text x="192" y="74" font-size="10" fill="#cccccc">7878.0</text><text x="24" y="102" text-anchor="end" font-size="12" fill="#cccccc">화</text><rect x="28" y="86" width="277" height="22" rx="3" fill="#216e39"><title>화: 13642.8점</title></rect><text x="310" y="102" font-size="10" fill="#cccccc">13642.8</text><text x="24" y="130" text-anchor="end" font-size="12" fill="#cccccc">수</text><rect x="28" y="114" width="228" height="22" rx="3" fill="#216e39"><title>수: 11237.1점</title></rect><text x="261" y="130" font-size="10" fill="#cccccc">11237.1</text><text x="24" y="158" text-anchor="end" font-size="12" fill="#cccccc">목</text><rect x="28" y="142" width="213" height="22" rx="3" fill="#216e39"><title>목: 10507.5점</title></rect><text x="246" y="158" font-size="10" fill="#cccccc">10507.5</text><text x="24" y="186" text-anchor="end" font-size="12" fill="#cccccc">금</text><rect x="28" y="170" width="196" height="22" rx="3" fill="#30a14e"><title>금: 9675.5점</title></rect><text x="229" y="186" font-size="10" fill="#cccccc">9675.5</text><text x="24" y="214" text-anchor="end" font-size="12" fill="#cccccc">토</text><rect x="28" y="198" width="244" height="22" rx="3" fill="#216e39"><title>토: 12020.5점</title></rect><text x="277" y="214" font-size="10" fill="#cccccc">12020.5</text>
<text x="28" y="254" font-size="9" fill="#999999">기준: 2026-06-08 22:51</text>
</svg>