<svg xmlns="http://www.w3.org/2000/svg" width="363" height="260">
<text x="181" y="18" text-anchor="middle" font-size="13" font-weight="bold" fill="#111111">최근 1달 요일별 활동</text>
<text x="24" y="46" text-anchor="end" font-size="12" fill="#333333">일</text><rect x="28" y="30" width="243" height="22" rx="3" fill="#216e39"><title>일: 23068.7점</title></rect><text x="276" y="46" font-size="10" fill="#333333">23068.7</text><text x="24" y="74" text-anchor="end" font-size="12" fill="#333333">월</text><rect x="28" y="58" width="153" height="22" rx="3" fill="#30a14e"><title>월: 14564.2점</title></rect><text x="186" y="74" font-size="10" fill="#333333">14564.2</text><text x="24" y="102" text-anchor="end" font-size="12" fill="#333333">화</text><rect x="28" y="86" width="209" height="22" rx="3" fill="#30a14e"><title>화: 19882.9점</title></rect><text x="242" y="102" font-size="10" fill="#333333">19882.9</text><text x="24" y="130" text-anchor="end" font-size="12" fill="#333333">수</text><rect x="28" y="114" width="248" height="22" rx="3" fill="#216e39"><title>수: 23596.2점</title></rect><text x="281" y="130" font-size="10" fill="#333333">23596.2</text><text x="24" y="158" text-anchor="end" font-size="12" fill="#333333">목</text><rect x="28" y="142" width="216" height="22" rx="3" fill="#216e39"><title>목: 20515.0점</title></rect><text x="249" y="158" font-size="10" fill="#333333">20515.0</text><text x="24" y="186" text-anchor="end" font-size="12" fill="#333333">금</text><rect x="28" y="170" width="203" height="22" rx="3" fill="#30a14e"><title>금: 19305.0점</title></rect><text x="236" y="186" font-size="10" fill="#333333">19305.0</text><text x="24" y="214" text-anchor="end" font-size="12" fill="#333333">토</text><rect x="28" y="198" width="280" height="22" rx="3" fill="#216e39"><title>토: 26537.4점</title></rect><text x="313" y="214" font-size="10" fill="#333333">26537.4</text>
<text x="28" y="254" font-size="9" fill="#666666">기준: 2026-06-18 23:11</text>
</svg>