<svg xmlns="http://www.w3.org/2000/svg" width="363" height="260">
<text x="181" y="18" text-anchor="middle" font-size="13" font-weight="bold" fill="#111111">최근 2주 요일별 활동</text>
<text x="24" y="46" text-anchor="end" font-size="12" fill="#333333">일</text><rect x="28" y="30" width="182" height="22" rx="3" fill="#30a14e"><title>일: 3451.4점</title></rect><text x="215" y="46" font-size="10" fill="#333333">3451.4</text><text x="24" y="74" text-anchor="end" font-size="12" fill="#333333">월</text><rect x="28" y="58" width="92" height="22" rx="3" fill="#40c463"><title>월: 1749.0점</title></rect><text x="125" y="74" font-size="10" fill="#333333">1749.0</text><text x="24" y="102" text-anchor="end" font-size="12" fill="#333333">화</text><rect x="28" y="86" width="280" height="22" rx="3" fill="#216e39"><title>화: 5289.7점</title></rect><text x="313" y="102" font-size="10" fill="#333333">5289.7</text><text x="24" y="130" text-anchor="end" font-size="12" fill="#333333">수</text><rect x="28" y="114" width="252" height="22" rx="3" fill="#216e39"><title>수: 4774.0점</title></rect><text x="285" y="130" font-size="10" fill="#333333">4774.0</text><text x="24" y="158" text-anchor="end" font-size="12" fill="#333333">목</text><rect x="28" y="142" width="241" height="22" rx="3" fill="#216e39"><title>목: 4565.0점</title></rect><text x="274" y="158" font-size="10" fill="#333333">4565.0</text><text x="24" y="186" text-anchor="end" font-size="12" fill="#333333">금</text><rect x="28" y="170" width="212" height="22" rx="3" fill="#216e39"><title>금: 4015.0점</title></rect><text x="245" y="186" font-size="10" fill="#333333">4015.0</text><text x="24" y="214" text-anchor="end" font-size="12" fill="#333333">토</text><rect x="28" y="198" width="248" height="22" rx="3" fill="#216e39"><title>토: 4697.0점</title></rect><text x="281" y="214" font-size="10" fill="#333333">4697.0</text>
<text x="28" y="254" font-size="9" fill="#666666">기준: 2026-06-08 20:36</text>
</svg>