<svg xmlns="http://www.w3.org/2000/svg" width="363" height="260">
<text x="181" y="18" text-anchor="middle" font-size="13" font-weight="bold" fill="#111111">최근 2주 요일별 활동</text>
<text x="24" y="46" text-anchor="end" font-size="12" fill="#333333">일</text><rect x="28" y="30" width="50" height="22" rx="3" fill="#9be9a8"><title>일: 2199.1점</title></rect><text x="83" y="46" font-size="10" fill="#333333">2199.1</text><text x="24" y="74" text-anchor="end" font-size="12" fill="#333333">월</text><rect x="28" y="58" width="114" height="22" rx="3" fill="#40c463"><title>월: 4985.4점</title></rect><text x="147" y="74" font-size="10" fill="#333333">4985.4</text><text x="24" y="102" text-anchor="end" font-size="12" fill="#333333">화</text><rect x="28" y="86" width="280" height="22" rx="3" fill="#216e39"><title>화: 12224.9점</title></rect><text x="313" y="102" font-size="10" fill="#333333">12224.9</text><text x="24" y="130" text-anchor="end" font-size="12" fill="#333333">수</text><rect x="28" y="114" width="158" height="22" rx="3" fill="#30a14e"><title>수: 6937.8점</title></rect><text x="191" y="130" font-size="10" fill="#333333">6937.8</text><text x="24" y="158" text-anchor="end" font-size="12" fill="#333333">목</text><rect x="28" y="142" width="80" height="22" rx="3" fill="#40c463"><title>목: 3531.1점</title></rect><text x="113" y="158" font-size="10" fill="#333333">3531.1</text><text x="24" y="186" text-anchor="end" font-size="12" fill="#333333">금</text><rect x="28" y="170" width="76" height="22" rx="3" fill="#40c463"><title>금: 3320.6점</title></rect><text x="109" y="186" font-size="10" fill="#333333">3320.6</text><text x="24" y="214" text-anchor="end" font-size="12" fill="#333333">토</text><rect x="28" y="198" width="127" height="22" rx="3" fill="#40c463"><title>토: 5562.1점</title></rect><text x="160" y="214" font-size="10" fill="#333333">5562.1</text>
<text x="28" y="254" font-size="9" fill="#666666">기준: 2026-06-21 05:20</text>
</svg>