<svg xmlns="http://www.w3.org/2000/svg" width="363" height="260">
<text x="181" y="18" text-anchor="middle" font-size="13" font-weight="bold" fill="#111111">최근 1주 요일별 활동</text>
<text x="24" y="46" text-anchor="end" font-size="12" fill="#333333">일</text><rect x="28" y="30" width="280" height="22" rx="3" fill="#216e39"><title>일: 2541.0점</title></rect><text x="313" y="46" font-size="10" fill="#333333">2541.0</text><text x="24" y="74" text-anchor="end" font-size="12" fill="#333333">월</text><rect x="28" y="58" width="163" height="22" rx="3" fill="#30a14e"><title>월: 1485.0점</title></rect><text x="196" y="74" font-size="10" fill="#333333">1485.0</text><text x="24" y="102" text-anchor="end" font-size="12" fill="#333333">화</text><rect x="28" y="86" width="133" height="22" rx="3" fill="#40c463"><title>화: 1210.0점</title></rect><text x="166" y="102" font-size="10" fill="#333333">1210.0</text><text x="24" y="130" text-anchor="end" font-size="12" fill="#333333">수</text><rect x="28" y="114" width="103" height="22" rx="3" fill="#40c463"><title>수: 935.0점</title></rect><text x="136" y="130" font-size="10" fill="#333333">935.0</text><text x="24" y="158" text-anchor="end" font-size="12" fill="#333333">목</text><rect x="28" y="142" width="72" height="22" rx="3" fill="#40c463"><title>목: 660.0점</title></rect><text x="105" y="158" font-size="10" fill="#333333">660.0</text><text x="24" y="186" text-anchor="end" font-size="12" fill="#333333">금</text><rect x="28" y="170" width="42" height="22" rx="3" fill="#9be9a8"><title>금: 385.0점</title></rect><text x="75" y="186" font-size="10" fill="#333333">385.0</text><text x="24" y="214" text-anchor="end" font-size="12" fill="#333333">토</text><rect x="28" y="198" width="12" height="22" rx="3" fill="#9be9a8"><title>토: 110.0점</title></rect><text x="45" y="214" font-size="10" fill="#333333">110.0</text>
<text x="28" y="254" font-size="9" fill="#666666">기준: 2026-05-30 16:17</text>
</svg>