<svg xmlns="http://www.w3.org/2000/svg" width="363" height="260">
<text x="181" y="18" text-anchor="middle" font-size="13" font-weight="bold" fill="#111111">최근 1달 요일별 활동</text>
<text x="24" y="46" text-anchor="end" font-size="12" fill="#333333">일</text><rect x="28" y="30" width="206" height="22" rx="3" fill="#30a14e"><title>일: 6612.6점</title></rect><text x="239" y="46" font-size="10" fill="#333333">6612.6</text><text x="24" y="74" text-anchor="end" font-size="12" fill="#333333">월</text><rect x="28" y="58" width="119" height="22" rx="3" fill="#40c463"><title>월: 3814.8점</title></rect><text x="152" y="74" font-size="10" fill="#333333">3814.8</text><text x="24" y="102" text-anchor="end" font-size="12" fill="#333333">화</text><rect x="28" y="86" width="280" height="22" rx="3" fill="#216e39"><title>화: 8953.5점</title></rect><text x="313" y="102" font-size="10" fill="#333333">8953.5</text><text x="24" y="130" text-anchor="end" font-size="12" fill="#333333">수</text><rect x="28" y="114" width="274" height="22" rx="3" fill="#216e39"><title>수: 8786.1점</title></rect><text x="307" y="130" font-size="10" fill="#333333">8786.1</text><text x="24" y="158" text-anchor="end" font-size="12" fill="#333333">목</text><rect x="28" y="142" width="223" height="22" rx="3" fill="#216e39"><title>목: 7148.3점</title></rect><text x="256" y="158" font-size="10" fill="#333333">7148.3</text><text x="24" y="186" text-anchor="end" font-size="12" fill="#333333">금</text><rect x="28" y="170" width="168" height="22" rx="3" fill="#30a14e"><title>금: 5397.0점</title></rect><text x="201" y="186" font-size="10" fill="#333333">5397.0</text><text x="24" y="214" text-anchor="end" font-size="12" fill="#333333">토</text><rect x="28" y="198" width="104" height="22" rx="3" fill="#40c463"><title>토: 3353.6점</title></rect><text x="137" y="214" font-size="10" fill="#333333">3353.6</text>
<text x="28" y="254" font-size="9" fill="#666666">기준: 2026-05-27 20:30</text>
</svg>