<svg xmlns="http://www.w3.org/2000/svg" width="363" height="260">
<text x="181" y="18" text-anchor="middle" font-size="13" font-weight="bold" fill="#e0e0e0">최근 1달 요일별 활동</text>
<text x="24" y="46" text-anchor="end" font-size="12" fill="#cccccc">일</text><rect x="28" y="30" width="237" height="22" rx="3" fill="#216e39"><title>일: 26762.9점</title></rect><text x="270" y="46" font-size="10" fill="#cccccc">26762.9</text><text x="24" y="74" text-anchor="end" font-size="12" fill="#cccccc">월</text><rect x="28" y="58" width="152" height="22" rx="3" fill="#30a14e"><title>월: 17106.4점</title></rect><text x="185" y="74" font-size="10" fill="#cccccc">17106.4</text><text x="24" y="102" text-anchor="end" font-size="12" fill="#cccccc">화</text><rect x="28" y="86" width="212" height="22" rx="3" fill="#216e39"><title>화: 23927.9점</title></rect><text x="245" y="102" font-size="10" fill="#cccccc">23927.9</text><text x="24" y="130" text-anchor="end" font-size="12" fill="#cccccc">수</text><rect x="28" y="114" width="160" height="22" rx="3" fill="#30a14e"><title>수: 18009.4점</title></rect><text x="193" y="130" font-size="10" fill="#cccccc">18009.4</text><text x="24" y="158" text-anchor="end" font-size="12" fill="#cccccc">목</text><rect x="28" y="142" width="134" height="22" rx="3" fill="#40c463"><title>목: 15114.7점</title></rect><text x="167" y="158" font-size="10" fill="#cccccc">15114.7</text><text x="24" y="186" text-anchor="end" font-size="12" fill="#cccccc">금</text><rect x="28" y="170" width="127" height="22" rx="3" fill="#40c463"><title>금: 14366.7점</title></rect><text x="160" y="186" font-size="10" fill="#cccccc">14366.7</text><text x="24" y="214" text-anchor="end" font-size="12" fill="#cccccc">토</text><rect x="28" y="198" width="280" height="22" rx="3" fill="#216e39"><title>토: 31511.1점</title></rect><text x="313" y="214" font-size="10" fill="#cccccc">31511.1</text>
<text x="28" y="254" font-size="9" fill="#999999">기준: 2026-06-21 05:20</text>
</svg>