<svg xmlns="http://www.w3.org/2000/svg" width="363" height="260">
<text x="181" y="18" text-anchor="middle" font-size="13" font-weight="bold" fill="#111111">최근 1주 요일별 활동</text>
<text x="24" y="46" text-anchor="end" font-size="12" fill="#333333">일</text><rect x="28" y="30" width="102" height="22" rx="3" fill="#40c463"><title>일: 2148.9점</title></rect><text x="135" y="46" font-size="10" fill="#333333">2148.9</text><text x="24" y="74" text-anchor="end" font-size="12" fill="#333333">월</text><rect x="28" y="58" width="91" height="22" rx="3" fill="#40c463"><title>월: 1918.1점</title></rect><text x="124" y="74" font-size="10" fill="#333333">1918.1</text><text x="24" y="102" text-anchor="end" font-size="12" fill="#333333">화</text><rect x="28" y="86" width="25" height="22" rx="3" fill="#9be9a8"><title>화: 526.6점</title></rect><text x="58" y="102" font-size="10" fill="#333333">526.6</text><text x="24" y="130" text-anchor="end" font-size="12" fill="#333333">수</text><rect x="28" y="114" width="280" height="22" rx="3" fill="#216e39"><title>수: 5846.3점</title></rect><text x="313" y="130" font-size="10" fill="#333333">5846.3</text><text x="24" y="158" text-anchor="end" font-size="12" fill="#333333">목</text><rect x="28" y="142" width="126" height="22" rx="3" fill="#40c463"><title>목: 2647.2점</title></rect><text x="159" y="158" font-size="10" fill="#333333">2647.2</text><text x="24" y="186" text-anchor="end" font-size="12" fill="#333333">금</text><rect x="28" y="170" width="230" height="22" rx="3" fill="#216e39"><title>금: 4803.6점</title></rect><text x="263" y="186" font-size="10" fill="#333333">4803.6</text><text x="24" y="214" text-anchor="end" font-size="12" fill="#333333">토</text><rect x="28" y="198" width="133" height="22" rx="3" fill="#40c463"><title>토: 2786.3점</title></rect><text x="166" y="214" font-size="10" fill="#333333">2786.3</text>
<text x="28" y="254" font-size="9" fill="#666666">기준: 2026-07-14 19:45</text>
</svg>