<svg xmlns="http://www.w3.org/2000/svg" width="363" height="260">
<text x="181" y="18" text-anchor="middle" font-size="13" font-weight="bold" fill="#e0e0e0">최근 2주 요일별 활동</text>
<text x="24" y="46" text-anchor="end" font-size="12" fill="#cccccc">일</text><rect x="28" y="30" width="229" height="22" rx="3" fill="#216e39"><title>일: 5610.0점</title></rect><text x="262" y="46" font-size="10" fill="#cccccc">5610.0</text><text x="24" y="74" text-anchor="end" font-size="12" fill="#cccccc">월</text><rect x="28" y="58" width="140" height="22" rx="3" fill="#30a14e"><title>월: 3428.1점</title></rect><text x="173" y="74" font-size="10" fill="#cccccc">3428.1</text><text x="24" y="102" text-anchor="end" font-size="12" fill="#cccccc">화</text><rect x="28" y="86" width="121" height="22" rx="3" fill="#40c463"><title>화: 2967.6점</title></rect><text x="154" y="102" font-size="10" fill="#cccccc">2967.6</text><text x="24" y="130" text-anchor="end" font-size="12" fill="#cccccc">수</text><rect x="28" y="114" width="102" height="22" rx="3" fill="#40c463"><title>수: 2497.0점</title></rect><text x="135" y="130" font-size="10" fill="#cccccc">2497.0</text><text x="24" y="158" text-anchor="end" font-size="12" fill="#cccccc">목</text><rect x="28" y="142" width="83" height="22" rx="3" fill="#40c463"><title>목: 2046.0점</title></rect><text x="116" y="158" font-size="10" fill="#cccccc">2046.0</text><text x="24" y="186" text-anchor="end" font-size="12" fill="#cccccc">금</text><rect x="28" y="170" width="226" height="22" rx="3" fill="#216e39"><title>금: 5555.0점</title></rect><text x="259" y="186" font-size="10" fill="#cccccc">5555.0</text><text x="24" y="214" text-anchor="end" font-size="12" fill="#cccccc">토</text><rect x="28" y="198" width="280" height="22" rx="3" fill="#216e39"><title>토: 6853.0점</title></rect><text x="313" y="214" font-size="10" fill="#cccccc">6853.0</text>
<text x="28" y="254" font-size="9" fill="#999999">기준: 2026-06-04 20:26</text>
</svg>