<svg xmlns="http://www.w3.org/2000/svg" width="363" height="260">
<text x="181" y="18" text-anchor="middle" font-size="13" font-weight="bold" fill="#e0e0e0">최근 1주 요일별 활동</text>
<text x="24" y="46" text-anchor="end" font-size="12" fill="#cccccc">일</text><rect x="28" y="30" width="280" height="22" rx="3" fill="#216e39"><title>일: 3229.3점</title></rect><text x="313" y="46" font-size="10" fill="#cccccc">3229.3</text><text x="24" y="74" text-anchor="end" font-size="12" fill="#cccccc">월</text><rect x="28" y="58" width="129" height="22" rx="3" fill="#40c463"><title>월: 1496.0점</title></rect><text x="162" y="74" font-size="10" fill="#cccccc">1496.0</text><text x="24" y="102" text-anchor="end" font-size="12" fill="#cccccc">화</text><rect x="28" y="86" width="38" height="22" rx="3" fill="#9be9a8"><title>화: 448.5점</title></rect><text x="71" y="102" font-size="10" fill="#cccccc">448.5</text><text x="24" y="130" text-anchor="end" font-size="12" fill="#cccccc">수</text><rect x="28" y="114" width="170" height="22" rx="3" fill="#30a14e"><title>수: 1963.7점</title></rect><text x="203" y="130" font-size="10" fill="#cccccc">1963.7</text><text x="24" y="158" text-anchor="end" font-size="12" fill="#cccccc">목</text><rect x="28" y="142" width="143" height="22" rx="3" fill="#30a14e"><title>목: 1654.7점</title></rect><text x="176" y="158" font-size="10" fill="#cccccc">1654.7</text><text x="24" y="186" text-anchor="end" font-size="12" fill="#cccccc">금</text><rect x="28" y="170" width="179" height="22" rx="3" fill="#30a14e"><title>금: 2065.7점</title></rect><text x="212" y="186" font-size="10" fill="#cccccc">2065.7</text><text x="24" y="214" text-anchor="end" font-size="12" fill="#cccccc">토</text><rect x="28" y="198" width="265" height="22" rx="3" fill="#216e39"><title>토: 3067.0점</title></rect><text x="298" y="214" font-size="10" fill="#cccccc">3067.0</text>
<text x="28" y="254" font-size="9" fill="#999999">기준: 2026-06-23 15:26</text>
</svg>