<svg xmlns="http://www.w3.org/2000/svg" width="363" height="260">
<text x="181" y="18" text-anchor="middle" font-size="13" font-weight="bold" fill="#111111">최근 1달 요일별 활동</text>
<text x="24" y="46" text-anchor="end" font-size="12" fill="#333333">일</text><rect x="28" y="30" width="191" height="22" rx="3" fill="#30a14e"><title>일: 43902.5점</title></rect><text x="224" y="46" font-size="10" fill="#333333">43902.5</text><text x="24" y="74" text-anchor="end" font-size="12" fill="#333333">월</text><rect x="28" y="58" width="198" height="22" rx="3" fill="#30a14e"><title>월: 45565.6점</title></rect><text x="231" y="74" font-size="10" fill="#333333">45565.6</text><text x="24" y="102" text-anchor="end" font-size="12" fill="#333333">화</text><rect x="28" y="86" width="280" height="22" rx="3" fill="#216e39"><title>화: 64328.6점</title></rect><text x="313" y="102" font-size="10" fill="#333333">64328.6</text><text x="24" y="130" text-anchor="end" font-size="12" fill="#333333">수</text><rect x="28" y="114" width="240" height="22" rx="3" fill="#216e39"><title>수: 55267.0점</title></rect><text x="273" y="130" font-size="10" fill="#333333">55267.0</text><text x="24" y="158" text-anchor="end" font-size="12" fill="#333333">목</text><rect x="28" y="142" width="117" height="22" rx="3" fill="#40c463"><title>목: 26896.7점</title></rect><text x="150" y="158" font-size="10" fill="#333333">26896.7</text><text x="24" y="186" text-anchor="end" font-size="12" fill="#333333">금</text><rect x="28" y="170" width="128" height="22" rx="3" fill="#40c463"><title>금: 29435.9점</title></rect><text x="161" y="186" font-size="10" fill="#333333">29435.9</text><text x="24" y="214" text-anchor="end" font-size="12" fill="#333333">토</text><rect x="28" y="198" width="183" height="22" rx="3" fill="#30a14e"><title>토: 42062.9점</title></rect><text x="216" y="214" font-size="10" fill="#333333">42062.9</text>
<text x="28" y="254" font-size="9" fill="#666666">기준: 2026-07-07 10:02</text>
</svg>