<svg xmlns="http://www.w3.org/2000/svg" width="363" height="260">
<text x="181" y="18" text-anchor="middle" font-size="13" font-weight="bold" fill="#e0e0e0">최근 1주 요일별 활동</text>
<text x="24" y="46" text-anchor="end" font-size="12" fill="#cccccc">일</text><rect x="28" y="30" width="27" height="22" rx="3" fill="#9be9a8"><title>일: 1305.1점</title></rect><text x="60" y="46" font-size="10" fill="#cccccc">1305.1</text><text x="24" y="74" text-anchor="end" font-size="12" fill="#cccccc">월</text><rect x="28" y="58" width="18" height="22" rx="3" fill="#9be9a8"><title>월: 856.2점</title></rect><text x="51" y="74" font-size="10" fill="#cccccc">856.2</text><text x="24" y="102" text-anchor="end" font-size="12" fill="#cccccc">화</text><rect x="28" y="86" width="5" height="22" rx="3" fill="#9be9a8"><title>화: 247.0점</title></rect><text x="38" y="102" font-size="10" fill="#cccccc">247.0</text><text x="24" y="130" text-anchor="end" font-size="12" fill="#cccccc">수</text><rect x="28" y="114" width="280" height="22" rx="3" fill="#216e39"><title>수: 13167.7점</title></rect><text x="313" y="130" font-size="10" fill="#cccccc">13167.7</text><text x="24" y="158" text-anchor="end" font-size="12" fill="#cccccc">목</text><rect x="28" y="142" width="94" height="22" rx="3" fill="#40c463"><title>목: 4422.8점</title></rect><text x="127" y="158" font-size="10" fill="#cccccc">4422.8</text><text x="24" y="186" text-anchor="end" font-size="12" fill="#cccccc">금</text><rect x="28" y="170" width="72" height="22" rx="3" fill="#40c463"><title>금: 3430.5점</title></rect><text x="105" y="186" font-size="10" fill="#cccccc">3430.5</text><text x="24" y="214" text-anchor="end" font-size="12" fill="#cccccc">토</text><rect x="28" y="198" width="33" height="22" rx="3" fill="#9be9a8"><title>토: 1585.8점</title></rect><text x="66" y="214" font-size="10" fill="#cccccc">1585.8</text>
<text x="28" y="254" font-size="9" fill="#999999">기준: 2026-06-30 20:21</text>
</svg>