<svg xmlns="http://www.w3.org/2000/svg" width="363" height="260">
<text x="181" y="18" text-anchor="middle" font-size="13" font-weight="bold" fill="#111111">최근 2주 요일별 활동</text>
<text x="24" y="46" text-anchor="end" font-size="12" fill="#333333">일</text><rect x="28" y="30" width="261" height="22" rx="3" fill="#216e39"><title>일: 13715.6점</title></rect><text x="294" y="46" font-size="10" fill="#333333">13715.6</text><text x="24" y="74" text-anchor="end" font-size="12" fill="#333333">월</text><rect x="28" y="58" width="280" height="22" rx="3" fill="#216e39"><title>월: 14669.8점</title></rect><text x="313" y="74" font-size="10" fill="#333333">14669.8</text><text x="24" y="102" text-anchor="end" font-size="12" fill="#333333">화</text><rect x="28" y="86" width="259" height="22" rx="3" fill="#216e39"><title>화: 13574.5점</title></rect><text x="292" y="102" font-size="10" fill="#333333">13574.5</text><text x="24" y="130" text-anchor="end" font-size="12" fill="#333333">수</text><rect x="28" y="114" width="265" height="22" rx="3" fill="#216e39"><title>수: 13896.5점</title></rect><text x="298" y="130" font-size="10" fill="#333333">13896.5</text><text x="24" y="158" text-anchor="end" font-size="12" fill="#333333">목</text><rect x="28" y="142" width="131" height="22" rx="3" fill="#40c463"><title>목: 6865.6점</title></rect><text x="164" y="158" font-size="10" fill="#333333">6865.6</text><text x="24" y="186" text-anchor="end" font-size="12" fill="#333333">금</text><rect x="28" y="170" width="141" height="22" rx="3" fill="#30a14e"><title>금: 7432.8점</title></rect><text x="174" y="186" font-size="10" fill="#333333">7432.8</text><text x="24" y="214" text-anchor="end" font-size="12" fill="#333333">토</text><rect x="28" y="198" width="192" height="22" rx="3" fill="#30a14e"><title>토: 10095.8점</title></rect><text x="225" y="214" font-size="10" fill="#333333">10095.8</text>
<text x="28" y="254" font-size="9" fill="#666666">기준: 2026-06-28 22:16</text>
</svg>