<svg xmlns="http://www.w3.org/2000/svg" width="363" height="260">
<text x="181" y="18" text-anchor="middle" font-size="13" font-weight="bold" fill="#e0e0e0">최근 2주 요일별 활동</text>
<text x="24" y="46" text-anchor="end" font-size="12" fill="#cccccc">일</text><rect x="28" y="30" width="223" height="22" rx="3" fill="#216e39"><title>일: 4609.0점</title></rect><text x="256" y="46" font-size="10" fill="#cccccc">4609.0</text><text x="24" y="74" text-anchor="end" font-size="12" fill="#cccccc">월</text><rect x="28" y="58" width="131" height="22" rx="3" fill="#40c463"><title>월: 2720.6점</title></rect><text x="164" y="74" font-size="10" fill="#cccccc">2720.6</text><text x="24" y="102" text-anchor="end" font-size="12" fill="#cccccc">화</text><rect x="28" y="86" width="109" height="22" rx="3" fill="#40c463"><title>화: 2260.9점</title></rect><text x="142" y="102" font-size="10" fill="#cccccc">2260.9</text><text x="24" y="130" text-anchor="end" font-size="12" fill="#cccccc">수</text><rect x="28" y="114" width="90" height="22" rx="3" fill="#40c463"><title>수: 1870.0점</title></rect><text x="123" y="130" font-size="10" fill="#cccccc">1870.0</text><text x="24" y="158" text-anchor="end" font-size="12" fill="#cccccc">목</text><rect x="28" y="142" width="258" height="22" rx="3" fill="#216e39"><title>목: 5335.0점</title></rect><text x="291" y="158" font-size="10" fill="#cccccc">5335.0</text><text x="24" y="186" text-anchor="end" font-size="12" fill="#cccccc">금</text><rect x="28" y="170" width="232" height="22" rx="3" fill="#216e39"><title>금: 4785.0점</title></rect><text x="265" y="186" font-size="10" fill="#cccccc">4785.0</text><text x="24" y="214" text-anchor="end" font-size="12" fill="#cccccc">토</text><rect x="28" y="198" width="280" height="22" rx="3" fill="#216e39"><title>토: 5775.0점</title></rect><text x="313" y="214" font-size="10" fill="#cccccc">5775.0</text>
<text x="28" y="254" font-size="9" fill="#999999">기준: 2026-06-03 05:19</text>
</svg>