<svg xmlns="http://www.w3.org/2000/svg" width="363" height="260">
<text x="181" y="18" text-anchor="middle" font-size="13" font-weight="bold" fill="#e0e0e0">최근 1달 요일별 활동</text>
<text x="24" y="46" text-anchor="end" font-size="12" fill="#cccccc">일</text><rect x="28" y="30" width="224" height="22" rx="3" fill="#216e39"><title>일: 51868.5점</title></rect><text x="257" y="46" font-size="10" fill="#cccccc">51868.5</text><text x="24" y="74" text-anchor="end" font-size="12" fill="#cccccc">월</text><rect x="28" y="58" width="191" height="22" rx="3" fill="#30a14e"><title>월: 44124.9점</title></rect><text x="224" y="74" font-size="10" fill="#cccccc">44124.9</text><text x="24" y="102" text-anchor="end" font-size="12" fill="#cccccc">화</text><rect x="28" y="86" width="187" height="22" rx="3" fill="#30a14e"><title>화: 43296.3점</title></rect><text x="220" y="102" font-size="10" fill="#cccccc">43296.3</text><text x="24" y="130" text-anchor="end" font-size="12" fill="#cccccc">수</text><rect x="28" y="114" width="280" height="22" rx="3" fill="#216e39"><title>수: 64642.0점</title></rect><text x="313" y="130" font-size="10" fill="#cccccc">64642.0</text><text x="24" y="158" text-anchor="end" font-size="12" fill="#cccccc">목</text><rect x="28" y="142" width="137" height="22" rx="3" fill="#40c463"><title>목: 31665.3점</title></rect><text x="170" y="158" font-size="10" fill="#cccccc">31665.3</text><text x="24" y="186" text-anchor="end" font-size="12" fill="#cccccc">금</text><rect x="28" y="170" width="149" height="22" rx="3" fill="#30a14e"><title>금: 34539.6점</title></rect><text x="182" y="186" font-size="10" fill="#cccccc">34539.6</text><text x="24" y="214" text-anchor="end" font-size="12" fill="#cccccc">토</text><rect x="28" y="198" width="213" height="22" rx="3" fill="#216e39"><title>토: 49190.0점</title></rect><text x="246" y="214" font-size="10" fill="#cccccc">49190.0</text>
<text x="28" y="254" font-size="9" fill="#999999">기준: 2026-07-09 20:06</text>
</svg>