<svg xmlns="http://www.w3.org/2000/svg" width="363" height="260">
<text x="181" y="18" text-anchor="middle" font-size="13" font-weight="bold" fill="#e0e0e0">최근 2주 요일별 활동</text>
<text x="24" y="46" text-anchor="end" font-size="12" fill="#cccccc">일</text><rect x="28" y="30" width="139" height="22" rx="3" fill="#40c463"><title>일: 2772.0점</title></rect><text x="172" y="46" font-size="10" fill="#cccccc">2772.0</text><text x="24" y="74" text-anchor="end" font-size="12" fill="#cccccc">월</text><rect x="28" y="58" width="116" height="22" rx="3" fill="#40c463"><title>월: 2318.7점</title></rect><text x="149" y="74" font-size="10" fill="#cccccc">2318.7</text><text x="24" y="102" text-anchor="end" font-size="12" fill="#cccccc">화</text><rect x="28" y="86" width="280" height="22" rx="3" fill="#216e39"><title>화: 5575.1점</title></rect><text x="313" y="102" font-size="10" fill="#cccccc">5575.1</text><text x="24" y="130" text-anchor="end" font-size="12" fill="#cccccc">수</text><rect x="28" y="114" width="227" height="22" rx="3" fill="#216e39"><title>수: 4537.0점</title></rect><text x="260" y="130" font-size="10" fill="#cccccc">4537.0</text><text x="24" y="158" text-anchor="end" font-size="12" fill="#cccccc">목</text><rect x="28" y="142" width="190" height="22" rx="3" fill="#30a14e"><title>목: 3795.0점</title></rect><text x="223" y="158" font-size="10" fill="#cccccc">3795.0</text><text x="24" y="186" text-anchor="end" font-size="12" fill="#cccccc">금</text><rect x="28" y="170" width="162" height="22" rx="3" fill="#30a14e"><title>금: 3245.0점</title></rect><text x="195" y="186" font-size="10" fill="#cccccc">3245.0</text><text x="24" y="214" text-anchor="end" font-size="12" fill="#cccccc">토</text><rect x="28" y="198" width="181" height="22" rx="3" fill="#30a14e"><title>토: 3619.0점</title></rect><text x="214" y="214" font-size="10" fill="#cccccc">3619.0</text>
<text x="28" y="254" font-size="9" fill="#999999">기준: 2026-05-31 04:54</text>
</svg>