<svg xmlns="http://www.w3.org/2000/svg" width="363" height="260">
<text x="181" y="18" text-anchor="middle" font-size="13" font-weight="bold" fill="#e0e0e0">최근 1주 요일별 활동</text>
<text x="24" y="46" text-anchor="end" font-size="12" fill="#cccccc">일</text><rect x="28" y="30" width="280" height="22" rx="3" fill="#216e39"><title>일: 1881.0점</title></rect><text x="313" y="46" font-size="10" fill="#cccccc">1881.0</text><text x="24" y="74" text-anchor="end" font-size="12" fill="#cccccc">월</text><rect x="28" y="58" width="161" height="22" rx="3" fill="#30a14e"><title>월: 1083.9점</title></rect><text x="194" y="74" font-size="10" fill="#cccccc">1083.9</text><text x="24" y="102" text-anchor="end" font-size="12" fill="#cccccc">화</text><rect x="28" y="86" width="133" height="22" rx="3" fill="#40c463"><title>화: 897.2점</title></rect><text x="166" y="102" font-size="10" fill="#cccccc">897.2</text><text x="24" y="130" text-anchor="end" font-size="12" fill="#cccccc">수</text><rect x="28" y="114" width="101" height="22" rx="3" fill="#40c463"><title>수: 682.0점</title></rect><text x="134" y="130" font-size="10" fill="#cccccc">682.0</text><text x="24" y="158" text-anchor="end" font-size="12" fill="#cccccc">목</text><rect x="28" y="142" width="90" height="22" rx="3" fill="#40c463"><title>목: 605.0점</title></rect><text x="123" y="158" font-size="10" fill="#cccccc">605.0</text><text x="24" y="186" text-anchor="end" font-size="12" fill="#cccccc">금</text><rect x="28" y="170" width="49" height="22" rx="3" fill="#9be9a8"><title>금: 330.0점</title></rect><text x="82" y="186" font-size="10" fill="#cccccc">330.0</text><text x="24" y="214" text-anchor="end" font-size="12" fill="#cccccc">토</text><rect x="28" y="198" width="9" height="22" rx="3" fill="#9be9a8"><title>토: 66.0점</title></rect><text x="42" y="214" font-size="10" fill="#cccccc">66.0</text>
<text x="28" y="254" font-size="9" fill="#999999">기준: 2026-06-06 14:10</text>
</svg>