<svg xmlns="http://www.w3.org/2000/svg" width="363" height="260">
<text x="181" y="18" text-anchor="middle" font-size="13" font-weight="bold" fill="#e0e0e0">최근 2주 요일별 활동</text>
<text x="24" y="46" text-anchor="end" font-size="12" fill="#cccccc">일</text><rect x="28" y="30" width="280" height="22" rx="3" fill="#216e39"><title>일: 23755.3점</title></rect><text x="313" y="46" font-size="10" fill="#cccccc">23755.3</text><text x="24" y="74" text-anchor="end" font-size="12" fill="#cccccc">월</text><rect x="28" y="58" width="230" height="22" rx="3" fill="#216e39"><title>월: 19536.9점</title></rect><text x="263" y="74" font-size="10" fill="#cccccc">19536.9</text><text x="24" y="102" text-anchor="end" font-size="12" fill="#cccccc">화</text><rect x="28" y="86" width="233" height="22" rx="3" fill="#216e39"><title>화: 19823.1점</title></rect><text x="266" y="102" font-size="10" fill="#cccccc">19823.1</text><text x="24" y="130" text-anchor="end" font-size="12" fill="#cccccc">수</text><rect x="28" y="114" width="221" height="22" rx="3" fill="#216e39"><title>수: 18796.7점</title></rect><text x="254" y="130" font-size="10" fill="#cccccc">18796.7</text><text x="24" y="158" text-anchor="end" font-size="12" fill="#cccccc">목</text><rect x="28" y="142" width="78" height="22" rx="3" fill="#40c463"><title>목: 6638.1점</title></rect><text x="111" y="158" font-size="10" fill="#cccccc">6638.1</text><text x="24" y="186" text-anchor="end" font-size="12" fill="#cccccc">금</text><rect x="28" y="170" width="62" height="22" rx="3" fill="#9be9a8"><title>금: 5321.9점</title></rect><text x="95" y="186" font-size="10" fill="#cccccc">5321.9</text><text x="24" y="214" text-anchor="end" font-size="12" fill="#cccccc">토</text><rect x="28" y="198" width="197" height="22" rx="3" fill="#30a14e"><title>토: 16779.3점</title></rect><text x="230" y="214" font-size="10" fill="#cccccc">16779.3</text>
<text x="28" y="254" font-size="9" fill="#999999">기준: 2026-07-03 04:11</text>
</svg>