<svg xmlns="http://www.w3.org/2000/svg" width="363" height="260">
<text x="181" y="18" text-anchor="middle" font-size="13" font-weight="bold" fill="#111111">최근 2주 요일별 활동</text>
<text x="24" y="46" text-anchor="end" font-size="12" fill="#333333">일</text><rect x="28" y="30" width="197" height="22" rx="3" fill="#30a14e"><title>일: 7061.2점</title></rect><text x="230" y="46" font-size="10" fill="#333333">7061.2</text><text x="24" y="74" text-anchor="end" font-size="12" fill="#333333">월</text><rect x="28" y="58" width="123" height="22" rx="3" fill="#40c463"><title>월: 4406.2점</title></rect><text x="156" y="74" font-size="10" fill="#333333">4406.2</text><text x="24" y="102" text-anchor="end" font-size="12" fill="#333333">화</text><rect x="28" y="86" width="76" height="22" rx="3" fill="#40c463"><title>화: 2736.7점</title></rect><text x="109" y="102" font-size="10" fill="#333333">2736.7</text><text x="24" y="130" text-anchor="end" font-size="12" fill="#333333">수</text><rect x="28" y="114" width="273" height="22" rx="3" fill="#216e39"><title>수: 9784.8점</title></rect><text x="306" y="130" font-size="10" fill="#333333">9784.8</text><text x="24" y="158" text-anchor="end" font-size="12" fill="#333333">목</text><rect x="28" y="142" width="146" height="22" rx="3" fill="#30a14e"><title>목: 5256.2점</title></rect><text x="179" y="158" font-size="10" fill="#333333">5256.2</text><text x="24" y="186" text-anchor="end" font-size="12" fill="#333333">금</text><rect x="28" y="170" width="159" height="22" rx="3" fill="#30a14e"><title>금: 5718.8점</title></rect><text x="192" y="186" font-size="10" fill="#333333">5718.8</text><text x="24" y="214" text-anchor="end" font-size="12" fill="#333333">토</text><rect x="28" y="198" width="280" height="22" rx="3" fill="#216e39"><title>토: 10014.1점</title></rect><text x="313" y="214" font-size="10" fill="#333333">10014.1</text>
<text x="28" y="254" font-size="9" fill="#666666">기준: 2026-06-23 22:39</text>
</svg>