<svg xmlns="http://www.w3.org/2000/svg" width="363" height="260">
<text x="181" y="18" text-anchor="middle" font-size="13" font-weight="bold" fill="#111111">최근 2주 요일별 활동</text>
<text x="24" y="46" text-anchor="end" font-size="12" fill="#333333">일</text><rect x="28" y="30" width="225" height="22" rx="3" fill="#216e39"><title>일: 1434.1점</title></rect><text x="258" y="46" font-size="10" fill="#333333">1434.1</text><text x="24" y="74" text-anchor="end" font-size="12" fill="#333333">월</text><rect x="28" y="58" width="151" height="22" rx="3" fill="#30a14e"><title>월: 965.9점</title></rect><text x="184" y="74" font-size="10" fill="#333333">965.9</text><text x="24" y="102" text-anchor="end" font-size="12" fill="#333333">화</text><rect x="28" y="86" width="280" height="22" rx="3" fill="#216e39"><title>화: 1781.1점</title></rect><text x="313" y="102" font-size="10" fill="#333333">1781.1</text><text x="24" y="130" text-anchor="end" font-size="12" fill="#333333">수</text><rect x="28" y="114" width="131" height="22" rx="3" fill="#40c463"><title>수: 835.1점</title></rect><text x="164" y="130" font-size="10" fill="#333333">835.1</text><text x="24" y="158" text-anchor="end" font-size="12" fill="#333333">목</text><rect x="28" y="142" width="95" height="22" rx="3" fill="#40c463"><title>목: 607.5점</title></rect><text x="128" y="158" font-size="10" fill="#333333">607.5</text><text x="24" y="186" text-anchor="end" font-size="12" fill="#333333">금</text><rect x="28" y="170" width="61" height="22" rx="3" fill="#9be9a8"><title>금: 391.5점</title></rect><text x="94" y="186" font-size="10" fill="#333333">391.5</text><text x="24" y="214" text-anchor="end" font-size="12" fill="#333333">토</text><rect x="28" y="198" width="215" height="22" rx="3" fill="#216e39"><title>토: 1374.0점</title></rect><text x="248" y="214" font-size="10" fill="#333333">1374.0</text>
<text x="28" y="254" font-size="9" fill="#666666">기준: 2026-05-22 09:51</text>
</svg>