<svg xmlns="http://www.w3.org/2000/svg" width="363" height="260">
<text x="181" y="18" text-anchor="middle" font-size="13" font-weight="bold" fill="#111111">최근 1달 요일별 활동</text>
<text x="24" y="46" text-anchor="end" font-size="12" fill="#333333">일</text><rect x="28" y="30" width="251" height="22" rx="3" fill="#216e39"><title>일: 27268.4점</title></rect><text x="284" y="46" font-size="10" fill="#333333">27268.4</text><text x="24" y="74" text-anchor="end" font-size="12" fill="#333333">월</text><rect x="28" y="58" width="161" height="22" rx="3" fill="#30a14e"><title>월: 17472.9점</title></rect><text x="194" y="74" font-size="10" fill="#333333">17472.9</text><text x="24" y="102" text-anchor="end" font-size="12" fill="#333333">화</text><rect x="28" y="86" width="243" height="22" rx="3" fill="#216e39"><title>화: 26383.0점</title></rect><text x="276" y="102" font-size="10" fill="#333333">26383.0</text><text x="24" y="130" text-anchor="end" font-size="12" fill="#333333">수</text><rect x="28" y="114" width="248" height="22" rx="3" fill="#216e39"><title>수: 26953.2점</title></rect><text x="281" y="130" font-size="10" fill="#333333">26953.2</text><text x="24" y="158" text-anchor="end" font-size="12" fill="#333333">목</text><rect x="28" y="142" width="190" height="22" rx="3" fill="#30a14e"><title>목: 20680.6점</title></rect><text x="223" y="158" font-size="10" fill="#333333">20680.6</text><text x="24" y="186" text-anchor="end" font-size="12" fill="#333333">금</text><rect x="28" y="170" width="193" height="22" rx="3" fill="#30a14e"><title>금: 21000.1점</title></rect><text x="226" y="186" font-size="10" fill="#333333">21000.1</text><text x="24" y="214" text-anchor="end" font-size="12" fill="#333333">토</text><rect x="28" y="198" width="280" height="22" rx="3" fill="#216e39"><title>토: 30351.3점</title></rect><text x="313" y="214" font-size="10" fill="#333333">30351.3</text>
<text x="28" y="254" font-size="9" fill="#666666">기준: 2026-06-25 09:45</text>
</svg>