<svg xmlns="http://www.w3.org/2000/svg" width="363" height="260">
<text x="181" y="18" text-anchor="middle" font-size="13" font-weight="bold" fill="#111111">최근 1달 요일별 활동</text>
<text x="24" y="46" text-anchor="end" font-size="12" fill="#333333">일</text><rect x="28" y="30" width="216" height="22" rx="3" fill="#216e39"><title>일: 25614.8점</title></rect><text x="249" y="46" font-size="10" fill="#333333">25614.8</text><text x="24" y="74" text-anchor="end" font-size="12" fill="#333333">월</text><rect x="28" y="58" width="136" height="22" rx="3" fill="#40c463"><title>월: 16143.3점</title></rect><text x="169" y="74" font-size="10" fill="#333333">16143.3</text><text x="24" y="102" text-anchor="end" font-size="12" fill="#333333">화</text><rect x="28" y="86" width="280" height="22" rx="3" fill="#216e39"><title>화: 33094.5점</title></rect><text x="313" y="102" font-size="10" fill="#333333">33094.5</text><text x="24" y="130" text-anchor="end" font-size="12" fill="#333333">수</text><rect x="28" y="114" width="211" height="22" rx="3" fill="#216e39"><title>수: 24976.2점</title></rect><text x="244" y="130" font-size="10" fill="#333333">24976.2</text><text x="24" y="158" text-anchor="end" font-size="12" fill="#333333">목</text><rect x="28" y="142" width="168" height="22" rx="3" fill="#30a14e"><title>목: 19882.6점</title></rect><text x="201" y="158" font-size="10" fill="#333333">19882.6</text><text x="24" y="186" text-anchor="end" font-size="12" fill="#333333">금</text><rect x="28" y="170" width="170" height="22" rx="3" fill="#30a14e"><title>금: 20095.6점</title></rect><text x="203" y="186" font-size="10" fill="#333333">20095.6</text><text x="24" y="214" text-anchor="end" font-size="12" fill="#333333">토</text><rect x="28" y="198" width="244" height="22" rx="3" fill="#216e39"><title>토: 28933.0점</title></rect><text x="277" y="214" font-size="10" fill="#333333">28933.0</text>
<text x="28" y="254" font-size="9" fill="#666666">기준: 2026-06-24 20:12</text>
</svg>