<svg xmlns="http://www.w3.org/2000/svg" width="363" height="260">
<text x="181" y="18" text-anchor="middle" font-size="13" font-weight="bold" fill="#e0e0e0">최근 2주 요일별 활동</text>
<text x="24" y="46" text-anchor="end" font-size="12" fill="#cccccc">일</text><rect x="28" y="30" width="217" height="22" rx="3" fill="#216e39"><title>일: 1486.9점</title></rect><text x="250" y="46" font-size="10" fill="#cccccc">1486.9</text><text x="24" y="74" text-anchor="end" font-size="12" fill="#cccccc">월</text><rect x="28" y="58" width="143" height="22" rx="3" fill="#30a14e"><title>월: 985.8점</title></rect><text x="176" y="74" font-size="10" fill="#cccccc">985.8</text><text x="24" y="102" text-anchor="end" font-size="12" fill="#cccccc">화</text><rect x="28" y="86" width="280" height="22" rx="3" fill="#216e39"><title>화: 1917.5점</title></rect><text x="313" y="102" font-size="10" fill="#cccccc">1917.5</text><text x="24" y="130" text-anchor="end" font-size="12" fill="#cccccc">수</text><rect x="28" y="114" width="138" height="22" rx="3" fill="#40c463"><title>수: 951.5점</title></rect><text x="171" y="130" font-size="10" fill="#cccccc">951.5</text><text x="24" y="158" text-anchor="end" font-size="12" fill="#cccccc">목</text><rect x="28" y="142" width="104" height="22" rx="3" fill="#40c463"><title>목: 717.5점</title></rect><text x="137" y="158" font-size="10" fill="#cccccc">717.5</text><text x="24" y="186" text-anchor="end" font-size="12" fill="#cccccc">금</text><rect x="28" y="170" width="65" height="22" rx="3" fill="#9be9a8"><title>금: 446.5점</title></rect><text x="98" y="186" font-size="10" fill="#cccccc">446.5</text><text x="24" y="214" text-anchor="end" font-size="12" fill="#cccccc">토</text><rect x="28" y="198" width="200" height="22" rx="3" fill="#30a14e"><title>토: 1374.0점</title></rect><text x="233" y="214" font-size="10" fill="#cccccc">1374.0</text>
<text x="28" y="254" font-size="9" fill="#999999">기준: 2026-05-22 20:13</text>
</svg>