<svg xmlns="http://www.w3.org/2000/svg" width="363" height="260">
<text x="181" y="18" text-anchor="middle" font-size="13" font-weight="bold" fill="#111111">최근 1달 요일별 활동</text>
<text x="24" y="46" text-anchor="end" font-size="12" fill="#333333">일</text><rect x="28" y="30" width="256" height="22" rx="3" fill="#216e39"><title>일: 48628.0점</title></rect><text x="289" y="46" font-size="10" fill="#333333">48628.0</text><text x="24" y="74" text-anchor="end" font-size="12" fill="#333333">월</text><rect x="28" y="58" width="193" height="22" rx="3" fill="#30a14e"><title>월: 36649.2점</title></rect><text x="226" y="74" font-size="10" fill="#333333">36649.2</text><text x="24" y="102" text-anchor="end" font-size="12" fill="#333333">화</text><rect x="28" y="86" width="280" height="22" rx="3" fill="#216e39"><title>화: 53147.2점</title></rect><text x="313" y="102" font-size="10" fill="#333333">53147.2</text><text x="24" y="130" text-anchor="end" font-size="12" fill="#333333">수</text><rect x="28" y="114" width="234" height="22" rx="3" fill="#216e39"><title>수: 44588.2점</title></rect><text x="267" y="130" font-size="10" fill="#333333">44588.2</text><text x="24" y="158" text-anchor="end" font-size="12" fill="#333333">목</text><rect x="28" y="142" width="111" height="22" rx="3" fill="#40c463"><title>목: 21219.7점</title></rect><text x="144" y="158" font-size="10" fill="#333333">21219.7</text><text x="24" y="186" text-anchor="end" font-size="12" fill="#333333">금</text><rect x="28" y="170" width="167" height="22" rx="3" fill="#30a14e"><title>금: 31795.1점</title></rect><text x="200" y="186" font-size="10" fill="#333333">31795.1</text><text x="24" y="214" text-anchor="end" font-size="12" fill="#333333">토</text><rect x="28" y="198" width="236" height="22" rx="3" fill="#216e39"><title>토: 44946.1점</title></rect><text x="269" y="214" font-size="10" fill="#333333">44946.1</text>
<text x="28" y="254" font-size="9" fill="#666666">기준: 2026-07-04 11:01</text>
</svg>