<svg xmlns="http://www.w3.org/2000/svg" width="363" height="260">
<text x="181" y="18" text-anchor="middle" font-size="13" font-weight="bold" fill="#111111">최근 1주 요일별 활동</text>
<text x="24" y="46" text-anchor="end" font-size="12" fill="#333333">일</text><rect x="28" y="30" width="136" height="22" rx="3" fill="#40c463"><title>일: 3100.7점</title></rect><text x="169" y="46" font-size="10" fill="#333333">3100.7</text><text x="24" y="74" text-anchor="end" font-size="12" fill="#333333">월</text><rect x="28" y="58" width="149" height="22" rx="3" fill="#30a14e"><title>월: 3395.4점</title></rect><text x="182" y="74" font-size="10" fill="#333333">3395.4</text><text x="24" y="102" text-anchor="end" font-size="12" fill="#333333">화</text><rect x="28" y="86" width="77" height="22" rx="3" fill="#40c463"><title>화: 1764.6점</title></rect><text x="110" y="102" font-size="10" fill="#333333">1764.6</text><text x="24" y="130" text-anchor="end" font-size="12" fill="#333333">수</text><rect x="28" y="114" width="24" height="22" rx="3" fill="#9be9a8"><title>수: 547.0점</title></rect><text x="57" y="130" font-size="10" fill="#333333">547.0</text><text x="24" y="158" text-anchor="end" font-size="12" fill="#333333">목</text><rect x="28" y="142" width="140" height="22" rx="3" fill="#30a14e"><title>목: 3199.3점</title></rect><text x="173" y="158" font-size="10" fill="#333333">3199.3</text><text x="24" y="186" text-anchor="end" font-size="12" fill="#333333">금</text><rect x="28" y="170" width="280" height="22" rx="3" fill="#216e39"><title>금: 6377.1점</title></rect><text x="313" y="186" font-size="10" fill="#333333">6377.1</text><text x="24" y="214" text-anchor="end" font-size="12" fill="#333333">토</text><rect x="28" y="198" width="176" height="22" rx="3" fill="#30a14e"><title>토: 4009.9점</title></rect><text x="209" y="214" font-size="10" fill="#333333">4009.9</text>
<text x="28" y="254" font-size="9" fill="#666666">기준: 2026-07-15 19:38</text>
</svg>