<svg xmlns="http://www.w3.org/2000/svg" width="363" height="260">
<text x="181" y="18" text-anchor="middle" font-size="13" font-weight="bold" fill="#111111">최근 1달 요일별 활동</text>
<text x="24" y="46" text-anchor="end" font-size="12" fill="#333333">일</text><rect x="28" y="30" width="186" height="22" rx="3" fill="#30a14e"><title>일: 7392.7점</title></rect><text x="219" y="46" font-size="10" fill="#333333">7392.7</text><text x="24" y="74" text-anchor="end" font-size="12" fill="#333333">월</text><rect x="28" y="58" width="152" height="22" rx="3" fill="#30a14e"><title>월: 6037.6점</title></rect><text x="185" y="74" font-size="10" fill="#333333">6037.6</text><text x="24" y="102" text-anchor="end" font-size="12" fill="#333333">화</text><rect x="28" y="86" width="280" height="22" rx="3" fill="#216e39"><title>화: 11077.7점</title></rect><text x="313" y="102" font-size="10" fill="#333333">11077.7</text><text x="24" y="130" text-anchor="end" font-size="12" fill="#333333">수</text><rect x="28" y="114" width="229" height="22" rx="3" fill="#216e39"><title>수: 9088.1점</title></rect><text x="262" y="130" font-size="10" fill="#333333">9088.1</text><text x="24" y="158" text-anchor="end" font-size="12" fill="#333333">목</text><rect x="28" y="142" width="205" height="22" rx="3" fill="#30a14e"><title>목: 8112.2점</title></rect><text x="238" y="158" font-size="10" fill="#333333">8112.2</text><text x="24" y="186" text-anchor="end" font-size="12" fill="#333333">금</text><rect x="28" y="170" width="181" height="22" rx="3" fill="#30a14e"><title>금: 7164.0점</title></rect><text x="214" y="186" font-size="10" fill="#333333">7164.0</text><text x="24" y="214" text-anchor="end" font-size="12" fill="#333333">토</text><rect x="28" y="198" width="172" height="22" rx="3" fill="#30a14e"><title>토: 6841.0점</title></rect><text x="205" y="214" font-size="10" fill="#333333">6841.0</text>
<text x="28" y="254" font-size="9" fill="#666666">기준: 2026-06-02 16:56</text>
</svg>