<svg xmlns="http://www.w3.org/2000/svg" width="363" height="260">
<text x="181" y="18" text-anchor="middle" font-size="13" font-weight="bold" fill="#e0e0e0">최근 1달 요일별 활동</text>
<text x="24" y="46" text-anchor="end" font-size="12" fill="#cccccc">일</text><rect x="28" y="30" width="243" height="22" rx="3" fill="#216e39"><title>일: 24585.4점</title></rect><text x="276" y="46" font-size="10" fill="#cccccc">24585.4</text><text x="24" y="74" text-anchor="end" font-size="12" fill="#cccccc">월</text><rect x="28" y="58" width="154" height="22" rx="3" fill="#30a14e"><title>월: 15596.3점</title></rect><text x="187" y="74" font-size="10" fill="#cccccc">15596.3</text><text x="24" y="102" text-anchor="end" font-size="12" fill="#cccccc">화</text><rect x="28" y="86" width="213" height="22" rx="3" fill="#216e39"><title>화: 21541.8점</title></rect><text x="246" y="102" font-size="10" fill="#cccccc">21541.8</text><text x="24" y="130" text-anchor="end" font-size="12" fill="#cccccc">수</text><rect x="28" y="114" width="157" height="22" rx="3" fill="#30a14e"><title>수: 15920.8점</title></rect><text x="190" y="130" font-size="10" fill="#cccccc">15920.8</text><text x="24" y="158" text-anchor="end" font-size="12" fill="#cccccc">목</text><rect x="28" y="142" width="216" height="22" rx="3" fill="#216e39"><title>목: 21890.0점</title></rect><text x="249" y="158" font-size="10" fill="#cccccc">21890.0</text><text x="24" y="186" text-anchor="end" font-size="12" fill="#cccccc">금</text><rect x="28" y="170" width="203" height="22" rx="3" fill="#30a14e"><title>금: 20574.5점</title></rect><text x="236" y="186" font-size="10" fill="#cccccc">20574.5</text><text x="24" y="214" text-anchor="end" font-size="12" fill="#cccccc">토</text><rect x="28" y="198" width="280" height="22" rx="3" fill="#216e39"><title>토: 28306.8점</title></rect><text x="313" y="214" font-size="10" fill="#cccccc">28306.8</text>
<text x="28" y="254" font-size="9" fill="#999999">기준: 2026-06-19 22:14</text>
</svg>