<svg xmlns="http://www.w3.org/2000/svg" width="363" height="260">
<text x="181" y="18" text-anchor="middle" font-size="13" font-weight="bold" fill="#e0e0e0">최근 1주 요일별 활동</text>
<text x="24" y="46" text-anchor="end" font-size="12" fill="#cccccc">일</text><rect x="28" y="30" width="81" height="22" rx="3" fill="#40c463"><title>일: 1469.0점</title></rect><text x="114" y="46" font-size="10" fill="#cccccc">1469.0</text><text x="24" y="74" text-anchor="end" font-size="12" fill="#cccccc">월</text><rect x="28" y="58" width="50" height="22" rx="3" fill="#9be9a8"><title>월: 902.4점</title></rect><text x="83" y="74" font-size="10" fill="#cccccc">902.4</text><text x="24" y="102" text-anchor="end" font-size="12" fill="#cccccc">화</text><rect x="28" y="86" width="2" height="22" rx="3" fill="#9be9a8"><title>화: 23.1점</title></rect><text x="35" y="102" font-size="10" fill="#cccccc">23.1</text><text x="24" y="130" text-anchor="end" font-size="12" fill="#cccccc">수</text><rect x="28" y="114" width="280" height="22" rx="3" fill="#216e39"><title>수: 5030.1점</title></rect><text x="313" y="130" font-size="10" fill="#cccccc">5030.1</text><text x="24" y="158" text-anchor="end" font-size="12" fill="#cccccc">목</text><rect x="28" y="142" width="125" height="22" rx="3" fill="#40c463"><title>목: 2252.9점</title></rect><text x="158" y="158" font-size="10" fill="#cccccc">2252.9</text><text x="24" y="186" text-anchor="end" font-size="12" fill="#cccccc">금</text><rect x="28" y="170" width="221" height="22" rx="3" fill="#216e39"><title>금: 3986.5점</title></rect><text x="254" y="186" font-size="10" fill="#cccccc">3986.5</text><text x="24" y="214" text-anchor="end" font-size="12" fill="#cccccc">토</text><rect x="28" y="198" width="119" height="22" rx="3" fill="#40c463"><title>토: 2154.2점</title></rect><text x="152" y="214" font-size="10" fill="#cccccc">2154.2</text>
<text x="28" y="254" font-size="9" fill="#999999">기준: 2026-07-14 03:38</text>
</svg>