<svg xmlns="http://www.w3.org/2000/svg" width="363" height="260">
<text x="181" y="18" text-anchor="middle" font-size="13" font-weight="bold" fill="#e0e0e0">최근 2주 요일별 활동</text>
<text x="24" y="46" text-anchor="end" font-size="12" fill="#cccccc">일</text><rect x="28" y="30" width="83" height="22" rx="3" fill="#40c463"><title>일: 4367.4점</title></rect><text x="116" y="46" font-size="10" fill="#cccccc">4367.4</text><text x="24" y="74" text-anchor="end" font-size="12" fill="#cccccc">월</text><rect x="28" y="58" width="61" height="22" rx="3" fill="#9be9a8"><title>월: 3197.0점</title></rect><text x="94" y="74" font-size="10" fill="#cccccc">3197.0</text><text x="24" y="102" text-anchor="end" font-size="12" fill="#cccccc">화</text><rect x="28" y="86" width="280" height="22" rx="3" fill="#216e39"><title>화: 14573.1점</title></rect><text x="313" y="102" font-size="10" fill="#cccccc">14573.1</text><text x="24" y="130" text-anchor="end" font-size="12" fill="#cccccc">수</text><rect x="28" y="114" width="219" height="22" rx="3" fill="#216e39"><title>수: 11432.9점</title></rect><text x="252" y="130" font-size="10" fill="#cccccc">11432.9</text><text x="24" y="158" text-anchor="end" font-size="12" fill="#cccccc">목</text><rect x="28" y="142" width="146" height="22" rx="3" fill="#30a14e"><title>목: 7613.2점</title></rect><text x="179" y="158" font-size="10" fill="#cccccc">7613.2</text><text x="24" y="186" text-anchor="end" font-size="12" fill="#cccccc">금</text><rect x="28" y="170" width="138" height="22" rx="3" fill="#40c463"><title>금: 7189.6점</title></rect><text x="171" y="186" font-size="10" fill="#cccccc">7189.6</text><text x="24" y="214" text-anchor="end" font-size="12" fill="#cccccc">토</text><rect x="28" y="198" width="146" height="22" rx="3" fill="#30a14e"><title>토: 7647.7점</title></rect><text x="179" y="214" font-size="10" fill="#cccccc">7647.7</text>
<text x="28" y="254" font-size="9" fill="#999999">기준: 2026-07-13 04:03</text>
</svg>