<svg xmlns="http://www.w3.org/2000/svg" width="363" height="260">
<text x="181" y="18" text-anchor="middle" font-size="13" font-weight="bold" fill="#111111">최근 2주 요일별 활동</text>
<text x="24" y="46" text-anchor="end" font-size="12" fill="#333333">일</text><rect x="28" y="30" width="248" height="22" rx="3" fill="#216e39"><title>일: 13705.8점</title></rect><text x="281" y="46" font-size="10" fill="#333333">13705.8</text><text x="24" y="74" text-anchor="end" font-size="12" fill="#333333">월</text><rect x="28" y="58" width="185" height="22" rx="3" fill="#30a14e"><title>월: 10222.2점</title></rect><text x="218" y="74" font-size="10" fill="#333333">10222.2</text><text x="24" y="102" text-anchor="end" font-size="12" fill="#333333">화</text><rect x="28" y="86" width="161" height="22" rx="3" fill="#30a14e"><title>화: 8878.1점</title></rect><text x="194" y="102" font-size="10" fill="#333333">8878.1</text><text x="24" y="130" text-anchor="end" font-size="12" fill="#333333">수</text><rect x="28" y="114" width="153" height="22" rx="3" fill="#30a14e"><title>수: 8457.0점</title></rect><text x="186" y="130" font-size="10" fill="#333333">8457.0</text><text x="24" y="158" text-anchor="end" font-size="12" fill="#333333">목</text><rect x="28" y="142" width="75" height="22" rx="3" fill="#40c463"><title>목: 4165.2점</title></rect><text x="108" y="158" font-size="10" fill="#333333">4165.2</text><text x="24" y="186" text-anchor="end" font-size="12" fill="#333333">금</text><rect x="28" y="170" width="79" height="22" rx="3" fill="#40c463"><title>금: 4405.7점</title></rect><text x="112" y="186" font-size="10" fill="#333333">4405.7</text><text x="24" y="214" text-anchor="end" font-size="12" fill="#333333">토</text><rect x="28" y="198" width="280" height="22" rx="3" fill="#216e39"><title>토: 15433.3점</title></rect><text x="313" y="214" font-size="10" fill="#333333">15433.3</text>
<text x="28" y="254" font-size="9" fill="#666666">기준: 2026-06-26 22:38</text>
</svg>