<svg xmlns="http://www.w3.org/2000/svg" width="363" height="260">
<text x="181" y="18" text-anchor="middle" font-size="13" font-weight="bold" fill="#e0e0e0">최근 2주 요일별 활동</text>
<text x="24" y="46" text-anchor="end" font-size="12" fill="#cccccc">일</text><rect x="28" y="30" width="80" height="22" rx="3" fill="#40c463"><title>일: 3934.3점</title></rect><text x="113" y="46" font-size="10" fill="#cccccc">3934.3</text><text x="24" y="74" text-anchor="end" font-size="12" fill="#cccccc">월</text><rect x="28" y="58" width="38" height="22" rx="3" fill="#9be9a8"><title>월: 1869.7점</title></rect><text x="71" y="74" font-size="10" fill="#cccccc">1869.7</text><text x="24" y="102" text-anchor="end" font-size="12" fill="#cccccc">화</text><rect x="28" y="86" width="280" height="22" rx="3" fill="#216e39"><title>화: 13622.8점</title></rect><text x="313" y="102" font-size="10" fill="#cccccc">13622.8</text><text x="24" y="130" text-anchor="end" font-size="12" fill="#cccccc">수</text><rect x="28" y="114" width="167" height="22" rx="3" fill="#30a14e"><title>수: 8158.0점</title></rect><text x="200" y="130" font-size="10" fill="#cccccc">8158.0</text><text x="24" y="158" text-anchor="end" font-size="12" fill="#cccccc">목</text><rect x="28" y="142" width="87" height="22" rx="3" fill="#40c463"><title>목: 4270.4점</title></rect><text x="120" y="158" font-size="10" fill="#cccccc">4270.4</text><text x="24" y="186" text-anchor="end" font-size="12" fill="#cccccc">금</text><rect x="28" y="170" width="89" height="22" rx="3" fill="#40c463"><title>금: 4348.4점</title></rect><text x="122" y="186" font-size="10" fill="#cccccc">4348.4</text><text x="24" y="214" text-anchor="end" font-size="12" fill="#cccccc">토</text><rect x="28" y="198" width="153" height="22" rx="3" fill="#30a14e"><title>토: 7463.8점</title></rect><text x="186" y="214" font-size="10" fill="#cccccc">7463.8</text>
<text x="28" y="254" font-size="9" fill="#999999">기준: 2026-06-22 05:33</text>
</svg>