<svg xmlns="http://www.w3.org/2000/svg" width="363" height="260">
<text x="181" y="18" text-anchor="middle" font-size="13" font-weight="bold" fill="#e0e0e0">최근 1주 요일별 활동</text>
<text x="24" y="46" text-anchor="end" font-size="12" fill="#cccccc">일</text><rect x="28" y="30" width="129" height="22" rx="3" fill="#40c463"><title>일: 704.1점</title></rect><text x="162" y="46" font-size="10" fill="#cccccc">704.1</text><text x="24" y="74" text-anchor="end" font-size="12" fill="#cccccc">월</text><rect x="28" y="58" width="47" height="22" rx="3" fill="#9be9a8"><title>월: 259.5점</title></rect><text x="80" y="74" font-size="10" fill="#cccccc">259.5</text><text x="24" y="102" text-anchor="end" font-size="12" fill="#cccccc">화</text><rect x="28" y="86" width="280" height="22" rx="3" fill="#216e39"><title>화: 1517.9점</title></rect><text x="313" y="102" font-size="10" fill="#cccccc">1517.9</text><text x="24" y="130" text-anchor="end" font-size="12" fill="#cccccc">수</text><rect x="28" y="114" width="193" height="22" rx="3" fill="#30a14e"><title>수: 1050.8점</title></rect><text x="226" y="130" font-size="10" fill="#cccccc">1050.8</text><text x="24" y="158" text-anchor="end" font-size="12" fill="#cccccc">목</text><rect x="28" y="142" width="131" height="22" rx="3" fill="#40c463"><title>목: 715.0점</title></rect><text x="164" y="158" font-size="10" fill="#cccccc">715.0</text><text x="24" y="186" text-anchor="end" font-size="12" fill="#cccccc">금</text><rect x="28" y="170" width="81" height="22" rx="3" fill="#40c463"><title>금: 440.0점</title></rect><text x="114" y="186" font-size="10" fill="#cccccc">440.0</text><text x="24" y="214" text-anchor="end" font-size="12" fill="#cccccc">토</text><rect x="28" y="198" width="30" height="22" rx="3" fill="#9be9a8"><title>토: 165.0점</title></rect><text x="63" y="214" font-size="10" fill="#cccccc">165.0</text>
<text x="28" y="254" font-size="9" fill="#999999">기준: 2026-05-23 19:39</text>
</svg>