<svg xmlns="http://www.w3.org/2000/svg" width="363" height="260">
<text x="181" y="18" text-anchor="middle" font-size="13" font-weight="bold" fill="#111111">최근 1주 요일별 활동</text>
<text x="24" y="46" text-anchor="end" font-size="12" fill="#333333">일</text><rect x="28" y="30" width="132" height="22" rx="3" fill="#40c463"><title>일: 2206.2점</title></rect><text x="165" y="46" font-size="10" fill="#333333">2206.2</text><text x="24" y="74" text-anchor="end" font-size="12" fill="#333333">월</text><rect x="28" y="58" width="112" height="22" rx="3" fill="#40c463"><title>월: 1868.8점</title></rect><text x="145" y="74" font-size="10" fill="#333333">1868.8</text><text x="24" y="102" text-anchor="end" font-size="12" fill="#333333">화</text><rect x="28" y="86" width="73" height="22" rx="3" fill="#40c463"><title>화: 1217.0점</title></rect><text x="106" y="102" font-size="10" fill="#333333">1217.0</text><text x="24" y="130" text-anchor="end" font-size="12" fill="#333333">수</text><rect x="28" y="114" width="22" height="22" rx="3" fill="#9be9a8"><title>수: 371.2점</title></rect><text x="55" y="130" font-size="10" fill="#333333">371.2</text><text x="24" y="158" text-anchor="end" font-size="12" fill="#333333">목</text><rect x="28" y="142" width="2" height="22" rx="3" fill="#9be9a8"><title>목: 16.2점</title></rect><text x="35" y="158" font-size="10" fill="#333333">16.2</text><text x="24" y="186" text-anchor="end" font-size="12" fill="#333333">금</text><rect x="28" y="170" width="280" height="22" rx="3" fill="#216e39"><title>금: 4646.4점</title></rect><text x="313" y="186" font-size="10" fill="#333333">4646.4</text><text x="24" y="214" text-anchor="end" font-size="12" fill="#333333">토</text><rect x="28" y="198" width="140" height="22" rx="3" fill="#30a14e"><title>토: 2329.0점</title></rect><text x="173" y="214" font-size="10" fill="#333333">2329.0</text>
<text x="28" y="254" font-size="9" fill="#666666">기준: 2026-07-02 09:35</text>
</svg>