<svg xmlns="http://www.w3.org/2000/svg" width="363" height="260">
<text x="181" y="18" text-anchor="middle" font-size="13" font-weight="bold" fill="#111111">최근 1달 요일별 활동</text>
<text x="24" y="46" text-anchor="end" font-size="12" fill="#333333">일</text><rect x="28" y="30" width="280" height="22" rx="3" fill="#216e39"><title>일: 62070.9점</title></rect><text x="313" y="46" font-size="10" fill="#333333">62070.9</text><text x="24" y="74" text-anchor="end" font-size="12" fill="#333333">월</text><rect x="28" y="58" width="242" height="22" rx="3" fill="#216e39"><title>월: 53653.1점</title></rect><text x="275" y="74" font-size="10" fill="#333333">53653.1</text><text x="24" y="102" text-anchor="end" font-size="12" fill="#333333">화</text><rect x="28" y="86" width="242" height="22" rx="3" fill="#216e39"><title>화: 53661.0점</title></rect><text x="275" y="102" font-size="10" fill="#333333">53661.0</text><text x="24" y="130" text-anchor="end" font-size="12" fill="#333333">수</text><rect x="28" y="114" width="253" height="22" rx="3" fill="#216e39"><title>수: 56241.2점</title></rect><text x="286" y="130" font-size="10" fill="#333333">56241.2</text><text x="24" y="158" text-anchor="end" font-size="12" fill="#333333">목</text><rect x="28" y="142" width="130" height="22" rx="3" fill="#40c463"><title>목: 28826.9점</title></rect><text x="163" y="158" font-size="10" fill="#333333">28826.9</text><text x="24" y="186" text-anchor="end" font-size="12" fill="#333333">금</text><rect x="28" y="170" width="194" height="22" rx="3" fill="#30a14e"><title>금: 43033.4점</title></rect><text x="227" y="186" font-size="10" fill="#333333">43033.4</text><text x="24" y="214" text-anchor="end" font-size="12" fill="#333333">토</text><rect x="28" y="198" width="256" height="22" rx="3" fill="#216e39"><title>토: 56850.5점</title></rect><text x="289" y="214" font-size="10" fill="#333333">56850.5</text>
<text x="28" y="254" font-size="9" fill="#666666">기준: 2026-07-11 19:34</text>
</svg>