<svg xmlns="http://www.w3.org/2000/svg" width="363" height="260">
<text x="181" y="18" text-anchor="middle" font-size="13" font-weight="bold" fill="#111111">최근 1달 요일별 활동</text>
<text x="24" y="46" text-anchor="end" font-size="12" fill="#333333">일</text><rect x="28" y="30" width="218" height="22" rx="3" fill="#216e39"><title>일: 35165.6점</title></rect><text x="251" y="46" font-size="10" fill="#333333">35165.6</text><text x="24" y="74" text-anchor="end" font-size="12" fill="#333333">월</text><rect x="28" y="58" width="198" height="22" rx="3" fill="#30a14e"><title>월: 31955.7점</title></rect><text x="231" y="74" font-size="10" fill="#333333">31955.7</text><text x="24" y="102" text-anchor="end" font-size="12" fill="#333333">화</text><rect x="28" y="86" width="280" height="22" rx="3" fill="#216e39"><title>화: 45032.6점</title></rect><text x="313" y="102" font-size="10" fill="#333333">45032.6</text><text x="24" y="130" text-anchor="end" font-size="12" fill="#333333">수</text><rect x="28" y="114" width="229" height="22" rx="3" fill="#216e39"><title>수: 36893.4점</title></rect><text x="262" y="130" font-size="10" fill="#333333">36893.4</text><text x="24" y="158" text-anchor="end" font-size="12" fill="#333333">목</text><rect x="28" y="142" width="141" height="22" rx="3" fill="#30a14e"><title>목: 22710.9점</title></rect><text x="174" y="158" font-size="10" fill="#333333">22710.9</text><text x="24" y="186" text-anchor="end" font-size="12" fill="#333333">금</text><rect x="28" y="170" width="143" height="22" rx="3" fill="#30a14e"><title>금: 23119.9점</title></rect><text x="176" y="186" font-size="10" fill="#333333">23119.9</text><text x="24" y="214" text-anchor="end" font-size="12" fill="#333333">토</text><rect x="28" y="198" width="210" height="22" rx="3" fill="#216e39"><title>토: 33882.7점</title></rect><text x="243" y="214" font-size="10" fill="#333333">33882.7</text>
<text x="28" y="254" font-size="9" fill="#666666">기준: 2026-06-30 17:17</text>
</svg>