<svg xmlns="http://www.w3.org/2000/svg" width="363" height="260">
<text x="181" y="18" text-anchor="middle" font-size="13" font-weight="bold" fill="#111111">최근 2주 요일별 활동</text>
<text x="24" y="46" text-anchor="end" font-size="12" fill="#333333">일</text><rect x="28" y="30" width="123" height="22" rx="3" fill="#40c463"><title>일: 6541.4점</title></rect><text x="156" y="46" font-size="10" fill="#333333">6541.4</text><text x="24" y="74" text-anchor="end" font-size="12" fill="#333333">월</text><rect x="28" y="58" width="111" height="22" rx="3" fill="#40c463"><title>월: 5920.6점</title></rect><text x="144" y="74" font-size="10" fill="#333333">5920.6</text><text x="24" y="102" text-anchor="end" font-size="12" fill="#333333">화</text><rect x="28" y="86" width="101" height="22" rx="3" fill="#40c463"><title>화: 5409.5점</title></rect><text x="134" y="102" font-size="10" fill="#333333">5409.5</text><text x="24" y="130" text-anchor="end" font-size="12" fill="#333333">수</text><rect x="28" y="114" width="280" height="22" rx="3" fill="#216e39"><title>수: 14860.5점</title></rect><text x="313" y="130" font-size="10" fill="#333333">14860.5</text><text x="24" y="158" text-anchor="end" font-size="12" fill="#333333">목</text><rect x="28" y="142" width="183" height="22" rx="3" fill="#30a14e"><title>목: 9759.6점</title></rect><text x="216" y="158" font-size="10" fill="#333333">9759.6</text><text x="24" y="186" text-anchor="end" font-size="12" fill="#333333">금</text><rect x="28" y="170" width="181" height="22" rx="3" fill="#30a14e"><title>금: 9653.6점</title></rect><text x="214" y="186" font-size="10" fill="#333333">9653.6</text><text x="24" y="214" text-anchor="end" font-size="12" fill="#333333">토</text><rect x="28" y="198" width="189" height="22" rx="3" fill="#30a14e"><title>토: 10039.1점</title></rect><text x="222" y="214" font-size="10" fill="#333333">10039.1</text>
<text x="28" y="254" font-size="9" fill="#666666">기준: 2026-07-14 16:39</text>
</svg>