<svg xmlns="http://www.w3.org/2000/svg" width="363" height="260">
<text x="181" y="18" text-anchor="middle" font-size="13" font-weight="bold" fill="#111111">최근 1달 요일별 활동</text>
<text x="24" y="46" text-anchor="end" font-size="12" fill="#333333">일</text><rect x="28" y="30" width="193" height="22" rx="3" fill="#30a14e"><title>일: 8239.6점</title></rect><text x="226" y="46" font-size="10" fill="#333333">8239.6</text><text x="24" y="74" text-anchor="end" font-size="12" fill="#333333">월</text><rect x="28" y="58" width="109" height="22" rx="3" fill="#40c463"><title>월: 4658.3점</title></rect><text x="142" y="74" font-size="10" fill="#333333">4658.3</text><text x="24" y="102" text-anchor="end" font-size="12" fill="#333333">화</text><rect x="28" y="86" width="280" height="22" rx="3" fill="#216e39"><title>화: 11912.5점</title></rect><text x="313" y="102" font-size="10" fill="#333333">11912.5</text><text x="24" y="130" text-anchor="end" font-size="12" fill="#333333">수</text><rect x="28" y="114" width="231" height="22" rx="3" fill="#216e39"><title>수: 9828.4점</title></rect><text x="264" y="130" font-size="10" fill="#333333">9828.4</text><text x="24" y="158" text-anchor="end" font-size="12" fill="#333333">목</text><rect x="28" y="142" width="203" height="22" rx="3" fill="#30a14e"><title>목: 8662.2점</title></rect><text x="236" y="158" font-size="10" fill="#333333">8662.2</text><text x="24" y="186" text-anchor="end" font-size="12" fill="#333333">금</text><rect x="28" y="170" width="181" height="22" rx="3" fill="#30a14e"><title>금: 7714.0점</title></rect><text x="214" y="186" font-size="10" fill="#333333">7714.0</text><text x="24" y="214" text-anchor="end" font-size="12" fill="#333333">토</text><rect x="28" y="198" width="178" height="22" rx="3" fill="#30a14e"><title>토: 7611.0점</title></rect><text x="211" y="214" font-size="10" fill="#333333">7611.0</text>
<text x="28" y="254" font-size="9" fill="#666666">기준: 2026-06-03 21:31</text>
</svg>