<svg xmlns="http://www.w3.org/2000/svg" width="363" height="260">
<text x="181" y="18" text-anchor="middle" font-size="13" font-weight="bold" fill="#111111">최근 1달 요일별 활동</text>
<text x="24" y="46" text-anchor="end" font-size="12" fill="#333333">일</text><rect x="28" y="30" width="280" height="22" rx="3" fill="#216e39"><title>일: 60358.5점</title></rect><text x="313" y="46" font-size="10" fill="#333333">60358.5</text><text x="24" y="74" text-anchor="end" font-size="12" fill="#333333">월</text><rect x="28" y="58" width="241" height="22" rx="3" fill="#216e39"><title>월: 52054.9점</title></rect><text x="274" y="74" font-size="10" fill="#333333">52054.9</text><text x="24" y="102" text-anchor="end" font-size="12" fill="#333333">화</text><rect x="28" y="86" width="240" height="22" rx="3" fill="#216e39"><title>화: 51905.2점</title></rect><text x="273" y="102" font-size="10" fill="#333333">51905.2</text><text x="24" y="130" text-anchor="end" font-size="12" fill="#333333">수</text><rect x="28" y="114" width="251" height="22" rx="3" fill="#216e39"><title>수: 54268.1점</title></rect><text x="284" y="130" font-size="10" fill="#333333">54268.1</text><text x="24" y="158" text-anchor="end" font-size="12" fill="#333333">목</text><rect x="28" y="142" width="129" height="22" rx="3" fill="#40c463"><title>목: 27882.2점</title></rect><text x="162" y="158" font-size="10" fill="#333333">27882.2</text><text x="24" y="186" text-anchor="end" font-size="12" fill="#333333">금</text><rect x="28" y="170" width="192" height="22" rx="3" fill="#30a14e"><title>금: 41516.3점</title></rect><text x="225" y="186" font-size="10" fill="#333333">41516.3</text><text x="24" y="214" text-anchor="end" font-size="12" fill="#333333">토</text><rect x="28" y="198" width="257" height="22" rx="3" fill="#216e39"><title>토: 55473.9점</title></rect><text x="290" y="214" font-size="10" fill="#333333">55473.9</text>
<text x="28" y="254" font-size="9" fill="#666666">기준: 2026-07-11 13:56</text>
</svg>