<svg xmlns="http://www.w3.org/2000/svg" width="363" height="260">
<text x="181" y="18" text-anchor="middle" font-size="13" font-weight="bold" fill="#e0e0e0">최근 1달 요일별 활동</text>
<text x="24" y="46" text-anchor="end" font-size="12" fill="#cccccc">일</text><rect x="28" y="30" width="257" height="22" rx="3" fill="#216e39"><title>일: 7675.3점</title></rect><text x="290" y="46" font-size="10" fill="#cccccc">7675.3</text><text x="24" y="74" text-anchor="end" font-size="12" fill="#cccccc">월</text><rect x="28" y="58" width="147" height="22" rx="3" fill="#30a14e"><title>월: 4399.7점</title></rect><text x="180" y="74" font-size="10" fill="#cccccc">4399.7</text><text x="24" y="102" text-anchor="end" font-size="12" fill="#cccccc">화</text><rect x="28" y="86" width="280" height="22" rx="3" fill="#216e39"><title>화: 8332.3점</title></rect><text x="313" y="102" font-size="10" fill="#cccccc">8332.3</text><text x="24" y="130" text-anchor="end" font-size="12" fill="#cccccc">수</text><rect x="28" y="114" width="205" height="22" rx="3" fill="#30a14e"><title>수: 6121.2점</title></rect><text x="238" y="130" font-size="10" fill="#cccccc">6121.2</text><text x="24" y="158" text-anchor="end" font-size="12" fill="#cccccc">목</text><rect x="28" y="142" width="266" height="22" rx="3" fill="#216e39"><title>목: 7918.3점</title></rect><text x="299" y="158" font-size="10" fill="#cccccc">7918.3</text><text x="24" y="186" text-anchor="end" font-size="12" fill="#cccccc">금</text><rect x="28" y="170" width="199" height="22" rx="3" fill="#30a14e"><title>금: 5925.0점</title></rect><text x="232" y="186" font-size="10" fill="#cccccc">5925.0</text><text x="24" y="214" text-anchor="end" font-size="12" fill="#cccccc">토</text><rect x="28" y="198" width="135" height="22" rx="3" fill="#40c463"><title>토: 4046.6점</title></rect><text x="168" y="214" font-size="10" fill="#cccccc">4046.6</text>
<text x="28" y="254" font-size="9" fill="#999999">기준: 2026-05-29 16:10</text>
</svg>