<svg xmlns="http://www.w3.org/2000/svg" width="363" height="260">
<text x="181" y="18" text-anchor="middle" font-size="13" font-weight="bold" fill="#e0e0e0">최근 1주 요일별 활동</text>
<text x="24" y="46" text-anchor="end" font-size="12" fill="#cccccc">일</text><rect x="28" y="30" width="23" height="22" rx="3" fill="#9be9a8"><title>일: 1004.8점</title></rect><text x="56" y="46" font-size="10" fill="#cccccc">1004.8</text><text x="24" y="74" text-anchor="end" font-size="12" fill="#cccccc">월</text><rect x="28" y="58" width="11" height="22" rx="3" fill="#9be9a8"><title>월: 518.6점</title></rect><text x="44" y="74" font-size="10" fill="#cccccc">518.6</text><text x="24" y="102" text-anchor="end" font-size="12" fill="#cccccc">화</text><rect x="28" y="86" width="2" height="22" rx="3" fill="#9be9a8"><title>화: 19.0점</title></rect><text x="35" y="102" font-size="10" fill="#cccccc">19.0</text><text x="24" y="130" text-anchor="end" font-size="12" fill="#cccccc">수</text><rect x="28" y="114" width="280" height="22" rx="3" fill="#216e39"><title>수: 12123.1점</title></rect><text x="313" y="130" font-size="10" fill="#cccccc">12123.1</text><text x="24" y="158" text-anchor="end" font-size="12" fill="#cccccc">목</text><rect x="28" y="142" width="92" height="22" rx="3" fill="#40c463"><title>목: 4004.3점</title></rect><text x="125" y="158" font-size="10" fill="#cccccc">4004.3</text><text x="24" y="186" text-anchor="end" font-size="12" fill="#cccccc">금</text><rect x="28" y="170" width="69" height="22" rx="3" fill="#9be9a8"><title>금: 3025.2점</title></rect><text x="102" y="186" font-size="10" fill="#cccccc">3025.2</text><text x="24" y="214" text-anchor="end" font-size="12" fill="#cccccc">토</text><rect x="28" y="198" width="30" height="22" rx="3" fill="#9be9a8"><title>토: 1338.0점</title></rect><text x="63" y="214" font-size="10" fill="#cccccc">1338.0</text>
<text x="28" y="254" font-size="9" fill="#999999">기준: 2026-06-30 10:02</text>
</svg>