<svg xmlns="http://www.w3.org/2000/svg" width="363" height="260">
<text x="181" y="18" text-anchor="middle" font-size="13" font-weight="bold" fill="#e0e0e0">최근 1달 요일별 활동</text>
<text x="24" y="46" text-anchor="end" font-size="12" fill="#cccccc">일</text><rect x="28" y="30" width="258" height="22" rx="3" fill="#216e39"><title>일: 31126.8점</title></rect><text x="291" y="46" font-size="10" fill="#cccccc">31126.8</text><text x="24" y="74" text-anchor="end" font-size="12" fill="#cccccc">월</text><rect x="28" y="58" width="171" height="22" rx="3" fill="#30a14e"><title>월: 20575.3점</title></rect><text x="204" y="74" font-size="10" fill="#cccccc">20575.3</text><text x="24" y="102" text-anchor="end" font-size="12" fill="#cccccc">화</text><rect x="28" y="86" width="254" height="22" rx="3" fill="#216e39"><title>화: 30558.1점</title></rect><text x="287" y="102" font-size="10" fill="#cccccc">30558.1</text><text x="24" y="130" text-anchor="end" font-size="12" fill="#cccccc">수</text><rect x="28" y="114" width="187" height="22" rx="3" fill="#30a14e"><title>수: 22599.9점</title></rect><text x="220" y="130" font-size="10" fill="#cccccc">22599.9</text><text x="24" y="158" text-anchor="end" font-size="12" fill="#cccccc">목</text><rect x="28" y="142" width="194" height="22" rx="3" fill="#30a14e"><title>목: 23327.3점</title></rect><text x="227" y="158" font-size="10" fill="#cccccc">23327.3</text><text x="24" y="186" text-anchor="end" font-size="12" fill="#cccccc">금</text><rect x="28" y="170" width="193" height="22" rx="3" fill="#30a14e"><title>금: 23276.7점</title></rect><text x="226" y="186" font-size="10" fill="#cccccc">23276.7</text><text x="24" y="214" text-anchor="end" font-size="12" fill="#cccccc">토</text><rect x="28" y="198" width="280" height="22" rx="3" fill="#216e39"><title>토: 33660.8점</title></rect><text x="313" y="214" font-size="10" fill="#cccccc">33660.8</text>
<text x="28" y="254" font-size="9" fill="#999999">기준: 2026-06-26 17:10</text>
</svg>