<svg xmlns="http://www.w3.org/2000/svg" width="363" height="260">
<text x="181" y="18" text-anchor="middle" font-size="13" font-weight="bold" fill="#111111">최근 1주 요일별 활동</text>
<text x="24" y="46" text-anchor="end" font-size="12" fill="#333333">일</text><rect x="28" y="30" width="137" height="22" rx="3" fill="#40c463"><title>일: 519.4점</title></rect><text x="170" y="46" font-size="10" fill="#333333">519.4</text><text x="24" y="74" text-anchor="end" font-size="12" fill="#333333">월</text><rect x="28" y="58" width="50" height="22" rx="3" fill="#9be9a8"><title>월: 189.6점</title></rect><text x="83" y="74" font-size="10" fill="#333333">189.6</text><text x="24" y="102" text-anchor="end" font-size="12" fill="#333333">화</text><rect x="28" y="86" width="280" height="22" rx="3" fill="#216e39"><title>화: 1059.9점</title></rect><text x="313" y="102" font-size="10" fill="#333333">1059.9</text><text x="24" y="130" text-anchor="end" font-size="12" fill="#333333">수</text><rect x="28" y="114" width="169" height="22" rx="3" fill="#30a14e"><title>수: 643.4점</title></rect><text x="202" y="130" font-size="10" fill="#333333">643.4</text><text x="24" y="158" text-anchor="end" font-size="12" fill="#333333">목</text><rect x="28" y="142" width="87" height="22" rx="3" fill="#40c463"><title>목: 330.0점</title></rect><text x="120" y="158" font-size="10" fill="#333333">330.0</text><text x="24" y="186" text-anchor="end" font-size="12" fill="#333333">금</text><rect x="28" y="170" width="17" height="22" rx="3" fill="#9be9a8"><title>금: 66.0점</title></rect><text x="50" y="186" font-size="10" fill="#333333">66.0</text><text x="24" y="214" text-anchor="end" font-size="12" fill="#333333">토</text><rect x="28" y="198" width="103" height="22" rx="3" fill="#40c463"><title>토: 393.5점</title></rect><text x="136" y="214" font-size="10" fill="#333333">393.5</text>
<text x="28" y="254" font-size="9" fill="#666666">기준: 2026-05-22 20:13</text>
</svg>