<svg xmlns="http://www.w3.org/2000/svg" width="363" height="260">
<text x="181" y="18" text-anchor="middle" font-size="13" font-weight="bold" fill="#e0e0e0">최근 1주 요일별 활동</text>
<text x="24" y="46" text-anchor="end" font-size="12" fill="#cccccc">일</text><rect x="28" y="30" width="59" height="22" rx="3" fill="#9be9a8"><title>일: 925.0점</title></rect><text x="92" y="46" font-size="10" fill="#cccccc">925.0</text><text x="24" y="74" text-anchor="end" font-size="12" fill="#cccccc">월</text><rect x="28" y="58" width="11" height="22" rx="3" fill="#9be9a8"><title>월: 172.8점</title></rect><text x="44" y="74" font-size="10" fill="#cccccc">172.8</text><text x="24" y="102" text-anchor="end" font-size="12" fill="#cccccc">화</text><rect x="28" y="86" width="254" height="22" rx="3" fill="#216e39"><title>화: 3975.2점</title></rect><text x="287" y="102" font-size="10" fill="#cccccc">3975.2</text><text x="24" y="130" text-anchor="end" font-size="12" fill="#cccccc">수</text><rect x="28" y="114" width="280" height="22" rx="3" fill="#216e39"><title>수: 4377.1점</title></rect><text x="313" y="130" font-size="10" fill="#cccccc">4377.1</text><text x="24" y="158" text-anchor="end" font-size="12" fill="#cccccc">목</text><rect x="28" y="142" width="123" height="22" rx="3" fill="#40c463"><title>목: 1937.5점</title></rect><text x="156" y="158" font-size="10" fill="#cccccc">1937.5</text><text x="24" y="186" text-anchor="end" font-size="12" fill="#cccccc">금</text><rect x="28" y="170" width="213" height="22" rx="3" fill="#216e39"><title>금: 3332.8점</title></rect><text x="246" y="186" font-size="10" fill="#cccccc">3332.8</text><text x="24" y="214" text-anchor="end" font-size="12" fill="#cccccc">토</text><rect x="28" y="198" width="105" height="22" rx="3" fill="#40c463"><title>토: 1648.6점</title></rect><text x="138" y="214" font-size="10" fill="#cccccc">1648.6</text>
<text x="28" y="254" font-size="9" fill="#999999">기준: 2026-07-13 15:13</text>
</svg>