<svg xmlns="http://www.w3.org/2000/svg" width="363" height="260">
<text x="181" y="18" text-anchor="middle" font-size="13" font-weight="bold" fill="#111111">최근 1달 요일별 활동</text>
<text x="24" y="46" text-anchor="end" font-size="12" fill="#333333">일</text><rect x="28" y="30" width="240" height="22" rx="3" fill="#216e39"><title>일: 72703.3점</title></rect><text x="273" y="46" font-size="10" fill="#333333">72703.3</text><text x="24" y="74" text-anchor="end" font-size="12" fill="#333333">월</text><rect x="28" y="58" width="223" height="22" rx="3" fill="#216e39"><title>월: 67534.6점</title></rect><text x="256" y="74" font-size="10" fill="#333333">67534.6</text><text x="24" y="102" text-anchor="end" font-size="12" fill="#333333">화</text><rect x="28" y="86" width="265" height="22" rx="3" fill="#216e39"><title>화: 80190.5점</title></rect><text x="298" y="102" font-size="10" fill="#333333">80190.5</text><text x="24" y="130" text-anchor="end" font-size="12" fill="#333333">수</text><rect x="28" y="114" width="280" height="22" rx="3" fill="#216e39"><title>수: 84572.9점</title></rect><text x="313" y="130" font-size="10" fill="#333333">84572.9</text><text x="24" y="158" text-anchor="end" font-size="12" fill="#333333">목</text><rect x="28" y="142" width="139" height="22" rx="3" fill="#40c463"><title>목: 42052.4점</title></rect><text x="172" y="158" font-size="10" fill="#333333">42052.4</text><text x="24" y="186" text-anchor="end" font-size="12" fill="#333333">금</text><rect x="28" y="170" width="160" height="22" rx="3" fill="#30a14e"><title>금: 48342.6점</title></rect><text x="193" y="186" font-size="10" fill="#333333">48342.6</text><text x="24" y="214" text-anchor="end" font-size="12" fill="#333333">토</text><rect x="28" y="198" width="178" height="22" rx="3" fill="#30a14e"><title>토: 53918.6점</title></rect><text x="211" y="214" font-size="10" fill="#333333">53918.6</text>
<text x="28" y="254" font-size="9" fill="#666666">기준: 2026-07-15 22:15</text>
</svg>