<svg xmlns="http://www.w3.org/2000/svg" width="363" height="260">
<text x="181" y="18" text-anchor="middle" font-size="13" font-weight="bold" fill="#e0e0e0">최근 2주 요일별 활동</text>
<text x="24" y="46" text-anchor="end" font-size="12" fill="#cccccc">일</text><rect x="28" y="30" width="102" height="22" rx="3" fill="#40c463"><title>일: 1053.7점</title></rect><text x="135" y="46" font-size="10" fill="#cccccc">1053.7</text><text x="24" y="74" text-anchor="end" font-size="12" fill="#cccccc">월</text><rect x="28" y="58" width="109" height="22" rx="3" fill="#40c463"><title>월: 1125.5점</title></rect><text x="142" y="74" font-size="10" fill="#cccccc">1125.5</text><text x="24" y="102" text-anchor="end" font-size="12" fill="#cccccc">화</text><rect x="28" y="86" width="280" height="22" rx="3" fill="#216e39"><title>화: 2872.3점</title></rect><text x="313" y="102" font-size="10" fill="#cccccc">2872.3</text><text x="24" y="130" text-anchor="end" font-size="12" fill="#cccccc">수</text><rect x="28" y="114" width="172" height="22" rx="3" fill="#30a14e"><title>수: 1766.3점</title></rect><text x="205" y="130" font-size="10" fill="#cccccc">1766.3</text><text x="24" y="158" text-anchor="end" font-size="12" fill="#cccccc">목</text><rect x="28" y="142" width="145" height="22" rx="3" fill="#30a14e"><title>목: 1487.5점</title></rect><text x="178" y="158" font-size="10" fill="#cccccc">1487.5</text><text x="24" y="186" text-anchor="end" font-size="12" fill="#cccccc">금</text><rect x="28" y="170" width="117" height="22" rx="3" fill="#40c463"><title>금: 1205.5점</title></rect><text x="150" y="186" font-size="10" fill="#cccccc">1205.5</text><text x="24" y="214" text-anchor="end" font-size="12" fill="#cccccc">토</text><rect x="28" y="198" width="105" height="22" rx="3" fill="#40c463"><title>토: 1086.5점</title></rect><text x="138" y="214" font-size="10" fill="#cccccc">1086.5</text>
<text x="28" y="254" font-size="9" fill="#999999">기준: 2026-05-24 19:42</text>
</svg>