<svg xmlns="http://www.w3.org/2000/svg" width="439" height="181">
<text x="69" y="16" font-size="9" fill="#333333">2</text><text x="129" y="16" font-size="9" fill="#333333">3</text><text x="189" y="16" font-size="9" fill="#333333">4</text><text x="249" y="16" font-size="9" fill="#333333">5</text><text x="324" y="16" font-size="9" fill="#333333">6</text><text x="384" y="16" font-size="9" fill="#333333">7</text><text x="20" y="48" text-anchor="end" font-size="9" fill="#333333">월</text><text x="20" y="78" text-anchor="end" font-size="9" fill="#333333">수</text><text x="20" y="108" text-anchor="end" font-size="9" fill="#333333">금</text><rect x="24" y="22" width="13" height="13" rx="2" fill="#ebedf0"><title>2026-01-11 (0)</title></rect><rect x="24" y="37" width="13" height="13" rx="2" fill="#9be9a8"><title>2026-01-12 (710.1)</title></rect><rect x="24" y="52" width="13" height="13" rx="2" fill="#9be9a8"><title>2026-01-13 (60.0)</title></rect><rect x="24" y="67" width="13" height="13" rx="2" fill="#9be9a8"><title>2026-01-14 (240.8)</title></rect><rect x="24" y="82" width="13" height="13" rx="2" fill="#ebedf0"><title>2026-01-15 (0)</title></rect><rect x="24" y="97" width="13" height="13" rx="2" fill="#9be9a8"><title>2026-01-16 (50.3)</title></rect><rect x="24" y="112" width="13" height="13" rx="2" fill="#9be9a8"><title>2026-01-17 (887.5)</title></rect><rect x="39" y="22" width="13" height="13" rx="2" fill="#9be9a8"><title>2026-01-18 (4400.0)</title></rect><rect x="39" y="37" width="13" height="13" rx="2" fill="#9be9a8"><title>2026-01-19 (80.2)</title></rect><rect x="39" y="52" width="13" height="13" rx="2" fill="#9be9a8"><title>2026-01-20 (144.4)</title></rect><rect x="39" y="67" width="13" height="13" rx="2" fill="#9be9a8"><title>2026-01-21 (8372.6)</title></rect><rect x="39" y="82" width="13" height="13" rx="2" fill="#9be9a8"><title>2026-01-22 (2013.8)</title></rect><rect x="39" y="97" width="13" height="13" rx="2" fill="#9be9a8"><title>2026-01-23 (7264.3)</title></rect><rect x="39" y="112" width="13" height="13" rx="2" fill="#9be9a8"><title>2026-01-24 (10704.4)</title></rect><rect x="54" y="22" width="13" height="13" rx="2" fill="#9be9a8"><title>2026-01-25 (7990.2)</title></rect><rect x="54" y="37" width="13" height="13" rx="2" fill="#9be9a8"><title>2026-01-26 (5189.8)</title></rect><rect x="54" y="52" width="13" height="13" rx="2" fill="#9be9a8"><title>2026-01-27 (11247.0)</title></rect><rect x="54" y="67" width="13" height="13" rx="2" fill="#9be9a8"><title>2026-01-28 (1773.1)</title></rect><rect x="54" y="82" width="13" height="13" rx="2" fill="#9be9a8"><title>2026-01-29 (982.7)</title></rect><rect x="54" y="97" width="13" height="13" rx="2" fill="#9be9a8"><title>2026-01-30 (11060.1)</title></rect><rect x="54" y="112" width="13" height="13" rx="2" fill="#9be9a8"><title>2026-01-31 (7240.0)</title></rect><rect x="69" y="22" width="13" height="13" rx="2" fill="#9be9a8"><title>2026-02-01 (9916.6)</title></rect><rect x="69" y="37" width="13" height="13" rx="2" fill="#40c463"><title>2026-02-02 (22495.8)</title></rect><rect x="69" y="52" width="13" height="13" rx="2" fill="#9be9a8"><title>2026-02-03 (1684.9)</title></rect><rect x="69" y="67" width="13" height="13" rx="2" fill="#9be9a8"><title>2026-02-04 (744.5)</title></rect><rect x="69" y="82" width="13" height="13" rx="2" fill="#9be9a8"><title>2026-02-05 (7044.0)</title></rect><rect x="69" y="97" width="13" height="13" rx="2" fill="#40c463"><title>2026-02-06 (14387.3)</title></rect><rect x="69" y="112" width="13" height="13" rx="2" fill="#9be9a8"><title>2026-02-07 (5402.7)</title></rect><rect x="84" y="22" width="13" height="13" rx="2" fill="#9be9a8"><title>2026-02-08 (4490.4)</title></rect><rect x="84" y="37" width="13" height="13" rx="2" fill="#9be9a8"><title>2026-02-09 (181.2)</title></rect><rect x="84" y="52" width="13" height="13" rx="2" fill="#ebedf0"><title>2026-02-10 (0)</title></rect><rect x="84" y="67" width="13" height="13" rx="2" fill="#ebedf0"><title>2026-02-11 (0)</title></rect><rect x="84" y="82" width="13" height="13" rx="2" fill="#9be9a8"><title>2026-02-12 (1027.8)</title></rect><rect x="84" y="97" width="13" height="13" rx="2" fill="#9be9a8"><title>2026-02-13 (558.0)</title></rect><rect x="84" y="112" width="13" height="13" rx="2" fill="#ebedf0"><title>2026-02-14 (0)</title></rect><rect x="99" y="22" width="13" height="13" rx="2" fill="#ebedf0"><title>2026-02-15 (0)</title></rect><rect x="99" y="37" width="13" height="13" rx="2" fill="#ebedf0"><title>2026-02-16 (0)</title></rect><rect x="99" y="52" width="13" height="13" rx="2" fill="#ebedf0"><title>2026-02-17 (0)</title></rect><rect x="99" y="67" width="13" height="13" rx="2" fill="#9be9a8"><title>2026-02-18 (3232.3)</title></rect><rect x="99" y="82" width="13" height="13" rx="2" fill="#9be9a8"><title>2026-02-19 (2591.3)</title></rect><rect x="99" y="97" width="13" height="13" rx="2" fill="#9be9a8"><title>2026-02-20 (7185.9)</title></rect><rect x="99" y="112" width="13" height="13" rx="2" fill="#9be9a8"><title>2026-02-21 (663.3)</title></rect><rect x="114" y="22" width="13" height="13" rx="2" fill="#9be9a8"><title>2026-02-22 (3695.8)</title></rect><rect x="114" y="37" width="13" height="13" rx="2" fill="#9be9a8"><title>2026-02-23 (1337.3)</title></rect><rect x="114" y="52" width="13" height="13" rx="2" fill="#9be9a8"><title>2026-02-24 (1656.0)</title></rect><rect x="114" y="67" width="13" height="13" rx="2" fill="#9be9a8"><title>2026-02-25 (1794.6)</title></rect><rect x="114" y="82" width="13" height="13" rx="2" fill="#9be9a8"><title>2026-02-26 (8304.7)</title></rect><rect x="114" y="97" width="13" height="13" rx="2" fill="#40c463"><title>2026-02-27 (18247.6)</title></rect><rect x="114" y="112" width="13" height="13" rx="2" fill="#40c463"><title>2026-02-28 (14598.0)</title></rect><rect x="129" y="22" width="13" height="13" rx="2" fill="#9be9a8"><title>2026-03-01 (12329.9)</title></rect><rect x="129" y="37" width="13" height="13" rx="2" fill="#9be9a8"><title>2026-03-02 (4764.2)</title></rect><rect x="129" y="52" width="13" height="13" rx="2" fill="#9be9a8"><title>2026-03-03 (207.9)</title></rect><rect x="129" y="67" width="13" height="13" rx="2" fill="#9be9a8"><title>2026-03-04 (4877.2)</title></rect><rect x="129" y="82" width="13" height="13" rx="2" fill="#9be9a8"><title>2026-03-05 (4528.8)</title></rect><rect x="129" y="97" width="13" height="13" rx="2" fill="#9be9a8"><title>2026-03-06 (1775.1)</title></rect><rect x="129" y="112" width="13" height="13" rx="2" fill="#9be9a8"><title>2026-03-07 (2320.2)</title></rect><rect x="144" y="22" width="13" height="13" rx="2" fill="#9be9a8"><title>2026-03-08 (1808.9)</title></rect><rect x="144" y="37" width="13" height="13" rx="2" fill="#9be9a8"><title>2026-03-09 (719.1)</title></rect><rect x="144" y="52" width="13" height="13" rx="2" fill="#9be9a8"><title>2026-03-10 (4099.2)</title></rect><rect x="144" y="67" width="13" height="13" rx="2" fill="#9be9a8"><title>2026-03-11 (1829.9)</title></rect><rect x="144" y="82" width="13" height="13" rx="2" fill="#9be9a8"><title>2026-03-12 (572.4)</title></rect><rect x="144" y="97" width="13" height="13" rx="2" fill="#9be9a8"><title>2026-03-13 (6551.1)</title></rect><rect x="144" y="112" width="13" height="13" rx="2" fill="#9be9a8"><title>2026-03-14 (308.4)</title></rect><rect x="159" y="22" width="13" height="13" rx="2" fill="#9be9a8"><title>2026-03-15 (782.8)</title></rect><rect x="159" y="37" width="13" height="13" rx="2" fill="#9be9a8"><title>2026-03-16 (9558.8)</title></rect><rect x="159" y="52" width="13" height="13" rx="2" fill="#9be9a8"><title>2026-03-17 (9872.7)</title></rect><rect x="159" y="67" width="13" height="13" rx="2" fill="#9be9a8"><title>2026-03-18 (236.0)</title></rect><rect x="159" y="82" width="13" height="13" rx="2" fill="#9be9a8"><title>2026-03-19 (7185.0)</title></rect><rect x="159" y="97" width="13" height="13" rx="2" fill="#9be9a8"><title>2026-03-20 (4141.2)</title></rect><rect x="159" y="112" width="13" height="13" rx="2" fill="#ebedf0"><title>2026-03-21 (0)</title></rect><rect x="174" y="22" width="13" height="13" rx="2" fill="#ebedf0"><title>2026-03-22 (0)</title></rect><rect x="174" y="37" width="13" height="13" rx="2" fill="#9be9a8"><title>2026-03-23 (12099.0)</title></rect><rect x="174" y="52" width="13" height="13" rx="2" fill="#9be9a8"><title>2026-03-24 (597.1)</title></rect><rect x="174" y="67" width="13" height="13" rx="2" fill="#9be9a8"><title>2026-03-25 (205.2)</title></rect><rect x="174" y="82" width="13" height="13" rx="2" fill="#9be9a8"><title>2026-03-26 (3620.0)</title></rect><rect x="174" y="97" width="13" height="13" rx="2" fill="#40c463"><title>2026-03-27 (19563.3)</title></rect><rect x="174" y="112" width="13" height="13" rx="2" fill="#40c463"><title>2026-03-28 (17975.1)</title></rect><rect x="189" y="22" width="13" height="13" rx="2" fill="#9be9a8"><title>2026-03-29 (4236.5)</title></rect><rect x="189" y="37" width="13" height="13" rx="2" fill="#9be9a8"><title>2026-03-30 (4566.8)</title></rect><rect x="189" y="52" width="13" height="13" rx="2" fill="#9be9a8"><title>2026-03-31 (1267.4)</title></rect><rect x="189" y="67" width="13" height="13" rx="2" fill="#9be9a8"><title>2026-04-01 (103.6)</title></rect><rect x="189" y="82" width="13" height="13" rx="2" fill="#9be9a8"><title>2026-04-02 (1298.9)</title></rect><rect x="189" y="97" width="13" height="13" rx="2" fill="#ebedf0"><title>2026-04-03 (0)</title></rect><rect x="189" y="112" width="13" height="13" rx="2" fill="#ebedf0"><title>2026-04-04 (0)</title></rect><rect x="204" y="22" width="13" height="13" rx="2" fill="#9be9a8"><title>2026-04-05 (332.8)</title></rect><rect x="204" y="37" width="13" height="13" rx="2" fill="#9be9a8"><title>2026-04-06 (639.2)</title></rect><rect x="204" y="52" width="13" height="13" rx="2" fill="#9be9a8"><title>2026-04-07 (451.6)</title></rect><rect x="204" y="67" width="13" height="13" rx="2" fill="#9be9a8"><title>2026-04-08 (717.2)</title></rect><rect x="204" y="82" width="13" height="13" rx="2" fill="#9be9a8"><title>2026-04-09 (7.9)</title></rect><rect x="204" y="97" width="13" height="13" rx="2" fill="#9be9a8"><title>2026-04-10 (7425.2)</title></rect><rect x="204" y="112" width="13" height="13" rx="2" fill="#9be9a8"><title>2026-04-11 (784.2)</title></rect><rect x="219" y="22" width="13" height="13" rx="2" fill="#9be9a8"><title>2026-04-12 (1000.8)</title></rect><rect x="219" y="37" width="13" height="13" rx="2" fill="#9be9a8"><title>2026-04-13 (4745.5)</title></rect><rect x="219" y="52" width="13" height="13" rx="2" fill="#9be9a8"><title>2026-04-14 (795.0)</title></rect><rect x="219" y="67" width="13" height="13" rx="2" fill="#9be9a8"><title>2026-04-15 (75.4)</title></rect><rect x="219" y="82" width="13" height="13" rx="2" fill="#9be9a8"><title>2026-04-16 (1400.1)</title></rect><rect x="219" y="97" width="13" height="13" rx="2" fill="#9be9a8"><title>2026-04-17 (10490.8)</title></rect><rect x="219" y="112" width="13" height="13" rx="2" fill="#9be9a8"><title>2026-04-18 (8675.5)</title></rect><rect x="234" y="22" width="13" height="13" rx="2" fill="#9be9a8"><title>2026-04-19 (11368.8)</title></rect><rect x="234" y="37" width="13" height="13" rx="2" fill="#9be9a8"><title>2026-04-20 (961.4)</title></rect><rect x="234" y="52" width="13" height="13" rx="2" fill="#9be9a8"><title>2026-04-21 (1607.4)</title></rect><rect x="234" y="67" width="13" height="13" rx="2" fill="#40c463"><title>2026-04-22 (15466.9)</title></rect><rect x="234" y="82" width="13" height="13" rx="2" fill="#9be9a8"><title>2026-04-23 (2408.2)</title></rect><rect x="234" y="97" width="13" height="13" rx="2" fill="#40c463"><title>2026-04-24 (14538.2)</title></rect><rect x="234" y="112" width="13" height="13" rx="2" fill="#40c463"><title>2026-04-25 (24594.3)</title></rect><rect x="249" y="22" width="13" height="13" rx="2" fill="#40c463"><title>2026-04-26 (22905.2)</title></rect><rect x="249" y="37" width="13" height="13" rx="2" fill="#9be9a8"><title>2026-04-27 (7620.8)</title></rect><rect x="249" y="52" width="13" height="13" rx="2" fill="#9be9a8"><title>2026-04-28 (1784.0)</title></rect><rect x="249" y="67" width="13" height="13" rx="2" fill="#9be9a8"><title>2026-04-29 (4682.2)</title></rect><rect x="249" y="82" width="13" height="13" rx="2" fill="#9be9a8"><title>2026-04-30 (2226.1)</title></rect><rect x="249" y="97" width="13" height="13" rx="2" fill="#9be9a8"><title>2026-05-01 (1645.9)</title></rect><rect x="249" y="112" width="13" height="13" rx="2" fill="#9be9a8"><title>2026-05-02 (2423.9)</title></rect><rect x="264" y="22" width="13" height="13" rx="2" fill="#9be9a8"><title>2026-05-03 (11352.5)</title></rect><rect x="264" y="37" width="13" height="13" rx="2" fill="#9be9a8"><title>2026-05-04 (2371.1)</title></rect><rect x="264" y="52" width="13" height="13" rx="2" fill="#9be9a8"><title>2026-05-05 (9726.2)</title></rect><rect x="264" y="67" width="13" height="13" rx="2" fill="#9be9a8"><title>2026-05-06 (9984.7)</title></rect><rect x="264" y="82" width="13" height="13" rx="2" fill="#9be9a8"><title>2026-05-07 (2660.1)</title></rect><rect x="264" y="97" width="13" height="13" rx="2" fill="#9be9a8"><title>2026-05-08 (2218.5)</title></rect><rect x="264" y="112" width="13" height="13" rx="2" fill="#9be9a8"><title>2026-05-09 (980.5)</title></rect><rect x="279" y="22" width="13" height="13" rx="2" fill="#9be9a8"><title>2026-05-10 (3501.9)</title></rect><rect x="279" y="37" width="13" height="13" rx="2" fill="#9be9a8"><title>2026-05-11 (1319.1)</title></rect><rect x="279" y="52" width="13" height="13" rx="2" fill="#9be9a8"><title>2026-05-12 (4305.6)</title></rect><rect x="279" y="67" width="13" height="13" rx="2" fill="#9be9a8"><title>2026-05-13 (1539.5)</title></rect><rect x="279" y="82" width="13" height="13" rx="2" fill="#9be9a8"><title>2026-05-14 (652.1)</title></rect><rect x="279" y="97" width="13" height="13" rx="2" fill="#9be9a8"><title>2026-05-15 (4443.1)</title></rect><rect x="279" y="112" width="13" height="13" rx="2" fill="#9be9a8"><title>2026-05-16 (2324.0)</title></rect><rect x="294" y="22" width="13" height="13" rx="2" fill="#9be9a8"><title>2026-05-17 (10802.1)</title></rect><rect x="294" y="37" width="13" height="13" rx="2" fill="#9be9a8"><title>2026-05-18 (5277.1)</title></rect><rect x="294" y="52" width="13" height="13" rx="2" fill="#40c463"><title>2026-05-19 (21635.7)</title></rect><rect x="294" y="67" width="13" height="13" rx="2" fill="#40c463"><title>2026-05-20 (20674.7)</title></rect><rect x="294" y="82" width="13" height="13" rx="2" fill="#40c463"><title>2026-05-21 (17330.0)</title></rect><rect x="294" y="97" width="13" height="13" rx="2" fill="#40c463"><title>2026-05-22 (19691.4)</title></rect><rect x="294" y="112" width="13" height="13" rx="2" fill="#40c463"><title>2026-05-23 (23671.5)</title></rect><rect x="309" y="22" width="13" height="13" rx="2" fill="#40c463"><title>2026-05-24 (22866.0)</title></rect><rect x="309" y="37" width="13" height="13" rx="2" fill="#40c463"><title>2026-05-25 (20425.5)</title></rect><rect x="309" y="52" width="13" height="13" rx="2" fill="#40c463"><title>2026-05-26 (17760.1)</title></rect><rect x="309" y="67" width="13" height="13" rx="2" fill="#40c463"><title>2026-05-27 (19539.6)</title></rect><rect x="309" y="82" width="13" height="13" rx="2" fill="#40c463"><title>2026-05-28 (18690.7)</title></rect><rect x="309" y="97" width="13" height="13" rx="2" fill="#40c463"><title>2026-05-29 (24433.6)</title></rect><rect x="309" y="112" width="13" height="13" rx="2" fill="#30a14e"><title>2026-05-30 (30165.4)</title></rect><rect x="324" y="22" width="13" height="13" rx="2" fill="#40c463"><title>2026-05-31 (25738.6)</title></rect><rect x="324" y="37" width="13" height="13" rx="2" fill="#40c463"><title>2026-06-01 (14091.8)</title></rect><rect x="324" y="52" width="13" height="13" rx="2" fill="#40c463"><title>2026-06-02 (13374.7)</title></rect><rect x="324" y="67" width="13" height="13" rx="2" fill="#9be9a8"><title>2026-06-03 (12470.7)</title></rect><rect x="324" y="82" width="13" height="13" rx="2" fill="#40c463"><title>2026-06-04 (16072.4)</title></rect><rect x="324" y="97" width="13" height="13" rx="2" fill="#9be9a8"><title>2026-06-05 (12985.0)</title></rect><rect x="324" y="112" width="13" height="13" rx="2" fill="#40c463"><title>2026-06-06 (20430.5)</title></rect><rect x="339" y="22" width="13" height="13" rx="2" fill="#40c463"><title>2026-06-07 (23952.6)</title></rect><rect x="339" y="37" width="13" height="13" rx="2" fill="#9be9a8"><title>2026-06-08 (13199.4)</title></rect><rect x="339" y="52" width="13" height="13" rx="2" fill="#216e39"><title>2026-06-09 (43892.7)</title></rect><rect x="339" y="67" width="13" height="13" rx="2" fill="#30a14e"><title>2026-06-10 (32365.7)</title></rect><rect x="339" y="82" width="13" height="13" rx="2" fill="#40c463"><title>2026-06-11 (16380.1)</title></rect><rect x="339" y="97" width="13" height="13" rx="2" fill="#40c463"><title>2026-06-12 (17550.4)</title></rect><rect x="339" y="112" width="13" height="13" rx="2" fill="#40c463"><title>2026-06-13 (24686.9)</title></rect><rect x="354" y="22" width="13" height="13" rx="2" fill="#40c463"><title>2026-06-14 (17690.7)</title></rect><rect x="354" y="37" width="13" height="13" rx="2" fill="#9be9a8"><title>2026-06-15 (12694.2)</title></rect><rect x="354" y="52" width="13" height="13" rx="2" fill="#9be9a8"><title>2026-06-16 (11688.3)</title></rect><rect x="354" y="67" width="13" height="13" rx="2" fill="#40c463"><title>2026-06-17 (16539.7)</title></rect><rect x="354" y="82" width="13" height="13" rx="2" fill="#9be9a8"><title>2026-06-18 (11625.5)</title></rect><rect x="354" y="97" width="13" height="13" rx="2" fill="#40c463"><title>2026-06-19 (19073.7)</title></rect><rect x="354" y="112" width="13" height="13" rx="2" fill="#30a14e"><title>2026-06-20 (33693.1)</title></rect><rect x="369" y="22" width="13" height="13" rx="2" fill="#216e39"><title>2026-06-21 (52273.7)</title></rect><rect x="369" y="37" width="13" height="13" rx="2" fill="#216e39"><title>2026-06-22 (44736.4)</title></rect><rect x="369" y="52" width="13" height="13" rx="2" fill="#216e39"><title>2026-06-23 (48095.8)</title></rect><rect x="369" y="67" width="13" height="13" rx="2" fill="#216e39"><title>2026-06-24 (53473.5)</title></rect><rect x="369" y="82" width="13" height="13" rx="2" fill="#40c463"><title>2026-06-25 (20356.2)</title></rect><rect x="369" y="97" width="13" height="13" rx="2" fill="#40c463"><title>2026-06-26 (19070.7)</title></rect><rect x="369" y="112" width="13" height="13" rx="2" fill="#9be9a8"><title>2026-06-27 (9791.8)</title></rect><rect x="384" y="22" width="13" height="13" rx="2" fill="#40c463"><title>2026-06-28 (15801.6)</title></rect><rect x="384" y="37" width="13" height="13" rx="2" fill="#40c463"><title>2026-06-29 (17867.8)</title></rect><rect x="384" y="52" width="13" height="13" rx="2" fill="#40c463"><title>2026-06-30 (16953.9)</title></rect><rect x="384" y="67" width="13" height="13" rx="2" fill="#9be9a8"><title>2026-07-01 (11962.2)</title></rect><rect x="384" y="82" width="13" height="13" rx="2" fill="#9be9a8"><title>2026-07-02 (9279.3)</title></rect><rect x="384" y="97" width="13" height="13" rx="2" fill="#9be9a8"><title>2026-07-03 (6268.1)</title></rect><rect x="384" y="112" width="13" height="13" rx="2" fill="#9be9a8"><title>2026-07-04 (9086.2)</title></rect><rect x="399" y="22" width="13" height="13" rx="2" fill="#9be9a8"><title>2026-07-05 (5759.8)</title></rect><rect x="399" y="37" width="13" height="13" rx="2" fill="#9be9a8"><title>2026-07-06 (5752.5)</title></rect><rect x="399" y="52" width="13" height="13" rx="2" fill="#9be9a8"><title>2026-07-07 (7023.4)</title></rect><rect x="399" y="67" width="13" height="13" rx="2" fill="#9be9a8"><title>2026-07-08 (8214.3)</title></rect><rect x="399" y="82" width="13" height="13" rx="2" fill="#9be9a8"><title>2026-07-09 (3766.3)</title></rect><rect x="399" y="97" width="13" height="13" rx="2" fill="#9be9a8"><title>2026-07-10 (8161.5)</title></rect><rect x="399" y="112" width="13" height="13" rx="2" fill="#9be9a8"><title>2026-07-11 (5370.4)</title></rect><rect x="414" y="22" width="13" height="13" rx="2" fill="#9be9a8"><title>2026-07-12 (4113.2)</title></rect><rect x="414" y="37" width="13" height="13" rx="2" fill="#9be9a8"><title>2026-07-13 (4948.3)</title></rect><rect x="414" y="52" width="13" height="13" rx="2" fill="#9be9a8"><title>2026-07-14 (3116.7)</title></rect><rect x="414" y="67" width="13" height="13" rx="2" fill="#9be9a8"><title>2026-07-15 (1776.6)</title></rect><rect x="414" y="82" width="13" height="13" rx="2" fill="#9be9a8"><title>2026-07-16 (362.6)</title></rect><text x="24" y="145" font-size="9" fill="#333333">적음</text><rect x="52" y="135" width="13" height="13" rx="2" fill="#ebedf0"/><rect x="67" y="135" width="13" height="13" rx="2" fill="#9be9a8"/><rect x="82" y="135" width="13" height="13" rx="2" fill="#40c463"/><rect x="97" y="135" width="13" height="13" rx="2" fill="#30a14e"/><rect x="112" y="135" width="13" height="13" rx="2" fill="#216e39"/><text x="131" y="145" font-size="9" fill="#333333">많음</text><text x="24" y="163" font-size="9" fill="#333333">기준: 2026-07-16 22:16</text>
</svg>