<svg xmlns="http://www.w3.org/2000/svg" width="363" height="260">
<text x="181" y="18" text-anchor="middle" font-size="13" font-weight="bold" fill="#e0e0e0">최근 2주 요일별 활동</text>
<text x="24" y="46" text-anchor="end" font-size="12" fill="#cccccc">일</text><rect x="28" y="30" width="217" height="22" rx="3" fill="#216e39"><title>일: 4253.1점</title></rect><text x="250" y="46" font-size="10" fill="#cccccc">4253.1</text><text x="24" y="74" text-anchor="end" font-size="12" fill="#cccccc">월</text><rect x="28" y="58" width="114" height="22" rx="3" fill="#40c463"><title>월: 2243.4점</title></rect><text x="147" y="74" font-size="10" fill="#cccccc">2243.4</text><text x="24" y="102" text-anchor="end" font-size="12" fill="#cccccc">화</text><rect x="28" y="86" width="107" height="22" rx="3" fill="#40c463"><title>화: 2092.8점</title></rect><text x="140" y="102" font-size="10" fill="#cccccc">2092.8</text><text x="24" y="130" text-anchor="end" font-size="12" fill="#cccccc">수</text><rect x="28" y="114" width="269" height="22" rx="3" fill="#216e39"><title>수: 5269.0점</title></rect><text x="302" y="130" font-size="10" fill="#cccccc">5269.0</text><text x="24" y="158" text-anchor="end" font-size="12" fill="#cccccc">목</text><rect x="28" y="142" width="261" height="22" rx="3" fill="#216e39"><title>목: 5115.0점</title></rect><text x="294" y="158" font-size="10" fill="#cccccc">5115.0</text><text x="24" y="186" text-anchor="end" font-size="12" fill="#cccccc">금</text><rect x="28" y="170" width="233" height="22" rx="3" fill="#216e39"><title>금: 4565.0점</title></rect><text x="266" y="186" font-size="10" fill="#cccccc">4565.0</text><text x="24" y="214" text-anchor="end" font-size="12" fill="#cccccc">토</text><rect x="28" y="198" width="280" height="22" rx="3" fill="#216e39"><title>토: 5467.0점</title></rect><text x="313" y="214" font-size="10" fill="#cccccc">5467.0</text>
<text x="28" y="254" font-size="9" fill="#999999">기준: 2026-06-09 20:21</text>
</svg>