<svg xmlns="http://www.w3.org/2000/svg" width="363" height="260">
<text x="181" y="18" text-anchor="middle" font-size="13" font-weight="bold" fill="#e0e0e0">최근 2주 요일별 활동</text>
<text x="24" y="46" text-anchor="end" font-size="12" fill="#cccccc">일</text><rect x="28" y="30" width="187" height="22" rx="3" fill="#30a14e"><title>일: 7628.4점</title></rect><text x="220" y="46" font-size="10" fill="#cccccc">7628.4</text><text x="24" y="74" text-anchor="end" font-size="12" fill="#cccccc">월</text><rect x="28" y="58" width="183" height="22" rx="3" fill="#30a14e"><title>월: 7468.3점</title></rect><text x="216" y="74" font-size="10" fill="#cccccc">7468.3</text><text x="24" y="102" text-anchor="end" font-size="12" fill="#cccccc">화</text><rect x="28" y="86" width="169" height="22" rx="3" fill="#30a14e"><title>화: 6891.5점</title></rect><text x="202" y="102" font-size="10" fill="#cccccc">6891.5</text><text x="24" y="130" text-anchor="end" font-size="12" fill="#cccccc">수</text><rect x="28" y="114" width="163" height="22" rx="3" fill="#30a14e"><title>수: 6639.4점</title></rect><text x="196" y="130" font-size="10" fill="#cccccc">6639.4</text><text x="24" y="158" text-anchor="end" font-size="12" fill="#cccccc">목</text><rect x="28" y="142" width="266" height="22" rx="3" fill="#216e39"><title>목: 10832.8점</title></rect><text x="299" y="158" font-size="10" fill="#cccccc">10832.8</text><text x="24" y="186" text-anchor="end" font-size="12" fill="#cccccc">금</text><rect x="28" y="170" width="272" height="22" rx="3" fill="#216e39"><title>금: 11057.4점</title></rect><text x="305" y="186" font-size="10" fill="#cccccc">11057.4</text><text x="24" y="214" text-anchor="end" font-size="12" fill="#cccccc">토</text><rect x="28" y="198" width="280" height="22" rx="3" fill="#216e39"><title>토: 11380.8점</title></rect><text x="313" y="214" font-size="10" fill="#cccccc">11380.8</text>
<text x="28" y="254" font-size="9" fill="#999999">기준: 2026-07-15 11:02</text>
</svg>