<svg xmlns="http://www.w3.org/2000/svg" width="363" height="260">
<text x="181" y="18" text-anchor="middle" font-size="13" font-weight="bold" fill="#111111">최근 1달 요일별 활동</text>
<text x="24" y="46" text-anchor="end" font-size="12" fill="#333333">일</text><rect x="28" y="30" width="270" height="22" rx="3" fill="#216e39"><title>일: 16513.6점</title></rect><text x="303" y="46" font-size="10" fill="#333333">16513.6</text><text x="24" y="74" text-anchor="end" font-size="12" fill="#333333">월</text><rect x="28" y="58" width="154" height="22" rx="3" fill="#30a14e"><title>월: 9406.6점</title></rect><text x="187" y="74" font-size="10" fill="#333333">9406.6</text><text x="24" y="102" text-anchor="end" font-size="12" fill="#333333">화</text><rect x="28" y="86" width="280" height="22" rx="3" fill="#216e39"><title>화: 17068.7점</title></rect><text x="313" y="102" font-size="10" fill="#333333">17068.7</text><text x="24" y="130" text-anchor="end" font-size="12" fill="#333333">수</text><rect x="28" y="114" width="231" height="22" rx="3" fill="#216e39"><title>수: 14111.7점</title></rect><text x="264" y="130" font-size="10" fill="#333333">14111.7</text><text x="24" y="158" text-anchor="end" font-size="12" fill="#333333">목</text><rect x="28" y="142" width="211" height="22" rx="3" fill="#216e39"><title>목: 12883.5점</title></rect><text x="244" y="158" font-size="10" fill="#333333">12883.5</text><text x="24" y="186" text-anchor="end" font-size="12" fill="#333333">금</text><rect x="28" y="170" width="196" height="22" rx="3" fill="#30a14e"><title>금: 11985.5점</title></rect><text x="229" y="186" font-size="10" fill="#333333">11985.5</text><text x="24" y="214" text-anchor="end" font-size="12" fill="#333333">토</text><rect x="28" y="198" width="250" height="22" rx="3" fill="#216e39"><title>토: 15254.5점</title></rect><text x="283" y="214" font-size="10" fill="#333333">15254.5</text>
<text x="28" y="254" font-size="9" fill="#666666">기준: 2026-06-11 20:38</text>
</svg>