<svg xmlns="http://www.w3.org/2000/svg" width="363" height="260">
<text x="181" y="18" text-anchor="middle" font-size="13" font-weight="bold" fill="#e0e0e0">최근 2주 요일별 활동</text>
<text x="24" y="46" text-anchor="end" font-size="12" fill="#cccccc">일</text><rect x="28" y="30" width="85" height="22" rx="3" fill="#40c463"><title>일: 794.2점</title></rect><text x="118" y="46" font-size="10" fill="#cccccc">794.2</text><text x="24" y="74" text-anchor="end" font-size="12" fill="#cccccc">월</text><rect x="28" y="58" width="116" height="22" rx="3" fill="#40c463"><title>월: 1085.6점</title></rect><text x="149" y="74" font-size="10" fill="#cccccc">1085.6</text><text x="24" y="102" text-anchor="end" font-size="12" fill="#cccccc">화</text><rect x="28" y="86" width="280" height="22" rx="3" fill="#216e39"><title>화: 2599.5점</title></rect><text x="313" y="102" font-size="10" fill="#cccccc">2599.5</text><text x="24" y="130" text-anchor="end" font-size="12" fill="#cccccc">수</text><rect x="28" y="114" width="165" height="22" rx="3" fill="#30a14e"><title>수: 1533.5점</title></rect><text x="198" y="130" font-size="10" fill="#cccccc">1533.5</text><text x="24" y="158" text-anchor="end" font-size="12" fill="#cccccc">목</text><rect x="28" y="142" width="136" height="22" rx="3" fill="#40c463"><title>목: 1267.5점</title></rect><text x="169" y="158" font-size="10" fill="#cccccc">1267.5</text><text x="24" y="186" text-anchor="end" font-size="12" fill="#cccccc">금</text><rect x="28" y="170" width="106" height="22" rx="3" fill="#40c463"><title>금: 985.5점</title></rect><text x="139" y="186" font-size="10" fill="#cccccc">985.5</text><text x="24" y="214" text-anchor="end" font-size="12" fill="#cccccc">토</text><rect x="28" y="198" width="83" height="22" rx="3" fill="#40c463"><title>토: 778.5점</title></rect><text x="116" y="214" font-size="10" fill="#cccccc">778.5</text>
<text x="28" y="254" font-size="9" fill="#999999">기준: 2026-05-24 08:45</text>
</svg>