<svg xmlns="http://www.w3.org/2000/svg" width="363" height="260">
<text x="181" y="18" text-anchor="middle" font-size="13" font-weight="bold" fill="#e0e0e0">최근 2주 요일별 활동</text>
<text x="24" y="46" text-anchor="end" font-size="12" fill="#cccccc">일</text><rect x="28" y="30" width="280" height="22" rx="3" fill="#216e39"><title>일: 27520.2점</title></rect><text x="313" y="46" font-size="10" fill="#cccccc">27520.2</text><text x="24" y="74" text-anchor="end" font-size="12" fill="#cccccc">월</text><rect x="28" y="58" width="234" height="22" rx="3" fill="#216e39"><title>월: 23058.2점</title></rect><text x="267" y="74" font-size="10" fill="#cccccc">23058.2</text><text x="24" y="102" text-anchor="end" font-size="12" fill="#cccccc">화</text><rect x="28" y="86" width="240" height="22" rx="3" fill="#216e39"><title>화: 23640.0점</title></rect><text x="273" y="102" font-size="10" fill="#cccccc">23640.0</text><text x="24" y="130" text-anchor="end" font-size="12" fill="#cccccc">수</text><rect x="28" y="114" width="230" height="22" rx="3" fill="#216e39"><title>수: 22619.9점</title></rect><text x="263" y="130" font-size="10" fill="#cccccc">22619.9</text><text x="24" y="158" text-anchor="end" font-size="12" fill="#cccccc">목</text><rect x="28" y="142" width="86" height="22" rx="3" fill="#40c463"><title>목: 8534.6점</title></rect><text x="119" y="158" font-size="10" fill="#cccccc">8534.6</text><text x="24" y="186" text-anchor="end" font-size="12" fill="#cccccc">금</text><rect x="28" y="170" width="70" height="22" rx="3" fill="#40c463"><title>금: 6966.8점</title></rect><text x="103" y="186" font-size="10" fill="#cccccc">6966.8</text><text x="24" y="214" text-anchor="end" font-size="12" fill="#cccccc">토</text><rect x="28" y="198" width="36" height="22" rx="3" fill="#9be9a8"><title>토: 3614.7점</title></rect><text x="69" y="214" font-size="10" fill="#cccccc">3614.7</text>
<text x="28" y="254" font-size="9" fill="#999999">기준: 2026-07-04 14:01</text>
</svg>