<svg xmlns="http://www.w3.org/2000/svg" width="363" height="260">
<text x="181" y="18" text-anchor="middle" font-size="13" font-weight="bold" fill="#111111">최근 2주 요일별 활동</text>
<text x="24" y="46" text-anchor="end" font-size="12" fill="#333333">일</text><rect x="28" y="30" width="204" height="22" rx="3" fill="#30a14e"><title>일: 6395.7점</title></rect><text x="237" y="46" font-size="10" fill="#333333">6395.7</text><text x="24" y="74" text-anchor="end" font-size="12" fill="#333333">월</text><rect x="28" y="58" width="106" height="22" rx="3" fill="#40c463"><title>월: 3340.1점</title></rect><text x="139" y="74" font-size="10" fill="#333333">3340.1</text><text x="24" y="102" text-anchor="end" font-size="12" fill="#333333">화</text><rect x="28" y="86" width="280" height="22" rx="3" fill="#216e39"><title>화: 8751.8점</title></rect><text x="313" y="102" font-size="10" fill="#333333">8751.8</text><text x="24" y="130" text-anchor="end" font-size="12" fill="#333333">수</text><rect x="28" y="114" width="138" height="22" rx="3" fill="#40c463"><title>수: 4329.8점</title></rect><text x="171" y="130" font-size="10" fill="#333333">4329.8</text><text x="24" y="158" text-anchor="end" font-size="12" fill="#333333">목</text><rect x="28" y="142" width="60" height="22" rx="3" fill="#9be9a8"><title>목: 1881.0점</title></rect><text x="93" y="158" font-size="10" fill="#333333">1881.0</text><text x="24" y="186" text-anchor="end" font-size="12" fill="#333333">금</text><rect x="28" y="170" width="168" height="22" rx="3" fill="#30a14e"><title>금: 5280.0점</title></rect><text x="201" y="186" font-size="10" fill="#333333">5280.0</text><text x="24" y="214" text-anchor="end" font-size="12" fill="#333333">토</text><rect x="28" y="198" width="245" height="22" rx="3" fill="#216e39"><title>토: 7688.7점</title></rect><text x="278" y="214" font-size="10" fill="#333333">7688.7</text>
<text x="28" y="254" font-size="9" fill="#666666">기준: 2026-06-18 10:49</text>
</svg>