<svg xmlns="http://www.w3.org/2000/svg" width="363" height="260">
<text x="181" y="18" text-anchor="middle" font-size="13" font-weight="bold" fill="#111111">최근 1주 요일별 활동</text>
<text x="24" y="46" text-anchor="end" font-size="12" fill="#333333">일</text><rect x="28" y="30" width="140" height="22" rx="3" fill="#30a14e"><title>일: 825.0점</title></rect><text x="173" y="46" font-size="10" fill="#333333">825.0</text><text x="24" y="74" text-anchor="end" font-size="12" fill="#333333">월</text><rect x="28" y="58" width="58" height="22" rx="3" fill="#9be9a8"><title>월: 346.6점</title></rect><text x="91" y="74" font-size="10" fill="#333333">346.6</text><text x="24" y="102" text-anchor="end" font-size="12" fill="#333333">화</text><rect x="28" y="86" width="27" height="22" rx="3" fill="#9be9a8"><title>화: 161.8점</title></rect><text x="60" y="102" font-size="10" fill="#333333">161.8</text><text x="24" y="130" text-anchor="end" font-size="12" fill="#333333">수</text><rect x="28" y="114" width="2" height="22" rx="3" fill="#9be9a8"><title>수: 11.0점</title></rect><text x="35" y="130" font-size="10" fill="#333333">11.0</text><text x="24" y="158" text-anchor="end" font-size="12" fill="#333333">목</text><rect x="28" y="142" width="280" height="22" rx="3" fill="#216e39"><title>목: 1650.0점</title></rect><text x="313" y="158" font-size="10" fill="#333333">1650.0</text><text x="24" y="186" text-anchor="end" font-size="12" fill="#333333">금</text><rect x="28" y="170" width="233" height="22" rx="3" fill="#216e39"><title>금: 1375.0점</title></rect><text x="266" y="186" font-size="10" fill="#333333">1375.0</text><text x="24" y="214" text-anchor="end" font-size="12" fill="#333333">토</text><rect x="28" y="198" width="248" height="22" rx="3" fill="#216e39"><title>토: 1463.0점</title></rect><text x="281" y="214" font-size="10" fill="#333333">1463.0</text>
<text x="28" y="254" font-size="9" fill="#666666">기준: 2026-06-03 11:24</text>
</svg>