<svg xmlns="http://www.w3.org/2000/svg" width="363" height="260">
<text x="181" y="18" text-anchor="middle" font-size="13" font-weight="bold" fill="#111111">최근 2주 요일별 활동</text>
<text x="24" y="46" text-anchor="end" font-size="12" fill="#333333">일</text><rect x="28" y="30" width="88" height="22" rx="3" fill="#40c463"><title>일: 842.6점</title></rect><text x="121" y="46" font-size="10" fill="#333333">842.6</text><text x="24" y="74" text-anchor="end" font-size="12" fill="#333333">월</text><rect x="28" y="58" width="114" height="22" rx="3" fill="#40c463"><title>월: 1095.6점</title></rect><text x="147" y="74" font-size="10" fill="#333333">1095.6</text><text x="24" y="102" text-anchor="end" font-size="12" fill="#333333">화</text><rect x="28" y="86" width="280" height="22" rx="3" fill="#216e39"><title>화: 2667.7점</title></rect><text x="313" y="102" font-size="10" fill="#333333">2667.7</text><text x="24" y="130" text-anchor="end" font-size="12" fill="#333333">수</text><rect x="28" y="114" width="167" height="22" rx="3" fill="#30a14e"><title>수: 1591.7점</title></rect><text x="200" y="130" font-size="10" fill="#333333">1591.7</text><text x="24" y="158" text-anchor="end" font-size="12" fill="#333333">목</text><rect x="28" y="142" width="138" height="22" rx="3" fill="#40c463"><title>목: 1322.5점</title></rect><text x="171" y="158" font-size="10" fill="#333333">1322.5</text><text x="24" y="186" text-anchor="end" font-size="12" fill="#333333">금</text><rect x="28" y="170" width="109" height="22" rx="3" fill="#40c463"><title>금: 1040.5점</title></rect><text x="142" y="186" font-size="10" fill="#333333">1040.5</text><text x="24" y="214" text-anchor="end" font-size="12" fill="#333333">토</text><rect x="28" y="198" width="89" height="22" rx="3" fill="#40c463"><title>토: 855.5점</title></rect><text x="122" y="214" font-size="10" fill="#333333">855.5</text>
<text x="28" y="254" font-size="9" fill="#666666">기준: 2026-05-24 10:51</text>
</svg>