<svg xmlns="http://www.w3.org/2000/svg" width="363" height="260">
<text x="181" y="18" text-anchor="middle" font-size="13" font-weight="bold" fill="#e0e0e0">최근 1주 요일별 활동</text>
<text x="24" y="46" text-anchor="end" font-size="12" fill="#cccccc">일</text><rect x="28" y="30" width="133" height="22" rx="3" fill="#40c463"><title>일: 712.4점</title></rect><text x="166" y="46" font-size="10" fill="#cccccc">712.4</text><text x="24" y="74" text-anchor="end" font-size="12" fill="#cccccc">월</text><rect x="28" y="58" width="12" height="22" rx="3" fill="#9be9a8"><title>월: 66.0점</title></rect><text x="45" y="74" font-size="10" fill="#cccccc">66.0</text><text x="24" y="102" text-anchor="end" font-size="12" fill="#cccccc">화</text><rect x="28" y="86" width="280" height="22" rx="3" fill="#216e39"><title>화: 1494.7점</title></rect><text x="313" y="102" font-size="10" fill="#cccccc">1494.7</text><text x="24" y="130" text-anchor="end" font-size="12" fill="#cccccc">수</text><rect x="28" y="114" width="234" height="22" rx="3" fill="#216e39"><title>수: 1254.0점</title></rect><text x="267" y="130" font-size="10" fill="#cccccc">1254.0</text><text x="24" y="158" text-anchor="end" font-size="12" fill="#cccccc">목</text><rect x="28" y="142" width="247" height="22" rx="3" fill="#216e39"><title>목: 1320.0점</title></rect><text x="280" y="158" font-size="10" fill="#cccccc">1320.0</text><text x="24" y="186" text-anchor="end" font-size="12" fill="#cccccc">금</text><rect x="28" y="170" width="195" height="22" rx="3" fill="#30a14e"><title>금: 1045.0점</title></rect><text x="228" y="186" font-size="10" fill="#cccccc">1045.0</text><text x="24" y="214" text-anchor="end" font-size="12" fill="#cccccc">토</text><rect x="28" y="198" width="187" height="22" rx="3" fill="#30a14e"><title>토: 1001.0점</title></rect><text x="220" y="214" font-size="10" fill="#cccccc">1001.0</text>
<text x="28" y="254" font-size="9" fill="#999999">기준: 2026-06-08 20:36</text>
</svg>