<svg xmlns="http://www.w3.org/2000/svg" width="363" height="260">
<text x="181" y="18" text-anchor="middle" font-size="13" font-weight="bold" fill="#e0e0e0">최근 2주 요일별 활동</text>
<text x="24" y="46" text-anchor="end" font-size="12" fill="#cccccc">일</text><rect x="28" y="30" width="280" height="22" rx="3" fill="#216e39"><title>일: 22500.3점</title></rect><text x="313" y="46" font-size="10" fill="#cccccc">22500.3</text><text x="24" y="74" text-anchor="end" font-size="12" fill="#cccccc">월</text><rect x="28" y="58" width="228" height="22" rx="3" fill="#216e39"><title>월: 18363.1점</title></rect><text x="261" y="74" font-size="10" fill="#cccccc">18363.1</text><text x="24" y="102" text-anchor="end" font-size="12" fill="#cccccc">화</text><rect x="28" y="86" width="230" height="22" rx="3" fill="#216e39"><title>화: 18550.8점</title></rect><text x="263" y="102" font-size="10" fill="#cccccc">18550.8</text><text x="24" y="130" text-anchor="end" font-size="12" fill="#cccccc">수</text><rect x="28" y="114" width="218" height="22" rx="3" fill="#216e39"><title>수: 17522.3점</title></rect><text x="251" y="130" font-size="10" fill="#cccccc">17522.3</text><text x="24" y="158" text-anchor="end" font-size="12" fill="#cccccc">목</text><rect x="28" y="142" width="75" height="22" rx="3" fill="#40c463"><title>목: 6039.0점</title></rect><text x="108" y="158" font-size="10" fill="#cccccc">6039.0</text><text x="24" y="186" text-anchor="end" font-size="12" fill="#cccccc">금</text><rect x="28" y="170" width="154" height="22" rx="3" fill="#30a14e"><title>금: 12427.5점</title></rect><text x="187" y="186" font-size="10" fill="#cccccc">12427.5</text><text x="24" y="214" text-anchor="end" font-size="12" fill="#cccccc">토</text><rect x="28" y="198" width="198" height="22" rx="3" fill="#30a14e"><title>토: 15943.9점</title></rect><text x="231" y="214" font-size="10" fill="#cccccc">15943.9</text>
<text x="28" y="254" font-size="9" fill="#999999">기준: 2026-07-02 17:01</text>
</svg>