<svg xmlns="http://www.w3.org/2000/svg" width="363" height="260">
<text x="181" y="18" text-anchor="middle" font-size="13" font-weight="bold" fill="#111111">최근 1달 요일별 활동</text>
<text x="24" y="46" text-anchor="end" font-size="12" fill="#333333">일</text><rect x="28" y="30" width="280" height="22" rx="3" fill="#216e39"><title>일: 74398.8점</title></rect><text x="313" y="46" font-size="10" fill="#333333">74398.8</text><text x="24" y="74" text-anchor="end" font-size="12" fill="#333333">월</text><rect x="28" y="58" width="242" height="22" rx="3" fill="#216e39"><title>월: 64554.1점</title></rect><text x="275" y="74" font-size="10" fill="#333333">64554.1</text><text x="24" y="102" text-anchor="end" font-size="12" fill="#333333">화</text><rect x="28" y="86" width="244" height="22" rx="3" fill="#216e39"><title>화: 65074.0점</title></rect><text x="277" y="102" font-size="10" fill="#333333">65074.0</text><text x="24" y="130" text-anchor="end" font-size="12" fill="#333333">수</text><rect x="28" y="114" width="259" height="22" rx="3" fill="#216e39"><title>수: 69066.5점</title></rect><text x="292" y="130" font-size="10" fill="#333333">69066.5</text><text x="24" y="158" text-anchor="end" font-size="12" fill="#333333">목</text><rect x="28" y="142" width="131" height="22" rx="3" fill="#40c463"><title>목: 34967.3점</title></rect><text x="164" y="158" font-size="10" fill="#333333">34967.3</text><text x="24" y="186" text-anchor="end" font-size="12" fill="#333333">금</text><rect x="28" y="170" width="146" height="22" rx="3" fill="#30a14e"><title>금: 38981.5점</title></rect><text x="179" y="186" font-size="10" fill="#333333">38981.5</text><text x="24" y="214" text-anchor="end" font-size="12" fill="#333333">토</text><rect x="28" y="198" width="168" height="22" rx="3" fill="#30a14e"><title>토: 44778.6점</title></rect><text x="201" y="214" font-size="10" fill="#333333">44778.6</text>
<text x="28" y="254" font-size="9" fill="#666666">기준: 2026-07-13 19:52</text>
</svg>