<svg xmlns="http://www.w3.org/2000/svg" width="363" height="260">
<text x="181" y="18" text-anchor="middle" font-size="13" font-weight="bold" fill="#e0e0e0">최근 2주 요일별 활동</text>
<text x="24" y="46" text-anchor="end" font-size="12" fill="#cccccc">일</text><rect x="28" y="30" width="189" height="22" rx="3" fill="#30a14e"><title>일: 8715.4점</title></rect><text x="222" y="46" font-size="10" fill="#cccccc">8715.4</text><text x="24" y="74" text-anchor="end" font-size="12" fill="#cccccc">월</text><rect x="28" y="58" width="196" height="22" rx="3" fill="#30a14e"><title>월: 9047.2점</title></rect><text x="229" y="74" font-size="10" fill="#cccccc">9047.2</text><text x="24" y="102" text-anchor="end" font-size="12" fill="#cccccc">화</text><rect x="28" y="86" width="183" height="22" rx="3" fill="#30a14e"><title>화: 8461.5점</title></rect><text x="216" y="102" font-size="10" fill="#cccccc">8461.5</text><text x="24" y="130" text-anchor="end" font-size="12" fill="#cccccc">수</text><rect x="28" y="114" width="177" height="22" rx="3" fill="#30a14e"><title>수: 8195.4점</title></rect><text x="210" y="130" font-size="10" fill="#cccccc">8195.4</text><text x="24" y="158" text-anchor="end" font-size="12" fill="#cccccc">목</text><rect x="28" y="142" width="72" height="22" rx="3" fill="#40c463"><title>목: 3357.0점</title></rect><text x="105" y="158" font-size="10" fill="#cccccc">3357.0</text><text x="24" y="186" text-anchor="end" font-size="12" fill="#cccccc">금</text><rect x="28" y="170" width="276" height="22" rx="3" fill="#216e39"><title>금: 12719.0점</title></rect><text x="309" y="186" font-size="10" fill="#cccccc">12719.0</text><text x="24" y="214" text-anchor="end" font-size="12" fill="#cccccc">토</text><rect x="28" y="198" width="280" height="22" rx="3" fill="#216e39"><title>토: 12897.2점</title></rect><text x="313" y="214" font-size="10" fill="#cccccc">12897.2</text>
<text x="28" y="254" font-size="9" fill="#999999">기준: 2026-07-16 03:41</text>
</svg>