<svg xmlns="http://www.w3.org/2000/svg" width="363" height="260">
<text x="181" y="18" text-anchor="middle" font-size="13" font-weight="bold" fill="#e0e0e0">최근 1달 요일별 활동</text>
<text x="24" y="46" text-anchor="end" font-size="12" fill="#cccccc">일</text><rect x="28" y="30" width="262" height="22" rx="3" fill="#216e39"><title>일: 33331.6점</title></rect><text x="295" y="46" font-size="10" fill="#cccccc">33331.6</text><text x="24" y="74" text-anchor="end" font-size="12" fill="#cccccc">월</text><rect x="28" y="58" width="175" height="22" rx="3" fill="#30a14e"><title>월: 22348.1점</title></rect><text x="208" y="74" font-size="10" fill="#cccccc">22348.1</text><text x="24" y="102" text-anchor="end" font-size="12" fill="#cccccc">화</text><rect x="28" y="86" width="259" height="22" rx="3" fill="#216e39"><title>화: 32943.8점</title></rect><text x="292" y="102" font-size="10" fill="#cccccc">32943.8</text><text x="24" y="130" text-anchor="end" font-size="12" fill="#cccccc">수</text><rect x="28" y="114" width="196" height="22" rx="3" fill="#30a14e"><title>수: 24982.2점</title></rect><text x="229" y="130" font-size="10" fill="#cccccc">24982.2</text><text x="24" y="158" text-anchor="end" font-size="12" fill="#cccccc">목</text><rect x="28" y="142" width="126" height="22" rx="3" fill="#40c463"><title>목: 16126.9점</title></rect><text x="159" y="158" font-size="10" fill="#cccccc">16126.9</text><text x="24" y="186" text-anchor="end" font-size="12" fill="#cccccc">금</text><rect x="28" y="170" width="196" height="22" rx="3" fill="#30a14e"><title>금: 24959.9점</title></rect><text x="229" y="186" font-size="10" fill="#cccccc">24959.9</text><text x="24" y="214" text-anchor="end" font-size="12" fill="#cccccc">토</text><rect x="28" y="198" width="280" height="22" rx="3" fill="#216e39"><title>토: 35568.5점</title></rect><text x="313" y="214" font-size="10" fill="#cccccc">35568.5</text>
<text x="28" y="254" font-size="9" fill="#999999">기준: 2026-06-27 09:06</text>
</svg>