<svg xmlns="http://www.w3.org/2000/svg" width="363" height="260">
<text x="181" y="18" text-anchor="middle" font-size="13" font-weight="bold" fill="#e0e0e0">최근 1주 요일별 활동</text>
<text x="24" y="46" text-anchor="end" font-size="12" fill="#cccccc">일</text><rect x="28" y="30" width="280" height="22" rx="3" fill="#216e39"><title>일: 8320.5점</title></rect><text x="313" y="46" font-size="10" fill="#cccccc">8320.5</text><text x="24" y="74" text-anchor="end" font-size="12" fill="#cccccc">월</text><rect x="28" y="58" width="200" height="22" rx="3" fill="#30a14e"><title>월: 5955.8점</title></rect><text x="233" y="74" font-size="10" fill="#cccccc">5955.8</text><text x="24" y="102" text-anchor="end" font-size="12" fill="#cccccc">화</text><rect x="28" y="86" width="183" height="22" rx="3" fill="#30a14e"><title>화: 5457.1점</title></rect><text x="216" y="102" font-size="10" fill="#cccccc">5457.1</text><text x="24" y="130" text-anchor="end" font-size="12" fill="#cccccc">수</text><rect x="28" y="114" width="138" height="22" rx="3" fill="#40c463"><title>수: 4114.5점</title></rect><text x="171" y="130" font-size="10" fill="#cccccc">4114.5</text><text x="24" y="158" text-anchor="end" font-size="12" fill="#cccccc">목</text><rect x="28" y="142" width="26" height="22" rx="3" fill="#9be9a8"><title>목: 795.8점</title></rect><text x="59" y="158" font-size="10" fill="#cccccc">795.8</text><text x="24" y="186" text-anchor="end" font-size="12" fill="#cccccc">금</text><rect x="28" y="170" width="2" height="22" rx="3" fill="#9be9a8"><title>금: 71.4점</title></rect><text x="35" y="186" font-size="10" fill="#cccccc">71.4</text><text x="24" y="214" text-anchor="end" font-size="12" fill="#cccccc">토</text><rect x="28" y="198" width="208" height="22" rx="3" fill="#30a14e"><title>토: 6201.4점</title></rect><text x="241" y="214" font-size="10" fill="#cccccc">6201.4</text>
<text x="28" y="254" font-size="9" fill="#999999">기준: 2026-06-26 14:48</text>
</svg>