<svg xmlns="http://www.w3.org/2000/svg" width="363" height="260">
<text x="181" y="18" text-anchor="middle" font-size="13" font-weight="bold" fill="#e0e0e0">최근 1달 요일별 활동</text>
<text x="24" y="46" text-anchor="end" font-size="12" fill="#cccccc">일</text><rect x="28" y="30" width="269" height="22" rx="3" fill="#216e39"><title>일: 11975.9점</title></rect><text x="302" y="46" font-size="10" fill="#cccccc">11975.9</text><text x="24" y="74" text-anchor="end" font-size="12" fill="#cccccc">월</text><rect x="28" y="58" width="157" height="22" rx="3" fill="#30a14e"><title>월: 6990.6점</title></rect><text x="190" y="74" font-size="10" fill="#cccccc">6990.6</text><text x="24" y="102" text-anchor="end" font-size="12" fill="#cccccc">화</text><rect x="28" y="86" width="280" height="22" rx="3" fill="#216e39"><title>화: 12458.6점</title></rect><text x="313" y="102" font-size="10" fill="#cccccc">12458.6</text><text x="24" y="130" text-anchor="end" font-size="12" fill="#cccccc">수</text><rect x="28" y="114" width="227" height="22" rx="3" fill="#216e39"><title>수: 10136.7점</title></rect><text x="260" y="130" font-size="10" fill="#cccccc">10136.7</text><text x="24" y="158" text-anchor="end" font-size="12" fill="#cccccc">목</text><rect x="28" y="142" width="210" height="22" rx="3" fill="#216e39"><title>목: 9352.5점</title></rect><text x="243" y="158" font-size="10" fill="#cccccc">9352.5</text><text x="24" y="186" text-anchor="end" font-size="12" fill="#cccccc">금</text><rect x="28" y="170" width="191" height="22" rx="3" fill="#30a14e"><title>금: 8520.5점</title></rect><text x="224" y="186" font-size="10" fill="#cccccc">8520.5</text><text x="24" y="214" text-anchor="end" font-size="12" fill="#cccccc">토</text><rect x="28" y="198" width="255" height="22" rx="3" fill="#216e39"><title>토: 11384.0점</title></rect><text x="288" y="214" font-size="10" fill="#cccccc">11384.0</text>
<text x="28" y="254" font-size="9" fill="#999999">기준: 2026-06-07 16:46</text>
</svg>