<svg xmlns="http://www.w3.org/2000/svg" width="363" height="260">
<text x="181" y="18" text-anchor="middle" font-size="13" font-weight="bold" fill="#e0e0e0">최근 1달 요일별 활동</text>
<text x="24" y="46" text-anchor="end" font-size="12" fill="#cccccc">일</text><rect x="28" y="30" width="257" height="22" rx="3" fill="#216e39"><title>일: 40433.5점</title></rect><text x="290" y="46" font-size="10" fill="#cccccc">40433.5</text><text x="24" y="74" text-anchor="end" font-size="12" fill="#cccccc">월</text><rect x="28" y="58" width="188" height="22" rx="3" fill="#30a14e"><title>월: 29514.3점</title></rect><text x="221" y="74" font-size="10" fill="#cccccc">29514.3</text><text x="24" y="102" text-anchor="end" font-size="12" fill="#cccccc">화</text><rect x="28" y="86" width="280" height="22" rx="3" fill="#216e39"><title>화: 43948.1점</title></rect><text x="313" y="102" font-size="10" fill="#cccccc">43948.1</text><text x="24" y="130" text-anchor="end" font-size="12" fill="#cccccc">수</text><rect x="28" y="114" width="271" height="22" rx="3" fill="#216e39"><title>수: 42548.0점</title></rect><text x="304" y="130" font-size="10" fill="#cccccc">42548.0</text><text x="24" y="158" text-anchor="end" font-size="12" fill="#cccccc">목</text><rect x="28" y="142" width="163" height="22" rx="3" fill="#30a14e"><title>목: 25673.7점</title></rect><text x="196" y="158" font-size="10" fill="#cccccc">25673.7</text><text x="24" y="186" text-anchor="end" font-size="12" fill="#cccccc">금</text><rect x="28" y="170" width="168" height="22" rx="3" fill="#30a14e"><title>금: 26372.5점</title></rect><text x="201" y="186" font-size="10" fill="#cccccc">26372.5</text><text x="24" y="214" text-anchor="end" font-size="12" fill="#cccccc">토</text><rect x="28" y="198" width="243" height="22" rx="3" fill="#216e39"><title>토: 38187.9점</title></rect><text x="276" y="214" font-size="10" fill="#cccccc">38187.9</text>
<text x="28" y="254" font-size="9" fill="#999999">기준: 2026-07-02 04:32</text>
</svg>