<svg xmlns="http://www.w3.org/2000/svg" width="363" height="260">
<text x="181" y="18" text-anchor="middle" font-size="13" font-weight="bold" fill="#e0e0e0">최근 2주 요일별 활동</text>
<text x="24" y="46" text-anchor="end" font-size="12" fill="#cccccc">일</text><rect x="28" y="30" width="234" height="22" rx="3" fill="#216e39"><title>일: 5856.5점</title></rect><text x="267" y="46" font-size="10" fill="#cccccc">5856.5</text><text x="24" y="74" text-anchor="end" font-size="12" fill="#cccccc">월</text><rect x="28" y="58" width="130" height="22" rx="3" fill="#40c463"><title>월: 3254.2점</title></rect><text x="163" y="74" font-size="10" fill="#cccccc">3254.2</text><text x="24" y="102" text-anchor="end" font-size="12" fill="#cccccc">화</text><rect x="28" y="86" width="175" height="22" rx="3" fill="#30a14e"><title>화: 4396.8점</title></rect><text x="208" y="102" font-size="10" fill="#cccccc">4396.8</text><text x="24" y="130" text-anchor="end" font-size="12" fill="#cccccc">수</text><rect x="28" y="114" width="103" height="22" rx="3" fill="#40c463"><title>수: 2587.8점</title></rect><text x="136" y="130" font-size="10" fill="#cccccc">2587.8</text><text x="24" y="158" text-anchor="end" font-size="12" fill="#cccccc">목</text><rect x="28" y="142" width="88" height="22" rx="3" fill="#40c463"><title>목: 2211.0점</title></rect><text x="121" y="158" font-size="10" fill="#cccccc">2211.0</text><text x="24" y="186" text-anchor="end" font-size="12" fill="#cccccc">금</text><rect x="28" y="170" width="226" height="22" rx="3" fill="#216e39"><title>금: 5665.0점</title></rect><text x="259" y="186" font-size="10" fill="#cccccc">5665.0</text><text x="24" y="214" text-anchor="end" font-size="12" fill="#cccccc">토</text><rect x="28" y="198" width="280" height="22" rx="3" fill="#216e39"><title>토: 7007.0점</title></rect><text x="313" y="214" font-size="10" fill="#cccccc">7007.0</text>
<text x="28" y="254" font-size="9" fill="#999999">기준: 2026-06-11 20:38</text>
</svg>