<svg xmlns="http://www.w3.org/2000/svg" width="363" height="260">
<text x="181" y="18" text-anchor="middle" font-size="13" font-weight="bold" fill="#111111">최근 2주 요일별 활동</text>
<text x="24" y="46" text-anchor="end" font-size="12" fill="#333333">일</text><rect x="28" y="30" width="202" height="22" rx="3" fill="#30a14e"><title>일: 8333.1점</title></rect><text x="235" y="46" font-size="10" fill="#333333">8333.1</text><text x="24" y="74" text-anchor="end" font-size="12" fill="#333333">월</text><rect x="28" y="58" width="112" height="22" rx="3" fill="#40c463"><title>월: 4630.3점</title></rect><text x="145" y="74" font-size="10" fill="#333333">4630.3</text><text x="24" y="102" text-anchor="end" font-size="12" fill="#333333">화</text><rect x="28" y="86" width="280" height="22" rx="3" fill="#216e39"><title>화: 11526.0점</title></rect><text x="313" y="102" font-size="10" fill="#333333">11526.0</text><text x="24" y="130" text-anchor="end" font-size="12" fill="#333333">수</text><rect x="28" y="114" width="153" height="22" rx="3" fill="#30a14e"><title>수: 6327.7점</title></rect><text x="186" y="130" font-size="10" fill="#333333">6327.7</text><text x="24" y="158" text-anchor="end" font-size="12" fill="#333333">목</text><rect x="28" y="142" width="76" height="22" rx="3" fill="#40c463"><title>목: 3161.4점</title></rect><text x="109" y="158" font-size="10" fill="#333333">3161.4</text><text x="24" y="186" text-anchor="end" font-size="12" fill="#333333">금</text><rect x="28" y="170" width="68" height="22" rx="3" fill="#9be9a8"><title>금: 2806.7점</title></rect><text x="101" y="186" font-size="10" fill="#333333">2806.7</text><text x="24" y="214" text-anchor="end" font-size="12" fill="#333333">토</text><rect x="28" y="198" width="113" height="22" rx="3" fill="#40c463"><title>토: 4684.7점</title></rect><text x="146" y="214" font-size="10" fill="#333333">4684.7</text>
<text x="28" y="254" font-size="9" fill="#666666">기준: 2026-06-20 16:53</text>
</svg>