<svg xmlns="http://www.w3.org/2000/svg" width="363" height="260">
<text x="181" y="18" text-anchor="middle" font-size="13" font-weight="bold" fill="#111111">최근 1달 요일별 활동</text>
<text x="24" y="46" text-anchor="end" font-size="12" fill="#333333">일</text><rect x="28" y="30" width="265" height="22" rx="3" fill="#216e39"><title>일: 11316.8점</title></rect><text x="298" y="46" font-size="10" fill="#333333">11316.8</text><text x="24" y="74" text-anchor="end" font-size="12" fill="#333333">월</text><rect x="28" y="58" width="155" height="22" rx="3" fill="#30a14e"><title>월: 6657.4점</title></rect><text x="188" y="74" font-size="10" fill="#333333">6657.4</text><text x="24" y="102" text-anchor="end" font-size="12" fill="#333333">화</text><rect x="28" y="86" width="280" height="22" rx="3" fill="#216e39"><title>화: 11951.2점</title></rect><text x="313" y="102" font-size="10" fill="#333333">11951.2</text><text x="24" y="130" text-anchor="end" font-size="12" fill="#333333">수</text><rect x="28" y="114" width="226" height="22" rx="3" fill="#216e39"><title>수: 9665.1점</title></rect><text x="259" y="130" font-size="10" fill="#333333">9665.1</text><text x="24" y="158" text-anchor="end" font-size="12" fill="#333333">목</text><rect x="28" y="142" width="207" height="22" rx="3" fill="#30a14e"><title>목: 8857.5점</title></rect><text x="240" y="158" font-size="10" fill="#333333">8857.5</text><text x="24" y="186" text-anchor="end" font-size="12" fill="#333333">금</text><rect x="28" y="170" width="188" height="22" rx="3" fill="#30a14e"><title>금: 8025.5점</title></rect><text x="221" y="186" font-size="10" fill="#333333">8025.5</text><text x="24" y="214" text-anchor="end" font-size="12" fill="#333333">토</text><rect x="28" y="198" width="250" height="22" rx="3" fill="#216e39"><title>토: 10691.0점</title></rect><text x="283" y="214" font-size="10" fill="#333333">10691.0</text>
<text x="28" y="254" font-size="9" fill="#666666">기준: 2026-06-07 04:58</text>
</svg>