<svg xmlns="http://www.w3.org/2000/svg" width="363" height="260">
<text x="181" y="18" text-anchor="middle" font-size="13" font-weight="bold" fill="#111111">최근 2주 요일별 활동</text>
<text x="24" y="46" text-anchor="end" font-size="12" fill="#333333">일</text><rect x="28" y="30" width="206" height="22" rx="3" fill="#30a14e"><title>일: 5433.7점</title></rect><text x="239" y="46" font-size="10" fill="#333333">5433.7</text><text x="24" y="74" text-anchor="end" font-size="12" fill="#333333">월</text><rect x="28" y="58" width="102" height="22" rx="3" fill="#40c463"><title>월: 2708.1점</title></rect><text x="135" y="74" font-size="10" fill="#333333">2708.1</text><text x="24" y="102" text-anchor="end" font-size="12" fill="#333333">화</text><rect x="28" y="86" width="280" height="22" rx="3" fill="#216e39"><title>화: 7366.9점</title></rect><text x="313" y="102" font-size="10" fill="#333333">7366.9</text><text x="24" y="130" text-anchor="end" font-size="12" fill="#333333">수</text><rect x="28" y="114" width="132" height="22" rx="3" fill="#40c463"><title>수: 3485.1점</title></rect><text x="165" y="130" font-size="10" fill="#333333">3485.1</text><text x="24" y="158" text-anchor="end" font-size="12" fill="#333333">목</text><rect x="28" y="142" width="196" height="22" rx="3" fill="#30a14e"><title>목: 5170.0점</title></rect><text x="229" y="158" font-size="10" fill="#333333">5170.0</text><text x="24" y="186" text-anchor="end" font-size="12" fill="#333333">금</text><rect x="28" y="170" width="175" height="22" rx="3" fill="#30a14e"><title>금: 4620.0점</title></rect><text x="208" y="186" font-size="10" fill="#333333">4620.0</text><text x="24" y="214" text-anchor="end" font-size="12" fill="#333333">토</text><rect x="28" y="198" width="246" height="22" rx="3" fill="#216e39"><title>토: 6489.4점</title></rect><text x="279" y="214" font-size="10" fill="#333333">6489.4</text>
<text x="28" y="254" font-size="9" fill="#666666">기준: 2026-06-17 05:18</text>
</svg>