<svg xmlns="http://www.w3.org/2000/svg" width="363" height="260">
<text x="181" y="18" text-anchor="middle" font-size="13" font-weight="bold" fill="#e0e0e0">최근 1달 요일별 활동</text>
<text x="24" y="46" text-anchor="end" font-size="12" fill="#cccccc">일</text><rect x="28" y="30" width="207" height="22" rx="3" fill="#30a14e"><title>일: 6730.7점</title></rect><text x="240" y="46" font-size="10" fill="#cccccc">6730.7</text><text x="24" y="74" text-anchor="end" font-size="12" fill="#cccccc">월</text><rect x="28" y="58" width="119" height="22" rx="3" fill="#40c463"><title>월: 3879.8점</title></rect><text x="152" y="74" font-size="10" fill="#cccccc">3879.8</text><text x="24" y="102" text-anchor="end" font-size="12" fill="#cccccc">화</text><rect x="28" y="86" width="280" height="22" rx="3" fill="#216e39"><title>화: 9076.7점</title></rect><text x="313" y="102" font-size="10" fill="#cccccc">9076.7</text><text x="24" y="130" text-anchor="end" font-size="12" fill="#cccccc">수</text><rect x="28" y="114" width="274" height="22" rx="3" fill="#216e39"><title>수: 8910.0점</title></rect><text x="307" y="130" font-size="10" fill="#cccccc">8910.0</text><text x="24" y="158" text-anchor="end" font-size="12" fill="#cccccc">목</text><rect x="28" y="142" width="222" height="22" rx="3" fill="#216e39"><title>목: 7203.3점</title></rect><text x="255" y="158" font-size="10" fill="#cccccc">7203.3</text><text x="24" y="186" text-anchor="end" font-size="12" fill="#cccccc">금</text><rect x="28" y="170" width="168" height="22" rx="3" fill="#30a14e"><title>금: 5452.0점</title></rect><text x="201" y="186" font-size="10" fill="#cccccc">5452.0</text><text x="24" y="214" text-anchor="end" font-size="12" fill="#cccccc">토</text><rect x="28" y="198" width="105" height="22" rx="3" fill="#40c463"><title>토: 3430.6점</title></rect><text x="138" y="214" font-size="10" fill="#cccccc">3430.6</text>
<text x="28" y="254" font-size="9" fill="#999999">기준: 2026-05-27 22:52</text>
</svg>