<svg xmlns="http://www.w3.org/2000/svg" width="363" height="260">
<text x="181" y="18" text-anchor="middle" font-size="13" font-weight="bold" fill="#e0e0e0">최근 2주 요일별 활동</text>
<text x="24" y="46" text-anchor="end" font-size="12" fill="#cccccc">일</text><rect x="28" y="30" width="49" height="22" rx="3" fill="#9be9a8"><title>일: 5042.4점</title></rect><text x="82" y="46" font-size="10" fill="#cccccc">5042.4</text><text x="24" y="74" text-anchor="end" font-size="12" fill="#cccccc">월</text><rect x="28" y="58" width="46" height="22" rx="3" fill="#9be9a8"><title>월: 4702.1점</title></rect><text x="79" y="74" font-size="10" fill="#cccccc">4702.1</text><text x="24" y="102" text-anchor="end" font-size="12" fill="#cccccc">화</text><rect x="28" y="86" width="280" height="22" rx="3" fill="#216e39"><title>화: 28305.1점</title></rect><text x="313" y="102" font-size="10" fill="#cccccc">28305.1</text><text x="24" y="130" text-anchor="end" font-size="12" fill="#cccccc">수</text><rect x="28" y="114" width="269" height="22" rx="3" fill="#216e39"><title>수: 27292.7점</title></rect><text x="302" y="130" font-size="10" fill="#cccccc">27292.7</text><text x="24" y="158" text-anchor="end" font-size="12" fill="#cccccc">목</text><rect x="28" y="142" width="107" height="22" rx="3" fill="#40c463"><title>목: 10852.5점</title></rect><text x="140" y="158" font-size="10" fill="#cccccc">10852.5</text><text x="24" y="186" text-anchor="end" font-size="12" fill="#cccccc">금</text><rect x="28" y="170" width="90" height="22" rx="3" fill="#40c463"><title>금: 9178.9점</title></rect><text x="123" y="186" font-size="10" fill="#cccccc">9178.9</text><text x="24" y="214" text-anchor="end" font-size="12" fill="#cccccc">토</text><rect x="28" y="198" width="57" height="22" rx="3" fill="#9be9a8"><title>토: 5828.8점</title></rect><text x="90" y="214" font-size="10" fill="#cccccc">5828.8</text>
<text x="28" y="254" font-size="9" fill="#999999">기준: 2026-07-06 11:06</text>
</svg>