<svg xmlns="http://www.w3.org/2000/svg" width="363" height="260">
<text x="181" y="18" text-anchor="middle" font-size="13" font-weight="bold" fill="#111111">최근 1주 요일별 활동</text>
<text x="24" y="46" text-anchor="end" font-size="12" fill="#333333">일</text><rect x="28" y="30" width="280" height="22" rx="3" fill="#216e39"><title>일: 1960.3점</title></rect><text x="313" y="46" font-size="10" fill="#333333">1960.3</text><text x="24" y="74" text-anchor="end" font-size="12" fill="#333333">월</text><rect x="28" y="58" width="182" height="22" rx="3" fill="#30a14e"><title>월: 1275.3점</title></rect><text x="215" y="74" font-size="10" fill="#333333">1275.3</text><text x="24" y="102" text-anchor="end" font-size="12" fill="#333333">화</text><rect x="28" y="86" width="129" height="22" rx="3" fill="#40c463"><title>화: 906.3점</title></rect><text x="162" y="102" font-size="10" fill="#333333">906.3</text><text x="24" y="130" text-anchor="end" font-size="12" fill="#333333">수</text><rect x="28" y="114" width="130" height="22" rx="3" fill="#40c463"><title>수: 910.4점</title></rect><text x="163" y="130" font-size="10" fill="#333333">910.4</text><text x="24" y="158" text-anchor="end" font-size="12" fill="#333333">목</text><rect x="28" y="142" width="90" height="22" rx="3" fill="#40c463"><title>목: 631.4점</title></rect><text x="123" y="158" font-size="10" fill="#333333">631.4</text><text x="24" y="186" text-anchor="end" font-size="12" fill="#333333">금</text><rect x="28" y="170" width="74" height="22" rx="3" fill="#40c463"><title>금: 524.6점</title></rect><text x="107" y="186" font-size="10" fill="#333333">524.6</text><text x="24" y="214" text-anchor="end" font-size="12" fill="#333333">토</text><rect x="28" y="198" width="31" height="22" rx="3" fill="#9be9a8"><title>토: 218.5점</title></rect><text x="64" y="214" font-size="10" fill="#333333">218.5</text>
<text x="28" y="254" font-size="9" fill="#666666">기준: 2026-06-20 16:53</text>
</svg>