<svg xmlns="http://www.w3.org/2000/svg" width="363" height="260">
<text x="181" y="18" text-anchor="middle" font-size="13" font-weight="bold" fill="#111111">최근 1달 요일별 활동</text>
<text x="24" y="46" text-anchor="end" font-size="12" fill="#333333">일</text><rect x="28" y="30" width="262" height="22" rx="3" fill="#216e39"><title>일: 6610.3점</title></rect><text x="295" y="46" font-size="10" fill="#333333">6610.3</text><text x="24" y="74" text-anchor="end" font-size="12" fill="#333333">월</text><rect x="28" y="58" width="142" height="22" rx="3" fill="#30a14e"><title>월: 3582.5점</title></rect><text x="175" y="74" font-size="10" fill="#333333">3582.5</text><text x="24" y="102" text-anchor="end" font-size="12" fill="#333333">화</text><rect x="28" y="86" width="258" height="22" rx="3" fill="#216e39"><title>화: 6509.3점</title></rect><text x="291" y="102" font-size="10" fill="#333333">6509.3</text><text x="24" y="130" text-anchor="end" font-size="12" fill="#333333">수</text><rect x="28" y="114" width="248" height="22" rx="3" fill="#216e39"><title>수: 6244.5점</title></rect><text x="281" y="130" font-size="10" fill="#333333">6244.5</text><text x="24" y="158" text-anchor="end" font-size="12" fill="#333333">목</text><rect x="28" y="142" width="280" height="22" rx="3" fill="#216e39"><title>목: 7038.7점</title></rect><text x="313" y="158" font-size="10" fill="#333333">7038.7</text><text x="24" y="186" text-anchor="end" font-size="12" fill="#333333">금</text><rect x="28" y="170" width="269" height="22" rx="3" fill="#216e39"><title>금: 6768.6점</title></rect><text x="302" y="186" font-size="10" fill="#333333">6768.6</text><text x="24" y="214" text-anchor="end" font-size="12" fill="#333333">토</text><rect x="28" y="198" width="113" height="22" rx="3" fill="#40c463"><title>토: 2857.6점</title></rect><text x="146" y="214" font-size="10" fill="#333333">2857.6</text>
<text x="28" y="254" font-size="9" fill="#666666">기준: 2026-05-22 09:51</text>
</svg>