<svg xmlns="http://www.w3.org/2000/svg" width="363" height="260">
<text x="181" y="18" text-anchor="middle" font-size="13" font-weight="bold" fill="#e0e0e0">최근 1달 요일별 활동</text>
<text x="24" y="46" text-anchor="end" font-size="12" fill="#cccccc">일</text><rect x="28" y="30" width="280" height="22" rx="3" fill="#216e39"><title>일: 62927.1점</title></rect><text x="313" y="46" font-size="10" fill="#cccccc">62927.1</text><text x="24" y="74" text-anchor="end" font-size="12" fill="#cccccc">월</text><rect x="28" y="58" width="242" height="22" rx="3" fill="#216e39"><title>월: 54452.2점</title></rect><text x="275" y="74" font-size="10" fill="#cccccc">54452.2</text><text x="24" y="102" text-anchor="end" font-size="12" fill="#cccccc">화</text><rect x="28" y="86" width="242" height="22" rx="3" fill="#216e39"><title>화: 54539.0점</title></rect><text x="275" y="102" font-size="10" fill="#cccccc">54539.0</text><text x="24" y="130" text-anchor="end" font-size="12" fill="#cccccc">수</text><rect x="28" y="114" width="254" height="22" rx="3" fill="#216e39"><title>수: 57227.8점</title></rect><text x="287" y="130" font-size="10" fill="#cccccc">57227.8</text><text x="24" y="158" text-anchor="end" font-size="12" fill="#cccccc">목</text><rect x="28" y="142" width="130" height="22" rx="3" fill="#40c463"><title>목: 29299.3점</title></rect><text x="163" y="158" font-size="10" fill="#cccccc">29299.3</text><text x="24" y="186" text-anchor="end" font-size="12" fill="#cccccc">금</text><rect x="28" y="170" width="194" height="22" rx="3" fill="#30a14e"><title>금: 43792.0점</title></rect><text x="227" y="186" font-size="10" fill="#cccccc">43792.0</text><text x="24" y="214" text-anchor="end" font-size="12" fill="#cccccc">토</text><rect x="28" y="198" width="256" height="22" rx="3" fill="#216e39"><title>토: 57555.2점</title></rect><text x="289" y="214" font-size="10" fill="#cccccc">57555.2</text>
<text x="28" y="254" font-size="9" fill="#999999">기준: 2026-07-11 22:09</text>
</svg>