<svg xmlns="http://www.w3.org/2000/svg" width="363" height="260">
<text x="181" y="18" text-anchor="middle" font-size="13" font-weight="bold" fill="#e0e0e0">최근 2주 요일별 활동</text>
<text x="24" y="46" text-anchor="end" font-size="12" fill="#cccccc">일</text><rect x="28" y="30" width="52" height="22" rx="3" fill="#9be9a8"><title>일: 2326.8점</title></rect><text x="85" y="46" font-size="10" fill="#cccccc">2326.8</text><text x="24" y="74" text-anchor="end" font-size="12" fill="#cccccc">월</text><rect x="28" y="58" width="114" height="22" rx="3" fill="#40c463"><title>월: 5103.8점</title></rect><text x="147" y="74" font-size="10" fill="#cccccc">5103.8</text><text x="24" y="102" text-anchor="end" font-size="12" fill="#cccccc">화</text><rect x="28" y="86" width="280" height="22" rx="3" fill="#216e39"><title>화: 12457.9점</title></rect><text x="313" y="102" font-size="10" fill="#cccccc">12457.9</text><text x="24" y="130" text-anchor="end" font-size="12" fill="#cccccc">수</text><rect x="28" y="114" width="160" height="22" rx="3" fill="#30a14e"><title>수: 7141.2점</title></rect><text x="193" y="130" font-size="10" fill="#cccccc">7141.2</text><text x="24" y="158" text-anchor="end" font-size="12" fill="#cccccc">목</text><rect x="28" y="142" width="82" height="22" rx="3" fill="#40c463"><title>목: 3654.3점</title></rect><text x="115" y="158" font-size="10" fill="#cccccc">3654.3</text><text x="24" y="186" text-anchor="end" font-size="12" fill="#cccccc">금</text><rect x="28" y="170" width="78" height="22" rx="3" fill="#40c463"><title>금: 3491.9점</title></rect><text x="111" y="186" font-size="10" fill="#cccccc">3491.9</text><text x="24" y="214" text-anchor="end" font-size="12" fill="#cccccc">토</text><rect x="28" y="198" width="131" height="22" rx="3" fill="#40c463"><title>토: 5869.9점</title></rect><text x="164" y="214" font-size="10" fill="#cccccc">5869.9</text>
<text x="28" y="254" font-size="9" fill="#999999">기준: 2026-06-21 10:06</text>
</svg>