<svg xmlns="http://www.w3.org/2000/svg" width="363" height="260">
<text x="181" y="18" text-anchor="middle" font-size="13" font-weight="bold" fill="#e0e0e0">최근 1달 요일별 활동</text>
<text x="24" y="46" text-anchor="end" font-size="12" fill="#cccccc">일</text><rect x="28" y="30" width="237" height="22" rx="3" fill="#216e39"><title>일: 9086.5점</title></rect><text x="270" y="46" font-size="10" fill="#cccccc">9086.5</text><text x="24" y="74" text-anchor="end" font-size="12" fill="#cccccc">월</text><rect x="28" y="58" width="136" height="22" rx="3" fill="#40c463"><title>월: 5213.6점</title></rect><text x="169" y="74" font-size="10" fill="#cccccc">5213.6</text><text x="24" y="102" text-anchor="end" font-size="12" fill="#cccccc">화</text><rect x="28" y="86" width="254" height="22" rx="3" fill="#216e39"><title>화: 9760.1점</title></rect><text x="287" y="102" font-size="10" fill="#cccccc">9760.1</text><text x="24" y="130" text-anchor="end" font-size="12" fill="#cccccc">수</text><rect x="28" y="114" width="280" height="22" rx="3" fill="#216e39"><title>수: 10722.7점</title></rect><text x="313" y="130" font-size="10" fill="#cccccc">10722.7</text><text x="24" y="158" text-anchor="end" font-size="12" fill="#cccccc">목</text><rect x="28" y="142" width="243" height="22" rx="3" fill="#216e39"><title>목: 9322.2점</title></rect><text x="276" y="158" font-size="10" fill="#cccccc">9322.2</text><text x="24" y="186" text-anchor="end" font-size="12" fill="#cccccc">금</text><rect x="28" y="170" width="215" height="22" rx="3" fill="#216e39"><title>금: 8264.0점</title></rect><text x="248" y="186" font-size="10" fill="#cccccc">8264.0</text><text x="24" y="214" text-anchor="end" font-size="12" fill="#cccccc">토</text><rect x="28" y="198" width="218" height="22" rx="3" fill="#216e39"><title>토: 8381.0점</title></rect><text x="251" y="214" font-size="10" fill="#cccccc">8381.0</text>
<text x="28" y="254" font-size="9" fill="#999999">기준: 2026-06-04 22:47</text>
</svg>