<svg xmlns="http://www.w3.org/2000/svg" width="363" height="260">
<text x="181" y="18" text-anchor="middle" font-size="13" font-weight="bold" fill="#e0e0e0">최근 1달 요일별 활동</text>
<text x="24" y="46" text-anchor="end" font-size="12" fill="#cccccc">일</text><rect x="28" y="30" width="219" height="22" rx="3" fill="#216e39"><title>일: 38092.2점</title></rect><text x="252" y="46" font-size="10" fill="#cccccc">38092.2</text><text x="24" y="74" text-anchor="end" font-size="12" fill="#cccccc">월</text><rect x="28" y="58" width="158" height="22" rx="3" fill="#30a14e"><title>월: 27475.7점</title></rect><text x="191" y="74" font-size="10" fill="#cccccc">27475.7</text><text x="24" y="102" text-anchor="end" font-size="12" fill="#cccccc">화</text><rect x="28" y="86" width="280" height="22" rx="3" fill="#216e39"><title>화: 48526.8점</title></rect><text x="313" y="102" font-size="10" fill="#cccccc">48526.8</text><text x="24" y="130" text-anchor="end" font-size="12" fill="#cccccc">수</text><rect x="28" y="114" width="230" height="22" rx="3" fill="#216e39"><title>수: 39925.4점</title></rect><text x="263" y="130" font-size="10" fill="#cccccc">39925.4</text><text x="24" y="158" text-anchor="end" font-size="12" fill="#cccccc">목</text><rect x="28" y="142" width="140" height="22" rx="3" fill="#30a14e"><title>목: 24356.9점</title></rect><text x="173" y="158" font-size="10" fill="#cccccc">24356.9</text><text x="24" y="186" text-anchor="end" font-size="12" fill="#cccccc">금</text><rect x="28" y="170" width="143" height="22" rx="3" fill="#30a14e"><title>금: 24926.9점</title></rect><text x="176" y="186" font-size="10" fill="#cccccc">24926.9</text><text x="24" y="214" text-anchor="end" font-size="12" fill="#cccccc">토</text><rect x="28" y="198" width="209" height="22" rx="3" fill="#30a14e"><title>토: 36274.5점</title></rect><text x="242" y="214" font-size="10" fill="#cccccc">36274.5</text>
<text x="28" y="254" font-size="9" fill="#999999">기준: 2026-07-01 15:13</text>
</svg>