<svg xmlns="http://www.w3.org/2000/svg" width="439" height="181">
<text x="84" y="16" font-size="9" fill="#333333">2</text><text x="144" y="16" font-size="9" fill="#333333">3</text><text x="204" y="16" font-size="9" fill="#333333">4</text><text x="264" y="16" font-size="9" fill="#333333">5</text><text x="339" y="16" font-size="9" fill="#333333">6</text><text x="399" y="16" font-size="9" fill="#333333">7</text><text x="20" y="48" text-anchor="end" font-size="9" fill="#333333">월</text><text x="20" y="78" text-anchor="end" font-size="9" fill="#333333">수</text><text x="20" y="108" text-anchor="end" font-size="9" fill="#333333">금</text><rect x="24" y="22" width="13" height="13" rx="2" fill="#ebedf0"><title>2026-01-04 (0)</title></rect><rect x="24" y="37" width="13" height="13" rx="2" fill="#ebedf0"><title>2026-01-05 (0)</title></rect><rect x="24" y="52" width="13" height="13" rx="2" fill="#ebedf0"><title>2026-01-06 (0)</title></rect><rect x="24" y="67" width="13" height="13" rx="2" fill="#ebedf0"><title>2026-01-07 (0)</title></rect><rect x="24" y="82" width="13" height="13" rx="2" fill="#ebedf0"><title>2026-01-08 (0)</title></rect><rect x="24" y="97" width="13" height="13" rx="2" fill="#ebedf0"><title>2026-01-09 (0)</title></rect><rect x="24" y="112" width="13" height="13" rx="2" fill="#ebedf0"><title>2026-01-10 (0)</title></rect><rect x="39" y="22" width="13" height="13" rx="2" fill="#ebedf0"><title>2026-01-11 (0)</title></rect><rect x="39" y="37" width="13" height="13" rx="2" fill="#ebedf0"><title>2026-01-12 (0)</title></rect><rect x="39" y="52" width="13" height="13" rx="2" fill="#ebedf0"><title>2026-01-13 (0)</title></rect><rect x="39" y="67" width="13" height="13" rx="2" fill="#ebedf0"><title>2026-01-14 (0)</title></rect><rect x="39" y="82" width="13" height="13" rx="2" fill="#ebedf0"><title>2026-01-15 (0)</title></rect><rect x="39" y="97" width="13" height="13" rx="2" fill="#ebedf0"><title>2026-01-16 (0)</title></rect><rect x="39" y="112" width="13" height="13" rx="2" fill="#ebedf0"><title>2026-01-17 (0)</title></rect><rect x="54" y="22" width="13" height="13" rx="2" fill="#9be9a8"><title>2026-01-18 (3025.0)</title></rect><rect x="54" y="37" width="13" height="13" rx="2" fill="#ebedf0"><title>2026-01-19 (0)</title></rect><rect x="54" y="52" width="13" height="13" rx="2" fill="#ebedf0"><title>2026-01-20 (0)</title></rect><rect x="54" y="67" width="13" height="13" rx="2" fill="#9be9a8"><title>2026-01-21 (6050.0)</title></rect><rect x="54" y="82" width="13" height="13" rx="2" fill="#ebedf0"><title>2026-01-22 (0)</title></rect><rect x="54" y="97" width="13" height="13" rx="2" fill="#9be9a8"><title>2026-01-23 (4840.0)</title></rect><rect x="54" y="112" width="13" height="13" rx="2" fill="#40c463"><title>2026-01-24 (9075.0)</title></rect><rect x="69" y="22" width="13" height="13" rx="2" fill="#9be9a8"><title>2026-01-25 (6050.0)</title></rect><rect x="69" y="37" width="13" height="13" rx="2" fill="#9be9a8"><title>2026-01-26 (3025.0)</title></rect><rect x="69" y="52" width="13" height="13" rx="2" fill="#40c463"><title>2026-01-27 (10103.5)</title></rect><rect x="69" y="67" width="13" height="13" rx="2" fill="#ebedf0"><title>2026-01-28 (0)</title></rect><rect x="69" y="82" width="13" height="13" rx="2" fill="#ebedf0"><title>2026-01-29 (0)</title></rect><rect x="69" y="97" width="13" height="13" rx="2" fill="#40c463"><title>2026-01-30 (9075.0)</title></rect><rect x="69" y="112" width="13" height="13" rx="2" fill="#9be9a8"><title>2026-01-31 (6050.0)</title></rect><rect x="84" y="22" width="13" height="13" rx="2" fill="#9be9a8"><title>2026-02-01 (6050.0)</title></rect><rect x="84" y="37" width="13" height="13" rx="2" fill="#30a14e"><title>2026-02-02 (16863.0)</title></rect><rect x="84" y="52" width="13" height="13" rx="2" fill="#ebedf0"><title>2026-02-03 (0)</title></rect><rect x="84" y="67" width="13" height="13" rx="2" fill="#9be9a8"><title>2026-02-04 (621.5)</title></rect><rect x="84" y="82" width="13" height="13" rx="2" fill="#9be9a8"><title>2026-02-05 (6270.0)</title></rect><rect x="84" y="97" width="13" height="13" rx="2" fill="#40c463"><title>2026-02-06 (12193.5)</title></rect><rect x="84" y="112" width="13" height="13" rx="2" fill="#9be9a8"><title>2026-02-07 (3355.0)</title></rect><rect x="99" y="22" width="13" height="13" rx="2" fill="#9be9a8"><title>2026-02-08 (1226.5)</title></rect><rect x="99" y="37" width="13" height="13" rx="2" fill="#ebedf0"><title>2026-02-09 (0)</title></rect><rect x="99" y="52" width="13" height="13" rx="2" fill="#ebedf0"><title>2026-02-10 (0)</title></rect><rect x="99" y="67" width="13" height="13" rx="2" fill="#ebedf0"><title>2026-02-11 (0)</title></rect><rect x="99" y="82" width="13" height="13" rx="2" fill="#ebedf0"><title>2026-02-12 (0)</title></rect><rect x="99" y="97" width="13" height="13" rx="2" fill="#ebedf0"><title>2026-02-13 (0)</title></rect><rect x="99" y="112" width="13" height="13" rx="2" fill="#ebedf0"><title>2026-02-14 (0)</title></rect><rect x="114" y="22" width="13" height="13" rx="2" fill="#ebedf0"><title>2026-02-15 (0)</title></rect><rect x="114" y="37" width="13" height="13" rx="2" fill="#ebedf0"><title>2026-02-16 (0)</title></rect><rect x="114" y="52" width="13" height="13" rx="2" fill="#ebedf0"><title>2026-02-17 (0)</title></rect><rect x="114" y="67" width="13" height="13" rx="2" fill="#ebedf0"><title>2026-02-18 (0)</title></rect><rect x="114" y="82" width="13" height="13" rx="2" fill="#ebedf0"><title>2026-02-19 (0)</title></rect><rect x="114" y="97" width="13" height="13" rx="2" fill="#9be9a8"><title>2026-02-20 (4917.0)</title></rect><rect x="114" y="112" width="13" height="13" rx="2" fill="#ebedf0"><title>2026-02-21 (0)</title></rect><rect x="129" y="22" width="13" height="13" rx="2" fill="#ebedf0"><title>2026-02-22 (0)</title></rect><rect x="129" y="37" width="13" height="13" rx="2" fill="#ebedf0"><title>2026-02-23 (0)</title></rect><rect x="129" y="52" width="13" height="13" rx="2" fill="#ebedf0"><title>2026-02-24 (0)</title></rect><rect x="129" y="67" width="13" height="13" rx="2" fill="#ebedf0"><title>2026-02-25 (0)</title></rect><rect x="129" y="82" width="13" height="13" rx="2" fill="#9be9a8"><title>2026-02-26 (5945.5)</title></rect><rect x="129" y="97" width="13" height="13" rx="2" fill="#40c463"><title>2026-02-27 (14190.0)</title></rect><rect x="129" y="112" width="13" height="13" rx="2" fill="#9be9a8"><title>2026-02-28 (7557.0)</title></rect><rect x="144" y="22" width="13" height="13" rx="2" fill="#40c463"><title>2026-03-01 (9746.0)</title></rect><rect x="144" y="37" width="13" height="13" rx="2" fill="#9be9a8"><title>2026-03-02 (3327.5)</title></rect><rect x="144" y="52" width="13" height="13" rx="2" fill="#ebedf0"><title>2026-03-03 (0)</title></rect><rect x="144" y="67" width="13" height="13" rx="2" fill="#9be9a8"><title>2026-03-04 (3025.0)</title></rect><rect x="144" y="82" width="13" height="13" rx="2" fill="#9be9a8"><title>2026-03-05 (2585.1)</title></rect><rect x="144" y="97" width="13" height="13" rx="2" fill="#ebedf0"><title>2026-03-06 (0)</title></rect><rect x="144" y="112" width="13" height="13" rx="2" fill="#ebedf0"><title>2026-03-07 (0)</title></rect><rect x="159" y="22" width="13" height="13" rx="2" fill="#ebedf0"><title>2026-03-08 (0)</title></rect><rect x="159" y="37" width="13" height="13" rx="2" fill="#ebedf0"><title>2026-03-09 (0)</title></rect><rect x="159" y="52" width="13" height="13" rx="2" fill="#ebedf0"><title>2026-03-10 (0)</title></rect><rect x="159" y="67" width="13" height="13" rx="2" fill="#ebedf0"><title>2026-03-11 (0)</title></rect><rect x="159" y="82" width="13" height="13" rx="2" fill="#ebedf0"><title>2026-03-12 (0)</title></rect><rect x="159" y="97" width="13" height="13" rx="2" fill="#9be9a8"><title>2026-03-13 (4884.0)</title></rect><rect x="159" y="112" width="13" height="13" rx="2" fill="#9be9a8"><title>2026-03-14 (101.4)</title></rect><rect x="174" y="22" width="13" height="13" rx="2" fill="#ebedf0"><title>2026-03-15 (0)</title></rect><rect x="174" y="37" width="13" height="13" rx="2" fill="#9be9a8"><title>2026-03-16 (6330.5)</title></rect><rect x="174" y="52" width="13" height="13" rx="2" fill="#9be9a8"><title>2026-03-17 (5802.5)</title></rect><rect x="174" y="67" width="13" height="13" rx="2" fill="#9be9a8"><title>2026-03-18 (64.0)</title></rect><rect x="174" y="82" width="13" height="13" rx="2" fill="#9be9a8"><title>2026-03-19 (6072.0)</title></rect><rect x="174" y="97" width="13" height="13" rx="2" fill="#9be9a8"><title>2026-03-20 (3586.0)</title></rect><rect x="174" y="112" width="13" height="13" rx="2" fill="#ebedf0"><title>2026-03-21 (0)</title></rect><rect x="189" y="22" width="13" height="13" rx="2" fill="#ebedf0"><title>2026-03-22 (0)</title></rect><rect x="189" y="37" width="13" height="13" rx="2" fill="#40c463"><title>2026-03-23 (9075.0)</title></rect><rect x="189" y="52" width="13" height="13" rx="2" fill="#9be9a8"><title>2026-03-24 (61.8)</title></rect><rect x="189" y="67" width="13" height="13" rx="2" fill="#ebedf0"><title>2026-03-25 (0)</title></rect><rect x="189" y="82" width="13" height="13" rx="2" fill="#9be9a8"><title>2026-03-26 (3025.0)</title></rect><rect x="189" y="97" width="13" height="13" rx="2" fill="#30a14e"><title>2026-03-27 (15713.5)</title></rect><rect x="189" y="112" width="13" height="13" rx="2" fill="#40c463"><title>2026-03-28 (14113.0)</title></rect><rect x="204" y="22" width="13" height="13" rx="2" fill="#9be9a8"><title>2026-03-29 (3025.0)</title></rect><rect x="204" y="37" width="13" height="13" rx="2" fill="#9be9a8"><title>2026-03-30 (3481.5)</title></rect><rect x="204" y="52" width="13" height="13" rx="2" fill="#9be9a8"><title>2026-03-31 (599.5)</title></rect><rect x="204" y="67" width="13" height="13" rx="2" fill="#9be9a8"><title>2026-04-01 (55.0)</title></rect><rect x="204" y="82" width="13" height="13" rx="2" fill="#9be9a8"><title>2026-04-02 (1243.9)</title></rect><rect x="204" y="97" width="13" height="13" rx="2" fill="#ebedf0"><title>2026-04-03 (0)</title></rect><rect x="204" y="112" width="13" height="13" rx="2" fill="#ebedf0"><title>2026-04-04 (0)</title></rect><rect x="219" y="22" width="13" height="13" rx="2" fill="#ebedf0"><title>2026-04-05 (0)</title></rect><rect x="219" y="37" width="13" height="13" rx="2" fill="#ebedf0"><title>2026-04-06 (0)</title></rect><rect x="219" y="52" width="13" height="13" rx="2" fill="#9be9a8"><title>2026-04-07 (186.1)</title></rect><rect x="219" y="67" width="13" height="13" rx="2" fill="#ebedf0"><title>2026-04-08 (0)</title></rect><rect x="219" y="82" width="13" height="13" rx="2" fill="#9be9a8"><title>2026-04-09 (7.9)</title></rect><rect x="219" y="97" width="13" height="13" rx="2" fill="#9be9a8"><title>2026-04-10 (4818.4)</title></rect><rect x="219" y="112" width="13" height="13" rx="2" fill="#9be9a8"><title>2026-04-11 (25.5)</title></rect><rect x="234" y="22" width="13" height="13" rx="2" fill="#ebedf0"><title>2026-04-12 (0)</title></rect><rect x="234" y="37" width="13" height="13" rx="2" fill="#9be9a8"><title>2026-04-13 (1210.0)</title></rect><rect x="234" y="52" width="13" height="13" rx="2" fill="#9be9a8"><title>2026-04-14 (141.6)</title></rect><rect x="234" y="67" width="13" height="13" rx="2" fill="#9be9a8"><title>2026-04-15 (75.4)</title></rect><rect x="234" y="82" width="13" height="13" rx="2" fill="#ebedf0"><title>2026-04-16 (0)</title></rect><rect x="234" y="97" width="13" height="13" rx="2" fill="#40c463"><title>2026-04-17 (8757.9)</title></rect><rect x="234" y="112" width="13" height="13" rx="2" fill="#9be9a8"><title>2026-04-18 (6050.0)</title></rect><rect x="249" y="22" width="13" height="13" rx="2" fill="#40c463"><title>2026-04-19 (8517.6)</title></rect><rect x="249" y="37" width="13" height="13" rx="2" fill="#9be9a8"><title>2026-04-20 (795.2)</title></rect><rect x="249" y="52" width="13" height="13" rx="2" fill="#9be9a8"><title>2026-04-21 (91.0)</title></rect><rect x="249" y="67" width="13" height="13" rx="2" fill="#40c463"><title>2026-04-22 (14236.7)</title></rect><rect x="249" y="82" width="13" height="13" rx="2" fill="#9be9a8"><title>2026-04-23 (1908.3)</title></rect><rect x="249" y="97" width="13" height="13" rx="2" fill="#40c463"><title>2026-04-24 (13634.5)</title></rect><rect x="249" y="112" width="13" height="13" rx="2" fill="#30a14e"><title>2026-04-25 (20577.5)</title></rect><rect x="264" y="22" width="13" height="13" rx="2" fill="#30a14e"><title>2026-04-26 (20673.8)</title></rect><rect x="264" y="37" width="13" height="13" rx="2" fill="#9be9a8"><title>2026-04-27 (4642.6)</title></rect><rect x="264" y="52" width="13" height="13" rx="2" fill="#9be9a8"><title>2026-04-28 (1730.0)</title></rect><rect x="264" y="67" width="13" height="13" rx="2" fill="#9be9a8"><title>2026-04-29 (3867.7)</title></rect><rect x="264" y="82" width="13" height="13" rx="2" fill="#9be9a8"><title>2026-04-30 (2226.1)</title></rect><rect x="264" y="97" width="13" height="13" rx="2" fill="#9be9a8"><title>2026-05-01 (1148.0)</title></rect><rect x="264" y="112" width="13" height="13" rx="2" fill="#9be9a8"><title>2026-05-02 (131.6)</title></rect><rect x="279" y="22" width="13" height="13" rx="2" fill="#9be9a8"><title>2026-05-03 (6373.9)</title></rect><rect x="279" y="37" width="13" height="13" rx="2" fill="#9be9a8"><title>2026-05-04 (1934.6)</title></rect><rect x="279" y="52" width="13" height="13" rx="2" fill="#9be9a8"><title>2026-05-05 (2998.2)</title></rect><rect x="279" y="67" width="13" height="13" rx="2" fill="#9be9a8"><title>2026-05-06 (7108.3)</title></rect><rect x="279" y="82" width="13" height="13" rx="2" fill="#9be9a8"><title>2026-05-07 (2609.7)</title></rect><rect x="279" y="97" width="13" height="13" rx="2" fill="#9be9a8"><title>2026-05-08 (2218.5)</title></rect><rect x="279" y="112" width="13" height="13" rx="2" fill="#9be9a8"><title>2026-05-09 (980.5)</title></rect><rect x="294" y="22" width="13" height="13" rx="2" fill="#9be9a8"><title>2026-05-10 (3386.7)</title></rect><rect x="294" y="37" width="13" height="13" rx="2" fill="#9be9a8"><title>2026-05-11 (796.2)</title></rect><rect x="294" y="52" width="13" height="13" rx="2" fill="#9be9a8"><title>2026-05-12 (1566.5)</title></rect><rect x="294" y="67" width="13" height="13" rx="2" fill="#9be9a8"><title>2026-05-13 (308.1)</title></rect><rect x="294" y="82" width="13" height="13" rx="2" fill="#9be9a8"><title>2026-05-14 (387.5)</title></rect><rect x="294" y="97" width="13" height="13" rx="2" fill="#9be9a8"><title>2026-05-15 (2690.5)</title></rect><rect x="294" y="112" width="13" height="13" rx="2" fill="#9be9a8"><title>2026-05-16 (393.5)</title></rect><rect x="309" y="22" width="13" height="13" rx="2" fill="#9be9a8"><title>2026-05-17 (7241.2)</title></rect><rect x="309" y="37" width="13" height="13" rx="2" fill="#9be9a8"><title>2026-05-18 (2734.5)</title></rect><rect x="309" y="52" width="13" height="13" rx="2" fill="#30a14e"><title>2026-05-19 (17734.0)</title></rect><rect x="309" y="67" width="13" height="13" rx="2" fill="#40c463"><title>2026-05-20 (15484.4)</title></rect><rect x="309" y="82" width="13" height="13" rx="2" fill="#40c463"><title>2026-05-21 (14355.0)</title></rect><rect x="309" y="97" width="13" height="13" rx="2" fill="#40c463"><title>2026-05-22 (15235.0)</title></rect><rect x="309" y="112" width="13" height="13" rx="2" fill="#30a14e"><title>2026-05-23 (19250.0)</title></rect><rect x="324" y="22" width="13" height="13" rx="2" fill="#30a14e"><title>2026-05-24 (18701.0)</title></rect><rect x="324" y="37" width="13" height="13" rx="2" fill="#40c463"><title>2026-05-25 (13035.0)</title></rect><rect x="324" y="52" width="13" height="13" rx="2" fill="#40c463"><title>2026-05-26 (13616.8)</title></rect><rect x="324" y="67" width="13" height="13" rx="2" fill="#40c463"><title>2026-05-27 (13757.6)</title></rect><rect x="324" y="82" width="13" height="13" rx="2" fill="#40c463"><title>2026-05-28 (12865.2)</title></rect><rect x="324" y="97" width="13" height="13" rx="2" fill="#40c463"><title>2026-05-29 (14058.1)</title></rect><rect x="324" y="112" width="13" height="13" rx="2" fill="#30a14e"><title>2026-05-30 (16247.0)</title></rect><rect x="339" y="22" width="13" height="13" rx="2" fill="#40c463"><title>2026-05-31 (13497.0)</title></rect><rect x="339" y="37" width="13" height="13" rx="2" fill="#40c463"><title>2026-06-01 (9194.0)</title></rect><rect x="339" y="52" width="13" height="13" rx="2" fill="#40c463"><title>2026-06-02 (9238.2)</title></rect><rect x="339" y="67" width="13" height="13" rx="2" fill="#40c463"><title>2026-06-03 (8426.0)</title></rect><rect x="339" y="82" width="13" height="13" rx="2" fill="#40c463"><title>2026-06-04 (11490.4)</title></rect><rect x="339" y="97" width="13" height="13" rx="2" fill="#40c463"><title>2026-06-05 (10010.0)</title></rect><rect x="339" y="112" width="13" height="13" rx="2" fill="#40c463"><title>2026-06-06 (13552.0)</title></rect><rect x="354" y="22" width="13" height="13" rx="2" fill="#30a14e"><title>2026-06-07 (16089.8)</title></rect><rect x="354" y="37" width="13" height="13" rx="2" fill="#40c463"><title>2026-06-08 (9020.0)</title></rect><rect x="354" y="52" width="13" height="13" rx="2" fill="#216e39"><title>2026-06-09 (29862.1)</title></rect><rect x="354" y="67" width="13" height="13" rx="2" fill="#30a14e"><title>2026-06-10 (19130.7)</title></rect><rect x="354" y="82" width="13" height="13" rx="2" fill="#40c463"><title>2026-06-11 (8195.0)</title></rect><rect x="354" y="97" width="13" height="13" rx="2" fill="#40c463"><title>2026-06-12 (9343.8)</title></rect><rect x="354" y="112" width="13" height="13" rx="2" fill="#30a14e"><title>2026-06-13 (17122.9)</title></rect><rect x="369" y="22" width="13" height="13" rx="2" fill="#40c463"><title>2026-06-14 (9444.3)</title></rect><rect x="369" y="37" width="13" height="13" rx="2" fill="#9be9a8"><title>2026-06-15 (7803.4)</title></rect><rect x="369" y="52" width="13" height="13" rx="2" fill="#9be9a8"><title>2026-06-16 (5660.8)</title></rect><rect x="369" y="67" width="13" height="13" rx="2" fill="#40c463"><title>2026-06-17 (8143.1)</title></rect><rect x="369" y="82" width="13" height="13" rx="2" fill="#9be9a8"><title>2026-06-18 (7658.1)</title></rect><rect x="369" y="97" width="13" height="13" rx="2" fill="#40c463"><title>2026-06-19 (11106.8)</title></rect><rect x="369" y="112" width="13" height="13" rx="2" fill="#30a14e"><title>2026-06-20 (20306.2)</title></rect><rect x="384" y="22" width="13" height="13" rx="2" fill="#216e39"><title>2026-06-21 (31230.7)</title></rect><rect x="384" y="37" width="13" height="13" rx="2" fill="#216e39"><title>2026-06-22 (26025.1)</title></rect><rect x="384" y="52" width="13" height="13" rx="2" fill="#216e39"><title>2026-06-23 (28144.3)</title></rect><rect x="384" y="67" width="13" height="13" rx="2" fill="#216e39"><title>2026-06-24 (29184.9)</title></rect><rect x="384" y="82" width="13" height="13" rx="2" fill="#40c463"><title>2026-06-25 (10839.8)</title></rect><rect x="384" y="97" width="13" height="13" rx="2" fill="#40c463"><title>2026-06-26 (9645.1)</title></rect><rect x="384" y="112" width="13" height="13" rx="2" fill="#9be9a8"><title>2026-06-27 (5384.4)</title></rect><rect x="399" y="22" width="13" height="13" rx="2" fill="#9be9a8"><title>2026-06-28 (5910.7)</title></rect><rect x="399" y="37" width="13" height="13" rx="2" fill="#9be9a8"><title>2026-06-29 (6032.1)</title></rect><rect x="399" y="52" width="13" height="13" rx="2" fill="#9be9a8"><title>2026-06-30 (5250.0)</title></rect><rect x="399" y="67" width="13" height="13" rx="2" fill="#9be9a8"><title>2026-07-01 (3205.4)</title></rect><rect x="399" y="82" width="13" height="13" rx="2" fill="#9be9a8"><title>2026-07-02 (2541.4)</title></rect><rect x="399" y="97" width="13" height="13" rx="2" fill="#9be9a8"><title>2026-07-03 (1947.0)</title></rect><rect x="399" y="112" width="13" height="13" rx="2" fill="#9be9a8"><title>2026-07-04 (2931.7)</title></rect><rect x="414" y="22" width="13" height="13" rx="2" fill="#9be9a8"><title>2026-07-05 (1342.4)</title></rect><rect x="414" y="37" width="13" height="13" rx="2" fill="#9be9a8"><title>2026-07-06 (670.0)</title></rect><rect x="414" y="52" width="13" height="13" rx="2" fill="#9be9a8"><title>2026-07-07 (472.9)</title></rect><rect x="414" y="67" width="13" height="13" rx="2" fill="#9be9a8"><title>2026-07-08 (105.1)</title></rect><text x="24" y="145" font-size="9" fill="#333333">적음</text><rect x="52" y="135" width="13" height="13" rx="2" fill="#ebedf0"/><rect x="67" y="135" width="13" height="13" rx="2" fill="#9be9a8"/><rect x="82" y="135" width="13" height="13" rx="2" fill="#40c463"/><rect x="97" y="135" width="13" height="13" rx="2" fill="#30a14e"/><rect x="112" y="135" width="13" height="13" rx="2" fill="#216e39"/><text x="131" y="145" font-size="9" fill="#333333">많음</text><text x="24" y="163" font-size="9" fill="#333333">기준: 2026-07-08 14:42</text>
</svg>