<svg xmlns="http://www.w3.org/2000/svg" width="363" height="260">
<text x="181" y="18" text-anchor="middle" font-size="13" font-weight="bold" fill="#e0e0e0">최근 1주 요일별 활동</text>
<text x="24" y="46" text-anchor="end" font-size="12" fill="#cccccc">일</text><rect x="28" y="30" width="269" height="22" rx="3" fill="#216e39"><title>일: 2127.5점</title></rect><text x="302" y="46" font-size="10" fill="#cccccc">2127.5</text><text x="24" y="74" text-anchor="end" font-size="12" fill="#cccccc">월</text><rect x="28" y="58" width="111" height="22" rx="3" fill="#40c463"><title>월: 880.0점</title></rect><text x="144" y="74" font-size="10" fill="#cccccc">880.0</text><text x="24" y="102" text-anchor="end" font-size="12" fill="#cccccc">화</text><rect x="28" y="86" width="280" height="22" rx="3" fill="#216e39"><title>화: 2212.7점</title></rect><text x="313" y="102" font-size="10" fill="#cccccc">2212.7</text><text x="24" y="130" text-anchor="end" font-size="12" fill="#cccccc">수</text><rect x="28" y="114" width="85" height="22" rx="3" fill="#40c463"><title>수: 673.8점</title></rect><text x="118" y="130" font-size="10" fill="#cccccc">673.8</text><text x="24" y="158" text-anchor="end" font-size="12" fill="#cccccc">목</text><rect x="28" y="142" width="8" height="22" rx="3" fill="#9be9a8"><title>목: 66.0점</title></rect><text x="41" y="158" font-size="10" fill="#cccccc">66.0</text><text x="24" y="186" text-anchor="end" font-size="12" fill="#cccccc">금</text><rect x="28" y="170" width="236" height="22" rx="3" fill="#216e39"><title>금: 1870.0점</title></rect><text x="269" y="186" font-size="10" fill="#cccccc">1870.0</text><text x="24" y="214" text-anchor="end" font-size="12" fill="#cccccc">토</text><rect x="28" y="198" width="272" height="22" rx="3" fill="#216e39"><title>토: 2156.0점</title></rect><text x="305" y="214" font-size="10" fill="#cccccc">2156.0</text>
<text x="28" y="254" font-size="9" fill="#999999">기준: 2026-06-11 20:38</text>
</svg>