<svg xmlns="http://www.w3.org/2000/svg" width="439" height="181">
<text x="39" y="16" font-size="9" fill="#333333">1</text><text x="114" y="16" font-size="9" fill="#333333">2</text><text x="174" y="16" font-size="9" fill="#333333">3</text><text x="234" y="16" font-size="9" fill="#333333">4</text><text x="294" y="16" font-size="9" fill="#333333">5</text><text x="369" y="16" font-size="9" fill="#333333">6</text><text x="20" y="48" text-anchor="end" font-size="9" fill="#333333">월</text><text x="20" y="78" text-anchor="end" font-size="9" fill="#333333">수</text><text x="20" y="108" text-anchor="end" font-size="9" fill="#333333">금</text><rect x="24" y="22" width="13" height="13" rx="2" fill="#ebedf0"><title>2025-12-21 (0)</title></rect><rect x="24" y="37" width="13" height="13" rx="2" fill="#ebedf0"><title>2025-12-22 (0)</title></rect><rect x="24" y="52" width="13" height="13" rx="2" fill="#ebedf0"><title>2025-12-23 (0)</title></rect><rect x="24" y="67" width="13" height="13" rx="2" fill="#30a14e"><title>2025-12-24 (10209.9)</title></rect><rect x="24" y="82" width="13" height="13" rx="2" fill="#ebedf0"><title>2025-12-25 (0)</title></rect><rect x="24" y="97" width="13" height="13" rx="2" fill="#ebedf0"><title>2025-12-26 (0)</title></rect><rect x="24" y="112" width="13" height="13" rx="2" fill="#ebedf0"><title>2025-12-27 (0)</title></rect><rect x="39" y="22" width="13" height="13" rx="2" fill="#ebedf0"><title>2025-12-28 (0)</title></rect><rect x="39" y="37" width="13" height="13" rx="2" fill="#ebedf0"><title>2025-12-29 (0)</title></rect><rect x="39" y="52" width="13" height="13" rx="2" fill="#ebedf0"><title>2025-12-30 (0)</title></rect><rect x="39" y="67" width="13" height="13" rx="2" fill="#ebedf0"><title>2025-12-31 (0)</title></rect><rect x="39" y="82" width="13" height="13" rx="2" fill="#ebedf0"><title>2026-01-01 (0)</title></rect><rect x="39" y="97" width="13" height="13" rx="2" fill="#ebedf0"><title>2026-01-02 (0)</title></rect><rect x="39" y="112" width="13" height="13" rx="2" fill="#ebedf0"><title>2026-01-03 (0)</title></rect><rect x="54" y="22" width="13" height="13" rx="2" fill="#ebedf0"><title>2026-01-04 (0)</title></rect><rect x="54" y="37" width="13" height="13" rx="2" fill="#ebedf0"><title>2026-01-05 (0)</title></rect><rect x="54" y="52" width="13" height="13" rx="2" fill="#ebedf0"><title>2026-01-06 (0)</title></rect><rect x="54" y="67" width="13" height="13" rx="2" fill="#ebedf0"><title>2026-01-07 (0)</title></rect><rect x="54" y="82" width="13" height="13" rx="2" fill="#ebedf0"><title>2026-01-08 (0)</title></rect><rect x="54" y="97" width="13" height="13" rx="2" fill="#ebedf0"><title>2026-01-09 (0)</title></rect><rect x="54" y="112" width="13" height="13" rx="2" fill="#ebedf0"><title>2026-01-10 (0)</title></rect><rect x="69" y="22" width="13" height="13" rx="2" fill="#ebedf0"><title>2026-01-11 (0)</title></rect><rect x="69" y="37" width="13" height="13" rx="2" fill="#ebedf0"><title>2026-01-12 (0)</title></rect><rect x="69" y="52" width="13" height="13" rx="2" fill="#ebedf0"><title>2026-01-13 (0)</title></rect><rect x="69" y="67" width="13" height="13" rx="2" fill="#ebedf0"><title>2026-01-14 (0)</title></rect><rect x="69" y="82" width="13" height="13" rx="2" fill="#ebedf0"><title>2026-01-15 (0)</title></rect><rect x="69" y="97" width="13" height="13" rx="2" fill="#ebedf0"><title>2026-01-16 (0)</title></rect><rect x="69" y="112" width="13" height="13" rx="2" fill="#ebedf0"><title>2026-01-17 (0)</title></rect><rect x="84" y="22" width="13" height="13" rx="2" fill="#9be9a8"><title>2026-01-18 (2332.0)</title></rect><rect x="84" y="37" width="13" height="13" rx="2" fill="#ebedf0"><title>2026-01-19 (0)</title></rect><rect x="84" y="52" width="13" height="13" rx="2" fill="#ebedf0"><title>2026-01-20 (0)</title></rect><rect x="84" y="67" width="13" height="13" rx="2" fill="#40c463"><title>2026-01-21 (4664.0)</title></rect><rect x="84" y="82" width="13" height="13" rx="2" fill="#ebedf0"><title>2026-01-22 (0)</title></rect><rect x="84" y="97" width="13" height="13" rx="2" fill="#9be9a8"><title>2026-01-23 (3731.2)</title></rect><rect x="84" y="112" width="13" height="13" rx="2" fill="#40c463"><title>2026-01-24 (6996.0)</title></rect><rect x="99" y="22" width="13" height="13" rx="2" fill="#40c463"><title>2026-01-25 (4664.0)</title></rect><rect x="99" y="37" width="13" height="13" rx="2" fill="#9be9a8"><title>2026-01-26 (2332.0)</title></rect><rect x="99" y="52" width="13" height="13" rx="2" fill="#40c463"><title>2026-01-27 (7788.9)</title></rect><rect x="99" y="67" width="13" height="13" rx="2" fill="#ebedf0"><title>2026-01-28 (0)</title></rect><rect x="99" y="82" width="13" height="13" rx="2" fill="#ebedf0"><title>2026-01-29 (0)</title></rect><rect x="99" y="97" width="13" height="13" rx="2" fill="#40c463"><title>2026-01-30 (6996.0)</title></rect><rect x="99" y="112" width="13" height="13" rx="2" fill="#40c463"><title>2026-01-31 (4664.0)</title></rect><rect x="114" y="22" width="13" height="13" rx="2" fill="#40c463"><title>2026-02-01 (4664.0)</title></rect><rect x="114" y="37" width="13" height="13" rx="2" fill="#30a14e"><title>2026-02-02 (12999.8)</title></rect><rect x="114" y="52" width="13" height="13" rx="2" fill="#ebedf0"><title>2026-02-03 (0)</title></rect><rect x="114" y="67" width="13" height="13" rx="2" fill="#9be9a8"><title>2026-02-04 (479.1)</title></rect><rect x="114" y="82" width="13" height="13" rx="2" fill="#40c463"><title>2026-02-05 (4833.6)</title></rect><rect x="114" y="97" width="13" height="13" rx="2" fill="#30a14e"><title>2026-02-06 (9400.1)</title></rect><rect x="114" y="112" width="13" height="13" rx="2" fill="#9be9a8"><title>2026-02-07 (2586.4)</title></rect><rect x="129" y="22" width="13" height="13" rx="2" fill="#9be9a8"><title>2026-02-08 (945.5)</title></rect><rect x="129" y="37" width="13" height="13" rx="2" fill="#ebedf0"><title>2026-02-09 (0)</title></rect><rect x="129" y="52" width="13" height="13" rx="2" fill="#ebedf0"><title>2026-02-10 (0)</title></rect><rect x="129" y="67" width="13" height="13" rx="2" fill="#ebedf0"><title>2026-02-11 (0)</title></rect><rect x="129" y="82" width="13" height="13" rx="2" fill="#ebedf0"><title>2026-02-12 (0)</title></rect><rect x="129" y="97" width="13" height="13" rx="2" fill="#ebedf0"><title>2026-02-13 (0)</title></rect><rect x="129" y="112" width="13" height="13" rx="2" fill="#ebedf0"><title>2026-02-14 (0)</title></rect><rect x="144" y="22" width="13" height="13" rx="2" fill="#ebedf0"><title>2026-02-15 (0)</title></rect><rect x="144" y="37" width="13" height="13" rx="2" fill="#ebedf0"><title>2026-02-16 (0)</title></rect><rect x="144" y="52" width="13" height="13" rx="2" fill="#ebedf0"><title>2026-02-17 (0)</title></rect><rect x="144" y="67" width="13" height="13" rx="2" fill="#ebedf0"><title>2026-02-18 (0)</title></rect><rect x="144" y="82" width="13" height="13" rx="2" fill="#ebedf0"><title>2026-02-19 (0)</title></rect><rect x="144" y="97" width="13" height="13" rx="2" fill="#9be9a8"><title>2026-02-20 (3790.6)</title></rect><rect x="144" y="112" width="13" height="13" rx="2" fill="#ebedf0"><title>2026-02-21 (0)</title></rect><rect x="159" y="22" width="13" height="13" rx="2" fill="#ebedf0"><title>2026-02-22 (0)</title></rect><rect x="159" y="37" width="13" height="13" rx="2" fill="#ebedf0"><title>2026-02-23 (0)</title></rect><rect x="159" y="52" width="13" height="13" rx="2" fill="#ebedf0"><title>2026-02-24 (0)</title></rect><rect x="159" y="67" width="13" height="13" rx="2" fill="#ebedf0"><title>2026-02-25 (0)</title></rect><rect x="159" y="82" width="13" height="13" rx="2" fill="#40c463"><title>2026-02-26 (4583.4)</title></rect><rect x="159" y="97" width="13" height="13" rx="2" fill="#30a14e"><title>2026-02-27 (10939.2)</title></rect><rect x="159" y="112" width="13" height="13" rx="2" fill="#40c463"><title>2026-02-28 (5825.8)</title></rect><rect x="174" y="22" width="13" height="13" rx="2" fill="#40c463"><title>2026-03-01 (7513.3)</title></rect><rect x="174" y="37" width="13" height="13" rx="2" fill="#9be9a8"><title>2026-03-02 (2565.2)</title></rect><rect x="174" y="52" width="13" height="13" rx="2" fill="#ebedf0"><title>2026-03-03 (0)</title></rect><rect x="174" y="67" width="13" height="13" rx="2" fill="#9be9a8"><title>2026-03-04 (2332.0)</title></rect><rect x="174" y="82" width="13" height="13" rx="2" fill="#9be9a8"><title>2026-03-05 (1034.0)</title></rect><rect x="174" y="97" width="13" height="13" rx="2" fill="#ebedf0"><title>2026-03-06 (0)</title></rect><rect x="174" y="112" width="13" height="13" rx="2" fill="#ebedf0"><title>2026-03-07 (0)</title></rect><rect x="189" y="22" width="13" height="13" rx="2" fill="#ebedf0"><title>2026-03-08 (0)</title></rect><rect x="189" y="37" width="13" height="13" rx="2" fill="#ebedf0"><title>2026-03-09 (0)</title></rect><rect x="189" y="52" width="13" height="13" rx="2" fill="#ebedf0"><title>2026-03-10 (0)</title></rect><rect x="189" y="67" width="13" height="13" rx="2" fill="#ebedf0"><title>2026-03-11 (0)</title></rect><rect x="189" y="82" width="13" height="13" rx="2" fill="#ebedf0"><title>2026-03-12 (0)</title></rect><rect x="189" y="97" width="13" height="13" rx="2" fill="#9be9a8"><title>2026-03-13 (3777.7)</title></rect><rect x="189" y="112" width="13" height="13" rx="2" fill="#9be9a8"><title>2026-03-14 (101.4)</title></rect><rect x="204" y="22" width="13" height="13" rx="2" fill="#ebedf0"><title>2026-03-15 (0)</title></rect><rect x="204" y="37" width="13" height="13" rx="2" fill="#40c463"><title>2026-03-16 (4880.2)</title></rect><rect x="204" y="52" width="13" height="13" rx="2" fill="#9be9a8"><title>2026-03-17 (4473.2)</title></rect><rect x="204" y="67" width="13" height="13" rx="2" fill="#9be9a8"><title>2026-03-18 (64.0)</title></rect><rect x="204" y="82" width="13" height="13" rx="2" fill="#40c463"><title>2026-03-19 (4686.0)</title></rect><rect x="204" y="97" width="13" height="13" rx="2" fill="#9be9a8"><title>2026-03-20 (2764.5)</title></rect><rect x="204" y="112" width="13" height="13" rx="2" fill="#ebedf0"><title>2026-03-21 (0)</title></rect><rect x="219" y="22" width="13" height="13" rx="2" fill="#ebedf0"><title>2026-03-22 (0)</title></rect><rect x="219" y="37" width="13" height="13" rx="2" fill="#40c463"><title>2026-03-23 (6996.0)</title></rect><rect x="219" y="52" width="13" height="13" rx="2" fill="#9be9a8"><title>2026-03-24 (61.8)</title></rect><rect x="219" y="67" width="13" height="13" rx="2" fill="#ebedf0"><title>2026-03-25 (0)</title></rect><rect x="219" y="82" width="13" height="13" rx="2" fill="#9be9a8"><title>2026-03-26 (2332.0)</title></rect><rect x="219" y="97" width="13" height="13" rx="2" fill="#30a14e"><title>2026-03-27 (12113.7)</title></rect><rect x="219" y="112" width="13" height="13" rx="2" fill="#30a14e"><title>2026-03-28 (10879.8)</title></rect><rect x="234" y="22" width="13" height="13" rx="2" fill="#9be9a8"><title>2026-03-29 (2332.0)</title></rect><rect x="234" y="37" width="13" height="13" rx="2" fill="#9be9a8"><title>2026-03-30 (2683.9)</title></rect><rect x="234" y="52" width="13" height="13" rx="2" fill="#9be9a8"><title>2026-03-31 (462.2)</title></rect><rect x="234" y="67" width="13" height="13" rx="2" fill="#9be9a8"><title>2026-04-01 (55.0)</title></rect><rect x="234" y="82" width="13" height="13" rx="2" fill="#9be9a8"><title>2026-04-02 (550.9)</title></rect><rect x="234" y="97" width="13" height="13" rx="2" fill="#ebedf0"><title>2026-04-03 (0)</title></rect><rect x="234" y="112" width="13" height="13" rx="2" fill="#ebedf0"><title>2026-04-04 (0)</title></rect><rect x="249" y="22" width="13" height="13" rx="2" fill="#ebedf0"><title>2026-04-05 (0)</title></rect><rect x="249" y="37" width="13" height="13" rx="2" fill="#ebedf0"><title>2026-04-06 (0)</title></rect><rect x="249" y="52" width="13" height="13" rx="2" fill="#9be9a8"><title>2026-04-07 (186.1)</title></rect><rect x="249" y="67" width="13" height="13" rx="2" fill="#ebedf0"><title>2026-04-08 (0)</title></rect><rect x="249" y="82" width="13" height="13" rx="2" fill="#9be9a8"><title>2026-04-09 (7.9)</title></rect><rect x="249" y="97" width="13" height="13" rx="2" fill="#9be9a8"><title>2026-04-10 (3049.4)</title></rect><rect x="249" y="112" width="13" height="13" rx="2" fill="#9be9a8"><title>2026-04-11 (25.5)</title></rect><rect x="264" y="22" width="13" height="13" rx="2" fill="#ebedf0"><title>2026-04-12 (0)</title></rect><rect x="264" y="37" width="13" height="13" rx="2" fill="#9be9a8"><title>2026-04-13 (517.0)</title></rect><rect x="264" y="52" width="13" height="13" rx="2" fill="#9be9a8"><title>2026-04-14 (141.6)</title></rect><rect x="264" y="67" width="13" height="13" rx="2" fill="#9be9a8"><title>2026-04-15 (75.4)</title></rect><rect x="264" y="82" width="13" height="13" rx="2" fill="#ebedf0"><title>2026-04-16 (0)</title></rect><rect x="264" y="97" width="13" height="13" rx="2" fill="#40c463"><title>2026-04-17 (6782.2)</title></rect><rect x="264" y="112" width="13" height="13" rx="2" fill="#40c463"><title>2026-04-18 (4664.0)</title></rect><rect x="279" y="22" width="13" height="13" rx="2" fill="#9be9a8"><title>2026-04-19 (3407.0)</title></rect><rect x="279" y="37" width="13" height="13" rx="2" fill="#9be9a8"><title>2026-04-20 (795.2)</title></rect><rect x="279" y="52" width="13" height="13" rx="2" fill="#9be9a8"><title>2026-04-21 (91.0)</title></rect><rect x="279" y="67" width="13" height="13" rx="2" fill="#40c463"><title>2026-04-22 (5850.1)</title></rect><rect x="279" y="82" width="13" height="13" rx="2" fill="#9be9a8"><title>2026-04-23 (1720.6)</title></rect><rect x="279" y="97" width="13" height="13" rx="2" fill="#40c463"><title>2026-04-24 (7260.2)</title></rect><rect x="279" y="112" width="13" height="13" rx="2" fill="#40c463"><title>2026-04-25 (9042.2)</title></rect><rect x="294" y="22" width="13" height="13" rx="2" fill="#30a14e"><title>2026-04-26 (9817.6)</title></rect><rect x="294" y="37" width="13" height="13" rx="2" fill="#9be9a8"><title>2026-04-27 (2266.2)</title></rect><rect x="294" y="52" width="13" height="13" rx="2" fill="#9be9a8"><title>2026-04-28 (1730.0)</title></rect><rect x="294" y="67" width="13" height="13" rx="2" fill="#9be9a8"><title>2026-04-29 (3867.7)</title></rect><rect x="294" y="82" width="13" height="13" rx="2" fill="#9be9a8"><title>2026-04-30 (2226.1)</title></rect><rect x="294" y="97" width="13" height="13" rx="2" fill="#9be9a8"><title>2026-05-01 (1148.0)</title></rect><rect x="294" y="112" width="13" height="13" rx="2" fill="#9be9a8"><title>2026-05-02 (131.6)</title></rect><rect x="309" y="22" width="13" height="13" rx="2" fill="#40c463"><title>2026-05-03 (5447.8)</title></rect><rect x="309" y="37" width="13" height="13" rx="2" fill="#9be9a8"><title>2026-05-04 (1934.6)</title></rect><rect x="309" y="52" width="13" height="13" rx="2" fill="#9be9a8"><title>2026-05-05 (2998.2)</title></rect><rect x="309" y="67" width="13" height="13" rx="2" fill="#40c463"><title>2026-05-06 (5743.7)</title></rect><rect x="309" y="82" width="13" height="13" rx="2" fill="#9be9a8"><title>2026-05-07 (2609.7)</title></rect><rect x="309" y="97" width="13" height="13" rx="2" fill="#9be9a8"><title>2026-05-08 (2218.5)</title></rect><rect x="309" y="112" width="13" height="13" rx="2" fill="#9be9a8"><title>2026-05-09 (980.5)</title></rect><rect x="324" y="22" width="13" height="13" rx="2" fill="#9be9a8"><title>2026-05-10 (1935.2)</title></rect><rect x="324" y="37" width="13" height="13" rx="2" fill="#9be9a8"><title>2026-05-11 (796.2)</title></rect><rect x="324" y="52" width="13" height="13" rx="2" fill="#9be9a8"><title>2026-05-12 (1391.4)</title></rect><rect x="324" y="67" width="13" height="13" rx="2" fill="#9be9a8"><title>2026-05-13 (308.1)</title></rect><rect x="324" y="82" width="13" height="13" rx="2" fill="#9be9a8"><title>2026-05-14 (387.5)</title></rect><rect x="324" y="97" width="13" height="13" rx="2" fill="#9be9a8"><title>2026-05-15 (1304.5)</title></rect><rect x="324" y="112" width="13" height="13" rx="2" fill="#9be9a8"><title>2026-05-16 (393.5)</title></rect><rect x="339" y="22" width="13" height="13" rx="2" fill="#40c463"><title>2026-05-17 (5579.3)</title></rect><rect x="339" y="37" width="13" height="13" rx="2" fill="#9be9a8"><title>2026-05-18 (2105.8)</title></rect><rect x="339" y="52" width="13" height="13" rx="2" fill="#216e39"><title>2026-05-19 (13612.6)</title></rect><rect x="339" y="67" width="13" height="13" rx="2" fill="#30a14e"><title>2026-05-20 (11817.8)</title></rect><rect x="339" y="82" width="13" height="13" rx="2" fill="#30a14e"><title>2026-05-21 (10890.0)</title></rect><rect x="339" y="97" width="13" height="13" rx="2" fill="#30a14e"><title>2026-05-22 (11077.0)</title></rect><rect x="339" y="112" width="13" height="13" rx="2" fill="#216e39"><title>2026-05-23 (14399.0)</title></rect><rect x="354" y="22" width="13" height="13" rx="2" fill="#216e39"><title>2026-05-24 (13850.0)</title></rect><rect x="354" y="37" width="13" height="13" rx="2" fill="#30a14e"><title>2026-05-25 (9570.0)</title></rect><rect x="354" y="52" width="13" height="13" rx="2" fill="#30a14e"><title>2026-05-26 (9637.7)</title></rect><rect x="354" y="67" width="13" height="13" rx="2" fill="#30a14e"><title>2026-05-27 (9529.0)</title></rect><rect x="354" y="82" width="13" height="13" rx="2" fill="#40c463"><title>2026-05-28 (9007.1)</title></rect><rect x="354" y="97" width="13" height="13" rx="2" fill="#30a14e"><title>2026-05-29 (9319.2)</title></rect><rect x="354" y="112" width="13" height="13" rx="2" fill="#30a14e"><title>2026-05-30 (11396.0)</title></rect><rect x="369" y="22" width="13" height="13" rx="2" fill="#30a14e"><title>2026-05-31 (9339.0)</title></rect><rect x="369" y="37" width="13" height="13" rx="2" fill="#40c463"><title>2026-06-01 (6291.0)</title></rect><rect x="369" y="52" width="13" height="13" rx="2" fill="#40c463"><title>2026-06-02 (6191.5)</title></rect><rect x="369" y="67" width="13" height="13" rx="2" fill="#40c463"><title>2026-06-03 (5654.0)</title></rect><rect x="369" y="82" width="13" height="13" rx="2" fill="#40c463"><title>2026-06-04 (7302.2)</title></rect><rect x="369" y="97" width="13" height="13" rx="2" fill="#40c463"><title>2026-06-05 (6545.0)</title></rect><rect x="369" y="112" width="13" height="13" rx="2" fill="#40c463"><title>2026-06-06 (8701.0)</title></rect><rect x="384" y="22" width="13" height="13" rx="2" fill="#30a14e"><title>2026-06-07 (10146.4)</title></rect><rect x="384" y="37" width="13" height="13" rx="2" fill="#40c463"><title>2026-06-08 (5555.0)</title></rect><rect x="384" y="52" width="13" height="13" rx="2" fill="#216e39"><title>2026-06-09 (18092.4)</title></rect><rect x="384" y="67" width="13" height="13" rx="2" fill="#30a14e"><title>2026-06-10 (10742.9)</title></rect><rect x="384" y="82" width="13" height="13" rx="2" fill="#40c463"><title>2026-06-11 (4730.0)</title></rect><rect x="384" y="97" width="13" height="13" rx="2" fill="#40c463"><title>2026-06-12 (5024.5)</title></rect><rect x="384" y="112" width="13" height="13" rx="2" fill="#30a14e"><title>2026-06-13 (9381.5)</title></rect><rect x="399" y="22" width="13" height="13" rx="2" fill="#40c463"><title>2026-06-14 (4866.7)</title></rect><rect x="399" y="37" width="13" height="13" rx="2" fill="#9be9a8"><title>2026-06-15 (3810.5)</title></rect><rect x="399" y="52" width="13" height="13" rx="2" fill="#9be9a8"><title>2026-06-16 (2752.7)</title></rect><rect x="399" y="67" width="13" height="13" rx="2" fill="#9be9a8"><title>2026-06-17 (3719.2)</title></rect><rect x="399" y="82" width="13" height="13" rx="2" fill="#9be9a8"><title>2026-06-18 (3360.2)</title></rect><rect x="399" y="97" width="13" height="13" rx="2" fill="#40c463"><title>2026-06-19 (4634.2)</title></rect><rect x="399" y="112" width="13" height="13" rx="2" fill="#40c463"><title>2026-06-20 (7964.5)</title></rect><rect x="414" y="22" width="13" height="13" rx="2" fill="#30a14e"><title>2026-06-21 (11184.3)</title></rect><rect x="414" y="37" width="13" height="13" rx="2" fill="#40c463"><title>2026-06-22 (8464.5)</title></rect><rect x="414" y="52" width="13" height="13" rx="2" fill="#40c463"><title>2026-06-23 (8293.0)</title></rect><rect x="414" y="67" width="13" height="13" rx="2" fill="#40c463"><title>2026-06-24 (7248.3)</title></rect><rect x="414" y="82" width="13" height="13" rx="2" fill="#9be9a8"><title>2026-06-25 (2051.3)</title></rect><rect x="414" y="97" width="13" height="13" rx="2" fill="#9be9a8"><title>2026-06-26 (1153.2)</title></rect><rect x="414" y="112" width="13" height="13" rx="2" fill="#9be9a8"><title>2026-06-27 (192.9)</title></rect><text x="24" y="145" font-size="9" fill="#333333">적음</text><rect x="52" y="135" width="13" height="13" rx="2" fill="#ebedf0"/><rect x="67" y="135" width="13" height="13" rx="2" fill="#9be9a8"/><rect x="82" y="135" width="13" height="13" rx="2" fill="#40c463"/><rect x="97" y="135" width="13" height="13" rx="2" fill="#30a14e"/><rect x="112" y="135" width="13" height="13" rx="2" fill="#216e39"/><text x="131" y="145" font-size="9" fill="#333333">많음</text><text x="24" y="163" font-size="9" fill="#333333">기준: 2026-06-27 19:47</text>
</svg>