<svg xmlns="http://www.w3.org/2000/svg" width="363" height="260">
<text x="181" y="18" text-anchor="middle" font-size="13" font-weight="bold" fill="#e0e0e0">최근 1달 요일별 활동</text>
<text x="24" y="46" text-anchor="end" font-size="12" fill="#cccccc">일</text><rect x="28" y="30" width="265" height="22" rx="3" fill="#216e39"><title>일: 17832.2점</title></rect><text x="298" y="46" font-size="10" fill="#cccccc">17832.2</text><text x="24" y="74" text-anchor="end" font-size="12" fill="#cccccc">월</text><rect x="28" y="58" width="152" height="22" rx="3" fill="#30a14e"><title>월: 10236.9점</title></rect><text x="185" y="74" font-size="10" fill="#cccccc">10236.9</text><text x="24" y="102" text-anchor="end" font-size="12" fill="#cccccc">화</text><rect x="28" y="86" width="280" height="22" rx="3" fill="#216e39"><title>화: 18834.7점</title></rect><text x="313" y="102" font-size="10" fill="#cccccc">18834.7</text><text x="24" y="130" text-anchor="end" font-size="12" fill="#cccccc">수</text><rect x="28" y="114" width="224" height="22" rx="3" fill="#216e39"><title>수: 15110.2점</title></rect><text x="257" y="130" font-size="10" fill="#cccccc">15110.2</text><text x="24" y="158" text-anchor="end" font-size="12" fill="#cccccc">목</text><rect x="28" y="142" width="207" height="22" rx="3" fill="#30a14e"><title>목: 13972.5점</title></rect><text x="240" y="158" font-size="10" fill="#cccccc">13972.5</text><text x="24" y="186" text-anchor="end" font-size="12" fill="#cccccc">금</text><rect x="28" y="170" width="191" height="22" rx="3" fill="#30a14e"><title>금: 12876.5점</title></rect><text x="224" y="186" font-size="10" fill="#cccccc">12876.5</text><text x="24" y="214" text-anchor="end" font-size="12" fill="#cccccc">토</text><rect x="28" y="198" width="243" height="22" rx="3" fill="#216e39"><title>토: 16409.5점</title></rect><text x="276" y="214" font-size="10" fill="#cccccc">16409.5</text>
<text x="28" y="254" font-size="9" fill="#999999">기준: 2026-06-12 20:28</text>
</svg>