<svg xmlns="http://www.w3.org/2000/svg" width="363" height="260">
<text x="181" y="18" text-anchor="middle" font-size="13" font-weight="bold" fill="#e0e0e0">최근 1달 요일별 활동</text>
<text x="24" y="46" text-anchor="end" font-size="12" fill="#cccccc">일</text><rect x="28" y="30" width="264" height="22" rx="3" fill="#216e39"><title>일: 13085.2점</title></rect><text x="297" y="46" font-size="10" fill="#cccccc">13085.2</text><text x="24" y="74" text-anchor="end" font-size="12" fill="#cccccc">월</text><rect x="28" y="58" width="162" height="22" rx="3" fill="#30a14e"><title>월: 8044.1점</title></rect><text x="195" y="74" font-size="10" fill="#cccccc">8044.1</text><text x="24" y="102" text-anchor="end" font-size="12" fill="#cccccc">화</text><rect x="28" y="86" width="280" height="22" rx="3" fill="#216e39"><title>화: 13829.7점</title></rect><text x="313" y="102" font-size="10" fill="#cccccc">13829.7</text><text x="24" y="130" text-anchor="end" font-size="12" fill="#cccccc">수</text><rect x="28" y="114" width="230" height="22" rx="3" fill="#216e39"><title>수: 11394.3점</title></rect><text x="263" y="130" font-size="10" fill="#cccccc">11394.3</text><text x="24" y="158" text-anchor="end" font-size="12" fill="#cccccc">목</text><rect x="28" y="142" width="216" height="22" rx="3" fill="#216e39"><title>목: 10672.5점</title></rect><text x="249" y="158" font-size="10" fill="#cccccc">10672.5</text><text x="24" y="186" text-anchor="end" font-size="12" fill="#cccccc">금</text><rect x="28" y="170" width="199" height="22" rx="3" fill="#30a14e"><title>금: 9840.5점</title></rect><text x="232" y="186" font-size="10" fill="#cccccc">9840.5</text><text x="24" y="214" text-anchor="end" font-size="12" fill="#cccccc">토</text><rect x="28" y="198" width="248" height="22" rx="3" fill="#216e39"><title>토: 12251.5점</title></rect><text x="281" y="214" font-size="10" fill="#cccccc">12251.5</text>
<text x="28" y="254" font-size="9" fill="#999999">기준: 2026-06-09 04:38</text>
</svg>