<svg xmlns="http://www.w3.org/2000/svg" width="363" height="260">
<text x="181" y="18" text-anchor="middle" font-size="13" font-weight="bold" fill="#e0e0e0">최근 1주 요일별 활동</text>
<text x="24" y="46" text-anchor="end" font-size="12" fill="#cccccc">일</text><rect x="28" y="30" width="204" height="22" rx="3" fill="#30a14e"><title>일: 3259.6점</title></rect><text x="237" y="46" font-size="10" fill="#cccccc">3259.6</text><text x="24" y="74" text-anchor="end" font-size="12" fill="#cccccc">월</text><rect x="28" y="58" width="96" height="22" rx="3" fill="#40c463"><title>월: 1540.0점</title></rect><text x="129" y="74" font-size="10" fill="#cccccc">1540.0</text><text x="24" y="102" text-anchor="end" font-size="12" fill="#cccccc">화</text><rect x="28" y="86" width="280" height="22" rx="3" fill="#216e39"><title>화: 4454.6점</title></rect><text x="313" y="102" font-size="10" fill="#cccccc">4454.6</text><text x="24" y="130" text-anchor="end" font-size="12" fill="#cccccc">수</text><rect x="28" y="114" width="120" height="22" rx="3" fill="#40c463"><title>수: 1923.3점</title></rect><text x="153" y="130" font-size="10" fill="#cccccc">1923.3</text><text x="24" y="158" text-anchor="end" font-size="12" fill="#cccccc">목</text><rect x="28" y="142" width="44" height="22" rx="3" fill="#9be9a8"><title>목: 715.0점</title></rect><text x="77" y="158" font-size="10" fill="#cccccc">715.0</text><text x="24" y="186" text-anchor="end" font-size="12" fill="#cccccc">금</text><rect x="28" y="170" width="27" height="22" rx="3" fill="#9be9a8"><title>금: 440.0점</title></rect><text x="60" y="186" font-size="10" fill="#cccccc">440.0</text><text x="24" y="214" text-anchor="end" font-size="12" fill="#cccccc">토</text><rect x="28" y="198" width="25" height="22" rx="3" fill="#9be9a8"><title>토: 411.2점</title></rect><text x="58" y="214" font-size="10" fill="#cccccc">411.2</text>
<text x="28" y="254" font-size="9" fill="#999999">기준: 2026-06-13 22:31</text>
</svg>