<svg xmlns="http://www.w3.org/2000/svg" width="363" height="260">
<text x="181" y="18" text-anchor="middle" font-size="13" font-weight="bold" fill="#111111">최근 1달 요일별 활동</text>
<text x="24" y="46" text-anchor="end" font-size="12" fill="#333333">일</text><rect x="28" y="30" width="256" height="22" rx="3" fill="#216e39"><title>일: 46872.0점</title></rect><text x="289" y="46" font-size="10" fill="#333333">46872.0</text><text x="24" y="74" text-anchor="end" font-size="12" fill="#333333">월</text><rect x="28" y="58" width="192" height="22" rx="3" fill="#30a14e"><title>월: 35120.3점</title></rect><text x="225" y="74" font-size="10" fill="#333333">35120.3</text><text x="24" y="102" text-anchor="end" font-size="12" fill="#333333">화</text><rect x="28" y="86" width="280" height="22" rx="3" fill="#216e39"><title>화: 51176.0점</title></rect><text x="313" y="102" font-size="10" fill="#333333">51176.0</text><text x="24" y="130" text-anchor="end" font-size="12" fill="#333333">수</text><rect x="28" y="114" width="233" height="22" rx="3" fill="#216e39"><title>수: 42703.8점</title></rect><text x="266" y="130" font-size="10" fill="#333333">42703.8</text><text x="24" y="158" text-anchor="end" font-size="12" fill="#333333">목</text><rect x="28" y="142" width="163" height="22" rx="3" fill="#30a14e"><title>목: 29913.3점</title></rect><text x="196" y="158" font-size="10" fill="#333333">29913.3</text><text x="24" y="186" text-anchor="end" font-size="12" fill="#333333">금</text><rect x="28" y="170" width="166" height="22" rx="3" fill="#30a14e"><title>금: 30512.9점</title></rect><text x="199" y="186" font-size="10" fill="#333333">30512.9</text><text x="24" y="214" text-anchor="end" font-size="12" fill="#333333">토</text><rect x="28" y="198" width="237" height="22" rx="3" fill="#216e39"><title>토: 43449.9점</title></rect><text x="270" y="214" font-size="10" fill="#333333">43449.9</text>
<text x="28" y="254" font-size="9" fill="#666666">기준: 2026-07-03 22:17</text>
</svg>