<svg xmlns="http://www.w3.org/2000/svg" width="363" height="260">
<text x="181" y="18" text-anchor="middle" font-size="13" font-weight="bold" fill="#111111">최근 1주 요일별 활동</text>
<text x="24" y="46" text-anchor="end" font-size="12" fill="#333333">일</text><rect x="28" y="30" width="136" height="22" rx="3" fill="#40c463"><title>일: 3236.7점</title></rect><text x="169" y="46" font-size="10" fill="#333333">3236.7</text><text x="24" y="74" text-anchor="end" font-size="12" fill="#333333">월</text><rect x="28" y="58" width="152" height="22" rx="3" fill="#30a14e"><title>월: 3609.4점</title></rect><text x="185" y="74" font-size="10" fill="#333333">3609.4</text><text x="24" y="102" text-anchor="end" font-size="12" fill="#333333">화</text><rect x="28" y="86" width="82" height="22" rx="3" fill="#40c463"><title>화: 1947.7점</title></rect><text x="115" y="102" font-size="10" fill="#333333">1947.7</text><text x="24" y="130" text-anchor="end" font-size="12" fill="#333333">수</text><rect x="28" y="114" width="29" height="22" rx="3" fill="#9be9a8"><title>수: 708.0점</title></rect><text x="62" y="130" font-size="10" fill="#333333">708.0</text><text x="24" y="158" text-anchor="end" font-size="12" fill="#333333">목</text><rect x="28" y="142" width="138" height="22" rx="3" fill="#40c463"><title>목: 3278.1점</title></rect><text x="171" y="158" font-size="10" fill="#333333">3278.1</text><text x="24" y="186" text-anchor="end" font-size="12" fill="#333333">금</text><rect x="28" y="170" width="280" height="22" rx="3" fill="#216e39"><title>금: 6626.5점</title></rect><text x="313" y="186" font-size="10" fill="#333333">6626.5</text><text x="24" y="214" text-anchor="end" font-size="12" fill="#333333">토</text><rect x="28" y="198" width="177" height="22" rx="3" fill="#30a14e"><title>토: 4200.6점</title></rect><text x="210" y="214" font-size="10" fill="#333333">4200.6</text>
<text x="28" y="254" font-size="9" fill="#666666">기준: 2026-07-15 22:15</text>
</svg>