<svg xmlns="http://www.w3.org/2000/svg" width="363" height="260">
<text x="181" y="18" text-anchor="middle" font-size="13" font-weight="bold" fill="#111111">최근 2주 요일별 활동</text>
<text x="24" y="46" text-anchor="end" font-size="12" fill="#333333">일</text><rect x="28" y="30" width="202" height="22" rx="3" fill="#30a14e"><title>일: 7999.1점</title></rect><text x="235" y="46" font-size="10" fill="#333333">7999.1</text><text x="24" y="74" text-anchor="end" font-size="12" fill="#333333">월</text><rect x="28" y="58" width="111" height="22" rx="3" fill="#40c463"><title>월: 4393.5점</title></rect><text x="144" y="74" font-size="10" fill="#333333">4393.5</text><text x="24" y="102" text-anchor="end" font-size="12" fill="#333333">화</text><rect x="28" y="86" width="280" height="22" rx="3" fill="#216e39"><title>화: 11060.0점</title></rect><text x="313" y="102" font-size="10" fill="#333333">11060.0</text><text x="24" y="130" text-anchor="end" font-size="12" fill="#333333">수</text><rect x="28" y="114" width="149" height="22" rx="3" fill="#30a14e"><title>수: 5921.0점</title></rect><text x="182" y="130" font-size="10" fill="#333333">5921.0</text><text x="24" y="158" text-anchor="end" font-size="12" fill="#333333">목</text><rect x="28" y="142" width="73" height="22" rx="3" fill="#40c463"><title>목: 2915.0점</title></rect><text x="106" y="158" font-size="10" fill="#333333">2915.0</text><text x="24" y="186" text-anchor="end" font-size="12" fill="#333333">금</text><rect x="28" y="170" width="62" height="22" rx="3" fill="#9be9a8"><title>금: 2464.1점</title></rect><text x="95" y="186" font-size="10" fill="#333333">2464.1</text><text x="24" y="214" text-anchor="end" font-size="12" fill="#333333">토</text><rect x="28" y="198" width="107" height="22" rx="3" fill="#40c463"><title>토: 4231.5점</title></rect><text x="140" y="214" font-size="10" fill="#333333">4231.5</text>
<text x="28" y="254" font-size="9" fill="#666666">기준: 2026-06-20 09:44</text>
</svg>