<svg xmlns="http://www.w3.org/2000/svg" width="363" height="260">
<text x="181" y="18" text-anchor="middle" font-size="13" font-weight="bold" fill="#e0e0e0">최근 1주 요일별 활동</text>
<text x="24" y="46" text-anchor="end" font-size="12" fill="#cccccc">일</text><rect x="28" y="30" width="16" height="22" rx="3" fill="#9be9a8"><title>일: 704.4점</title></rect><text x="49" y="46" font-size="10" fill="#cccccc">704.4</text><text x="24" y="74" text-anchor="end" font-size="12" fill="#cccccc">월</text><rect x="28" y="58" width="4" height="22" rx="3" fill="#9be9a8"><title>월: 192.0점</title></rect><text x="37" y="74" font-size="10" fill="#cccccc">192.0</text><text x="24" y="102" text-anchor="end" font-size="12" fill="#cccccc">화</text><rect x="28" y="86" width="280" height="22" rx="3" fill="#216e39"><title>화: 11759.1점</title></rect><text x="313" y="102" font-size="10" fill="#cccccc">11759.1</text><text x="24" y="130" text-anchor="end" font-size="12" fill="#cccccc">수</text><rect x="28" y="114" width="263" height="22" rx="3" fill="#216e39"><title>수: 11078.5점</title></rect><text x="296" y="130" font-size="10" fill="#cccccc">11078.5</text><text x="24" y="158" text-anchor="end" font-size="12" fill="#cccccc">목</text><rect x="28" y="142" width="85" height="22" rx="3" fill="#40c463"><title>목: 3585.8점</title></rect><text x="118" y="158" font-size="10" fill="#cccccc">3585.8</text><text x="24" y="186" text-anchor="end" font-size="12" fill="#cccccc">금</text><rect x="28" y="170" width="62" height="22" rx="3" fill="#9be9a8"><title>금: 2619.9점</title></rect><text x="95" y="186" font-size="10" fill="#cccccc">2619.9</text><text x="24" y="214" text-anchor="end" font-size="12" fill="#cccccc">토</text><rect x="28" y="198" width="25" height="22" rx="3" fill="#9be9a8"><title>토: 1090.3점</title></rect><text x="58" y="214" font-size="10" fill="#cccccc">1090.3</text>
<text x="28" y="254" font-size="9" fill="#999999">기준: 2026-06-29 20:17</text>
</svg>