<svg xmlns="http://www.w3.org/2000/svg" width="363" height="260">
<text x="181" y="18" text-anchor="middle" font-size="13" font-weight="bold" fill="#111111">최근 1주 요일별 활동</text>
<text x="24" y="46" text-anchor="end" font-size="12" fill="#333333">일</text><rect x="28" y="30" width="280" height="22" rx="3" fill="#216e39"><title>일: 1887.7점</title></rect><text x="313" y="46" font-size="10" fill="#333333">1887.7</text><text x="24" y="74" text-anchor="end" font-size="12" fill="#333333">월</text><rect x="28" y="58" width="179" height="22" rx="3" fill="#30a14e"><title>월: 1211.9점</title></rect><text x="212" y="74" font-size="10" fill="#333333">1211.9</text><text x="24" y="102" text-anchor="end" font-size="12" fill="#333333">화</text><rect x="28" y="86" width="127" height="22" rx="3" fill="#40c463"><title>화: 860.2점</title></rect><text x="160" y="102" font-size="10" fill="#333333">860.2</text><text x="24" y="130" text-anchor="end" font-size="12" fill="#333333">수</text><rect x="28" y="114" width="124" height="22" rx="3" fill="#40c463"><title>수: 840.2점</title></rect><text x="157" y="130" font-size="10" fill="#333333">840.2</text><text x="24" y="158" text-anchor="end" font-size="12" fill="#333333">목</text><rect x="28" y="142" width="83" height="22" rx="3" fill="#40c463"><title>목: 563.2점</title></rect><text x="116" y="158" font-size="10" fill="#333333">563.2</text><text x="24" y="186" text-anchor="end" font-size="12" fill="#333333">금</text><rect x="28" y="170" width="62" height="22" rx="3" fill="#9be9a8"><title>금: 421.8점</title></rect><text x="95" y="186" font-size="10" fill="#333333">421.8</text><text x="24" y="214" text-anchor="end" font-size="12" fill="#333333">토</text><rect x="28" y="198" width="12" height="22" rx="3" fill="#9be9a8"><title>토: 84.1점</title></rect><text x="45" y="214" font-size="10" fill="#333333">84.1</text>
<text x="28" y="254" font-size="9" fill="#666666">기준: 2026-06-20 14:33</text>
</svg>