<svg xmlns="http://www.w3.org/2000/svg" width="363" height="260">
<text x="181" y="18" text-anchor="middle" font-size="13" font-weight="bold" fill="#e0e0e0">최근 2주 요일별 활동</text>
<text x="24" y="46" text-anchor="end" font-size="12" fill="#cccccc">일</text><rect x="28" y="30" width="44" height="22" rx="3" fill="#9be9a8"><title>일: 4119.5점</title></rect><text x="77" y="46" font-size="10" fill="#cccccc">4119.5</text><text x="24" y="74" text-anchor="end" font-size="12" fill="#cccccc">월</text><rect x="28" y="58" width="271" height="22" rx="3" fill="#216e39"><title>월: 25014.5점</title></rect><text x="304" y="74" font-size="10" fill="#cccccc">25014.5</text><text x="24" y="102" text-anchor="end" font-size="12" fill="#cccccc">화</text><rect x="28" y="86" width="280" height="22" rx="3" fill="#216e39"><title>화: 25760.5점</title></rect><text x="313" y="102" font-size="10" fill="#cccccc">25760.5</text><text x="24" y="130" text-anchor="end" font-size="12" fill="#cccccc">수</text><rect x="28" y="114" width="268" height="22" rx="3" fill="#216e39"><title>수: 24743.9점</title></rect><text x="301" y="130" font-size="10" fill="#cccccc">24743.9</text><text x="24" y="158" text-anchor="end" font-size="12" fill="#cccccc">목</text><rect x="28" y="142" width="104" height="22" rx="3" fill="#40c463"><title>목: 9588.2점</title></rect><text x="137" y="158" font-size="10" fill="#cccccc">9588.2</text><text x="24" y="186" text-anchor="end" font-size="12" fill="#cccccc">금</text><rect x="28" y="170" width="86" height="22" rx="3" fill="#40c463"><title>금: 7972.3점</title></rect><text x="119" y="186" font-size="10" fill="#cccccc">7972.3</text><text x="24" y="214" text-anchor="end" font-size="12" fill="#cccccc">토</text><rect x="28" y="198" width="49" height="22" rx="3" fill="#9be9a8"><title>토: 4585.1점</title></rect><text x="82" y="214" font-size="10" fill="#cccccc">4585.1</text>
<text x="28" y="254" font-size="9" fill="#999999">기준: 2026-07-05 09:23</text>
</svg>