<svg xmlns="http://www.w3.org/2000/svg" width="363" height="260">
<text x="181" y="18" text-anchor="middle" font-size="13" font-weight="bold" fill="#111111">최근 1주 요일별 활동</text>
<text x="24" y="46" text-anchor="end" font-size="12" fill="#333333">일</text><rect x="28" y="30" width="135" height="22" rx="3" fill="#40c463"><title>일: 2306.3점</title></rect><text x="168" y="46" font-size="10" fill="#333333">2306.3</text><text x="24" y="74" text-anchor="end" font-size="12" fill="#333333">월</text><rect x="28" y="58" width="116" height="22" rx="3" fill="#40c463"><title>월: 1981.4점</title></rect><text x="149" y="74" font-size="10" fill="#333333">1981.4</text><text x="24" y="102" text-anchor="end" font-size="12" fill="#333333">화</text><rect x="28" y="86" width="77" height="22" rx="3" fill="#40c463"><title>화: 1326.0점</title></rect><text x="110" y="102" font-size="10" fill="#333333">1326.0</text><text x="24" y="130" text-anchor="end" font-size="12" fill="#333333">수</text><rect x="28" y="114" width="26" height="22" rx="3" fill="#9be9a8"><title>수: 447.8점</title></rect><text x="59" y="130" font-size="10" fill="#333333">447.8</text><text x="24" y="158" text-anchor="end" font-size="12" fill="#333333">목</text><rect x="28" y="142" width="2" height="22" rx="3" fill="#9be9a8"><title>목: 43.4점</title></rect><text x="35" y="158" font-size="10" fill="#333333">43.4</text><text x="24" y="186" text-anchor="end" font-size="12" fill="#333333">금</text><rect x="28" y="170" width="280" height="22" rx="3" fill="#216e39"><title>금: 4781.5점</title></rect><text x="313" y="186" font-size="10" fill="#333333">4781.5</text><text x="24" y="214" text-anchor="end" font-size="12" fill="#333333">토</text><rect x="28" y="198" width="141" height="22" rx="3" fill="#30a14e"><title>토: 2411.6점</title></rect><text x="174" y="214" font-size="10" fill="#333333">2411.6</text>
<text x="28" y="254" font-size="9" fill="#666666">기준: 2026-07-02 14:30</text>
</svg>