<svg xmlns="http://www.w3.org/2000/svg" width="363" height="260">
<text x="181" y="18" text-anchor="middle" font-size="13" font-weight="bold" fill="#111111">최근 1주 요일별 활동</text>
<text x="24" y="46" text-anchor="end" font-size="12" fill="#333333">일</text><rect x="28" y="30" width="137" height="22" rx="3" fill="#40c463"><title>일: 3372.7점</title></rect><text x="170" y="46" font-size="10" fill="#333333">3372.7</text><text x="24" y="74" text-anchor="end" font-size="12" fill="#333333">월</text><rect x="28" y="58" width="155" height="22" rx="3" fill="#30a14e"><title>월: 3823.5점</title></rect><text x="188" y="74" font-size="10" fill="#333333">3823.5</text><text x="24" y="102" text-anchor="end" font-size="12" fill="#333333">화</text><rect x="28" y="86" width="86" height="22" rx="3" fill="#40c463"><title>화: 2130.9점</title></rect><text x="119" y="102" font-size="10" fill="#333333">2130.9</text><text x="24" y="130" text-anchor="end" font-size="12" fill="#333333">수</text><rect x="28" y="114" width="35" height="22" rx="3" fill="#9be9a8"><title>수: 880.0점</title></rect><text x="68" y="130" font-size="10" fill="#333333">880.0</text><text x="24" y="158" text-anchor="end" font-size="12" fill="#333333">목</text><rect x="28" y="142" width="2" height="22" rx="3" fill="#ebedf0"><title>목: 0.0점</title></rect><text x="35" y="158" font-size="10" fill="#333333">0.0</text><text x="24" y="186" text-anchor="end" font-size="12" fill="#333333">금</text><rect x="28" y="170" width="280" height="22" rx="3" fill="#216e39"><title>금: 6875.8점</title></rect><text x="313" y="186" font-size="10" fill="#333333">6875.8</text><text x="24" y="214" text-anchor="end" font-size="12" fill="#333333">토</text><rect x="28" y="198" width="178" height="22" rx="3" fill="#30a14e"><title>토: 4391.2점</title></rect><text x="211" y="214" font-size="10" fill="#333333">4391.2</text>
<text x="28" y="254" font-size="9" fill="#666666">기준: 2026-07-16 03:41</text>
</svg>