<svg xmlns="http://www.w3.org/2000/svg" width="363" height="260">
<text x="181" y="18" text-anchor="middle" font-size="13" font-weight="bold" fill="#111111">최근 1달 요일별 활동</text>
<text x="24" y="46" text-anchor="end" font-size="12" fill="#333333">일</text><rect x="28" y="30" width="204" height="22" rx="3" fill="#30a14e"><title>일: 6258.4점</title></rect><text x="237" y="46" font-size="10" fill="#333333">6258.4</text><text x="24" y="74" text-anchor="end" font-size="12" fill="#333333">월</text><rect x="28" y="58" width="118" height="22" rx="3" fill="#40c463"><title>월: 3619.9점</title></rect><text x="151" y="74" font-size="10" fill="#333333">3619.9</text><text x="24" y="102" text-anchor="end" font-size="12" fill="#333333">화</text><rect x="28" y="86" width="280" height="22" rx="3" fill="#216e39"><title>화: 8583.9점</title></rect><text x="313" y="102" font-size="10" fill="#333333">8583.9</text><text x="24" y="130" text-anchor="end" font-size="12" fill="#333333">수</text><rect x="28" y="114" width="276" height="22" rx="3" fill="#216e39"><title>수: 8480.6점</title></rect><text x="309" y="130" font-size="10" fill="#333333">8480.6</text><text x="24" y="158" text-anchor="end" font-size="12" fill="#333333">목</text><rect x="28" y="142" width="227" height="22" rx="3" fill="#216e39"><title>목: 6983.3점</title></rect><text x="260" y="158" font-size="10" fill="#333333">6983.3</text><text x="24" y="186" text-anchor="end" font-size="12" fill="#333333">금</text><rect x="28" y="170" width="170" height="22" rx="3" fill="#30a14e"><title>금: 5232.0점</title></rect><text x="203" y="186" font-size="10" fill="#333333">5232.0</text><text x="24" y="214" text-anchor="end" font-size="12" fill="#333333">토</text><rect x="28" y="198" width="101" height="22" rx="3" fill="#40c463"><title>토: 3122.6점</title></rect><text x="134" y="214" font-size="10" fill="#333333">3122.6</text>
<text x="28" y="254" font-size="9" fill="#666666">기준: 2026-05-27 04:51</text>
</svg>