<svg xmlns="http://www.w3.org/2000/svg" width="363" height="260">
<text x="181" y="18" text-anchor="middle" font-size="13" font-weight="bold" fill="#e0e0e0">최근 2주 요일별 활동</text>
<text x="24" y="46" text-anchor="end" font-size="12" fill="#cccccc">일</text><rect x="28" y="30" width="87" height="22" rx="3" fill="#40c463"><title>일: 4325.2점</title></rect><text x="120" y="46" font-size="10" fill="#cccccc">4325.2</text><text x="24" y="74" text-anchor="end" font-size="12" fill="#cccccc">월</text><rect x="28" y="58" width="41" height="22" rx="3" fill="#9be9a8"><title>월: 2044.3점</title></rect><text x="74" y="74" font-size="10" fill="#cccccc">2044.3</text><text x="24" y="102" text-anchor="end" font-size="12" fill="#cccccc">화</text><rect x="28" y="86" width="280" height="22" rx="3" fill="#216e39"><title>화: 13855.8점</title></rect><text x="313" y="102" font-size="10" fill="#cccccc">13855.8</text><text x="24" y="130" text-anchor="end" font-size="12" fill="#cccccc">수</text><rect x="28" y="114" width="168" height="22" rx="3" fill="#30a14e"><title>수: 8361.3점</title></rect><text x="201" y="130" font-size="10" fill="#cccccc">8361.3</text><text x="24" y="158" text-anchor="end" font-size="12" fill="#cccccc">목</text><rect x="28" y="142" width="88" height="22" rx="3" fill="#40c463"><title>목: 4393.6점</title></rect><text x="121" y="158" font-size="10" fill="#cccccc">4393.6</text><text x="24" y="186" text-anchor="end" font-size="12" fill="#cccccc">금</text><rect x="28" y="170" width="91" height="22" rx="3" fill="#40c463"><title>금: 4519.7점</title></rect><text x="124" y="186" font-size="10" fill="#cccccc">4519.7</text><text x="24" y="214" text-anchor="end" font-size="12" fill="#cccccc">토</text><rect x="28" y="198" width="157" height="22" rx="3" fill="#30a14e"><title>토: 7782.6점</title></rect><text x="190" y="214" font-size="10" fill="#cccccc">7782.6</text>
<text x="28" y="254" font-size="9" fill="#999999">기준: 2026-06-22 12:27</text>
</svg>