<svg xmlns="http://www.w3.org/2000/svg" width="363" height="260">
<text x="181" y="18" text-anchor="middle" font-size="13" font-weight="bold" fill="#e0e0e0">최근 1주 요일별 활동</text>
<text x="24" y="46" text-anchor="end" font-size="12" fill="#cccccc">일</text><rect x="28" y="30" width="119" height="22" rx="3" fill="#40c463"><title>일: 847.0점</title></rect><text x="152" y="46" font-size="10" fill="#cccccc">847.0</text><text x="24" y="74" text-anchor="end" font-size="12" fill="#cccccc">월</text><rect x="28" y="58" width="38" height="22" rx="3" fill="#9be9a8"><title>월: 275.0점</title></rect><text x="71" y="74" font-size="10" fill="#cccccc">275.0</text><text x="24" y="102" text-anchor="end" font-size="12" fill="#cccccc">화</text><rect x="28" y="86" width="4" height="22" rx="3" fill="#9be9a8"><title>화: 33.0점</title></rect><text x="37" y="102" font-size="10" fill="#cccccc">33.0</text><text x="24" y="130" text-anchor="end" font-size="12" fill="#cccccc">수</text><rect x="28" y="114" width="280" height="22" rx="3" fill="#216e39"><title>수: 1982.0점</title></rect><text x="313" y="130" font-size="10" fill="#cccccc">1982.0</text><text x="24" y="158" text-anchor="end" font-size="12" fill="#cccccc">목</text><rect x="28" y="142" width="225" height="22" rx="3" fill="#216e39"><title>목: 1595.0점</title></rect><text x="258" y="158" font-size="10" fill="#cccccc">1595.0</text><text x="24" y="186" text-anchor="end" font-size="12" fill="#cccccc">금</text><rect x="28" y="170" width="186" height="22" rx="3" fill="#30a14e"><title>금: 1320.0점</title></rect><text x="219" y="186" font-size="10" fill="#cccccc">1320.0</text><text x="24" y="214" text-anchor="end" font-size="12" fill="#cccccc">토</text><rect x="28" y="198" width="195" height="22" rx="3" fill="#30a14e"><title>토: 1386.0점</title></rect><text x="228" y="214" font-size="10" fill="#cccccc">1386.0</text>
<text x="28" y="254" font-size="9" fill="#999999">기준: 2026-05-26 16:12</text>
</svg>