<svg xmlns="http://www.w3.org/2000/svg" width="363" height="260">
<text x="181" y="18" text-anchor="middle" font-size="13" font-weight="bold" fill="#111111">최근 1주 요일별 활동</text>
<text x="24" y="46" text-anchor="end" font-size="12" fill="#333333">일</text><rect x="28" y="30" width="280" height="22" rx="3" fill="#216e39"><title>일: 6093.1점</title></rect><text x="313" y="46" font-size="10" fill="#333333">6093.1</text><text x="24" y="74" text-anchor="end" font-size="12" fill="#333333">월</text><rect x="28" y="58" width="184" height="22" rx="3" fill="#30a14e"><title>월: 4004.6점</title></rect><text x="217" y="74" font-size="10" fill="#333333">4004.6</text><text x="24" y="102" text-anchor="end" font-size="12" fill="#333333">화</text><rect x="28" y="86" width="149" height="22" rx="3" fill="#30a14e"><title>화: 3251.4점</title></rect><text x="182" y="102" font-size="10" fill="#333333">3251.4</text><text x="24" y="130" text-anchor="end" font-size="12" fill="#333333">수</text><rect x="28" y="114" width="77" height="22" rx="3" fill="#40c463"><title>수: 1677.1점</title></rect><text x="110" y="130" font-size="10" fill="#333333">1677.1</text><text x="24" y="158" text-anchor="end" font-size="12" fill="#333333">목</text><rect x="28" y="142" width="2" height="22" rx="3" fill="#ebedf0"><title>목: 0.0점</title></rect><text x="35" y="158" font-size="10" fill="#333333">0.0</text><text x="24" y="186" text-anchor="end" font-size="12" fill="#333333">금</text><rect x="28" y="170" width="137" height="22" rx="3" fill="#40c463"><title>금: 2990.3점</title></rect><text x="170" y="186" font-size="10" fill="#333333">2990.3</text><text x="24" y="214" text-anchor="end" font-size="12" fill="#333333">토</text><rect x="28" y="198" width="221" height="22" rx="3" fill="#216e39"><title>토: 4830.1점</title></rect><text x="254" y="214" font-size="10" fill="#333333">4830.1</text>
<text x="28" y="254" font-size="9" fill="#666666">기준: 2026-06-25 04:35</text>
</svg>