<svg xmlns="http://www.w3.org/2000/svg" width="363" height="260">
<text x="181" y="18" text-anchor="middle" font-size="13" font-weight="bold" fill="#111111">최근 2주 요일별 활동</text>
<text x="24" y="46" text-anchor="end" font-size="12" fill="#333333">일</text><rect x="28" y="30" width="57" height="22" rx="3" fill="#9be9a8"><title>일: 6147.7점</title></rect><text x="90" y="46" font-size="10" fill="#333333">6147.7</text><text x="24" y="74" text-anchor="end" font-size="12" fill="#333333">월</text><rect x="28" y="58" width="53" height="22" rx="3" fill="#9be9a8"><title>월: 5669.1점</title></rect><text x="86" y="74" font-size="10" fill="#333333">5669.1</text><text x="24" y="102" text-anchor="end" font-size="12" fill="#333333">화</text><rect x="28" y="86" width="43" height="22" rx="3" fill="#9be9a8"><title>화: 4649.4점</title></rect><text x="76" y="102" font-size="10" fill="#333333">4649.4</text><text x="24" y="130" text-anchor="end" font-size="12" fill="#333333">수</text><rect x="28" y="114" width="280" height="22" rx="3" fill="#216e39"><title>수: 29841.5점</title></rect><text x="313" y="130" font-size="10" fill="#333333">29841.5</text><text x="24" y="158" text-anchor="end" font-size="12" fill="#333333">목</text><rect x="28" y="142" width="113" height="22" rx="3" fill="#40c463"><title>목: 12116.9점</title></rect><text x="146" y="158" font-size="10" fill="#333333">12116.9</text><text x="24" y="186" text-anchor="end" font-size="12" fill="#333333">금</text><rect x="28" y="170" width="97" height="22" rx="3" fill="#40c463"><title>금: 10385.5점</title></rect><text x="130" y="186" font-size="10" fill="#333333">10385.5</text><text x="24" y="214" text-anchor="end" font-size="12" fill="#333333">토</text><rect x="28" y="198" width="66" height="22" rx="3" fill="#9be9a8"><title>토: 7072.5점</title></rect><text x="99" y="214" font-size="10" fill="#333333">7072.5</text>
<text x="28" y="254" font-size="9" fill="#666666">기준: 2026-07-07 15:17</text>
</svg>