<svg xmlns="http://www.w3.org/2000/svg" width="363" height="260">
<text x="181" y="18" text-anchor="middle" font-size="13" font-weight="bold" fill="#e0e0e0">최근 2주 요일별 활동</text>
<text x="24" y="46" text-anchor="end" font-size="12" fill="#cccccc">일</text><rect x="28" y="30" width="195" height="22" rx="3" fill="#30a14e"><title>일: 1671.6점</title></rect><text x="228" y="46" font-size="10" fill="#cccccc">1671.6</text><text x="24" y="74" text-anchor="end" font-size="12" fill="#cccccc">월</text><rect x="28" y="58" width="123" height="22" rx="3" fill="#40c463"><title>월: 1055.7점</title></rect><text x="156" y="74" font-size="10" fill="#cccccc">1055.7</text><text x="24" y="102" text-anchor="end" font-size="12" fill="#cccccc">화</text><rect x="28" y="86" width="280" height="22" rx="3" fill="#216e39"><title>화: 2394.9점</title></rect><text x="313" y="102" font-size="10" fill="#cccccc">2394.9</text><text x="24" y="130" text-anchor="end" font-size="12" fill="#cccccc">수</text><rect x="28" y="114" width="158" height="22" rx="3" fill="#30a14e"><title>수: 1358.9점</title></rect><text x="191" y="130" font-size="10" fill="#cccccc">1358.9</text><text x="24" y="158" text-anchor="end" font-size="12" fill="#cccccc">목</text><rect x="28" y="142" width="128" height="22" rx="3" fill="#40c463"><title>목: 1102.5점</title></rect><text x="161" y="158" font-size="10" fill="#cccccc">1102.5</text><text x="24" y="186" text-anchor="end" font-size="12" fill="#cccccc">금</text><rect x="28" y="170" width="95" height="22" rx="3" fill="#40c463"><title>금: 820.5점</title></rect><text x="128" y="186" font-size="10" fill="#cccccc">820.5</text><text x="24" y="214" text-anchor="end" font-size="12" fill="#cccccc">토</text><rect x="28" y="198" width="65" height="22" rx="3" fill="#9be9a8"><title>토: 558.5점</title></rect><text x="98" y="214" font-size="10" fill="#cccccc">558.5</text>
<text x="28" y="254" font-size="9" fill="#999999">기준: 2026-05-23 19:39</text>
</svg>