<svg xmlns="http://www.w3.org/2000/svg" width="363" height="260">
<text x="181" y="18" text-anchor="middle" font-size="13" font-weight="bold" fill="#e0e0e0">최근 2주 요일별 활동</text>
<text x="24" y="46" text-anchor="end" font-size="12" fill="#cccccc">일</text><rect x="28" y="30" width="83" height="22" rx="3" fill="#40c463"><title>일: 756.8점</title></rect><text x="116" y="46" font-size="10" fill="#cccccc">756.8</text><text x="24" y="74" text-anchor="end" font-size="12" fill="#cccccc">월</text><rect x="28" y="58" width="118" height="22" rx="3" fill="#40c463"><title>월: 1075.6점</title></rect><text x="151" y="74" font-size="10" fill="#cccccc">1075.6</text><text x="24" y="102" text-anchor="end" font-size="12" fill="#cccccc">화</text><rect x="28" y="86" width="280" height="22" rx="3" fill="#216e39"><title>화: 2531.3점</title></rect><text x="313" y="102" font-size="10" fill="#cccccc">2531.3</text><text x="24" y="130" text-anchor="end" font-size="12" fill="#cccccc">수</text><rect x="28" y="114" width="163" height="22" rx="3" fill="#30a14e"><title>수: 1475.3점</title></rect><text x="196" y="130" font-size="10" fill="#cccccc">1475.3</text><text x="24" y="158" text-anchor="end" font-size="12" fill="#cccccc">목</text><rect x="28" y="142" width="134" height="22" rx="3" fill="#40c463"><title>목: 1212.5점</title></rect><text x="167" y="158" font-size="10" fill="#cccccc">1212.5</text><text x="24" y="186" text-anchor="end" font-size="12" fill="#cccccc">금</text><rect x="28" y="170" width="102" height="22" rx="3" fill="#40c463"><title>금: 930.5점</title></rect><text x="135" y="186" font-size="10" fill="#cccccc">930.5</text><text x="24" y="214" text-anchor="end" font-size="12" fill="#cccccc">토</text><rect x="28" y="198" width="77" height="22" rx="3" fill="#40c463"><title>토: 701.5점</title></rect><text x="110" y="214" font-size="10" fill="#cccccc">701.5</text>
<text x="28" y="254" font-size="9" fill="#999999">기준: 2026-05-24 04:41</text>
</svg>