<svg xmlns="http://www.w3.org/2000/svg" width="363" height="260">
<text x="181" y="18" text-anchor="middle" font-size="13" font-weight="bold" fill="#e0e0e0">최근 1달 요일별 활동</text>
<text x="24" y="46" text-anchor="end" font-size="12" fill="#cccccc">일</text><rect x="28" y="30" width="263" height="22" rx="3" fill="#216e39"><title>일: 10780.3점</title></rect><text x="296" y="46" font-size="10" fill="#cccccc">10780.3</text><text x="24" y="74" text-anchor="end" font-size="12" fill="#cccccc">월</text><rect x="28" y="58" width="154" height="22" rx="3" fill="#30a14e"><title>월: 6324.2점</title></rect><text x="187" y="74" font-size="10" fill="#cccccc">6324.2</text><text x="24" y="102" text-anchor="end" font-size="12" fill="#cccccc">화</text><rect x="28" y="86" width="280" height="22" rx="3" fill="#216e39"><title>화: 11443.7점</title></rect><text x="313" y="102" font-size="10" fill="#cccccc">11443.7</text><text x="24" y="130" text-anchor="end" font-size="12" fill="#cccccc">수</text><rect x="28" y="114" width="224" height="22" rx="3" fill="#216e39"><title>수: 9193.5점</title></rect><text x="257" y="130" font-size="10" fill="#cccccc">9193.5</text><text x="24" y="158" text-anchor="end" font-size="12" fill="#cccccc">목</text><rect x="28" y="142" width="204" height="22" rx="3" fill="#30a14e"><title>목: 8362.5점</title></rect><text x="237" y="158" font-size="10" fill="#cccccc">8362.5</text><text x="24" y="186" text-anchor="end" font-size="12" fill="#cccccc">금</text><rect x="28" y="170" width="238" height="22" rx="3" fill="#216e39"><title>금: 9749.0점</title></rect><text x="271" y="186" font-size="10" fill="#cccccc">9749.0</text><text x="24" y="214" text-anchor="end" font-size="12" fill="#cccccc">토</text><rect x="28" y="198" width="245" height="22" rx="3" fill="#216e39"><title>토: 10031.0점</title></rect><text x="278" y="214" font-size="10" fill="#cccccc">10031.0</text>
<text x="28" y="254" font-size="9" fill="#999999">기준: 2026-06-06 16:35</text>
</svg>