<svg xmlns="http://www.w3.org/2000/svg" width="363" height="260">
<text x="181" y="18" text-anchor="middle" font-size="13" font-weight="bold" fill="#e0e0e0">최근 1주 요일별 활동</text>
<text x="24" y="46" text-anchor="end" font-size="12" fill="#cccccc">일</text><rect x="28" y="30" width="280" height="22" rx="3" fill="#216e39"><title>일: 9911.5점</title></rect><text x="313" y="46" font-size="10" fill="#cccccc">9911.5</text><text x="24" y="74" text-anchor="end" font-size="12" fill="#cccccc">월</text><rect x="28" y="58" width="207" height="22" rx="3" fill="#30a14e"><title>월: 7349.5점</title></rect><text x="240" y="74" font-size="10" fill="#cccccc">7349.5</text><text x="24" y="102" text-anchor="end" font-size="12" fill="#cccccc">화</text><rect x="28" y="86" width="198" height="22" rx="3" fill="#30a14e"><title>화: 7032.6점</title></rect><text x="231" y="102" font-size="10" fill="#cccccc">7032.6</text><text x="24" y="130" text-anchor="end" font-size="12" fill="#cccccc">수</text><rect x="28" y="114" width="165" height="22" rx="3" fill="#30a14e"><title>수: 5855.5점</title></rect><text x="198" y="130" font-size="10" fill="#cccccc">5855.5</text><text x="24" y="158" text-anchor="end" font-size="12" fill="#cccccc">목</text><rect x="28" y="142" width="42" height="22" rx="3" fill="#9be9a8"><title>목: 1493.3점</title></rect><text x="75" y="158" font-size="10" fill="#cccccc">1493.3</text><text x="24" y="186" text-anchor="end" font-size="12" fill="#cccccc">금</text><rect x="28" y="170" width="18" height="22" rx="3" fill="#9be9a8"><title>금: 643.1점</title></rect><text x="51" y="186" font-size="10" fill="#cccccc">643.1</text><text x="24" y="214" text-anchor="end" font-size="12" fill="#cccccc">토</text><rect x="28" y="198" width="2" height="22" rx="3" fill="#9be9a8"><title>토: 16.6점</title></rect><text x="35" y="214" font-size="10" fill="#cccccc">16.6</text>
<text x="28" y="254" font-size="9" fill="#999999">기준: 2026-06-27 09:06</text>
</svg>