<svg xmlns="http://www.w3.org/2000/svg" width="363" height="260">
<text x="181" y="18" text-anchor="middle" font-size="13" font-weight="bold" fill="#e0e0e0">최근 2주 요일별 활동</text>
<text x="24" y="46" text-anchor="end" font-size="12" fill="#cccccc">일</text><rect x="28" y="30" width="151" height="22" rx="3" fill="#30a14e"><title>일: 7253.1점</title></rect><text x="184" y="46" font-size="10" fill="#cccccc">7253.1</text><text x="24" y="74" text-anchor="end" font-size="12" fill="#cccccc">월</text><rect x="28" y="58" width="140" height="22" rx="3" fill="#30a14e"><title>월: 6702.0점</title></rect><text x="173" y="74" font-size="10" fill="#cccccc">6702.0</text><text x="24" y="102" text-anchor="end" font-size="12" fill="#cccccc">화</text><rect x="28" y="86" width="119" height="22" rx="3" fill="#40c463"><title>화: 5722.9점</title></rect><text x="152" y="102" font-size="10" fill="#cccccc">5722.9</text><text x="24" y="130" text-anchor="end" font-size="12" fill="#cccccc">수</text><rect x="28" y="114" width="69" height="22" rx="3" fill="#9be9a8"><title>수: 3310.5점</title></rect><text x="102" y="130" font-size="10" fill="#cccccc">3310.5</text><text x="24" y="158" text-anchor="end" font-size="12" fill="#cccccc">목</text><rect x="28" y="142" width="280" height="22" rx="3" fill="#216e39"><title>목: 13381.2점</title></rect><text x="313" y="158" font-size="10" fill="#cccccc">13381.2</text><text x="24" y="186" text-anchor="end" font-size="12" fill="#cccccc">금</text><rect x="28" y="170" width="242" height="22" rx="3" fill="#216e39"><title>금: 11592.1점</title></rect><text x="275" y="186" font-size="10" fill="#cccccc">11592.1</text><text x="24" y="214" text-anchor="end" font-size="12" fill="#cccccc">토</text><rect x="28" y="198" width="174" height="22" rx="3" fill="#30a14e"><title>토: 8316.2점</title></rect><text x="207" y="214" font-size="10" fill="#cccccc">8316.2</text>
<text x="28" y="254" font-size="9" fill="#999999">기준: 2026-07-08 14:42</text>
</svg>