<svg xmlns="http://www.w3.org/2000/svg" width="363" height="260">
<text x="181" y="18" text-anchor="middle" font-size="13" font-weight="bold" fill="#111111">최근 1달 요일별 활동</text>
<text x="24" y="46" text-anchor="end" font-size="12" fill="#333333">일</text><rect x="28" y="30" width="198" height="22" rx="3" fill="#30a14e"><title>일: 5786.1점</title></rect><text x="231" y="46" font-size="10" fill="#333333">5786.1</text><text x="24" y="74" text-anchor="end" font-size="12" fill="#333333">월</text><rect x="28" y="58" width="138" height="22" rx="3" fill="#40c463"><title>월: 4042.0점</title></rect><text x="171" y="74" font-size="10" fill="#333333">4042.0</text><text x="24" y="102" text-anchor="end" font-size="12" fill="#333333">화</text><rect x="28" y="86" width="279" height="22" rx="3" fill="#216e39"><title>화: 8157.1점</title></rect><text x="312" y="102" font-size="10" fill="#333333">8157.1</text><text x="24" y="130" text-anchor="end" font-size="12" fill="#333333">수</text><rect x="28" y="114" width="280" height="22" rx="3" fill="#216e39"><title>수: 8161.1점</title></rect><text x="313" y="130" font-size="10" fill="#333333">8161.1</text><text x="24" y="158" text-anchor="end" font-size="12" fill="#333333">목</text><rect x="28" y="142" width="232" height="22" rx="3" fill="#216e39"><title>목: 6763.3점</title></rect><text x="265" y="158" font-size="10" fill="#333333">6763.3</text><text x="24" y="186" text-anchor="end" font-size="12" fill="#333333">금</text><rect x="28" y="170" width="171" height="22" rx="3" fill="#30a14e"><title>금: 5012.0점</title></rect><text x="204" y="186" font-size="10" fill="#333333">5012.0</text><text x="24" y="214" text-anchor="end" font-size="12" fill="#333333">토</text><rect x="28" y="198" width="96" height="22" rx="3" fill="#40c463"><title>토: 2814.6점</title></rect><text x="129" y="214" font-size="10" fill="#333333">2814.6</text>
<text x="28" y="254" font-size="9" fill="#666666">기준: 2026-05-26 10:30</text>
</svg>