<svg xmlns="http://www.w3.org/2000/svg" width="363" height="260">
<text x="181" y="18" text-anchor="middle" font-size="13" font-weight="bold" fill="#111111">최근 2주 요일별 활동</text>
<text x="24" y="46" text-anchor="end" font-size="12" fill="#333333">일</text><rect x="28" y="30" width="280" height="22" rx="3" fill="#216e39"><title>일: 25428.6점</title></rect><text x="313" y="46" font-size="10" fill="#333333">25428.6</text><text x="24" y="74" text-anchor="end" font-size="12" fill="#333333">월</text><rect x="28" y="58" width="232" height="22" rx="3" fill="#216e39"><title>월: 21101.9점</title></rect><text x="265" y="74" font-size="10" fill="#333333">21101.9</text><text x="24" y="102" text-anchor="end" font-size="12" fill="#333333">화</text><rect x="28" y="86" width="236" height="22" rx="3" fill="#216e39"><title>화: 21519.5점</title></rect><text x="269" y="102" font-size="10" fill="#333333">21519.5</text><text x="24" y="130" text-anchor="end" font-size="12" fill="#333333">수</text><rect x="28" y="114" width="225" height="22" rx="3" fill="#216e39"><title>수: 20495.9점</title></rect><text x="258" y="130" font-size="10" fill="#333333">20495.9</text><text x="24" y="158" text-anchor="end" font-size="12" fill="#333333">목</text><rect x="28" y="142" width="82" height="22" rx="3" fill="#40c463"><title>목: 7481.0점</title></rect><text x="115" y="158" font-size="10" fill="#333333">7481.0</text><text x="24" y="186" text-anchor="end" font-size="12" fill="#333333">금</text><rect x="28" y="170" width="65" height="22" rx="3" fill="#9be9a8"><title>금: 5972.3점</title></rect><text x="98" y="186" font-size="10" fill="#333333">5972.3</text><text x="24" y="214" text-anchor="end" font-size="12" fill="#333333">토</text><rect x="28" y="198" width="197" height="22" rx="3" fill="#30a14e"><title>토: 17893.2점</title></rect><text x="230" y="214" font-size="10" fill="#333333">17893.2</text>
<text x="28" y="254" font-size="9" fill="#666666">기준: 2026-07-03 19:51</text>
</svg>