<svg xmlns="http://www.w3.org/2000/svg" width="363" height="260">
<text x="181" y="18" text-anchor="middle" font-size="13" font-weight="bold" fill="#111111">최근 1주 요일별 활동</text>
<text x="24" y="46" text-anchor="end" font-size="12" fill="#333333">일</text><rect x="28" y="30" width="163" height="22" rx="3" fill="#30a14e"><title>일: 229.2점</title></rect><text x="196" y="46" font-size="10" fill="#333333">229.2</text><text x="24" y="74" text-anchor="end" font-size="12" fill="#333333">월</text><rect x="28" y="58" width="56" height="22" rx="3" fill="#9be9a8"><title>월: 79.8점</title></rect><text x="89" y="74" font-size="10" fill="#333333">79.8</text><text x="24" y="102" text-anchor="end" font-size="12" fill="#333333">화</text><rect x="28" y="86" width="242" height="22" rx="3" fill="#216e39"><title>화: 340.3점</title></rect><text x="275" y="102" font-size="10" fill="#333333">340.3</text><text x="24" y="130" text-anchor="end" font-size="12" fill="#333333">수</text><rect x="28" y="114" width="25" height="22" rx="3" fill="#9be9a8"><title>수: 36.2점</title></rect><text x="58" y="130" font-size="10" fill="#333333">36.2</text><text x="24" y="158" text-anchor="end" font-size="12" fill="#333333">목</text><rect x="28" y="142" width="275" height="22" rx="3" fill="#216e39"><title>목: 387.5점</title></rect><text x="308" y="158" font-size="10" fill="#333333">387.5</text><text x="24" y="186" text-anchor="end" font-size="12" fill="#333333">금</text><rect x="28" y="170" width="270" height="22" rx="3" fill="#216e39"><title>금: 380.5점</title></rect><text x="303" y="186" font-size="10" fill="#333333">380.5</text><text x="24" y="214" text-anchor="end" font-size="12" fill="#333333">토</text><rect x="28" y="198" width="280" height="22" rx="3" fill="#216e39"><title>토: 393.5점</title></rect><text x="313" y="214" font-size="10" fill="#333333">393.5</text>
<text x="28" y="254" font-size="9" fill="#666666">기준: 2026-05-20 15:59</text>
</svg>