<svg xmlns="http://www.w3.org/2000/svg" width="363" height="260">
<text x="181" y="18" text-anchor="middle" font-size="13" font-weight="bold" fill="#e0e0e0">최근 2주 요일별 활동</text>
<text x="24" y="46" text-anchor="end" font-size="12" fill="#cccccc">일</text><rect x="28" y="30" width="193" height="22" rx="3" fill="#30a14e"><title>일: 1697.9점</title></rect><text x="226" y="46" font-size="10" fill="#cccccc">1697.9</text><text x="24" y="74" text-anchor="end" font-size="12" fill="#cccccc">월</text><rect x="28" y="58" width="121" height="22" rx="3" fill="#40c463"><title>월: 1065.7점</title></rect><text x="154" y="74" font-size="10" fill="#cccccc">1065.7</text><text x="24" y="102" text-anchor="end" font-size="12" fill="#cccccc">화</text><rect x="28" y="86" width="280" height="22" rx="3" fill="#216e39"><title>화: 2463.1점</title></rect><text x="313" y="102" font-size="10" fill="#cccccc">2463.1</text><text x="24" y="130" text-anchor="end" font-size="12" fill="#cccccc">수</text><rect x="28" y="114" width="161" height="22" rx="3" fill="#30a14e"><title>수: 1417.1점</title></rect><text x="194" y="130" font-size="10" fill="#cccccc">1417.1</text><text x="24" y="158" text-anchor="end" font-size="12" fill="#cccccc">목</text><rect x="28" y="142" width="131" height="22" rx="3" fill="#40c463"><title>목: 1157.5점</title></rect><text x="164" y="158" font-size="10" fill="#cccccc">1157.5</text><text x="24" y="186" text-anchor="end" font-size="12" fill="#cccccc">금</text><rect x="28" y="170" width="99" height="22" rx="3" fill="#40c463"><title>금: 875.5점</title></rect><text x="132" y="186" font-size="10" fill="#cccccc">875.5</text><text x="24" y="214" text-anchor="end" font-size="12" fill="#cccccc">토</text><rect x="28" y="198" width="70" height="22" rx="3" fill="#40c463"><title>토: 624.5점</title></rect><text x="103" y="214" font-size="10" fill="#cccccc">624.5</text>
<text x="28" y="254" font-size="9" fill="#999999">기준: 2026-05-23 22:10</text>
</svg>