<svg xmlns="http://www.w3.org/2000/svg" width="363" height="260">
<text x="181" y="18" text-anchor="middle" font-size="13" font-weight="bold" fill="#e0e0e0">최근 2주 요일별 활동</text>
<text x="24" y="46" text-anchor="end" font-size="12" fill="#cccccc">일</text><rect x="28" y="30" width="276" height="22" rx="3" fill="#216e39"><title>일: 14133.9점</title></rect><text x="309" y="46" font-size="10" fill="#cccccc">14133.9</text><text x="24" y="74" text-anchor="end" font-size="12" fill="#cccccc">월</text><rect x="28" y="58" width="209" height="22" rx="3" fill="#30a14e"><title>월: 10694.4점</title></rect><text x="242" y="74" font-size="10" fill="#cccccc">10694.4</text><text x="24" y="102" text-anchor="end" font-size="12" fill="#cccccc">화</text><rect x="28" y="86" width="272" height="22" rx="3" fill="#216e39"><title>화: 13935.8점</title></rect><text x="305" y="102" font-size="10" fill="#cccccc">13935.8</text><text x="24" y="130" text-anchor="end" font-size="12" fill="#cccccc">수</text><rect x="28" y="114" width="280" height="22" rx="3" fill="#216e39"><title>수: 14314.9점</title></rect><text x="313" y="130" font-size="10" fill="#cccccc">14314.9</text><text x="24" y="158" text-anchor="end" font-size="12" fill="#cccccc">목</text><rect x="28" y="142" width="138" height="22" rx="3" fill="#40c463"><title>목: 7073.3점</title></rect><text x="171" y="158" font-size="10" fill="#cccccc">7073.3</text><text x="24" y="186" text-anchor="end" font-size="12" fill="#cccccc">금</text><rect x="28" y="170" width="150" height="22" rx="3" fill="#30a14e"><title>금: 7670.7점</title></rect><text x="183" y="186" font-size="10" fill="#cccccc">7670.7</text><text x="24" y="214" text-anchor="end" font-size="12" fill="#cccccc">토</text><rect x="28" y="198" width="202" height="22" rx="3" fill="#30a14e"><title>토: 10374.3점</title></rect><text x="235" y="214" font-size="10" fill="#cccccc">10374.3</text>
<text x="28" y="254" font-size="9" fill="#999999">기준: 2026-06-29 05:01</text>
</svg>