<svg xmlns="http://www.w3.org/2000/svg" width="363" height="260">
<text x="181" y="18" text-anchor="middle" font-size="13" font-weight="bold" fill="#111111">최근 1주 요일별 활동</text>
<text x="24" y="46" text-anchor="end" font-size="12" fill="#333333">일</text><rect x="28" y="30" width="226" height="22" rx="3" fill="#216e39"><title>일: 2693.5점</title></rect><text x="259" y="46" font-size="10" fill="#333333">2693.5</text><text x="24" y="74" text-anchor="end" font-size="12" fill="#333333">월</text><rect x="28" y="58" width="101" height="22" rx="3" fill="#40c463"><title>월: 1210.0점</title></rect><text x="134" y="74" font-size="10" fill="#333333">1210.0</text><text x="24" y="102" text-anchor="end" font-size="12" fill="#333333">화</text><rect x="28" y="86" width="280" height="22" rx="3" fill="#216e39"><title>화: 3333.7점</title></rect><text x="313" y="102" font-size="10" fill="#333333">3333.7</text><text x="24" y="130" text-anchor="end" font-size="12" fill="#333333">수</text><rect x="28" y="114" width="109" height="22" rx="3" fill="#40c463"><title>수: 1298.6점</title></rect><text x="142" y="130" font-size="10" fill="#333333">1298.6</text><text x="24" y="158" text-anchor="end" font-size="12" fill="#333333">목</text><rect x="28" y="142" width="32" height="22" rx="3" fill="#9be9a8"><title>목: 385.0점</title></rect><text x="65" y="158" font-size="10" fill="#333333">385.0</text><text x="24" y="186" text-anchor="end" font-size="12" fill="#333333">금</text><rect x="28" y="170" width="9" height="22" rx="3" fill="#9be9a8"><title>금: 110.0점</title></rect><text x="42" y="186" font-size="10" fill="#333333">110.0</text><text x="24" y="214" text-anchor="end" font-size="12" fill="#333333">토</text><rect x="28" y="198" width="219" height="22" rx="3" fill="#216e39"><title>토: 2618.0점</title></rect><text x="252" y="214" font-size="10" fill="#333333">2618.0</text>
<text x="28" y="254" font-size="9" fill="#666666">기준: 2026-06-12 22:49</text>
</svg>