<svg xmlns="http://www.w3.org/2000/svg" width="363" height="260">
<text x="181" y="18" text-anchor="middle" font-size="13" font-weight="bold" fill="#e0e0e0">최근 1주 요일별 활동</text>
<text x="24" y="46" text-anchor="end" font-size="12" fill="#cccccc">일</text><rect x="28" y="30" width="24" height="22" rx="3" fill="#9be9a8"><title>일: 118.0점</title></rect><text x="57" y="46" font-size="10" fill="#cccccc">118.0</text><text x="24" y="74" text-anchor="end" font-size="12" fill="#cccccc">월</text><rect x="28" y="58" width="280" height="22" rx="3" fill="#216e39"><title>월: 1360.4점</title></rect><text x="313" y="74" font-size="10" fill="#cccccc">1360.4</text><text x="24" y="102" text-anchor="end" font-size="12" fill="#cccccc">화</text><rect x="28" y="86" width="241" height="22" rx="3" fill="#216e39"><title>화: 1173.0점</title></rect><text x="274" y="102" font-size="10" fill="#cccccc">1173.0</text><text x="24" y="130" text-anchor="end" font-size="12" fill="#cccccc">수</text><rect x="28" y="114" width="194" height="22" rx="3" fill="#30a14e"><title>수: 946.0점</title></rect><text x="227" y="130" font-size="10" fill="#cccccc">946.0</text><text x="24" y="158" text-anchor="end" font-size="12" fill="#cccccc">목</text><rect x="28" y="142" width="192" height="22" rx="3" fill="#30a14e"><title>목: 935.0점</title></rect><text x="225" y="158" font-size="10" fill="#cccccc">935.0</text><text x="24" y="186" text-anchor="end" font-size="12" fill="#cccccc">금</text><rect x="28" y="170" width="135" height="22" rx="3" fill="#40c463"><title>금: 660.0점</title></rect><text x="168" y="186" font-size="10" fill="#cccccc">660.0</text><text x="24" y="214" text-anchor="end" font-size="12" fill="#cccccc">토</text><rect x="28" y="198" width="95" height="22" rx="3" fill="#40c463"><title>토: 462.0점</title></rect><text x="128" y="214" font-size="10" fill="#cccccc">462.0</text>
<text x="28" y="254" font-size="9" fill="#999999">기준: 2026-06-07 14:22</text>
</svg>