<svg xmlns="http://www.w3.org/2000/svg" width="363" height="260">
<text x="181" y="18" text-anchor="middle" font-size="13" font-weight="bold" fill="#111111">최근 2주 요일별 활동</text>
<text x="24" y="46" text-anchor="end" font-size="12" fill="#333333">일</text><rect x="28" y="30" width="147" height="22" rx="3" fill="#30a14e"><title>일: 2810.0점</title></rect><text x="180" y="46" font-size="10" fill="#333333">2810.0</text><text x="24" y="74" text-anchor="end" font-size="12" fill="#333333">월</text><rect x="28" y="58" width="280" height="22" rx="3" fill="#216e39"><title>월: 5348.6점</title></rect><text x="313" y="74" font-size="10" fill="#333333">5348.6</text><text x="24" y="102" text-anchor="end" font-size="12" fill="#333333">화</text><rect x="28" y="86" width="255" height="22" rx="3" fill="#216e39"><title>화: 4885.8점</title></rect><text x="288" y="102" font-size="10" fill="#333333">4885.8</text><text x="24" y="130" text-anchor="end" font-size="12" fill="#333333">수</text><rect x="28" y="114" width="229" height="22" rx="3" fill="#216e39"><title>수: 4378.0점</title></rect><text x="262" y="130" font-size="10" fill="#333333">4378.0</text><text x="24" y="158" text-anchor="end" font-size="12" fill="#333333">목</text><rect x="28" y="142" width="215" height="22" rx="3" fill="#216e39"><title>목: 4125.0점</title></rect><text x="248" y="158" font-size="10" fill="#333333">4125.0</text><text x="24" y="186" text-anchor="end" font-size="12" fill="#333333">금</text><rect x="28" y="170" width="187" height="22" rx="3" fill="#30a14e"><title>금: 3575.0점</title></rect><text x="220" y="186" font-size="10" fill="#333333">3575.0</text><text x="24" y="214" text-anchor="end" font-size="12" fill="#333333">토</text><rect x="28" y="198" width="213" height="22" rx="3" fill="#216e39"><title>토: 4081.0점</title></rect><text x="246" y="214" font-size="10" fill="#333333">4081.0</text>
<text x="28" y="254" font-size="9" fill="#666666">기준: 2026-06-07 22:31</text>
</svg>