<svg xmlns="http://www.w3.org/2000/svg" width="363" height="260">
<text x="181" y="18" text-anchor="middle" font-size="13" font-weight="bold" fill="#111111">최근 1주 요일별 활동</text>
<text x="24" y="46" text-anchor="end" font-size="12" fill="#333333">일</text><rect x="28" y="30" width="280" height="22" rx="3" fill="#216e39"><title>일: 2233.0점</title></rect><text x="313" y="46" font-size="10" fill="#333333">2233.0</text><text x="24" y="74" text-anchor="end" font-size="12" fill="#333333">월</text><rect x="28" y="58" width="158" height="22" rx="3" fill="#30a14e"><title>월: 1265.0점</title></rect><text x="191" y="74" font-size="10" fill="#333333">1265.0</text><text x="24" y="102" text-anchor="end" font-size="12" fill="#333333">화</text><rect x="28" y="86" width="124" height="22" rx="3" fill="#40c463"><title>화: 990.0점</title></rect><text x="157" y="102" font-size="10" fill="#333333">990.0</text><text x="24" y="130" text-anchor="end" font-size="12" fill="#333333">수</text><rect x="28" y="114" width="89" height="22" rx="3" fill="#40c463"><title>수: 715.0점</title></rect><text x="122" y="130" font-size="10" fill="#333333">715.0</text><text x="24" y="158" text-anchor="end" font-size="12" fill="#333333">목</text><rect x="28" y="142" width="55" height="22" rx="3" fill="#9be9a8"><title>목: 440.0점</title></rect><text x="88" y="158" font-size="10" fill="#333333">440.0</text><text x="24" y="186" text-anchor="end" font-size="12" fill="#333333">금</text><rect x="28" y="170" width="20" height="22" rx="3" fill="#9be9a8"><title>금: 165.0점</title></rect><text x="53" y="186" font-size="10" fill="#333333">165.0</text><text x="24" y="214" text-anchor="end" font-size="12" fill="#333333">토</text><rect x="28" y="198" width="2" height="22" rx="3" fill="#ebedf0"><title>토: 0.0점</title></rect><text x="35" y="214" font-size="10" fill="#333333">0.0</text>
<text x="28" y="254" font-size="9" fill="#666666">기준: 2026-05-30 04:28</text>
</svg>