<svg xmlns="http://www.w3.org/2000/svg" width="363" height="260">
<text x="181" y="18" text-anchor="middle" font-size="13" font-weight="bold" fill="#111111">최근 2주 요일별 활동</text>
<text x="24" y="46" text-anchor="end" font-size="12" fill="#333333">일</text><rect x="28" y="30" width="280" height="22" rx="3" fill="#216e39"><title>일: 11331.2점</title></rect><text x="313" y="46" font-size="10" fill="#333333">11331.2</text><text x="24" y="74" text-anchor="end" font-size="12" fill="#333333">월</text><rect x="28" y="58" width="275" height="22" rx="3" fill="#216e39"><title>월: 11158.6점</title></rect><text x="308" y="74" font-size="10" fill="#333333">11158.6</text><text x="24" y="102" text-anchor="end" font-size="12" fill="#333333">화</text><rect x="28" y="86" width="259" height="22" rx="3" fill="#216e39"><title>화: 10494.1점</title></rect><text x="292" y="102" font-size="10" fill="#333333">10494.1</text><text x="24" y="130" text-anchor="end" font-size="12" fill="#333333">수</text><rect x="28" y="114" width="189" height="22" rx="3" fill="#30a14e"><title>수: 7662.5점</title></rect><text x="222" y="130" font-size="10" fill="#333333">7662.5</text><text x="24" y="158" text-anchor="end" font-size="12" fill="#333333">목</text><rect x="28" y="142" width="129" height="22" rx="3" fill="#40c463"><title>목: 5252.1점</title></rect><text x="162" y="158" font-size="10" fill="#333333">5252.1</text><text x="24" y="186" text-anchor="end" font-size="12" fill="#333333">금</text><rect x="28" y="170" width="110" height="22" rx="3" fill="#40c463"><title>금: 4479.2점</title></rect><text x="143" y="186" font-size="10" fill="#333333">4479.2</text><text x="24" y="214" text-anchor="end" font-size="12" fill="#333333">토</text><rect x="28" y="198" width="126" height="22" rx="3" fill="#40c463"><title>토: 5127.1점</title></rect><text x="159" y="214" font-size="10" fill="#333333">5127.1</text>
<text x="28" y="254" font-size="9" fill="#666666">기준: 2026-07-11 13:56</text>
</svg>