<svg xmlns="http://www.w3.org/2000/svg" width="363" height="260">
<text x="181" y="18" text-anchor="middle" font-size="13" font-weight="bold" fill="#111111">최근 1주 요일별 활동</text>
<text x="24" y="46" text-anchor="end" font-size="12" fill="#333333">일</text><rect x="28" y="30" width="18" height="22" rx="3" fill="#9be9a8"><title>일: 429.0점</title></rect><text x="51" y="46" font-size="10" fill="#333333">429.0</text><text x="24" y="74" text-anchor="end" font-size="12" fill="#333333">월</text><rect x="28" y="58" width="4" height="22" rx="3" fill="#9be9a8"><title>월: 91.4점</title></rect><text x="37" y="74" font-size="10" fill="#333333">91.4</text><text x="24" y="102" text-anchor="end" font-size="12" fill="#333333">화</text><rect x="28" y="86" width="280" height="22" rx="3" fill="#216e39"><title>화: 6322.8점</title></rect><text x="313" y="102" font-size="10" fill="#333333">6322.8</text><text x="24" y="130" text-anchor="end" font-size="12" fill="#333333">수</text><rect x="28" y="114" width="131" height="22" rx="3" fill="#40c463"><title>수: 2964.5점</title></rect><text x="164" y="130" font-size="10" fill="#333333">2964.5</text><text x="24" y="158" text-anchor="end" font-size="12" fill="#333333">목</text><rect x="28" y="142" width="56" height="22" rx="3" fill="#9be9a8"><title>목: 1265.0점</title></rect><text x="89" y="158" font-size="10" fill="#333333">1265.0</text><text x="24" y="186" text-anchor="end" font-size="12" fill="#333333">금</text><rect x="28" y="170" width="43" height="22" rx="3" fill="#9be9a8"><title>금: 990.0점</title></rect><text x="76" y="186" font-size="10" fill="#333333">990.0</text><text x="24" y="214" text-anchor="end" font-size="12" fill="#333333">토</text><rect x="28" y="198" width="72" height="22" rx="3" fill="#40c463"><title>토: 1640.0점</title></rect><text x="105" y="214" font-size="10" fill="#333333">1640.0</text>
<text x="28" y="254" font-size="9" fill="#666666">기준: 2026-06-15 23:11</text>
</svg>