<svg xmlns="http://www.w3.org/2000/svg" width="363" height="260">
<text x="181" y="18" text-anchor="middle" font-size="13" font-weight="bold" fill="#111111">최근 1달 요일별 활동</text>
<text x="24" y="46" text-anchor="end" font-size="12" fill="#333333">일</text><rect x="28" y="30" width="272" height="22" rx="3" fill="#216e39"><title>일: 7336.5점</title></rect><text x="305" y="46" font-size="10" fill="#333333">7336.5</text><text x="24" y="74" text-anchor="end" font-size="12" fill="#333333">월</text><rect x="28" y="58" width="138" height="22" rx="3" fill="#40c463"><title>월: 3732.2점</title></rect><text x="171" y="74" font-size="10" fill="#333333">3732.2</text><text x="24" y="102" text-anchor="end" font-size="12" fill="#333333">화</text><rect x="28" y="86" width="280" height="22" rx="3" fill="#216e39"><title>화: 7532.3점</title></rect><text x="313" y="102" font-size="10" fill="#333333">7532.3</text><text x="24" y="130" text-anchor="end" font-size="12" fill="#333333">수</text><rect x="28" y="114" width="276" height="22" rx="3" fill="#216e39"><title>수: 7442.4점</title></rect><text x="309" y="130" font-size="10" fill="#333333">7442.4</text><text x="24" y="158" text-anchor="end" font-size="12" fill="#333333">목</text><rect x="28" y="142" width="233" height="22" rx="3" fill="#216e39"><title>목: 6268.3점</title></rect><text x="266" y="158" font-size="10" fill="#333333">6268.3</text><text x="24" y="186" text-anchor="end" font-size="12" fill="#333333">금</text><rect x="28" y="170" width="167" height="22" rx="3" fill="#30a14e"><title>금: 4517.0점</title></rect><text x="200" y="186" font-size="10" fill="#333333">4517.0</text><text x="24" y="214" text-anchor="end" font-size="12" fill="#333333">토</text><rect x="28" y="198" width="129" height="22" rx="3" fill="#40c463"><title>토: 3473.6점</title></rect><text x="162" y="214" font-size="10" fill="#333333">3473.6</text>
<text x="28" y="254" font-size="9" fill="#666666">기준: 2026-05-24 16:15</text>
</svg>