<svg xmlns="http://www.w3.org/2000/svg" width="363" height="260">
<text x="181" y="18" text-anchor="middle" font-size="13" font-weight="bold" fill="#e0e0e0">최근 1달 요일별 활동</text>
<text x="24" y="46" text-anchor="end" font-size="12" fill="#cccccc">일</text><rect x="28" y="30" width="257" height="22" rx="3" fill="#216e39"><title>일: 7557.3점</title></rect><text x="290" y="46" font-size="10" fill="#cccccc">7557.3</text><text x="24" y="74" text-anchor="end" font-size="12" fill="#cccccc">월</text><rect x="28" y="58" width="147" height="22" rx="3" fill="#30a14e"><title>월: 4334.7점</title></rect><text x="180" y="74" font-size="10" fill="#cccccc">4334.7</text><text x="24" y="102" text-anchor="end" font-size="12" fill="#cccccc">화</text><rect x="28" y="86" width="280" height="22" rx="3" fill="#216e39"><title>화: 8209.1점</title></rect><text x="313" y="102" font-size="10" fill="#cccccc">8209.1</text><text x="24" y="130" text-anchor="end" font-size="12" fill="#cccccc">수</text><rect x="28" y="114" width="204" height="22" rx="3" fill="#30a14e"><title>수: 5986.3점</title></rect><text x="237" y="130" font-size="10" fill="#cccccc">5986.3</text><text x="24" y="158" text-anchor="end" font-size="12" fill="#cccccc">목</text><rect x="28" y="142" width="266" height="22" rx="3" fill="#216e39"><title>목: 7808.3점</title></rect><text x="299" y="158" font-size="10" fill="#cccccc">7808.3</text><text x="24" y="186" text-anchor="end" font-size="12" fill="#cccccc">금</text><rect x="28" y="170" width="199" height="22" rx="3" fill="#30a14e"><title>금: 5848.0점</title></rect><text x="232" y="186" font-size="10" fill="#cccccc">5848.0</text><text x="24" y="214" text-anchor="end" font-size="12" fill="#cccccc">토</text><rect x="28" y="198" width="135" height="22" rx="3" fill="#40c463"><title>토: 3969.6점</title></rect><text x="168" y="214" font-size="10" fill="#cccccc">3969.6</text>
<text x="28" y="254" font-size="9" fill="#999999">기준: 2026-05-29 10:15</text>
</svg>