<svg xmlns="http://www.w3.org/2000/svg" width="363" height="260">
<text x="181" y="18" text-anchor="middle" font-size="13" font-weight="bold" fill="#e0e0e0">최근 2주 요일별 활동</text>
<text x="24" y="46" text-anchor="end" font-size="12" fill="#cccccc">일</text><rect x="28" y="30" width="239" height="22" rx="3" fill="#216e39"><title>일: 6658.2점</title></rect><text x="272" y="46" font-size="10" fill="#cccccc">6658.2</text><text x="24" y="74" text-anchor="end" font-size="12" fill="#cccccc">월</text><rect x="28" y="58" width="135" height="22" rx="3" fill="#40c463"><title>월: 3759.6점</title></rect><text x="168" y="74" font-size="10" fill="#cccccc">3759.6</text><text x="24" y="102" text-anchor="end" font-size="12" fill="#cccccc">화</text><rect x="28" y="86" width="200" height="22" rx="3" fill="#30a14e"><title>화: 5560.7점</title></rect><text x="233" y="102" font-size="10" fill="#cccccc">5560.7</text><text x="24" y="130" text-anchor="end" font-size="12" fill="#cccccc">수</text><rect x="28" y="114" width="119" height="22" rx="3" fill="#40c463"><title>수: 3328.4점</title></rect><text x="152" y="130" font-size="10" fill="#cccccc">3328.4</text><text x="24" y="158" text-anchor="end" font-size="12" fill="#cccccc">목</text><rect x="28" y="142" width="99" height="22" rx="3" fill="#40c463"><title>목: 2750.0점</title></rect><text x="132" y="158" font-size="10" fill="#cccccc">2750.0</text><text x="24" y="186" text-anchor="end" font-size="12" fill="#cccccc">금</text><rect x="28" y="170" width="79" height="22" rx="3" fill="#40c463"><title>금: 2211.0점</title></rect><text x="112" y="186" font-size="10" fill="#cccccc">2211.0</text><text x="24" y="214" text-anchor="end" font-size="12" fill="#cccccc">토</text><rect x="28" y="198" width="280" height="22" rx="3" fill="#216e39"><title>토: 7777.0점</title></rect><text x="313" y="214" font-size="10" fill="#cccccc">7777.0</text>
<text x="28" y="254" font-size="9" fill="#999999">기준: 2026-06-12 20:28</text>
</svg>