<svg xmlns="http://www.w3.org/2000/svg" width="363" height="260">
<text x="181" y="18" text-anchor="middle" font-size="13" font-weight="bold" fill="#e0e0e0">최근 2주 요일별 활동</text>
<text x="24" y="46" text-anchor="end" font-size="12" fill="#cccccc">일</text><rect x="28" y="30" width="114" height="22" rx="3" fill="#40c463"><title>일: 1223.1점</title></rect><text x="147" y="46" font-size="10" fill="#cccccc">1223.1</text><text x="24" y="74" text-anchor="end" font-size="12" fill="#cccccc">월</text><rect x="28" y="58" width="82" height="22" rx="3" fill="#40c463"><title>월: 886.0점</title></rect><text x="115" y="74" font-size="10" fill="#cccccc">886.0</text><text x="24" y="102" text-anchor="end" font-size="12" fill="#cccccc">화</text><rect x="28" y="86" width="115" height="22" rx="3" fill="#40c463"><title>화: 1235.5점</title></rect><text x="148" y="102" font-size="10" fill="#cccccc">1235.5</text><text x="24" y="130" text-anchor="end" font-size="12" fill="#cccccc">수</text><rect x="28" y="114" width="35" height="22" rx="3" fill="#9be9a8"><title>수: 380.5점</title></rect><text x="68" y="130" font-size="10" fill="#cccccc">380.5</text><text x="24" y="158" text-anchor="end" font-size="12" fill="#cccccc">목</text><rect x="28" y="142" width="280" height="22" rx="3" fill="#216e39"><title>목: 2997.2점</title></rect><text x="313" y="158" font-size="10" fill="#cccccc">2997.2</text><text x="24" y="186" text-anchor="end" font-size="12" fill="#cccccc">금</text><rect x="28" y="170" width="242" height="22" rx="3" fill="#216e39"><title>금: 2599.0점</title></rect><text x="275" y="186" font-size="10" fill="#cccccc">2599.0</text><text x="24" y="214" text-anchor="end" font-size="12" fill="#cccccc">토</text><rect x="28" y="198" width="128" height="22" rx="3" fill="#40c463"><title>토: 1374.0점</title></rect><text x="161" y="214" font-size="10" fill="#cccccc">1374.0</text>
<text x="28" y="254" font-size="9" fill="#999999">기준: 2026-05-20 20:31</text>
</svg>