<svg xmlns="http://www.w3.org/2000/svg" width="363" height="260">
<text x="181" y="18" text-anchor="middle" font-size="13" font-weight="bold" fill="#e0e0e0">최근 1주 요일별 활동</text>
<text x="24" y="46" text-anchor="end" font-size="12" fill="#cccccc">일</text><rect x="28" y="30" width="145" height="22" rx="3" fill="#30a14e"><title>일: 413.9점</title></rect><text x="178" y="46" font-size="10" fill="#cccccc">413.9</text><text x="24" y="74" text-anchor="end" font-size="12" fill="#cccccc">월</text><rect x="28" y="58" width="52" height="22" rx="3" fill="#9be9a8"><title>월: 149.7점</title></rect><text x="85" y="74" font-size="10" fill="#cccccc">149.7</text><text x="24" y="102" text-anchor="end" font-size="12" fill="#cccccc">화</text><rect x="28" y="86" width="280" height="22" rx="3" fill="#216e39"><title>화: 798.3점</title></rect><text x="313" y="102" font-size="10" fill="#cccccc">798.3</text><text x="24" y="130" text-anchor="end" font-size="12" fill="#cccccc">수</text><rect x="28" y="114" width="144" height="22" rx="3" fill="#30a14e"><title>수: 410.6점</title></rect><text x="177" y="130" font-size="10" fill="#cccccc">410.6</text><text x="24" y="158" text-anchor="end" font-size="12" fill="#cccccc">목</text><rect x="28" y="142" width="38" height="22" rx="3" fill="#9be9a8"><title>목: 110.0점</title></rect><text x="71" y="158" font-size="10" fill="#cccccc">110.0</text><text x="24" y="186" text-anchor="end" font-size="12" fill="#cccccc">금</text><rect x="28" y="170" width="133" height="22" rx="3" fill="#40c463"><title>금: 380.5점</title></rect><text x="166" y="186" font-size="10" fill="#cccccc">380.5</text><text x="24" y="214" text-anchor="end" font-size="12" fill="#cccccc">토</text><rect x="28" y="198" width="138" height="22" rx="3" fill="#40c463"><title>토: 393.5점</title></rect><text x="171" y="214" font-size="10" fill="#cccccc">393.5</text>
<text x="28" y="254" font-size="9" fill="#999999">기준: 2026-05-21 22:43</text>
</svg>