<svg xmlns="http://www.w3.org/2000/svg" width="363" height="260">
<text x="181" y="18" text-anchor="middle" font-size="13" font-weight="bold" fill="#111111">최근 2주 요일별 활동</text>
<text x="24" y="46" text-anchor="end" font-size="12" fill="#333333">일</text><rect x="28" y="30" width="45" height="22" rx="3" fill="#9be9a8"><title>일: 4241.6점</title></rect><text x="78" y="46" font-size="10" fill="#333333">4241.6</text><text x="24" y="74" text-anchor="end" font-size="12" fill="#333333">월</text><rect x="28" y="58" width="271" height="22" rx="3" fill="#216e39"><title>월: 25405.8점</title></rect><text x="304" y="74" font-size="10" fill="#333333">25405.8</text><text x="24" y="102" text-anchor="end" font-size="12" fill="#333333">화</text><rect x="28" y="86" width="280" height="22" rx="3" fill="#216e39"><title>화: 26184.6점</title></rect><text x="313" y="102" font-size="10" fill="#333333">26184.6</text><text x="24" y="130" text-anchor="end" font-size="12" fill="#333333">수</text><rect x="28" y="114" width="269" height="22" rx="3" fill="#216e39"><title>수: 25168.7점</title></rect><text x="302" y="130" font-size="10" fill="#333333">25168.7</text><text x="24" y="158" text-anchor="end" font-size="12" fill="#333333">목</text><rect x="28" y="142" width="104" height="22" rx="3" fill="#40c463"><title>목: 9798.9점</title></rect><text x="137" y="158" font-size="10" fill="#333333">9798.9</text><text x="24" y="186" text-anchor="end" font-size="12" fill="#333333">금</text><rect x="28" y="170" width="87" height="22" rx="3" fill="#40c463"><title>금: 8173.4점</title></rect><text x="120" y="186" font-size="10" fill="#333333">8173.4</text><text x="24" y="214" text-anchor="end" font-size="12" fill="#333333">토</text><rect x="28" y="198" width="51" height="22" rx="3" fill="#9be9a8"><title>토: 4792.4점</title></rect><text x="84" y="214" font-size="10" fill="#333333">4792.4</text>
<text x="28" y="254" font-size="9" fill="#666666">기준: 2026-07-05 14:11</text>
</svg>