<svg xmlns="http://www.w3.org/2000/svg" width="363" height="260">
<text x="181" y="18" text-anchor="middle" font-size="13" font-weight="bold" fill="#111111">최근 1달 요일별 활동</text>
<text x="24" y="46" text-anchor="end" font-size="12" fill="#333333">일</text><rect x="28" y="30" width="272" height="22" rx="3" fill="#216e39"><title>일: 6939.0점</title></rect><text x="305" y="46" font-size="10" fill="#333333">6939.0</text><text x="24" y="74" text-anchor="end" font-size="12" fill="#333333">월</text><rect x="28" y="58" width="143" height="22" rx="3" fill="#30a14e"><title>월: 3662.3점</title></rect><text x="176" y="74" font-size="10" fill="#333333">3662.3</text><text x="24" y="102" text-anchor="end" font-size="12" fill="#333333">화</text><rect x="28" y="86" width="276" height="22" rx="3" fill="#216e39"><title>화: 7054.9점</title></rect><text x="309" y="102" font-size="10" fill="#333333">7054.9</text><text x="24" y="130" text-anchor="end" font-size="12" fill="#333333">수</text><rect x="28" y="114" width="269" height="22" rx="3" fill="#216e39"><title>수: 6883.4점</title></rect><text x="302" y="130" font-size="10" fill="#333333">6883.4</text><text x="24" y="158" text-anchor="end" font-size="12" fill="#333333">목</text><rect x="28" y="142" width="230" height="22" rx="3" fill="#216e39"><title>목: 5883.3점</title></rect><text x="263" y="158" font-size="10" fill="#333333">5883.3</text><text x="24" y="186" text-anchor="end" font-size="12" fill="#333333">금</text><rect x="28" y="170" width="280" height="22" rx="3" fill="#216e39"><title>금: 7142.6점</title></rect><text x="313" y="186" font-size="10" fill="#333333">7142.6</text><text x="24" y="214" text-anchor="end" font-size="12" fill="#333333">토</text><rect x="28" y="198" width="116" height="22" rx="3" fill="#40c463"><title>토: 2967.6점</title></rect><text x="149" y="214" font-size="10" fill="#333333">2967.6</text>
<text x="28" y="254" font-size="9" fill="#666666">기준: 2026-05-23 16:15</text>
</svg>