<svg xmlns="http://www.w3.org/2000/svg" width="363" height="260">
<text x="181" y="18" text-anchor="middle" font-size="13" font-weight="bold" fill="#e0e0e0">최근 2주 요일별 활동</text>
<text x="24" y="46" text-anchor="end" font-size="12" fill="#cccccc">일</text><rect x="28" y="30" width="142" height="22" rx="3" fill="#30a14e"><title>일: 2959.0점</title></rect><text x="175" y="46" font-size="10" fill="#cccccc">2959.0</text><text x="24" y="74" text-anchor="end" font-size="12" fill="#cccccc">월</text><rect x="28" y="58" width="117" height="22" rx="3" fill="#40c463"><title>월: 2448.6점</title></rect><text x="150" y="74" font-size="10" fill="#cccccc">2448.6</text><text x="24" y="102" text-anchor="end" font-size="12" fill="#cccccc">화</text><rect x="28" y="86" width="280" height="22" rx="3" fill="#216e39"><title>화: 5815.9점</title></rect><text x="313" y="102" font-size="10" fill="#cccccc">5815.9</text><text x="24" y="130" text-anchor="end" font-size="12" fill="#cccccc">수</text><rect x="28" y="114" width="229" height="22" rx="3" fill="#216e39"><title>수: 4763.4점</title></rect><text x="262" y="130" font-size="10" fill="#cccccc">4763.4</text><text x="24" y="158" text-anchor="end" font-size="12" fill="#cccccc">목</text><rect x="28" y="142" width="193" height="22" rx="3" fill="#30a14e"><title>목: 4015.0점</title></rect><text x="226" y="158" font-size="10" fill="#cccccc">4015.0</text><text x="24" y="186" text-anchor="end" font-size="12" fill="#cccccc">금</text><rect x="28" y="170" width="166" height="22" rx="3" fill="#30a14e"><title>금: 3465.0점</title></rect><text x="199" y="186" font-size="10" fill="#cccccc">3465.0</text><text x="24" y="214" text-anchor="end" font-size="12" fill="#cccccc">토</text><rect x="28" y="198" width="189" height="22" rx="3" fill="#30a14e"><title>토: 3927.0점</title></rect><text x="222" y="214" font-size="10" fill="#cccccc">3927.0</text>
<text x="28" y="254" font-size="9" fill="#999999">기준: 2026-05-31 14:13</text>
</svg>