<svg xmlns="http://www.w3.org/2000/svg" width="363" height="260">
<text x="181" y="18" text-anchor="middle" font-size="13" font-weight="bold" fill="#e0e0e0">최근 1달 요일별 활동</text>
<text x="24" y="46" text-anchor="end" font-size="12" fill="#cccccc">일</text><rect x="28" y="30" width="256" height="22" rx="3" fill="#216e39"><title>일: 20799.1점</title></rect><text x="289" y="46" font-size="10" fill="#cccccc">20799.1</text><text x="24" y="74" text-anchor="end" font-size="12" fill="#cccccc">월</text><rect x="28" y="58" width="148" height="22" rx="3" fill="#30a14e"><title>월: 12063.6점</title></rect><text x="181" y="74" font-size="10" fill="#cccccc">12063.6</text><text x="24" y="102" text-anchor="end" font-size="12" fill="#cccccc">화</text><rect x="28" y="86" width="280" height="22" rx="3" fill="#216e39"><title>화: 22719.9점</title></rect><text x="313" y="102" font-size="10" fill="#cccccc">22719.9</text><text x="24" y="130" text-anchor="end" font-size="12" fill="#cccccc">수</text><rect x="28" y="114" width="221" height="22" rx="3" fill="#216e39"><title>수: 17984.8점</title></rect><text x="254" y="130" font-size="10" fill="#cccccc">17984.8</text><text x="24" y="158" text-anchor="end" font-size="12" fill="#cccccc">목</text><rect x="28" y="142" width="197" height="22" rx="3" fill="#30a14e"><title>목: 16005.0점</title></rect><text x="230" y="158" font-size="10" fill="#cccccc">16005.0</text><text x="24" y="186" text-anchor="end" font-size="12" fill="#cccccc">금</text><rect x="28" y="170" width="183" height="22" rx="3" fill="#30a14e"><title>금: 14905.0점</title></rect><text x="216" y="186" font-size="10" fill="#cccccc">14905.0</text><text x="24" y="214" text-anchor="end" font-size="12" fill="#cccccc">토</text><rect x="28" y="198" width="244" height="22" rx="3" fill="#216e39"><title>토: 19853.2점</title></rect><text x="277" y="214" font-size="10" fill="#cccccc">19853.2</text>
<text x="28" y="254" font-size="9" fill="#999999">기준: 2026-06-14 16:47</text>
</svg>