<svg xmlns="http://www.w3.org/2000/svg" width="363" height="260">
<text x="181" y="18" text-anchor="middle" font-size="13" font-weight="bold" fill="#e0e0e0">최근 1달 요일별 활동</text>
<text x="24" y="46" text-anchor="end" font-size="12" fill="#cccccc">일</text><rect x="28" y="30" width="257" height="22" rx="3" fill="#216e39"><title>일: 15458.7점</title></rect><text x="290" y="46" font-size="10" fill="#cccccc">15458.7</text><text x="24" y="74" text-anchor="end" font-size="12" fill="#cccccc">월</text><rect x="28" y="58" width="145" height="22" rx="3" fill="#30a14e"><title>월: 8742.4점</title></rect><text x="178" y="74" font-size="10" fill="#cccccc">8742.4</text><text x="24" y="102" text-anchor="end" font-size="12" fill="#cccccc">화</text><rect x="28" y="86" width="280" height="22" rx="3" fill="#216e39"><title>화: 16799.8점</title></rect><text x="313" y="102" font-size="10" fill="#cccccc">16799.8</text><text x="24" y="130" text-anchor="end" font-size="12" fill="#cccccc">수</text><rect x="28" y="114" width="217" height="22" rx="3" fill="#216e39"><title>수: 13066.5점</title></rect><text x="250" y="130" font-size="10" fill="#cccccc">13066.5</text><text x="24" y="158" text-anchor="end" font-size="12" fill="#cccccc">목</text><rect x="28" y="142" width="202" height="22" rx="3" fill="#30a14e"><title>목: 12157.5점</title></rect><text x="235" y="158" font-size="10" fill="#cccccc">12157.5</text><text x="24" y="186" text-anchor="end" font-size="12" fill="#cccccc">금</text><rect x="28" y="170" width="188" height="22" rx="3" fill="#30a14e"><title>금: 11325.5점</title></rect><text x="221" y="186" font-size="10" fill="#cccccc">11325.5</text><text x="24" y="214" text-anchor="end" font-size="12" fill="#cccccc">토</text><rect x="28" y="198" width="238" height="22" rx="3" fill="#216e39"><title>토: 14330.5점</title></rect><text x="271" y="214" font-size="10" fill="#cccccc">14330.5</text>
<text x="28" y="254" font-size="9" fill="#999999">기준: 2026-06-10 22:58</text>
</svg>