<svg xmlns="http://www.w3.org/2000/svg" width="363" height="260">
<text x="181" y="18" text-anchor="middle" font-size="13" font-weight="bold" fill="#111111">최근 1달 요일별 활동</text>
<text x="24" y="46" text-anchor="end" font-size="12" fill="#333333">일</text><rect x="28" y="30" width="212" height="22" rx="3" fill="#216e39"><title>일: 6848.8점</title></rect><text x="245" y="46" font-size="10" fill="#333333">6848.8</text><text x="24" y="74" text-anchor="end" font-size="12" fill="#333333">월</text><rect x="28" y="58" width="122" height="22" rx="3" fill="#40c463"><title>월: 3944.8점</title></rect><text x="155" y="74" font-size="10" fill="#333333">3944.8</text><text x="24" y="102" text-anchor="end" font-size="12" fill="#333333">화</text><rect x="28" y="86" width="231" height="22" rx="3" fill="#216e39"><title>화: 7469.9점</title></rect><text x="264" y="102" font-size="10" fill="#333333">7469.9</text><text x="24" y="130" text-anchor="end" font-size="12" fill="#333333">수</text><rect x="28" y="114" width="280" height="22" rx="3" fill="#216e39"><title>수: 9044.9점</title></rect><text x="313" y="130" font-size="10" fill="#333333">9044.9</text><text x="24" y="158" text-anchor="end" font-size="12" fill="#333333">목</text><rect x="28" y="142" width="224" height="22" rx="3" fill="#216e39"><title>목: 7258.3점</title></rect><text x="257" y="158" font-size="10" fill="#333333">7258.3</text><text x="24" y="186" text-anchor="end" font-size="12" fill="#333333">금</text><rect x="28" y="170" width="170" height="22" rx="3" fill="#30a14e"><title>금: 5507.0점</title></rect><text x="203" y="186" font-size="10" fill="#333333">5507.0</text><text x="24" y="214" text-anchor="end" font-size="12" fill="#333333">토</text><rect x="28" y="198" width="108" height="22" rx="3" fill="#40c463"><title>토: 3507.6점</title></rect><text x="141" y="214" font-size="10" fill="#333333">3507.6</text>
<text x="28" y="254" font-size="9" fill="#666666">기준: 2026-05-28 04:44</text>
</svg>