<svg xmlns="http://www.w3.org/2000/svg" width="363" height="260">
<text x="181" y="18" text-anchor="middle" font-size="13" font-weight="bold" fill="#e0e0e0">최근 1주 요일별 활동</text>
<text x="24" y="46" text-anchor="end" font-size="12" fill="#cccccc">일</text><rect x="28" y="30" width="280" height="22" rx="3" fill="#216e39"><title>일: 3908.3점</title></rect><text x="313" y="46" font-size="10" fill="#cccccc">3908.3</text><text x="24" y="74" text-anchor="end" font-size="12" fill="#cccccc">월</text><rect x="28" y="58" width="270" height="22" rx="3" fill="#216e39"><title>월: 3781.7점</title></rect><text x="303" y="74" font-size="10" fill="#cccccc">3781.7</text><text x="24" y="102" text-anchor="end" font-size="12" fill="#cccccc">화</text><rect x="28" y="86" width="219" height="22" rx="3" fill="#216e39"><title>화: 3070.0점</title></rect><text x="252" y="102" font-size="10" fill="#cccccc">3070.0</text><text x="24" y="130" text-anchor="end" font-size="12" fill="#cccccc">수</text><rect x="28" y="114" width="119" height="22" rx="3" fill="#40c463"><title>수: 1673.4점</title></rect><text x="152" y="130" font-size="10" fill="#cccccc">1673.4</text><text x="24" y="158" text-anchor="end" font-size="12" fill="#cccccc">목</text><rect x="28" y="142" width="80" height="22" rx="3" fill="#40c463"><title>목: 1117.0점</title></rect><text x="113" y="158" font-size="10" fill="#cccccc">1117.0</text><text x="24" y="186" text-anchor="end" font-size="12" fill="#cccccc">금</text><rect x="28" y="170" width="44" height="22" rx="3" fill="#9be9a8"><title>금: 627.0점</title></rect><text x="77" y="186" font-size="10" fill="#cccccc">627.0</text><text x="24" y="214" text-anchor="end" font-size="12" fill="#cccccc">토</text><rect x="28" y="198" width="31" height="22" rx="3" fill="#9be9a8"><title>토: 437.7점</title></rect><text x="64" y="214" font-size="10" fill="#cccccc">437.7</text>
<text x="28" y="254" font-size="9" fill="#999999">기준: 2026-07-04 22:13</text>
</svg>