<svg xmlns="http://www.w3.org/2000/svg" width="363" height="260">
<text x="181" y="18" text-anchor="middle" font-size="13" font-weight="bold" fill="#111111">최근 2주 요일별 활동</text>
<text x="24" y="46" text-anchor="end" font-size="12" fill="#333333">일</text><rect x="28" y="30" width="203" height="22" rx="3" fill="#30a14e"><title>일: 7197.4점</title></rect><text x="236" y="46" font-size="10" fill="#333333">7197.4</text><text x="24" y="74" text-anchor="end" font-size="12" fill="#333333">월</text><rect x="28" y="58" width="109" height="22" rx="3" fill="#40c463"><title>월: 3866.8점</title></rect><text x="142" y="74" font-size="10" fill="#333333">3866.8</text><text x="24" y="102" text-anchor="end" font-size="12" fill="#333333">화</text><rect x="28" y="86" width="280" height="22" rx="3" fill="#216e39"><title>화: 9905.9점</title></rect><text x="313" y="102" font-size="10" fill="#333333">9905.9</text><text x="24" y="130" text-anchor="end" font-size="12" fill="#333333">수</text><rect x="28" y="114" width="144" height="22" rx="3" fill="#30a14e"><title>수: 5125.4점</title></rect><text x="177" y="130" font-size="10" fill="#333333">5125.4</text><text x="24" y="158" text-anchor="end" font-size="12" fill="#333333">목</text><rect x="28" y="142" width="66" height="22" rx="3" fill="#9be9a8"><title>목: 2365.0점</title></rect><text x="99" y="158" font-size="10" fill="#333333">2365.0</text><text x="24" y="186" text-anchor="end" font-size="12" fill="#333333">금</text><rect x="28" y="170" width="53" height="22" rx="3" fill="#9be9a8"><title>금: 1881.0점</title></rect><text x="86" y="186" font-size="10" fill="#333333">1881.0</text><text x="24" y="214" text-anchor="end" font-size="12" fill="#333333">토</text><rect x="28" y="198" width="245" height="22" rx="3" fill="#216e39"><title>토: 8688.1점</title></rect><text x="278" y="214" font-size="10" fill="#333333">8688.1</text>
<text x="28" y="254" font-size="9" fill="#666666">기준: 2026-06-19 10:58</text>
</svg>