<svg xmlns="http://www.w3.org/2000/svg" width="363" height="260">
<text x="181" y="18" text-anchor="middle" font-size="13" font-weight="bold" fill="#e0e0e0">최근 2주 요일별 활동</text>
<text x="24" y="46" text-anchor="end" font-size="12" fill="#cccccc">일</text><rect x="28" y="30" width="140" height="22" rx="3" fill="#30a14e"><title>일: 1302.2점</title></rect><text x="173" y="46" font-size="10" fill="#cccccc">1302.2</text><text x="24" y="74" text-anchor="end" font-size="12" fill="#cccccc">월</text><rect x="28" y="58" width="98" height="22" rx="3" fill="#40c463"><title>월: 916.0점</title></rect><text x="131" y="74" font-size="10" fill="#cccccc">916.0</text><text x="24" y="102" text-anchor="end" font-size="12" fill="#cccccc">화</text><rect x="28" y="86" width="155" height="22" rx="3" fill="#30a14e"><title>화: 1440.1점</title></rect><text x="188" y="102" font-size="10" fill="#cccccc">1440.1</text><text x="24" y="130" text-anchor="end" font-size="12" fill="#cccccc">수</text><rect x="28" y="114" width="58" height="22" rx="3" fill="#9be9a8"><title>수: 544.1점</title></rect><text x="91" y="130" font-size="10" fill="#cccccc">544.1</text><text x="24" y="158" text-anchor="end" font-size="12" fill="#cccccc">목</text><rect x="28" y="142" width="42" height="22" rx="3" fill="#9be9a8"><title>목: 398.5점</title></rect><text x="75" y="158" font-size="10" fill="#cccccc">398.5</text><text x="24" y="186" text-anchor="end" font-size="12" fill="#cccccc">금</text><rect x="28" y="170" width="280" height="22" rx="3" fill="#216e39"><title>금: 2599.0점</title></rect><text x="313" y="186" font-size="10" fill="#cccccc">2599.0</text><text x="24" y="214" text-anchor="end" font-size="12" fill="#cccccc">토</text><rect x="28" y="198" width="148" height="22" rx="3" fill="#30a14e"><title>토: 1374.0점</title></rect><text x="181" y="214" font-size="10" fill="#cccccc">1374.0</text>
<text x="28" y="254" font-size="9" fill="#999999">기준: 2026-05-21 10:05</text>
</svg>