<svg xmlns="http://www.w3.org/2000/svg" width="363" height="260">
<text x="181" y="18" text-anchor="middle" font-size="13" font-weight="bold" fill="#e0e0e0">최근 1달 요일별 활동</text>
<text x="24" y="46" text-anchor="end" font-size="12" fill="#cccccc">일</text><rect x="28" y="30" width="267" height="22" rx="3" fill="#216e39"><title>일: 39698.7점</title></rect><text x="300" y="46" font-size="10" fill="#cccccc">39698.7</text><text x="24" y="74" text-anchor="end" font-size="12" fill="#cccccc">월</text><rect x="28" y="58" width="183" height="22" rx="3" fill="#30a14e"><title>월: 27223.3점</title></rect><text x="216" y="74" font-size="10" fill="#cccccc">27223.3</text><text x="24" y="102" text-anchor="end" font-size="12" fill="#cccccc">화</text><rect x="28" y="86" width="266" height="22" rx="3" fill="#216e39"><title>화: 39504.7점</title></rect><text x="299" y="102" font-size="10" fill="#cccccc">39504.7</text><text x="24" y="130" text-anchor="end" font-size="12" fill="#cccccc">수</text><rect x="28" y="114" width="212" height="22" rx="3" fill="#216e39"><title>수: 31533.3점</title></rect><text x="245" y="130" font-size="10" fill="#cccccc">31533.3</text><text x="24" y="158" text-anchor="end" font-size="12" fill="#cccccc">목</text><rect x="28" y="142" width="133" height="22" rx="3" fill="#40c463"><title>목: 19748.1점</title></rect><text x="166" y="158" font-size="10" fill="#cccccc">19748.1</text><text x="24" y="186" text-anchor="end" font-size="12" fill="#cccccc">금</text><rect x="28" y="170" width="134" height="22" rx="3" fill="#40c463"><title>금: 19867.3점</title></rect><text x="167" y="186" font-size="10" fill="#cccccc">19867.3</text><text x="24" y="214" text-anchor="end" font-size="12" fill="#cccccc">토</text><rect x="28" y="198" width="280" height="22" rx="3" fill="#216e39"><title>토: 41512.4점</title></rect><text x="313" y="214" font-size="10" fill="#cccccc">41512.4</text>
<text x="28" y="254" font-size="9" fill="#999999">기준: 2026-06-28 22:16</text>
</svg>