<svg xmlns="http://www.w3.org/2000/svg" width="363" height="260">
<text x="181" y="18" text-anchor="middle" font-size="13" font-weight="bold" fill="#111111">최근 1달 요일별 활동</text>
<text x="24" y="46" text-anchor="end" font-size="12" fill="#333333">일</text><rect x="28" y="30" width="259" height="22" rx="3" fill="#216e39"><title>일: 8985.2점</title></rect><text x="292" y="46" font-size="10" fill="#333333">8985.2</text><text x="24" y="74" text-anchor="end" font-size="12" fill="#333333">월</text><rect x="28" y="58" width="147" height="22" rx="3" fill="#30a14e"><title>월: 5114.4점</title></rect><text x="180" y="74" font-size="10" fill="#333333">5114.4</text><text x="24" y="102" text-anchor="end" font-size="12" fill="#333333">화</text><rect x="28" y="86" width="280" height="22" rx="3" fill="#216e39"><title>화: 9687.5점</title></rect><text x="313" y="102" font-size="10" fill="#333333">9687.5</text><text x="24" y="130" text-anchor="end" font-size="12" fill="#333333">수</text><rect x="28" y="114" width="219" height="22" rx="3" fill="#216e39"><title>수: 7604.6점</title></rect><text x="252" y="130" font-size="10" fill="#333333">7604.6</text><text x="24" y="158" text-anchor="end" font-size="12" fill="#333333">목</text><rect x="28" y="142" width="199" height="22" rx="3" fill="#30a14e"><title>목: 6902.2점</title></rect><text x="232" y="158" font-size="10" fill="#333333">6902.2</text><text x="24" y="186" text-anchor="end" font-size="12" fill="#333333">금</text><rect x="28" y="170" width="172" height="22" rx="3" fill="#30a14e"><title>금: 5954.0점</title></rect><text x="205" y="186" font-size="10" fill="#333333">5954.0</text><text x="24" y="214" text-anchor="end" font-size="12" fill="#333333">토</text><rect x="28" y="198" width="152" height="22" rx="3" fill="#30a14e"><title>토: 5278.6점</title></rect><text x="185" y="214" font-size="10" fill="#333333">5278.6</text>
<text x="28" y="254" font-size="9" fill="#666666">기준: 2026-05-31 09:25</text>
</svg>