<svg xmlns="http://www.w3.org/2000/svg" width="363" height="260">
<text x="181" y="18" text-anchor="middle" font-size="13" font-weight="bold" fill="#111111">최근 1달 요일별 활동</text>
<text x="24" y="46" text-anchor="end" font-size="12" fill="#333333">일</text><rect x="28" y="30" width="280" height="22" rx="3" fill="#216e39"><title>일: 56077.4점</title></rect><text x="313" y="46" font-size="10" fill="#333333">56077.4</text><text x="24" y="74" text-anchor="end" font-size="12" fill="#333333">월</text><rect x="28" y="58" width="239" height="22" rx="3" fill="#216e39"><title>월: 48059.4점</title></rect><text x="272" y="74" font-size="10" fill="#333333">48059.4</text><text x="24" y="102" text-anchor="end" font-size="12" fill="#333333">화</text><rect x="28" y="86" width="237" height="22" rx="3" fill="#216e39"><title>화: 47515.6점</title></rect><text x="270" y="102" font-size="10" fill="#333333">47515.6</text><text x="24" y="130" text-anchor="end" font-size="12" fill="#333333">수</text><rect x="28" y="114" width="246" height="22" rx="3" fill="#216e39"><title>수: 49335.3점</title></rect><text x="279" y="130" font-size="10" fill="#333333">49335.3</text><text x="24" y="158" text-anchor="end" font-size="12" fill="#333333">목</text><rect x="28" y="142" width="173" height="22" rx="3" fill="#30a14e"><title>목: 34777.9점</title></rect><text x="206" y="158" font-size="10" fill="#333333">34777.9</text><text x="24" y="186" text-anchor="end" font-size="12" fill="#333333">금</text><rect x="28" y="170" width="188" height="22" rx="3" fill="#30a14e"><title>금: 37734.5점</title></rect><text x="221" y="186" font-size="10" fill="#333333">37734.5</text><text x="24" y="214" text-anchor="end" font-size="12" fill="#333333">토</text><rect x="28" y="198" width="261" height="22" rx="3" fill="#216e39"><title>토: 52339.0점</title></rect><text x="294" y="214" font-size="10" fill="#333333">52339.0</text>
<text x="28" y="254" font-size="9" fill="#666666">기준: 2026-07-10 19:53</text>
</svg>