<svg xmlns="http://www.w3.org/2000/svg" width="363" height="260">
<text x="181" y="18" text-anchor="middle" font-size="13" font-weight="bold" fill="#e0e0e0">최근 1주 요일별 활동</text>
<text x="24" y="46" text-anchor="end" font-size="12" fill="#cccccc">일</text><rect x="28" y="30" width="65" height="22" rx="3" fill="#9be9a8"><title>일: 1061.0점</title></rect><text x="98" y="46" font-size="10" fill="#cccccc">1061.0</text><text x="24" y="74" text-anchor="end" font-size="12" fill="#cccccc">월</text><rect x="28" y="58" width="20" height="22" rx="3" fill="#9be9a8"><title>월: 335.4점</title></rect><text x="53" y="74" font-size="10" fill="#cccccc">335.4</text><text x="24" y="102" text-anchor="end" font-size="12" fill="#cccccc">화</text><rect x="28" y="86" width="253" height="22" rx="3" fill="#216e39"><title>화: 4106.1점</title></rect><text x="286" y="102" font-size="10" fill="#cccccc">4106.1</text><text x="24" y="130" text-anchor="end" font-size="12" fill="#cccccc">수</text><rect x="28" y="114" width="280" height="22" rx="3" fill="#216e39"><title>수: 4540.3점</title></rect><text x="313" y="130" font-size="10" fill="#cccccc">4540.3</text><text x="24" y="158" text-anchor="end" font-size="12" fill="#cccccc">목</text><rect x="28" y="142" width="124" height="22" rx="3" fill="#40c463"><title>목: 2016.4점</title></rect><text x="157" y="158" font-size="10" fill="#cccccc">2016.4</text><text x="24" y="186" text-anchor="end" font-size="12" fill="#cccccc">금</text><rect x="28" y="170" width="215" height="22" rx="3" fill="#216e39"><title>금: 3496.2점</title></rect><text x="248" y="186" font-size="10" fill="#cccccc">3496.2</text><text x="24" y="214" text-anchor="end" font-size="12" fill="#cccccc">토</text><rect x="28" y="198" width="109" height="22" rx="3" fill="#40c463"><title>토: 1775.0점</title></rect><text x="142" y="214" font-size="10" fill="#cccccc">1775.0</text>
<text x="28" y="254" font-size="9" fill="#999999">기준: 2026-07-13 17:24</text>
</svg>