<svg xmlns="http://www.w3.org/2000/svg" width="363" height="260">
<text x="181" y="18" text-anchor="middle" font-size="13" font-weight="bold" fill="#e0e0e0">최근 1달 요일별 활동</text>
<text x="24" y="46" text-anchor="end" font-size="12" fill="#cccccc">일</text><rect x="28" y="30" width="216" height="22" rx="3" fill="#216e39"><title>일: 24512.4점</title></rect><text x="249" y="46" font-size="10" fill="#cccccc">24512.4</text><text x="24" y="74" text-anchor="end" font-size="12" fill="#cccccc">월</text><rect x="28" y="58" width="134" height="22" rx="3" fill="#40c463"><title>월: 15256.9점</title></rect><text x="167" y="74" font-size="10" fill="#cccccc">15256.9</text><text x="24" y="102" text-anchor="end" font-size="12" fill="#cccccc">화</text><rect x="28" y="86" width="280" height="22" rx="3" fill="#216e39"><title>화: 31775.3점</title></rect><text x="313" y="102" font-size="10" fill="#cccccc">31775.3</text><text x="24" y="130" text-anchor="end" font-size="12" fill="#cccccc">수</text><rect x="28" y="114" width="209" height="22" rx="3" fill="#30a14e"><title>수: 23755.8점</title></rect><text x="242" y="130" font-size="10" fill="#cccccc">23755.8</text><text x="24" y="158" text-anchor="end" font-size="12" fill="#cccccc">목</text><rect x="28" y="142" width="170" height="22" rx="3" fill="#30a14e"><title>목: 19380.7점</title></rect><text x="203" y="158" font-size="10" fill="#cccccc">19380.7</text><text x="24" y="186" text-anchor="end" font-size="12" fill="#cccccc">금</text><rect x="28" y="170" width="171" height="22" rx="3" fill="#30a14e"><title>금: 19492.5점</title></rect><text x="204" y="186" font-size="10" fill="#cccccc">19492.5</text><text x="24" y="214" text-anchor="end" font-size="12" fill="#cccccc">토</text><rect x="28" y="198" width="246" height="22" rx="3" fill="#216e39"><title>토: 27987.4점</title></rect><text x="279" y="214" font-size="10" fill="#cccccc">27987.4</text>
<text x="28" y="254" font-size="9" fill="#999999">기준: 2026-06-24 15:10</text>
</svg>