<svg xmlns="http://www.w3.org/2000/svg" width="363" height="260">
<text x="181" y="18" text-anchor="middle" font-size="13" font-weight="bold" fill="#111111">최근 2주 요일별 활동</text>
<text x="24" y="46" text-anchor="end" font-size="12" fill="#333333">일</text><rect x="28" y="30" width="240" height="22" rx="3" fill="#216e39"><title>일: 6818.5점</title></rect><text x="273" y="46" font-size="10" fill="#333333">6818.5</text><text x="24" y="74" text-anchor="end" font-size="12" fill="#333333">월</text><rect x="28" y="58" width="136" height="22" rx="3" fill="#40c463"><title>월: 3860.6점</title></rect><text x="169" y="74" font-size="10" fill="#333333">3860.6</text><text x="24" y="102" text-anchor="end" font-size="12" fill="#333333">화</text><rect x="28" y="86" width="204" height="22" rx="3" fill="#30a14e"><title>화: 5793.5점</title></rect><text x="237" y="102" font-size="10" fill="#333333">5793.5</text><text x="24" y="130" text-anchor="end" font-size="12" fill="#333333">수</text><rect x="28" y="114" width="122" height="22" rx="3" fill="#40c463"><title>수: 3476.6점</title></rect><text x="155" y="130" font-size="10" fill="#333333">3476.6</text><text x="24" y="158" text-anchor="end" font-size="12" fill="#333333">목</text><rect x="28" y="142" width="100" height="22" rx="3" fill="#40c463"><title>목: 2860.0점</title></rect><text x="133" y="158" font-size="10" fill="#333333">2860.0</text><text x="24" y="186" text-anchor="end" font-size="12" fill="#333333">금</text><rect x="28" y="170" width="81" height="22" rx="3" fill="#40c463"><title>금: 2310.0점</title></rect><text x="114" y="186" font-size="10" fill="#333333">2310.0</text><text x="24" y="214" text-anchor="end" font-size="12" fill="#333333">토</text><rect x="28" y="198" width="280" height="22" rx="3" fill="#216e39"><title>토: 7931.0점</title></rect><text x="313" y="214" font-size="10" fill="#333333">7931.0</text>
<text x="28" y="254" font-size="9" fill="#666666">기준: 2026-06-12 22:49</text>
</svg>