<svg xmlns="http://www.w3.org/2000/svg" width="363" height="260">
<text x="181" y="18" text-anchor="middle" font-size="13" font-weight="bold" fill="#111111">최근 1달 요일별 활동</text>
<text x="24" y="46" text-anchor="end" font-size="12" fill="#333333">일</text><rect x="28" y="30" width="258" height="22" rx="3" fill="#216e39"><title>일: 8029.6점</title></rect><text x="291" y="46" font-size="10" fill="#333333">8029.6</text><text x="24" y="74" text-anchor="end" font-size="12" fill="#333333">월</text><rect x="28" y="58" width="147" height="22" rx="3" fill="#30a14e"><title>월: 4594.6점</title></rect><text x="180" y="74" font-size="10" fill="#333333">4594.6</text><text x="24" y="102" text-anchor="end" font-size="12" fill="#333333">화</text><rect x="28" y="86" width="280" height="22" rx="3" fill="#216e39"><title>화: 8701.9점</title></rect><text x="313" y="102" font-size="10" fill="#333333">8701.9</text><text x="24" y="130" text-anchor="end" font-size="12" fill="#333333">수</text><rect x="28" y="114" width="209" height="22" rx="3" fill="#30a14e"><title>수: 6525.8점</title></rect><text x="242" y="130" font-size="10" fill="#333333">6525.8</text><text x="24" y="158" text-anchor="end" font-size="12" fill="#333333">목</text><rect x="28" y="142" width="193" height="22" rx="3" fill="#30a14e"><title>목: 6022.2점</title></rect><text x="226" y="158" font-size="10" fill="#333333">6022.2</text><text x="24" y="186" text-anchor="end" font-size="12" fill="#333333">금</text><rect x="28" y="170" width="200" height="22" rx="3" fill="#30a14e"><title>금: 6222.0점</title></rect><text x="233" y="186" font-size="10" fill="#333333">6222.0</text><text x="24" y="214" text-anchor="end" font-size="12" fill="#333333">토</text><rect x="28" y="198" width="137" height="22" rx="3" fill="#40c463"><title>토: 4277.6점</title></rect><text x="170" y="214" font-size="10" fill="#333333">4277.6</text>
<text x="28" y="254" font-size="9" fill="#666666">기준: 2026-05-30 04:28</text>
</svg>