<svg xmlns="http://www.w3.org/2000/svg" width="363" height="260">
<text x="181" y="18" text-anchor="middle" font-size="13" font-weight="bold" fill="#e0e0e0">최근 2주 요일별 활동</text>
<text x="24" y="46" text-anchor="end" font-size="12" fill="#cccccc">일</text><rect x="28" y="30" width="280" height="22" rx="3" fill="#216e39"><title>일: 7040.0점</title></rect><text x="313" y="46" font-size="10" fill="#cccccc">7040.0</text><text x="24" y="74" text-anchor="end" font-size="12" fill="#cccccc">월</text><rect x="28" y="58" width="176" height="22" rx="3" fill="#30a14e"><title>월: 4438.9점</title></rect><text x="209" y="74" font-size="10" fill="#cccccc">4438.9</text><text x="24" y="102" text-anchor="end" font-size="12" fill="#cccccc">화</text><rect x="28" y="86" width="158" height="22" rx="3" fill="#30a14e"><title>화: 3977.2점</title></rect><text x="191" y="102" font-size="10" fill="#cccccc">3977.2</text><text x="24" y="130" text-anchor="end" font-size="12" fill="#cccccc">수</text><rect x="28" y="114" width="138" height="22" rx="3" fill="#40c463"><title>수: 3487.0점</title></rect><text x="171" y="130" font-size="10" fill="#cccccc">3487.0</text><text x="24" y="158" text-anchor="end" font-size="12" fill="#cccccc">목</text><rect x="28" y="142" width="124" height="22" rx="3" fill="#40c463"><title>목: 3135.0점</title></rect><text x="157" y="158" font-size="10" fill="#cccccc">3135.0</text><text x="24" y="186" text-anchor="end" font-size="12" fill="#cccccc">금</text><rect x="28" y="170" width="102" height="22" rx="3" fill="#40c463"><title>금: 2585.0점</title></rect><text x="135" y="186" font-size="10" fill="#cccccc">2585.0</text><text x="24" y="214" text-anchor="end" font-size="12" fill="#cccccc">토</text><rect x="28" y="198" width="109" height="22" rx="3" fill="#40c463"><title>토: 2761.0점</title></rect><text x="142" y="214" font-size="10" fill="#cccccc">2761.0</text>
<text x="28" y="254" font-size="9" fill="#999999">기준: 2026-06-06 14:10</text>
</svg>