<svg xmlns="http://www.w3.org/2000/svg" width="363" height="260">
<text x="181" y="18" text-anchor="middle" font-size="13" font-weight="bold" fill="#111111">최근 1달 요일별 활동</text>
<text x="24" y="46" text-anchor="end" font-size="12" fill="#333333">일</text><rect x="28" y="30" width="224" height="22" rx="3" fill="#216e39"><title>일: 52415.3점</title></rect><text x="257" y="46" font-size="10" fill="#333333">52415.3</text><text x="24" y="74" text-anchor="end" font-size="12" fill="#333333">월</text><rect x="28" y="58" width="191" height="22" rx="3" fill="#30a14e"><title>월: 44637.3점</title></rect><text x="224" y="74" font-size="10" fill="#333333">44637.3</text><text x="24" y="102" text-anchor="end" font-size="12" fill="#333333">화</text><rect x="28" y="86" width="187" height="22" rx="3" fill="#30a14e"><title>화: 43824.8점</title></rect><text x="220" y="102" font-size="10" fill="#333333">43824.8</text><text x="24" y="130" text-anchor="end" font-size="12" fill="#333333">수</text><rect x="28" y="114" width="280" height="22" rx="3" fill="#216e39"><title>수: 65329.4점</title></rect><text x="313" y="130" font-size="10" fill="#333333">65329.4</text><text x="24" y="158" text-anchor="end" font-size="12" fill="#333333">목</text><rect x="28" y="142" width="137" height="22" rx="3" fill="#40c463"><title>목: 32052.4점</title></rect><text x="170" y="158" font-size="10" fill="#333333">32052.4</text><text x="24" y="186" text-anchor="end" font-size="12" fill="#333333">금</text><rect x="28" y="170" width="149" height="22" rx="3" fill="#30a14e"><title>금: 34875.3점</title></rect><text x="182" y="186" font-size="10" fill="#333333">34875.3</text><text x="24" y="214" text-anchor="end" font-size="12" fill="#333333">토</text><rect x="28" y="198" width="212" height="22" rx="3" fill="#216e39"><title>토: 49635.7점</title></rect><text x="245" y="214" font-size="10" fill="#333333">49635.7</text>
<text x="28" y="254" font-size="9" fill="#666666">기준: 2026-07-09 22:44</text>
</svg>