<svg xmlns="http://www.w3.org/2000/svg" width="363" height="260">
<text x="181" y="18" text-anchor="middle" font-size="13" font-weight="bold" fill="#111111">최근 2주 요일별 활동</text>
<text x="24" y="46" text-anchor="end" font-size="12" fill="#333333">일</text><rect x="28" y="30" width="221" height="22" rx="3" fill="#216e39"><title>일: 2696.8점</title></rect><text x="254" y="46" font-size="10" fill="#333333">2696.8</text><text x="24" y="74" text-anchor="end" font-size="12" fill="#333333">월</text><rect x="28" y="58" width="94" height="22" rx="3" fill="#40c463"><title>월: 1149.0점</title></rect><text x="127" y="74" font-size="10" fill="#333333">1149.0</text><text x="24" y="102" text-anchor="end" font-size="12" fill="#333333">화</text><rect x="28" y="86" width="280" height="22" rx="3" fill="#216e39"><title>화: 3407.5점</title></rect><text x="313" y="102" font-size="10" fill="#333333">3407.5</text><text x="24" y="130" text-anchor="end" font-size="12" fill="#333333">수</text><rect x="28" y="114" width="205" height="22" rx="3" fill="#30a14e"><title>수: 2499.4점</title></rect><text x="238" y="130" font-size="10" fill="#333333">2499.4</text><text x="24" y="158" text-anchor="end" font-size="12" fill="#333333">목</text><rect x="28" y="142" width="194" height="22" rx="3" fill="#30a14e"><title>목: 2367.5점</title></rect><text x="227" y="158" font-size="10" fill="#333333">2367.5</text><text x="24" y="186" text-anchor="end" font-size="12" fill="#333333">금</text><rect x="28" y="170" width="171" height="22" rx="3" fill="#30a14e"><title>금: 2085.5점</title></rect><text x="204" y="186" font-size="10" fill="#333333">2085.5</text><text x="24" y="214" text-anchor="end" font-size="12" fill="#333333">토</text><rect x="28" y="198" width="190" height="22" rx="3" fill="#30a14e"><title>토: 2318.5점</title></rect><text x="223" y="214" font-size="10" fill="#333333">2318.5</text>
<text x="28" y="254" font-size="9" fill="#666666">기준: 2026-05-27 22:52</text>
</svg>