<svg xmlns="http://www.w3.org/2000/svg" width="363" height="260">
<text x="181" y="18" text-anchor="middle" font-size="13" font-weight="bold" fill="#e0e0e0">최근 1달 요일별 활동</text>
<text x="24" y="46" text-anchor="end" font-size="12" fill="#cccccc">일</text><rect x="28" y="30" width="256" height="22" rx="3" fill="#216e39"><title>일: 22744.4점</title></rect><text x="289" y="46" font-size="10" fill="#cccccc">22744.4</text><text x="24" y="74" text-anchor="end" font-size="12" fill="#cccccc">월</text><rect x="28" y="58" width="148" height="22" rx="3" fill="#30a14e"><title>월: 13151.3점</title></rect><text x="181" y="74" font-size="10" fill="#cccccc">13151.3</text><text x="24" y="102" text-anchor="end" font-size="12" fill="#cccccc">화</text><rect x="28" y="86" width="280" height="22" rx="3" fill="#216e39"><title>화: 24839.1점</title></rect><text x="313" y="102" font-size="10" fill="#cccccc">24839.1</text><text x="24" y="130" text-anchor="end" font-size="12" fill="#cccccc">수</text><rect x="28" y="114" width="220" height="22" rx="3" fill="#216e39"><title>수: 19552.7점</title></rect><text x="253" y="130" font-size="10" fill="#cccccc">19552.7</text><text x="24" y="158" text-anchor="end" font-size="12" fill="#cccccc">목</text><rect x="28" y="142" width="195" height="22" rx="3" fill="#30a14e"><title>목: 17325.0점</title></rect><text x="228" y="158" font-size="10" fill="#cccccc">17325.0</text><text x="24" y="186" text-anchor="end" font-size="12" fill="#cccccc">금</text><rect x="28" y="170" width="182" height="22" rx="3" fill="#30a14e"><title>금: 16225.0점</title></rect><text x="215" y="186" font-size="10" fill="#cccccc">16225.0</text><text x="24" y="214" text-anchor="end" font-size="12" fill="#cccccc">토</text><rect x="28" y="198" width="243" height="22" rx="3" fill="#216e39"><title>토: 21583.0점</title></rect><text x="276" y="214" font-size="10" fill="#cccccc">21583.0</text>
<text x="28" y="254" font-size="9" fill="#999999">기준: 2026-06-15 23:11</text>
</svg>