<svg xmlns="http://www.w3.org/2000/svg" width="363" height="260">
<text x="181" y="18" text-anchor="middle" font-size="13" font-weight="bold" fill="#e0e0e0">최근 2주 요일별 활동</text>
<text x="24" y="46" text-anchor="end" font-size="12" fill="#cccccc">일</text><rect x="28" y="30" width="280" height="22" rx="3" fill="#216e39"><title>일: 14096.7점</title></rect><text x="313" y="46" font-size="10" fill="#cccccc">14096.7</text><text x="24" y="74" text-anchor="end" font-size="12" fill="#cccccc">월</text><rect x="28" y="58" width="209" height="22" rx="3" fill="#30a14e"><title>월: 10564.3점</title></rect><text x="242" y="74" font-size="10" fill="#cccccc">10564.3</text><text x="24" y="102" text-anchor="end" font-size="12" fill="#cccccc">화</text><rect x="28" y="86" width="183" height="22" rx="3" fill="#30a14e"><title>화: 9239.4점</title></rect><text x="216" y="102" font-size="10" fill="#cccccc">9239.4</text><text x="24" y="130" text-anchor="end" font-size="12" fill="#cccccc">수</text><rect x="28" y="114" width="176" height="22" rx="3" fill="#30a14e"><title>수: 8875.4점</title></rect><text x="209" y="130" font-size="10" fill="#cccccc">8875.4</text><text x="24" y="158" text-anchor="end" font-size="12" fill="#cccccc">목</text><rect x="28" y="142" width="86" height="22" rx="3" fill="#40c463"><title>목: 4373.0점</title></rect><text x="119" y="158" font-size="10" fill="#cccccc">4373.0</text><text x="24" y="186" text-anchor="end" font-size="12" fill="#cccccc">금</text><rect x="28" y="170" width="92" height="22" rx="3" fill="#40c463"><title>금: 4636.0점</title></rect><text x="125" y="186" font-size="10" fill="#cccccc">4636.0</text><text x="24" y="214" text-anchor="end" font-size="12" fill="#cccccc">토</text><rect x="28" y="198" width="138" height="22" rx="3" fill="#40c463"><title>토: 6985.0점</title></rect><text x="171" y="214" font-size="10" fill="#cccccc">6985.0</text>
<text x="28" y="254" font-size="9" fill="#999999">기준: 2026-06-27 04:18</text>
</svg>