<svg xmlns="http://www.w3.org/2000/svg" width="363" height="260">
<text x="181" y="18" text-anchor="middle" font-size="13" font-weight="bold" fill="#e0e0e0">최근 2주 요일별 활동</text>
<text x="24" y="46" text-anchor="end" font-size="12" fill="#cccccc">일</text><rect x="28" y="30" width="215" height="22" rx="3" fill="#216e39"><title>일: 2076.5점</title></rect><text x="248" y="46" font-size="10" fill="#cccccc">2076.5</text><text x="24" y="74" text-anchor="end" font-size="12" fill="#cccccc">월</text><rect x="28" y="58" width="78" height="22" rx="3" fill="#40c463"><title>월: 759.1점</title></rect><text x="111" y="74" font-size="10" fill="#cccccc">759.1</text><text x="24" y="102" text-anchor="end" font-size="12" fill="#cccccc">화</text><rect x="28" y="86" width="280" height="22" rx="3" fill="#216e39"><title>화: 2696.0점</title></rect><text x="313" y="102" font-size="10" fill="#cccccc">2696.0</text><text x="24" y="130" text-anchor="end" font-size="12" fill="#cccccc">수</text><rect x="28" y="114" width="243" height="22" rx="3" fill="#216e39"><title>수: 2348.3점</title></rect><text x="276" y="130" font-size="10" fill="#cccccc">2348.3</text><text x="24" y="158" text-anchor="end" font-size="12" fill="#cccccc">목</text><rect x="28" y="142" width="211" height="22" rx="3" fill="#216e39"><title>목: 2037.5점</title></rect><text x="244" y="158" font-size="10" fill="#cccccc">2037.5</text><text x="24" y="186" text-anchor="end" font-size="12" fill="#cccccc">금</text><rect x="28" y="170" width="182" height="22" rx="3" fill="#30a14e"><title>금: 1755.5점</title></rect><text x="215" y="186" font-size="10" fill="#cccccc">1755.5</text><text x="24" y="214" text-anchor="end" font-size="12" fill="#cccccc">토</text><rect x="28" y="198" width="192" height="22" rx="3" fill="#30a14e"><title>토: 1856.5점</title></rect><text x="225" y="214" font-size="10" fill="#cccccc">1856.5</text>
<text x="28" y="254" font-size="9" fill="#999999">기준: 2026-05-26 20:26</text>
</svg>