<svg xmlns="http://www.w3.org/2000/svg" width="363" height="260">
<text x="181" y="18" text-anchor="middle" font-size="13" font-weight="bold" fill="#111111">최근 2주 요일별 활동</text>
<text x="24" y="46" text-anchor="end" font-size="12" fill="#333333">일</text><rect x="28" y="30" width="182" height="22" rx="3" fill="#30a14e"><title>일: 8171.5점</title></rect><text x="215" y="46" font-size="10" fill="#333333">8171.5</text><text x="24" y="74" text-anchor="end" font-size="12" fill="#333333">월</text><rect x="28" y="58" width="168" height="22" rx="3" fill="#30a14e"><title>월: 7561.0점</title></rect><text x="201" y="74" font-size="10" fill="#333333">7561.0</text><text x="24" y="102" text-anchor="end" font-size="12" fill="#333333">화</text><rect x="28" y="86" width="147" height="22" rx="3" fill="#30a14e"><title>화: 6638.4점</title></rect><text x="180" y="102" font-size="10" fill="#333333">6638.4</text><text x="24" y="130" text-anchor="end" font-size="12" fill="#333333">수</text><rect x="28" y="114" width="90" height="22" rx="3" fill="#40c463"><title>수: 4082.5점</title></rect><text x="123" y="130" font-size="10" fill="#333333">4082.5</text><text x="24" y="158" text-anchor="end" font-size="12" fill="#333333">목</text><rect x="28" y="142" width="65" height="22" rx="3" fill="#9be9a8"><title>목: 2918.7점</title></rect><text x="98" y="158" font-size="10" fill="#333333">2918.7</text><text x="24" y="186" text-anchor="end" font-size="12" fill="#333333">금</text><rect x="28" y="170" width="280" height="22" rx="3" fill="#216e39"><title>금: 12563.2점</title></rect><text x="313" y="186" font-size="10" fill="#333333">12563.2</text><text x="24" y="214" text-anchor="end" font-size="12" fill="#333333">토</text><rect x="28" y="198" width="208" height="22" rx="3" fill="#30a14e"><title>토: 9342.8점</title></rect><text x="241" y="214" font-size="10" fill="#333333">9342.8</text>
<text x="28" y="254" font-size="9" fill="#666666">기준: 2026-07-09 09:58</text>
</svg>