<svg xmlns="http://www.w3.org/2000/svg" width="363" height="260">
<text x="181" y="18" text-anchor="middle" font-size="13" font-weight="bold" fill="#111111">최근 1달 요일별 활동</text>
<text x="24" y="46" text-anchor="end" font-size="12" fill="#333333">일</text><rect x="28" y="30" width="266" height="22" rx="3" fill="#216e39"><title>일: 11525.5점</title></rect><text x="299" y="46" font-size="10" fill="#333333">11525.5</text><text x="24" y="74" text-anchor="end" font-size="12" fill="#333333">월</text><rect x="28" y="58" width="156" height="22" rx="3" fill="#30a14e"><title>월: 6768.5점</title></rect><text x="189" y="74" font-size="10" fill="#333333">6768.5</text><text x="24" y="102" text-anchor="end" font-size="12" fill="#333333">화</text><rect x="28" y="86" width="280" height="22" rx="3" fill="#216e39"><title>화: 12120.3점</title></rect><text x="313" y="102" font-size="10" fill="#333333">12120.3</text><text x="24" y="130" text-anchor="end" font-size="12" fill="#333333">수</text><rect x="28" y="114" width="226" height="22" rx="3" fill="#216e39"><title>수: 9822.3점</title></rect><text x="259" y="130" font-size="10" fill="#333333">9822.3</text><text x="24" y="158" text-anchor="end" font-size="12" fill="#333333">목</text><rect x="28" y="142" width="208" height="22" rx="3" fill="#30a14e"><title>목: 9022.5점</title></rect><text x="241" y="158" font-size="10" fill="#333333">9022.5</text><text x="24" y="186" text-anchor="end" font-size="12" fill="#333333">금</text><rect x="28" y="170" width="189" height="22" rx="3" fill="#30a14e"><title>금: 8190.5점</title></rect><text x="222" y="186" font-size="10" fill="#333333">8190.5</text><text x="24" y="214" text-anchor="end" font-size="12" fill="#333333">토</text><rect x="28" y="198" width="252" height="22" rx="3" fill="#216e39"><title>토: 10922.0점</title></rect><text x="285" y="214" font-size="10" fill="#333333">10922.0</text>
<text x="28" y="254" font-size="9" fill="#666666">기준: 2026-06-07 09:41</text>
</svg>