<svg xmlns="http://www.w3.org/2000/svg" width="363" height="260">
<text x="181" y="18" text-anchor="middle" font-size="13" font-weight="bold" fill="#e0e0e0">최근 1주 요일별 활동</text>
<text x="24" y="46" text-anchor="end" font-size="12" fill="#cccccc">일</text><rect x="28" y="30" width="48" height="22" rx="3" fill="#9be9a8"><title>일: 251.7점</title></rect><text x="81" y="46" font-size="10" fill="#cccccc">251.7</text><text x="24" y="74" text-anchor="end" font-size="12" fill="#cccccc">월</text><rect x="28" y="58" width="280" height="22" rx="3" fill="#216e39"><title>월: 1452.6점</title></rect><text x="313" y="74" font-size="10" fill="#cccccc">1452.6</text><text x="24" y="102" text-anchor="end" font-size="12" fill="#cccccc">화</text><rect x="28" y="86" width="243" height="22" rx="3" fill="#216e39"><title>화: 1264.9점</title></rect><text x="276" y="102" font-size="10" fill="#cccccc">1264.9</text><text x="24" y="130" text-anchor="end" font-size="12" fill="#cccccc">수</text><rect x="28" y="114" width="199" height="22" rx="3" fill="#30a14e"><title>수: 1034.0점</title></rect><text x="232" y="130" font-size="10" fill="#cccccc">1034.0</text><text x="24" y="158" text-anchor="end" font-size="12" fill="#cccccc">목</text><rect x="28" y="142" width="201" height="22" rx="3" fill="#30a14e"><title>목: 1045.0점</title></rect><text x="234" y="158" font-size="10" fill="#cccccc">1045.0</text><text x="24" y="186" text-anchor="end" font-size="12" fill="#cccccc">금</text><rect x="28" y="170" width="148" height="22" rx="3" fill="#30a14e"><title>금: 770.0점</title></rect><text x="181" y="186" font-size="10" fill="#cccccc">770.0</text><text x="24" y="214" text-anchor="end" font-size="12" fill="#cccccc">토</text><rect x="28" y="198" width="118" height="22" rx="3" fill="#40c463"><title>토: 616.0점</title></rect><text x="151" y="214" font-size="10" fill="#cccccc">616.0</text>
<text x="28" y="254" font-size="9" fill="#999999">기준: 2026-06-07 19:48</text>
</svg>