<svg xmlns="http://www.w3.org/2000/svg" width="363" height="260">
<text x="181" y="18" text-anchor="middle" font-size="13" font-weight="bold" fill="#e0e0e0">최근 1달 요일별 활동</text>
<text x="24" y="46" text-anchor="end" font-size="12" fill="#cccccc">일</text><rect x="28" y="30" width="263" height="22" rx="3" fill="#216e39"><title>일: 6528.2점</title></rect><text x="296" y="46" font-size="10" fill="#cccccc">6528.2</text><text x="24" y="74" text-anchor="end" font-size="12" fill="#cccccc">월</text><rect x="28" y="58" width="143" height="22" rx="3" fill="#30a14e"><title>월: 3562.5점</title></rect><text x="176" y="74" font-size="10" fill="#cccccc">3562.5</text><text x="24" y="102" text-anchor="end" font-size="12" fill="#cccccc">화</text><rect x="28" y="86" width="257" height="22" rx="3" fill="#216e39"><title>화: 6372.9점</title></rect><text x="290" y="102" font-size="10" fill="#cccccc">6372.9</text><text x="24" y="130" text-anchor="end" font-size="12" fill="#cccccc">수</text><rect x="28" y="114" width="256" height="22" rx="3" fill="#216e39"><title>수: 6343.9점</title></rect><text x="289" y="130" font-size="10" fill="#cccccc">6343.9</text><text x="24" y="158" text-anchor="end" font-size="12" fill="#cccccc">목</text><rect x="28" y="142" width="280" height="22" rx="3" fill="#216e39"><title>목: 6928.7점</title></rect><text x="313" y="158" font-size="10" fill="#cccccc">6928.7</text><text x="24" y="186" text-anchor="end" font-size="12" fill="#cccccc">금</text><rect x="28" y="170" width="273" height="22" rx="3" fill="#216e39"><title>금: 6757.6점</title></rect><text x="306" y="186" font-size="10" fill="#cccccc">6757.6</text><text x="24" y="214" text-anchor="end" font-size="12" fill="#cccccc">토</text><rect x="28" y="198" width="115" height="22" rx="3" fill="#40c463"><title>토: 2857.6점</title></rect><text x="148" y="214" font-size="10" fill="#cccccc">2857.6</text>
<text x="28" y="254" font-size="9" fill="#999999">기준: 2026-05-21 22:43</text>
</svg>