<svg xmlns="http://www.w3.org/2000/svg" width="363" height="260">
<text x="181" y="18" text-anchor="middle" font-size="13" font-weight="bold" fill="#111111">최근 2주 요일별 활동</text>
<text x="24" y="46" text-anchor="end" font-size="12" fill="#333333">일</text><rect x="28" y="30" width="120" height="22" rx="3" fill="#40c463"><title>일: 6106.6점</title></rect><text x="153" y="46" font-size="10" fill="#333333">6106.6</text><text x="24" y="74" text-anchor="end" font-size="12" fill="#333333">월</text><rect x="28" y="58" width="104" height="22" rx="3" fill="#40c463"><title>월: 5309.9점</title></rect><text x="137" y="74" font-size="10" fill="#333333">5309.9</text><text x="24" y="102" text-anchor="end" font-size="12" fill="#333333">화</text><rect x="28" y="86" width="96" height="22" rx="3" fill="#40c463"><title>화: 4902.5점</title></rect><text x="129" y="102" font-size="10" fill="#333333">4902.5</text><text x="24" y="130" text-anchor="end" font-size="12" fill="#333333">수</text><rect x="28" y="114" width="280" height="22" rx="3" fill="#216e39"><title>수: 14175.0점</title></rect><text x="313" y="130" font-size="10" fill="#333333">14175.0</text><text x="24" y="158" text-anchor="end" font-size="12" fill="#333333">목</text><rect x="28" y="142" width="184" height="22" rx="3" fill="#30a14e"><title>목: 9330.3점</title></rect><text x="217" y="158" font-size="10" fill="#333333">9330.3</text><text x="24" y="186" text-anchor="end" font-size="12" fill="#333333">금</text><rect x="28" y="170" width="180" height="22" rx="3" fill="#30a14e"><title>금: 9160.8점</title></rect><text x="213" y="186" font-size="10" fill="#333333">9160.8</text><text x="24" y="214" text-anchor="end" font-size="12" fill="#333333">토</text><rect x="28" y="198" width="188" height="22" rx="3" fill="#30a14e"><title>토: 9560.8점</title></rect><text x="221" y="214" font-size="10" fill="#333333">9560.8</text>
<text x="28" y="254" font-size="9" fill="#666666">기준: 2026-07-14 10:56</text>
</svg>