<svg xmlns="http://www.w3.org/2000/svg" width="363" height="260">
<text x="181" y="18" text-anchor="middle" font-size="13" font-weight="bold" fill="#111111">최근 2주 요일별 활동</text>
<text x="24" y="46" text-anchor="end" font-size="12" fill="#333333">일</text><rect x="28" y="30" width="141" height="22" rx="3" fill="#30a14e"><title>일: 2660.7점</title></rect><text x="174" y="46" font-size="10" fill="#333333">2660.7</text><text x="24" y="74" text-anchor="end" font-size="12" fill="#333333">월</text><rect x="28" y="58" width="280" height="22" rx="3" fill="#216e39"><title>월: 5247.6점</title></rect><text x="313" y="74" font-size="10" fill="#333333">5247.6</text><text x="24" y="102" text-anchor="end" font-size="12" fill="#333333">화</text><rect x="28" y="86" width="255" height="22" rx="3" fill="#216e39"><title>화: 4784.9점</title></rect><text x="288" y="102" font-size="10" fill="#333333">4784.9</text><text x="24" y="130" text-anchor="end" font-size="12" fill="#333333">수</text><rect x="28" y="114" width="228" height="22" rx="3" fill="#216e39"><title>수: 4279.0점</title></rect><text x="261" y="130" font-size="10" fill="#333333">4279.0</text><text x="24" y="158" text-anchor="end" font-size="12" fill="#333333">목</text><rect x="28" y="142" width="214" height="22" rx="3" fill="#216e39"><title>목: 4015.0점</title></rect><text x="247" y="158" font-size="10" fill="#333333">4015.0</text><text x="24" y="186" text-anchor="end" font-size="12" fill="#333333">금</text><rect x="28" y="170" width="184" height="22" rx="3" fill="#30a14e"><title>금: 3465.0점</title></rect><text x="217" y="186" font-size="10" fill="#333333">3465.0</text><text x="24" y="214" text-anchor="end" font-size="12" fill="#333333">토</text><rect x="28" y="198" width="209" height="22" rx="3" fill="#30a14e"><title>토: 3927.0점</title></rect><text x="242" y="214" font-size="10" fill="#333333">3927.0</text>
<text x="28" y="254" font-size="9" fill="#666666">기준: 2026-06-07 19:48</text>
</svg>