<svg xmlns="http://www.w3.org/2000/svg" width="363" height="260">
<text x="181" y="18" text-anchor="middle" font-size="13" font-weight="bold" fill="#111111">최근 1달 요일별 활동</text>
<text x="24" y="46" text-anchor="end" font-size="12" fill="#333333">일</text><rect x="28" y="30" width="214" height="22" rx="3" fill="#216e39"><title>일: 22307.6점</title></rect><text x="247" y="46" font-size="10" fill="#333333">22307.6</text><text x="24" y="74" text-anchor="end" font-size="12" fill="#333333">월</text><rect x="28" y="58" width="208" height="22" rx="3" fill="#30a14e"><title>월: 21734.1점</title></rect><text x="241" y="74" font-size="10" fill="#333333">21734.1</text><text x="24" y="102" text-anchor="end" font-size="12" fill="#333333">화</text><rect x="28" y="86" width="280" height="22" rx="3" fill="#216e39"><title>화: 29147.9점</title></rect><text x="313" y="102" font-size="10" fill="#333333">29147.9</text><text x="24" y="130" text-anchor="end" font-size="12" fill="#333333">수</text><rect x="28" y="114" width="212" height="22" rx="3" fill="#216e39"><title>수: 22097.6점</title></rect><text x="245" y="130" font-size="10" fill="#333333">22097.6</text><text x="24" y="158" text-anchor="end" font-size="12" fill="#333333">목</text><rect x="28" y="142" width="176" height="22" rx="3" fill="#30a14e"><title>목: 18376.9점</title></rect><text x="209" y="158" font-size="10" fill="#333333">18376.9</text><text x="24" y="186" text-anchor="end" font-size="12" fill="#333333">금</text><rect x="28" y="170" width="175" height="22" rx="3" fill="#30a14e"><title>금: 18286.5점</title></rect><text x="208" y="186" font-size="10" fill="#333333">18286.5</text><text x="24" y="214" text-anchor="end" font-size="12" fill="#333333">토</text><rect x="28" y="198" width="250" height="22" rx="3" fill="#216e39"><title>토: 26096.3점</title></rect><text x="283" y="214" font-size="10" fill="#333333">26096.3</text>
<text x="28" y="254" font-size="9" fill="#666666">기준: 2026-06-23 20:24</text>
</svg>