<svg xmlns="http://www.w3.org/2000/svg" width="363" height="260">
<text x="181" y="18" text-anchor="middle" font-size="13" font-weight="bold" fill="#111111">최근 2주 요일별 활동</text>
<text x="24" y="46" text-anchor="end" font-size="12" fill="#333333">일</text><rect x="28" y="30" width="226" height="22" rx="3" fill="#216e39"><title>일: 5181.0점</title></rect><text x="259" y="46" font-size="10" fill="#333333">5181.0</text><text x="24" y="74" text-anchor="end" font-size="12" fill="#333333">월</text><rect x="28" y="58" width="136" height="22" rx="3" fill="#40c463"><title>월: 3124.9점</title></rect><text x="169" y="74" font-size="10" fill="#333333">3124.9</text><text x="24" y="102" text-anchor="end" font-size="12" fill="#333333">화</text><rect x="28" y="86" width="116" height="22" rx="3" fill="#40c463"><title>화: 2664.7점</title></rect><text x="149" y="102" font-size="10" fill="#333333">2664.7</text><text x="24" y="130" text-anchor="end" font-size="12" fill="#333333">수</text><rect x="28" y="114" width="96" height="22" rx="3" fill="#40c463"><title>수: 2200.0점</title></rect><text x="129" y="130" font-size="10" fill="#333333">2200.0</text><text x="24" y="158" text-anchor="end" font-size="12" fill="#333333">목</text><rect x="28" y="142" width="79" height="22" rx="3" fill="#40c463"><title>목: 1815.0점</title></rect><text x="112" y="158" font-size="10" fill="#333333">1815.0</text><text x="24" y="186" text-anchor="end" font-size="12" fill="#333333">금</text><rect x="28" y="170" width="228" height="22" rx="3" fill="#216e39"><title>금: 5225.0점</title></rect><text x="261" y="186" font-size="10" fill="#333333">5225.0</text><text x="24" y="214" text-anchor="end" font-size="12" fill="#333333">토</text><rect x="28" y="198" width="280" height="22" rx="3" fill="#216e39"><title>토: 6391.0점</title></rect><text x="313" y="214" font-size="10" fill="#333333">6391.0</text>
<text x="28" y="254" font-size="9" fill="#666666">기준: 2026-06-04 05:11</text>
</svg>