<svg xmlns="http://www.w3.org/2000/svg" width="363" height="260">
<text x="181" y="18" text-anchor="middle" font-size="13" font-weight="bold" fill="#e0e0e0">최근 2주 요일별 활동</text>
<text x="24" y="46" text-anchor="end" font-size="12" fill="#cccccc">일</text><rect x="28" y="30" width="219" height="22" rx="3" fill="#216e39"><title>일: 2386.7점</title></rect><text x="252" y="46" font-size="10" fill="#cccccc">2386.7</text><text x="24" y="74" text-anchor="end" font-size="12" fill="#cccccc">월</text><rect x="28" y="58" width="87" height="22" rx="3" fill="#40c463"><title>월: 954.1점</title></rect><text x="120" y="74" font-size="10" fill="#cccccc">954.1</text><text x="24" y="102" text-anchor="end" font-size="12" fill="#cccccc">화</text><rect x="28" y="86" width="280" height="22" rx="3" fill="#216e39"><title>화: 3046.3점</title></rect><text x="313" y="102" font-size="10" fill="#cccccc">3046.3</text><text x="24" y="130" text-anchor="end" font-size="12" fill="#cccccc">수</text><rect x="28" y="114" width="204" height="22" rx="3" fill="#30a14e"><title>수: 2225.8점</title></rect><text x="237" y="130" font-size="10" fill="#cccccc">2225.8</text><text x="24" y="158" text-anchor="end" font-size="12" fill="#cccccc">목</text><rect x="28" y="142" width="202" height="22" rx="3" fill="#30a14e"><title>목: 2202.5점</title></rect><text x="235" y="158" font-size="10" fill="#cccccc">2202.5</text><text x="24" y="186" text-anchor="end" font-size="12" fill="#cccccc">금</text><rect x="28" y="170" width="176" height="22" rx="3" fill="#30a14e"><title>금: 1920.5점</title></rect><text x="209" y="186" font-size="10" fill="#cccccc">1920.5</text><text x="24" y="214" text-anchor="end" font-size="12" fill="#cccccc">토</text><rect x="28" y="198" width="191" height="22" rx="3" fill="#30a14e"><title>토: 2087.5점</title></rect><text x="224" y="214" font-size="10" fill="#cccccc">2087.5</text>
<text x="28" y="254" font-size="9" fill="#999999">기준: 2026-05-27 10:32</text>
</svg>