<svg xmlns="http://www.w3.org/2000/svg" width="363" height="260">
<text x="181" y="18" text-anchor="middle" font-size="13" font-weight="bold" fill="#e0e0e0">최근 1달 요일별 활동</text>
<text x="24" y="46" text-anchor="end" font-size="12" fill="#cccccc">일</text><rect x="28" y="30" width="217" height="22" rx="3" fill="#216e39"><title>일: 33409.7점</title></rect><text x="250" y="46" font-size="10" fill="#cccccc">33409.7</text><text x="24" y="74" text-anchor="end" font-size="12" fill="#cccccc">월</text><rect x="28" y="58" width="196" height="22" rx="3" fill="#30a14e"><title>월: 30288.6점</title></rect><text x="229" y="74" font-size="10" fill="#cccccc">30288.6</text><text x="24" y="102" text-anchor="end" font-size="12" fill="#cccccc">화</text><rect x="28" y="86" width="280" height="22" rx="3" fill="#216e39"><title>화: 43083.3점</title></rect><text x="313" y="102" font-size="10" fill="#cccccc">43083.3</text><text x="24" y="130" text-anchor="end" font-size="12" fill="#cccccc">수</text><rect x="28" y="114" width="228" height="22" rx="3" fill="#216e39"><title>수: 35106.7점</title></rect><text x="261" y="130" font-size="10" fill="#cccccc">35106.7</text><text x="24" y="158" text-anchor="end" font-size="12" fill="#cccccc">목</text><rect x="28" y="142" width="141" height="22" rx="3" fill="#30a14e"><title>목: 21723.3점</title></rect><text x="174" y="158" font-size="10" fill="#cccccc">21723.3</text><text x="24" y="186" text-anchor="end" font-size="12" fill="#cccccc">금</text><rect x="28" y="170" width="143" height="22" rx="3" fill="#30a14e"><title>금: 22035.7점</title></rect><text x="176" y="186" font-size="10" fill="#cccccc">22035.7</text><text x="24" y="214" text-anchor="end" font-size="12" fill="#cccccc">토</text><rect x="28" y="198" width="210" height="22" rx="3" fill="#216e39"><title>토: 32447.6점</title></rect><text x="243" y="214" font-size="10" fill="#cccccc">32447.6</text>
<text x="28" y="254" font-size="9" fill="#999999">기준: 2026-06-30 04:36</text>
</svg>