<svg xmlns="http://www.w3.org/2000/svg" width="363" height="260">
<text x="181" y="18" text-anchor="middle" font-size="13" font-weight="bold" fill="#111111">최근 1주 요일별 활동</text>
<text x="24" y="46" text-anchor="end" font-size="12" fill="#333333">일</text><rect x="28" y="30" width="57" height="22" rx="3" fill="#9be9a8"><title>일: 693.0점</title></rect><text x="90" y="46" font-size="10" fill="#333333">693.0</text><text x="24" y="74" text-anchor="end" font-size="12" fill="#333333">월</text><rect x="28" y="58" width="24" height="22" rx="3" fill="#9be9a8"><title>월: 292.7점</title></rect><text x="57" y="74" font-size="10" fill="#333333">292.7</text><text x="24" y="102" text-anchor="end" font-size="12" fill="#333333">화</text><rect x="28" y="86" width="5" height="22" rx="3" fill="#9be9a8"><title>화: 66.0점</title></rect><text x="38" y="102" font-size="10" fill="#333333">66.0</text><text x="24" y="130" text-anchor="end" font-size="12" fill="#333333">수</text><rect x="28" y="114" width="280" height="22" rx="3" fill="#216e39"><title>수: 3381.0점</title></rect><text x="313" y="130" font-size="10" fill="#333333">3381.0</text><text x="24" y="158" text-anchor="end" font-size="12" fill="#333333">목</text><rect x="28" y="142" width="122" height="22" rx="3" fill="#40c463"><title>목: 1485.0점</title></rect><text x="155" y="158" font-size="10" fill="#333333">1485.0</text><text x="24" y="186" text-anchor="end" font-size="12" fill="#333333">금</text><rect x="28" y="170" width="100" height="22" rx="3" fill="#40c463"><title>금: 1210.0점</title></rect><text x="133" y="186" font-size="10" fill="#333333">1210.0</text><text x="24" y="214" text-anchor="end" font-size="12" fill="#333333">토</text><rect x="28" y="198" width="176" height="22" rx="3" fill="#30a14e"><title>토: 2131.6점</title></rect><text x="209" y="214" font-size="10" fill="#333333">2131.6</text>
<text x="28" y="254" font-size="9" fill="#666666">기준: 2026-06-16 21:21</text>
</svg>