<svg xmlns="http://www.w3.org/2000/svg" width="363" height="260">
<text x="181" y="18" text-anchor="middle" font-size="13" font-weight="bold" fill="#111111">최근 1달 요일별 활동</text>
<text x="24" y="46" text-anchor="end" font-size="12" fill="#333333">일</text><rect x="28" y="30" width="255" height="22" rx="3" fill="#216e39"><title>일: 52758.0점</title></rect><text x="288" y="46" font-size="10" fill="#333333">52758.0</text><text x="24" y="74" text-anchor="end" font-size="12" fill="#333333">월</text><rect x="28" y="58" width="195" height="22" rx="3" fill="#30a14e"><title>월: 40216.7점</title></rect><text x="228" y="74" font-size="10" fill="#333333">40216.7</text><text x="24" y="102" text-anchor="end" font-size="12" fill="#333333">화</text><rect x="28" y="86" width="280" height="22" rx="3" fill="#216e39"><title>화: 57746.8점</title></rect><text x="313" y="102" font-size="10" fill="#333333">57746.8</text><text x="24" y="130" text-anchor="end" font-size="12" fill="#333333">수</text><rect x="28" y="114" width="237" height="22" rx="3" fill="#216e39"><title>수: 48985.4점</title></rect><text x="270" y="130" font-size="10" fill="#333333">48985.4</text><text x="24" y="158" text-anchor="end" font-size="12" fill="#333333">목</text><rect x="28" y="142" width="114" height="22" rx="3" fill="#40c463"><title>목: 23557.3점</title></rect><text x="147" y="158" font-size="10" fill="#333333">23557.3</text><text x="24" y="186" text-anchor="end" font-size="12" fill="#333333">금</text><rect x="28" y="170" width="124" height="22" rx="3" fill="#40c463"><title>금: 25711.9점</title></rect><text x="157" y="186" font-size="10" fill="#333333">25711.9</text><text x="24" y="214" text-anchor="end" font-size="12" fill="#333333">토</text><rect x="28" y="198" width="237" height="22" rx="3" fill="#216e39"><title>토: 49045.3점</title></rect><text x="270" y="214" font-size="10" fill="#333333">49045.3</text>
<text x="28" y="254" font-size="9" fill="#666666">기준: 2026-07-05 14:11</text>
</svg>