<svg xmlns="http://www.w3.org/2000/svg" width="363" height="260">
<text x="181" y="18" text-anchor="middle" font-size="13" font-weight="bold" fill="#e0e0e0">최근 1달 요일별 활동</text>
<text x="24" y="46" text-anchor="end" font-size="12" fill="#cccccc">일</text><rect x="28" y="30" width="238" height="22" rx="3" fill="#216e39"><title>일: 75997.6점</title></rect><text x="271" y="46" font-size="10" fill="#cccccc">75997.6</text><text x="24" y="74" text-anchor="end" font-size="12" fill="#cccccc">월</text><rect x="28" y="58" width="223" height="22" rx="3" fill="#216e39"><title>월: 71201.2점</title></rect><text x="256" y="74" font-size="10" fill="#cccccc">71201.2</text><text x="24" y="102" text-anchor="end" font-size="12" fill="#cccccc">화</text><rect x="28" y="86" width="229" height="22" rx="3" fill="#216e39"><title>화: 73043.0점</title></rect><text x="262" y="102" font-size="10" fill="#cccccc">73043.0</text><text x="24" y="130" text-anchor="end" font-size="12" fill="#cccccc">수</text><rect x="28" y="114" width="280" height="22" rx="3" fill="#216e39"><title>수: 89207.1점</title></rect><text x="313" y="130" font-size="10" fill="#cccccc">89207.1</text><text x="24" y="158" text-anchor="end" font-size="12" fill="#cccccc">목</text><rect x="28" y="142" width="138" height="22" rx="3" fill="#40c463"><title>목: 44109.2점</title></rect><text x="171" y="158" font-size="10" fill="#cccccc">44109.2</text><text x="24" y="186" text-anchor="end" font-size="12" fill="#cccccc">금</text><rect x="28" y="170" width="160" height="22" rx="3" fill="#30a14e"><title>금: 51045.0점</title></rect><text x="193" y="186" font-size="10" fill="#cccccc">51045.0</text><text x="24" y="214" text-anchor="end" font-size="12" fill="#cccccc">토</text><rect x="28" y="198" width="177" height="22" rx="3" fill="#30a14e"><title>토: 56490.4점</title></rect><text x="210" y="214" font-size="10" fill="#cccccc">56490.4</text>
<text x="28" y="254" font-size="9" fill="#999999">기준: 2026-07-16 14:25</text>
</svg>