<svg xmlns="http://www.w3.org/2000/svg" width="363" height="260">
<text x="181" y="18" text-anchor="middle" font-size="13" font-weight="bold" fill="#111111">최근 1주 요일별 활동</text>
<text x="24" y="46" text-anchor="end" font-size="12" fill="#333333">일</text><rect x="28" y="30" width="273" height="22" rx="3" fill="#216e39"><title>일: 2033.2점</title></rect><text x="306" y="46" font-size="10" fill="#333333">2033.2</text><text x="24" y="74" text-anchor="end" font-size="12" fill="#333333">월</text><rect x="28" y="58" width="111" height="22" rx="3" fill="#40c463"><title>월: 825.0점</title></rect><text x="144" y="74" font-size="10" fill="#333333">825.0</text><text x="24" y="102" text-anchor="end" font-size="12" fill="#333333">화</text><rect x="28" y="86" width="272" height="22" rx="3" fill="#216e39"><title>화: 2025.9점</title></rect><text x="305" y="102" font-size="10" fill="#333333">2025.9</text><text x="24" y="130" text-anchor="end" font-size="12" fill="#333333">수</text><rect x="28" y="114" width="76" height="22" rx="3" fill="#40c463"><title>수: 569.7점</title></rect><text x="109" y="130" font-size="10" fill="#333333">569.7</text><text x="24" y="158" text-anchor="end" font-size="12" fill="#333333">목</text><rect x="28" y="142" width="4" height="22" rx="3" fill="#9be9a8"><title>목: 33.0점</title></rect><text x="37" y="158" font-size="10" fill="#333333">33.0</text><text x="24" y="186" text-anchor="end" font-size="12" fill="#333333">금</text><rect x="28" y="170" width="244" height="22" rx="3" fill="#216e39"><title>금: 1815.0점</title></rect><text x="277" y="186" font-size="10" fill="#333333">1815.0</text><text x="24" y="214" text-anchor="end" font-size="12" fill="#333333">토</text><rect x="28" y="198" width="280" height="22" rx="3" fill="#216e39"><title>토: 2079.0점</title></rect><text x="313" y="214" font-size="10" fill="#333333">2079.0</text>
<text x="28" y="254" font-size="9" fill="#666666">기준: 2026-06-11 16:31</text>
</svg>