<svg xmlns="http://www.w3.org/2000/svg" width="363" height="260">
<text x="181" y="18" text-anchor="middle" font-size="13" font-weight="bold" fill="#e0e0e0">최근 1달 요일별 활동</text>
<text x="24" y="46" text-anchor="end" font-size="12" fill="#cccccc">일</text><rect x="28" y="30" width="205" height="22" rx="3" fill="#30a14e"><title>일: 6494.5점</title></rect><text x="238" y="46" font-size="10" fill="#cccccc">6494.5</text><text x="24" y="74" text-anchor="end" font-size="12" fill="#cccccc">월</text><rect x="28" y="58" width="118" height="22" rx="3" fill="#40c463"><title>월: 3749.9점</title></rect><text x="151" y="74" font-size="10" fill="#cccccc">3749.9</text><text x="24" y="102" text-anchor="end" font-size="12" fill="#cccccc">화</text><rect x="28" y="86" width="280" height="22" rx="3" fill="#216e39"><title>화: 8830.3점</title></rect><text x="313" y="102" font-size="10" fill="#cccccc">8830.3</text><text x="24" y="130" text-anchor="end" font-size="12" fill="#cccccc">수</text><rect x="28" y="114" width="275" height="22" rx="3" fill="#216e39"><title>수: 8673.3점</title></rect><text x="308" y="130" font-size="10" fill="#cccccc">8673.3</text><text x="24" y="158" text-anchor="end" font-size="12" fill="#cccccc">목</text><rect x="28" y="142" width="224" height="22" rx="3" fill="#216e39"><title>목: 7093.3점</title></rect><text x="257" y="158" font-size="10" fill="#cccccc">7093.3</text><text x="24" y="186" text-anchor="end" font-size="12" fill="#cccccc">금</text><rect x="28" y="170" width="169" height="22" rx="3" fill="#30a14e"><title>금: 5342.0점</title></rect><text x="202" y="186" font-size="10" fill="#cccccc">5342.0</text><text x="24" y="214" text-anchor="end" font-size="12" fill="#cccccc">토</text><rect x="28" y="198" width="103" height="22" rx="3" fill="#40c463"><title>토: 3276.6점</title></rect><text x="136" y="214" font-size="10" fill="#cccccc">3276.6</text>
<text x="28" y="254" font-size="9" fill="#999999">기준: 2026-05-27 16:13</text>
</svg>