<svg xmlns="http://www.w3.org/2000/svg" width="363" height="260">
<text x="181" y="18" text-anchor="middle" font-size="13" font-weight="bold" fill="#e0e0e0">최근 1주 요일별 활동</text>
<text x="24" y="46" text-anchor="end" font-size="12" fill="#cccccc">일</text><rect x="28" y="30" width="117" height="22" rx="3" fill="#40c463"><title>일: 1617.0점</title></rect><text x="150" y="46" font-size="10" fill="#cccccc">1617.0</text><text x="24" y="74" text-anchor="end" font-size="12" fill="#cccccc">월</text><rect x="28" y="58" width="72" height="22" rx="3" fill="#40c463"><title>월: 997.5점</title></rect><text x="105" y="74" font-size="10" fill="#cccccc">997.5</text><text x="24" y="102" text-anchor="end" font-size="12" fill="#cccccc">화</text><rect x="28" y="86" width="49" height="22" rx="3" fill="#9be9a8"><title>화: 682.0점</title></rect><text x="82" y="102" font-size="10" fill="#cccccc">682.0</text><text x="24" y="130" text-anchor="end" font-size="12" fill="#cccccc">수</text><rect x="28" y="114" width="43" height="22" rx="3" fill="#9be9a8"><title>수: 605.0점</title></rect><text x="76" y="130" font-size="10" fill="#cccccc">605.0</text><text x="24" y="158" text-anchor="end" font-size="12" fill="#cccccc">목</text><rect x="28" y="142" width="23" height="22" rx="3" fill="#9be9a8"><title>목: 330.0점</title></rect><text x="56" y="158" font-size="10" fill="#cccccc">330.0</text><text x="24" y="186" text-anchor="end" font-size="12" fill="#cccccc">금</text><rect x="28" y="170" width="7" height="22" rx="3" fill="#9be9a8"><title>금: 105.6점</title></rect><text x="40" y="186" font-size="10" fill="#cccccc">105.6</text><text x="24" y="214" text-anchor="end" font-size="12" fill="#cccccc">토</text><rect x="28" y="198" width="280" height="22" rx="3" fill="#216e39"><title>토: 3851.9점</title></rect><text x="313" y="214" font-size="10" fill="#cccccc">3851.9</text>
<text x="28" y="254" font-size="9" fill="#999999">기준: 2026-06-19 20:05</text>
</svg>