<svg xmlns="http://www.w3.org/2000/svg" width="363" height="260">
<text x="181" y="18" text-anchor="middle" font-size="13" font-weight="bold" fill="#e0e0e0">최근 2주 요일별 활동</text>
<text x="24" y="46" text-anchor="end" font-size="12" fill="#cccccc">일</text><rect x="28" y="30" width="109" height="22" rx="3" fill="#40c463"><title>일: 1146.1점</title></rect><text x="142" y="46" font-size="10" fill="#cccccc">1146.1</text><text x="24" y="74" text-anchor="end" font-size="12" fill="#cccccc">월</text><rect x="28" y="58" width="108" height="22" rx="3" fill="#40c463"><title>월: 1135.5점</title></rect><text x="141" y="74" font-size="10" fill="#cccccc">1135.5</text><text x="24" y="102" text-anchor="end" font-size="12" fill="#cccccc">화</text><rect x="28" y="86" width="280" height="22" rx="3" fill="#216e39"><title>화: 2940.5점</title></rect><text x="313" y="102" font-size="10" fill="#cccccc">2940.5</text><text x="24" y="130" text-anchor="end" font-size="12" fill="#cccccc">수</text><rect x="28" y="114" width="173" height="22" rx="3" fill="#30a14e"><title>수: 1824.5점</title></rect><text x="206" y="130" font-size="10" fill="#cccccc">1824.5</text><text x="24" y="158" text-anchor="end" font-size="12" fill="#cccccc">목</text><rect x="28" y="142" width="146" height="22" rx="3" fill="#30a14e"><title>목: 1542.5점</title></rect><text x="179" y="158" font-size="10" fill="#cccccc">1542.5</text><text x="24" y="186" text-anchor="end" font-size="12" fill="#cccccc">금</text><rect x="28" y="170" width="120" height="22" rx="3" fill="#40c463"><title>금: 1260.5점</title></rect><text x="153" y="186" font-size="10" fill="#cccccc">1260.5</text><text x="24" y="214" text-anchor="end" font-size="12" fill="#cccccc">토</text><rect x="28" y="198" width="110" height="22" rx="3" fill="#40c463"><title>토: 1163.5점</title></rect><text x="143" y="214" font-size="10" fill="#cccccc">1163.5</text>
<text x="28" y="254" font-size="9" fill="#999999">기준: 2026-05-24 22:13</text>
</svg>