<svg xmlns="http://www.w3.org/2000/svg" width="363" height="260">
<text x="181" y="18" text-anchor="middle" font-size="13" font-weight="bold" fill="#111111">최근 2주 요일별 활동</text>
<text x="24" y="46" text-anchor="end" font-size="12" fill="#333333">일</text><rect x="28" y="30" width="202" height="22" rx="3" fill="#30a14e"><title>일: 8500.1점</title></rect><text x="235" y="46" font-size="10" fill="#333333">8500.1</text><text x="24" y="74" text-anchor="end" font-size="12" fill="#333333">월</text><rect x="28" y="58" width="113" height="22" rx="3" fill="#40c463"><title>월: 4748.6점</title></rect><text x="146" y="74" font-size="10" fill="#333333">4748.6</text><text x="24" y="102" text-anchor="end" font-size="12" fill="#333333">화</text><rect x="28" y="86" width="280" height="22" rx="3" fill="#216e39"><title>화: 11758.9점</title></rect><text x="313" y="102" font-size="10" fill="#333333">11758.9</text><text x="24" y="130" text-anchor="end" font-size="12" fill="#333333">수</text><rect x="28" y="114" width="155" height="22" rx="3" fill="#30a14e"><title>수: 6531.1점</title></rect><text x="188" y="130" font-size="10" fill="#333333">6531.1</text><text x="24" y="158" text-anchor="end" font-size="12" fill="#333333">목</text><rect x="28" y="142" width="78" height="22" rx="3" fill="#40c463"><title>목: 3284.7점</title></rect><text x="111" y="158" font-size="10" fill="#333333">3284.7</text><text x="24" y="186" text-anchor="end" font-size="12" fill="#333333">금</text><rect x="28" y="170" width="70" height="22" rx="3" fill="#40c463"><title>금: 2978.0점</title></rect><text x="103" y="186" font-size="10" fill="#333333">2978.0</text><text x="24" y="214" text-anchor="end" font-size="12" fill="#333333">토</text><rect x="28" y="198" width="118" height="22" rx="3" fill="#40c463"><title>토: 4957.6점</title></rect><text x="151" y="214" font-size="10" fill="#333333">4957.6</text>
<text x="28" y="254" font-size="9" fill="#666666">기준: 2026-06-20 19:58</text>
</svg>