<svg xmlns="http://www.w3.org/2000/svg" width="363" height="260">
<text x="181" y="18" text-anchor="middle" font-size="13" font-weight="bold" fill="#e0e0e0">최근 1달 요일별 활동</text>
<text x="24" y="46" text-anchor="end" font-size="12" fill="#cccccc">일</text><rect x="28" y="30" width="243" height="22" rx="3" fill="#216e39"><title>일: 64467.5점</title></rect><text x="276" y="46" font-size="10" fill="#cccccc">64467.5</text><text x="24" y="74" text-anchor="end" font-size="12" fill="#cccccc">월</text><rect x="28" y="58" width="263" height="22" rx="3" fill="#216e39"><title>월: 69547.8점</title></rect><text x="296" y="74" font-size="10" fill="#cccccc">69547.8</text><text x="24" y="102" text-anchor="end" font-size="12" fill="#cccccc">화</text><rect x="28" y="86" width="263" height="22" rx="3" fill="#216e39"><title>화: 69722.9점</title></rect><text x="296" y="102" font-size="10" fill="#cccccc">69722.9</text><text x="24" y="130" text-anchor="end" font-size="12" fill="#cccccc">수</text><rect x="28" y="114" width="280" height="22" rx="3" fill="#216e39"><title>수: 73999.3점</title></rect><text x="313" y="130" font-size="10" fill="#cccccc">73999.3</text><text x="24" y="158" text-anchor="end" font-size="12" fill="#cccccc">목</text><rect x="28" y="142" width="141" height="22" rx="3" fill="#30a14e"><title>목: 37329.0점</title></rect><text x="174" y="158" font-size="10" fill="#cccccc">37329.0</text><text x="24" y="186" text-anchor="end" font-size="12" fill="#cccccc">금</text><rect x="28" y="170" width="158" height="22" rx="3" fill="#30a14e"><title>금: 41930.0점</title></rect><text x="191" y="186" font-size="10" fill="#cccccc">41930.0</text><text x="24" y="214" text-anchor="end" font-size="12" fill="#cccccc">토</text><rect x="28" y="198" width="180" height="22" rx="3" fill="#30a14e"><title>토: 47697.8점</title></rect><text x="213" y="214" font-size="10" fill="#cccccc">47697.8</text>
<text x="28" y="254" font-size="9" fill="#999999">기준: 2026-07-14 14:15</text>
</svg>