<svg xmlns="http://www.w3.org/2000/svg" width="363" height="260">
<text x="181" y="18" text-anchor="middle" font-size="13" font-weight="bold" fill="#111111">최근 1달 요일별 활동</text>
<text x="24" y="46" text-anchor="end" font-size="12" fill="#333333">일</text><rect x="28" y="30" width="280" height="22" rx="3" fill="#216e39"><title>일: 68456.6점</title></rect><text x="313" y="46" font-size="10" fill="#333333">68456.6</text><text x="24" y="74" text-anchor="end" font-size="12" fill="#333333">월</text><rect x="28" y="58" width="242" height="22" rx="3" fill="#216e39"><title>월: 59246.8점</title></rect><text x="275" y="74" font-size="10" fill="#333333">59246.8</text><text x="24" y="102" text-anchor="end" font-size="12" fill="#333333">화</text><rect x="28" y="86" width="244" height="22" rx="3" fill="#216e39"><title>화: 59806.5점</title></rect><text x="277" y="102" font-size="10" fill="#333333">59806.5</text><text x="24" y="130" text-anchor="end" font-size="12" fill="#333333">수</text><rect x="28" y="114" width="258" height="22" rx="3" fill="#216e39"><title>수: 63147.2점</title></rect><text x="291" y="130" font-size="10" fill="#333333">63147.2</text><text x="24" y="158" text-anchor="end" font-size="12" fill="#333333">목</text><rect x="28" y="142" width="131" height="22" rx="3" fill="#40c463"><title>목: 32133.3점</title></rect><text x="164" y="158" font-size="10" fill="#333333">32133.3</text><text x="24" y="186" text-anchor="end" font-size="12" fill="#333333">금</text><rect x="28" y="170" width="144" height="22" rx="3" fill="#30a14e"><title>금: 35443.3점</title></rect><text x="177" y="186" font-size="10" fill="#333333">35443.3</text><text x="24" y="214" text-anchor="end" font-size="12" fill="#333333">토</text><rect x="28" y="198" width="253" height="22" rx="3" fill="#216e39"><title>토: 61937.6점</title></rect><text x="286" y="214" font-size="10" fill="#333333">61937.6</text>
<text x="28" y="254" font-size="9" fill="#666666">기준: 2026-07-12 19:33</text>
</svg>