<svg xmlns="http://www.w3.org/2000/svg" width="363" height="260">
<text x="181" y="18" text-anchor="middle" font-size="13" font-weight="bold" fill="#111111">최근 1주 요일별 활동</text>
<text x="24" y="46" text-anchor="end" font-size="12" fill="#333333">일</text><rect x="28" y="30" width="71" height="22" rx="3" fill="#40c463"><title>일: 1197.0점</title></rect><text x="104" y="46" font-size="10" fill="#333333">1197.0</text><text x="24" y="74" text-anchor="end" font-size="12" fill="#333333">월</text><rect x="28" y="58" width="30" height="22" rx="3" fill="#9be9a8"><title>월: 512.7점</title></rect><text x="63" y="74" font-size="10" fill="#333333">512.7</text><text x="24" y="102" text-anchor="end" font-size="12" fill="#333333">화</text><rect x="28" y="86" width="252" height="22" rx="3" fill="#216e39"><title>화: 4236.9점</title></rect><text x="285" y="102" font-size="10" fill="#333333">4236.9</text><text x="24" y="130" text-anchor="end" font-size="12" fill="#333333">수</text><rect x="28" y="114" width="280" height="22" rx="3" fill="#216e39"><title>수: 4703.6점</title></rect><text x="313" y="130" font-size="10" fill="#333333">4703.6</text><text x="24" y="158" text-anchor="end" font-size="12" fill="#333333">목</text><rect x="28" y="142" width="124" height="22" rx="3" fill="#40c463"><title>목: 2095.2점</title></rect><text x="157" y="158" font-size="10" fill="#333333">2095.2</text><text x="24" y="186" text-anchor="end" font-size="12" fill="#333333">금</text><rect x="28" y="170" width="217" height="22" rx="3" fill="#216e39"><title>금: 3659.7점</title></rect><text x="250" y="186" font-size="10" fill="#333333">3659.7</text><text x="24" y="214" text-anchor="end" font-size="12" fill="#333333">토</text><rect x="28" y="198" width="113" height="22" rx="3" fill="#40c463"><title>토: 1901.4점</title></rect><text x="146" y="214" font-size="10" fill="#333333">1901.4</text>
<text x="28" y="254" font-size="9" fill="#666666">기준: 2026-07-13 19:52</text>
</svg>