<svg xmlns="http://www.w3.org/2000/svg" width="363" height="260">
<text x="181" y="18" text-anchor="middle" font-size="13" font-weight="bold" fill="#111111">최근 2주 요일별 활동</text>
<text x="24" y="46" text-anchor="end" font-size="12" fill="#333333">일</text><rect x="28" y="30" width="211" height="22" rx="3" fill="#216e39"><title>일: 3772.1점</title></rect><text x="244" y="46" font-size="10" fill="#333333">3772.1</text><text x="24" y="74" text-anchor="end" font-size="12" fill="#333333">월</text><rect x="28" y="58" width="108" height="22" rx="3" fill="#40c463"><title>월: 1940.1점</title></rect><text x="141" y="74" font-size="10" fill="#333333">1940.1</text><text x="24" y="102" text-anchor="end" font-size="12" fill="#333333">화</text><rect x="28" y="86" width="89" height="22" rx="3" fill="#40c463"><title>화: 1604.4점</title></rect><text x="122" y="102" font-size="10" fill="#333333">1604.4</text><text x="24" y="130" text-anchor="end" font-size="12" fill="#333333">수</text><rect x="28" y="114" width="278" height="22" rx="3" fill="#216e39"><title>수: 4972.0점</title></rect><text x="311" y="130" font-size="10" fill="#333333">4972.0</text><text x="24" y="158" text-anchor="end" font-size="12" fill="#333333">목</text><rect x="28" y="142" width="267" height="22" rx="3" fill="#216e39"><title>목: 4785.0점</title></rect><text x="300" y="158" font-size="10" fill="#333333">4785.0</text><text x="24" y="186" text-anchor="end" font-size="12" fill="#333333">금</text><rect x="28" y="170" width="236" height="22" rx="3" fill="#216e39"><title>금: 4235.0점</title></rect><text x="269" y="186" font-size="10" fill="#333333">4235.0</text><text x="24" y="214" text-anchor="end" font-size="12" fill="#333333">토</text><rect x="28" y="198" width="280" height="22" rx="3" fill="#216e39"><title>토: 5005.0점</title></rect><text x="313" y="214" font-size="10" fill="#333333">5005.0</text>
<text x="28" y="254" font-size="9" fill="#666666">기준: 2026-06-09 04:38</text>
</svg>