<svg xmlns="http://www.w3.org/2000/svg" width="363" height="260">
<text x="181" y="18" text-anchor="middle" font-size="13" font-weight="bold" fill="#111111">최근 1달 요일별 활동</text>
<text x="24" y="46" text-anchor="end" font-size="12" fill="#333333">일</text><rect x="28" y="30" width="280" height="22" rx="3" fill="#216e39"><title>일: 41652.7점</title></rect><text x="313" y="46" font-size="10" fill="#333333">41652.7</text><text x="24" y="74" text-anchor="end" font-size="12" fill="#333333">월</text><rect x="28" y="58" width="192" height="22" rx="3" fill="#30a14e"><title>월: 28654.4점</title></rect><text x="225" y="74" font-size="10" fill="#333333">28654.4</text><text x="24" y="102" text-anchor="end" font-size="12" fill="#333333">화</text><rect x="28" y="86" width="277" height="22" rx="3" fill="#216e39"><title>화: 41294.0점</title></rect><text x="310" y="102" font-size="10" fill="#333333">41294.0</text><text x="24" y="130" text-anchor="end" font-size="12" fill="#333333">수</text><rect x="28" y="114" width="223" height="22" rx="3" fill="#216e39"><title>수: 33320.0점</title></rect><text x="256" y="130" font-size="10" fill="#333333">33320.0</text><text x="24" y="158" text-anchor="end" font-size="12" fill="#333333">목</text><rect x="28" y="142" width="139" height="22" rx="3" fill="#40c463"><title>목: 20735.7점</title></rect><text x="172" y="158" font-size="10" fill="#333333">20735.7</text><text x="24" y="186" text-anchor="end" font-size="12" fill="#333333">금</text><rect x="28" y="170" width="140" height="22" rx="3" fill="#30a14e"><title>금: 20951.5점</title></rect><text x="173" y="186" font-size="10" fill="#333333">20951.5</text><text x="24" y="214" text-anchor="end" font-size="12" fill="#333333">토</text><rect x="28" y="198" width="208" height="22" rx="3" fill="#30a14e"><title>토: 31012.5점</title></rect><text x="241" y="214" font-size="10" fill="#333333">31012.5</text>
<text x="28" y="254" font-size="9" fill="#666666">기준: 2026-06-29 16:12</text>
</svg>