<svg xmlns="http://www.w3.org/2000/svg" width="363" height="260">
<text x="181" y="18" text-anchor="middle" font-size="13" font-weight="bold" fill="#111111">최근 1주 요일별 활동</text>
<text x="24" y="46" text-anchor="end" font-size="12" fill="#333333">일</text><rect x="28" y="30" width="118" height="22" rx="3" fill="#40c463"><title>일: 1683.0점</title></rect><text x="151" y="46" font-size="10" fill="#333333">1683.0</text><text x="24" y="74" text-anchor="end" font-size="12" fill="#333333">월</text><rect x="28" y="58" width="73" height="22" rx="3" fill="#40c463"><title>월: 1047.8점</title></rect><text x="106" y="74" font-size="10" fill="#333333">1047.8</text><text x="24" y="102" text-anchor="end" font-size="12" fill="#333333">화</text><rect x="28" y="86" width="51" height="22" rx="3" fill="#9be9a8"><title>화: 726.0점</title></rect><text x="84" y="102" font-size="10" fill="#333333">726.0</text><text x="24" y="130" text-anchor="end" font-size="12" fill="#333333">수</text><rect x="28" y="114" width="46" height="22" rx="3" fill="#9be9a8"><title>수: 660.0점</title></rect><text x="79" y="130" font-size="10" fill="#333333">660.0</text><text x="24" y="158" text-anchor="end" font-size="12" fill="#333333">목</text><rect x="28" y="142" width="27" height="22" rx="3" fill="#9be9a8"><title>목: 385.0점</title></rect><text x="60" y="158" font-size="10" fill="#333333">385.0</text><text x="24" y="186" text-anchor="end" font-size="12" fill="#333333">금</text><rect x="28" y="170" width="11" height="22" rx="3" fill="#9be9a8"><title>금: 169.5점</title></rect><text x="44" y="186" font-size="10" fill="#333333">169.5</text><text x="24" y="214" text-anchor="end" font-size="12" fill="#333333">토</text><rect x="28" y="198" width="280" height="22" rx="3" fill="#216e39"><title>토: 3974.8점</title></rect><text x="313" y="214" font-size="10" fill="#333333">3974.8</text>
<text x="28" y="254" font-size="9" fill="#666666">기준: 2026-06-19 22:14</text>
</svg>