<svg xmlns="http://www.w3.org/2000/svg" width="363" height="260">
<text x="181" y="18" text-anchor="middle" font-size="13" font-weight="bold" fill="#111111">최근 1주 요일별 활동</text>
<text x="24" y="46" text-anchor="end" font-size="12" fill="#333333">일</text><rect x="28" y="30" width="280" height="22" rx="3" fill="#216e39"><title>일: 11502.5점</title></rect><text x="313" y="46" font-size="10" fill="#333333">11502.5</text><text x="24" y="74" text-anchor="end" font-size="12" fill="#333333">월</text><rect x="28" y="58" width="212" height="22" rx="3" fill="#216e39"><title>월: 8743.2점</title></rect><text x="245" y="74" font-size="10" fill="#333333">8743.2</text><text x="24" y="102" text-anchor="end" font-size="12" fill="#333333">화</text><rect x="28" y="86" width="209" height="22" rx="3" fill="#30a14e"><title>화: 8608.1점</title></rect><text x="242" y="102" font-size="10" fill="#333333">8608.1</text><text x="24" y="130" text-anchor="end" font-size="12" fill="#333333">수</text><rect x="28" y="114" width="184" height="22" rx="3" fill="#30a14e"><title>수: 7596.5점</title></rect><text x="217" y="130" font-size="10" fill="#333333">7596.5</text><text x="24" y="158" text-anchor="end" font-size="12" fill="#333333">목</text><rect x="28" y="142" width="53" height="22" rx="3" fill="#9be9a8"><title>목: 2190.8점</title></rect><text x="86" y="158" font-size="10" fill="#333333">2190.8</text><text x="24" y="186" text-anchor="end" font-size="12" fill="#333333">금</text><rect x="28" y="170" width="31" height="22" rx="3" fill="#9be9a8"><title>금: 1280.8점</title></rect><text x="64" y="186" font-size="10" fill="#333333">1280.8</text><text x="24" y="214" text-anchor="end" font-size="12" fill="#333333">토</text><rect x="28" y="198" width="6" height="22" rx="3" fill="#9be9a8"><title>토: 264.5점</title></rect><text x="39" y="214" font-size="10" fill="#333333">264.5</text>
<text x="28" y="254" font-size="9" fill="#666666">기준: 2026-06-27 22:18</text>
</svg>