<svg xmlns="http://www.w3.org/2000/svg" width="363" height="260">
<text x="181" y="18" text-anchor="middle" font-size="13" font-weight="bold" fill="#111111">최근 1달 요일별 활동</text>
<text x="24" y="46" text-anchor="end" font-size="12" fill="#333333">일</text><rect x="28" y="30" width="264" height="22" rx="3" fill="#216e39"><title>일: 34985.2점</title></rect><text x="297" y="46" font-size="10" fill="#333333">34985.2</text><text x="24" y="74" text-anchor="end" font-size="12" fill="#333333">월</text><rect x="28" y="58" width="178" height="22" rx="3" fill="#30a14e"><title>월: 23677.7점</title></rect><text x="211" y="74" font-size="10" fill="#333333">23677.7</text><text x="24" y="102" text-anchor="end" font-size="12" fill="#333333">화</text><rect x="28" y="86" width="262" height="22" rx="3" fill="#216e39"><title>화: 34733.2점</title></rect><text x="295" y="102" font-size="10" fill="#333333">34733.2</text><text x="24" y="130" text-anchor="end" font-size="12" fill="#333333">수</text><rect x="28" y="114" width="202" height="22" rx="3" fill="#30a14e"><title>수: 26768.8점</title></rect><text x="235" y="130" font-size="10" fill="#333333">26768.8</text><text x="24" y="158" text-anchor="end" font-size="12" fill="#333333">목</text><rect x="28" y="142" width="129" height="22" rx="3" fill="#40c463"><title>목: 17114.5점</title></rect><text x="162" y="158" font-size="10" fill="#333333">17114.5</text><text x="24" y="186" text-anchor="end" font-size="12" fill="#333333">금</text><rect x="28" y="170" width="198" height="22" rx="3" fill="#30a14e"><title>금: 26247.1점</title></rect><text x="231" y="186" font-size="10" fill="#333333">26247.1</text><text x="24" y="214" text-anchor="end" font-size="12" fill="#333333">토</text><rect x="28" y="198" width="280" height="22" rx="3" fill="#216e39"><title>토: 37102.5점</title></rect><text x="313" y="214" font-size="10" fill="#333333">37102.5</text>
<text x="28" y="254" font-size="9" fill="#666666">기준: 2026-06-27 16:33</text>
</svg>