<svg xmlns="http://www.w3.org/2000/svg" width="363" height="260">
<text x="181" y="18" text-anchor="middle" font-size="13" font-weight="bold" fill="#111111">최근 1달 요일별 활동</text>
<text x="24" y="46" text-anchor="end" font-size="12" fill="#333333">일</text><rect x="28" y="30" width="259" height="22" rx="3" fill="#216e39"><title>일: 14931.2점</title></rect><text x="292" y="46" font-size="10" fill="#333333">14931.2</text><text x="24" y="74" text-anchor="end" font-size="12" fill="#333333">월</text><rect x="28" y="58" width="146" height="22" rx="3" fill="#30a14e"><title>월: 8410.3점</title></rect><text x="179" y="74" font-size="10" fill="#333333">8410.3</text><text x="24" y="102" text-anchor="end" font-size="12" fill="#333333">화</text><rect x="28" y="86" width="280" height="22" rx="3" fill="#216e39"><title>화: 16087.9점</title></rect><text x="313" y="102" font-size="10" fill="#333333">16087.9</text><text x="24" y="130" text-anchor="end" font-size="12" fill="#333333">수</text><rect x="28" y="114" width="218" height="22" rx="3" fill="#216e39"><title>수: 12576.8점</title></rect><text x="251" y="130" font-size="10" fill="#333333">12576.8</text><text x="24" y="158" text-anchor="end" font-size="12" fill="#333333">목</text><rect x="28" y="142" width="205" height="22" rx="3" fill="#30a14e"><title>목: 11827.5점</title></rect><text x="238" y="158" font-size="10" fill="#333333">11827.5</text><text x="24" y="186" text-anchor="end" font-size="12" fill="#333333">금</text><rect x="28" y="170" width="191" height="22" rx="3" fill="#30a14e"><title>금: 10995.5점</title></rect><text x="224" y="186" font-size="10" fill="#333333">10995.5</text><text x="24" y="214" text-anchor="end" font-size="12" fill="#333333">토</text><rect x="28" y="198" width="241" height="22" rx="3" fill="#216e39"><title>토: 13868.5점</title></rect><text x="274" y="214" font-size="10" fill="#333333">13868.5</text>
<text x="28" y="254" font-size="9" fill="#666666">기준: 2026-06-10 16:10</text>
</svg>