<svg xmlns="http://www.w3.org/2000/svg" width="363" height="260">
<text x="181" y="18" text-anchor="middle" font-size="13" font-weight="bold" fill="#e0e0e0">최근 1달 요일별 활동</text>
<text x="24" y="46" text-anchor="end" font-size="12" fill="#cccccc">일</text><rect x="28" y="30" width="280" height="22" rx="3" fill="#216e39"><title>일: 67486.4점</title></rect><text x="313" y="46" font-size="10" fill="#cccccc">67486.4</text><text x="24" y="74" text-anchor="end" font-size="12" fill="#cccccc">월</text><rect x="28" y="58" width="242" height="22" rx="3" fill="#216e39"><title>월: 58447.7점</title></rect><text x="275" y="74" font-size="10" fill="#cccccc">58447.7</text><text x="24" y="102" text-anchor="end" font-size="12" fill="#cccccc">화</text><rect x="28" y="86" width="244" height="22" rx="3" fill="#216e39"><title>화: 58928.6점</title></rect><text x="277" y="102" font-size="10" fill="#cccccc">58928.6</text><text x="24" y="130" text-anchor="end" font-size="12" fill="#cccccc">수</text><rect x="28" y="114" width="257" height="22" rx="3" fill="#216e39"><title>수: 62160.6점</title></rect><text x="290" y="130" font-size="10" fill="#cccccc">62160.6</text><text x="24" y="158" text-anchor="end" font-size="12" fill="#cccccc">목</text><rect x="28" y="142" width="131" height="22" rx="3" fill="#40c463"><title>목: 31661.0점</title></rect><text x="164" y="158" font-size="10" fill="#cccccc">31661.0</text><text x="24" y="186" text-anchor="end" font-size="12" fill="#cccccc">금</text><rect x="28" y="170" width="144" height="22" rx="3" fill="#30a14e"><title>금: 34853.6점</title></rect><text x="177" y="186" font-size="10" fill="#cccccc">34853.6</text><text x="24" y="214" text-anchor="end" font-size="12" fill="#cccccc">토</text><rect x="28" y="198" width="253" height="22" rx="3" fill="#216e39"><title>토: 61207.2점</title></rect><text x="286" y="214" font-size="10" fill="#cccccc">61207.2</text>
<text x="28" y="254" font-size="9" fill="#999999">기준: 2026-07-12 16:14</text>
</svg>