<svg xmlns="http://www.w3.org/2000/svg" width="363" height="260">
<text x="181" y="18" text-anchor="middle" font-size="13" font-weight="bold" fill="#111111">최근 2주 요일별 활동</text>
<text x="24" y="46" text-anchor="end" font-size="12" fill="#333333">일</text><rect x="28" y="30" width="222" height="22" rx="3" fill="#216e39"><title>일: 2903.6점</title></rect><text x="255" y="46" font-size="10" fill="#333333">2903.6</text><text x="24" y="74" text-anchor="end" font-size="12" fill="#333333">월</text><rect x="28" y="58" width="98" height="22" rx="3" fill="#40c463"><title>월: 1279.0점</title></rect><text x="131" y="74" font-size="10" fill="#333333">1279.0</text><text x="24" y="102" text-anchor="end" font-size="12" fill="#333333">화</text><rect x="28" y="86" width="280" height="22" rx="3" fill="#216e39"><title>화: 3648.4점</title></rect><text x="313" y="102" font-size="10" fill="#333333">3648.4</text><text x="24" y="130" text-anchor="end" font-size="12" fill="#333333">수</text><rect x="28" y="114" width="209" height="22" rx="3" fill="#30a14e"><title>수: 2725.8점</title></rect><text x="242" y="130" font-size="10" fill="#333333">2725.8</text><text x="24" y="158" text-anchor="end" font-size="12" fill="#333333">목</text><rect x="28" y="142" width="161" height="22" rx="3" fill="#30a14e"><title>목: 2101.0점</title></rect><text x="194" y="158" font-size="10" fill="#333333">2101.0</text><text x="24" y="186" text-anchor="end" font-size="12" fill="#333333">금</text><rect x="28" y="170" width="168" height="22" rx="3" fill="#30a14e"><title>금: 2195.5점</title></rect><text x="201" y="186" font-size="10" fill="#333333">2195.5</text><text x="24" y="214" text-anchor="end" font-size="12" fill="#333333">토</text><rect x="28" y="198" width="189" height="22" rx="3" fill="#30a14e"><title>토: 2472.5점</title></rect><text x="222" y="214" font-size="10" fill="#333333">2472.5</text>
<text x="28" y="254" font-size="9" fill="#666666">기준: 2026-05-28 10:34</text>
</svg>