<svg xmlns="http://www.w3.org/2000/svg" width="363" height="260">
<text x="181" y="18" text-anchor="middle" font-size="13" font-weight="bold" fill="#e0e0e0">최근 2주 요일별 활동</text>
<text x="24" y="46" text-anchor="end" font-size="12" fill="#cccccc">일</text><rect x="28" y="30" width="89" height="22" rx="3" fill="#40c463"><title>일: 5019.6점</title></rect><text x="122" y="46" font-size="10" fill="#cccccc">5019.6</text><text x="24" y="74" text-anchor="end" font-size="12" fill="#cccccc">월</text><rect x="28" y="58" width="68" height="22" rx="3" fill="#9be9a8"><title>월: 3829.2점</title></rect><text x="101" y="74" font-size="10" fill="#cccccc">3829.2</text><text x="24" y="102" text-anchor="end" font-size="12" fill="#cccccc">화</text><rect x="28" y="86" width="280" height="22" rx="3" fill="#216e39"><title>화: 15685.6점</title></rect><text x="313" y="102" font-size="10" fill="#cccccc">15685.6</text><text x="24" y="130" text-anchor="end" font-size="12" fill="#cccccc">수</text><rect x="28" y="114" width="222" height="22" rx="3" fill="#216e39"><title>수: 12461.2점</title></rect><text x="255" y="130" font-size="10" fill="#cccccc">12461.2</text><text x="24" y="158" text-anchor="end" font-size="12" fill="#cccccc">목</text><rect x="28" y="142" width="147" height="22" rx="3" fill="#30a14e"><title>목: 8257.1점</title></rect><text x="180" y="158" font-size="10" fill="#cccccc">8257.1</text><text x="24" y="186" text-anchor="end" font-size="12" fill="#cccccc">금</text><rect x="28" y="170" width="141" height="22" rx="3" fill="#30a14e"><title>금: 7928.8점</title></rect><text x="174" y="186" font-size="10" fill="#cccccc">7928.8</text><text x="24" y="214" text-anchor="end" font-size="12" fill="#cccccc">토</text><rect x="28" y="198" width="149" height="22" rx="3" fill="#30a14e"><title>토: 8365.1점</title></rect><text x="182" y="214" font-size="10" fill="#cccccc">8365.1</text>
<text x="28" y="254" font-size="9" fill="#999999">기준: 2026-07-13 17:24</text>
</svg>