<svg xmlns="http://www.w3.org/2000/svg" width="363" height="260">
<text x="181" y="18" text-anchor="middle" font-size="13" font-weight="bold" fill="#111111">최근 1달 요일별 활동</text>
<text x="24" y="46" text-anchor="end" font-size="12" fill="#333333">일</text><rect x="28" y="30" width="261" height="22" rx="3" fill="#216e39"><title>일: 9594.6점</title></rect><text x="294" y="46" font-size="10" fill="#333333">9594.6</text><text x="24" y="74" text-anchor="end" font-size="12" fill="#333333">월</text><rect x="28" y="58" width="151" height="22" rx="3" fill="#30a14e"><title>월: 5546.8점</title></rect><text x="184" y="74" font-size="10" fill="#333333">5546.8</text><text x="24" y="102" text-anchor="end" font-size="12" fill="#333333">화</text><rect x="28" y="86" width="280" height="22" rx="3" fill="#216e39"><title>화: 10259.6점</title></rect><text x="313" y="102" font-size="10" fill="#333333">10259.6</text><text x="24" y="130" text-anchor="end" font-size="12" fill="#333333">수</text><rect x="28" y="114" width="220" height="22" rx="3" fill="#216e39"><title>수: 8093.1점</title></rect><text x="253" y="130" font-size="10" fill="#333333">8093.1</text><text x="24" y="158" text-anchor="end" font-size="12" fill="#333333">목</text><rect x="28" y="142" width="267" height="22" rx="3" fill="#216e39"><title>목: 9817.2점</title></rect><text x="300" y="158" font-size="10" fill="#333333">9817.2</text><text x="24" y="186" text-anchor="end" font-size="12" fill="#333333">금</text><rect x="28" y="170" width="235" height="22" rx="3" fill="#216e39"><title>금: 8627.0점</title></rect><text x="268" y="186" font-size="10" fill="#333333">8627.0</text><text x="24" y="214" text-anchor="end" font-size="12" fill="#333333">토</text><rect x="28" y="198" width="241" height="22" rx="3" fill="#216e39"><title>토: 8843.0점</title></rect><text x="274" y="214" font-size="10" fill="#333333">8843.0</text>
<text x="28" y="254" font-size="9" fill="#666666">기준: 2026-06-05 15:29</text>
</svg>