<svg xmlns="http://www.w3.org/2000/svg" width="363" height="260">
<text x="181" y="18" text-anchor="middle" font-size="13" font-weight="bold" fill="#e0e0e0">최근 1주 요일별 활동</text>
<text x="24" y="46" text-anchor="end" font-size="12" fill="#cccccc">일</text><rect x="28" y="30" width="280" height="22" rx="3" fill="#216e39"><title>일: 2695.0점</title></rect><text x="313" y="46" font-size="10" fill="#cccccc">2695.0</text><text x="24" y="74" text-anchor="end" font-size="12" fill="#cccccc">월</text><rect x="28" y="58" width="165" height="22" rx="3" fill="#30a14e"><title>월: 1595.0점</title></rect><text x="198" y="74" font-size="10" fill="#cccccc">1595.0</text><text x="24" y="102" text-anchor="end" font-size="12" fill="#cccccc">화</text><rect x="28" y="86" width="137" height="22" rx="3" fill="#40c463"><title>화: 1320.0점</title></rect><text x="170" y="102" font-size="10" fill="#cccccc">1320.0</text><text x="24" y="130" text-anchor="end" font-size="12" fill="#cccccc">수</text><rect x="28" y="114" width="108" height="22" rx="3" fill="#40c463"><title>수: 1045.0점</title></rect><text x="141" y="130" font-size="10" fill="#cccccc">1045.0</text><text x="24" y="158" text-anchor="end" font-size="12" fill="#cccccc">목</text><rect x="28" y="142" width="80" height="22" rx="3" fill="#40c463"><title>목: 770.0점</title></rect><text x="113" y="158" font-size="10" fill="#cccccc">770.0</text><text x="24" y="186" text-anchor="end" font-size="12" fill="#cccccc">금</text><rect x="28" y="170" width="51" height="22" rx="3" fill="#9be9a8"><title>금: 495.0점</title></rect><text x="84" y="186" font-size="10" fill="#cccccc">495.0</text><text x="24" y="214" text-anchor="end" font-size="12" fill="#cccccc">토</text><rect x="28" y="198" width="24" height="22" rx="3" fill="#9be9a8"><title>토: 231.0점</title></rect><text x="57" y="214" font-size="10" fill="#cccccc">231.0</text>
<text x="28" y="254" font-size="9" fill="#999999">기준: 2026-05-30 22:15</text>
</svg>