<svg xmlns="http://www.w3.org/2000/svg" width="363" height="260">
<text x="181" y="18" text-anchor="middle" font-size="13" font-weight="bold" fill="#e0e0e0">최근 1달 요일별 활동</text>
<text x="24" y="46" text-anchor="end" font-size="12" fill="#cccccc">일</text><rect x="28" y="30" width="261" height="22" rx="3" fill="#216e39"><title>일: 9425.3점</title></rect><text x="294" y="46" font-size="10" fill="#cccccc">9425.3</text><text x="24" y="74" text-anchor="end" font-size="12" fill="#cccccc">월</text><rect x="28" y="58" width="150" height="22" rx="3" fill="#30a14e"><title>월: 5435.7점</title></rect><text x="183" y="74" font-size="10" fill="#cccccc">5435.7</text><text x="24" y="102" text-anchor="end" font-size="12" fill="#cccccc">화</text><rect x="28" y="86" width="280" height="22" rx="3" fill="#216e39"><title>화: 10098.4점</title></rect><text x="313" y="102" font-size="10" fill="#cccccc">10098.4</text><text x="24" y="130" text-anchor="end" font-size="12" fill="#cccccc">수</text><rect x="28" y="114" width="220" height="22" rx="3" fill="#216e39"><title>수: 7935.9점</title></rect><text x="253" y="130" font-size="10" fill="#cccccc">7935.9</text><text x="24" y="158" text-anchor="end" font-size="12" fill="#cccccc">목</text><rect x="28" y="142" width="267" height="22" rx="3" fill="#216e39"><title>목: 9652.2점</title></rect><text x="300" y="158" font-size="10" fill="#cccccc">9652.2</text><text x="24" y="186" text-anchor="end" font-size="12" fill="#cccccc">금</text><rect x="28" y="170" width="235" height="22" rx="3" fill="#216e39"><title>금: 8495.0점</title></rect><text x="268" y="186" font-size="10" fill="#cccccc">8495.0</text><text x="24" y="214" text-anchor="end" font-size="12" fill="#cccccc">토</text><rect x="28" y="198" width="240" height="22" rx="3" fill="#216e39"><title>토: 8689.0점</title></rect><text x="273" y="214" font-size="10" fill="#cccccc">8689.0</text>
<text x="28" y="254" font-size="9" fill="#999999">기준: 2026-06-05 10:18</text>
</svg>