<svg xmlns="http://www.w3.org/2000/svg" width="363" height="260">
<text x="181" y="18" text-anchor="middle" font-size="13" font-weight="bold" fill="#e0e0e0">최근 1주 요일별 활동</text>
<text x="24" y="46" text-anchor="end" font-size="12" fill="#cccccc">일</text><rect x="28" y="30" width="280" height="22" rx="3" fill="#216e39"><title>일: 3708.0점</title></rect><text x="313" y="46" font-size="10" fill="#cccccc">3708.0</text><text x="24" y="74" text-anchor="end" font-size="12" fill="#cccccc">월</text><rect x="28" y="58" width="268" height="22" rx="3" fill="#216e39"><title>월: 3556.6점</title></rect><text x="301" y="74" font-size="10" fill="#cccccc">3556.6</text><text x="24" y="102" text-anchor="end" font-size="12" fill="#cccccc">화</text><rect x="28" y="86" width="215" height="22" rx="3" fill="#216e39"><title>화: 2852.0점</title></rect><text x="248" y="102" font-size="10" fill="#cccccc">2852.0</text><text x="24" y="130" text-anchor="end" font-size="12" fill="#cccccc">수</text><rect x="28" y="114" width="114" height="22" rx="3" fill="#40c463"><title>수: 1520.2점</title></rect><text x="147" y="130" font-size="10" fill="#cccccc">1520.2</text><text x="24" y="158" text-anchor="end" font-size="12" fill="#cccccc">목</text><rect x="28" y="142" width="73" height="22" rx="3" fill="#40c463"><title>목: 974.5점</title></rect><text x="106" y="158" font-size="10" fill="#cccccc">974.5</text><text x="24" y="186" text-anchor="end" font-size="12" fill="#cccccc">금</text><rect x="28" y="170" width="37" height="22" rx="3" fill="#9be9a8"><title>금: 495.0점</title></rect><text x="70" y="186" font-size="10" fill="#cccccc">495.0</text><text x="24" y="214" text-anchor="end" font-size="12" fill="#cccccc">토</text><rect x="28" y="198" width="16" height="22" rx="3" fill="#9be9a8"><title>토: 221.3점</title></rect><text x="49" y="214" font-size="10" fill="#cccccc">221.3</text>
<text x="28" y="254" font-size="9" fill="#999999">기준: 2026-07-04 16:16</text>
</svg>