<svg xmlns="http://www.w3.org/2000/svg" width="439" height="181">
<text x="69" y="16" font-size="9" fill="#cccccc">2</text><text x="129" y="16" font-size="9" fill="#cccccc">3</text><text x="189" y="16" font-size="9" fill="#cccccc">4</text><text x="249" y="16" font-size="9" fill="#cccccc">5</text><text x="324" y="16" font-size="9" fill="#cccccc">6</text><text x="384" y="16" font-size="9" fill="#cccccc">7</text><text x="20" y="48" text-anchor="end" font-size="9" fill="#cccccc">월</text><text x="20" y="78" text-anchor="end" font-size="9" fill="#cccccc">수</text><text x="20" y="108" text-anchor="end" font-size="9" fill="#cccccc">금</text><rect x="24" y="22" width="13" height="13" rx="2" fill="#ebedf0"><title>2026-01-11 (0)</title></rect><rect x="24" y="37" width="13" height="13" rx="2" fill="#9be9a8"><title>2026-01-12 (758.1)</title></rect><rect x="24" y="52" width="13" height="13" rx="2" fill="#9be9a8"><title>2026-01-13 (64.0)</title></rect><rect x="24" y="67" width="13" height="13" rx="2" fill="#9be9a8"><title>2026-01-14 (256.9)</title></rect><rect x="24" y="82" width="13" height="13" rx="2" fill="#ebedf0"><title>2026-01-15 (0)</title></rect><rect x="24" y="97" width="13" height="13" rx="2" fill="#9be9a8"><title>2026-01-16 (53.6)</title></rect><rect x="24" y="112" width="13" height="13" rx="2" fill="#9be9a8"><title>2026-01-17 (947.8)</title></rect><rect x="39" y="22" width="13" height="13" rx="2" fill="#9be9a8"><title>2026-01-18 (4486.0)</title></rect><rect x="39" y="37" width="13" height="13" rx="2" fill="#9be9a8"><title>2026-01-19 (85.6)</title></rect><rect x="39" y="52" width="13" height="13" rx="2" fill="#9be9a8"><title>2026-01-20 (154.2)</title></rect><rect x="39" y="67" width="13" height="13" rx="2" fill="#9be9a8"><title>2026-01-21 (8515.3)</title></rect><rect x="39" y="82" width="13" height="13" rx="2" fill="#9be9a8"><title>2026-01-22 (2150.4)</title></rect><rect x="39" y="97" width="13" height="13" rx="2" fill="#9be9a8"><title>2026-01-23 (7403.6)</title></rect><rect x="39" y="112" width="13" height="13" rx="2" fill="#9be9a8"><title>2026-01-24 (10747.0)</title></rect><rect x="54" y="22" width="13" height="13" rx="2" fill="#9be9a8"><title>2026-01-25 (8106.9)</title></rect><rect x="54" y="37" width="13" height="13" rx="2" fill="#9be9a8"><title>2026-01-26 (5329.1)</title></rect><rect x="54" y="52" width="13" height="13" rx="2" fill="#9be9a8"><title>2026-01-27 (11308.4)</title></rect><rect x="54" y="67" width="13" height="13" rx="2" fill="#9be9a8"><title>2026-01-28 (1891.8)</title></rect><rect x="54" y="82" width="13" height="13" rx="2" fill="#9be9a8"><title>2026-01-29 (1048.9)</title></rect><rect x="54" y="97" width="13" height="13" rx="2" fill="#9be9a8"><title>2026-01-30 (11175.7)</title></rect><rect x="54" y="112" width="13" height="13" rx="2" fill="#9be9a8"><title>2026-01-31 (7286.0)</title></rect><rect x="69" y="22" width="13" height="13" rx="2" fill="#9be9a8"><title>2026-02-01 (10151.0)</title></rect><rect x="69" y="37" width="13" height="13" rx="2" fill="#40c463"><title>2026-02-02 (22848.3)</title></rect><rect x="69" y="52" width="13" height="13" rx="2" fill="#9be9a8"><title>2026-02-03 (1798.8)</title></rect><rect x="69" y="67" width="13" height="13" rx="2" fill="#9be9a8"><title>2026-02-04 (751.3)</title></rect><rect x="69" y="82" width="13" height="13" rx="2" fill="#9be9a8"><title>2026-02-05 (7058.7)</title></rect><rect x="69" y="97" width="13" height="13" rx="2" fill="#40c463"><title>2026-02-06 (14490.1)</title></rect><rect x="69" y="112" width="13" height="13" rx="2" fill="#9be9a8"><title>2026-02-07 (5521.8)</title></rect><rect x="84" y="22" width="13" height="13" rx="2" fill="#9be9a8"><title>2026-02-08 (4706.2)</title></rect><rect x="84" y="37" width="13" height="13" rx="2" fill="#9be9a8"><title>2026-02-09 (193.4)</title></rect><rect x="84" y="52" width="13" height="13" rx="2" fill="#ebedf0"><title>2026-02-10 (0)</title></rect><rect x="84" y="67" width="13" height="13" rx="2" fill="#ebedf0"><title>2026-02-11 (0)</title></rect><rect x="84" y="82" width="13" height="13" rx="2" fill="#9be9a8"><title>2026-02-12 (1096.3)</title></rect><rect x="84" y="97" width="13" height="13" rx="2" fill="#9be9a8"><title>2026-02-13 (595.2)</title></rect><rect x="84" y="112" width="13" height="13" rx="2" fill="#ebedf0"><title>2026-02-14 (0)</title></rect><rect x="99" y="22" width="13" height="13" rx="2" fill="#ebedf0"><title>2026-02-15 (0)</title></rect><rect x="99" y="37" width="13" height="13" rx="2" fill="#ebedf0"><title>2026-02-16 (0)</title></rect><rect x="99" y="52" width="13" height="13" rx="2" fill="#ebedf0"><title>2026-02-17 (0)</title></rect><rect x="99" y="67" width="13" height="13" rx="2" fill="#9be9a8"><title>2026-02-18 (3450.4)</title></rect><rect x="99" y="82" width="13" height="13" rx="2" fill="#9be9a8"><title>2026-02-19 (2767.2)</title></rect><rect x="99" y="97" width="13" height="13" rx="2" fill="#9be9a8"><title>2026-02-20 (7316.8)</title></rect><rect x="99" y="112" width="13" height="13" rx="2" fill="#9be9a8"><title>2026-02-21 (707.5)</title></rect><rect x="114" y="22" width="13" height="13" rx="2" fill="#9be9a8"><title>2026-02-22 (3943.9)</title></rect><rect x="114" y="37" width="13" height="13" rx="2" fill="#9be9a8"><title>2026-02-23 (1426.9)</title></rect><rect x="114" y="52" width="13" height="13" rx="2" fill="#9be9a8"><title>2026-02-24 (1767.3)</title></rect><rect x="114" y="67" width="13" height="13" rx="2" fill="#9be9a8"><title>2026-02-25 (1915.8)</title></rect><rect x="114" y="82" width="13" height="13" rx="2" fill="#9be9a8"><title>2026-02-26 (8432.1)</title></rect><rect x="114" y="97" width="13" height="13" rx="2" fill="#40c463"><title>2026-02-27 (18469.6)</title></rect><rect x="114" y="112" width="13" height="13" rx="2" fill="#40c463"><title>2026-02-28 (15036.9)</title></rect><rect x="129" y="22" width="13" height="13" rx="2" fill="#9be9a8"><title>2026-03-01 (12472.6)</title></rect><rect x="129" y="37" width="13" height="13" rx="2" fill="#9be9a8"><title>2026-03-02 (4843.3)</title></rect><rect x="129" y="52" width="13" height="13" rx="2" fill="#9be9a8"><title>2026-03-03 (221.7)</title></rect><rect x="129" y="67" width="13" height="13" rx="2" fill="#9be9a8"><title>2026-03-04 (4985.1)</title></rect><rect x="129" y="82" width="13" height="13" rx="2" fill="#9be9a8"><title>2026-03-05 (4644.0)</title></rect><rect x="129" y="97" width="13" height="13" rx="2" fill="#9be9a8"><title>2026-03-06 (1895.2)</title></rect><rect x="129" y="112" width="13" height="13" rx="2" fill="#9be9a8"><title>2026-03-07 (2475.8)</title></rect><rect x="144" y="22" width="13" height="13" rx="2" fill="#9be9a8"><title>2026-03-08 (1929.6)</title></rect><rect x="144" y="37" width="13" height="13" rx="2" fill="#9be9a8"><title>2026-03-09 (767.0)</title></rect><rect x="144" y="52" width="13" height="13" rx="2" fill="#9be9a8"><title>2026-03-10 (4375.8)</title></rect><rect x="144" y="67" width="13" height="13" rx="2" fill="#9be9a8"><title>2026-03-11 (1953.6)</title></rect><rect x="144" y="82" width="13" height="13" rx="2" fill="#9be9a8"><title>2026-03-12 (610.6)</title></rect><rect x="144" y="97" width="13" height="13" rx="2" fill="#9be9a8"><title>2026-03-13 (6651.5)</title></rect><rect x="144" y="112" width="13" height="13" rx="2" fill="#9be9a8"><title>2026-03-14 (322.4)</title></rect><rect x="159" y="22" width="13" height="13" rx="2" fill="#9be9a8"><title>2026-03-15 (835.9)</title></rect><rect x="159" y="37" width="13" height="13" rx="2" fill="#9be9a8"><title>2026-03-16 (9752.3)</title></rect><rect x="159" y="52" width="13" height="13" rx="2" fill="#9be9a8"><title>2026-03-17 (10122.1)</title></rect><rect x="159" y="67" width="13" height="13" rx="2" fill="#9be9a8"><title>2026-03-18 (247.5)</title></rect><rect x="159" y="82" width="13" height="13" rx="2" fill="#9be9a8"><title>2026-03-19 (7246.4)</title></rect><rect x="159" y="97" width="13" height="13" rx="2" fill="#9be9a8"><title>2026-03-20 (4159.8)</title></rect><rect x="159" y="112" width="13" height="13" rx="2" fill="#ebedf0"><title>2026-03-21 (0)</title></rect><rect x="174" y="22" width="13" height="13" rx="2" fill="#ebedf0"><title>2026-03-22 (0)</title></rect><rect x="174" y="37" width="13" height="13" rx="2" fill="#9be9a8"><title>2026-03-23 (12281.1)</title></rect><rect x="174" y="52" width="13" height="13" rx="2" fill="#9be9a8"><title>2026-03-24 (633.4)</title></rect><rect x="174" y="67" width="13" height="13" rx="2" fill="#9be9a8"><title>2026-03-25 (218.9)</title></rect><rect x="174" y="82" width="13" height="13" rx="2" fill="#9be9a8"><title>2026-03-26 (3653.0)</title></rect><rect x="174" y="97" width="13" height="13" rx="2" fill="#40c463"><title>2026-03-27 (19787.3)</title></rect><rect x="174" y="112" width="13" height="13" rx="2" fill="#40c463"><title>2026-03-28 (18176.1)</title></rect><rect x="189" y="22" width="13" height="13" rx="2" fill="#9be9a8"><title>2026-03-29 (4300.6)</title></rect><rect x="189" y="37" width="13" height="13" rx="2" fill="#9be9a8"><title>2026-03-30 (4630.9)</title></rect><rect x="189" y="52" width="13" height="13" rx="2" fill="#9be9a8"><title>2026-03-31 (1310.9)</title></rect><rect x="189" y="67" width="13" height="13" rx="2" fill="#9be9a8"><title>2026-04-01 (106.8)</title></rect><rect x="189" y="82" width="13" height="13" rx="2" fill="#9be9a8"><title>2026-04-02 (1298.9)</title></rect><rect x="189" y="97" width="13" height="13" rx="2" fill="#ebedf0"><title>2026-04-03 (0)</title></rect><rect x="189" y="112" width="13" height="13" rx="2" fill="#ebedf0"><title>2026-04-04 (0)</title></rect><rect x="204" y="22" width="13" height="13" rx="2" fill="#9be9a8"><title>2026-04-05 (355.2)</title></rect><rect x="204" y="37" width="13" height="13" rx="2" fill="#9be9a8"><title>2026-04-06 (682.2)</title></rect><rect x="204" y="52" width="13" height="13" rx="2" fill="#9be9a8"><title>2026-04-07 (469.3)</title></rect><rect x="204" y="67" width="13" height="13" rx="2" fill="#9be9a8"><title>2026-04-08 (765.7)</title></rect><rect x="204" y="82" width="13" height="13" rx="2" fill="#9be9a8"><title>2026-04-09 (7.9)</title></rect><rect x="204" y="97" width="13" height="13" rx="2" fill="#9be9a8"><title>2026-04-10 (7581.8)</title></rect><rect x="204" y="112" width="13" height="13" rx="2" fill="#9be9a8"><title>2026-04-11 (834.8)</title></rect><rect x="219" y="22" width="13" height="13" rx="2" fill="#9be9a8"><title>2026-04-12 (1067.5)</title></rect><rect x="219" y="37" width="13" height="13" rx="2" fill="#9be9a8"><title>2026-04-13 (4976.2)</title></rect><rect x="219" y="52" width="13" height="13" rx="2" fill="#9be9a8"><title>2026-04-14 (839.0)</title></rect><rect x="219" y="67" width="13" height="13" rx="2" fill="#9be9a8"><title>2026-04-15 (75.4)</title></rect><rect x="219" y="82" width="13" height="13" rx="2" fill="#9be9a8"><title>2026-04-16 (1494.8)</title></rect><rect x="219" y="97" width="13" height="13" rx="2" fill="#9be9a8"><title>2026-04-17 (10581.4)</title></rect><rect x="219" y="112" width="13" height="13" rx="2" fill="#9be9a8"><title>2026-04-18 (8827.2)</title></rect><rect x="234" y="22" width="13" height="13" rx="2" fill="#9be9a8"><title>2026-04-19 (11532.6)</title></rect><rect x="234" y="37" width="13" height="13" rx="2" fill="#9be9a8"><title>2026-04-20 (972.5)</title></rect><rect x="234" y="52" width="13" height="13" rx="2" fill="#9be9a8"><title>2026-04-21 (1709.2)</title></rect><rect x="234" y="67" width="13" height="13" rx="2" fill="#40c463"><title>2026-04-22 (15505.1)</title></rect><rect x="234" y="82" width="13" height="13" rx="2" fill="#9be9a8"><title>2026-04-23 (2441.2)</title></rect><rect x="234" y="97" width="13" height="13" rx="2" fill="#40c463"><title>2026-04-24 (14564.7)</title></rect><rect x="234" y="112" width="13" height="13" rx="2" fill="#40c463"><title>2026-04-25 (24802.7)</title></rect><rect x="249" y="22" width="13" height="13" rx="2" fill="#40c463"><title>2026-04-26 (22996.5)</title></rect><rect x="249" y="37" width="13" height="13" rx="2" fill="#9be9a8"><title>2026-04-27 (7809.5)</title></rect><rect x="249" y="52" width="13" height="13" rx="2" fill="#9be9a8"><title>2026-04-28 (1787.6)</title></rect><rect x="249" y="67" width="13" height="13" rx="2" fill="#9be9a8"><title>2026-04-29 (4736.5)</title></rect><rect x="249" y="82" width="13" height="13" rx="2" fill="#9be9a8"><title>2026-04-30 (2226.1)</title></rect><rect x="249" y="97" width="13" height="13" rx="2" fill="#9be9a8"><title>2026-05-01 (1679.4)</title></rect><rect x="249" y="112" width="13" height="13" rx="2" fill="#9be9a8"><title>2026-05-02 (2576.7)</title></rect><rect x="264" y="22" width="13" height="13" rx="2" fill="#9be9a8"><title>2026-05-03 (11659.6)</title></rect><rect x="264" y="37" width="13" height="13" rx="2" fill="#9be9a8"><title>2026-05-04 (2400.4)</title></rect><rect x="264" y="52" width="13" height="13" rx="2" fill="#9be9a8"><title>2026-05-05 (10178.9)</title></rect><rect x="264" y="67" width="13" height="13" rx="2" fill="#9be9a8"><title>2026-05-06 (10158.3)</title></rect><rect x="264" y="82" width="13" height="13" rx="2" fill="#9be9a8"><title>2026-05-07 (2663.5)</title></rect><rect x="264" y="97" width="13" height="13" rx="2" fill="#9be9a8"><title>2026-05-08 (2218.5)</title></rect><rect x="264" y="112" width="13" height="13" rx="2" fill="#9be9a8"><title>2026-05-09 (980.5)</title></rect><rect x="279" y="22" width="13" height="13" rx="2" fill="#9be9a8"><title>2026-05-10 (3501.9)</title></rect><rect x="279" y="37" width="13" height="13" rx="2" fill="#9be9a8"><title>2026-05-11 (1354.0)</title></rect><rect x="279" y="52" width="13" height="13" rx="2" fill="#9be9a8"><title>2026-05-12 (4489.3)</title></rect><rect x="279" y="67" width="13" height="13" rx="2" fill="#9be9a8"><title>2026-05-13 (1621.6)</title></rect><rect x="279" y="82" width="13" height="13" rx="2" fill="#9be9a8"><title>2026-05-14 (669.7)</title></rect><rect x="279" y="97" width="13" height="13" rx="2" fill="#9be9a8"><title>2026-05-15 (4547.3)</title></rect><rect x="279" y="112" width="13" height="13" rx="2" fill="#9be9a8"><title>2026-05-16 (2452.7)</title></rect><rect x="294" y="22" width="13" height="13" rx="2" fill="#9be9a8"><title>2026-05-17 (11023.2)</title></rect><rect x="294" y="37" width="13" height="13" rx="2" fill="#9be9a8"><title>2026-05-18 (5432.5)</title></rect><rect x="294" y="52" width="13" height="13" rx="2" fill="#40c463"><title>2026-05-19 (21859.2)</title></rect><rect x="294" y="67" width="13" height="13" rx="2" fill="#40c463"><title>2026-05-20 (20988.1)</title></rect><rect x="294" y="82" width="13" height="13" rx="2" fill="#40c463"><title>2026-05-21 (17495.0)</title></rect><rect x="294" y="97" width="13" height="13" rx="2" fill="#40c463"><title>2026-05-22 (19949.1)</title></rect><rect x="294" y="112" width="13" height="13" rx="2" fill="#40c463"><title>2026-05-23 (23919.6)</title></rect><rect x="309" y="22" width="13" height="13" rx="2" fill="#40c463"><title>2026-05-24 (23097.0)</title></rect><rect x="309" y="37" width="13" height="13" rx="2" fill="#40c463"><title>2026-05-25 (20886.2)</title></rect><rect x="309" y="52" width="13" height="13" rx="2" fill="#40c463"><title>2026-05-26 (17998.4)</title></rect><rect x="309" y="67" width="13" height="13" rx="2" fill="#40c463"><title>2026-05-27 (19885.7)</title></rect><rect x="309" y="82" width="13" height="13" rx="2" fill="#40c463"><title>2026-05-28 (19043.8)</title></rect><rect x="309" y="97" width="13" height="13" rx="2" fill="#40c463"><title>2026-05-29 (25083.6)</title></rect><rect x="309" y="112" width="13" height="13" rx="2" fill="#30a14e"><title>2026-05-30 (31048.8)</title></rect><rect x="324" y="22" width="13" height="13" rx="2" fill="#40c463"><title>2026-05-31 (26516.3)</title></rect><rect x="324" y="37" width="13" height="13" rx="2" fill="#40c463"><title>2026-06-01 (14392.6)</title></rect><rect x="324" y="52" width="13" height="13" rx="2" fill="#9be9a8"><title>2026-06-02 (13622.8)</title></rect><rect x="324" y="67" width="13" height="13" rx="2" fill="#9be9a8"><title>2026-06-03 (12715.1)</title></rect><rect x="324" y="82" width="13" height="13" rx="2" fill="#40c463"><title>2026-06-04 (16337.5)</title></rect><rect x="324" y="97" width="13" height="13" rx="2" fill="#9be9a8"><title>2026-06-05 (13150.0)</title></rect><rect x="324" y="112" width="13" height="13" rx="2" fill="#40c463"><title>2026-06-06 (20842.4)</title></rect><rect x="339" y="22" width="13" height="13" rx="2" fill="#40c463"><title>2026-06-07 (24425.0)</title></rect><rect x="339" y="37" width="13" height="13" rx="2" fill="#9be9a8"><title>2026-06-08 (13445.6)</title></rect><rect x="339" y="52" width="13" height="13" rx="2" fill="#216e39"><title>2026-06-09 (44731.1)</title></rect><rect x="339" y="67" width="13" height="13" rx="2" fill="#30a14e"><title>2026-06-10 (33163.1)</title></rect><rect x="339" y="82" width="13" height="13" rx="2" fill="#40c463"><title>2026-06-11 (16892.4)</title></rect><rect x="339" y="97" width="13" height="13" rx="2" fill="#40c463"><title>2026-06-12 (18056.9)</title></rect><rect x="339" y="112" width="13" height="13" rx="2" fill="#40c463"><title>2026-06-13 (25124.0)</title></rect><rect x="354" y="22" width="13" height="13" rx="2" fill="#40c463"><title>2026-06-14 (18196.6)</title></rect><rect x="354" y="37" width="13" height="13" rx="2" fill="#9be9a8"><title>2026-06-15 (12973.7)</title></rect><rect x="354" y="52" width="13" height="13" rx="2" fill="#9be9a8"><title>2026-06-16 (12064.7)</title></rect><rect x="354" y="67" width="13" height="13" rx="2" fill="#40c463"><title>2026-06-17 (17060.2)</title></rect><rect x="354" y="82" width="13" height="13" rx="2" fill="#9be9a8"><title>2026-06-18 (11848.6)</title></rect><rect x="354" y="97" width="13" height="13" rx="2" fill="#40c463"><title>2026-06-19 (19536.2)</title></rect><rect x="354" y="112" width="13" height="13" rx="2" fill="#30a14e"><title>2026-06-20 (34453.9)</title></rect><rect x="369" y="22" width="13" height="13" rx="2" fill="#216e39"><title>2026-06-21 (53492.0)</title></rect><rect x="369" y="37" width="13" height="13" rx="2" fill="#216e39"><title>2026-06-22 (45814.5)</title></rect><rect x="369" y="52" width="13" height="13" rx="2" fill="#216e39"><title>2026-06-23 (49240.7)</title></rect><rect x="369" y="67" width="13" height="13" rx="2" fill="#216e39"><title>2026-06-24 (54884.3)</title></rect><rect x="369" y="82" width="13" height="13" rx="2" fill="#40c463"><title>2026-06-25 (20906.1)</title></rect><rect x="369" y="97" width="13" height="13" rx="2" fill="#40c463"><title>2026-06-26 (19629.1)</title></rect><rect x="369" y="112" width="13" height="13" rx="2" fill="#9be9a8"><title>2026-06-27 (10035.9)</title></rect><rect x="384" y="22" width="13" height="13" rx="2" fill="#40c463"><title>2026-06-28 (16401.8)</title></rect><rect x="384" y="37" width="13" height="13" rx="2" fill="#40c463"><title>2026-06-29 (18592.4)</title></rect><rect x="384" y="52" width="13" height="13" rx="2" fill="#40c463"><title>2026-06-30 (17673.8)</title></rect><rect x="384" y="67" width="13" height="13" rx="2" fill="#9be9a8"><title>2026-07-01 (12500.8)</title></rect><rect x="384" y="82" width="13" height="13" rx="2" fill="#9be9a8"><title>2026-07-02 (9686.7)</title></rect><rect x="384" y="97" width="13" height="13" rx="2" fill="#9be9a8"><title>2026-07-03 (6517.1)</title></rect><rect x="384" y="112" width="13" height="13" rx="2" fill="#9be9a8"><title>2026-07-04 (9423.5)</title></rect><rect x="399" y="22" width="13" height="13" rx="2" fill="#9be9a8"><title>2026-07-05 (6004.1)</title></rect><rect x="399" y="37" width="13" height="13" rx="2" fill="#9be9a8"><title>2026-07-06 (6057.8)</title></rect><rect x="399" y="52" width="13" height="13" rx="2" fill="#9be9a8"><title>2026-07-07 (7416.0)</title></rect><rect x="399" y="67" width="13" height="13" rx="2" fill="#9be9a8"><title>2026-07-08 (8704.0)</title></rect><rect x="399" y="82" width="13" height="13" rx="2" fill="#9be9a8"><title>2026-07-09 (4001.1)</title></rect><rect x="399" y="97" width="13" height="13" rx="2" fill="#9be9a8"><title>2026-07-10 (8909.5)</title></rect><rect x="399" y="112" width="13" height="13" rx="2" fill="#9be9a8"><title>2026-07-11 (5939.7)</title></rect><rect x="414" y="22" width="13" height="13" rx="2" fill="#9be9a8"><title>2026-07-12 (4521.2)</title></rect><rect x="414" y="37" width="13" height="13" rx="2" fill="#9be9a8"><title>2026-07-13 (5584.8)</title></rect><rect x="414" y="52" width="13" height="13" rx="2" fill="#9be9a8"><title>2026-07-14 (3650.8)</title></rect><rect x="414" y="67" width="13" height="13" rx="2" fill="#9be9a8"><title>2026-07-15 (2282.6)</title></rect><rect x="414" y="82" width="13" height="13" rx="2" fill="#9be9a8"><title>2026-07-16 (699.1)</title></rect><rect x="414" y="97" width="13" height="13" rx="2" fill="#9be9a8"><title>2026-07-17 (33.0)</title></rect><text x="24" y="145" font-size="9" fill="#cccccc">적음</text><rect x="52" y="135" width="13" height="13" rx="2" fill="#ebedf0"/><rect x="67" y="135" width="13" height="13" rx="2" fill="#9be9a8"/><rect x="82" y="135" width="13" height="13" rx="2" fill="#40c463"/><rect x="97" y="135" width="13" height="13" rx="2" fill="#30a14e"/><rect x="112" y="135" width="13" height="13" rx="2" fill="#216e39"/><text x="131" y="145" font-size="9" fill="#cccccc">많음</text><text x="24" y="163" font-size="9" fill="#cccccc">기준: 2026-07-17 10:58</text>
</svg>