<svg xmlns="http://www.w3.org/2000/svg" width="363" height="260">
<text x="181" y="18" text-anchor="middle" font-size="13" font-weight="bold" fill="#e0e0e0">최근 2주 요일별 활동</text>
<text x="24" y="46" text-anchor="end" font-size="12" fill="#cccccc">일</text><rect x="28" y="30" width="51" height="22" rx="3" fill="#9be9a8"><title>일: 5410.9점</title></rect><text x="84" y="46" font-size="10" fill="#cccccc">5410.9</text><text x="24" y="74" text-anchor="end" font-size="12" fill="#cccccc">월</text><rect x="28" y="58" width="47" height="22" rx="3" fill="#9be9a8"><title>월: 4991.4점</title></rect><text x="80" y="74" font-size="10" fill="#cccccc">4991.4</text><text x="24" y="102" text-anchor="end" font-size="12" fill="#cccccc">화</text><rect x="28" y="86" width="280" height="22" rx="3" fill="#216e39"><title>화: 29153.3점</title></rect><text x="313" y="102" font-size="10" fill="#cccccc">29153.3</text><text x="24" y="130" text-anchor="end" font-size="12" fill="#cccccc">수</text><rect x="28" y="114" width="270" height="22" rx="3" fill="#216e39"><title>수: 28142.3점</title></rect><text x="303" y="130" font-size="10" fill="#cccccc">28142.3</text><text x="24" y="158" text-anchor="end" font-size="12" fill="#cccccc">목</text><rect x="28" y="142" width="108" height="22" rx="3" fill="#40c463"><title>목: 11274.0점</title></rect><text x="141" y="158" font-size="10" fill="#cccccc">11274.0</text><text x="24" y="186" text-anchor="end" font-size="12" fill="#cccccc">금</text><rect x="28" y="170" width="92" height="22" rx="3" fill="#40c463"><title>금: 9581.1점</title></rect><text x="125" y="186" font-size="10" fill="#cccccc">9581.1</text><text x="24" y="214" text-anchor="end" font-size="12" fill="#cccccc">토</text><rect x="28" y="198" width="59" height="22" rx="3" fill="#9be9a8"><title>토: 6243.4점</title></rect><text x="92" y="214" font-size="10" fill="#cccccc">6243.4</text>
<text x="28" y="254" font-size="9" fill="#999999">기준: 2026-07-06 20:15</text>
</svg>