<svg xmlns="http://www.w3.org/2000/svg" width="439" height="181">
<text x="69" y="16" font-size="9" fill="#333333">2</text><text x="129" y="16" font-size="9" fill="#333333">3</text><text x="189" y="16" font-size="9" fill="#333333">4</text><text x="249" y="16" font-size="9" fill="#333333">5</text><text x="324" y="16" font-size="9" fill="#333333">6</text><text x="384" y="16" font-size="9" fill="#333333">7</text><text x="20" y="48" text-anchor="end" font-size="9" fill="#333333">월</text><text x="20" y="78" text-anchor="end" font-size="9" fill="#333333">수</text><text x="20" y="108" text-anchor="end" font-size="9" fill="#333333">금</text><rect x="24" y="22" width="13" height="13" rx="2" fill="#ebedf0"><title>2026-01-11 (0)</title></rect><rect x="24" y="37" width="13" height="13" rx="2" fill="#9be9a8"><title>2026-01-12 (543.3)</title></rect><rect x="24" y="52" width="13" height="13" rx="2" fill="#9be9a8"><title>2026-01-13 (45.6)</title></rect><rect x="24" y="67" width="13" height="13" rx="2" fill="#9be9a8"><title>2026-01-14 (182.2)</title></rect><rect x="24" y="82" width="13" height="13" rx="2" fill="#ebedf0"><title>2026-01-15 (0)</title></rect><rect x="24" y="97" width="13" height="13" rx="2" fill="#9be9a8"><title>2026-01-16 (38.1)</title></rect><rect x="24" y="112" width="13" height="13" rx="2" fill="#9be9a8"><title>2026-01-17 (682.7)</title></rect><rect x="39" y="22" width="13" height="13" rx="2" fill="#9be9a8"><title>2026-01-18 (4109.4)</title></rect><rect x="39" y="37" width="13" height="13" rx="2" fill="#9be9a8"><title>2026-01-19 (61.2)</title></rect><rect x="39" y="52" width="13" height="13" rx="2" fill="#9be9a8"><title>2026-01-20 (110.8)</title></rect><rect x="39" y="67" width="13" height="13" rx="2" fill="#9be9a8"><title>2026-01-21 (7887.0)</title></rect><rect x="39" y="82" width="13" height="13" rx="2" fill="#9be9a8"><title>2026-01-22 (1548.4)</title></rect><rect x="39" y="97" width="13" height="13" rx="2" fill="#9be9a8"><title>2026-01-23 (6779.9)</title></rect><rect x="39" y="112" width="13" height="13" rx="2" fill="#9be9a8"><title>2026-01-24 (10527.0)</title></rect><rect x="54" y="22" width="13" height="13" rx="2" fill="#9be9a8"><title>2026-01-25 (7592.6)</title></rect><rect x="54" y="37" width="13" height="13" rx="2" fill="#9be9a8"><title>2026-01-26 (4713.3)</title></rect><rect x="54" y="52" width="13" height="13" rx="2" fill="#9be9a8"><title>2026-01-27 (11033.9)</title></rect><rect x="54" y="67" width="13" height="13" rx="2" fill="#9be9a8"><title>2026-01-28 (1345.7)</title></rect><rect x="54" y="82" width="13" height="13" rx="2" fill="#9be9a8"><title>2026-01-29 (750.0)</title></rect><rect x="54" y="97" width="13" height="13" rx="2" fill="#9be9a8"><title>2026-01-30 (10668.7)</title></rect><rect x="54" y="112" width="13" height="13" rx="2" fill="#9be9a8"><title>2026-01-31 (7018.0)</title></rect><rect x="69" y="22" width="13" height="13" rx="2" fill="#9be9a8"><title>2026-02-01 (9040.3)</title></rect><rect x="69" y="37" width="13" height="13" rx="2" fill="#40c463"><title>2026-02-02 (21290.0)</title></rect><rect x="69" y="52" width="13" height="13" rx="2" fill="#9be9a8"><title>2026-02-03 (1291.3)</title></rect><rect x="69" y="67" width="13" height="13" rx="2" fill="#9be9a8"><title>2026-02-04 (720.9)</title></rect><rect x="69" y="82" width="13" height="13" rx="2" fill="#9be9a8"><title>2026-02-05 (6991.8)</title></rect><rect x="69" y="97" width="13" height="13" rx="2" fill="#40c463"><title>2026-02-06 (14006.1)</title></rect><rect x="69" y="112" width="13" height="13" rx="2" fill="#9be9a8"><title>2026-02-07 (4939.7)</title></rect><rect x="84" y="22" width="13" height="13" rx="2" fill="#9be9a8"><title>2026-02-08 (3721.8)</title></rect><rect x="84" y="37" width="13" height="13" rx="2" fill="#9be9a8"><title>2026-02-09 (138.0)</title></rect><rect x="84" y="52" width="13" height="13" rx="2" fill="#ebedf0"><title>2026-02-10 (0)</title></rect><rect x="84" y="67" width="13" height="13" rx="2" fill="#ebedf0"><title>2026-02-11 (0)</title></rect><rect x="84" y="82" width="13" height="13" rx="2" fill="#9be9a8"><title>2026-02-12 (776.6)</title></rect><rect x="84" y="97" width="13" height="13" rx="2" fill="#9be9a8"><title>2026-02-13 (421.6)</title></rect><rect x="84" y="112" width="13" height="13" rx="2" fill="#ebedf0"><title>2026-02-14 (0)</title></rect><rect x="99" y="22" width="13" height="13" rx="2" fill="#ebedf0"><title>2026-02-15 (0)</title></rect><rect x="99" y="37" width="13" height="13" rx="2" fill="#ebedf0"><title>2026-02-16 (0)</title></rect><rect x="99" y="52" width="13" height="13" rx="2" fill="#ebedf0"><title>2026-02-17 (0)</title></rect><rect x="99" y="67" width="13" height="13" rx="2" fill="#9be9a8"><title>2026-02-18 (2471.8)</title></rect><rect x="99" y="82" width="13" height="13" rx="2" fill="#9be9a8"><title>2026-02-19 (1993.8)</title></rect><rect x="99" y="97" width="13" height="13" rx="2" fill="#9be9a8"><title>2026-02-20 (6692.4)</title></rect><rect x="99" y="112" width="13" height="13" rx="2" fill="#9be9a8"><title>2026-02-21 (501.2)</title></rect><rect x="114" y="22" width="13" height="13" rx="2" fill="#9be9a8"><title>2026-02-22 (2812.5)</title></rect><rect x="114" y="37" width="13" height="13" rx="2" fill="#9be9a8"><title>2026-02-23 (1015.9)</title></rect><rect x="114" y="52" width="13" height="13" rx="2" fill="#9be9a8"><title>2026-02-24 (1261.4)</title></rect><rect x="114" y="67" width="13" height="13" rx="2" fill="#9be9a8"><title>2026-02-25 (1373.6)</title></rect><rect x="114" y="82" width="13" height="13" rx="2" fill="#9be9a8"><title>2026-02-26 (7810.7)</title></rect><rect x="114" y="97" width="13" height="13" rx="2" fill="#40c463"><title>2026-02-27 (17398.6)</title></rect><rect x="114" y="112" width="13" height="13" rx="2" fill="#40c463"><title>2026-02-28 (13003.1)</title></rect><rect x="129" y="22" width="13" height="13" rx="2" fill="#9be9a8"><title>2026-03-01 (11795.1)</title></rect><rect x="129" y="37" width="13" height="13" rx="2" fill="#9be9a8"><title>2026-03-02 (4459.0)</title></rect><rect x="129" y="52" width="13" height="13" rx="2" fill="#9be9a8"><title>2026-03-03 (157.1)</title></rect><rect x="129" y="67" width="13" height="13" rx="2" fill="#9be9a8"><title>2026-03-04 (4471.2)</title></rect><rect x="129" y="82" width="13" height="13" rx="2" fill="#9be9a8"><title>2026-03-05 (4137.6)</title></rect><rect x="129" y="97" width="13" height="13" rx="2" fill="#9be9a8"><title>2026-03-06 (1362.0)</title></rect><rect x="129" y="112" width="13" height="13" rx="2" fill="#9be9a8"><title>2026-03-07 (1763.2)</title></rect><rect x="144" y="22" width="13" height="13" rx="2" fill="#9be9a8"><title>2026-03-08 (1368.2)</title></rect><rect x="144" y="37" width="13" height="13" rx="2" fill="#9be9a8"><title>2026-03-09 (543.3)</title></rect><rect x="144" y="52" width="13" height="13" rx="2" fill="#9be9a8"><title>2026-03-10 (3134.8)</title></rect><rect x="144" y="67" width="13" height="13" rx="2" fill="#9be9a8"><title>2026-03-11 (1402.8)</title></rect><rect x="144" y="82" width="13" height="13" rx="2" fill="#9be9a8"><title>2026-03-12 (433.2)</title></rect><rect x="144" y="97" width="13" height="13" rx="2" fill="#9be9a8"><title>2026-03-13 (6204.0)</title></rect><rect x="144" y="112" width="13" height="13" rx="2" fill="#9be9a8"><title>2026-03-14 (259.8)</title></rect><rect x="159" y="22" width="13" height="13" rx="2" fill="#9be9a8"><title>2026-03-15 (601.8)</title></rect><rect x="159" y="37" width="13" height="13" rx="2" fill="#9be9a8"><title>2026-03-16 (8867.3)</title></rect><rect x="159" y="52" width="13" height="13" rx="2" fill="#9be9a8"><title>2026-03-17 (8987.3)</title></rect><rect x="159" y="67" width="13" height="13" rx="2" fill="#9be9a8"><title>2026-03-18 (194.6)</title></rect><rect x="159" y="82" width="13" height="13" rx="2" fill="#9be9a8"><title>2026-03-19 (6978.4)</title></rect><rect x="159" y="97" width="13" height="13" rx="2" fill="#9be9a8"><title>2026-03-20 (4078.2)</title></rect><rect x="159" y="112" width="13" height="13" rx="2" fill="#ebedf0"><title>2026-03-21 (0)</title></rect><rect x="174" y="22" width="13" height="13" rx="2" fill="#ebedf0"><title>2026-03-22 (0)</title></rect><rect x="174" y="37" width="13" height="13" rx="2" fill="#9be9a8"><title>2026-03-23 (11468.8)</title></rect><rect x="174" y="52" width="13" height="13" rx="2" fill="#9be9a8"><title>2026-03-24 (473.9)</title></rect><rect x="174" y="67" width="13" height="13" rx="2" fill="#9be9a8"><title>2026-03-25 (155.0)</title></rect><rect x="174" y="82" width="13" height="13" rx="2" fill="#9be9a8"><title>2026-03-26 (3509.0)</title></rect><rect x="174" y="97" width="13" height="13" rx="2" fill="#40c463"><title>2026-03-27 (18786.7)</title></rect><rect x="174" y="112" width="13" height="13" rx="2" fill="#40c463"><title>2026-03-28 (17191.9)</title></rect><rect x="189" y="22" width="13" height="13" rx="2" fill="#9be9a8"><title>2026-03-29 (3974.8)</title></rect><rect x="189" y="37" width="13" height="13" rx="2" fill="#9be9a8"><title>2026-03-30 (4324.7)</title></rect><rect x="189" y="52" width="13" height="13" rx="2" fill="#9be9a8"><title>2026-03-31 (1108.1)</title></rect><rect x="189" y="67" width="13" height="13" rx="2" fill="#9be9a8"><title>2026-04-01 (91.7)</title></rect><rect x="189" y="82" width="13" height="13" rx="2" fill="#9be9a8"><title>2026-04-02 (1298.9)</title></rect><rect x="189" y="97" width="13" height="13" rx="2" fill="#ebedf0"><title>2026-04-03 (0)</title></rect><rect x="189" y="112" width="13" height="13" rx="2" fill="#ebedf0"><title>2026-04-04 (0)</title></rect><rect x="204" y="22" width="13" height="13" rx="2" fill="#9be9a8"><title>2026-04-05 (253.0)</title></rect><rect x="204" y="37" width="13" height="13" rx="2" fill="#9be9a8"><title>2026-04-06 (487.6)</title></rect><rect x="204" y="52" width="13" height="13" rx="2" fill="#9be9a8"><title>2026-04-07 (386.7)</title></rect><rect x="204" y="67" width="13" height="13" rx="2" fill="#9be9a8"><title>2026-04-08 (549.4)</title></rect><rect x="204" y="82" width="13" height="13" rx="2" fill="#9be9a8"><title>2026-04-09 (7.9)</title></rect><rect x="204" y="97" width="13" height="13" rx="2" fill="#9be9a8"><title>2026-04-10 (6873.3)</title></rect><rect x="204" y="112" width="13" height="13" rx="2" fill="#9be9a8"><title>2026-04-11 (598.7)</title></rect><rect x="219" y="22" width="13" height="13" rx="2" fill="#9be9a8"><title>2026-04-12 (756.2)</title></rect><rect x="219" y="37" width="13" height="13" rx="2" fill="#9be9a8"><title>2026-04-13 (3934.6)</title></rect><rect x="219" y="52" width="13" height="13" rx="2" fill="#9be9a8"><title>2026-04-14 (640.7)</title></rect><rect x="219" y="67" width="13" height="13" rx="2" fill="#9be9a8"><title>2026-04-15 (75.4)</title></rect><rect x="219" y="82" width="13" height="13" rx="2" fill="#9be9a8"><title>2026-04-16 (1073.0)</title></rect><rect x="219" y="97" width="13" height="13" rx="2" fill="#9be9a8"><title>2026-04-17 (10135.9)</title></rect><rect x="219" y="112" width="13" height="13" rx="2" fill="#9be9a8"><title>2026-04-18 (8102.6)</title></rect><rect x="234" y="22" width="13" height="13" rx="2" fill="#9be9a8"><title>2026-04-19 (10778.9)</title></rect><rect x="234" y="37" width="13" height="13" rx="2" fill="#9be9a8"><title>2026-04-20 (921.0)</title></rect><rect x="234" y="52" width="13" height="13" rx="2" fill="#9be9a8"><title>2026-04-21 (1244.3)</title></rect><rect x="234" y="67" width="13" height="13" rx="2" fill="#40c463"><title>2026-04-22 (15335.5)</title></rect><rect x="234" y="82" width="13" height="13" rx="2" fill="#9be9a8"><title>2026-04-23 (2297.2)</title></rect><rect x="234" y="97" width="13" height="13" rx="2" fill="#40c463"><title>2026-04-24 (14441.0)</title></rect><rect x="234" y="112" width="13" height="13" rx="2" fill="#40c463"><title>2026-04-25 (23854.6)</title></rect><rect x="249" y="22" width="13" height="13" rx="2" fill="#40c463"><title>2026-04-26 (22570.4)</title></rect><rect x="249" y="37" width="13" height="13" rx="2" fill="#9be9a8"><title>2026-04-27 (6969.8)</title></rect><rect x="249" y="52" width="13" height="13" rx="2" fill="#9be9a8"><title>2026-04-28 (1770.8)</title></rect><rect x="249" y="67" width="13" height="13" rx="2" fill="#9be9a8"><title>2026-04-29 (4483.1)</title></rect><rect x="249" y="82" width="13" height="13" rx="2" fill="#9be9a8"><title>2026-04-30 (2226.1)</title></rect><rect x="249" y="97" width="13" height="13" rx="2" fill="#9be9a8"><title>2026-05-01 (1527.4)</title></rect><rect x="249" y="112" width="13" height="13" rx="2" fill="#9be9a8"><title>2026-05-02 (1863.6)</title></rect><rect x="264" y="22" width="13" height="13" rx="2" fill="#9be9a8"><title>2026-05-03 (10240.5)</title></rect><rect x="264" y="37" width="13" height="13" rx="2" fill="#9be9a8"><title>2026-05-04 (2267.1)</title></rect><rect x="264" y="52" width="13" height="13" rx="2" fill="#9be9a8"><title>2026-05-05 (8128.8)</title></rect><rect x="264" y="67" width="13" height="13" rx="2" fill="#9be9a8"><title>2026-05-06 (9351.2)</title></rect><rect x="264" y="82" width="13" height="13" rx="2" fill="#9be9a8"><title>2026-05-07 (2647.8)</title></rect><rect x="264" y="97" width="13" height="13" rx="2" fill="#9be9a8"><title>2026-05-08 (2218.5)</title></rect><rect x="264" y="112" width="13" height="13" rx="2" fill="#9be9a8"><title>2026-05-09 (980.5)</title></rect><rect x="279" y="22" width="13" height="13" rx="2" fill="#9be9a8"><title>2026-05-10 (3501.9)</title></rect><rect x="279" y="37" width="13" height="13" rx="2" fill="#9be9a8"><title>2026-05-11 (1191.3)</title></rect><rect x="279" y="52" width="13" height="13" rx="2" fill="#9be9a8"><title>2026-05-12 (3668.5)</title></rect><rect x="279" y="67" width="13" height="13" rx="2" fill="#9be9a8"><title>2026-05-13 (1239.0)</title></rect><rect x="279" y="82" width="13" height="13" rx="2" fill="#9be9a8"><title>2026-05-14 (587.4)</title></rect><rect x="279" y="97" width="13" height="13" rx="2" fill="#9be9a8"><title>2026-05-15 (4091.7)</title></rect><rect x="279" y="112" width="13" height="13" rx="2" fill="#9be9a8"><title>2026-05-16 (1852.1)</title></rect><rect x="294" y="22" width="13" height="13" rx="2" fill="#9be9a8"><title>2026-05-17 (10010.8)</title></rect><rect x="294" y="37" width="13" height="13" rx="2" fill="#9be9a8"><title>2026-05-18 (4739.4)</title></rect><rect x="294" y="52" width="13" height="13" rx="2" fill="#40c463"><title>2026-05-19 (20867.1)</title></rect><rect x="294" y="67" width="13" height="13" rx="2" fill="#40c463"><title>2026-05-20 (19606.8)</title></rect><rect x="294" y="82" width="13" height="13" rx="2" fill="#40c463"><title>2026-05-21 (16775.0)</title></rect><rect x="294" y="97" width="13" height="13" rx="2" fill="#40c463"><title>2026-05-22 (18816.3)</title></rect><rect x="294" y="112" width="13" height="13" rx="2" fill="#40c463"><title>2026-05-23 (22831.8)</title></rect><rect x="309" y="22" width="13" height="13" rx="2" fill="#40c463"><title>2026-05-24 (22089.0)</title></rect><rect x="309" y="37" width="13" height="13" rx="2" fill="#40c463"><title>2026-05-25 (18806.7)</title></rect><rect x="309" y="52" width="13" height="13" rx="2" fill="#40c463"><title>2026-05-26 (16949.4)</title></rect><rect x="309" y="67" width="13" height="13" rx="2" fill="#40c463"><title>2026-05-27 (18351.0)</title></rect><rect x="309" y="82" width="13" height="13" rx="2" fill="#40c463"><title>2026-05-28 (17478.7)</title></rect><rect x="309" y="97" width="13" height="13" rx="2" fill="#40c463"><title>2026-05-29 (22177.4)</title></rect><rect x="309" y="112" width="13" height="13" rx="2" fill="#30a14e"><title>2026-05-30 (27029.3)</title></rect><rect x="324" y="22" width="13" height="13" rx="2" fill="#40c463"><title>2026-05-31 (22971.2)</title></rect><rect x="324" y="37" width="13" height="13" rx="2" fill="#40c463"><title>2026-06-01 (13051.8)</title></rect><rect x="324" y="52" width="13" height="13" rx="2" fill="#40c463"><title>2026-06-02 (12530.0)</title></rect><rect x="324" y="67" width="13" height="13" rx="2" fill="#9be9a8"><title>2026-06-03 (11635.6)</title></rect><rect x="324" y="82" width="13" height="13" rx="2" fill="#40c463"><title>2026-06-04 (15159.4)</title></rect><rect x="324" y="97" width="13" height="13" rx="2" fill="#40c463"><title>2026-06-05 (12430.0)</title></rect><rect x="324" y="112" width="13" height="13" rx="2" fill="#40c463"><title>2026-06-06 (18990.2)</title></rect><rect x="339" y="22" width="13" height="13" rx="2" fill="#40c463"><title>2026-06-07 (22290.9)</title></rect><rect x="339" y="37" width="13" height="13" rx="2" fill="#40c463"><title>2026-06-08 (12360.7)</title></rect><rect x="339" y="52" width="13" height="13" rx="2" fill="#216e39"><title>2026-06-09 (40951.0)</title></rect><rect x="339" y="67" width="13" height="13" rx="2" fill="#30a14e"><title>2026-06-10 (29500.4)</title></rect><rect x="339" y="82" width="13" height="13" rx="2" fill="#40c463"><title>2026-06-11 (14551.5)</title></rect><rect x="339" y="97" width="13" height="13" rx="2" fill="#40c463"><title>2026-06-12 (15770.6)</title></rect><rect x="339" y="112" width="13" height="13" rx="2" fill="#40c463"><title>2026-06-13 (23153.6)</title></rect><rect x="354" y="22" width="13" height="13" rx="2" fill="#40c463"><title>2026-06-14 (15904.0)</title></rect><rect x="354" y="37" width="13" height="13" rx="2" fill="#9be9a8"><title>2026-06-15 (11716.8)</title></rect><rect x="354" y="52" width="13" height="13" rx="2" fill="#9be9a8"><title>2026-06-16 (10388.0)</title></rect><rect x="354" y="67" width="13" height="13" rx="2" fill="#40c463"><title>2026-06-17 (14745.0)</title></rect><rect x="354" y="82" width="13" height="13" rx="2" fill="#9be9a8"><title>2026-06-18 (10869.2)</title></rect><rect x="354" y="97" width="13" height="13" rx="2" fill="#40c463"><title>2026-06-19 (17447.3)</title></rect><rect x="354" y="112" width="13" height="13" rx="2" fill="#30a14e"><title>2026-06-20 (30996.1)</title></rect><rect x="369" y="22" width="13" height="13" rx="2" fill="#216e39"><title>2026-06-21 (48066.0)</title></rect><rect x="369" y="37" width="13" height="13" rx="2" fill="#216e39"><title>2026-06-22 (41030.7)</title></rect><rect x="369" y="52" width="13" height="13" rx="2" fill="#216e39"><title>2026-06-23 (44207.7)</title></rect><rect x="369" y="67" width="13" height="13" rx="2" fill="#216e39"><title>2026-06-24 (48599.4)</title></rect><rect x="369" y="82" width="13" height="13" rx="2" fill="#40c463"><title>2026-06-25 (18461.1)</title></rect><rect x="369" y="97" width="13" height="13" rx="2" fill="#40c463"><title>2026-06-26 (17135.3)</title></rect><rect x="369" y="112" width="13" height="13" rx="2" fill="#9be9a8"><title>2026-06-27 (8970.0)</title></rect><rect x="384" y="22" width="13" height="13" rx="2" fill="#40c463"><title>2026-06-28 (13714.6)</title></rect><rect x="384" y="37" width="13" height="13" rx="2" fill="#40c463"><title>2026-06-29 (15369.0)</title></rect><rect x="384" y="52" width="13" height="13" rx="2" fill="#40c463"><title>2026-06-30 (14459.0)</title></rect><rect x="384" y="67" width="13" height="13" rx="2" fill="#9be9a8"><title>2026-07-01 (10075.1)</title></rect><rect x="384" y="82" width="13" height="13" rx="2" fill="#9be9a8"><title>2026-07-02 (7870.1)</title></rect><rect x="384" y="97" width="13" height="13" rx="2" fill="#9be9a8"><title>2026-07-03 (5428.3)</title></rect><rect x="384" y="112" width="13" height="13" rx="2" fill="#9be9a8"><title>2026-07-04 (7942.8)</title></rect><rect x="399" y="22" width="13" height="13" rx="2" fill="#9be9a8"><title>2026-07-05 (4935.6)</title></rect><rect x="399" y="37" width="13" height="13" rx="2" fill="#9be9a8"><title>2026-07-06 (4714.9)</title></rect><rect x="399" y="52" width="13" height="13" rx="2" fill="#9be9a8"><title>2026-07-07 (5676.4)</title></rect><rect x="399" y="67" width="13" height="13" rx="2" fill="#9be9a8"><title>2026-07-08 (6499.2)</title></rect><rect x="399" y="82" width="13" height="13" rx="2" fill="#9be9a8"><title>2026-07-09 (2962.7)</title></rect><rect x="399" y="97" width="13" height="13" rx="2" fill="#9be9a8"><title>2026-07-10 (5629.1)</title></rect><rect x="399" y="112" width="13" height="13" rx="2" fill="#9be9a8"><title>2026-07-11 (3438.0)</title></rect><rect x="414" y="22" width="13" height="13" rx="2" fill="#9be9a8"><title>2026-07-12 (2692.8)</title></rect><rect x="414" y="37" width="13" height="13" rx="2" fill="#9be9a8"><title>2026-07-13 (2753.4)</title></rect><rect x="414" y="52" width="13" height="13" rx="2" fill="#9be9a8"><title>2026-07-14 (1215.2)</title></rect><rect x="414" y="67" width="13" height="13" rx="2" fill="#9be9a8"><title>2026-07-15 (140.2)</title></rect><text x="24" y="145" font-size="9" fill="#333333">적음</text><rect x="52" y="135" width="13" height="13" rx="2" fill="#ebedf0"/><rect x="67" y="135" width="13" height="13" rx="2" fill="#9be9a8"/><rect x="82" y="135" width="13" height="13" rx="2" fill="#40c463"/><rect x="97" y="135" width="13" height="13" rx="2" fill="#30a14e"/><rect x="112" y="135" width="13" height="13" rx="2" fill="#216e39"/><text x="131" y="145" font-size="9" fill="#333333">많음</text><text x="24" y="163" font-size="9" fill="#333333">기준: 2026-07-15 11:02</text>
</svg>