<svg xmlns="http://www.w3.org/2000/svg" width="363" height="260">
<text x="181" y="18" text-anchor="middle" font-size="13" font-weight="bold" fill="#e0e0e0">최근 1주 요일별 활동</text>
<text x="24" y="46" text-anchor="end" font-size="12" fill="#cccccc">일</text><rect x="28" y="30" width="104" height="22" rx="3" fill="#40c463"><title>일: 2006.0점</title></rect><text x="137" y="46" font-size="10" fill="#cccccc">2006.0</text><text x="24" y="74" text-anchor="end" font-size="12" fill="#cccccc">월</text><rect x="28" y="58" width="85" height="22" rx="3" fill="#40c463"><title>월: 1643.8점</title></rect><text x="118" y="74" font-size="10" fill="#cccccc">1643.8</text><text x="24" y="102" text-anchor="end" font-size="12" fill="#cccccc">화</text><rect x="28" y="86" width="51" height="22" rx="3" fill="#9be9a8"><title>화: 999.0점</title></rect><text x="84" y="102" font-size="10" fill="#cccccc">999.0</text><text x="24" y="130" text-anchor="end" font-size="12" fill="#cccccc">수</text><rect x="28" y="114" width="11" height="22" rx="3" fill="#9be9a8"><title>수: 218.0점</title></rect><text x="44" y="130" font-size="10" fill="#cccccc">218.0</text><text x="24" y="158" text-anchor="end" font-size="12" fill="#cccccc">목</text><rect x="28" y="142" width="280" height="22" rx="3" fill="#216e39"><title>목: 5399.3점</title></rect><text x="313" y="158" font-size="10" fill="#cccccc">5399.3</text><text x="24" y="186" text-anchor="end" font-size="12" fill="#cccccc">금</text><rect x="28" y="170" width="226" height="22" rx="3" fill="#216e39"><title>금: 4376.2점</title></rect><text x="259" y="186" font-size="10" fill="#cccccc">4376.2</text><text x="24" y="214" text-anchor="end" font-size="12" fill="#cccccc">토</text><rect x="28" y="198" width="112" height="22" rx="3" fill="#40c463"><title>토: 2163.8점</title></rect><text x="145" y="214" font-size="10" fill="#cccccc">2163.8</text>
<text x="28" y="254" font-size="9" fill="#999999">기준: 2026-07-01 22:42</text>
</svg>