<svg xmlns="http://www.w3.org/2000/svg" width="363" height="260">
<text x="181" y="18" text-anchor="middle" font-size="13" font-weight="bold" fill="#111111">최근 2주 요일별 활동</text>
<text x="24" y="46" text-anchor="end" font-size="12" fill="#333333">일</text><rect x="28" y="30" width="246" height="22" rx="3" fill="#216e39"><title>일: 8897.6점</title></rect><text x="279" y="46" font-size="10" fill="#333333">8897.6</text><text x="24" y="74" text-anchor="end" font-size="12" fill="#333333">월</text><rect x="28" y="58" width="228" height="22" rx="3" fill="#216e39"><title>월: 8242.1점</title></rect><text x="261" y="74" font-size="10" fill="#333333">8242.1</text><text x="24" y="102" text-anchor="end" font-size="12" fill="#333333">화</text><rect x="28" y="86" width="203" height="22" rx="3" fill="#30a14e"><title>화: 7349.7점</title></rect><text x="236" y="102" font-size="10" fill="#333333">7349.7</text><text x="24" y="130" text-anchor="end" font-size="12" fill="#333333">수</text><rect x="28" y="114" width="131" height="22" rx="3" fill="#40c463"><title>수: 4752.9점</title></rect><text x="164" y="130" font-size="10" fill="#333333">4752.9</text><text x="24" y="158" text-anchor="end" font-size="12" fill="#333333">목</text><rect x="28" y="142" width="94" height="22" rx="3" fill="#40c463"><title>목: 3398.5점</title></rect><text x="127" y="158" font-size="10" fill="#333333">3398.5</text><text x="24" y="186" text-anchor="end" font-size="12" fill="#333333">금</text><rect x="28" y="170" width="70" height="22" rx="3" fill="#40c463"><title>금: 2541.0점</title></rect><text x="103" y="186" font-size="10" fill="#333333">2541.0</text><text x="24" y="214" text-anchor="end" font-size="12" fill="#333333">토</text><rect x="28" y="198" width="280" height="22" rx="3" fill="#216e39"><title>토: 10119.2점</title></rect><text x="313" y="214" font-size="10" fill="#333333">10119.2</text>
<text x="28" y="254" font-size="9" fill="#666666">기준: 2026-07-10 04:17</text>
</svg>