<svg xmlns="http://www.w3.org/2000/svg" width="363" height="260">
<text x="181" y="18" text-anchor="middle" font-size="13" font-weight="bold" fill="#111111">최근 2주 요일별 활동</text>
<text x="24" y="46" text-anchor="end" font-size="12" fill="#333333">일</text><rect x="28" y="30" width="197" height="22" rx="3" fill="#30a14e"><title>일: 1645.2점</title></rect><text x="230" y="46" font-size="10" fill="#333333">1645.2</text><text x="24" y="74" text-anchor="end" font-size="12" fill="#333333">월</text><rect x="28" y="58" width="125" height="22" rx="3" fill="#40c463"><title>월: 1045.7점</title></rect><text x="158" y="74" font-size="10" fill="#333333">1045.7</text><text x="24" y="102" text-anchor="end" font-size="12" fill="#333333">화</text><rect x="28" y="86" width="280" height="22" rx="3" fill="#216e39"><title>화: 2326.7점</title></rect><text x="313" y="102" font-size="10" fill="#333333">2326.7</text><text x="24" y="130" text-anchor="end" font-size="12" fill="#333333">수</text><rect x="28" y="114" width="156" height="22" rx="3" fill="#30a14e"><title>수: 1300.7점</title></rect><text x="189" y="130" font-size="10" fill="#333333">1300.7</text><text x="24" y="158" text-anchor="end" font-size="12" fill="#333333">목</text><rect x="28" y="142" width="126" height="22" rx="3" fill="#40c463"><title>목: 1047.5점</title></rect><text x="159" y="158" font-size="10" fill="#333333">1047.5</text><text x="24" y="186" text-anchor="end" font-size="12" fill="#333333">금</text><rect x="28" y="170" width="92" height="22" rx="3" fill="#40c463"><title>금: 765.5점</title></rect><text x="125" y="186" font-size="10" fill="#333333">765.5</text><text x="24" y="214" text-anchor="end" font-size="12" fill="#333333">토</text><rect x="28" y="198" width="60" height="22" rx="3" fill="#9be9a8"><title>토: 503.5점</title></rect><text x="93" y="214" font-size="10" fill="#333333">503.5</text>
<text x="28" y="254" font-size="9" fill="#666666">기준: 2026-05-23 16:15</text>
</svg>