<svg xmlns="http://www.w3.org/2000/svg" width="363" height="260">
<text x="181" y="18" text-anchor="middle" font-size="13" font-weight="bold" fill="#e0e0e0">최근 1달 요일별 활동</text>
<text x="24" y="46" text-anchor="end" font-size="12" fill="#cccccc">일</text><rect x="28" y="30" width="277" height="22" rx="3" fill="#216e39"><title>일: 7657.8점</title></rect><text x="310" y="46" font-size="10" fill="#cccccc">7657.8</text><text x="24" y="74" text-anchor="end" font-size="12" fill="#cccccc">월</text><rect x="28" y="58" width="136" height="22" rx="3" fill="#40c463"><title>월: 3762.1점</title></rect><text x="169" y="74" font-size="10" fill="#cccccc">3762.1</text><text x="24" y="102" text-anchor="end" font-size="12" fill="#cccccc">화</text><rect x="28" y="86" width="280" height="22" rx="3" fill="#216e39"><title>화: 7736.9점</title></rect><text x="313" y="102" font-size="10" fill="#cccccc">7736.9</text><text x="24" y="130" text-anchor="end" font-size="12" fill="#cccccc">수</text><rect x="28" y="114" width="278" height="22" rx="3" fill="#216e39"><title>수: 7682.0점</title></rect><text x="311" y="130" font-size="10" fill="#cccccc">7682.0</text><text x="24" y="158" text-anchor="end" font-size="12" fill="#cccccc">목</text><rect x="28" y="142" width="232" height="22" rx="3" fill="#216e39"><title>목: 6433.3점</title></rect><text x="265" y="158" font-size="10" fill="#cccccc">6433.3</text><text x="24" y="186" text-anchor="end" font-size="12" fill="#cccccc">금</text><rect x="28" y="170" width="169" height="22" rx="3" fill="#30a14e"><title>금: 4682.0점</title></rect><text x="202" y="186" font-size="10" fill="#cccccc">4682.0</text><text x="24" y="214" text-anchor="end" font-size="12" fill="#cccccc">토</text><rect x="28" y="198" width="85" height="22" rx="3" fill="#40c463"><title>토: 2352.6점</title></rect><text x="118" y="214" font-size="10" fill="#cccccc">2352.6</text>
<text x="28" y="254" font-size="9" fill="#999999">기준: 2026-05-25 04:55</text>
</svg>