<svg xmlns="http://www.w3.org/2000/svg" width="363" height="260">
<text x="181" y="18" text-anchor="middle" font-size="13" font-weight="bold" fill="#e0e0e0">최근 2주 요일별 활동</text>
<text x="24" y="46" text-anchor="end" font-size="12" fill="#cccccc">일</text><rect x="28" y="30" width="280" height="22" rx="3" fill="#216e39"><title>일: 23337.0점</title></rect><text x="313" y="46" font-size="10" fill="#cccccc">23337.0</text><text x="24" y="74" text-anchor="end" font-size="12" fill="#cccccc">월</text><rect x="28" y="58" width="229" height="22" rx="3" fill="#216e39"><title>월: 19145.6점</title></rect><text x="262" y="74" font-size="10" fill="#cccccc">19145.6</text><text x="24" y="102" text-anchor="end" font-size="12" fill="#cccccc">화</text><rect x="28" y="86" width="232" height="22" rx="3" fill="#216e39"><title>화: 19399.0점</title></rect><text x="265" y="102" font-size="10" fill="#cccccc">19399.0</text><text x="24" y="130" text-anchor="end" font-size="12" fill="#cccccc">수</text><rect x="28" y="114" width="220" height="22" rx="3" fill="#216e39"><title>수: 18371.9점</title></rect><text x="253" y="130" font-size="10" fill="#cccccc">18371.9</text><text x="24" y="158" text-anchor="end" font-size="12" fill="#cccccc">목</text><rect x="28" y="142" width="77" height="22" rx="3" fill="#40c463"><title>목: 6427.4점</title></rect><text x="110" y="158" font-size="10" fill="#cccccc">6427.4</text><text x="24" y="186" text-anchor="end" font-size="12" fill="#cccccc">금</text><rect x="28" y="170" width="154" height="22" rx="3" fill="#30a14e"><title>금: 12903.2점</title></rect><text x="187" y="186" font-size="10" fill="#cccccc">12903.2</text><text x="24" y="214" text-anchor="end" font-size="12" fill="#cccccc">토</text><rect x="28" y="198" width="197" height="22" rx="3" fill="#30a14e"><title>토: 16500.8점</title></rect><text x="230" y="214" font-size="10" fill="#cccccc">16500.8</text>
<text x="28" y="254" font-size="9" fill="#999999">기준: 2026-07-02 22:29</text>
</svg>