<svg xmlns="http://www.w3.org/2000/svg" width="363" height="260">
<text x="181" y="18" text-anchor="middle" font-size="13" font-weight="bold" fill="#e0e0e0">최근 1달 요일별 활동</text>
<text x="24" y="46" text-anchor="end" font-size="12" fill="#cccccc">일</text><rect x="28" y="30" width="262" height="22" rx="3" fill="#216e39"><title>일: 18623.3점</title></rect><text x="295" y="46" font-size="10" fill="#cccccc">18623.3</text><text x="24" y="74" text-anchor="end" font-size="12" fill="#cccccc">월</text><rect x="28" y="58" width="151" height="22" rx="3" fill="#30a14e"><title>월: 10735.1점</title></rect><text x="184" y="74" font-size="10" fill="#cccccc">10735.1</text><text x="24" y="102" text-anchor="end" font-size="12" fill="#cccccc">화</text><rect x="28" y="86" width="280" height="22" rx="3" fill="#216e39"><title>화: 19894.3점</title></rect><text x="313" y="102" font-size="10" fill="#cccccc">19894.3</text><text x="24" y="130" text-anchor="end" font-size="12" fill="#cccccc">수</text><rect x="28" y="114" width="223" height="22" rx="3" fill="#216e39"><title>수: 15894.2점</title></rect><text x="256" y="130" font-size="10" fill="#cccccc">15894.2</text><text x="24" y="158" text-anchor="end" font-size="12" fill="#cccccc">목</text><rect x="28" y="142" width="200" height="22" rx="3" fill="#30a14e"><title>목: 14245.0점</title></rect><text x="233" y="158" font-size="10" fill="#cccccc">14245.0</text><text x="24" y="186" text-anchor="end" font-size="12" fill="#cccccc">금</text><rect x="28" y="170" width="190" height="22" rx="3" fill="#30a14e"><title>금: 13525.5점</title></rect><text x="223" y="186" font-size="10" fill="#cccccc">13525.5</text><text x="24" y="214" text-anchor="end" font-size="12" fill="#cccccc">토</text><rect x="28" y="198" width="241" height="22" rx="3" fill="#216e39"><title>토: 17134.4점</title></rect><text x="274" y="214" font-size="10" fill="#cccccc">17134.4</text>
<text x="28" y="254" font-size="9" fill="#999999">기준: 2026-06-13 09:38</text>
</svg>