<svg xmlns="http://www.w3.org/2000/svg" width="363" height="260">
<text x="181" y="18" text-anchor="middle" font-size="13" font-weight="bold" fill="#e0e0e0">최근 1달 요일별 활동</text>
<text x="24" y="46" text-anchor="end" font-size="12" fill="#cccccc">일</text><rect x="28" y="30" width="243" height="22" rx="3" fill="#216e39"><title>일: 21855.4점</title></rect><text x="276" y="46" font-size="10" fill="#cccccc">21855.4</text><text x="24" y="74" text-anchor="end" font-size="12" fill="#cccccc">월</text><rect x="28" y="58" width="153" height="22" rx="3" fill="#30a14e"><title>월: 13738.5점</title></rect><text x="186" y="74" font-size="10" fill="#cccccc">13738.5</text><text x="24" y="102" text-anchor="end" font-size="12" fill="#cccccc">화</text><rect x="28" y="86" width="206" height="22" rx="3" fill="#30a14e"><title>화: 18555.8점</title></rect><text x="239" y="102" font-size="10" fill="#cccccc">18555.8</text><text x="24" y="130" text-anchor="end" font-size="12" fill="#cccccc">수</text><rect x="28" y="114" width="248" height="22" rx="3" fill="#216e39"><title>수: 22330.9점</title></rect><text x="281" y="130" font-size="10" fill="#cccccc">22330.9</text><text x="24" y="158" text-anchor="end" font-size="12" fill="#cccccc">목</text><rect x="28" y="142" width="217" height="22" rx="3" fill="#216e39"><title>목: 19525.0점</title></rect><text x="250" y="158" font-size="10" fill="#cccccc">19525.0</text><text x="24" y="186" text-anchor="end" font-size="12" fill="#cccccc">금</text><rect x="28" y="170" width="205" height="22" rx="3" fill="#30a14e"><title>금: 18425.0점</title></rect><text x="238" y="186" font-size="10" fill="#cccccc">18425.0</text><text x="24" y="214" text-anchor="end" font-size="12" fill="#cccccc">토</text><rect x="28" y="198" width="280" height="22" rx="3" fill="#216e39"><title>토: 25121.8점</title></rect><text x="313" y="214" font-size="10" fill="#cccccc">25121.8</text>
<text x="28" y="254" font-size="9" fill="#999999">기준: 2026-06-18 05:06</text>
</svg>