<svg xmlns="http://www.w3.org/2000/svg" width="439" height="181">
<text x="69" y="16" font-size="9" fill="#cccccc">2</text><text x="129" y="16" font-size="9" fill="#cccccc">3</text><text x="189" y="16" font-size="9" fill="#cccccc">4</text><text x="249" y="16" font-size="9" fill="#cccccc">5</text><text x="324" y="16" font-size="9" fill="#cccccc">6</text><text x="384" y="16" font-size="9" fill="#cccccc">7</text><text x="20" y="48" text-anchor="end" font-size="9" fill="#cccccc">월</text><text x="20" y="78" text-anchor="end" font-size="9" fill="#cccccc">수</text><text x="20" y="108" text-anchor="end" font-size="9" fill="#cccccc">금</text><rect x="24" y="22" width="13" height="13" rx="2" fill="#ebedf0"><title>2026-01-11 (0)</title></rect><rect x="24" y="37" width="13" height="13" rx="2" fill="#9be9a8"><title>2026-01-12 (447.4)</title></rect><rect x="24" y="52" width="13" height="13" rx="2" fill="#9be9a8"><title>2026-01-13 (37.5)</title></rect><rect x="24" y="67" width="13" height="13" rx="2" fill="#9be9a8"><title>2026-01-14 (150.1)</title></rect><rect x="24" y="82" width="13" height="13" rx="2" fill="#ebedf0"><title>2026-01-15 (0)</title></rect><rect x="24" y="97" width="13" height="13" rx="2" fill="#9be9a8"><title>2026-01-16 (31.4)</title></rect><rect x="24" y="112" width="13" height="13" rx="2" fill="#9be9a8"><title>2026-01-17 (562.2)</title></rect><rect x="39" y="22" width="13" height="13" rx="2" fill="#9be9a8"><title>2026-01-18 (3937.5)</title></rect><rect x="39" y="37" width="13" height="13" rx="2" fill="#9be9a8"><title>2026-01-19 (50.4)</title></rect><rect x="39" y="52" width="13" height="13" rx="2" fill="#9be9a8"><title>2026-01-20 (91.3)</title></rect><rect x="39" y="67" width="13" height="13" rx="2" fill="#9be9a8"><title>2026-01-21 (7601.7)</title></rect><rect x="39" y="82" width="13" height="13" rx="2" fill="#9be9a8"><title>2026-01-22 (1275.1)</title></rect><rect x="39" y="97" width="13" height="13" rx="2" fill="#9be9a8"><title>2026-01-23 (6468.6)</title></rect><rect x="39" y="112" width="13" height="13" rx="2" fill="#9be9a8"><title>2026-01-24 (10329.0)</title></rect><rect x="54" y="22" width="13" height="13" rx="2" fill="#9be9a8"><title>2026-01-25 (7359.2)</title></rect><rect x="54" y="37" width="13" height="13" rx="2" fill="#9be9a8"><title>2026-01-26 (4434.8)</title></rect><rect x="54" y="52" width="13" height="13" rx="2" fill="#9be9a8"><title>2026-01-27 (10911.2)</title></rect><rect x="54" y="67" width="13" height="13" rx="2" fill="#9be9a8"><title>2026-01-28 (1108.2)</title></rect><rect x="54" y="82" width="13" height="13" rx="2" fill="#9be9a8"><title>2026-01-29 (617.7)</title></rect><rect x="54" y="97" width="13" height="13" rx="2" fill="#9be9a8"><title>2026-01-30 (10437.6)</title></rect><rect x="54" y="112" width="13" height="13" rx="2" fill="#9be9a8"><title>2026-01-31 (6886.0)</title></rect><rect x="69" y="22" width="13" height="13" rx="2" fill="#9be9a8"><title>2026-02-01 (8551.4)</title></rect><rect x="69" y="37" width="13" height="13" rx="2" fill="#40c463"><title>2026-02-02 (20585.2)</title></rect><rect x="69" y="52" width="13" height="13" rx="2" fill="#9be9a8"><title>2026-02-03 (1063.4)</title></rect><rect x="69" y="67" width="13" height="13" rx="2" fill="#9be9a8"><title>2026-02-04 (707.4)</title></rect><rect x="69" y="82" width="13" height="13" rx="2" fill="#9be9a8"><title>2026-02-05 (6896.2)</title></rect><rect x="69" y="97" width="13" height="13" rx="2" fill="#40c463"><title>2026-02-06 (13760.8)</title></rect><rect x="69" y="112" width="13" height="13" rx="2" fill="#9be9a8"><title>2026-02-07 (4681.6)</title></rect><rect x="84" y="22" width="13" height="13" rx="2" fill="#9be9a8"><title>2026-02-08 (3289.3)</title></rect><rect x="84" y="37" width="13" height="13" rx="2" fill="#9be9a8"><title>2026-02-09 (113.7)</title></rect><rect x="84" y="52" width="13" height="13" rx="2" fill="#ebedf0"><title>2026-02-10 (0)</title></rect><rect x="84" y="67" width="13" height="13" rx="2" fill="#ebedf0"><title>2026-02-11 (0)</title></rect><rect x="84" y="82" width="13" height="13" rx="2" fill="#9be9a8"><title>2026-02-12 (639.5)</title></rect><rect x="84" y="97" width="13" height="13" rx="2" fill="#9be9a8"><title>2026-02-13 (347.2)</title></rect><rect x="84" y="112" width="13" height="13" rx="2" fill="#ebedf0"><title>2026-02-14 (0)</title></rect><rect x="99" y="22" width="13" height="13" rx="2" fill="#ebedf0"><title>2026-02-15 (0)</title></rect><rect x="99" y="37" width="13" height="13" rx="2" fill="#ebedf0"><title>2026-02-16 (0)</title></rect><rect x="99" y="52" width="13" height="13" rx="2" fill="#ebedf0"><title>2026-02-17 (0)</title></rect><rect x="99" y="67" width="13" height="13" rx="2" fill="#9be9a8"><title>2026-02-18 (2035.6)</title></rect><rect x="99" y="82" width="13" height="13" rx="2" fill="#9be9a8"><title>2026-02-19 (1641.9)</title></rect><rect x="99" y="97" width="13" height="13" rx="2" fill="#9be9a8"><title>2026-02-20 (6410.7)</title></rect><rect x="99" y="112" width="13" height="13" rx="2" fill="#9be9a8"><title>2026-02-21 (412.7)</title></rect><rect x="114" y="22" width="13" height="13" rx="2" fill="#9be9a8"><title>2026-02-22 (2316.2)</title></rect><rect x="114" y="37" width="13" height="13" rx="2" fill="#9be9a8"><title>2026-02-23 (836.6)</title></rect><rect x="114" y="52" width="13" height="13" rx="2" fill="#9be9a8"><title>2026-02-24 (1038.8)</title></rect><rect x="114" y="67" width="13" height="13" rx="2" fill="#9be9a8"><title>2026-02-25 (1131.2)</title></rect><rect x="114" y="82" width="13" height="13" rx="2" fill="#9be9a8"><title>2026-02-26 (7519.7)</title></rect><rect x="114" y="97" width="13" height="13" rx="2" fill="#40c463"><title>2026-02-27 (16914.7)</title></rect><rect x="114" y="112" width="13" height="13" rx="2" fill="#40c463"><title>2026-02-28 (12085.6)</title></rect><rect x="129" y="22" width="13" height="13" rx="2" fill="#40c463"><title>2026-03-01 (11489.6)</title></rect><rect x="129" y="37" width="13" height="13" rx="2" fill="#9be9a8"><title>2026-03-02 (4280.7)</title></rect><rect x="129" y="52" width="13" height="13" rx="2" fill="#9be9a8"><title>2026-03-03 (129.4)</title></rect><rect x="129" y="67" width="13" height="13" rx="2" fill="#9be9a8"><title>2026-03-04 (4235.4)</title></rect><rect x="129" y="82" width="13" height="13" rx="2" fill="#9be9a8"><title>2026-03-05 (3907.1)</title></rect><rect x="129" y="97" width="13" height="13" rx="2" fill="#9be9a8"><title>2026-03-06 (1121.7)</title></rect><rect x="129" y="112" width="13" height="13" rx="2" fill="#9be9a8"><title>2026-03-07 (1452.1)</title></rect><rect x="144" y="22" width="13" height="13" rx="2" fill="#9be9a8"><title>2026-03-08 (1126.7)</title></rect><rect x="144" y="37" width="13" height="13" rx="2" fill="#9be9a8"><title>2026-03-09 (447.4)</title></rect><rect x="144" y="52" width="13" height="13" rx="2" fill="#9be9a8"><title>2026-03-10 (2581.6)</title></rect><rect x="144" y="67" width="13" height="13" rx="2" fill="#9be9a8"><title>2026-03-11 (1155.3)</title></rect><rect x="144" y="82" width="13" height="13" rx="2" fill="#9be9a8"><title>2026-03-12 (356.7)</title></rect><rect x="144" y="97" width="13" height="13" rx="2" fill="#9be9a8"><title>2026-03-13 (5990.9)</title></rect><rect x="144" y="112" width="13" height="13" rx="2" fill="#9be9a8"><title>2026-03-14 (231.9)</title></rect><rect x="159" y="22" width="13" height="13" rx="2" fill="#9be9a8"><title>2026-03-15 (495.6)</title></rect><rect x="159" y="37" width="13" height="13" rx="2" fill="#9be9a8"><title>2026-03-16 (8460.2)</title></rect><rect x="159" y="52" width="13" height="13" rx="2" fill="#9be9a8"><title>2026-03-17 (8452.4)</title></rect><rect x="159" y="67" width="13" height="13" rx="2" fill="#9be9a8"><title>2026-03-18 (171.5)</title></rect><rect x="159" y="82" width="13" height="13" rx="2" fill="#9be9a8"><title>2026-03-19 (6855.6)</title></rect><rect x="159" y="97" width="13" height="13" rx="2" fill="#9be9a8"><title>2026-03-20 (4012.2)</title></rect><rect x="159" y="112" width="13" height="13" rx="2" fill="#ebedf0"><title>2026-03-21 (0)</title></rect><rect x="174" y="22" width="13" height="13" rx="2" fill="#ebedf0"><title>2026-03-22 (0)</title></rect><rect x="174" y="37" width="13" height="13" rx="2" fill="#9be9a8"><title>2026-03-23 (11104.6)</title></rect><rect x="174" y="52" width="13" height="13" rx="2" fill="#9be9a8"><title>2026-03-24 (401.2)</title></rect><rect x="174" y="67" width="13" height="13" rx="2" fill="#9be9a8"><title>2026-03-25 (127.7)</title></rect><rect x="174" y="82" width="13" height="13" rx="2" fill="#9be9a8"><title>2026-03-26 (3443.0)</title></rect><rect x="174" y="97" width="13" height="13" rx="2" fill="#40c463"><title>2026-03-27 (18338.6)</title></rect><rect x="174" y="112" width="13" height="13" rx="2" fill="#40c463"><title>2026-03-28 (16735.6)</title></rect><rect x="189" y="22" width="13" height="13" rx="2" fill="#9be9a8"><title>2026-03-29 (3826.6)</title></rect><rect x="189" y="37" width="13" height="13" rx="2" fill="#9be9a8"><title>2026-03-30 (4190.3)</title></rect><rect x="189" y="52" width="13" height="13" rx="2" fill="#9be9a8"><title>2026-03-31 (1021.1)</title></rect><rect x="189" y="67" width="13" height="13" rx="2" fill="#9be9a8"><title>2026-04-01 (85.2)</title></rect><rect x="189" y="82" width="13" height="13" rx="2" fill="#9be9a8"><title>2026-04-02 (1298.9)</title></rect><rect x="189" y="97" width="13" height="13" rx="2" fill="#ebedf0"><title>2026-04-03 (0)</title></rect><rect x="189" y="112" width="13" height="13" rx="2" fill="#ebedf0"><title>2026-04-04 (0)</title></rect><rect x="204" y="22" width="13" height="13" rx="2" fill="#9be9a8"><title>2026-04-05 (208.3)</title></rect><rect x="204" y="37" width="13" height="13" rx="2" fill="#9be9a8"><title>2026-04-06 (401.5)</title></rect><rect x="204" y="52" width="13" height="13" rx="2" fill="#9be9a8"><title>2026-04-07 (351.3)</title></rect><rect x="204" y="67" width="13" height="13" rx="2" fill="#9be9a8"><title>2026-04-08 (452.5)</title></rect><rect x="204" y="82" width="13" height="13" rx="2" fill="#9be9a8"><title>2026-04-09 (7.9)</title></rect><rect x="204" y="97" width="13" height="13" rx="2" fill="#9be9a8"><title>2026-04-10 (6560.2)</title></rect><rect x="204" y="112" width="13" height="13" rx="2" fill="#9be9a8"><title>2026-04-11 (497.6)</title></rect><rect x="219" y="22" width="13" height="13" rx="2" fill="#9be9a8"><title>2026-04-12 (622.7)</title></rect><rect x="219" y="37" width="13" height="13" rx="2" fill="#9be9a8"><title>2026-04-13 (3473.2)</title></rect><rect x="219" y="52" width="13" height="13" rx="2" fill="#9be9a8"><title>2026-04-14 (552.6)</title></rect><rect x="219" y="67" width="13" height="13" rx="2" fill="#9be9a8"><title>2026-04-15 (75.4)</title></rect><rect x="219" y="82" width="13" height="13" rx="2" fill="#9be9a8"><title>2026-04-16 (883.7)</title></rect><rect x="219" y="97" width="13" height="13" rx="2" fill="#9be9a8"><title>2026-04-17 (9934.8)</title></rect><rect x="219" y="112" width="13" height="13" rx="2" fill="#9be9a8"><title>2026-04-18 (7779.2)</title></rect><rect x="234" y="22" width="13" height="13" rx="2" fill="#9be9a8"><title>2026-04-19 (10451.4)</title></rect><rect x="234" y="37" width="13" height="13" rx="2" fill="#9be9a8"><title>2026-04-20 (898.8)</title></rect><rect x="234" y="52" width="13" height="13" rx="2" fill="#9be9a8"><title>2026-04-21 (1040.8)</title></rect><rect x="234" y="67" width="13" height="13" rx="2" fill="#40c463"><title>2026-04-22 (15259.0)</title></rect><rect x="234" y="82" width="13" height="13" rx="2" fill="#9be9a8"><title>2026-04-23 (2231.2)</title></rect><rect x="234" y="97" width="13" height="13" rx="2" fill="#40c463"><title>2026-04-24 (14387.9)</title></rect><rect x="234" y="112" width="13" height="13" rx="2" fill="#30a14e"><title>2026-04-25 (23437.9)</title></rect><rect x="249" y="22" width="13" height="13" rx="2" fill="#40c463"><title>2026-04-26 (22387.7)</title></rect><rect x="249" y="37" width="13" height="13" rx="2" fill="#9be9a8"><title>2026-04-27 (6592.4)</title></rect><rect x="249" y="52" width="13" height="13" rx="2" fill="#9be9a8"><title>2026-04-28 (1763.6)</title></rect><rect x="249" y="67" width="13" height="13" rx="2" fill="#9be9a8"><title>2026-04-29 (4374.5)</title></rect><rect x="249" y="82" width="13" height="13" rx="2" fill="#9be9a8"><title>2026-04-30 (2226.1)</title></rect><rect x="249" y="97" width="13" height="13" rx="2" fill="#9be9a8"><title>2026-05-01 (1460.5)</title></rect><rect x="249" y="112" width="13" height="13" rx="2" fill="#9be9a8"><title>2026-05-02 (1557.9)</title></rect><rect x="264" y="22" width="13" height="13" rx="2" fill="#9be9a8"><title>2026-05-03 (9584.1)</title></rect><rect x="264" y="37" width="13" height="13" rx="2" fill="#9be9a8"><title>2026-05-04 (2208.4)</title></rect><rect x="264" y="52" width="13" height="13" rx="2" fill="#9be9a8"><title>2026-05-05 (7223.4)</title></rect><rect x="264" y="67" width="13" height="13" rx="2" fill="#9be9a8"><title>2026-05-06 (8984.0)</title></rect><rect x="264" y="82" width="13" height="13" rx="2" fill="#9be9a8"><title>2026-05-07 (2641.1)</title></rect><rect x="264" y="97" width="13" height="13" rx="2" fill="#9be9a8"><title>2026-05-08 (2218.5)</title></rect><rect x="264" y="112" width="13" height="13" rx="2" fill="#9be9a8"><title>2026-05-09 (980.5)</title></rect><rect x="279" y="22" width="13" height="13" rx="2" fill="#9be9a8"><title>2026-05-10 (3501.9)</title></rect><rect x="279" y="37" width="13" height="13" rx="2" fill="#9be9a8"><title>2026-05-11 (1121.6)</title></rect><rect x="279" y="52" width="13" height="13" rx="2" fill="#9be9a8"><title>2026-05-12 (3301.1)</title></rect><rect x="279" y="67" width="13" height="13" rx="2" fill="#9be9a8"><title>2026-05-13 (1074.7)</title></rect><rect x="279" y="82" width="13" height="13" rx="2" fill="#9be9a8"><title>2026-05-14 (552.1)</title></rect><rect x="279" y="97" width="13" height="13" rx="2" fill="#9be9a8"><title>2026-05-15 (3883.2)</title></rect><rect x="279" y="112" width="13" height="13" rx="2" fill="#9be9a8"><title>2026-05-16 (1594.7)</title></rect><rect x="294" y="22" width="13" height="13" rx="2" fill="#9be9a8"><title>2026-05-17 (9568.6)</title></rect><rect x="294" y="37" width="13" height="13" rx="2" fill="#9be9a8"><title>2026-05-18 (4399.4)</title></rect><rect x="294" y="52" width="13" height="13" rx="2" fill="#40c463"><title>2026-05-19 (20420.1)</title></rect><rect x="294" y="67" width="13" height="13" rx="2" fill="#40c463"><title>2026-05-20 (18980.2)</title></rect><rect x="294" y="82" width="13" height="13" rx="2" fill="#40c463"><title>2026-05-21 (16445.0)</title></rect><rect x="294" y="97" width="13" height="13" rx="2" fill="#40c463"><title>2026-05-22 (18300.8)</title></rect><rect x="294" y="112" width="13" height="13" rx="2" fill="#40c463"><title>2026-05-23 (22335.6)</title></rect><rect x="309" y="22" width="13" height="13" rx="2" fill="#40c463"><title>2026-05-24 (21627.0)</title></rect><rect x="309" y="37" width="13" height="13" rx="2" fill="#40c463"><title>2026-05-25 (17885.2)</title></rect><rect x="309" y="52" width="13" height="13" rx="2" fill="#40c463"><title>2026-05-26 (16472.7)</title></rect><rect x="309" y="67" width="13" height="13" rx="2" fill="#40c463"><title>2026-05-27 (17658.9)</title></rect><rect x="309" y="82" width="13" height="13" rx="2" fill="#40c463"><title>2026-05-28 (16772.6)</title></rect><rect x="309" y="97" width="13" height="13" rx="2" fill="#40c463"><title>2026-05-29 (20877.3)</title></rect><rect x="309" y="112" width="13" height="13" rx="2" fill="#30a14e"><title>2026-05-30 (25262.4)</title></rect><rect x="324" y="22" width="13" height="13" rx="2" fill="#40c463"><title>2026-05-31 (21415.7)</title></rect><rect x="324" y="37" width="13" height="13" rx="2" fill="#40c463"><title>2026-06-01 (12450.2)</title></rect><rect x="324" y="52" width="13" height="13" rx="2" fill="#40c463"><title>2026-06-02 (12033.9)</title></rect><rect x="324" y="67" width="13" height="13" rx="2" fill="#9be9a8"><title>2026-06-03 (11146.9)</title></rect><rect x="324" y="82" width="13" height="13" rx="2" fill="#40c463"><title>2026-06-04 (14629.3)</title></rect><rect x="324" y="97" width="13" height="13" rx="2" fill="#40c463"><title>2026-06-05 (12100.0)</title></rect><rect x="324" y="112" width="13" height="13" rx="2" fill="#40c463"><title>2026-06-06 (18166.4)</title></rect><rect x="339" y="22" width="13" height="13" rx="2" fill="#40c463"><title>2026-06-07 (21346.1)</title></rect><rect x="339" y="37" width="13" height="13" rx="2" fill="#40c463"><title>2026-06-08 (11868.2)</title></rect><rect x="339" y="52" width="13" height="13" rx="2" fill="#216e39"><title>2026-06-09 (39274.3)</title></rect><rect x="339" y="67" width="13" height="13" rx="2" fill="#30a14e"><title>2026-06-10 (27881.8)</title></rect><rect x="339" y="82" width="13" height="13" rx="2" fill="#40c463"><title>2026-06-11 (13526.8)</title></rect><rect x="339" y="97" width="13" height="13" rx="2" fill="#40c463"><title>2026-06-12 (14757.5)</title></rect><rect x="339" y="112" width="13" height="13" rx="2" fill="#40c463"><title>2026-06-13 (22274.2)</title></rect><rect x="354" y="22" width="13" height="13" rx="2" fill="#40c463"><title>2026-06-14 (14892.3)</title></rect><rect x="354" y="37" width="13" height="13" rx="2" fill="#9be9a8"><title>2026-06-15 (11138.1)</title></rect><rect x="354" y="52" width="13" height="13" rx="2" fill="#9be9a8"><title>2026-06-16 (9635.3)</title></rect><rect x="354" y="67" width="13" height="13" rx="2" fill="#40c463"><title>2026-06-17 (13703.9)</title></rect><rect x="354" y="82" width="13" height="13" rx="2" fill="#9be9a8"><title>2026-06-18 (10422.9)</title></rect><rect x="354" y="97" width="13" height="13" rx="2" fill="#40c463"><title>2026-06-19 (16507.4)</title></rect><rect x="354" y="112" width="13" height="13" rx="2" fill="#30a14e"><title>2026-06-20 (29416.2)</title></rect><rect x="369" y="22" width="13" height="13" rx="2" fill="#216e39"><title>2026-06-21 (45629.4)</title></rect><rect x="369" y="37" width="13" height="13" rx="2" fill="#216e39"><title>2026-06-22 (38874.6)</title></rect><rect x="369" y="52" width="13" height="13" rx="2" fill="#216e39"><title>2026-06-23 (41917.8)</title></rect><rect x="369" y="67" width="13" height="13" rx="2" fill="#216e39"><title>2026-06-24 (45777.7)</title></rect><rect x="369" y="82" width="13" height="13" rx="2" fill="#40c463"><title>2026-06-25 (17361.2)</title></rect><rect x="369" y="97" width="13" height="13" rx="2" fill="#40c463"><title>2026-06-26 (16015.5)</title></rect><rect x="369" y="112" width="13" height="13" rx="2" fill="#9be9a8"><title>2026-06-27 (8481.7)</title></rect><rect x="384" y="22" width="13" height="13" rx="2" fill="#40c463"><title>2026-06-28 (12514.1)</title></rect><rect x="384" y="37" width="13" height="13" rx="2" fill="#40c463"><title>2026-06-29 (13919.8)</title></rect><rect x="384" y="52" width="13" height="13" rx="2" fill="#40c463"><title>2026-06-30 (13019.3)</title></rect><rect x="384" y="67" width="13" height="13" rx="2" fill="#9be9a8"><title>2026-07-01 (8998.0)</title></rect><rect x="384" y="82" width="13" height="13" rx="2" fill="#9be9a8"><title>2026-07-02 (7055.4)</title></rect><rect x="384" y="97" width="13" height="13" rx="2" fill="#9be9a8"><title>2026-07-03 (4930.4)</title></rect><rect x="384" y="112" width="13" height="13" rx="2" fill="#9be9a8"><title>2026-07-04 (7266.5)</title></rect><rect x="399" y="22" width="13" height="13" rx="2" fill="#9be9a8"><title>2026-07-05 (4447.1)</title></rect><rect x="399" y="37" width="13" height="13" rx="2" fill="#9be9a8"><title>2026-07-06 (4104.4)</title></rect><rect x="399" y="52" width="13" height="13" rx="2" fill="#9be9a8"><title>2026-07-07 (4891.2)</title></rect><rect x="399" y="67" width="13" height="13" rx="2" fill="#9be9a8"><title>2026-07-08 (5519.8)</title></rect><rect x="399" y="82" width="13" height="13" rx="2" fill="#9be9a8"><title>2026-07-09 (2489.5)</title></rect><rect x="399" y="97" width="13" height="13" rx="2" fill="#9be9a8"><title>2026-07-10 (4476.8)</title></rect><rect x="399" y="112" width="13" height="13" rx="2" fill="#9be9a8"><title>2026-07-11 (2533.5)</title></rect><rect x="414" y="22" width="13" height="13" rx="2" fill="#9be9a8"><title>2026-07-12 (1876.9)</title></rect><rect x="414" y="37" width="13" height="13" rx="2" fill="#9be9a8"><title>2026-07-13 (1510.9)</title></rect><rect x="414" y="52" width="13" height="13" rx="2" fill="#9be9a8"><title>2026-07-14 (259.3)</title></rect><text x="24" y="145" font-size="9" fill="#cccccc">적음</text><rect x="52" y="135" width="13" height="13" rx="2" fill="#ebedf0"/><rect x="67" y="135" width="13" height="13" rx="2" fill="#9be9a8"/><rect x="82" y="135" width="13" height="13" rx="2" fill="#40c463"/><rect x="97" y="135" width="13" height="13" rx="2" fill="#30a14e"/><rect x="112" y="135" width="13" height="13" rx="2" fill="#216e39"/><text x="131" y="145" font-size="9" fill="#cccccc">많음</text><text x="24" y="163" font-size="9" fill="#cccccc">기준: 2026-07-14 14:15</text>
</svg>