<svg xmlns="http://www.w3.org/2000/svg" width="363" height="260">
<text x="181" y="18" text-anchor="middle" font-size="13" font-weight="bold" fill="#111111">최근 2주 요일별 활동</text>
<text x="24" y="46" text-anchor="end" font-size="12" fill="#333333">일</text><rect x="28" y="30" width="280" height="22" rx="3" fill="#216e39"><title>일: 20408.7점</title></rect><text x="313" y="46" font-size="10" fill="#333333">20408.7</text><text x="24" y="74" text-anchor="end" font-size="12" fill="#333333">월</text><rect x="28" y="58" width="225" height="22" rx="3" fill="#216e39"><title>월: 16406.8점</title></rect><text x="258" y="74" font-size="10" fill="#333333">16406.8</text><text x="24" y="102" text-anchor="end" font-size="12" fill="#333333">화</text><rect x="28" y="86" width="225" height="22" rx="3" fill="#216e39"><title>화: 16430.3점</title></rect><text x="258" y="102" font-size="10" fill="#333333">16430.3</text><text x="24" y="130" text-anchor="end" font-size="12" fill="#333333">수</text><rect x="28" y="114" width="211" height="22" rx="3" fill="#216e39"><title>수: 15409.3점</title></rect><text x="244" y="130" font-size="10" fill="#333333">15409.3</text><text x="24" y="158" text-anchor="end" font-size="12" fill="#333333">목</text><rect x="28" y="142" width="139" height="22" rx="3" fill="#40c463"><title>목: 10189.1점</title></rect><text x="172" y="158" font-size="10" fill="#333333">10189.1</text><text x="24" y="186" text-anchor="end" font-size="12" fill="#333333">금</text><rect x="28" y="170" width="154" height="22" rx="3" fill="#30a14e"><title>금: 11238.3점</title></rect><text x="187" y="186" font-size="10" fill="#333333">11238.3</text><text x="24" y="214" text-anchor="end" font-size="12" fill="#333333">토</text><rect x="28" y="198" width="199" height="22" rx="3" fill="#30a14e"><title>토: 14551.5점</title></rect><text x="232" y="214" font-size="10" fill="#333333">14551.5</text>
<text x="28" y="254" font-size="9" fill="#666666">기준: 2026-07-01 20:16</text>
</svg>