<svg xmlns="http://www.w3.org/2000/svg" width="363" height="260">
<text x="181" y="18" text-anchor="middle" font-size="13" font-weight="bold" fill="#e0e0e0">최근 1주 요일별 활동</text>
<text x="24" y="46" text-anchor="end" font-size="12" fill="#cccccc">일</text><rect x="28" y="30" width="239" height="22" rx="3" fill="#216e39"><title>일: 1956.5점</title></rect><text x="272" y="46" font-size="10" fill="#cccccc">1956.5</text><text x="24" y="74" text-anchor="end" font-size="12" fill="#cccccc">월</text><rect x="28" y="58" width="48" height="22" rx="3" fill="#9be9a8"><title>월: 392.0점</title></rect><text x="81" y="74" font-size="10" fill="#cccccc">392.0</text><text x="24" y="102" text-anchor="end" font-size="12" fill="#cccccc">화</text><rect x="28" y="86" width="173" height="22" rx="3" fill="#30a14e"><title>화: 1414.1점</title></rect><text x="206" y="102" font-size="10" fill="#cccccc">1414.1</text><text x="24" y="130" text-anchor="end" font-size="12" fill="#cccccc">수</text><rect x="28" y="114" width="206" height="22" rx="3" fill="#30a14e"><title>수: 1682.9점</title></rect><text x="239" y="130" font-size="10" fill="#cccccc">1682.9</text><text x="24" y="158" text-anchor="end" font-size="12" fill="#cccccc">목</text><rect x="28" y="142" width="169" height="22" rx="3" fill="#30a14e"><title>목: 1381.9점</title></rect><text x="202" y="158" font-size="10" fill="#cccccc">1381.9</text><text x="24" y="186" text-anchor="end" font-size="12" fill="#cccccc">금</text><rect x="28" y="170" width="202" height="22" rx="3" fill="#30a14e"><title>금: 1654.7점</title></rect><text x="235" y="186" font-size="10" fill="#cccccc">1654.7</text><text x="24" y="214" text-anchor="end" font-size="12" fill="#cccccc">토</text><rect x="28" y="198" width="280" height="22" rx="3" fill="#216e39"><title>토: 2283.4점</title></rect><text x="313" y="214" font-size="10" fill="#cccccc">2283.4</text>
<text x="28" y="254" font-size="9" fill="#999999">기준: 2026-06-22 18:53</text>
</svg>