<svg xmlns="http://www.w3.org/2000/svg" width="363" height="260">
<text x="181" y="18" text-anchor="middle" font-size="13" font-weight="bold" fill="#e0e0e0">최근 2주 요일별 활동</text>
<text x="24" y="46" text-anchor="end" font-size="12" fill="#cccccc">일</text><rect x="28" y="30" width="179" height="22" rx="3" fill="#30a14e"><title>일: 5888.6점</title></rect><text x="212" y="46" font-size="10" fill="#cccccc">5888.6</text><text x="24" y="74" text-anchor="end" font-size="12" fill="#cccccc">월</text><rect x="28" y="58" width="103" height="22" rx="3" fill="#40c463"><title>월: 3379.8점</title></rect><text x="136" y="74" font-size="10" fill="#cccccc">3379.8</text><text x="24" y="102" text-anchor="end" font-size="12" fill="#cccccc">화</text><rect x="28" y="86" width="53" height="22" rx="3" fill="#9be9a8"><title>화: 1760.6점</title></rect><text x="86" y="102" font-size="10" fill="#cccccc">1760.6</text><text x="24" y="130" text-anchor="end" font-size="12" fill="#cccccc">수</text><rect x="28" y="114" width="280" height="22" rx="3" fill="#216e39"><title>수: 9174.8점</title></rect><text x="313" y="130" font-size="10" fill="#cccccc">9174.8</text><text x="24" y="158" text-anchor="end" font-size="12" fill="#cccccc">목</text><rect x="28" y="142" width="149" height="22" rx="3" fill="#30a14e"><title>목: 4886.5점</title></rect><text x="182" y="158" font-size="10" fill="#cccccc">4886.5</text><text x="24" y="186" text-anchor="end" font-size="12" fill="#cccccc">금</text><rect x="28" y="170" width="158" height="22" rx="3" fill="#30a14e"><title>금: 5204.9점</title></rect><text x="191" y="186" font-size="10" fill="#cccccc">5204.9</text><text x="24" y="214" text-anchor="end" font-size="12" fill="#cccccc">토</text><rect x="28" y="198" width="276" height="22" rx="3" fill="#216e39"><title>토: 9057.7점</title></rect><text x="309" y="214" font-size="10" fill="#cccccc">9057.7</text>
<text x="28" y="254" font-size="9" fill="#999999">기준: 2026-06-23 10:04</text>
</svg>