<svg xmlns="http://www.w3.org/2000/svg" width="363" height="260">
<text x="181" y="18" text-anchor="middle" font-size="13" font-weight="bold" fill="#111111">최근 1주 요일별 활동</text>
<text x="24" y="46" text-anchor="end" font-size="12" fill="#333333">일</text><rect x="28" y="30" width="2" height="22" rx="3" fill="#9be9a8"><title>일: 11.0점</title></rect><text x="35" y="46" font-size="10" fill="#333333">11.0</text><text x="24" y="74" text-anchor="end" font-size="12" fill="#333333">월</text><rect x="28" y="58" width="47" height="22" rx="3" fill="#9be9a8"><title>월: 289.4점</title></rect><text x="80" y="74" font-size="10" fill="#333333">289.4</text><text x="24" y="102" text-anchor="end" font-size="12" fill="#333333">화</text><rect x="28" y="86" width="280" height="22" rx="3" fill="#216e39"><title>화: 1714.1점</title></rect><text x="313" y="102" font-size="10" fill="#333333">1714.1</text><text x="24" y="130" text-anchor="end" font-size="12" fill="#333333">수</text><rect x="28" y="114" width="200" height="22" rx="3" fill="#30a14e"><title>수: 1225.4점</title></rect><text x="233" y="130" font-size="10" fill="#333333">1225.4</text><text x="24" y="158" text-anchor="end" font-size="12" fill="#333333">목</text><rect x="28" y="142" width="143" height="22" rx="3" fill="#30a14e"><title>목: 880.0점</title></rect><text x="176" y="158" font-size="10" fill="#333333">880.0</text><text x="24" y="186" text-anchor="end" font-size="12" fill="#333333">금</text><rect x="28" y="170" width="98" height="22" rx="3" fill="#40c463"><title>금: 605.0점</title></rect><text x="131" y="186" font-size="10" fill="#333333">605.0</text><text x="24" y="214" text-anchor="end" font-size="12" fill="#333333">토</text><rect x="28" y="198" width="62" height="22" rx="3" fill="#9be9a8"><title>토: 385.0점</title></rect><text x="95" y="214" font-size="10" fill="#333333">385.0</text>
<text x="28" y="254" font-size="9" fill="#666666">기준: 2026-05-24 08:45</text>
</svg>