<svg xmlns="http://www.w3.org/2000/svg" width="363" height="260">
<text x="181" y="18" text-anchor="middle" font-size="13" font-weight="bold" fill="#111111">최근 1달 요일별 활동</text>
<text x="24" y="46" text-anchor="end" font-size="12" fill="#333333">일</text><rect x="28" y="30" width="273" height="22" rx="3" fill="#216e39"><title>일: 15986.1점</title></rect><text x="306" y="46" font-size="10" fill="#333333">15986.1</text><text x="24" y="74" text-anchor="end" font-size="12" fill="#333333">월</text><rect x="28" y="58" width="155" height="22" rx="3" fill="#30a14e"><title>월: 9074.5점</title></rect><text x="188" y="74" font-size="10" fill="#333333">9074.5</text><text x="24" y="102" text-anchor="end" font-size="12" fill="#333333">화</text><rect x="28" y="86" width="280" height="22" rx="3" fill="#216e39"><title>화: 16362.3점</title></rect><text x="313" y="102" font-size="10" fill="#333333">16362.3</text><text x="24" y="130" text-anchor="end" font-size="12" fill="#333333">수</text><rect x="28" y="114" width="232" height="22" rx="3" fill="#216e39"><title>수: 13589.1점</title></rect><text x="265" y="130" font-size="10" fill="#333333">13589.1</text><text x="24" y="158" text-anchor="end" font-size="12" fill="#333333">목</text><rect x="28" y="142" width="213" height="22" rx="3" fill="#216e39"><title>목: 12498.5점</title></rect><text x="246" y="158" font-size="10" fill="#333333">12498.5</text><text x="24" y="186" text-anchor="end" font-size="12" fill="#333333">금</text><rect x="28" y="170" width="199" height="22" rx="3" fill="#30a14e"><title>금: 11655.5점</title></rect><text x="232" y="186" font-size="10" fill="#333333">11655.5</text><text x="24" y="214" text-anchor="end" font-size="12" fill="#333333">토</text><rect x="28" y="198" width="253" height="22" rx="3" fill="#216e39"><title>토: 14792.5점</title></rect><text x="286" y="214" font-size="10" fill="#333333">14792.5</text>
<text x="28" y="254" font-size="9" fill="#666666">기준: 2026-06-11 10:59</text>
</svg>