<svg xmlns="http://www.w3.org/2000/svg" width="363" height="260">
<text x="181" y="18" text-anchor="middle" font-size="13" font-weight="bold" fill="#111111">최근 1주 요일별 활동</text>
<text x="24" y="46" text-anchor="end" font-size="12" fill="#333333">일</text><rect x="28" y="30" width="280" height="22" rx="3" fill="#216e39"><title>일: 3808.1점</title></rect><text x="313" y="46" font-size="10" fill="#333333">3808.1</text><text x="24" y="74" text-anchor="end" font-size="12" fill="#333333">월</text><rect x="28" y="58" width="269" height="22" rx="3" fill="#216e39"><title>월: 3669.2점</title></rect><text x="302" y="74" font-size="10" fill="#333333">3669.2</text><text x="24" y="102" text-anchor="end" font-size="12" fill="#333333">화</text><rect x="28" y="86" width="217" height="22" rx="3" fill="#216e39"><title>화: 2961.0점</title></rect><text x="250" y="102" font-size="10" fill="#333333">2961.0</text><text x="24" y="130" text-anchor="end" font-size="12" fill="#333333">수</text><rect x="28" y="114" width="117" height="22" rx="3" fill="#40c463"><title>수: 1596.8점</title></rect><text x="150" y="130" font-size="10" fill="#333333">1596.8</text><text x="24" y="158" text-anchor="end" font-size="12" fill="#333333">목</text><rect x="28" y="142" width="76" height="22" rx="3" fill="#40c463"><title>목: 1045.7점</title></rect><text x="109" y="158" font-size="10" fill="#333333">1045.7</text><text x="24" y="186" text-anchor="end" font-size="12" fill="#333333">금</text><rect x="28" y="170" width="41" height="22" rx="3" fill="#9be9a8"><title>금: 561.0점</title></rect><text x="74" y="186" font-size="10" fill="#333333">561.0</text><text x="24" y="214" text-anchor="end" font-size="12" fill="#333333">토</text><rect x="28" y="198" width="23" height="22" rx="3" fill="#9be9a8"><title>토: 324.0점</title></rect><text x="56" y="214" font-size="10" fill="#333333">324.0</text>
<text x="28" y="254" font-size="9" fill="#666666">기준: 2026-07-04 19:39</text>
</svg>