<svg xmlns="http://www.w3.org/2000/svg" width="363" height="260">
<text x="181" y="18" text-anchor="middle" font-size="13" font-weight="bold" fill="#111111">최근 1주 요일별 활동</text>
<text x="24" y="46" text-anchor="end" font-size="12" fill="#333333">일</text><rect x="28" y="30" width="2" height="22" rx="3" fill="#9be9a8"><title>일: 69.6점</title></rect><text x="35" y="46" font-size="10" fill="#333333">69.6</text><text x="24" y="74" text-anchor="end" font-size="12" fill="#333333">월</text><rect x="28" y="58" width="280" height="22" rx="3" fill="#216e39"><title>월: 9579.4점</title></rect><text x="313" y="74" font-size="10" fill="#333333">9579.4</text><text x="24" y="102" text-anchor="end" font-size="12" fill="#333333">화</text><rect x="28" y="86" width="279" height="22" rx="3" fill="#216e39"><title>화: 9553.4점</title></rect><text x="312" y="102" font-size="10" fill="#333333">9553.4</text><text x="24" y="130" text-anchor="end" font-size="12" fill="#333333">수</text><rect x="28" y="114" width="252" height="22" rx="3" fill="#216e39"><title>수: 8641.1점</title></rect><text x="285" y="130" font-size="10" fill="#333333">8641.1</text><text x="24" y="158" text-anchor="end" font-size="12" fill="#333333">목</text><rect x="28" y="142" width="76" height="22" rx="3" fill="#40c463"><title>목: 2609.3점</title></rect><text x="109" y="158" font-size="10" fill="#333333">2609.3</text><text x="24" y="186" text-anchor="end" font-size="12" fill="#333333">금</text><rect x="28" y="170" width="48" height="22" rx="3" fill="#9be9a8"><title>금: 1674.2점</title></rect><text x="81" y="186" font-size="10" fill="#333333">1674.2</text><text x="24" y="214" text-anchor="end" font-size="12" fill="#333333">토</text><rect x="28" y="198" width="14" height="22" rx="3" fill="#9be9a8"><title>토: 512.2점</title></rect><text x="47" y="214" font-size="10" fill="#333333">512.2</text>
<text x="28" y="254" font-size="9" fill="#666666">기준: 2026-06-28 14:18</text>
</svg>