<svg xmlns="http://www.w3.org/2000/svg" width="363" height="260">
<text x="181" y="18" text-anchor="middle" font-size="13" font-weight="bold" fill="#e0e0e0">최근 1달 요일별 활동</text>
<text x="24" y="46" text-anchor="end" font-size="12" fill="#cccccc">일</text><rect x="28" y="30" width="243" height="22" rx="3" fill="#216e39"><title>일: 23372.1점</title></rect><text x="276" y="46" font-size="10" fill="#cccccc">23372.1</text><text x="24" y="74" text-anchor="end" font-size="12" fill="#cccccc">월</text><rect x="28" y="58" width="153" height="22" rx="3" fill="#30a14e"><title>월: 14770.6점</title></rect><text x="186" y="74" font-size="10" fill="#cccccc">14770.6</text><text x="24" y="102" text-anchor="end" font-size="12" fill="#cccccc">화</text><rect x="28" y="86" width="210" height="22" rx="3" fill="#216e39"><title>화: 20214.7점</title></rect><text x="243" y="102" font-size="10" fill="#cccccc">20214.7</text><text x="24" y="130" text-anchor="end" font-size="12" fill="#cccccc">수</text><rect x="28" y="114" width="155" height="22" rx="3" fill="#30a14e"><title>수: 14888.3점</title></rect><text x="188" y="130" font-size="10" fill="#cccccc">14888.3</text><text x="24" y="158" text-anchor="end" font-size="12" fill="#cccccc">목</text><rect x="28" y="142" width="216" height="22" rx="3" fill="#216e39"><title>목: 20790.0점</title></rect><text x="249" y="158" font-size="10" fill="#cccccc">20790.0</text><text x="24" y="186" text-anchor="end" font-size="12" fill="#cccccc">금</text><rect x="28" y="170" width="203" height="22" rx="3" fill="#30a14e"><title>금: 19525.0점</title></rect><text x="236" y="186" font-size="10" fill="#cccccc">19525.0</text><text x="24" y="214" text-anchor="end" font-size="12" fill="#cccccc">토</text><rect x="28" y="198" width="280" height="22" rx="3" fill="#216e39"><title>토: 26891.2점</title></rect><text x="313" y="214" font-size="10" fill="#cccccc">26891.2</text>
<text x="28" y="254" font-size="9" fill="#999999">기준: 2026-06-19 05:27</text>
</svg>