<svg xmlns="http://www.w3.org/2000/svg" width="363" height="260">
<text x="181" y="18" text-anchor="middle" font-size="13" font-weight="bold" fill="#e0e0e0">최근 2주 요일별 활동</text>
<text x="24" y="46" text-anchor="end" font-size="12" fill="#cccccc">일</text><rect x="28" y="30" width="223" height="22" rx="3" fill="#216e39"><title>일: 3110.3점</title></rect><text x="256" y="46" font-size="10" fill="#cccccc">3110.3</text><text x="24" y="74" text-anchor="end" font-size="12" fill="#cccccc">월</text><rect x="28" y="58" width="101" height="22" rx="3" fill="#40c463"><title>월: 1408.9점</title></rect><text x="134" y="74" font-size="10" fill="#cccccc">1408.9</text><text x="24" y="102" text-anchor="end" font-size="12" fill="#cccccc">화</text><rect x="28" y="86" width="280" height="22" rx="3" fill="#216e39"><title>화: 3889.2점</title></rect><text x="313" y="102" font-size="10" fill="#cccccc">3889.2</text><text x="24" y="130" text-anchor="end" font-size="12" fill="#cccccc">수</text><rect x="28" y="114" width="212" height="22" rx="3" fill="#216e39"><title>수: 2952.2점</title></rect><text x="245" y="130" font-size="10" fill="#cccccc">2952.2</text><text x="24" y="158" text-anchor="end" font-size="12" fill="#cccccc">목</text><rect x="28" y="142" width="163" height="22" rx="3" fill="#30a14e"><title>목: 2266.0점</title></rect><text x="196" y="158" font-size="10" fill="#cccccc">2266.0</text><text x="24" y="186" text-anchor="end" font-size="12" fill="#cccccc">금</text><rect x="28" y="170" width="165" height="22" rx="3" fill="#30a14e"><title>금: 2305.5점</title></rect><text x="198" y="186" font-size="10" fill="#cccccc">2305.5</text><text x="24" y="214" text-anchor="end" font-size="12" fill="#cccccc">토</text><rect x="28" y="198" width="189" height="22" rx="3" fill="#30a14e"><title>토: 2626.5점</title></rect><text x="222" y="214" font-size="10" fill="#cccccc">2626.5</text>
<text x="28" y="254" font-size="9" fill="#999999">기준: 2026-05-28 20:39</text>
</svg>