<svg xmlns="http://www.w3.org/2000/svg" width="363" height="260">
<text x="181" y="18" text-anchor="middle" font-size="13" font-weight="bold" fill="#111111">최근 2주 요일별 활동</text>
<text x="24" y="46" text-anchor="end" font-size="12" fill="#333333">일</text><rect x="28" y="30" width="157" height="22" rx="3" fill="#30a14e"><title>일: 3608.0점</title></rect><text x="190" y="46" font-size="10" fill="#333333">3608.0</text><text x="24" y="74" text-anchor="end" font-size="12" fill="#333333">월</text><rect x="28" y="58" width="89" height="22" rx="3" fill="#40c463"><title>월: 2046.0점</title></rect><text x="122" y="74" font-size="10" fill="#333333">2046.0</text><text x="24" y="102" text-anchor="end" font-size="12" fill="#333333">화</text><rect x="28" y="86" width="280" height="22" rx="3" fill="#216e39"><title>화: 6418.0점</title></rect><text x="313" y="102" font-size="10" fill="#333333">6418.0</text><text x="24" y="130" text-anchor="end" font-size="12" fill="#333333">수</text><rect x="28" y="114" width="232" height="22" rx="3" fill="#216e39"><title>수: 5329.4점</title></rect><text x="265" y="130" font-size="10" fill="#333333">5329.4</text><text x="24" y="158" text-anchor="end" font-size="12" fill="#333333">목</text><rect x="28" y="142" width="199" height="22" rx="3" fill="#30a14e"><title>목: 4565.0점</title></rect><text x="232" y="158" font-size="10" fill="#333333">4565.0</text><text x="24" y="186" text-anchor="end" font-size="12" fill="#333333">금</text><rect x="28" y="170" width="175" height="22" rx="3" fill="#30a14e"><title>금: 4015.0점</title></rect><text x="208" y="186" font-size="10" fill="#333333">4015.0</text><text x="24" y="214" text-anchor="end" font-size="12" fill="#333333">토</text><rect x="28" y="198" width="204" height="22" rx="3" fill="#30a14e"><title>토: 4697.0점</title></rect><text x="237" y="214" font-size="10" fill="#333333">4697.0</text>
<text x="28" y="254" font-size="9" fill="#666666">기준: 2026-06-01 12:11</text>
</svg>