<svg xmlns="http://www.w3.org/2000/svg" width="363" height="260">
<text x="181" y="18" text-anchor="middle" font-size="13" font-weight="bold" fill="#111111">최근 2주 요일별 활동</text>
<text x="24" y="46" text-anchor="end" font-size="12" fill="#333333">일</text><rect x="28" y="30" width="277" height="22" rx="3" fill="#216e39"><title>일: 17480.5점</title></rect><text x="310" y="46" font-size="10" fill="#333333">17480.5</text><text x="24" y="74" text-anchor="end" font-size="12" fill="#333333">월</text><rect x="28" y="58" width="216" height="22" rx="3" fill="#216e39"><title>월: 13668.0점</title></rect><text x="249" y="74" font-size="10" fill="#333333">13668.0</text><text x="24" y="102" text-anchor="end" font-size="12" fill="#333333">화</text><rect x="28" y="86" width="213" height="22" rx="3" fill="#216e39"><title>화: 13494.6점</title></rect><text x="246" y="102" font-size="10" fill="#333333">13494.6</text><text x="24" y="130" text-anchor="end" font-size="12" fill="#333333">수</text><rect x="28" y="114" width="280" height="22" rx="3" fill="#216e39"><title>수: 17662.2점</title></rect><text x="313" y="130" font-size="10" fill="#333333">17662.2</text><text x="24" y="158" text-anchor="end" font-size="12" fill="#333333">목</text><rect x="28" y="142" width="138" height="22" rx="3" fill="#40c463"><title>목: 8735.1점</title></rect><text x="171" y="158" font-size="10" fill="#333333">8735.1</text><text x="24" y="186" text-anchor="end" font-size="12" fill="#333333">금</text><rect x="28" y="170" width="151" height="22" rx="3" fill="#30a14e"><title>금: 9573.4점</title></rect><text x="184" y="186" font-size="10" fill="#333333">9573.4</text><text x="24" y="214" text-anchor="end" font-size="12" fill="#333333">토</text><rect x="28" y="198" width="199" height="22" rx="3" fill="#30a14e"><title>토: 12602.1점</title></rect><text x="232" y="214" font-size="10" fill="#333333">12602.1</text>
<text x="28" y="254" font-size="9" fill="#666666">기준: 2026-06-30 17:17</text>
</svg>