<svg xmlns="http://www.w3.org/2000/svg" width="363" height="260">
<text x="181" y="18" text-anchor="middle" font-size="13" font-weight="bold" fill="#111111">최근 1달 요일별 활동</text>
<text x="24" y="46" text-anchor="end" font-size="12" fill="#333333">일</text><rect x="28" y="30" width="263" height="22" rx="3" fill="#216e39"><title>일: 6446.0점</title></rect><text x="296" y="46" font-size="10" fill="#333333">6446.0</text><text x="24" y="74" text-anchor="end" font-size="12" fill="#333333">월</text><rect x="28" y="58" width="144" height="22" rx="3" fill="#30a14e"><title>월: 3542.5점</title></rect><text x="177" y="74" font-size="10" fill="#333333">3542.5</text><text x="24" y="102" text-anchor="end" font-size="12" fill="#333333">화</text><rect x="28" y="86" width="254" height="22" rx="3" fill="#216e39"><title>화: 6236.5점</title></rect><text x="287" y="102" font-size="10" fill="#333333">6236.5</text><text x="24" y="130" text-anchor="end" font-size="12" fill="#333333">수</text><rect x="28" y="114" width="252" height="22" rx="3" fill="#216e39"><title>수: 6184.1점</title></rect><text x="285" y="130" font-size="10" fill="#333333">6184.1</text><text x="24" y="158" text-anchor="end" font-size="12" fill="#333333">목</text><rect x="28" y="142" width="280" height="22" rx="3" fill="#216e39"><title>목: 6851.7점</title></rect><text x="313" y="158" font-size="10" fill="#333333">6851.7</text><text x="24" y="186" text-anchor="end" font-size="12" fill="#333333">금</text><rect x="28" y="170" width="276" height="22" rx="3" fill="#216e39"><title>금: 6757.6점</title></rect><text x="309" y="186" font-size="10" fill="#333333">6757.6</text><text x="24" y="214" text-anchor="end" font-size="12" fill="#333333">토</text><rect x="28" y="198" width="116" height="22" rx="3" fill="#40c463"><title>토: 2857.6점</title></rect><text x="149" y="214" font-size="10" fill="#333333">2857.6</text>
<text x="28" y="254" font-size="9" fill="#666666">기준: 2026-05-21 15:53</text>
</svg>