<svg xmlns="http://www.w3.org/2000/svg" width="363" height="260">
<text x="181" y="18" text-anchor="middle" font-size="13" font-weight="bold" fill="#e0e0e0">최근 2주 요일별 활동</text>
<text x="24" y="46" text-anchor="end" font-size="12" fill="#cccccc">일</text><rect x="28" y="30" width="240" height="22" rx="3" fill="#216e39"><title>일: 12142.4점</title></rect><text x="273" y="46" font-size="10" fill="#cccccc">12142.4</text><text x="24" y="74" text-anchor="end" font-size="12" fill="#cccccc">월</text><rect x="28" y="58" width="175" height="22" rx="3" fill="#30a14e"><title>월: 8853.7점</title></rect><text x="208" y="74" font-size="10" fill="#cccccc">8853.7</text><text x="24" y="102" text-anchor="end" font-size="12" fill="#cccccc">화</text><rect x="28" y="86" width="147" height="22" rx="3" fill="#30a14e"><title>화: 7433.1점</title></rect><text x="180" y="102" font-size="10" fill="#cccccc">7433.1</text><text x="24" y="130" text-anchor="end" font-size="12" fill="#cccccc">수</text><rect x="28" y="114" width="134" height="22" rx="3" fill="#40c463"><title>수: 6783.3점</title></rect><text x="167" y="130" font-size="10" fill="#cccccc">6783.3</text><text x="24" y="158" text-anchor="end" font-size="12" fill="#cccccc">목</text><rect x="28" y="142" width="65" height="22" rx="3" fill="#9be9a8"><title>목: 3334.4점</title></rect><text x="98" y="158" font-size="10" fill="#cccccc">3334.4</text><text x="24" y="186" text-anchor="end" font-size="12" fill="#cccccc">금</text><rect x="28" y="170" width="71" height="22" rx="3" fill="#40c463"><title>금: 3638.4점</title></rect><text x="104" y="186" font-size="10" fill="#cccccc">3638.4</text><text x="24" y="214" text-anchor="end" font-size="12" fill="#cccccc">토</text><rect x="28" y="198" width="280" height="22" rx="3" fill="#216e39"><title>토: 14158.2점</title></rect><text x="313" y="214" font-size="10" fill="#cccccc">14158.2</text>
<text x="28" y="254" font-size="9" fill="#999999">기준: 2026-06-26 09:53</text>
</svg>