<svg xmlns="http://www.w3.org/2000/svg" width="363" height="260">
<text x="181" y="18" text-anchor="middle" font-size="13" font-weight="bold" fill="#111111">최근 1주 요일별 활동</text>
<text x="24" y="46" text-anchor="end" font-size="12" fill="#333333">일</text><rect x="28" y="30" width="4" height="22" rx="3" fill="#9be9a8"><title>일: 66.0점</title></rect><text x="37" y="46" font-size="10" fill="#333333">66.0</text><text x="24" y="74" text-anchor="end" font-size="12" fill="#333333">월</text><rect x="28" y="58" width="280" height="22" rx="3" fill="#216e39"><title>월: 4231.8점</title></rect><text x="313" y="74" font-size="10" fill="#333333">4231.8</text><text x="24" y="102" text-anchor="end" font-size="12" fill="#333333">화</text><rect x="28" y="86" width="231" height="22" rx="3" fill="#216e39"><title>화: 3506.0점</title></rect><text x="264" y="102" font-size="10" fill="#333333">3506.0</text><text x="24" y="130" text-anchor="end" font-size="12" fill="#333333">수</text><rect x="28" y="114" width="130" height="22" rx="3" fill="#40c463"><title>수: 1979.8점</title></rect><text x="163" y="130" font-size="10" fill="#333333">1979.8</text><text x="24" y="158" text-anchor="end" font-size="12" fill="#333333">목</text><rect x="28" y="142" width="92" height="22" rx="3" fill="#40c463"><title>목: 1401.8점</title></rect><text x="125" y="158" font-size="10" fill="#333333">1401.8</text><text x="24" y="186" text-anchor="end" font-size="12" fill="#333333">금</text><rect x="28" y="170" width="58" height="22" rx="3" fill="#9be9a8"><title>금: 891.0점</title></rect><text x="91" y="186" font-size="10" fill="#333333">891.0</text><text x="24" y="214" text-anchor="end" font-size="12" fill="#333333">토</text><rect x="28" y="198" width="61" height="22" rx="3" fill="#9be9a8"><title>토: 936.5점</title></rect><text x="94" y="214" font-size="10" fill="#333333">936.5</text>
<text x="28" y="254" font-size="9" fill="#666666">기준: 2026-07-05 16:28</text>
</svg>