<svg xmlns="http://www.w3.org/2000/svg" width="363" height="260">
<text x="181" y="18" text-anchor="middle" font-size="13" font-weight="bold" fill="#e0e0e0">최근 1주 요일별 활동</text>
<text x="24" y="46" text-anchor="end" font-size="12" fill="#cccccc">일</text><rect x="28" y="30" width="51" height="22" rx="3" fill="#9be9a8"><title>일: 290.8점</title></rect><text x="84" y="46" font-size="10" fill="#cccccc">290.8</text><text x="24" y="74" text-anchor="end" font-size="12" fill="#cccccc">월</text><rect x="28" y="58" width="280" height="22" rx="3" fill="#216e39"><title>월: 1592.2점</title></rect><text x="313" y="74" font-size="10" fill="#cccccc">1592.2</text><text x="24" y="102" text-anchor="end" font-size="12" fill="#cccccc">화</text><rect x="28" y="86" width="199" height="22" rx="3" fill="#30a14e"><title>화: 1137.1점</title></rect><text x="232" y="102" font-size="10" fill="#cccccc">1137.1</text><text x="24" y="130" text-anchor="end" font-size="12" fill="#cccccc">수</text><rect x="28" y="114" width="221" height="22" rx="3" fill="#216e39"><title>수: 1261.5점</title></rect><text x="254" y="130" font-size="10" fill="#cccccc">1261.5</text><text x="24" y="158" text-anchor="end" font-size="12" fill="#cccccc">목</text><rect x="28" y="142" width="171" height="22" rx="3" fill="#30a14e"><title>목: 972.5점</title></rect><text x="204" y="158" font-size="10" fill="#cccccc">972.5</text><text x="24" y="186" text-anchor="end" font-size="12" fill="#cccccc">금</text><rect x="28" y="170" width="182" height="22" rx="3" fill="#30a14e"><title>금: 1038.3점</title></rect><text x="215" y="186" font-size="10" fill="#cccccc">1038.3</text><text x="24" y="214" text-anchor="end" font-size="12" fill="#cccccc">토</text><rect x="28" y="198" width="194" height="22" rx="3" fill="#30a14e"><title>토: 1108.0점</title></rect><text x="227" y="214" font-size="10" fill="#cccccc">1108.0</text>
<text x="28" y="254" font-size="9" fill="#999999">기준: 2026-06-21 14:34</text>
</svg>