<svg xmlns="http://www.w3.org/2000/svg" width="363" height="260">
<text x="181" y="18" text-anchor="middle" font-size="13" font-weight="bold" fill="#e0e0e0">최근 1달 요일별 활동</text>
<text x="24" y="46" text-anchor="end" font-size="12" fill="#cccccc">일</text><rect x="28" y="30" width="259" height="22" rx="3" fill="#216e39"><title>일: 8856.1점</title></rect><text x="292" y="46" font-size="10" fill="#cccccc">8856.1</text><text x="24" y="74" text-anchor="end" font-size="12" fill="#cccccc">월</text><rect x="28" y="58" width="147" height="22" rx="3" fill="#30a14e"><title>월: 5049.5점</title></rect><text x="180" y="74" font-size="10" fill="#cccccc">5049.5</text><text x="24" y="102" text-anchor="end" font-size="12" fill="#cccccc">화</text><rect x="28" y="86" width="280" height="22" rx="3" fill="#216e39"><title>화: 9564.3점</title></rect><text x="313" y="102" font-size="10" fill="#cccccc">9564.3</text><text x="24" y="130" text-anchor="end" font-size="12" fill="#cccccc">수</text><rect x="28" y="114" width="218" height="22" rx="3" fill="#216e39"><title>수: 7469.8점</title></rect><text x="251" y="130" font-size="10" fill="#cccccc">7469.8</text><text x="24" y="158" text-anchor="end" font-size="12" fill="#cccccc">목</text><rect x="28" y="142" width="198" height="22" rx="3" fill="#30a14e"><title>목: 6792.2점</title></rect><text x="231" y="158" font-size="10" fill="#cccccc">6792.2</text><text x="24" y="186" text-anchor="end" font-size="12" fill="#cccccc">금</text><rect x="28" y="170" width="171" height="22" rx="3" fill="#30a14e"><title>금: 5844.0점</title></rect><text x="204" y="186" font-size="10" fill="#cccccc">5844.0</text><text x="24" y="214" text-anchor="end" font-size="12" fill="#cccccc">토</text><rect x="28" y="198" width="150" height="22" rx="3" fill="#30a14e"><title>토: 5124.6점</title></rect><text x="183" y="214" font-size="10" fill="#cccccc">5124.6</text>
<text x="28" y="254" font-size="9" fill="#999999">기준: 2026-05-31 04:54</text>
</svg>