<svg xmlns="http://www.w3.org/2000/svg" width="363" height="260">
<text x="181" y="18" text-anchor="middle" font-size="13" font-weight="bold" fill="#111111">최근 1달 요일별 활동</text>
<text x="24" y="46" text-anchor="end" font-size="12" fill="#333333">일</text><rect x="28" y="30" width="267" height="22" rx="3" fill="#216e39"><title>일: 17304.7점</title></rect><text x="300" y="46" font-size="10" fill="#333333">17304.7</text><text x="24" y="74" text-anchor="end" font-size="12" fill="#333333">월</text><rect x="28" y="58" width="152" height="22" rx="3" fill="#30a14e"><title>월: 9904.8점</title></rect><text x="185" y="74" font-size="10" fill="#333333">9904.8</text><text x="24" y="102" text-anchor="end" font-size="12" fill="#333333">화</text><rect x="28" y="86" width="280" height="22" rx="3" fill="#216e39"><title>화: 18128.3점</title></rect><text x="313" y="102" font-size="10" fill="#333333">18128.3</text><text x="24" y="130" text-anchor="end" font-size="12" fill="#333333">수</text><rect x="28" y="114" width="225" height="22" rx="3" fill="#216e39"><title>수: 14587.6점</title></rect><text x="258" y="130" font-size="10" fill="#333333">14587.6</text><text x="24" y="158" text-anchor="end" font-size="12" fill="#333333">목</text><rect x="28" y="142" width="209" height="22" rx="3" fill="#30a14e"><title>목: 13532.5점</title></rect><text x="242" y="158" font-size="10" fill="#333333">13532.5</text><text x="24" y="186" text-anchor="end" font-size="12" fill="#333333">금</text><rect x="28" y="170" width="192" height="22" rx="3" fill="#30a14e"><title>금: 12491.5점</title></rect><text x="225" y="186" font-size="10" fill="#333333">12491.5</text><text x="24" y="214" text-anchor="end" font-size="12" fill="#333333">토</text><rect x="28" y="198" width="246" height="22" rx="3" fill="#216e39"><title>토: 15947.5점</title></rect><text x="279" y="214" font-size="10" fill="#333333">15947.5</text>
<text x="28" y="254" font-size="9" fill="#666666">기준: 2026-06-12 10:41</text>
</svg>