<svg xmlns="http://www.w3.org/2000/svg" width="363" height="260">
<text x="181" y="18" text-anchor="middle" font-size="13" font-weight="bold" fill="#111111">최근 2주 요일별 활동</text>
<text x="24" y="46" text-anchor="end" font-size="12" fill="#333333">일</text><rect x="28" y="30" width="73" height="22" rx="3" fill="#40c463"><title>일: 3567.3점</title></rect><text x="106" y="46" font-size="10" fill="#333333">3567.3</text><text x="24" y="74" text-anchor="end" font-size="12" fill="#333333">월</text><rect x="28" y="58" width="280" height="22" rx="3" fill="#216e39"><title>월: 13561.6점</title></rect><text x="313" y="74" font-size="10" fill="#333333">13561.6</text><text x="24" y="102" text-anchor="end" font-size="12" fill="#333333">화</text><rect x="28" y="86" width="270" height="22" rx="3" fill="#216e39"><title>화: 13089.8점</title></rect><text x="303" y="102" font-size="10" fill="#333333">13089.8</text><text x="24" y="130" text-anchor="end" font-size="12" fill="#333333">수</text><rect x="28" y="114" width="207" height="22" rx="3" fill="#30a14e"><title>수: 10061.9점</title></rect><text x="240" y="130" font-size="10" fill="#333333">10061.9</text><text x="24" y="158" text-anchor="end" font-size="12" fill="#333333">목</text><rect x="28" y="142" width="139" height="22" rx="3" fill="#40c463"><title>목: 6754.6점</title></rect><text x="172" y="158" font-size="10" fill="#333333">6754.6</text><text x="24" y="186" text-anchor="end" font-size="12" fill="#333333">금</text><rect x="28" y="170" width="128" height="22" rx="3" fill="#40c463"><title>금: 6204.0점</title></rect><text x="161" y="186" font-size="10" fill="#333333">6204.0</text><text x="24" y="214" text-anchor="end" font-size="12" fill="#333333">토</text><rect x="28" y="198" width="138" height="22" rx="3" fill="#40c463"><title>토: 6691.1점</title></rect><text x="171" y="214" font-size="10" fill="#333333">6691.1</text>
<text x="28" y="254" font-size="9" fill="#666666">기준: 2026-07-12 13:58</text>
</svg>