<svg xmlns="http://www.w3.org/2000/svg" width="363" height="260">
<text x="181" y="18" text-anchor="middle" font-size="13" font-weight="bold" fill="#111111">최근 2주 요일별 활동</text>
<text x="24" y="46" text-anchor="end" font-size="12" fill="#333333">일</text><rect x="28" y="30" width="68" height="22" rx="3" fill="#9be9a8"><title>일: 3222.8점</title></rect><text x="101" y="46" font-size="10" fill="#333333">3222.8</text><text x="24" y="74" text-anchor="end" font-size="12" fill="#333333">월</text><rect x="28" y="58" width="116" height="22" rx="3" fill="#40c463"><title>월: 5458.9점</title></rect><text x="149" y="74" font-size="10" fill="#333333">5458.9</text><text x="24" y="102" text-anchor="end" font-size="12" fill="#333333">화</text><rect x="28" y="86" width="280" height="22" rx="3" fill="#216e39"><title>화: 13156.8점</title></rect><text x="313" y="102" font-size="10" fill="#333333">13156.8</text><text x="24" y="130" text-anchor="end" font-size="12" fill="#333333">수</text><rect x="28" y="114" width="164" height="22" rx="3" fill="#30a14e"><title>수: 7751.2점</title></rect><text x="197" y="130" font-size="10" fill="#333333">7751.2</text><text x="24" y="158" text-anchor="end" font-size="12" fill="#333333">목</text><rect x="28" y="142" width="85" height="22" rx="3" fill="#40c463"><title>목: 4024.0점</title></rect><text x="118" y="158" font-size="10" fill="#333333">4024.0</text><text x="24" y="186" text-anchor="end" font-size="12" fill="#333333">금</text><rect x="28" y="170" width="85" height="22" rx="3" fill="#40c463"><title>금: 4005.8점</title></rect><text x="118" y="186" font-size="10" fill="#333333">4005.8</text><text x="24" y="214" text-anchor="end" font-size="12" fill="#333333">토</text><rect x="28" y="198" width="145" height="22" rx="3" fill="#30a14e"><title>토: 6826.3점</title></rect><text x="178" y="214" font-size="10" fill="#333333">6826.3</text>
<text x="28" y="254" font-size="9" fill="#666666">기준: 2026-06-21 20:05</text>
</svg>