<svg xmlns="http://www.w3.org/2000/svg" width="363" height="260">
<text x="181" y="18" text-anchor="middle" font-size="13" font-weight="bold" fill="#111111">최근 1주 요일별 활동</text>
<text x="24" y="46" text-anchor="end" font-size="12" fill="#333333">일</text><rect x="28" y="30" width="21" height="22" rx="3" fill="#9be9a8"><title>일: 904.7점</title></rect><text x="54" y="46" font-size="10" fill="#333333">904.7</text><text x="24" y="74" text-anchor="end" font-size="12" fill="#333333">월</text><rect x="28" y="58" width="9" height="22" rx="3" fill="#9be9a8"><title>월: 406.1점</title></rect><text x="42" y="74" font-size="10" fill="#333333">406.1</text><text x="24" y="102" text-anchor="end" font-size="12" fill="#333333">화</text><rect x="28" y="86" width="2" height="22" rx="3" fill="#ebedf0"><title>화: 0.0점</title></rect><text x="35" y="102" font-size="10" fill="#333333">0.0</text><text x="24" y="130" text-anchor="end" font-size="12" fill="#333333">수</text><rect x="28" y="114" width="280" height="22" rx="3" fill="#216e39"><title>수: 11774.9점</title></rect><text x="313" y="130" font-size="10" fill="#333333">11774.9</text><text x="24" y="158" text-anchor="end" font-size="12" fill="#333333">목</text><rect x="28" y="142" width="91" height="22" rx="3" fill="#40c463"><title>목: 3864.8점</title></rect><text x="124" y="158" font-size="10" fill="#333333">3864.8</text><text x="24" y="186" text-anchor="end" font-size="12" fill="#333333">금</text><rect x="28" y="170" width="68" height="22" rx="3" fill="#9be9a8"><title>금: 2890.1점</title></rect><text x="101" y="186" font-size="10" fill="#333333">2890.1</text><text x="24" y="214" text-anchor="end" font-size="12" fill="#333333">토</text><rect x="28" y="198" width="29" height="22" rx="3" fill="#9be9a8"><title>토: 1255.4점</title></rect><text x="62" y="214" font-size="10" fill="#333333">1255.4</text>
<text x="28" y="254" font-size="9" fill="#666666">기준: 2026-06-30 04:36</text>
</svg>