<svg xmlns="http://www.w3.org/2000/svg" width="363" height="260">
<text x="181" y="18" text-anchor="middle" font-size="13" font-weight="bold" fill="#111111">최근 1달 요일별 활동</text>
<text x="24" y="46" text-anchor="end" font-size="12" fill="#333333">일</text><rect x="28" y="30" width="257" height="22" rx="3" fill="#216e39"><title>일: 57323.7점</title></rect><text x="290" y="46" font-size="10" fill="#333333">57323.7</text><text x="24" y="74" text-anchor="end" font-size="12" fill="#333333">월</text><rect x="28" y="58" width="197" height="22" rx="3" fill="#30a14e"><title>월: 43868.7점</title></rect><text x="230" y="74" font-size="10" fill="#333333">43868.7</text><text x="24" y="102" text-anchor="end" font-size="12" fill="#333333">화</text><rect x="28" y="86" width="280" height="22" rx="3" fill="#216e39"><title>화: 62346.4점</title></rect><text x="313" y="102" font-size="10" fill="#333333">62346.4</text><text x="24" y="130" text-anchor="end" font-size="12" fill="#333333">수</text><rect x="28" y="114" width="239" height="22" rx="3" fill="#216e39"><title>수: 53382.5점</title></rect><text x="272" y="130" font-size="10" fill="#333333">53382.5</text><text x="24" y="158" text-anchor="end" font-size="12" fill="#333333">목</text><rect x="28" y="142" width="116" height="22" rx="3" fill="#40c463"><title>목: 25894.9점</title></rect><text x="149" y="158" font-size="10" fill="#333333">25894.9</text><text x="24" y="186" text-anchor="end" font-size="12" fill="#333333">금</text><rect x="28" y="170" width="127" height="22" rx="3" fill="#40c463"><title>금: 28318.7점</title></rect><text x="160" y="186" font-size="10" fill="#333333">28318.7</text><text x="24" y="214" text-anchor="end" font-size="12" fill="#333333">토</text><rect x="28" y="198" width="181" height="22" rx="3" fill="#30a14e"><title>토: 40484.7점</title></rect><text x="214" y="214" font-size="10" fill="#333333">40484.7</text>
<text x="28" y="254" font-size="9" fill="#666666">기준: 2026-07-06 20:15</text>
</svg>