<svg xmlns="http://www.w3.org/2000/svg" width="363" height="260">
<text x="181" y="18" text-anchor="middle" font-size="13" font-weight="bold" fill="#e0e0e0">최근 1주 요일별 활동</text>
<text x="24" y="46" text-anchor="end" font-size="12" fill="#cccccc">일</text><rect x="28" y="30" width="217" height="22" rx="3" fill="#216e39"><title>일: 2882.2점</title></rect><text x="250" y="46" font-size="10" fill="#cccccc">2882.2</text><text x="24" y="74" text-anchor="end" font-size="12" fill="#cccccc">월</text><rect x="28" y="58" width="99" height="22" rx="3" fill="#40c463"><title>월: 1320.0점</title></rect><text x="132" y="74" font-size="10" fill="#cccccc">1320.0</text><text x="24" y="102" text-anchor="end" font-size="12" fill="#cccccc">화</text><rect x="28" y="86" width="280" height="22" rx="3" fill="#216e39"><title>화: 3707.3점</title></rect><text x="313" y="102" font-size="10" fill="#cccccc">3707.3</text><text x="24" y="130" text-anchor="end" font-size="12" fill="#cccccc">수</text><rect x="28" y="114" width="113" height="22" rx="3" fill="#40c463"><title>수: 1506.8점</title></rect><text x="146" y="130" font-size="10" fill="#cccccc">1506.8</text><text x="24" y="158" text-anchor="end" font-size="12" fill="#cccccc">목</text><rect x="28" y="142" width="37" height="22" rx="3" fill="#9be9a8"><title>목: 495.0점</title></rect><text x="70" y="158" font-size="10" fill="#cccccc">495.0</text><text x="24" y="186" text-anchor="end" font-size="12" fill="#cccccc">금</text><rect x="28" y="170" width="16" height="22" rx="3" fill="#9be9a8"><title>금: 220.0점</title></rect><text x="49" y="186" font-size="10" fill="#cccccc">220.0</text><text x="24" y="214" text-anchor="end" font-size="12" fill="#cccccc">토</text><rect x="28" y="198" width="2" height="22" rx="3" fill="#9be9a8"><title>토: 31.9점</title></rect><text x="35" y="214" font-size="10" fill="#cccccc">31.9</text>
<text x="28" y="254" font-size="9" fill="#999999">기준: 2026-06-13 09:38</text>
</svg>