<svg xmlns="http://www.w3.org/2000/svg" width="363" height="260">
<text x="181" y="18" text-anchor="middle" font-size="13" font-weight="bold" fill="#111111">최근 2주 요일별 활동</text>
<text x="24" y="46" text-anchor="end" font-size="12" fill="#333333">일</text><rect x="28" y="30" width="227" height="22" rx="3" fill="#216e39"><title>일: 10188.1점</title></rect><text x="260" y="46" font-size="10" fill="#333333">10188.1</text><text x="24" y="74" text-anchor="end" font-size="12" fill="#333333">월</text><rect x="28" y="58" width="159" height="22" rx="3" fill="#30a14e"><title>월: 7143.1점</title></rect><text x="192" y="74" font-size="10" fill="#333333">7143.1</text><text x="24" y="102" text-anchor="end" font-size="12" fill="#333333">화</text><rect x="28" y="86" width="125" height="22" rx="3" fill="#40c463"><title>화: 5626.8점</title></rect><text x="158" y="102" font-size="10" fill="#333333">5626.8</text><text x="24" y="130" text-anchor="end" font-size="12" fill="#333333">수</text><rect x="28" y="114" width="104" height="22" rx="3" fill="#40c463"><title>수: 4691.2점</title></rect><text x="137" y="130" font-size="10" fill="#333333">4691.2</text><text x="24" y="158" text-anchor="end" font-size="12" fill="#333333">목</text><rect x="28" y="142" width="53" height="22" rx="3" fill="#9be9a8"><title>목: 2382.2점</title></rect><text x="86" y="158" font-size="10" fill="#333333">2382.2</text><text x="24" y="186" text-anchor="end" font-size="12" fill="#333333">금</text><rect x="28" y="170" width="157" height="22" rx="3" fill="#30a14e"><title>금: 7089.2점</title></rect><text x="190" y="186" font-size="10" fill="#333333">7089.2</text><text x="24" y="214" text-anchor="end" font-size="12" fill="#333333">토</text><rect x="28" y="198" width="280" height="22" rx="3" fill="#216e39"><title>토: 12564.3점</title></rect><text x="313" y="214" font-size="10" fill="#333333">12564.3</text>
<text x="28" y="254" font-size="9" fill="#666666">기준: 2026-06-25 09:45</text>
</svg>