<svg xmlns="http://www.w3.org/2000/svg" width="363" height="260">
<text x="181" y="18" text-anchor="middle" font-size="13" font-weight="bold" fill="#111111">최근 2주 요일별 활동</text>
<text x="24" y="46" text-anchor="end" font-size="12" fill="#333333">일</text><rect x="28" y="30" width="202" height="22" rx="3" fill="#30a14e"><title>일: 8667.1점</title></rect><text x="235" y="46" font-size="10" fill="#333333">8667.1</text><text x="24" y="74" text-anchor="end" font-size="12" fill="#333333">월</text><rect x="28" y="58" width="113" height="22" rx="3" fill="#40c463"><title>월: 4867.0점</title></rect><text x="146" y="74" font-size="10" fill="#333333">4867.0</text><text x="24" y="102" text-anchor="end" font-size="12" fill="#333333">화</text><rect x="28" y="86" width="280" height="22" rx="3" fill="#216e39"><title>화: 11991.9점</title></rect><text x="313" y="102" font-size="10" fill="#333333">11991.9</text><text x="24" y="130" text-anchor="end" font-size="12" fill="#333333">수</text><rect x="28" y="114" width="157" height="22" rx="3" fill="#30a14e"><title>수: 6734.4점</title></rect><text x="190" y="130" font-size="10" fill="#333333">6734.4</text><text x="24" y="158" text-anchor="end" font-size="12" fill="#333333">목</text><rect x="28" y="142" width="79" height="22" rx="3" fill="#40c463"><title>목: 3407.9점</title></rect><text x="112" y="158" font-size="10" fill="#333333">3407.9</text><text x="24" y="186" text-anchor="end" font-size="12" fill="#333333">금</text><rect x="28" y="170" width="73" height="22" rx="3" fill="#40c463"><title>금: 3149.3점</title></rect><text x="106" y="186" font-size="10" fill="#333333">3149.3</text><text x="24" y="214" text-anchor="end" font-size="12" fill="#333333">토</text><rect x="28" y="198" width="122" height="22" rx="3" fill="#40c463"><title>토: 5254.4점</title></rect><text x="155" y="214" font-size="10" fill="#333333">5254.4</text>
<text x="28" y="254" font-size="9" fill="#666666">기준: 2026-06-20 22:36</text>
</svg>