<svg xmlns="http://www.w3.org/2000/svg" width="439" height="181">
<text x="24" y="16" font-size="9" fill="#cccccc">1</text><text x="99" y="16" font-size="9" fill="#cccccc">2</text><text x="159" y="16" font-size="9" fill="#cccccc">3</text><text x="219" y="16" font-size="9" fill="#cccccc">4</text><text x="279" y="16" font-size="9" fill="#cccccc">5</text><text x="354" y="16" font-size="9" fill="#cccccc">6</text><text x="414" y="16" font-size="9" fill="#cccccc">7</text><text x="20" y="48" text-anchor="end" font-size="9" fill="#cccccc">월</text><text x="20" y="78" text-anchor="end" font-size="9" fill="#cccccc">수</text><text x="20" y="108" text-anchor="end" font-size="9" fill="#cccccc">금</text><rect x="24" y="22" width="13" height="13" rx="2" fill="#ebedf0"><title>2025-12-28 (0)</title></rect><rect x="24" y="37" width="13" height="13" rx="2" fill="#ebedf0"><title>2025-12-29 (0)</title></rect><rect x="24" y="52" width="13" height="13" rx="2" fill="#ebedf0"><title>2025-12-30 (0)</title></rect><rect x="24" y="67" width="13" height="13" rx="2" fill="#ebedf0"><title>2025-12-31 (0)</title></rect><rect x="24" y="82" width="13" height="13" rx="2" fill="#ebedf0"><title>2026-01-01 (0)</title></rect><rect x="24" y="97" width="13" height="13" rx="2" fill="#ebedf0"><title>2026-01-02 (0)</title></rect><rect x="24" y="112" width="13" height="13" rx="2" fill="#ebedf0"><title>2026-01-03 (0)</title></rect><rect x="39" y="22" width="13" height="13" rx="2" fill="#ebedf0"><title>2026-01-04 (0)</title></rect><rect x="39" y="37" width="13" height="13" rx="2" fill="#ebedf0"><title>2026-01-05 (0)</title></rect><rect x="39" y="52" width="13" height="13" rx="2" fill="#ebedf0"><title>2026-01-06 (0)</title></rect><rect x="39" y="67" width="13" height="13" rx="2" fill="#ebedf0"><title>2026-01-07 (0)</title></rect><rect x="39" y="82" width="13" height="13" rx="2" fill="#ebedf0"><title>2026-01-08 (0)</title></rect><rect x="39" y="97" width="13" height="13" rx="2" fill="#ebedf0"><title>2026-01-09 (0)</title></rect><rect x="39" y="112" width="13" height="13" rx="2" fill="#ebedf0"><title>2026-01-10 (0)</title></rect><rect x="54" y="22" width="13" height="13" rx="2" fill="#ebedf0"><title>2026-01-11 (0)</title></rect><rect x="54" y="37" width="13" height="13" rx="2" fill="#ebedf0"><title>2026-01-12 (0)</title></rect><rect x="54" y="52" width="13" height="13" rx="2" fill="#ebedf0"><title>2026-01-13 (0)</title></rect><rect x="54" y="67" width="13" height="13" rx="2" fill="#ebedf0"><title>2026-01-14 (0)</title></rect><rect x="54" y="82" width="13" height="13" rx="2" fill="#ebedf0"><title>2026-01-15 (0)</title></rect><rect x="54" y="97" width="13" height="13" rx="2" fill="#ebedf0"><title>2026-01-16 (0)</title></rect><rect x="54" y="112" width="13" height="13" rx="2" fill="#ebedf0"><title>2026-01-17 (0)</title></rect><rect x="69" y="22" width="13" height="13" rx="2" fill="#9be9a8"><title>2026-01-18 (2717.0)</title></rect><rect x="69" y="37" width="13" height="13" rx="2" fill="#ebedf0"><title>2026-01-19 (0)</title></rect><rect x="69" y="52" width="13" height="13" rx="2" fill="#ebedf0"><title>2026-01-20 (0)</title></rect><rect x="69" y="67" width="13" height="13" rx="2" fill="#9be9a8"><title>2026-01-21 (5434.0)</title></rect><rect x="69" y="82" width="13" height="13" rx="2" fill="#ebedf0"><title>2026-01-22 (0)</title></rect><rect x="69" y="97" width="13" height="13" rx="2" fill="#9be9a8"><title>2026-01-23 (4347.2)</title></rect><rect x="69" y="112" width="13" height="13" rx="2" fill="#40c463"><title>2026-01-24 (8151.0)</title></rect><rect x="84" y="22" width="13" height="13" rx="2" fill="#9be9a8"><title>2026-01-25 (5434.0)</title></rect><rect x="84" y="37" width="13" height="13" rx="2" fill="#9be9a8"><title>2026-01-26 (2717.0)</title></rect><rect x="84" y="52" width="13" height="13" rx="2" fill="#40c463"><title>2026-01-27 (9074.8)</title></rect><rect x="84" y="67" width="13" height="13" rx="2" fill="#ebedf0"><title>2026-01-28 (0)</title></rect><rect x="84" y="82" width="13" height="13" rx="2" fill="#ebedf0"><title>2026-01-29 (0)</title></rect><rect x="84" y="97" width="13" height="13" rx="2" fill="#40c463"><title>2026-01-30 (8151.0)</title></rect><rect x="84" y="112" width="13" height="13" rx="2" fill="#9be9a8"><title>2026-01-31 (5434.0)</title></rect><rect x="99" y="22" width="13" height="13" rx="2" fill="#9be9a8"><title>2026-02-01 (5434.0)</title></rect><rect x="99" y="37" width="13" height="13" rx="2" fill="#30a14e"><title>2026-02-02 (15146.0)</title></rect><rect x="99" y="52" width="13" height="13" rx="2" fill="#ebedf0"><title>2026-02-03 (0)</title></rect><rect x="99" y="67" width="13" height="13" rx="2" fill="#9be9a8"><title>2026-02-04 (558.2)</title></rect><rect x="99" y="82" width="13" height="13" rx="2" fill="#9be9a8"><title>2026-02-05 (5631.6)</title></rect><rect x="99" y="97" width="13" height="13" rx="2" fill="#40c463"><title>2026-02-06 (10952.0)</title></rect><rect x="99" y="112" width="13" height="13" rx="2" fill="#9be9a8"><title>2026-02-07 (3013.4)</title></rect><rect x="114" y="22" width="13" height="13" rx="2" fill="#9be9a8"><title>2026-02-08 (1101.6)</title></rect><rect x="114" y="37" width="13" height="13" rx="2" fill="#ebedf0"><title>2026-02-09 (0)</title></rect><rect x="114" y="52" width="13" height="13" rx="2" fill="#ebedf0"><title>2026-02-10 (0)</title></rect><rect x="114" y="67" width="13" height="13" rx="2" fill="#ebedf0"><title>2026-02-11 (0)</title></rect><rect x="114" y="82" width="13" height="13" rx="2" fill="#ebedf0"><title>2026-02-12 (0)</title></rect><rect x="114" y="97" width="13" height="13" rx="2" fill="#ebedf0"><title>2026-02-13 (0)</title></rect><rect x="114" y="112" width="13" height="13" rx="2" fill="#ebedf0"><title>2026-02-14 (0)</title></rect><rect x="129" y="22" width="13" height="13" rx="2" fill="#ebedf0"><title>2026-02-15 (0)</title></rect><rect x="129" y="37" width="13" height="13" rx="2" fill="#ebedf0"><title>2026-02-16 (0)</title></rect><rect x="129" y="52" width="13" height="13" rx="2" fill="#ebedf0"><title>2026-02-17 (0)</title></rect><rect x="129" y="67" width="13" height="13" rx="2" fill="#ebedf0"><title>2026-02-18 (0)</title></rect><rect x="129" y="82" width="13" height="13" rx="2" fill="#ebedf0"><title>2026-02-19 (0)</title></rect><rect x="129" y="97" width="13" height="13" rx="2" fill="#9be9a8"><title>2026-02-20 (4416.4)</title></rect><rect x="129" y="112" width="13" height="13" rx="2" fill="#ebedf0"><title>2026-02-21 (0)</title></rect><rect x="144" y="22" width="13" height="13" rx="2" fill="#ebedf0"><title>2026-02-22 (0)</title></rect><rect x="144" y="37" width="13" height="13" rx="2" fill="#ebedf0"><title>2026-02-23 (0)</title></rect><rect x="144" y="52" width="13" height="13" rx="2" fill="#ebedf0"><title>2026-02-24 (0)</title></rect><rect x="144" y="67" width="13" height="13" rx="2" fill="#ebedf0"><title>2026-02-25 (0)</title></rect><rect x="144" y="82" width="13" height="13" rx="2" fill="#9be9a8"><title>2026-02-26 (5340.1)</title></rect><rect x="144" y="97" width="13" height="13" rx="2" fill="#30a14e"><title>2026-02-27 (12745.2)</title></rect><rect x="144" y="112" width="13" height="13" rx="2" fill="#40c463"><title>2026-02-28 (6787.6)</title></rect><rect x="159" y="22" width="13" height="13" rx="2" fill="#40c463"><title>2026-03-01 (8753.7)</title></rect><rect x="159" y="37" width="13" height="13" rx="2" fill="#9be9a8"><title>2026-03-02 (2988.7)</title></rect><rect x="159" y="52" width="13" height="13" rx="2" fill="#ebedf0"><title>2026-03-03 (0)</title></rect><rect x="159" y="67" width="13" height="13" rx="2" fill="#9be9a8"><title>2026-03-04 (2717.0)</title></rect><rect x="159" y="82" width="13" height="13" rx="2" fill="#9be9a8"><title>2026-03-05 (1895.7)</title></rect><rect x="159" y="97" width="13" height="13" rx="2" fill="#ebedf0"><title>2026-03-06 (0)</title></rect><rect x="159" y="112" width="13" height="13" rx="2" fill="#ebedf0"><title>2026-03-07 (0)</title></rect><rect x="174" y="22" width="13" height="13" rx="2" fill="#ebedf0"><title>2026-03-08 (0)</title></rect><rect x="174" y="37" width="13" height="13" rx="2" fill="#ebedf0"><title>2026-03-09 (0)</title></rect><rect x="174" y="52" width="13" height="13" rx="2" fill="#ebedf0"><title>2026-03-10 (0)</title></rect><rect x="174" y="67" width="13" height="13" rx="2" fill="#ebedf0"><title>2026-03-11 (0)</title></rect><rect x="174" y="82" width="13" height="13" rx="2" fill="#ebedf0"><title>2026-03-12 (0)</title></rect><rect x="174" y="97" width="13" height="13" rx="2" fill="#9be9a8"><title>2026-03-13 (4392.3)</title></rect><rect x="174" y="112" width="13" height="13" rx="2" fill="#9be9a8"><title>2026-03-14 (101.4)</title></rect><rect x="189" y="22" width="13" height="13" rx="2" fill="#ebedf0"><title>2026-03-15 (0)</title></rect><rect x="189" y="37" width="13" height="13" rx="2" fill="#9be9a8"><title>2026-03-16 (5685.9)</title></rect><rect x="189" y="52" width="13" height="13" rx="2" fill="#9be9a8"><title>2026-03-17 (5211.7)</title></rect><rect x="189" y="67" width="13" height="13" rx="2" fill="#9be9a8"><title>2026-03-18 (64.0)</title></rect><rect x="189" y="82" width="13" height="13" rx="2" fill="#9be9a8"><title>2026-03-19 (5456.0)</title></rect><rect x="189" y="97" width="13" height="13" rx="2" fill="#9be9a8"><title>2026-03-20 (3220.9)</title></rect><rect x="189" y="112" width="13" height="13" rx="2" fill="#ebedf0"><title>2026-03-21 (0)</title></rect><rect x="204" y="22" width="13" height="13" rx="2" fill="#ebedf0"><title>2026-03-22 (0)</title></rect><rect x="204" y="37" width="13" height="13" rx="2" fill="#40c463"><title>2026-03-23 (8151.0)</title></rect><rect x="204" y="52" width="13" height="13" rx="2" fill="#9be9a8"><title>2026-03-24 (61.8)</title></rect><rect x="204" y="67" width="13" height="13" rx="2" fill="#ebedf0"><title>2026-03-25 (0)</title></rect><rect x="204" y="82" width="13" height="13" rx="2" fill="#9be9a8"><title>2026-03-26 (2717.0)</title></rect><rect x="204" y="97" width="13" height="13" rx="2" fill="#30a14e"><title>2026-03-27 (14113.6)</title></rect><rect x="204" y="112" width="13" height="13" rx="2" fill="#30a14e"><title>2026-03-28 (12676.0)</title></rect><rect x="219" y="22" width="13" height="13" rx="2" fill="#9be9a8"><title>2026-03-29 (2717.0)</title></rect><rect x="219" y="37" width="13" height="13" rx="2" fill="#9be9a8"><title>2026-03-30 (3127.0)</title></rect><rect x="219" y="52" width="13" height="13" rx="2" fill="#9be9a8"><title>2026-03-31 (538.5)</title></rect><rect x="219" y="67" width="13" height="13" rx="2" fill="#9be9a8"><title>2026-04-01 (55.0)</title></rect><rect x="219" y="82" width="13" height="13" rx="2" fill="#9be9a8"><title>2026-04-02 (935.9)</title></rect><rect x="219" y="97" width="13" height="13" rx="2" fill="#ebedf0"><title>2026-04-03 (0)</title></rect><rect x="219" y="112" width="13" height="13" rx="2" fill="#ebedf0"><title>2026-04-04 (0)</title></rect><rect x="234" y="22" width="13" height="13" rx="2" fill="#ebedf0"><title>2026-04-05 (0)</title></rect><rect x="234" y="37" width="13" height="13" rx="2" fill="#ebedf0"><title>2026-04-06 (0)</title></rect><rect x="234" y="52" width="13" height="13" rx="2" fill="#9be9a8"><title>2026-04-07 (186.1)</title></rect><rect x="234" y="67" width="13" height="13" rx="2" fill="#ebedf0"><title>2026-04-08 (0)</title></rect><rect x="234" y="82" width="13" height="13" rx="2" fill="#9be9a8"><title>2026-04-09 (7.9)</title></rect><rect x="234" y="97" width="13" height="13" rx="2" fill="#9be9a8"><title>2026-04-10 (4032.2)</title></rect><rect x="234" y="112" width="13" height="13" rx="2" fill="#9be9a8"><title>2026-04-11 (25.5)</title></rect><rect x="249" y="22" width="13" height="13" rx="2" fill="#ebedf0"><title>2026-04-12 (0)</title></rect><rect x="249" y="37" width="13" height="13" rx="2" fill="#9be9a8"><title>2026-04-13 (902.0)</title></rect><rect x="249" y="52" width="13" height="13" rx="2" fill="#9be9a8"><title>2026-04-14 (141.6)</title></rect><rect x="249" y="67" width="13" height="13" rx="2" fill="#9be9a8"><title>2026-04-15 (75.4)</title></rect><rect x="249" y="82" width="13" height="13" rx="2" fill="#ebedf0"><title>2026-04-16 (0)</title></rect><rect x="249" y="97" width="13" height="13" rx="2" fill="#40c463"><title>2026-04-17 (7879.8)</title></rect><rect x="249" y="112" width="13" height="13" rx="2" fill="#9be9a8"><title>2026-04-18 (5434.0)</title></rect><rect x="264" y="22" width="13" height="13" rx="2" fill="#40c463"><title>2026-04-19 (6246.2)</title></rect><rect x="264" y="37" width="13" height="13" rx="2" fill="#9be9a8"><title>2026-04-20 (795.2)</title></rect><rect x="264" y="52" width="13" height="13" rx="2" fill="#9be9a8"><title>2026-04-21 (91.0)</title></rect><rect x="264" y="67" width="13" height="13" rx="2" fill="#40c463"><title>2026-04-22 (10509.3)</title></rect><rect x="264" y="82" width="13" height="13" rx="2" fill="#9be9a8"><title>2026-04-23 (1824.9)</title></rect><rect x="264" y="97" width="13" height="13" rx="2" fill="#40c463"><title>2026-04-24 (10801.5)</title></rect><rect x="264" y="112" width="13" height="13" rx="2" fill="#30a14e"><title>2026-04-25 (15450.7)</title></rect><rect x="279" y="22" width="13" height="13" rx="2" fill="#30a14e"><title>2026-04-26 (15848.8)</title></rect><rect x="279" y="37" width="13" height="13" rx="2" fill="#9be9a8"><title>2026-04-27 (3586.4)</title></rect><rect x="279" y="52" width="13" height="13" rx="2" fill="#9be9a8"><title>2026-04-28 (1730.0)</title></rect><rect x="279" y="67" width="13" height="13" rx="2" fill="#9be9a8"><title>2026-04-29 (3867.7)</title></rect><rect x="279" y="82" width="13" height="13" rx="2" fill="#9be9a8"><title>2026-04-30 (2226.1)</title></rect><rect x="279" y="97" width="13" height="13" rx="2" fill="#9be9a8"><title>2026-05-01 (1148.0)</title></rect><rect x="279" y="112" width="13" height="13" rx="2" fill="#9be9a8"><title>2026-05-02 (131.6)</title></rect><rect x="294" y="22" width="13" height="13" rx="2" fill="#9be9a8"><title>2026-05-03 (5962.3)</title></rect><rect x="294" y="37" width="13" height="13" rx="2" fill="#9be9a8"><title>2026-05-04 (1934.6)</title></rect><rect x="294" y="52" width="13" height="13" rx="2" fill="#9be9a8"><title>2026-05-05 (2998.2)</title></rect><rect x="294" y="67" width="13" height="13" rx="2" fill="#40c463"><title>2026-05-06 (6501.8)</title></rect><rect x="294" y="82" width="13" height="13" rx="2" fill="#9be9a8"><title>2026-05-07 (2609.7)</title></rect><rect x="294" y="97" width="13" height="13" rx="2" fill="#9be9a8"><title>2026-05-08 (2218.5)</title></rect><rect x="294" y="112" width="13" height="13" rx="2" fill="#9be9a8"><title>2026-05-09 (980.5)</title></rect><rect x="309" y="22" width="13" height="13" rx="2" fill="#9be9a8"><title>2026-05-10 (2741.6)</title></rect><rect x="309" y="37" width="13" height="13" rx="2" fill="#9be9a8"><title>2026-05-11 (796.2)</title></rect><rect x="309" y="52" width="13" height="13" rx="2" fill="#9be9a8"><title>2026-05-12 (1488.7)</title></rect><rect x="309" y="67" width="13" height="13" rx="2" fill="#9be9a8"><title>2026-05-13 (308.1)</title></rect><rect x="309" y="82" width="13" height="13" rx="2" fill="#9be9a8"><title>2026-05-14 (387.5)</title></rect><rect x="309" y="97" width="13" height="13" rx="2" fill="#9be9a8"><title>2026-05-15 (2074.5)</title></rect><rect x="309" y="112" width="13" height="13" rx="2" fill="#9be9a8"><title>2026-05-16 (393.5)</title></rect><rect x="324" y="22" width="13" height="13" rx="2" fill="#40c463"><title>2026-05-17 (6502.6)</title></rect><rect x="324" y="37" width="13" height="13" rx="2" fill="#9be9a8"><title>2026-05-18 (2455.1)</title></rect><rect x="324" y="52" width="13" height="13" rx="2" fill="#30a14e"><title>2026-05-19 (15902.3)</title></rect><rect x="324" y="67" width="13" height="13" rx="2" fill="#30a14e"><title>2026-05-20 (13854.8)</title></rect><rect x="324" y="82" width="13" height="13" rx="2" fill="#30a14e"><title>2026-05-21 (12815.0)</title></rect><rect x="324" y="97" width="13" height="13" rx="2" fill="#30a14e"><title>2026-05-22 (13387.0)</title></rect><rect x="324" y="112" width="13" height="13" rx="2" fill="#30a14e"><title>2026-05-23 (17094.0)</title></rect><rect x="339" y="22" width="13" height="13" rx="2" fill="#30a14e"><title>2026-05-24 (16545.0)</title></rect><rect x="339" y="37" width="13" height="13" rx="2" fill="#40c463"><title>2026-05-25 (11495.0)</title></rect><rect x="339" y="52" width="13" height="13" rx="2" fill="#40c463"><title>2026-05-26 (11848.3)</title></rect><rect x="339" y="67" width="13" height="13" rx="2" fill="#40c463"><title>2026-05-27 (11878.2)</title></rect><rect x="339" y="82" width="13" height="13" rx="2" fill="#40c463"><title>2026-05-28 (11150.5)</title></rect><rect x="339" y="97" width="13" height="13" rx="2" fill="#40c463"><title>2026-05-29 (11951.9)</title></rect><rect x="339" y="112" width="13" height="13" rx="2" fill="#30a14e"><title>2026-05-30 (14091.0)</title></rect><rect x="354" y="22" width="13" height="13" rx="2" fill="#40c463"><title>2026-05-31 (11649.0)</title></rect><rect x="354" y="37" width="13" height="13" rx="2" fill="#40c463"><title>2026-06-01 (7903.8)</title></rect><rect x="354" y="52" width="13" height="13" rx="2" fill="#40c463"><title>2026-06-02 (7884.1)</title></rect><rect x="354" y="67" width="13" height="13" rx="2" fill="#40c463"><title>2026-06-03 (7194.0)</title></rect><rect x="354" y="82" width="13" height="13" rx="2" fill="#40c463"><title>2026-06-04 (9629.0)</title></rect><rect x="354" y="97" width="13" height="13" rx="2" fill="#40c463"><title>2026-06-05 (8470.0)</title></rect><rect x="354" y="112" width="13" height="13" rx="2" fill="#40c463"><title>2026-06-06 (11396.0)</title></rect><rect x="369" y="22" width="13" height="13" rx="2" fill="#30a14e"><title>2026-06-07 (13448.3)</title></rect><rect x="369" y="37" width="13" height="13" rx="2" fill="#40c463"><title>2026-06-08 (7480.0)</title></rect><rect x="369" y="52" width="13" height="13" rx="2" fill="#216e39"><title>2026-06-09 (24631.1)</title></rect><rect x="369" y="67" width="13" height="13" rx="2" fill="#30a14e"><title>2026-06-10 (15402.8)</title></rect><rect x="369" y="82" width="13" height="13" rx="2" fill="#40c463"><title>2026-06-11 (6655.0)</title></rect><rect x="369" y="97" width="13" height="13" rx="2" fill="#40c463"><title>2026-06-12 (7424.1)</title></rect><rect x="369" y="112" width="13" height="13" rx="2" fill="#30a14e"><title>2026-06-13 (13682.3)</title></rect><rect x="384" y="22" width="13" height="13" rx="2" fill="#40c463"><title>2026-06-14 (7409.8)</title></rect><rect x="384" y="37" width="13" height="13" rx="2" fill="#9be9a8"><title>2026-06-15 (6028.8)</title></rect><rect x="384" y="52" width="13" height="13" rx="2" fill="#9be9a8"><title>2026-06-16 (4368.3)</title></rect><rect x="384" y="67" width="13" height="13" rx="2" fill="#40c463"><title>2026-06-17 (6176.9)</title></rect><rect x="384" y="82" width="13" height="13" rx="2" fill="#9be9a8"><title>2026-06-18 (5747.9)</title></rect><rect x="384" y="97" width="13" height="13" rx="2" fill="#40c463"><title>2026-06-19 (8230.1)</title></rect><rect x="384" y="112" width="13" height="13" rx="2" fill="#30a14e"><title>2026-06-20 (14821.0)</title></rect><rect x="399" y="22" width="13" height="13" rx="2" fill="#216e39"><title>2026-06-21 (22321.3)</title></rect><rect x="399" y="37" width="13" height="13" rx="2" fill="#30a14e"><title>2026-06-22 (18220.4)</title></rect><rect x="399" y="52" width="13" height="13" rx="2" fill="#216e39"><title>2026-06-23 (19321.5)</title></rect><rect x="399" y="67" width="13" height="13" rx="2" fill="#216e39"><title>2026-06-24 (19435.3)</title></rect><rect x="399" y="82" width="13" height="13" rx="2" fill="#40c463"><title>2026-06-25 (6933.8)</title></rect><rect x="399" y="97" width="13" height="13" rx="2" fill="#9be9a8"><title>2026-06-26 (5862.3)</title></rect><rect x="399" y="112" width="13" height="13" rx="2" fill="#9be9a8"><title>2026-06-27 (3072.2)</title></rect><rect x="414" y="22" width="13" height="13" rx="2" fill="#9be9a8"><title>2026-06-28 (3107.3)</title></rect><rect x="414" y="37" width="13" height="13" rx="2" fill="#9be9a8"><title>2026-06-29 (2881.5)</title></rect><rect x="414" y="52" width="13" height="13" rx="2" fill="#9be9a8"><title>2026-06-30 (2198.0)</title></rect><rect x="414" y="67" width="13" height="13" rx="2" fill="#9be9a8"><title>2026-07-01 (1060.6)</title></rect><rect x="414" y="82" width="13" height="13" rx="2" fill="#9be9a8"><title>2026-07-02 (547.2)</title></rect><rect x="414" y="97" width="13" height="13" rx="2" fill="#9be9a8"><title>2026-07-03 (110.0)</title></rect><text x="24" y="145" font-size="9" fill="#cccccc">적음</text><rect x="52" y="135" width="13" height="13" rx="2" fill="#ebedf0"/><rect x="67" y="135" width="13" height="13" rx="2" fill="#9be9a8"/><rect x="82" y="135" width="13" height="13" rx="2" fill="#40c463"/><rect x="97" y="135" width="13" height="13" rx="2" fill="#30a14e"/><rect x="112" y="135" width="13" height="13" rx="2" fill="#216e39"/><text x="131" y="145" font-size="9" fill="#cccccc">많음</text><text x="24" y="163" font-size="9" fill="#cccccc">기준: 2026-07-03 19:51</text>
</svg>