<svg xmlns="http://www.w3.org/2000/svg" width="363" height="260">
<text x="181" y="18" text-anchor="middle" font-size="13" font-weight="bold" fill="#111111">최근 2주 요일별 활동</text>
<text x="24" y="46" text-anchor="end" font-size="12" fill="#333333">일</text><rect x="28" y="30" width="190" height="22" rx="3" fill="#30a14e"><title>일: 9585.0점</title></rect><text x="223" y="46" font-size="10" fill="#333333">9585.0</text><text x="24" y="74" text-anchor="end" font-size="12" fill="#333333">월</text><rect x="28" y="58" width="204" height="22" rx="3" fill="#30a14e"><title>월: 10310.3점</title></rect><text x="237" y="74" font-size="10" fill="#333333">10310.3</text><text x="24" y="102" text-anchor="end" font-size="12" fill="#333333">화</text><rect x="28" y="86" width="192" height="22" rx="3" fill="#30a14e"><title>화: 9717.5점</title></rect><text x="225" y="102" font-size="10" fill="#333333">9717.5</text><text x="24" y="130" text-anchor="end" font-size="12" fill="#333333">수</text><rect x="28" y="114" width="189" height="22" rx="3" fill="#30a14e"><title>수: 9536.3점</title></rect><text x="222" y="130" font-size="10" fill="#333333">9536.3</text><text x="24" y="158" text-anchor="end" font-size="12" fill="#333333">목</text><rect x="28" y="142" width="77" height="22" rx="3" fill="#40c463"><title>목: 3919.4점</title></rect><text x="110" y="158" font-size="10" fill="#333333">3919.4</text><text x="24" y="186" text-anchor="end" font-size="12" fill="#333333">금</text><rect x="28" y="170" width="278" height="22" rx="3" fill="#216e39"><title>금: 14048.3점</title></rect><text x="311" y="186" font-size="10" fill="#333333">14048.3</text><text x="24" y="214" text-anchor="end" font-size="12" fill="#333333">토</text><rect x="28" y="198" width="280" height="22" rx="3" fill="#216e39"><title>토: 14110.3점</title></rect><text x="313" y="214" font-size="10" fill="#333333">14110.3</text>
<text x="28" y="254" font-size="9" fill="#666666">기준: 2026-07-16 16:43</text>
</svg>