<svg xmlns="http://www.w3.org/2000/svg" width="363" height="260">
<text x="181" y="18" text-anchor="middle" font-size="13" font-weight="bold" fill="#e0e0e0">최근 1달 요일별 활동</text>
<text x="24" y="46" text-anchor="end" font-size="12" fill="#cccccc">일</text><rect x="28" y="30" width="280" height="22" rx="3" fill="#216e39"><title>일: 55221.1점</title></rect><text x="313" y="46" font-size="10" fill="#cccccc">55221.1</text><text x="24" y="74" text-anchor="end" font-size="12" fill="#cccccc">월</text><rect x="28" y="58" width="239" height="22" rx="3" fill="#216e39"><title>월: 47260.3점</title></rect><text x="272" y="74" font-size="10" fill="#cccccc">47260.3</text><text x="24" y="102" text-anchor="end" font-size="12" fill="#cccccc">화</text><rect x="28" y="86" width="236" height="22" rx="3" fill="#216e39"><title>화: 46637.7점</title></rect><text x="269" y="102" font-size="10" fill="#cccccc">46637.7</text><text x="24" y="130" text-anchor="end" font-size="12" fill="#cccccc">수</text><rect x="28" y="114" width="245" height="22" rx="3" fill="#216e39"><title>수: 48348.8점</title></rect><text x="278" y="130" font-size="10" fill="#cccccc">48348.8</text><text x="24" y="158" text-anchor="end" font-size="12" fill="#cccccc">목</text><rect x="28" y="142" width="173" height="22" rx="3" fill="#30a14e"><title>목: 34134.8점</title></rect><text x="206" y="158" font-size="10" fill="#cccccc">34134.8</text><text x="24" y="186" text-anchor="end" font-size="12" fill="#cccccc">금</text><rect x="28" y="170" width="187" height="22" rx="3" fill="#30a14e"><title>금: 36998.0점</title></rect><text x="220" y="186" font-size="10" fill="#cccccc">36998.0</text><text x="24" y="214" text-anchor="end" font-size="12" fill="#cccccc">토</text><rect x="28" y="198" width="262" height="22" rx="3" fill="#216e39"><title>토: 51735.0점</title></rect><text x="295" y="214" font-size="10" fill="#cccccc">51735.0</text>
<text x="28" y="254" font-size="9" fill="#999999">기준: 2026-07-10 17:11</text>
</svg>