<svg xmlns="http://www.w3.org/2000/svg" width="363" height="260">
<text x="181" y="18" text-anchor="middle" font-size="13" font-weight="bold" fill="#e0e0e0">최근 1주 요일별 활동</text>
<text x="24" y="46" text-anchor="end" font-size="12" fill="#cccccc">일</text><rect x="28" y="30" width="95" height="22" rx="3" fill="#40c463"><title>일: 1705.6점</title></rect><text x="128" y="46" font-size="10" fill="#cccccc">1705.6</text><text x="24" y="74" text-anchor="end" font-size="12" fill="#cccccc">월</text><rect x="28" y="58" width="73" height="22" rx="3" fill="#40c463"><title>월: 1306.2점</title></rect><text x="106" y="74" font-size="10" fill="#cccccc">1306.2</text><text x="24" y="102" text-anchor="end" font-size="12" fill="#cccccc">화</text><rect x="28" y="86" width="37" height="22" rx="3" fill="#9be9a8"><title>화: 672.0점</title></rect><text x="70" y="102" font-size="10" fill="#cccccc">672.0</text><text x="24" y="130" text-anchor="end" font-size="12" fill="#cccccc">수</text><rect x="28" y="114" width="3" height="22" rx="3" fill="#9be9a8"><title>수: 54.2점</title></rect><text x="36" y="130" font-size="10" fill="#cccccc">54.2</text><text x="24" y="158" text-anchor="end" font-size="12" fill="#cccccc">목</text><rect x="28" y="142" width="280" height="22" rx="3" fill="#216e39"><title>목: 4980.8점</title></rect><text x="313" y="158" font-size="10" fill="#cccccc">4980.8</text><text x="24" y="186" text-anchor="end" font-size="12" fill="#cccccc">금</text><rect x="28" y="170" width="223" height="22" rx="3" fill="#216e39"><title>금: 3970.9점</title></rect><text x="256" y="186" font-size="10" fill="#cccccc">3970.9</text><text x="24" y="214" text-anchor="end" font-size="12" fill="#cccccc">토</text><rect x="28" y="198" width="107" height="22" rx="3" fill="#40c463"><title>토: 1916.1점</title></rect><text x="140" y="214" font-size="10" fill="#cccccc">1916.1</text>
<text x="28" y="254" font-size="9" fill="#999999">기준: 2026-07-01 15:13</text>
</svg>