<svg xmlns="http://www.w3.org/2000/svg" width="363" height="260">
<text x="181" y="18" text-anchor="middle" font-size="13" font-weight="bold" fill="#e0e0e0">최근 1달 요일별 활동</text>
<text x="24" y="46" text-anchor="end" font-size="12" fill="#cccccc">일</text><rect x="28" y="30" width="185" height="22" rx="3" fill="#30a14e"><title>일: 7223.3점</title></rect><text x="218" y="46" font-size="10" fill="#cccccc">7223.3</text><text x="24" y="74" text-anchor="end" font-size="12" fill="#cccccc">월</text><rect x="28" y="58" width="151" height="22" rx="3" fill="#30a14e"><title>월: 5926.6점</title></rect><text x="184" y="74" font-size="10" fill="#cccccc">5926.6</text><text x="24" y="102" text-anchor="end" font-size="12" fill="#cccccc">화</text><rect x="28" y="86" width="280" height="22" rx="3" fill="#216e39"><title>화: 10930.5점</title></rect><text x="313" y="102" font-size="10" fill="#cccccc">10930.5</text><text x="24" y="130" text-anchor="end" font-size="12" fill="#cccccc">수</text><rect x="28" y="114" width="229" height="22" rx="3" fill="#216e39"><title>수: 8953.2점</title></rect><text x="262" y="130" font-size="10" fill="#cccccc">8953.2</text><text x="24" y="158" text-anchor="end" font-size="12" fill="#cccccc">목</text><rect x="28" y="142" width="204" height="22" rx="3" fill="#30a14e"><title>목: 8002.2점</title></rect><text x="237" y="158" font-size="10" fill="#cccccc">8002.2</text><text x="24" y="186" text-anchor="end" font-size="12" fill="#cccccc">금</text><rect x="28" y="170" width="180" height="22" rx="3" fill="#30a14e"><title>금: 7054.0점</title></rect><text x="213" y="186" font-size="10" fill="#cccccc">7054.0</text><text x="24" y="214" text-anchor="end" font-size="12" fill="#cccccc">토</text><rect x="28" y="198" width="171" height="22" rx="3" fill="#30a14e"><title>토: 6687.0점</title></rect><text x="204" y="214" font-size="10" fill="#cccccc">6687.0</text>
<text x="28" y="254" font-size="9" fill="#999999">기준: 2026-06-02 10:56</text>
</svg>